<?xml version="1.0" encoding="UTF-8" standalone="no"?>
<svg width="210.058mm" height="296.926mm" viewBox="0 0 2977.2 4208.4"
 xmlns="http://www.w3.org/2000/svg" xmlns:xlink="http://www.w3.org/1999/xlink" version="1.2" baseProfile="full">
<title>RYDEEN</title>
<desc>Generated by MuseScore Studio 4.5.2</desc>
<path class="" fill="#ffffff" fill-rule="evenodd" d="M0,0 L2977.2,0 L2977.2,4208.4 L0,4208.4 L0,0 "/>
<polyline class="StaffLines" fill="none" stroke="#000000" stroke-width="2.73" stroke-linejoin="bevel" points="212.598,634.198 2764.6,634.198" />
<polyline class="StaffLines" fill="none" stroke="#000000" stroke-width="2.73" stroke-linejoin="bevel" points="212.598,658.998 2764.6,658.998" />
<polyline class="StaffLines" fill="none" stroke="#000000" stroke-width="2.73" stroke-linejoin="bevel" points="212.598,683.798 2764.6,683.798" />
<polyline class="StaffLines" fill="none" stroke="#000000" stroke-width="2.73" stroke-linejoin="bevel" points="212.598,708.598 2764.6,708.598" />
<polyline class="StaffLines" fill="none" stroke="#000000" stroke-width="2.73" stroke-linejoin="bevel" points="212.598,733.398 2764.6,733.398" />
<polyline class="StaffLines" fill="none" stroke="#000000" stroke-width="2.73" stroke-linejoin="bevel" points="212.598,1192.2 2764.6,1192.2" />
<polyline class="StaffLines" fill="none" stroke="#000000" stroke-width="2.73" stroke-linejoin="bevel" points="212.598,1217 2764.6,1217" />
<polyline class="StaffLines" fill="none" stroke="#000000" stroke-width="2.73" stroke-linejoin="bevel" points="212.598,1241.8 2764.6,1241.8" />
<polyline class="StaffLines" fill="none" stroke="#000000" stroke-width="2.73" stroke-linejoin="bevel" points="212.598,1266.6 2764.6,1266.6" />
<polyline class="StaffLines" fill="none" stroke="#000000" stroke-width="2.73" stroke-linejoin="bevel" points="212.598,1291.4 2764.6,1291.4" />
<polyline class="StaffLines" fill="none" stroke="#000000" stroke-width="2.73" stroke-linejoin="bevel" points="212.598,1750.2 2764.6,1750.2" />
<polyline class="StaffLines" fill="none" stroke="#000000" stroke-width="2.73" stroke-linejoin="bevel" points="212.598,1775 2764.6,1775" />
<polyline class="StaffLines" fill="none" stroke="#000000" stroke-width="2.73" stroke-linejoin="bevel" points="212.598,1799.8 2764.6,1799.8" />
<polyline class="StaffLines" fill="none" stroke="#000000" stroke-width="2.73" stroke-linejoin="bevel" points="212.598,1824.6 2764.6,1824.6" />
<polyline class="StaffLines" fill="none" stroke="#000000" stroke-width="2.73" stroke-linejoin="bevel" points="212.598,1849.4 2764.6,1849.4" />
<polyline class="StaffLines" fill="none" stroke="#000000" stroke-width="2.73" stroke-linejoin="bevel" points="212.598,2308.2 2764.6,2308.2" />
<polyline class="StaffLines" fill="none" stroke="#000000" stroke-width="2.73" stroke-linejoin="bevel" points="212.598,2333 2764.6,2333" />
<polyline class="StaffLines" fill="none" stroke="#000000" stroke-width="2.73" stroke-linejoin="bevel" points="212.598,2357.8 2764.6,2357.8" />
<polyline class="StaffLines" fill="none" stroke="#000000" stroke-width="2.73" stroke-linejoin="bevel" points="212.598,2382.6 2764.6,2382.6" />
<polyline class="StaffLines" fill="none" stroke="#000000" stroke-width="2.73" stroke-linejoin="bevel" points="212.598,2407.4 2764.6,2407.4" />
<path class="Text" d="M1342.53,255.176 L1348.91,255.176 C1360.02,255.616 1364.42,260.126 1365.63,272.226 L1366.18,277.836 C1367.5,290.266 1371.57,295.326 1380.26,295.326 C1389.28,295.326 1393.57,289.276 1393.9,276.076 L1389.28,276.076 C1388.84,283.666 1387.52,286.966 1384.55,286.966 C1382.02,286.966 1380.92,285.096 1379.05,277.506 L1377.29,270.576 C1374.87,260.456 1370.58,255.836 1362,253.636 C1377.84,251.436 1385.43,245.056 1385.43,233.946 C1385.43,221.406 1374.87,214.256 1356.39,214.256 L1318.33,214.256 L1318.33,219.426 L1320.31,219.426 C1326.58,219.536 1328.67,219.866 1329.55,220.966 C1330.21,221.956 1330.21,222.176 1330.21,227.786 L1330.21,280.256 C1330.21,285.756 1330.21,285.976 1329.55,287.076 C1328.67,288.176 1326.58,288.506 1320.31,288.506 L1318.33,288.506 L1318.33,293.676 L1354.41,293.676 L1354.41,288.506 L1352.43,288.506 C1346.16,288.506 1344.07,288.176 1343.19,287.076 C1342.53,285.976 1342.53,285.756 1342.53,280.256 L1342.53,255.176 M1342.53,250.006 L1342.53,225.806 C1342.31,219.756 1342.86,219.316 1350.12,219.426 L1356.06,219.426 C1366.95,219.426 1371.9,224.046 1371.9,234.056 C1371.9,245.606 1365.74,250.006 1354.63,250.006 L1342.53,250.006 M1425.79,279.706 L1413.69,251.436 C1413.25,250.336 1413.03,249.786 1413.03,249.236 C1413.03,247.146 1414.35,246.376 1418.09,246.376 L1420.4,246.376 L1420.4,242.416 L1394.22,242.416 L1394.22,246.376 L1395.43,246.376 C1399.17,246.486 1400.6,247.586 1402.91,252.316 L1420.84,292.906 L1418.97,296.756 C1415.01,305.116 1409.84,310.946 1406.32,310.946 C1405.33,310.946 1404.56,310.506 1404.56,309.846 C1404.56,309.626 1404.67,309.296 1404.78,308.856 C1405.11,307.866 1405.33,306.876 1405.33,305.996 C1405.33,303.136 1403.02,301.046 1399.72,301.046 C1395.87,301.046 1393.12,303.906 1393.12,307.866 C1393.12,312.816 1397.3,316.336 1403.13,316.336 C1408.96,316.336 1413.91,313.476 1418.31,307.536 C1421.72,303.026 1423.92,298.406 1428.76,286.416 L1441.3,255.286 C1443.83,248.906 1446.25,246.486 1450.54,246.376 L1451.2,246.376 L1451.2,242.416 L1429.2,242.416 L1429.2,246.376 L1430.96,246.376 C1435.14,246.376 1436.9,247.586 1436.9,250.446 C1436.9,251.656 1436.57,252.976 1435.8,254.846 L1425.79,279.706 M1493.65,294.446 L1512.79,293.676 L1512.79,288.946 L1510.81,288.946 C1504.54,288.616 1503.99,287.956 1503.99,280.916 L1503.99,212.606 L1482.43,213.816 L1482.43,218.546 L1488.92,218.546 C1493.1,218.656 1493.65,219.316 1493.65,224.046 L1493.65,248.906 C1489.58,243.296 1484.85,240.766 1478.47,240.766 C1466.04,240.766 1456.58,252.756 1456.58,268.596 C1456.58,284.216 1465.71,295.326 1478.47,295.326 C1485.4,295.326 1490.13,292.356 1493.65,285.756 L1493.65,294.446 M1480.67,246.706 C1485.18,246.706 1489.47,250.006 1491.45,255.066 C1492.88,258.366 1493.54,262.876 1493.54,268.266 C1493.54,281.136 1488.48,289.386 1480.56,289.386 C1472.75,289.386 1468.13,282.126 1468.13,269.916 C1468.13,263.316 1468.79,258.366 1470.22,254.736 C1472.09,249.786 1476.16,246.706 1480.67,246.706 M1566.12,268.926 C1566.23,252.426 1556.88,240.766 1543.46,240.766 C1529.38,240.766 1518.82,252.976 1518.82,269.476 C1518.82,284.986 1528.83,295.326 1543.68,295.326 C1554.24,295.326 1561.61,290.156 1566.12,279.706 L1562.27,277.616 C1557.76,286.086 1553.14,289.386 1545.77,289.386 C1540.16,289.386 1536.09,287.076 1533.23,282.126 C1531.25,278.826 1530.37,274.976 1530.48,268.926 L1566.12,268.926 M1530.59,264.196 C1530.59,256.496 1534.11,245.496 1543.35,245.496 C1549.95,245.496 1554.35,251.326 1554.35,260.236 C1554.35,263.316 1553.36,264.196 1549.84,264.196 L1530.59,264.196 M1621.12,268.926 C1621.23,252.426 1611.88,240.766 1598.46,240.766 C1584.38,240.766 1573.82,252.976 1573.82,269.476 C1573.82,284.986 1583.83,295.326 1598.68,295.326 C1609.24,295.326 1616.61,290.156 1621.12,279.706 L1617.27,277.616 C1612.76,286.086 1608.14,289.386 1600.77,289.386 C1595.16,289.386 1591.09,287.076 1588.23,282.126 C1586.25,278.826 1585.37,274.976 1585.48,268.926 L1621.12,268.926 M1585.59,264.196 C1585.59,256.496 1589.11,245.496 1598.35,245.496 C1604.95,245.496 1609.35,251.326 1609.35,260.236 C1609.35,263.316 1608.36,264.196 1604.84,264.196 L1585.59,264.196 M1646.97,242.416 L1627.94,243.626 L1627.94,248.356 L1631.9,248.356 C1636.08,248.466 1636.63,249.126 1636.63,253.856 L1636.63,285.316 C1636.52,286.966 1636.41,287.626 1635.97,288.176 C1635.2,289.166 1633.11,289.606 1628.38,289.716 L1627.94,289.716 L1627.94,293.676 L1655.77,293.676 L1655.77,289.716 L1655.33,289.716 C1647.96,289.496 1646.97,288.946 1646.97,284.986 L1646.97,268.706 C1646.97,263.316 1647.74,258.366 1648.95,255.836 C1651.26,250.886 1656.21,247.476 1660.94,247.476 C1663.8,247.476 1667.1,249.016 1668.75,251.326 C1670.4,253.746 1671.17,257.046 1671.17,262.326 L1671.17,285.316 C1671.06,286.966 1670.95,287.626 1670.51,288.176 C1669.74,289.166 1667.54,289.606 1662.81,289.716 L1662.37,289.716 L1662.37,293.676 L1690.2,293.676 L1690.2,289.716 L1689.76,289.716 C1682.5,289.496 1681.51,288.946 1681.51,284.986 L1681.51,262.876 C1681.51,254.956 1681.18,252.976 1679.2,249.236 C1676.45,243.956 1670.95,240.766 1664.35,240.766 C1657.2,240.766 1651.81,244.066 1646.97,251.326 L1646.97,242.416 "/>
<path class="MeasureNumber" d="M228.958,2230.28 L227.798,2230.28 C225.598,2231.92 221.358,2233.32 218.478,2233.32 L217.998,2235.08 L220.758,2235.08 C223.198,2235.08 223.478,2235.16 223.478,2235.88 C223.478,2236.24 223.478,2236.24 223.078,2237.68 L218.798,2253.68 C218.278,2255.68 218.238,2255.8 217.878,2256.16 C217.478,2256.56 216.638,2256.68 214.518,2256.72 L212.798,2256.72 L212.598,2258.6 L227.398,2258.6 L227.638,2256.72 L225.478,2256.72 C222.878,2256.72 222.318,2256.52 222.318,2255.64 C222.318,2255.36 222.478,2254.44 222.678,2253.68 L228.958,2230.28 M237.313,2243.28 C236.073,2244.04 235.713,2244.52 235.713,2245.32 C235.713,2246.08 236.353,2246.64 237.153,2246.64 C238.193,2246.64 238.793,2245.88 238.913,2244.4 C240.153,2243.4 241.473,2242.96 243.073,2242.96 C246.033,2242.96 247.673,2244.8 247.673,2248.12 C247.673,2253.32 244.313,2257.56 240.193,2257.56 C237.833,2257.56 235.913,2256.44 235.913,2255.12 C235.913,2254.88 235.953,2254.8 236.153,2254.68 C237.433,2254.08 238.473,2253.64 238.473,2251.96 C238.473,2250.68 237.473,2249.72 236.073,2249.72 C234.313,2249.72 232.993,2251.2 232.993,2253.12 C232.993,2256.64 236.033,2259.2 240.313,2259.2 C246.793,2259.2 252.033,2254.04 252.033,2247.64 C252.033,2243.6 248.953,2240.76 244.593,2240.76 C242.873,2240.76 241.473,2241.12 239.553,2242.08 L241.793,2234.52 C243.913,2234.96 245.593,2235.16 247.033,2235.16 C249.673,2235.16 252.033,2234.32 253.353,2232.92 C254.033,2232.12 254.433,2231.44 254.433,2230.92 C254.433,2230.68 254.313,2230.44 254.153,2230.44 C254.033,2230.44 253.953,2230.48 253.713,2230.6 C252.393,2231.24 250.713,2231.6 249.153,2231.6 C246.753,2231.6 243.913,2231.2 240.953,2230.44 L237.313,2243.28 "/>
<path class="MeasureNumber" d="M228.958,1672.28 L227.798,1672.28 C225.598,1673.92 221.358,1675.32 218.478,1675.32 L217.998,1677.08 L220.758,1677.08 C223.198,1677.08 223.478,1677.16 223.478,1677.88 C223.478,1678.24 223.478,1678.24 223.078,1679.68 L218.798,1695.68 C218.278,1697.68 218.238,1697.8 217.878,1698.16 C217.478,1698.56 216.638,1698.68 214.518,1698.72 L212.798,1698.72 L212.598,1700.6 L227.398,1700.6 L227.638,1698.72 L225.478,1698.72 C222.878,1698.72 222.318,1698.52 222.318,1697.64 C222.318,1697.36 222.478,1696.44 222.678,1695.68 L228.958,1672.28 M251.193,1672.28 L250.033,1672.28 C247.833,1673.92 243.593,1675.32 240.713,1675.32 L240.233,1677.08 L242.993,1677.08 C245.433,1677.08 245.713,1677.16 245.713,1677.88 C245.713,1678.24 245.713,1678.24 245.313,1679.68 L241.033,1695.68 C240.513,1697.68 240.473,1697.8 240.113,1698.16 C239.713,1698.56 238.873,1698.68 236.753,1698.72 L235.033,1698.72 L234.833,1700.6 L249.633,1700.6 L249.873,1698.72 L247.713,1698.72 C245.113,1698.72 244.553,1698.52 244.553,1697.64 C244.553,1697.36 244.713,1696.44 244.913,1695.68 L251.193,1672.28 "/>
<path class="MeasureNumber" d="M232.288,1114.44 C230.168,1114.68 227.568,1114.84 225.328,1114.84 C224.208,1114.84 222.928,1114.8 221.488,1114.72 C220.168,1114.64 218.848,1114.56 217.488,1114.48 L216.488,1114.44 L212.608,1122.88 L214.088,1123.36 L215.048,1121.76 C216.928,1118.64 217.808,1118.2 221.888,1118.24 L228.648,1118.24 L224.288,1124.48 C219.168,1131.68 219.168,1131.68 217.208,1134.88 C215.448,1137.72 214.728,1139.48 214.728,1140.92 C214.728,1142.32 215.608,1143.2 217.008,1143.2 C218.488,1143.2 219.248,1142.48 219.768,1140.6 C221.768,1133.08 222.968,1130.48 228.528,1121.48 L232.288,1115.64 L232.288,1114.44 "/>
<path class="TieSegment" stroke="#000000" stroke-width="1.24" stroke-linecap="round" stroke-linejoin="round" fill-rule="evenodd" d="M1743.82,640.553 C1801.61,604.865 1974.97,604.865 2032.75,640.553 C1974.97,612.801 1801.61,612.801 1743.82,640.553"/>
<path class="TieSegment" stroke="#000000" stroke-width="1.24" stroke-linecap="round" stroke-linejoin="round" fill-rule="evenodd" d="M852.539,1756.9 C866.683,1735.01 909.116,1735.01 923.26,1756.9 C909.116,1741.8 866.683,1741.8 852.539,1756.9"/>
<polyline class="BarLine" fill="none" stroke="#000000" stroke-width="4.46" stroke-linejoin="bevel" points="1583.7,1748.84 1583.7,1850.76" />
<polyline class="BarLine" fill="none" stroke="#000000" stroke-width="4.46" stroke-linejoin="bevel" points="1002.42,2306.84 1002.42,2408.76" />
<polyline class="BarLine" fill="none" stroke="#000000" stroke-width="4.46" stroke-linejoin="bevel" points="1182.32,1190.84 1182.32,1292.76" />
<polyline class="BarLine" fill="none" stroke="#000000" stroke-width="4.46" stroke-linejoin="bevel" points="1020.68,632.834 1020.68,734.762" />
<polyline class="BarLine" fill="none" stroke="#000000" stroke-width="4.46" stroke-linejoin="bevel" points="2762.37,632.834 2762.37,734.762" />
<polyline class="BarLine" fill="none" stroke="#000000" stroke-width="4.46" stroke-linejoin="bevel" points="2467.99,632.834 2467.99,734.762" />
<polyline class="BarLine" fill="none" stroke="#000000" stroke-width="4.46" stroke-linejoin="bevel" points="1537.96,1190.84 1537.96,1292.76" />
<polyline class="BarLine" fill="none" stroke="#000000" stroke-width="4.46" stroke-linejoin="bevel" points="2762.37,1748.84 2762.37,1850.76" />
<polyline class="BarLine" fill="none" stroke="#000000" stroke-width="4.46" stroke-linejoin="bevel" points="2067.78,1190.84 2067.78,1292.76" />
<polyline class="BarLine" fill="none" stroke="#000000" stroke-width="4.46" stroke-linejoin="bevel" points="1627.15,2306.84 1627.15,2408.76" />
<polyline class="BarLine" fill="none" stroke="#000000" stroke-width="4.46" stroke-linejoin="bevel" points="2739.55,2306.84 2739.55,2408.76" />
<polyline class="BarLine" fill="none" stroke="#000000" stroke-width="13.64" stroke-linejoin="bevel" points="2757.78,2306.84 2757.78,2408.76" />
<polyline class="BarLine" fill="none" stroke="#000000" stroke-width="4.46" stroke-linejoin="bevel" points="2762.37,1190.84 2762.37,1292.76" />
<polyline class="BarLine" fill="none" stroke="#000000" stroke-width="4.46" stroke-linejoin="bevel" points="1983.95,632.834 1983.95,734.762" />
<polyline class="BarLine" fill="none" stroke="#000000" stroke-width="4.46" stroke-linejoin="bevel" points="1689.56,632.834 1689.56,734.762" />
<polyline class="BarLine" fill="none" stroke="#000000" stroke-width="4.46" stroke-linejoin="bevel" points="2253.9,1748.84 2253.9,1850.76" />
<path class="BarLine" transform="matrix(0.992001,0,0,0.992001,2198.4,2345.4)" d="M10.4,0 C10.4,-2.9 8.1,-5.3 5.2,-5.3 C2.3,-5.3 0,-2.9 0,0 C0,2.9 2.3,5.3 5.2,5.3 C8.1,5.3 10.4,2.9 10.4,0"/>
<path class="BarLine" transform="matrix(0.992001,0,0,0.992001,2198.4,2370.2)" d="M10.4,0 C10.4,-2.9 8.1,-5.3 5.2,-5.3 C2.3,-5.3 0,-2.9 0,0 C0,2.9 2.3,5.3 5.2,5.3 C8.1,5.3 10.4,2.9 10.4,0"/>
<polyline class="BarLine" fill="none" stroke="#000000" stroke-width="4.46" stroke-linejoin="bevel" points="2220.11,2306.84 2220.11,2408.76" />
<polyline class="BarLine" fill="none" stroke="#000000" stroke-width="13.64" stroke-linejoin="bevel" points="2238.34,2306.84 2238.34,2408.76" />
<polyline class="BarLine" fill="none" stroke="#000000" stroke-width="4.46" stroke-linejoin="bevel" points="1023.44,1748.84 1023.44,1850.76" />
<polyline class="BarLine" fill="none" stroke="#000000" stroke-width="13.64" stroke-linejoin="bevel" points="688.583,632.834 688.583,734.762" />
<polyline class="BarLine" fill="none" stroke="#000000" stroke-width="4.46" stroke-linejoin="bevel" points="706.811,632.834 706.811,734.762" />
<path class="BarLine" transform="matrix(0.992001,0,0,0.992001,718.219,671.398)" d="M10.4,0 C10.4,-2.9 8.1,-5.3 5.2,-5.3 C2.3,-5.3 0,-2.9 0,0 C0,2.9 2.3,5.3 5.2,5.3 C8.1,5.3 10.4,2.9 10.4,0"/>
<path class="BarLine" transform="matrix(0.992001,0,0,0.992001,718.219,696.198)" d="M10.4,0 C10.4,-2.9 8.1,-5.3 5.2,-5.3 C2.3,-5.3 0,-2.9 0,0 C0,2.9 2.3,5.3 5.2,5.3 C8.1,5.3 10.4,2.9 10.4,0"/>
<polyline class="LedgerLine" fill="none" stroke="#000000" stroke-width="3.97" stroke-linejoin="bevel" points="1514.25,2283.4 1562.84,2283.4" />
<polyline class="LedgerLine" fill="none" stroke="#000000" stroke-width="3.97" stroke-linejoin="bevel" points="1207.37,1167.4 1260.73,1167.4" />
<polyline class="LedgerLine" fill="none" stroke="#000000" stroke-width="3.97" stroke-linejoin="bevel" points="387.222,2283.4 435.814,2283.4" />
<polyline class="LedgerLine" fill="none" stroke="#000000" stroke-width="3.97" stroke-linejoin="bevel" points="2600.59,1725.4 2649.18,1725.4" />
<polyline class="LedgerLine" fill="none" stroke="#000000" stroke-width="3.97" stroke-linejoin="bevel" points="2524.91,1725.4 2573.5,1725.4" />
<polyline class="LedgerLine" fill="none" stroke="#000000" stroke-width="3.97" stroke-linejoin="bevel" points="2278.95,1725.4 2327.54,1725.4" />
<polyline class="LedgerLine" fill="none" stroke="#000000" stroke-width="3.97" stroke-linejoin="bevel" points="1733.52,1725.4 1782.11,1725.4" />
<polyline class="LedgerLine" fill="none" stroke="#000000" stroke-width="3.97" stroke-linejoin="bevel" points="1027.47,2283.4 1076.06,2283.4" />
<polyline class="LedgerLine" fill="none" stroke="#000000" stroke-width="3.97" stroke-linejoin="bevel" points="1608.75,1725.4 1657.34,1725.4" />
<polyline class="LedgerLine" fill="none" stroke="#000000" stroke-width="3.97" stroke-linejoin="bevel" points="2524.91,1700.6 2573.5,1700.6" />
<polyline class="Stem" fill="none" stroke="#000000" stroke-width="2.48" stroke-linejoin="bevel" points="2045.92,2324.77 2045.92,2407.4" />
<polyline class="Stem" fill="none" stroke="#000000" stroke-width="2.48" stroke-linejoin="bevel" points="1057.91,1779.17 1057.91,1861.8" />
<polyline class="Stem" fill="none" stroke="#000000" stroke-width="2.48" stroke-linejoin="bevel" points="1267.37,1791.57 1267.37,1867.92" />
<polyline class="Stem" fill="none" stroke="#000000" stroke-width="2.48" stroke-linejoin="bevel" points="490.807,1196.37 490.807,1266.6" />
<polyline class="Stem" fill="none" stroke="#000000" stroke-width="2.48" stroke-linejoin="bevel" points="1892.2,2337.17 1892.2,2419.8" />
<polyline class="Stem" fill="none" stroke="#000000" stroke-width="2.48" stroke-linejoin="bevel" points="1661.62,2299.97 1661.62,2382.6" />
<polyline class="Stem" fill="none" stroke="#000000" stroke-width="2.48" stroke-linejoin="bevel" points="584.969,1183.97 584.969,1266.6" />
<polyline class="Stem" fill="none" stroke="#000000" stroke-width="2.48" stroke-linejoin="bevel" points="1523.68,2287.57 1523.68,2370.1" />
<polyline class="Stem" fill="none" stroke="#000000" stroke-width="2.48" stroke-linejoin="bevel" points="679.13,1196.37 679.13,1266.6" />
<polyline class="Stem" fill="none" stroke="#000000" stroke-width="2.48" stroke-linejoin="bevel" points="757.563,1791.57 757.563,1855.5" />
<polyline class="Stem" fill="none" stroke="#000000" stroke-width="2.48" stroke-linejoin="bevel" points="773.292,1208.77 773.292,1285.25" />
<polyline class="Stem" fill="none" stroke="#000000" stroke-width="2.48" stroke-linejoin="bevel" points="1369.96,2299.97 1369.96,2382.6" />
<polyline class="Stem" fill="none" stroke="#000000" stroke-width="2.48" stroke-linejoin="bevel" points="1036.9,2287.57 1036.9,2370.2" />
<polyline class="Stem" fill="none" stroke="#000000" stroke-width="2.48" stroke-linejoin="bevel" points="867.453,1208.77 867.453,1288.91" />
<polyline class="Stem" fill="none" stroke="#000000" stroke-width="2.48" stroke-linejoin="bevel" points="454.972,663.165 454.972,745.799" />
<polyline class="Stem" fill="none" stroke="#000000" stroke-width="2.48" stroke-linejoin="bevel" points="930.228,1221.17 930.228,1291.35" />
<polyline class="Stem" fill="none" stroke="#000000" stroke-width="2.48" stroke-linejoin="bevel" points="847.712,2312.37 847.712,2395" />
<polyline class="Stem" fill="none" stroke="#000000" stroke-width="2.48" stroke-linejoin="bevel" points="993.002,1233.57 993.002,1297.52" />
<polyline class="Stem" fill="none" stroke="#000000" stroke-width="2.48" stroke-linejoin="bevel" points="693.992,2337.17 693.992,2419.8" />
<polyline class="Stem" fill="none" stroke="#000000" stroke-width="2.48" stroke-linejoin="bevel" points="568.987,650.765 568.987,733.398" />
<polyline class="Stem" fill="none" stroke="#000000" stroke-width="2.48" stroke-linejoin="bevel" points="1087.16,1221.17 1087.16,1291.48" />
<polyline class="Stem" fill="none" stroke="#000000" stroke-width="2.48" stroke-linejoin="bevel" points="396.646,2287.57 396.646,2370.2" />
<polyline class="Stem" fill="none" stroke="#000000" stroke-width="2.48" stroke-linejoin="bevel" points="1131.16,638.365 1131.16,708.598" />
<polyline class="Stem" fill="none" stroke="#000000" stroke-width="2.48" stroke-linejoin="bevel" points="2685.7,1741.97 2685.7,1805.9" />
<polyline class="Stem" fill="none" stroke="#000000" stroke-width="2.48" stroke-linejoin="bevel" points="2610.02,1729.57 2610.02,1799.8" />
<polyline class="Stem" fill="none" stroke="#000000" stroke-width="2.48" stroke-linejoin="bevel" points="1207.17,625.965 1207.17,708.598" />
<polyline class="Stem" fill="none" stroke="#000000" stroke-width="2.48" stroke-linejoin="bevel" points="2352.98,650.765 2352.98,733.398" />
<polyline class="Stem" fill="none" stroke="#000000" stroke-width="2.48" stroke-linejoin="bevel" points="2534.33,1704.77 2534.33,1793.7" />
<polyline class="Stem" fill="none" stroke="#000000" stroke-width="2.48" stroke-linejoin="bevel" points="1572.44,1221.17 1572.44,1303.8" />
<polyline class="Stem" fill="none" stroke="#000000" stroke-width="2.48" stroke-linejoin="bevel" points="1283.18,638.365 1283.18,708.598" />
<polyline class="Stem" fill="none" stroke="#000000" stroke-width="2.48" stroke-linejoin="bevel" points="1784.3,1196.37 1784.3,1279" />
<polyline class="Stem" fill="none" stroke="#000000" stroke-width="2.48" stroke-linejoin="bevel" points="2288.37,1729.57 2288.37,1812.2" />
<polyline class="Stem" fill="none" stroke="#000000" stroke-width="2.48" stroke-linejoin="bevel" points="1925.54,1208.77 1925.54,1291.4" />
<polyline class="Stem" fill="none" stroke="#000000" stroke-width="2.48" stroke-linejoin="bevel" points="1359.19,650.765 1359.19,727.258" />
<polyline class="Stem" fill="none" stroke="#000000" stroke-width="2.48" stroke-linejoin="bevel" points="2238.96,663.165 2238.96,745.799" />
<polyline class="Stem" fill="none" stroke="#000000" stroke-width="2.48" stroke-linejoin="bevel" points="2177.22,1754.37 2177.22,1843.3" />
<polyline class="Stem" fill="none" stroke="#000000" stroke-width="2.48" stroke-linejoin="bevel" points="2101.54,1779.17 2101.54,1849.3" />
<polyline class="Stem" fill="none" stroke="#000000" stroke-width="2.48" stroke-linejoin="bevel" points="2102.25,1221.17 2102.25,1303.8" />
<polyline class="Stem" fill="none" stroke="#000000" stroke-width="2.48" stroke-linejoin="bevel" points="1988.02,1754.37 1988.02,1837" />
<polyline class="Stem" fill="none" stroke="#000000" stroke-width="2.48" stroke-linejoin="bevel" points="2243.49,1221.17 2243.49,1291.48" />
<polyline class="Stem" fill="none" stroke="#000000" stroke-width="2.48" stroke-linejoin="bevel" points="1912.34,1779.17 1912.34,1849.3" />
<polyline class="Stem" fill="none" stroke="#000000" stroke-width="2.48" stroke-linejoin="bevel" points="1836.66,1754.37 1836.66,1843.3" />
<polyline class="Stem" fill="none" stroke="#000000" stroke-width="2.48" stroke-linejoin="bevel" points="2337.65,1233.57 2337.65,1297.52" />
<polyline class="Stem" fill="none" stroke="#000000" stroke-width="2.48" stroke-linejoin="bevel" points="1792.03,1741.97 1792.03,1818.4" />
<polyline class="Stem" fill="none" stroke="#000000" stroke-width="2.48" stroke-linejoin="bevel" points="908.926,1779.17 908.926,1861.8" />
<polyline class="Stem" fill="none" stroke="#000000" stroke-width="2.48" stroke-linejoin="bevel" points="2431.81,1221.17 2431.81,1303.7" />
<polyline class="Stem" fill="none" stroke="#000000" stroke-width="2.48" stroke-linejoin="bevel" points="1742.95,1729.57 1742.95,1818.4" />
<polyline class="Stem" fill="none" stroke="#000000" stroke-width="2.48" stroke-linejoin="bevel" points="2525.97,1196.37 2525.97,1279" />
<polyline class="Stem" fill="none" stroke="#000000" stroke-width="2.48" stroke-linejoin="bevel" points="2277.4,2299.97 2277.4,2382.6" />
<polyline class="Stem" fill="none" stroke="#000000" stroke-width="2.48" stroke-linejoin="bevel" points="681.882,1816.37 681.882,1880.29" />
<polyline class="Stem" fill="none" stroke="#000000" stroke-width="2.48" stroke-linejoin="bevel" points="2667.22,1183.97 2667.22,1266.5" />
<polyline class="Stem" fill="none" stroke="#000000" stroke-width="2.48" stroke-linejoin="bevel" points="1693.86,1741.97 1693.86,1818.4" />
<polyline class="Stem" fill="none" stroke="#000000" stroke-width="2.48" stroke-linejoin="bevel" points="2018.42,663.165 2018.42,745.799" />
<polyline class="Stem" fill="none" stroke="#000000" stroke-width="2.48" stroke-linejoin="bevel" points="1435.2,650.765 1435.2,730.907" />
<polyline class="Stem" fill="none" stroke="#000000" stroke-width="2.48" stroke-linejoin="bevel" points="1618.18,1729.57 1618.18,1818.4" />
<polyline class="Stem" fill="none" stroke="#000000" stroke-width="2.48" stroke-linejoin="bevel" points="1485.88,663.165 1485.88,733.339" />
<polyline class="Stem" fill="none" stroke="#000000" stroke-width="2.48" stroke-linejoin="bevel" points="1507.03,1741.97 1507.03,1824.5" />
<polyline class="Stem" fill="none" stroke="#000000" stroke-width="2.48" stroke-linejoin="bevel" points="396.646,1791.57 396.646,1855.5" />
<polyline class="Stem" fill="none" stroke="#000000" stroke-width="2.48" stroke-linejoin="bevel" points="1536.55,675.565 1536.55,758.296" />
<polyline class="Stem" fill="none" stroke="#000000" stroke-width="2.48" stroke-linejoin="bevel" points="1612.56,700.365 1612.56,764.301" />
<polyline class="Stem" fill="none" stroke="#000000" stroke-width="2.48" stroke-linejoin="bevel" points="1393.51,1754.37 1393.51,1837" />
<polyline class="Stem" fill="none" stroke="#000000" stroke-width="2.48" stroke-linejoin="bevel" points="1317.83,1779.17 1317.83,1861.7" />
<polyline class="Stem" fill="none" stroke="#000000" stroke-width="2.48" stroke-linejoin="bevel" points="548.008,1791.57 548.008,1868.11" />
<polyline class="Stem" fill="none" stroke="#000000" stroke-width="2.48" stroke-linejoin="bevel" points="472.327,1779.17 472.327,1849.5" />
<polyline class="Stem" fill="none" stroke="#000000" stroke-width="2.48" stroke-linejoin="bevel" points="637.257,1791.57 637.257,1876.23" />
<polyline class="Stem" fill="none" stroke="#000000" stroke-width="2.48" stroke-linejoin="bevel" points="1171.43,1779.17 1171.43,1861.88" />
<polyline class="Stem" fill="none" stroke="#000000" stroke-width="2.48" stroke-linejoin="bevel" points="592.633,1779.17 592.633,1872.17" />
<polyline class="Stem" fill="none" stroke="#000000" stroke-width="2.48" stroke-linejoin="bevel" points="833.245,1779.17 833.245,1849.5" />
<path class="Hook" transform="matrix(0.992001,0,0,0.992001,1316.59,1861.8)" d="M0,-0.1 C0,0.6 0.6,1.2 1.3,1.2 C1.8,1.2 2.4,0.8 2.5,0.4 C2.5,0.3 3.4,-3.2 3.5,-3.5 C3.6,-3.9 4.5,-7.7 8.1,-13.6 C12,-20.1 18,-24.8 23,-31.8 C27.9,-38.8 30.9,-45.4 30.9,-54.2 C30.9,-63.3 28.8,-70.9 23.5,-80.6 C23.2,-81.3 22.6,-81.7 22,-81.7 C21.8,-81.7 21.6,-81.7 21.5,-81.6 C21,-81.4 20.8,-81 20.8,-80.4 C20.8,-80.1 20.9,-79.6 21.1,-79.2 C25.1,-69.9 26.7,-64.6 26.7,-57.4 C26.7,-49.1 23.8,-44.8 22,-41.7 C15.5,-30.6 5,-25.2 0.8,-23.8 C0.1,-23.5 0,-23 0,-22.7 L0,-0.1 "/>
<path class="Hook" transform="matrix(0.992001,0,0,0.992001,1505.79,1824.6)" d="M0,-0.1 C0,0.6 0.6,1.2 1.3,1.2 C1.8,1.2 2.4,0.8 2.5,0.4 C2.5,0.3 3.4,-3.2 3.5,-3.5 C3.6,-3.9 4.5,-7.7 8.1,-13.6 C12,-20.1 18,-24.8 23,-31.8 C27.9,-38.8 30.9,-45.4 30.9,-54.2 C30.9,-63.3 28.8,-70.9 23.5,-80.6 C23.2,-81.3 22.6,-81.7 22,-81.7 C21.8,-81.7 21.6,-81.7 21.5,-81.6 C21,-81.4 20.8,-81 20.8,-80.4 C20.8,-80.1 20.9,-79.6 21.1,-79.2 C25.1,-69.9 26.7,-64.6 26.7,-57.4 C26.7,-49.1 23.8,-44.8 22,-41.7 C15.5,-30.6 5,-25.2 0.8,-23.8 C0.1,-23.5 0,-23 0,-22.7 L0,-0.1 "/>
<path class="Hook" transform="matrix(0.992001,0,0,0.992001,2665.98,1266.6)" d="M0,-0.1 C0,0.6 0.6,1.2 1.3,1.2 C1.8,1.2 2.4,0.8 2.5,0.4 C2.5,0.3 3.4,-3.2 3.5,-3.5 C3.6,-3.9 4.5,-7.7 8.1,-13.6 C12,-20.1 18,-24.8 23,-31.8 C27.9,-38.8 30.9,-45.4 30.9,-54.2 C30.9,-63.3 28.8,-70.9 23.5,-80.6 C23.2,-81.3 22.6,-81.7 22,-81.7 C21.8,-81.7 21.6,-81.7 21.5,-81.6 C21,-81.4 20.8,-81 20.8,-80.4 C20.8,-80.1 20.9,-79.6 21.1,-79.2 C25.1,-69.9 26.7,-64.6 26.7,-57.4 C26.7,-49.1 23.8,-44.8 22,-41.7 C15.5,-30.6 5,-25.2 0.8,-23.8 C0.1,-23.5 0,-23 0,-22.7 L0,-0.1 "/>
<path class="Hook" transform="matrix(0.992001,0,0,0.992001,2430.57,1303.8)" d="M0,-0.1 C0,0.6 0.6,1.2 1.3,1.2 C1.8,1.2 2.4,0.8 2.5,0.4 C2.5,0.3 3.4,-3.2 3.5,-3.5 C3.6,-3.9 4.5,-7.7 8.1,-13.6 C12,-20.1 18,-24.8 23,-31.8 C27.9,-38.8 30.9,-45.4 30.9,-54.2 C30.9,-63.3 28.8,-70.9 23.5,-80.6 C23.2,-81.3 22.6,-81.7 22,-81.7 C21.8,-81.7 21.6,-81.7 21.5,-81.6 C21,-81.4 20.8,-81 20.8,-80.4 C20.8,-80.1 20.9,-79.6 21.1,-79.2 C25.1,-69.9 26.7,-64.6 26.7,-57.4 C26.7,-49.1 23.8,-44.8 22,-41.7 C15.5,-30.6 5,-25.2 0.8,-23.8 C0.1,-23.5 0,-23 0,-22.7 L0,-0.1 "/>
<path class="Hook" transform="matrix(0.992001,0,0,0.992001,1522.44,2370.2)" d="M0,-0.1 C0,0.6 0.6,1.2 1.3,1.2 C1.8,1.2 2.4,0.8 2.5,0.4 C2.5,0.3 3.4,-3.2 3.5,-3.5 C3.6,-3.9 4.5,-7.7 8.1,-13.6 C12,-20.1 18,-24.8 23,-31.8 C27.9,-38.8 30.9,-45.4 30.9,-54.2 C30.9,-63.3 28.8,-70.9 23.5,-80.6 C23.2,-81.3 22.6,-81.7 22,-81.7 C21.8,-81.7 21.6,-81.7 21.5,-81.6 C21,-81.4 20.8,-81 20.8,-80.4 C20.8,-80.1 20.9,-79.6 21.1,-79.2 C25.1,-69.9 26.7,-64.6 26.7,-57.4 C26.7,-49.1 23.8,-44.8 22,-41.7 C15.5,-30.6 5,-25.2 0.8,-23.8 C0.1,-23.5 0,-23 0,-22.7 L0,-0.1 "/>
<path class="Note" transform="matrix(0.992001,0,0,0.992001,1266.13,1787.4)" d="M0,4.2 C0,8.5 3.1,13.3 11.2,13.3 C21.6,13.3 32.5,4.8 32.5,-4 C32.5,-9.9 27.5,-13.2 21.3,-13.2 C11.6,-13.2 0,-5 0,4.2"/>
<path class="Note" transform="matrix(0.992001,0,0,0.992001,692.752,2333)" d="M0,4.2 C0,8.5 3.1,13.3 11.2,13.3 C21.6,13.3 32.5,4.8 32.5,-4 C32.5,-9.9 27.5,-13.2 21.3,-13.2 C11.6,-13.2 0,-5 0,4.2"/>
<path class="Note" transform="matrix(0.992001,0,0,0.992001,756.323,1787.4)" d="M0,4.2 C0,8.5 3.1,13.3 11.2,13.3 C21.6,13.3 32.5,4.8 32.5,-4 C32.5,-9.9 27.5,-13.2 21.3,-13.2 C11.6,-13.2 0,-5 0,4.2"/>
<path class="Note" transform="matrix(0.992001,0,0,0.992001,832.005,1775)" d="M0,4.2 C0,8.5 3.1,13.3 11.2,13.3 C21.6,13.3 32.5,4.8 32.5,-4 C32.5,-9.9 27.5,-13.2 21.3,-13.2 C11.6,-13.2 0,-5 0,4.2"/>
<path class="Note" transform="matrix(0.992001,0,0,0.992001,680.642,1812.2)" d="M0,4.2 C0,8.5 3.1,13.3 11.2,13.3 C21.6,13.3 32.5,4.8 32.5,-4 C32.5,-9.9 27.5,-13.2 21.3,-13.2 C11.6,-13.2 0,-5 0,4.2"/>
<path class="Note" transform="matrix(0.992001,0,0,0.992001,907.686,1775)" d="M0,4.2 C0,8.5 3.1,13.3 11.2,13.3 C21.6,13.3 32.5,4.8 32.5,-4 C32.5,-9.9 27.5,-13.2 21.3,-13.2 C11.6,-13.2 0,-5 0,4.2"/>
<path class="Note" transform="matrix(0.992001,0,0,0.992001,636.017,1787.4)" d="M0,4.2 C0,8.5 3.1,13.3 11.2,13.3 C21.6,13.3 32.5,4.8 32.5,-4 C32.5,-9.9 27.5,-13.2 21.3,-13.2 C11.6,-13.2 0,-5 0,4.2"/>
<path class="Note" transform="matrix(0.992001,0,0,0.992001,1484.64,658.998)" d="M0,4.2 C0,8.5 3.1,13.3 11.2,13.3 C21.6,13.3 32.5,4.8 32.5,-4 C32.5,-9.9 27.5,-13.2 21.3,-13.2 C11.6,-13.2 0,-5 0,4.2"/>
<path class="Note" transform="matrix(0.992001,0,0,0.992001,591.393,1775)" d="M0,4.2 C0,8.5 3.1,13.3 11.2,13.3 C21.6,13.3 32.5,4.8 32.5,-4 C32.5,-9.9 27.5,-13.2 21.3,-13.2 C11.6,-13.2 0,-5 0,4.2"/>
<path class="Note" transform="matrix(0.992001,0,0,0.992001,1056.67,1775)" d="M0,4.2 C0,8.5 3.1,13.3 11.2,13.3 C21.6,13.3 32.5,4.8 32.5,-4 C32.5,-9.9 27.5,-13.2 21.3,-13.2 C11.6,-13.2 0,-5 0,4.2"/>
<path class="Note" transform="matrix(0.992001,0,0,0.992001,471.087,1775)" d="M0,4.2 C0,8.5 3.1,13.3 11.2,13.3 C21.6,13.3 32.5,4.8 32.5,-4 C32.5,-9.9 27.5,-13.2 21.3,-13.2 C11.6,-13.2 0,-5 0,4.2"/>
<path class="Note" transform="matrix(0.992001,0,0,0.992001,1170.19,1775)" d="M0,4.2 C0,8.5 3.1,13.3 11.2,13.3 C21.6,13.3 32.5,4.8 32.5,-4 C32.5,-9.9 27.5,-13.2 21.3,-13.2 C11.6,-13.2 0,-5 0,4.2"/>
<path class="Note" transform="matrix(0.992001,0,0,0.992001,2276.16,2295.8)" d="M21.3,-13.2 C11.6,-13.2 0,-5.1 0,4.2 C0,8.5 3.1,13.3 11.2,13.3 C21.6,13.3 32.5,4.8 32.5,-4 C32.5,-9.9 27.5,-13.2 21.3,-13.2 M18.6,4.4 C18.3,4.6 11,8.6 7.5,8.6 C4.2,8.6 3.5,5.9 3.5,5 C3.5,0.8 13.5,-4.1 13.9,-4.3 C14.3,-4.5 21.4,-8.5 25,-8.5 C27.4,-8.5 29,-7.1 29,-4.9 C29,-0.6 18.9,4.2 18.6,4.4"/>
<path class="Note" transform="matrix(0.992001,0,0,0.992001,1890.96,2333)" d="M0,4.2 C0,8.5 3.1,13.3 11.2,13.3 C21.6,13.3 32.5,4.8 32.5,-4 C32.5,-9.9 27.5,-13.2 21.3,-13.2 C11.6,-13.2 0,-5 0,4.2"/>
<path class="Note" transform="matrix(0.992001,0,0,0.992001,1535.31,671.398)" d="M0,4.2 C0,8.5 3.1,13.3 11.2,13.3 C21.6,13.3 32.5,4.8 32.5,-4 C32.5,-9.9 27.5,-13.2 21.3,-13.2 C11.6,-13.2 0,-5 0,4.2"/>
<path class="Note" transform="matrix(0.992001,0,0,0.992001,489.567,1192.2)" d="M0,4.2 C0,8.5 3.1,13.3 11.2,13.3 C21.6,13.3 32.5,4.8 32.5,-4 C32.5,-9.9 27.5,-13.2 21.3,-13.2 C11.6,-13.2 0,-5 0,4.2"/>
<path class="Note" transform="matrix(0.992001,0,0,0.992001,1660.38,2295.8)" d="M21.3,-13.2 C11.6,-13.2 0,-5.1 0,4.2 C0,8.5 3.1,13.3 11.2,13.3 C21.6,13.3 32.5,4.8 32.5,-4 C32.5,-9.9 27.5,-13.2 21.3,-13.2 M18.6,4.4 C18.3,4.6 11,8.6 7.5,8.6 C4.2,8.6 3.5,5.9 3.5,5 C3.5,0.8 13.5,-4.1 13.9,-4.3 C14.3,-4.5 21.4,-8.5 25,-8.5 C27.4,-8.5 29,-7.1 29,-4.9 C29,-0.6 18.9,4.2 18.6,4.4"/>
<path class="Note" transform="matrix(0.992001,0,0,0.992001,2044.68,2320.6)" d="M0,4.2 C0,8.5 3.1,13.3 11.2,13.3 C21.6,13.3 32.5,4.8 32.5,-4 C32.5,-9.9 27.5,-13.2 21.3,-13.2 C11.6,-13.2 0,-5 0,4.2"/>
<path class="Note" transform="matrix(0.992001,0,0,0.992001,1316.59,1775)" d="M0,4.2 C0,8.5 3.1,13.3 11.2,13.3 C21.6,13.3 32.5,4.8 32.5,-4 C32.5,-9.9 27.5,-13.2 21.3,-13.2 C11.6,-13.2 0,-5 0,4.2"/>
<path class="Note" transform="matrix(0.992001,0,0,0.992001,546.768,1787.4)" d="M0,4.2 C0,8.5 3.1,13.3 11.2,13.3 C21.6,13.3 32.5,4.8 32.5,-4 C32.5,-9.9 27.5,-13.2 21.3,-13.2 C11.6,-13.2 0,-5 0,4.2"/>
<path class="Note" transform="matrix(0.992001,0,0,0.992001,1392.27,1750.2)" d="M0,4.2 C0,8.5 3.1,13.3 11.2,13.3 C21.6,13.3 32.5,4.8 32.5,-4 C32.5,-9.9 27.5,-13.2 21.3,-13.2 C11.6,-13.2 0,-5 0,4.2"/>
<path class="Note" transform="matrix(0.992001,0,0,0.992001,395.406,1787.4)" d="M0,4.2 C0,8.5 3.1,13.3 11.2,13.3 C21.6,13.3 32.5,4.8 32.5,-4 C32.5,-9.9 27.5,-13.2 21.3,-13.2 C11.6,-13.2 0,-5 0,4.2"/>
<path class="Note" transform="matrix(0.992001,0,0,0.992001,395.406,2283.4)" d="M0,4.2 C0,8.5 3.1,13.3 11.2,13.3 C21.6,13.3 32.5,4.8 32.5,-4 C32.5,-9.9 27.5,-13.2 21.3,-13.2 C11.6,-13.2 0,-5 0,4.2"/>
<path class="Note" transform="matrix(0.992001,0,0,0.992001,1505.79,1737.8)" d="M0,4.2 C0,8.5 3.1,13.3 11.2,13.3 C21.6,13.3 32.5,4.8 32.5,-4 C32.5,-9.9 27.5,-13.2 21.3,-13.2 C11.6,-13.2 0,-5 0,4.2"/>
<path class="Note" transform="matrix(0.992001,0,0,0.992001,567.747,646.598)" d="M0,4.2 C0,8.5 3.1,13.3 11.2,13.3 C21.6,13.3 32.5,4.8 32.5,-4 C32.5,-9.9 27.5,-13.2 21.3,-13.2 C11.6,-13.2 0,-5 0,4.2"/>
<path class="Note" transform="matrix(0.992001,0,0,0.992001,1433.96,646.598)" d="M0,4.2 C0,8.5 3.1,13.3 11.2,13.3 C21.6,13.3 32.5,4.8 32.5,-4 C32.5,-9.9 27.5,-13.2 21.3,-13.2 C11.6,-13.2 0,-5 0,4.2"/>
<path class="Note" transform="matrix(0.992001,0,0,0.992001,1611.32,696.198)" d="M0,4.2 C0,8.5 3.1,13.3 11.2,13.3 C21.6,13.3 32.5,4.8 32.5,-4 C32.5,-9.9 27.5,-13.2 21.3,-13.2 C11.6,-13.2 0,-5 0,4.2"/>
<path class="Note" transform="matrix(0.992001,0,0,0.992001,1722.79,658.998)" d="M18.7,-13.6 C4.9,-13.6 0,-6.6 0,-0.1 C0,6.4 4.9,13.4 18.7,13.4 C32.5,13.4 37.3,6.4 37.3,-0.1 C37.3,-6.6 32.5,-13.6 18.7,-13.6 M23.8,9.6 C22.6,10 21,10.2 19.5,10.2 C16.7,10.2 14.8,9.4 13.5,6.9 C12.2,4.4 10.4,-2 10.3,-4.7 C10.1,-7.4 11.1,-9 13.5,-9.8 C14.7,-10.2 16.3,-10.4 17.8,-10.4 C20.6,-10.4 22.4,-9.8 23.8,-7.1 C25.2,-4.4 27,2 27,4.5 C27,7.1 26.2,8.9 23.8,9.6"/>
<path class="Note" transform="matrix(0.992001,0,0,0.992001,1616.94,1725.4)" d="M0,4.2 C0,8.5 3.1,13.3 11.2,13.3 C21.6,13.3 32.5,4.8 32.5,-4 C32.5,-9.9 27.5,-13.2 21.3,-13.2 C11.6,-13.2 0,-5 0,4.2"/>
<path class="Note" transform="matrix(0.992001,0,0,0.992001,1522.44,2283.4)" d="M0,4.2 C0,8.5 3.1,13.3 11.2,13.3 C21.6,13.3 32.5,4.8 32.5,-4 C32.5,-9.9 27.5,-13.2 21.3,-13.2 C11.6,-13.2 0,-5 0,4.2"/>
<path class="Note" transform="matrix(0.992001,0,0,0.992001,2665.98,1179.8)" d="M0,4.2 C0,8.5 3.1,13.3 11.2,13.3 C21.6,13.3 32.5,4.8 32.5,-4 C32.5,-9.9 27.5,-13.2 21.3,-13.2 C11.6,-13.2 0,-5 0,4.2"/>
<path class="Note" transform="matrix(0.992001,0,0,0.992001,1692.62,1737.8)" d="M0,4.2 C0,8.5 3.1,13.3 11.2,13.3 C21.6,13.3 32.5,4.8 32.5,-4 C32.5,-9.9 27.5,-13.2 21.3,-13.2 C11.6,-13.2 0,-5 0,4.2"/>
<path class="Note" transform="matrix(0.992001,0,0,0.992001,2524.73,1192.2)" d="M0,4.2 C0,8.5 3.1,13.3 11.2,13.3 C21.6,13.3 32.5,4.8 32.5,-4 C32.5,-9.9 27.5,-13.2 21.3,-13.2 C11.6,-13.2 0,-5 0,4.2"/>
<path class="Note" transform="matrix(0.992001,0,0,0.992001,2430.57,1217)" d="M0,4.2 C0,8.5 3.1,13.3 11.2,13.3 C21.6,13.3 32.5,4.8 32.5,-4 C32.5,-9.9 27.5,-13.2 21.3,-13.2 C11.6,-13.2 0,-5 0,4.2"/>
<path class="Note" transform="matrix(0.992001,0,0,0.992001,583.729,1179.8)" d="M0,4.2 C0,8.5 3.1,13.3 11.2,13.3 C21.6,13.3 32.5,4.8 32.5,-4 C32.5,-9.9 27.5,-13.2 21.3,-13.2 C11.6,-13.2 0,-5 0,4.2"/>
<path class="Note" transform="matrix(0.992001,0,0,0.992001,1741.71,1725.4)" d="M0,4.2 C0,8.5 3.1,13.3 11.2,13.3 C21.6,13.3 32.5,4.8 32.5,-4 C32.5,-9.9 27.5,-13.2 21.3,-13.2 C11.6,-13.2 0,-5 0,4.2"/>
<path class="Note" transform="matrix(0.992001,0,0,0.992001,2336.41,1229.4)" d="M0,4.2 C0,8.5 3.1,13.3 11.2,13.3 C21.6,13.3 32.5,4.8 32.5,-4 C32.5,-9.9 27.5,-13.2 21.3,-13.2 C11.6,-13.2 0,-5 0,4.2"/>
<path class="Note" transform="matrix(0.992001,0,0,0.992001,1790.79,1737.8)" d="M0,4.2 C0,8.5 3.1,13.3 11.2,13.3 C21.6,13.3 32.5,4.8 32.5,-4 C32.5,-9.9 27.5,-13.2 21.3,-13.2 C11.6,-13.2 0,-5 0,4.2"/>
<path class="Note" transform="matrix(0.992001,0,0,0.992001,677.89,1192.2)" d="M0,4.2 C0,8.5 3.1,13.3 11.2,13.3 C21.6,13.3 32.5,4.8 32.5,-4 C32.5,-9.9 27.5,-13.2 21.3,-13.2 C11.6,-13.2 0,-5 0,4.2"/>
<path class="Note" transform="matrix(0.992001,0,0,0.992001,1835.42,1750.2)" d="M0,4.2 C0,8.5 3.1,13.3 11.2,13.3 C21.6,13.3 32.5,4.8 32.5,-4 C32.5,-9.9 27.5,-13.2 21.3,-13.2 C11.6,-13.2 0,-5 0,4.2"/>
<path class="Note" transform="matrix(0.992001,0,0,0.992001,1368.72,2295.8)" d="M0,4.2 C0,8.5 3.1,13.3 11.2,13.3 C21.6,13.3 32.5,4.8 32.5,-4 C32.5,-9.9 27.5,-13.2 21.3,-13.2 C11.6,-13.2 0,-5 0,4.2"/>
<path class="Note" transform="matrix(0.992001,0,0,0.992001,2242.25,1217)" d="M0,4.2 C0,8.5 3.1,13.3 11.2,13.3 C21.6,13.3 32.5,4.8 32.5,-4 C32.5,-9.9 27.5,-13.2 21.3,-13.2 C11.6,-13.2 0,-5 0,4.2"/>
<path class="Note" transform="matrix(0.992001,0,0,0.992001,1911.1,1775)" d="M0,4.2 C0,8.5 3.1,13.3 11.2,13.3 C21.6,13.3 32.5,4.8 32.5,-4 C32.5,-9.9 27.5,-13.2 21.3,-13.2 C11.6,-13.2 0,-5 0,4.2"/>
<path class="Note" transform="matrix(0.992001,0,0,0.992001,2101.01,1217)" d="M0,4.2 C0,8.5 3.1,13.3 11.2,13.3 C21.6,13.3 32.5,4.8 32.5,-4 C32.5,-9.9 27.5,-13.2 21.3,-13.2 C11.6,-13.2 0,-5 0,4.2"/>
<path class="Note" transform="matrix(0.992001,0,0,0.992001,1986.78,1750.2)" d="M0,4.2 C0,8.5 3.1,13.3 11.2,13.3 C21.6,13.3 32.5,4.8 32.5,-4 C32.5,-9.9 27.5,-13.2 21.3,-13.2 C11.6,-13.2 0,-5 0,4.2"/>
<path class="Note" transform="matrix(0.992001,0,0,0.992001,2017.18,658.998)" d="M0,4.2 C0,8.5 3.1,13.3 11.2,13.3 C21.6,13.3 32.5,4.8 32.5,-4 C32.5,-9.9 27.5,-13.2 21.3,-13.2 C11.6,-13.2 0,-5 0,4.2"/>
<path class="Note" transform="matrix(0.992001,0,0,0.992001,2100.3,1775)" d="M0,4.2 C0,8.5 3.1,13.3 11.2,13.3 C21.6,13.3 32.5,4.8 32.5,-4 C32.5,-9.9 27.5,-13.2 21.3,-13.2 C11.6,-13.2 0,-5 0,4.2"/>
<path class="Note" transform="matrix(0.992001,0,0,0.992001,772.052,1204.6)" d="M0,4.2 C0,8.5 3.1,13.3 11.2,13.3 C21.6,13.3 32.5,4.8 32.5,-4 C32.5,-9.9 27.5,-13.2 21.3,-13.2 C11.6,-13.2 0,-5 0,4.2"/>
<path class="Note" transform="matrix(0.992001,0,0,0.992001,1035.66,2283.4)" d="M21.3,-13.2 C11.6,-13.2 0,-5.1 0,4.2 C0,8.5 3.1,13.3 11.2,13.3 C21.6,13.3 32.5,4.8 32.5,-4 C32.5,-9.9 27.5,-13.2 21.3,-13.2 M18.6,4.4 C18.3,4.6 11,8.6 7.5,8.6 C4.2,8.6 3.5,5.9 3.5,5 C3.5,0.8 13.5,-4.1 13.9,-4.3 C14.3,-4.5 21.4,-8.5 25,-8.5 C27.4,-8.5 29,-7.1 29,-4.9 C29,-0.6 18.9,4.2 18.6,4.4"/>
<path class="Note" transform="matrix(0.992001,0,0,0.992001,2175.98,1750.2)" d="M0,4.2 C0,8.5 3.1,13.3 11.2,13.3 C21.6,13.3 32.5,4.8 32.5,-4 C32.5,-9.9 27.5,-13.2 21.3,-13.2 C11.6,-13.2 0,-5 0,4.2"/>
<path class="Note" transform="matrix(0.992001,0,0,0.992001,1357.95,646.598)" d="M0,4.2 C0,8.5 3.1,13.3 11.2,13.3 C21.6,13.3 32.5,4.8 32.5,-4 C32.5,-9.9 27.5,-13.2 21.3,-13.2 C11.6,-13.2 0,-5 0,4.2"/>
<path class="Note" transform="matrix(0.992001,0,0,0.992001,1924.3,1204.6)" d="M0,4.2 C0,8.5 3.1,13.3 11.2,13.3 C21.6,13.3 32.5,4.8 32.5,-4 C32.5,-9.9 27.5,-13.2 21.3,-13.2 C11.6,-13.2 0,-5 0,4.2"/>
<path class="Note" transform="matrix(0.992001,0,0,0.992001,1281.94,634.198)" d="M0,4.2 C0,8.5 3.1,13.3 11.2,13.3 C21.6,13.3 32.5,4.8 32.5,-4 C32.5,-9.9 27.5,-13.2 21.3,-13.2 C11.6,-13.2 0,-5 0,4.2"/>
<path class="Note" transform="matrix(0.992001,0,0,0.992001,1783.06,1192.2)" d="M0,4.2 C0,8.5 3.1,13.3 11.2,13.3 C21.6,13.3 32.5,4.8 32.5,-4 C32.5,-9.9 27.5,-13.2 21.3,-13.2 C11.6,-13.2 0,-5 0,4.2"/>
<path class="Note" transform="matrix(0.992001,0,0,0.992001,1571.2,1217)" d="M21.3,-13.2 C11.6,-13.2 0,-5.1 0,4.2 C0,8.5 3.1,13.3 11.2,13.3 C21.6,13.3 32.5,4.8 32.5,-4 C32.5,-9.9 27.5,-13.2 21.3,-13.2 M18.6,4.4 C18.3,4.6 11,8.6 7.5,8.6 C4.2,8.6 3.5,5.9 3.5,5 C3.5,0.8 13.5,-4.1 13.9,-4.3 C14.3,-4.5 21.4,-8.5 25,-8.5 C27.4,-8.5 29,-7.1 29,-4.9 C29,-0.6 18.9,4.2 18.6,4.4"/>
<path class="Note" transform="matrix(0.992001,0,0,0.992001,2287.13,1725.4)" d="M21.3,-13.2 C11.6,-13.2 0,-5.1 0,4.2 C0,8.5 3.1,13.3 11.2,13.3 C21.6,13.3 32.5,4.8 32.5,-4 C32.5,-9.9 27.5,-13.2 21.3,-13.2 M18.6,4.4 C18.3,4.6 11,8.6 7.5,8.6 C4.2,8.6 3.5,5.9 3.5,5 C3.5,0.8 13.5,-4.1 13.9,-4.3 C14.3,-4.5 21.4,-8.5 25,-8.5 C27.4,-8.5 29,-7.1 29,-4.9 C29,-0.6 18.9,4.2 18.6,4.4"/>
<path class="Note" transform="matrix(0.992001,0,0,0.992001,866.213,1204.6)" d="M0,4.2 C0,8.5 3.1,13.3 11.2,13.3 C21.6,13.3 32.5,4.8 32.5,-4 C32.5,-9.9 27.5,-13.2 21.3,-13.2 C11.6,-13.2 0,-5 0,4.2"/>
<path class="Note" transform="matrix(0.992001,0,0,0.992001,2237.72,658.998)" d="M0,4.2 C0,8.5 3.1,13.3 11.2,13.3 C21.6,13.3 32.5,4.8 32.5,-4 C32.5,-9.9 27.5,-13.2 21.3,-13.2 C11.6,-13.2 0,-5 0,4.2"/>
<path class="Note" transform="matrix(0.992001,0,0,0.992001,1205.93,621.798)" d="M0,4.2 C0,8.5 3.1,13.3 11.2,13.3 C21.6,13.3 32.5,4.8 32.5,-4 C32.5,-9.9 27.5,-13.2 21.3,-13.2 C11.6,-13.2 0,-5 0,4.2"/>
<path class="Note" transform="matrix(0.992001,0,0,0.992001,1215.55,1167.4)" d="M18.7,-13.6 C4.9,-13.6 0,-6.6 0,-0.1 C0,6.4 4.9,13.4 18.7,13.4 C32.5,13.4 37.3,6.4 37.3,-0.1 C37.3,-6.6 32.5,-13.6 18.7,-13.6 M23.8,9.6 C22.6,10 21,10.2 19.5,10.2 C16.7,10.2 14.8,9.4 13.5,6.9 C12.2,4.4 10.4,-2 10.3,-4.7 C10.1,-7.4 11.1,-9 13.5,-9.8 C14.7,-10.2 16.3,-10.4 17.8,-10.4 C20.6,-10.4 22.4,-9.8 23.8,-7.1 C25.2,-4.4 27,2 27,4.5 C27,7.1 26.2,8.9 23.8,9.6"/>
<path class="Note" transform="matrix(0.992001,0,0,0.992001,2533.09,1700.6)" d="M0,4.2 C0,8.5 3.1,13.3 11.2,13.3 C21.6,13.3 32.5,4.8 32.5,-4 C32.5,-9.9 27.5,-13.2 21.3,-13.2 C11.6,-13.2 0,-5 0,4.2"/>
<path class="Note" transform="matrix(0.992001,0,0,0.992001,453.732,658.998)" d="M0,4.2 C0,8.5 3.1,13.3 11.2,13.3 C21.6,13.3 32.5,4.8 32.5,-4 C32.5,-9.9 27.5,-13.2 21.3,-13.2 C11.6,-13.2 0,-5 0,4.2"/>
<path class="Note" transform="matrix(0.992001,0,0,0.992001,2351.74,646.598)" d="M0,4.2 C0,8.5 3.1,13.3 11.2,13.3 C21.6,13.3 32.5,4.8 32.5,-4 C32.5,-9.9 27.5,-13.2 21.3,-13.2 C11.6,-13.2 0,-5 0,4.2"/>
<path class="Note" transform="matrix(0.992001,0,0,0.992001,846.472,2308.2)" d="M0,4.2 C0,8.5 3.1,13.3 11.2,13.3 C21.6,13.3 32.5,4.8 32.5,-4 C32.5,-9.9 27.5,-13.2 21.3,-13.2 C11.6,-13.2 0,-5 0,4.2"/>
<path class="Note" transform="matrix(0.992001,0,0,0.992001,2608.78,1725.4)" d="M0,4.2 C0,8.5 3.1,13.3 11.2,13.3 C21.6,13.3 32.5,4.8 32.5,-4 C32.5,-9.9 27.5,-13.2 21.3,-13.2 C11.6,-13.2 0,-5 0,4.2"/>
<path class="Note" transform="matrix(0.992001,0,0,0.992001,2501.22,634.198)" d="M18.7,-13.6 C4.9,-13.6 0,-6.6 0,-0.1 C0,6.4 4.9,13.4 18.7,13.4 C32.5,13.4 37.3,6.4 37.3,-0.1 C37.3,-6.6 32.5,-13.6 18.7,-13.6 M23.8,9.6 C22.6,10 21,10.2 19.5,10.2 C16.7,10.2 14.8,9.4 13.5,6.9 C12.2,4.4 10.4,-2 10.3,-4.7 C10.1,-7.4 11.1,-9 13.5,-9.8 C14.7,-10.2 16.3,-10.4 17.8,-10.4 C20.6,-10.4 22.4,-9.8 23.8,-7.1 C25.2,-4.4 27,2 27,4.5 C27,7.1 26.2,8.9 23.8,9.6"/>
<path class="Note" transform="matrix(0.992001,0,0,0.992001,2684.46,1737.8)" d="M0,4.2 C0,8.5 3.1,13.3 11.2,13.3 C21.6,13.3 32.5,4.8 32.5,-4 C32.5,-9.9 27.5,-13.2 21.3,-13.2 C11.6,-13.2 0,-5 0,4.2"/>
<path class="Note" transform="matrix(0.992001,0,0,0.992001,1129.92,634.198)" d="M0,4.2 C0,8.5 3.1,13.3 11.2,13.3 C21.6,13.3 32.5,4.8 32.5,-4 C32.5,-9.9 27.5,-13.2 21.3,-13.2 C11.6,-13.2 0,-5 0,4.2"/>
<path class="Note" transform="matrix(0.992001,0,0,0.992001,1085.92,1217)" d="M0,4.2 C0,8.5 3.1,13.3 11.2,13.3 C21.6,13.3 32.5,4.8 32.5,-4 C32.5,-9.9 27.5,-13.2 21.3,-13.2 C11.6,-13.2 0,-5 0,4.2"/>
<path class="Note" transform="matrix(0.992001,0,0,0.992001,928.988,1217)" d="M0,4.2 C0,8.5 3.1,13.3 11.2,13.3 C21.6,13.3 32.5,4.8 32.5,-4 C32.5,-9.9 27.5,-13.2 21.3,-13.2 C11.6,-13.2 0,-5 0,4.2"/>
<path class="Note" transform="matrix(0.992001,0,0,0.992001,759.526,634.198)" d="M18.7,-13.6 C4.9,-13.6 0,-6.6 0,-0.1 C0,6.4 4.9,13.4 18.7,13.4 C32.5,13.4 37.3,6.4 37.3,-0.1 C37.3,-6.6 32.5,-13.6 18.7,-13.6 M23.8,9.6 C22.6,10 21,10.2 19.5,10.2 C16.7,10.2 14.8,9.4 13.5,6.9 C12.2,4.4 10.4,-2 10.3,-4.7 C10.1,-7.4 11.1,-9 13.5,-9.8 C14.7,-10.2 16.3,-10.4 17.8,-10.4 C20.6,-10.4 22.4,-9.8 23.8,-7.1 C25.2,-4.4 27,2 27,4.5 C27,7.1 26.2,8.9 23.8,9.6"/>
<path class="Note" transform="matrix(0.992001,0,0,0.992001,991.762,1229.4)" d="M0,4.2 C0,8.5 3.1,13.3 11.2,13.3 C21.6,13.3 32.5,4.8 32.5,-4 C32.5,-9.9 27.5,-13.2 21.3,-13.2 C11.6,-13.2 0,-5 0,4.2"/>
<path class="Clef" transform="matrix(0.992001,0,0,0.992001,231.198,2382.6)" d="M56.2,2.1 C56.2,9.2 53.3,16.5 46.2,19.4 C44.1,7.4 41.4,-8.5 40.7,-12.9 C49.7,-12.9 56.2,-6.8 56.2,2.1 M42,20.6 C40,21 38.1,21.2 36.2,21.2 C21.9,21.2 9.7,11.2 9.7,-3.9 C9.7,-16.1 18.3,-27 27.1,-34.6 C28.8,-36.1 30.4,-37.5 31.9,-39 C32.8,-33.6 33.5,-28.9 34.2,-24.8 C25.1,-22.1 18.9,-12.5 18.9,-3.1 C18.9,3.9 24.4,13.5 32.4,13.5 C33.2,13.5 34.1,13.1 34.1,12.2 C34.1,11.3 33.1,10.8 31.9,10 C28,7.6 25.8,5 25.8,0.1 C25.8,-6 30.3,-10.9 36.2,-12.3 L42,20.6 M33.2,-82.2 C34.1,-86.2 38.7,-96.7 43.9,-96.7 C45.4,-96.7 47.8,-91.8 47.8,-84.9 C47.8,-74.5 40.1,-66.7 33.2,-59.9 C32.6,-63.9 32.1,-67.8 32.1,-72 C32.1,-75.7 32.4,-79.1 33.2,-82.2 M12.2,51.3 C12.2,57.9 17.3,66.6 30.8,66.6 C35.5,66.6 39.6,65.4 43.2,63.2 C48.6,59.4 50,52.8 50,46.5 C50,42.6 49.4,38.1 48.4,32.4 C48.1,30.4 47.5,27.4 46.9,23.5 C56.7,20.3 64,10.1 64,-0.2 C64,-15.3 53.3,-25.5 38.7,-25.5 C37.7,-31.5 36.7,-37.4 35.8,-43 C46.4,-54.1 53.7,-66.6 53.7,-82.5 C53.7,-91.6 50.9,-99 49.3,-102.6 C46.9,-107.7 44,-111.2 42.2,-111.2 C41.5,-111.2 38.4,-110 35.1,-106.1 C28.7,-98.5 26.9,-85.7 26.9,-77.3 C26.9,-71.9 27.4,-67 29.1,-55.8 C29,-55.7 23.8,-50.4 21.7,-48.7 C12.6,-40.2 0,-28.1 0,-8.1 C0,10.6 16.3,25.3 34.9,25.3 C37.8,25.3 40.5,25 42.8,24.6 C44.7,34.2 45.8,41.2 45.8,46.5 C45.8,56.9 40.5,62.4 30.4,62.4 C28,62.4 25.9,61.9 25.7,61.9 C25.6,61.8 25.4,61.7 25.4,61.6 C25.4,61.4 25.6,61.3 25.9,61.2 C30.6,60.5 35.3,56.5 35.3,50.1 C35.3,44.7 31.2,39 23.7,39 C16.7,39 12.2,44.7 12.2,51.3"/>
<path class="Clef" transform="matrix(0.992001,0,0,0.992001,231.198,1266.6)" d="M56.2,2.1 C56.2,9.2 53.3,16.5 46.2,19.4 C44.1,7.4 41.4,-8.5 40.7,-12.9 C49.7,-12.9 56.2,-6.8 56.2,2.1 M42,20.6 C40,21 38.1,21.2 36.2,21.2 C21.9,21.2 9.7,11.2 9.7,-3.9 C9.7,-16.1 18.3,-27 27.1,-34.6 C28.8,-36.1 30.4,-37.5 31.9,-39 C32.8,-33.6 33.5,-28.9 34.2,-24.8 C25.1,-22.1 18.9,-12.5 18.9,-3.1 C18.9,3.9 24.4,13.5 32.4,13.5 C33.2,13.5 34.1,13.1 34.1,12.2 C34.1,11.3 33.1,10.8 31.9,10 C28,7.6 25.8,5 25.8,0.1 C25.8,-6 30.3,-10.9 36.2,-12.3 L42,20.6 M33.2,-82.2 C34.1,-86.2 38.7,-96.7 43.9,-96.7 C45.4,-96.7 47.8,-91.8 47.8,-84.9 C47.8,-74.5 40.1,-66.7 33.2,-59.9 C32.6,-63.9 32.1,-67.8 32.1,-72 C32.1,-75.7 32.4,-79.1 33.2,-82.2 M12.2,51.3 C12.2,57.9 17.3,66.6 30.8,66.6 C35.5,66.6 39.6,65.4 43.2,63.2 C48.6,59.4 50,52.8 50,46.5 C50,42.6 49.4,38.1 48.4,32.4 C48.1,30.4 47.5,27.4 46.9,23.5 C56.7,20.3 64,10.1 64,-0.2 C64,-15.3 53.3,-25.5 38.7,-25.5 C37.7,-31.5 36.7,-37.4 35.8,-43 C46.4,-54.1 53.7,-66.6 53.7,-82.5 C53.7,-91.6 50.9,-99 49.3,-102.6 C46.9,-107.7 44,-111.2 42.2,-111.2 C41.5,-111.2 38.4,-110 35.1,-106.1 C28.7,-98.5 26.9,-85.7 26.9,-77.3 C26.9,-71.9 27.4,-67 29.1,-55.8 C29,-55.7 23.8,-50.4 21.7,-48.7 C12.6,-40.2 0,-28.1 0,-8.1 C0,10.6 16.3,25.3 34.9,25.3 C37.8,25.3 40.5,25 42.8,24.6 C44.7,34.2 45.8,41.2 45.8,46.5 C45.8,56.9 40.5,62.4 30.4,62.4 C28,62.4 25.9,61.9 25.7,61.9 C25.6,61.8 25.4,61.7 25.4,61.6 C25.4,61.4 25.6,61.3 25.9,61.2 C30.6,60.5 35.3,56.5 35.3,50.1 C35.3,44.7 31.2,39 23.7,39 C16.7,39 12.2,44.7 12.2,51.3"/>
<path class="Clef" transform="matrix(0.992001,0,0,0.992001,231.198,1824.6)" d="M56.2,2.1 C56.2,9.2 53.3,16.5 46.2,19.4 C44.1,7.4 41.4,-8.5 40.7,-12.9 C49.7,-12.9 56.2,-6.8 56.2,2.1 M42,20.6 C40,21 38.1,21.2 36.2,21.2 C21.9,21.2 9.7,11.2 9.7,-3.9 C9.7,-16.1 18.3,-27 27.1,-34.6 C28.8,-36.1 30.4,-37.5 31.9,-39 C32.8,-33.6 33.5,-28.9 34.2,-24.8 C25.1,-22.1 18.9,-12.5 18.9,-3.1 C18.9,3.9 24.4,13.5 32.4,13.5 C33.2,13.5 34.1,13.1 34.1,12.2 C34.1,11.3 33.1,10.8 31.9,10 C28,7.6 25.8,5 25.8,0.1 C25.8,-6 30.3,-10.9 36.2,-12.3 L42,20.6 M33.2,-82.2 C34.1,-86.2 38.7,-96.7 43.9,-96.7 C45.4,-96.7 47.8,-91.8 47.8,-84.9 C47.8,-74.5 40.1,-66.7 33.2,-59.9 C32.6,-63.9 32.1,-67.8 32.1,-72 C32.1,-75.7 32.4,-79.1 33.2,-82.2 M12.2,51.3 C12.2,57.9 17.3,66.6 30.8,66.6 C35.5,66.6 39.6,65.4 43.2,63.2 C48.6,59.4 50,52.8 50,46.5 C50,42.6 49.4,38.1 48.4,32.4 C48.1,30.4 47.5,27.4 46.9,23.5 C56.7,20.3 64,10.1 64,-0.2 C64,-15.3 53.3,-25.5 38.7,-25.5 C37.7,-31.5 36.7,-37.4 35.8,-43 C46.4,-54.1 53.7,-66.6 53.7,-82.5 C53.7,-91.6 50.9,-99 49.3,-102.6 C46.9,-107.7 44,-111.2 42.2,-111.2 C41.5,-111.2 38.4,-110 35.1,-106.1 C28.7,-98.5 26.9,-85.7 26.9,-77.3 C26.9,-71.9 27.4,-67 29.1,-55.8 C29,-55.7 23.8,-50.4 21.7,-48.7 C12.6,-40.2 0,-28.1 0,-8.1 C0,10.6 16.3,25.3 34.9,25.3 C37.8,25.3 40.5,25 42.8,24.6 C44.7,34.2 45.8,41.2 45.8,46.5 C45.8,56.9 40.5,62.4 30.4,62.4 C28,62.4 25.9,61.9 25.7,61.9 C25.6,61.8 25.4,61.7 25.4,61.6 C25.4,61.4 25.6,61.3 25.9,61.2 C30.6,60.5 35.3,56.5 35.3,50.1 C35.3,44.7 31.2,39 23.7,39 C16.7,39 12.2,44.7 12.2,51.3"/>
<path class="Clef" transform="matrix(0.992001,0,0,0.992001,231.198,708.598)" d="M56.2,2.1 C56.2,9.2 53.3,16.5 46.2,19.4 C44.1,7.4 41.4,-8.5 40.7,-12.9 C49.7,-12.9 56.2,-6.8 56.2,2.1 M42,20.6 C40,21 38.1,21.2 36.2,21.2 C21.9,21.2 9.7,11.2 9.7,-3.9 C9.7,-16.1 18.3,-27 27.1,-34.6 C28.8,-36.1 30.4,-37.5 31.9,-39 C32.8,-33.6 33.5,-28.9 34.2,-24.8 C25.1,-22.1 18.9,-12.5 18.9,-3.1 C18.9,3.9 24.4,13.5 32.4,13.5 C33.2,13.5 34.1,13.1 34.1,12.2 C34.1,11.3 33.1,10.8 31.9,10 C28,7.6 25.8,5 25.8,0.1 C25.8,-6 30.3,-10.9 36.2,-12.3 L42,20.6 M33.2,-82.2 C34.1,-86.2 38.7,-96.7 43.9,-96.7 C45.4,-96.7 47.8,-91.8 47.8,-84.9 C47.8,-74.5 40.1,-66.7 33.2,-59.9 C32.6,-63.9 32.1,-67.8 32.1,-72 C32.1,-75.7 32.4,-79.1 33.2,-82.2 M12.2,51.3 C12.2,57.9 17.3,66.6 30.8,66.6 C35.5,66.6 39.6,65.4 43.2,63.2 C48.6,59.4 50,52.8 50,46.5 C50,42.6 49.4,38.1 48.4,32.4 C48.1,30.4 47.5,27.4 46.9,23.5 C56.7,20.3 64,10.1 64,-0.2 C64,-15.3 53.3,-25.5 38.7,-25.5 C37.7,-31.5 36.7,-37.4 35.8,-43 C46.4,-54.1 53.7,-66.6 53.7,-82.5 C53.7,-91.6 50.9,-99 49.3,-102.6 C46.9,-107.7 44,-111.2 42.2,-111.2 C41.5,-111.2 38.4,-110 35.1,-106.1 C28.7,-98.5 26.9,-85.7 26.9,-77.3 C26.9,-71.9 27.4,-67 29.1,-55.8 C29,-55.7 23.8,-50.4 21.7,-48.7 C12.6,-40.2 0,-28.1 0,-8.1 C0,10.6 16.3,25.3 34.9,25.3 C37.8,25.3 40.5,25 42.8,24.6 C44.7,34.2 45.8,41.2 45.8,46.5 C45.8,56.9 40.5,62.4 30.4,62.4 C28,62.4 25.9,61.9 25.7,61.9 C25.6,61.8 25.4,61.7 25.4,61.6 C25.4,61.4 25.6,61.3 25.9,61.2 C30.6,60.5 35.3,56.5 35.3,50.1 C35.3,44.7 31.2,39 23.7,39 C16.7,39 12.2,44.7 12.2,51.3"/>
<path class="KeySig" transform="matrix(0.992001,0,0,0.992001,313.271,1241.8)" d="M20.1,-7.9 C19.5,-11.8 17.1,-15.5 12,-15.5 C7,-15.5 4.1,-12.4 3.6,-11.8 L4,-43.9 C4,-44.7 3.4,-45.3 2.6,-45.3 L1.4,-45.3 C0.6,-45.3 0,-44.7 0,-43.9 L0.5,16.2 C0.5,17 1.1,17.6 1.9,17.6 C2.1,17.6 2.5,17.5 2.7,17.4 C3.1,17.2 9.6,14 15,7.9 C18.8,3.6 20.3,-1.3 20.3,-5.4 C20.3,-6.3 20.2,-7.1 20.1,-7.9 M13.2,-4 C13.2,-2.5 12.8,2.1 10.3,5.9 C8.6,8.5 5.2,11.2 3.3,12.7 L3.6,-6.8 C3.8,-7.7 5.3,-10.6 9.3,-10.6 C12.9,-10.6 13.2,-7.2 13.2,-5.1 C13.2,-4.6 13.2,-4.3 13.2,-4"/>
<path class="KeySig" transform="matrix(0.992001,0,0,0.992001,313.271,2357.8)" d="M20.1,-7.9 C19.5,-11.8 17.1,-15.5 12,-15.5 C7,-15.5 4.1,-12.4 3.6,-11.8 L4,-43.9 C4,-44.7 3.4,-45.3 2.6,-45.3 L1.4,-45.3 C0.6,-45.3 0,-44.7 0,-43.9 L0.5,16.2 C0.5,17 1.1,17.6 1.9,17.6 C2.1,17.6 2.5,17.5 2.7,17.4 C3.1,17.2 9.6,14 15,7.9 C18.8,3.6 20.3,-1.3 20.3,-5.4 C20.3,-6.3 20.2,-7.1 20.1,-7.9 M13.2,-4 C13.2,-2.5 12.8,2.1 10.3,5.9 C8.6,8.5 5.2,11.2 3.3,12.7 L3.6,-6.8 C3.8,-7.7 5.3,-10.6 9.3,-10.6 C12.9,-10.6 13.2,-7.2 13.2,-5.1 C13.2,-4.6 13.2,-4.3 13.2,-4"/>
<path class="KeySig" transform="matrix(0.992001,0,0,0.992001,313.271,1799.8)" d="M20.1,-7.9 C19.5,-11.8 17.1,-15.5 12,-15.5 C7,-15.5 4.1,-12.4 3.6,-11.8 L4,-43.9 C4,-44.7 3.4,-45.3 2.6,-45.3 L1.4,-45.3 C0.6,-45.3 0,-44.7 0,-43.9 L0.5,16.2 C0.5,17 1.1,17.6 1.9,17.6 C2.1,17.6 2.5,17.5 2.7,17.4 C3.1,17.2 9.6,14 15,7.9 C18.8,3.6 20.3,-1.3 20.3,-5.4 C20.3,-6.3 20.2,-7.1 20.1,-7.9 M13.2,-4 C13.2,-2.5 12.8,2.1 10.3,5.9 C8.6,8.5 5.2,11.2 3.3,12.7 L3.6,-6.8 C3.8,-7.7 5.3,-10.6 9.3,-10.6 C12.9,-10.6 13.2,-7.2 13.2,-5.1 C13.2,-4.6 13.2,-4.3 13.2,-4"/>
<path class="KeySig" transform="matrix(0.992001,0,0,0.992001,313.271,683.798)" d="M20.1,-7.9 C19.5,-11.8 17.1,-15.5 12,-15.5 C7,-15.5 4.1,-12.4 3.6,-11.8 L4,-43.9 C4,-44.7 3.4,-45.3 2.6,-45.3 L1.4,-45.3 C0.6,-45.3 0,-44.7 0,-43.9 L0.5,16.2 C0.5,17 1.1,17.6 1.9,17.6 C2.1,17.6 2.5,17.5 2.7,17.4 C3.1,17.2 9.6,14 15,7.9 C18.8,3.6 20.3,-1.3 20.3,-5.4 C20.3,-6.3 20.2,-7.1 20.1,-7.9 M13.2,-4 C13.2,-2.5 12.8,2.1 10.3,5.9 C8.6,8.5 5.2,11.2 3.3,12.7 L3.6,-6.8 C3.8,-7.7 5.3,-10.6 9.3,-10.6 C12.9,-10.6 13.2,-7.2 13.2,-5.1 C13.2,-4.6 13.2,-4.3 13.2,-4"/>
<path class="TimeSig" transform="matrix(0.992001,0,0,0.992001,358.206,683.798)" d="M32.5,-17.9 C30,-16.3 28.2,-13.4 28.2,-10.2 C28.2,-9.8 28.2,-9.4 28.3,-9 C28.8,-4.9 32.1,-1.7 36.2,-1.2 C36.5,-1.2 37,-1.2 37.3,-1.2 C42.3,-1.2 46.3,-5.2 46.3,-10.2 C46.3,-10.2 46.3,-10.5 46.3,-10.8 C46.3,-11.2 46.2,-11.9 46.1,-12.3 C45.2,-16.6 41.3,-25.8 24.3,-25.8 C2.5,-25.8 0,-7.7 0,-1.2 C0,10.7 1.5,25.6 26.5,25.6 C36.4,25.6 44.1,19.8 44.5,9.1 C44.5,8.6 44.2,8.3 43.7,8.3 L42.4,8.3 C42,8.3 41.6,8.7 41.6,9.1 C41.2,17.4 35.3,22.4 26.5,22.4 C17.8,22.4 13.6,17.7 13.6,8.9 L13.6,-10.2 C13.6,-15.8 15.8,-22.2 24.7,-22.2 C29.4,-22.2 31.5,-20.5 32.6,-18.8 C32.7,-18.6 32.7,-18.5 32.7,-18.3 C32.7,-18.2 32.7,-18 32.5,-17.9"/>
<path class="Rest" transform="matrix(0.992001,0,0,0.992001,590.272,2357.8)" d="M26.7,-20.3 C26.6,-20.3 26.4,-20.4 26.3,-20.4 C25.7,-20.4 25.2,-20.1 25,-19.6 C24.6,-19 21.5,-13.1 17,-9.8 C15.7,-8.8 14.1,-8.1 12.5,-7.8 C13.6,-9.1 14.3,-10.7 14.3,-12.6 C14.3,-16.5 11.1,-19.7 7.2,-19.7 C3.2,-19.7 0,-16.5 0,-12.6 C0,-9.5 1.9,-7 4.5,-5.9 C6,-5.2 8,-4.7 10,-4.7 C12.9,-4.7 16,-5.6 18.7,-7.6 C19.9,-8.5 21.1,-9.7 22.2,-10.9 L10.8,24.7 L13.5,25.5 L27.5,-18.6 C27.6,-18.7 27.6,-18.9 27.6,-19.1 C27.6,-19.6 27.3,-20 26.7,-20.3"/>
<path class="Rest" transform="matrix(0.992001,0,0,0.992001,2506.74,2357.8)" d="M0,-1 C0,0.4 0,0.4 1.4,0.4 L31.1,0.4 C32.5,0.4 32.5,0.4 32.5,-1 L32.5,-11.8 C32.5,-13.2 32.5,-13.2 31.1,-13.2 L1.4,-13.2 C0,-13.2 0,-13.2 0,-11.8 L0,-1 "/>
<path class="Rest" transform="matrix(0.992001,0,0,0.992001,1053.91,683.798)" d="M26.7,-20.3 C26.6,-20.3 26.4,-20.4 26.3,-20.4 C25.7,-20.4 25.2,-20.1 25,-19.6 C24.6,-19 21.5,-13.1 17,-9.8 C15.7,-8.8 14.1,-8.1 12.5,-7.8 C13.6,-9.1 14.3,-10.7 14.3,-12.6 C14.3,-16.5 11.1,-19.7 7.2,-19.7 C3.2,-19.7 0,-16.5 0,-12.6 C0,-9.5 1.9,-7 4.5,-5.9 C6,-5.2 8,-4.7 10,-4.7 C12.9,-4.7 16,-5.6 18.7,-7.6 C19.9,-8.5 21.1,-9.7 22.2,-10.9 L10.8,24.7 L13.5,25.5 L27.5,-18.6 C27.6,-18.7 27.6,-18.9 27.6,-19.1 C27.6,-19.6 27.3,-20 26.7,-20.3"/>
<path class="Rest" transform="matrix(0.992001,0,0,0.992001,395.406,1241.8)" d="M26.7,-20.3 C26.6,-20.3 26.4,-20.4 26.3,-20.4 C25.7,-20.4 25.2,-20.1 25,-19.6 C24.6,-19 21.5,-13.1 17,-9.8 C15.7,-8.8 14.1,-8.1 12.5,-7.8 C13.6,-9.1 14.3,-10.7 14.3,-12.6 C14.3,-16.5 11.1,-19.7 7.2,-19.7 C3.2,-19.7 0,-16.5 0,-12.6 C0,-9.5 1.9,-7 4.5,-5.9 C6,-5.2 8,-4.7 10,-4.7 C12.9,-4.7 16,-5.6 18.7,-7.6 C19.9,-8.5 21.1,-9.7 22.2,-10.9 L10.8,24.7 L13.5,25.5 L27.5,-18.6 C27.6,-18.7 27.6,-18.9 27.6,-19.1 C27.6,-19.6 27.3,-20 26.7,-20.3"/>
<path class="Rest" transform="matrix(0.992001,0,0,0.992001,2457.41,1799.8)" d="M26.7,-20.3 C26.6,-20.3 26.4,-20.4 26.3,-20.4 C25.7,-20.4 25.2,-20.1 25,-19.6 C24.6,-19 21.5,-13.1 17,-9.8 C15.7,-8.8 14.1,-8.1 12.5,-7.8 C13.6,-9.1 14.3,-10.7 14.3,-12.6 C14.3,-16.5 11.1,-19.7 7.2,-19.7 C3.2,-19.7 0,-16.5 0,-12.6 C0,-9.5 1.9,-7 4.5,-5.9 C6,-5.2 8,-4.7 10,-4.7 C12.9,-4.7 16,-5.6 18.7,-7.6 C19.9,-8.5 21.1,-9.7 22.2,-10.9 L10.8,24.7 L13.5,25.5 L27.5,-18.6 C27.6,-18.7 27.6,-18.9 27.6,-19.1 C27.6,-19.6 27.3,-20 26.7,-20.3"/>
<path class="Rest" transform="matrix(0.992001,0,0,0.992001,2161.71,683.798)" d="M26.7,-20.3 C26.6,-20.3 26.4,-20.4 26.3,-20.4 C25.7,-20.4 25.2,-20.1 25,-19.6 C24.6,-19 21.5,-13.1 17,-9.8 C15.7,-8.8 14.1,-8.1 12.5,-7.8 C13.6,-9.1 14.3,-10.7 14.3,-12.6 C14.3,-16.5 11.1,-19.7 7.2,-19.7 C3.2,-19.7 0,-16.5 0,-12.6 C0,-9.5 1.9,-7 4.5,-5.9 C6,-5.2 8,-4.7 10,-4.7 C12.9,-4.7 16,-5.6 18.7,-7.6 C19.9,-8.5 21.1,-9.7 22.2,-10.9 L10.8,24.7 L13.5,25.5 L27.5,-18.6 C27.6,-18.7 27.6,-18.9 27.6,-19.1 C27.6,-19.6 27.3,-20 26.7,-20.3"/>
<path class="Rest" transform="matrix(0.992001,0,0,0.992001,1266.24,2357.8)" d="M26.7,-20.3 C26.6,-20.3 26.4,-20.4 26.3,-20.4 C25.7,-20.4 25.2,-20.1 25,-19.6 C24.6,-19 21.5,-13.1 17,-9.8 C15.7,-8.8 14.1,-8.1 12.5,-7.8 C13.6,-9.1 14.3,-10.7 14.3,-12.6 C14.3,-16.5 11.1,-19.7 7.2,-19.7 C3.2,-19.7 0,-16.5 0,-12.6 C0,-9.5 1.9,-7 4.5,-5.9 C6,-5.2 8,-4.7 10,-4.7 C12.9,-4.7 16,-5.6 18.7,-7.6 C19.9,-8.5 21.1,-9.7 22.2,-10.9 L10.8,24.7 L13.5,25.5 L27.5,-18.6 C27.6,-18.7 27.6,-18.9 27.6,-19.1 C27.6,-19.6 27.3,-20 26.7,-20.3"/>
<path class="Beam" fill-rule="evenodd" d="M2242.25,1285.19 L2338.89,1291.39 L2338.89,1303.81 L2242.25,1297.61 L2242.25,1285.19 "/>
<path class="Beam" fill-rule="evenodd" d="M1835.42,1836.98 L1913.58,1843.18 L1913.58,1855.62 L1835.42,1849.42 L1835.42,1836.98 "/>
<path class="Beam" fill-rule="evenodd" d="M2100.3,1843.18 L2178.46,1836.98 L2178.46,1849.42 L2100.3,1855.62 L2100.3,1843.18 "/>
<path class="Beam" fill-rule="evenodd" d="M1357.95,720.991 L1487.12,727.191 L1487.12,739.606 L1357.95,733.406 L1357.95,720.991 "/>
<path class="Beam" fill-rule="evenodd" d="M1433.96,706.04 L1487.12,708.591 L1487.12,721.006 L1433.96,718.454 L1433.96,706.04 "/>
<path class="Beam" fill-rule="evenodd" d="M772.052,1278.99 L931.468,1285.19 L931.468,1297.6 L772.052,1291.4 L772.052,1278.99 "/>
<path class="Beam" fill-rule="evenodd" d="M866.213,1264.06 L931.468,1266.59 L931.468,1279 L866.213,1276.47 L866.213,1264.06 "/>
<path class="Beam" fill-rule="evenodd" d="M1616.94,1812.2 L1793.27,1812.2 L1793.27,1824.6 L1616.94,1824.6 L1616.94,1812.2 "/>
<path class="Beam" fill-rule="evenodd" d="M1692.62,1793.6 L1793.27,1793.6 L1793.27,1806 L1692.62,1806 L1692.62,1793.6 "/>
<path class="Beam" fill-rule="evenodd" d="M2533.09,1787.38 L2686.94,1799.78 L2686.94,1812.22 L2533.09,1799.82 L2533.09,1787.38 "/>
<path class="Beam" fill-rule="evenodd" d="M1535.31,751.979 L1613.8,758.179 L1613.8,770.618 L1535.31,764.418 L1535.31,751.979 "/>
<path class="Beam" fill-rule="evenodd" d="M489.567,1260.4 L680.37,1260.4 L680.37,1272.8 L489.567,1272.8 L489.567,1260.4 "/>
<path class="Beam" fill-rule="evenodd" d="M1129.92,702.398 L1284.42,702.398 L1284.42,714.798 L1129.92,714.798 L1129.92,702.398 "/>
<path class="Beam" fill-rule="evenodd" d="M546.768,1861.77 L683.122,1874.17 L683.122,1886.63 L546.768,1874.23 L546.768,1861.77 "/>
<path class="Beam" fill-rule="evenodd" d="M546.768,1843.17 L638.497,1851.52 L638.497,1863.97 L546.768,1855.63 L546.768,1843.17 "/>
<path class="Beam" fill-rule="evenodd" d="M1170.19,1855.59 L1268.61,1861.79 L1268.61,1874.21 L1170.19,1868.01 L1170.19,1855.59 "/>
<path class="Beam" fill-rule="evenodd" d="M1268.61,1843.19 L1241.33,1841.47 L1241.33,1853.89 L1268.61,1855.61 L1268.61,1843.19 "/>
<path class="Beam" fill-rule="evenodd" d="M991.762,1291.39 L1088.4,1285.19 L1088.4,1297.61 L991.762,1303.81 L991.762,1291.39 "/>
<path class="Beam" fill-rule="evenodd" d="M395.406,1849.38 L473.567,1843.18 L473.567,1855.62 L395.406,1861.82 L395.406,1849.38 "/>
<path class="Beam" fill-rule="evenodd" d="M756.323,1849.38 L834.485,1843.18 L834.485,1855.62 L756.323,1861.82 L756.323,1849.38 "/>
<path class="Tuplet" d="M595.349,1908.49 C597.464,1907.82 598.319,1907.46 599.399,1906.74 C601.514,1905.34 602.819,1902.87 602.819,1900.35 C602.819,1896.07 599.399,1893.19 594.359,1893.19 C589.454,1893.19 585.314,1896.25 585.314,1899.94 C585.314,1901.79 586.439,1903.05 588.149,1903.05 C589.634,1903.05 590.714,1901.97 590.714,1900.48 C590.714,1899.72 590.489,1899.18 589.769,1898.46 C589.319,1898.05 589.139,1897.74 589.139,1897.42 C589.139,1896.34 591.389,1895.22 593.504,1895.22 C596.519,1895.22 598.319,1896.88 598.319,1899.67 C598.319,1903.68 595.484,1907.46 592.469,1907.46 C592.334,1907.46 591.929,1907.41 591.434,1907.37 C590.129,1907.28 590.129,1907.28 589.859,1907.28 C588.869,1907.28 588.329,1907.73 588.329,1908.54 C588.329,1909.26 588.824,1909.71 589.634,1909.71 C589.859,1909.71 590.174,1909.66 590.534,1909.62 C591.164,1909.48 591.839,1909.44 592.244,1909.44 C594.359,1909.44 595.799,1911.33 595.799,1914.12 C595.799,1918.98 593.414,1923.66 587.969,1923.66 C585.449,1923.66 583.289,1922.4 583.289,1920.96 C583.289,1920.46 583.469,1920.28 584.189,1919.97 C585.494,1919.38 586.034,1918.57 586.034,1917.36 C586.034,1915.78 584.774,1914.57 583.154,1914.57 C581.219,1914.57 579.959,1916.1 579.959,1918.44 C579.959,1922.8 583.289,1925.55 588.689,1925.55 C595.484,1925.55 600.659,1921 600.659,1914.97 C600.659,1911.46 598.499,1909.48 595.349,1908.49"/>
<path class="Tuplet" d="M1745.66,1879.52 C1747.78,1878.84 1748.63,1878.48 1749.71,1877.76 C1751.83,1876.37 1753.13,1873.89 1753.13,1871.37 C1753.13,1867.1 1749.71,1864.22 1744.67,1864.22 C1739.77,1864.22 1735.63,1867.28 1735.63,1870.97 C1735.63,1872.81 1736.75,1874.07 1738.46,1874.07 C1739.95,1874.07 1741.03,1872.99 1741.03,1871.51 C1741.03,1870.74 1740.8,1870.2 1740.08,1869.48 C1739.63,1869.08 1739.45,1868.76 1739.45,1868.45 C1739.45,1867.37 1741.7,1866.24 1743.82,1866.24 C1746.83,1866.24 1748.63,1867.91 1748.63,1870.7 C1748.63,1874.7 1745.8,1878.48 1742.78,1878.48 C1742.65,1878.48 1742.24,1878.44 1741.75,1878.39 C1740.44,1878.3 1740.44,1878.3 1740.17,1878.3 C1739.18,1878.3 1738.64,1878.75 1738.64,1879.56 C1738.64,1880.28 1739.14,1880.73 1739.95,1880.73 C1740.17,1880.73 1740.49,1880.69 1740.85,1880.64 C1741.48,1880.51 1742.15,1880.46 1742.56,1880.46 C1744.67,1880.46 1746.11,1882.35 1746.11,1885.14 C1746.11,1890 1743.73,1894.68 1738.28,1894.68 C1735.76,1894.68 1733.6,1893.42 1733.6,1891.98 C1733.6,1891.49 1733.78,1891.31 1734.5,1890.99 C1735.81,1890.41 1736.35,1889.6 1736.35,1888.38 C1736.35,1886.81 1735.09,1885.59 1733.47,1885.59 C1731.53,1885.59 1730.27,1887.12 1730.27,1889.46 C1730.27,1893.83 1733.6,1896.57 1739,1896.57 C1745.8,1896.57 1750.97,1892.03 1750.97,1886 C1750.97,1882.49 1748.81,1880.51 1745.66,1879.52"/>
<path class="VoltaSegment" d="M2283.88,2243.07 L2283.28,2245.82 C2282.78,2248.02 2282.45,2248.73 2282.01,2249.01 C2281.46,2249.39 2281.35,2249.39 2277.89,2249.45 L2267.27,2249.45 C2269.2,2247.8 2270.63,2246.75 2272.77,2245.32 C2280.53,2240.32 2282.12,2239.11 2283.72,2237.07 C2285.59,2234.6 2286.69,2231.68 2286.69,2229.1 C2286.69,2223.21 2280.91,2218.76 2273.16,2218.76 C2265.68,2218.76 2259.9,2223.6 2259.9,2229.87 C2259.9,2233.72 2262.05,2236.19 2265.35,2236.19 C2268.21,2236.19 2270.02,2234.38 2270.02,2231.52 C2270.02,2229.15 2268.98,2227.78 2266.45,2226.57 C2265.84,2226.29 2265.57,2225.96 2265.57,2225.52 C2265.57,2223.76 2268.54,2221.89 2271.29,2221.89 C2275.14,2221.89 2277.34,2224.26 2277.34,2228.33 C2277.34,2232.89 2275.58,2236.14 2269.75,2242.35 C2263.59,2248.9 2261.44,2251.37 2258.69,2255.33 L2258.69,2257.92 C2260.12,2257.75 2260.73,2257.7 2261.55,2257.7 L2282.23,2257.7 C2283.28,2257.7 2283.94,2257.75 2285.59,2257.92 L2286.85,2243.07 L2283.88,2243.07 "/>
<polyline class="VoltaSegment" fill="none" stroke="#000000" stroke-width="2.73" stroke-linejoin="miter" stroke-miterlimit="2" points="2243.8,2257.7 2243.8,2203.14 2763.24,2203.14 2763.24,2257.7" />
<path class="VoltaSegment" d="M1658.74,2218.76 L1656.81,2218.76 C1653.35,2221.34 1649.44,2222.44 1642.9,2222.55 L1642.9,2225.63 L1645.21,2225.63 C1650.1,2225.63 1650.16,2225.74 1650.1,2230.25 L1650.1,2249.78 C1650.1,2253.19 1650.1,2253.35 1649.72,2253.9 C1649.22,2254.51 1648.12,2254.73 1645.15,2254.73 L1643.39,2254.73 L1643.39,2257.7 L1665.34,2257.7 L1665.34,2254.73 L1663.58,2254.73 C1660.66,2254.73 1659.62,2254.51 1659.12,2253.9 C1658.74,2253.35 1658.74,2253.13 1658.74,2249.78 L1658.74,2218.76 "/>
<polyline class="VoltaSegment" fill="none" stroke="#000000" stroke-width="2.73" stroke-linejoin="miter" stroke-miterlimit="2" points="1628.02,2257.7 1628.02,2203.14 2219.25,2203.14 2219.25,2257.7" />
<path class="NoteDot" transform="matrix(0.992001,0,0,0.992001,440.03,2271)" d="M0,0 C0,2.8 2.2,5 5,5 C7.8,5 10,2.8 10,0 C10,-2.8 7.8,-5 5,-5 C2.2,-5 0,-2.8 0,0"/>
<path class="NoteDot" transform="matrix(0.992001,0,0,0.992001,1214.82,1762.6)" d="M0,0 C0,2.8 2.2,5 5,5 C7.8,5 10,2.8 10,0 C10,-2.8 7.8,-5 5,-5 C2.2,-5 0,-2.8 0,0"/>
<path class="NoteDot" transform="matrix(0.992001,0,0,0.992001,2061.8,646.598)" d="M0,0 C0,2.8 2.2,5 5,5 C7.8,5 10,2.8 10,0 C10,-2.8 7.8,-5 5,-5 C2.2,-5 0,-2.8 0,0"/>
</svg>
