<?xml version="1.0" encoding="UTF-8" standalone="no"?>
<svg width="210.058mm" height="296.926mm" viewBox="0 0 2977.2 4208.4"
 xmlns="http://www.w3.org/2000/svg" xmlns:xlink="http://www.w3.org/1999/xlink" version="1.2" baseProfile="full">
<title>SICILIENNE</title>
<desc>Generated by MuseScore Studio 4.5.2</desc>
<path class="" fill="#ffffff" fill-rule="evenodd" d="M0,0 L2977.2,0 L2977.2,4208.4 L0,4208.4 L0,0 "/>
<polyline class="StaffLines" fill="none" stroke="#000000" stroke-width="2.73" stroke-linejoin="bevel" points="212.598,634.198 2764.6,634.198" />
<polyline class="StaffLines" fill="none" stroke="#000000" stroke-width="2.73" stroke-linejoin="bevel" points="212.598,658.998 2764.6,658.998" />
<polyline class="StaffLines" fill="none" stroke="#000000" stroke-width="2.73" stroke-linejoin="bevel" points="212.598,683.798 2764.6,683.798" />
<polyline class="StaffLines" fill="none" stroke="#000000" stroke-width="2.73" stroke-linejoin="bevel" points="212.598,708.598 2764.6,708.598" />
<polyline class="StaffLines" fill="none" stroke="#000000" stroke-width="2.73" stroke-linejoin="bevel" points="212.598,733.398 2764.6,733.398" />
<polyline class="StaffLines" fill="none" stroke="#000000" stroke-width="2.73" stroke-linejoin="bevel" points="212.598,1316.2 2764.6,1316.2" />
<polyline class="StaffLines" fill="none" stroke="#000000" stroke-width="2.73" stroke-linejoin="bevel" points="212.598,1341 2764.6,1341" />
<polyline class="StaffLines" fill="none" stroke="#000000" stroke-width="2.73" stroke-linejoin="bevel" points="212.598,1365.8 2764.6,1365.8" />
<polyline class="StaffLines" fill="none" stroke="#000000" stroke-width="2.73" stroke-linejoin="bevel" points="212.598,1390.6 2764.6,1390.6" />
<polyline class="StaffLines" fill="none" stroke="#000000" stroke-width="2.73" stroke-linejoin="bevel" points="212.598,1415.4 2764.6,1415.4" />
<path class="Text" d="M1185.5,219.64 C1193.53,222.39 1204.97,228.55 1212.56,234.16 L1217.07,226.79 C1207.72,220.96 1200.57,217.33 1189.79,212.93 L1185.5,219.64 M1176.81,245.93 C1186.82,249.67 1196.83,255.17 1204.86,261 L1209.15,253.63 C1199.58,247.58 1191.66,243.51 1181.21,239.22 L1176.81,245.93 M1180.55,298.62 C1182.2,298.07 1182.64,297.85 1184.84,297.41 C1187.04,296.97 1189.02,296.53 1190.78,296.2 C1199.8,294.33 1210.91,290.59 1218.61,286.74 C1237.97,277.17 1251.39,262.21 1260.96,239.33 C1257.99,237.35 1256.89,236.36 1254.14,233.5 C1250.73,243.18 1247.1,250.11 1240.94,258.14 C1232.03,269.69 1221.58,277.5 1207.94,282.67 C1196.94,286.85 1185.5,289.49 1178.35,289.49 L1180.55,298.62 M1295.5,219.64 C1303.53,222.39 1314.97,228.55 1322.56,234.16 L1327.07,226.79 C1317.72,220.96 1310.57,217.33 1299.79,212.93 L1295.5,219.64 M1286.81,245.93 C1296.82,249.67 1306.83,255.17 1314.86,261 L1319.15,253.63 C1309.58,247.58 1301.66,243.51 1291.21,239.22 L1286.81,245.93 M1290.55,298.62 C1292.2,298.07 1292.64,297.85 1294.84,297.41 C1297.04,296.97 1299.02,296.53 1300.78,296.2 C1309.8,294.33 1320.91,290.59 1328.61,286.74 C1347.97,277.17 1361.39,262.21 1370.96,239.33 C1367.99,237.35 1366.89,236.36 1364.14,233.5 C1360.73,243.18 1357.1,250.11 1350.94,258.14 C1342.03,269.69 1331.58,277.5 1317.94,282.67 C1306.94,286.85 1295.5,289.49 1288.35,289.49 L1290.55,298.62 M1406.82,212.6 C1407.15,215.24 1407.26,217.11 1407.26,221.84 L1407.26,251.21 C1407.26,255.61 1407.15,257.92 1406.82,260.45 L1415.95,260.45 C1415.62,257.81 1415.51,256.6 1415.51,251.32 L1415.51,221.73 C1415.51,216.67 1415.62,215.24 1415.95,212.6 L1406.82,212.6 M1455.44,212.6 C1455.77,215.02 1455.88,216.56 1455.88,222.28 L1455.88,234.71 C1455.88,251.43 1455.55,256.49 1454.34,262.76 C1452.25,272.99 1446.97,280.03 1436.74,285.97 C1431.02,289.38 1425.74,291.25 1415.84,293.45 C1418.59,296.75 1419.25,297.85 1420.46,301.04 C1429.81,298.29 1435.09,296.2 1440.48,293.12 C1451.26,287.07 1458.19,279.04 1461.38,268.7 C1463.36,262.32 1464.13,252.64 1464.13,235.15 L1464.13,222.17 C1464.13,216.89 1464.24,215.13 1464.68,212.6 L1455.44,212.6 M1548.94,231.19 L1570.17,231.19 C1576.11,231.19 1579.19,231.3 1582.93,231.74 L1582.93,223.27 C1579.08,223.82 1576.44,223.93 1570.06,223.93 L1521.77,223.93 C1515.39,223.93 1512.75,223.82 1508.9,223.27 L1508.9,231.74 C1512.64,231.3 1515.72,231.19 1521.66,231.19 L1540.8,231.19 L1540.8,279.92 L1513.3,279.92 C1506.81,279.92 1504.5,279.81 1500.54,279.26 L1500.54,287.84 C1504.28,287.4 1507.47,287.29 1513.19,287.29 L1578.53,287.29 C1584.36,287.29 1587.55,287.4 1591.29,287.84 L1591.29,279.26 C1587.33,279.81 1585.02,279.92 1578.42,279.92 L1548.94,279.92 L1548.94,231.19 M1618.13,225.69 C1627.7,231.52 1636.39,238.67 1644.31,247.25 L1650.03,240.43 C1642.11,232.62 1635.29,227.23 1623.52,219.75 L1618.13,225.69 M1618.9,297.19 C1621.65,296.31 1622.53,296.09 1625.5,295.43 C1643.87,291.25 1655.2,286.74 1666.53,279.04 C1681.05,269.03 1691.28,256.16 1700.08,237.02 C1697,234.93 1695.9,233.94 1693.37,230.53 C1684.46,253.85 1669.72,270.02 1648.49,279.48 C1638.26,284.21 1625.06,287.62 1616.48,287.95 L1618.9,297.19 M1795.67,215.79 C1793.36,216.67 1792.92,216.67 1788.74,216.78 L1742.76,217.33 C1741.22,217.33 1740.23,217.33 1739.79,217.33 C1735.61,217.33 1733.52,217.22 1730.55,216.78 L1730.77,225.14 C1733.96,224.59 1736.38,224.48 1742.65,224.37 L1789.73,223.82 C1785.44,235.59 1779.72,246.15 1772.9,255.39 C1763.33,247.69 1757.17,243.29 1747.49,237.02 L1742.1,242.19 C1750.9,247.36 1756.73,251.65 1768.17,261.11 C1762.56,267.6 1760.36,269.91 1754.86,274.53 C1745.51,282.34 1738.14,286.85 1725.49,292.24 C1728.35,295.21 1729.12,296.31 1730.55,299.39 C1747.38,291.58 1762.01,280.47 1774.11,266.39 C1781.04,272.44 1788.08,279.81 1793.25,286.19 L1798.75,279.59 C1792.04,272.44 1784.89,265.51 1778.95,260.34 C1786.32,250.33 1792.26,239.55 1797.43,226.68 C1798.75,223.38 1799.41,221.95 1800.4,220.85 L1795.67,215.79 "/>
<path class="MeasureNumber" d="M217.481,1253.2 C218.161,1249.68 218.961,1247.48 220.481,1244.8 C222.281,1241.64 224.441,1240.04 226.841,1240.04 C228.081,1240.04 228.841,1240.52 228.841,1241.28 C228.841,1241.56 228.761,1241.72 228.481,1242.24 C228.121,1242.92 227.961,1243.4 227.961,1244 C227.961,1245.28 228.921,1246.16 230.281,1246.16 C231.921,1246.16 233.041,1244.96 233.041,1243.16 C233.041,1240.44 230.481,1238.44 226.921,1238.44 C218.001,1238.44 212.601,1250.08 212.601,1257.76 C212.601,1263.64 215.521,1267.2 220.401,1267.2 C226.401,1267.2 230.841,1262.24 230.841,1256.36 C230.841,1252.28 228.081,1249.44 224.081,1249.44 C221.281,1249.44 219.121,1250.64 217.481,1253.2 M222.801,1251.76 C225.281,1251.76 226.641,1253.48 226.641,1256.6 C226.641,1261.68 223.961,1265.56 220.401,1265.56 C217.841,1265.56 216.321,1263.68 216.321,1260.48 C216.321,1255.48 219.081,1251.76 222.801,1251.76"/>
<path class="TieSegment" stroke="#000000" stroke-width="1.24" stroke-linecap="round" stroke-linejoin="round" fill-rule="evenodd" d="M2313.85,690.502 C2349.08,660.715 2454.76,660.715 2489.99,690.502 C2454.76,668.651 2349.08,668.651 2313.85,690.502"/>
<path class="TieSegment" stroke="#000000" stroke-width="1.24" stroke-linecap="round" stroke-linejoin="round" fill-rule="evenodd" d="M2301.17,1458.3 C2340.19,1481.26 2457.23,1481.26 2496.25,1458.3 C2457.23,1489.2 2340.19,1489.2 2301.17,1458.3"/>
<path class="TieSegment" stroke="#000000" stroke-width="1.24" stroke-linecap="round" stroke-linejoin="round" fill-rule="evenodd" d="M1507.66,1458.3 C1534.8,1477.5 1616.23,1477.5 1643.37,1458.3 C1616.23,1485.44 1534.8,1485.44 1507.66,1458.3"/>
<path class="TieSegment" stroke="#000000" stroke-width="1.24" stroke-linecap="round" stroke-linejoin="round" fill-rule="evenodd" d="M1585.7,690.502 C1610.85,664.084 1686.29,664.084 1711.44,690.502 C1686.29,672.02 1610.85,672.02 1585.7,690.502"/>
<polyline class="BarLine" fill="none" stroke="#000000" stroke-width="4.46" stroke-linejoin="bevel" points="1109.6,632.834 1109.6,734.762" />
<polyline class="BarLine" fill="none" stroke="#000000" stroke-width="4.46" stroke-linejoin="bevel" points="2748.73,1314.84 2748.73,1416.76" />
<polyline class="BarLine" fill="none" stroke="#000000" stroke-width="4.46" stroke-linejoin="bevel" points="2762.37,1314.84 2762.37,1416.76" />
<polyline class="BarLine" fill="none" stroke="#000000" stroke-width="4.46" stroke-linejoin="bevel" points="2260.08,632.834 2260.08,734.762" />
<polyline class="BarLine" fill="none" stroke="#000000" stroke-width="4.46" stroke-linejoin="bevel" points="2250.23,1314.84 2250.23,1416.76" />
<polyline class="BarLine" fill="none" stroke="#000000" stroke-width="4.46" stroke-linejoin="bevel" points="2762.37,632.834 2762.37,734.762" />
<polyline class="BarLine" fill="none" stroke="#000000" stroke-width="4.46" stroke-linejoin="bevel" points="1597.39,1314.84 1597.39,1416.76" />
<polyline class="BarLine" fill="none" stroke="#000000" stroke-width="4.46" stroke-linejoin="bevel" points="597.937,632.834 597.937,734.762" />
<polyline class="BarLine" fill="none" stroke="#000000" stroke-width="4.46" stroke-linejoin="bevel" points="1662.64,632.834 1662.64,734.762" />
<polyline class="BarLine" fill="none" stroke="#000000" stroke-width="4.46" stroke-linejoin="bevel" points="978.782,1314.84 978.782,1416.76" />
<path class="Accidental" transform="matrix(0.992001,0,0,0.992001,997.134,1341)" d="M20.1,-7.9 C19.5,-11.8 17.1,-15.5 12,-15.5 C7,-15.5 4.1,-12.4 3.6,-11.8 L4,-43.9 C4,-44.7 3.4,-45.3 2.6,-45.3 L1.4,-45.3 C0.6,-45.3 0,-44.7 0,-43.9 L0.5,16.2 C0.5,17 1.1,17.6 1.9,17.6 C2.1,17.6 2.5,17.5 2.7,17.4 C3.1,17.2 9.6,14 15,7.9 C18.8,3.6 20.3,-1.3 20.3,-5.4 C20.3,-6.3 20.2,-7.1 20.1,-7.9 M13.2,-4 C13.2,-2.5 12.8,2.1 10.3,5.9 C8.6,8.5 5.2,11.2 3.3,12.7 L3.6,-6.8 C3.8,-7.7 5.3,-10.6 9.3,-10.6 C12.9,-10.6 13.2,-7.2 13.2,-5.1 C13.2,-4.6 13.2,-4.3 13.2,-4"/>
<path class="Accidental" transform="matrix(0.992001,0,0,0.992001,1734.37,1452.6)" d="M16.6,-18.3 C16.4,-18.5 16.1,-18.6 15.8,-18.6 C15.7,-18.6 15.5,-18.5 15.4,-18.5 L2.8,-15 L2.8,-32.5 L0,-32.5 L0,17 C0,17.8 0.6,18.3 1.4,18.3 C1.5,18.3 1.7,18.3 1.8,18.3 L14.4,14.8 L14.4,32.3 L17.1,32.3 C17.1,15.7 17.1,-0.1 17.1,-17.2 C17.1,-17.6 16.9,-18.1 16.6,-18.3 M2.8,9.7 L2.8,-6.7 L14.4,-10 L14.4,6.5 L2.8,9.7 "/>
<path class="Accidental" transform="matrix(0.992001,0,0,0.992001,1857.51,696.198)" d="M16.6,-18.3 C16.4,-18.5 16.1,-18.6 15.8,-18.6 C15.7,-18.6 15.5,-18.5 15.4,-18.5 L2.8,-15 L2.8,-32.5 L0,-32.5 L0,17 C0,17.8 0.6,18.3 1.4,18.3 C1.5,18.3 1.7,18.3 1.8,18.3 L14.4,14.8 L14.4,32.3 L17.1,32.3 C17.1,15.7 17.1,-0.1 17.1,-17.2 C17.1,-17.6 16.9,-18.1 16.6,-18.3 M2.8,9.7 L2.8,-6.7 L14.4,-10 L14.4,6.5 L2.8,9.7 "/>
<polyline class="LedgerLine" fill="none" stroke="#000000" stroke-width="3.97" stroke-linejoin="bevel" points="2656.71,782.999 2705.31,782.999" />
<polyline class="LedgerLine" fill="none" stroke="#000000" stroke-width="3.97" stroke-linejoin="bevel" points="1622.44,1440.2 1671.03,1440.2" />
<polyline class="LedgerLine" fill="none" stroke="#000000" stroke-width="3.97" stroke-linejoin="bevel" points="1481.77,1440.2 1530.37,1440.2" />
<polyline class="LedgerLine" fill="none" stroke="#000000" stroke-width="3.97" stroke-linejoin="bevel" points="2656.71,758.199 2705.31,758.199" />
<polyline class="LedgerLine" fill="none" stroke="#000000" stroke-width="3.97" stroke-linejoin="bevel" points="1931.13,1440.2 1979.72,1440.2" />
<polyline class="LedgerLine" fill="none" stroke="#000000" stroke-width="3.97" stroke-linejoin="bevel" points="442.371,1440.2 490.963,1440.2" />
<polyline class="LedgerLine" fill="none" stroke="#000000" stroke-width="3.97" stroke-linejoin="bevel" points="492.281,782.999 540.873,782.999" />
<polyline class="LedgerLine" fill="none" stroke="#000000" stroke-width="3.97" stroke-linejoin="bevel" points="492.281,758.199 540.873,758.199" />
<polyline class="LedgerLine" fill="none" stroke="#000000" stroke-width="3.97" stroke-linejoin="bevel" points="2064.48,1440.2 2113.08,1440.2" />
<polyline class="LedgerLine" fill="none" stroke="#000000" stroke-width="3.97" stroke-linejoin="bevel" points="1755.79,1440.2 1804.39,1440.2" />
<polyline class="LedgerLine" fill="none" stroke="#000000" stroke-width="3.97" stroke-linejoin="bevel" points="622.985,758.199 671.578,758.199" />
<polyline class="LedgerLine" fill="none" stroke="#000000" stroke-width="3.97" stroke-linejoin="bevel" points="2475.32,1440.2 2523.91,1440.2" />
<polyline class="LedgerLine" fill="none" stroke="#000000" stroke-width="3.97" stroke-linejoin="bevel" points="2275.28,1440.2 2323.87,1440.2" />
<polyline class="Stem" fill="none" stroke="#000000" stroke-width="2.48" stroke-linejoin="bevel" points="1970.29,1436.23 1970.29,1347.16" />
<polyline class="Stem" fill="none" stroke="#000000" stroke-width="2.48" stroke-linejoin="bevel" points="1264.81,663.165 1264.81,735.299" />
<polyline class="Stem" fill="none" stroke="#000000" stroke-width="2.48" stroke-linejoin="bevel" points="1144.08,650.765 1144.08,727.281" />
<polyline class="Stem" fill="none" stroke="#000000" stroke-width="2.48" stroke-linejoin="bevel" points="1661.6,1436.23 1661.6,1365.76" />
<polyline class="Stem" fill="none" stroke="#000000" stroke-width="2.48" stroke-linejoin="bevel" points="1697.11,712.765 1697.11,795.399" />
<polyline class="Stem" fill="none" stroke="#000000" stroke-width="2.48" stroke-linejoin="bevel" points="1566.4,712.765 1566.4,789.099" />
<polyline class="Stem" fill="none" stroke="#000000" stroke-width="2.48" stroke-linejoin="bevel" points="2514.49,1436.23 2514.49,1353.4" />
<polyline class="Stem" fill="none" stroke="#000000" stroke-width="2.48" stroke-linejoin="bevel" points="1794.96,1448.63 1794.96,1361.75" />
<polyline class="Stem" fill="none" stroke="#000000" stroke-width="2.48" stroke-linejoin="bevel" points="775.27,737.565 775.27,813.899" />
<polyline class="Stem" fill="none" stroke="#000000" stroke-width="2.48" stroke-linejoin="bevel" points="1817.84,725.165 1817.84,795.399" />
<polyline class="Stem" fill="none" stroke="#000000" stroke-width="2.48" stroke-linejoin="bevel" points="1024.71,1345.17 1024.71,1427.84" />
<polyline class="Stem" fill="none" stroke="#000000" stroke-width="2.48" stroke-linejoin="bevel" points="1884.38,700.365 1884.38,795.399" />
<polyline class="Stem" fill="none" stroke="#000000" stroke-width="2.48" stroke-linejoin="bevel" points="662.154,754.231 662.154,671.398" />
<polyline class="Stem" fill="none" stroke="#000000" stroke-width="2.48" stroke-linejoin="bevel" points="1013.37,675.565 1013.37,751.899" />
<polyline class="Stem" fill="none" stroke="#000000" stroke-width="2.48" stroke-linejoin="bevel" points="2314.45,1436.23 2314.45,1353.4" />
<polyline class="Stem" fill="none" stroke="#000000" stroke-width="2.48" stroke-linejoin="bevel" points="1979.62,712.765 1979.62,795.399" />
<polyline class="Stem" fill="none" stroke="#000000" stroke-width="2.48" stroke-linejoin="bevel" points="1228.2,1369.97 1228.2,1433.96" />
<polyline class="Stem" fill="none" stroke="#000000" stroke-width="2.48" stroke-linejoin="bevel" points="1865.1,1423.83 1865.1,1359.64" />
<polyline class="Stem" fill="none" stroke="#000000" stroke-width="2.48" stroke-linejoin="bevel" points="531.449,791.431 531.449,683.997" />
<polyline class="Stem" fill="none" stroke="#000000" stroke-width="2.48" stroke-linejoin="bevel" points="872.591,1369.97 872.591,1446.3" />
<polyline class="Stem" fill="none" stroke="#000000" stroke-width="2.48" stroke-linejoin="bevel" points="2100.36,725.165 2100.36,795.399" />
<polyline class="Stem" fill="none" stroke="#000000" stroke-width="2.48" stroke-linejoin="bevel" points="481.539,1436.23 481.539,1353.4" />
<polyline class="Stem" fill="none" stroke="#000000" stroke-width="2.48" stroke-linejoin="bevel" points="2163.85,700.365 2163.85,795.399" />
<polyline class="Stem" fill="none" stroke="#000000" stroke-width="2.48" stroke-linejoin="bevel" points="1423.54,663.165 1423.54,745.799" />
<polyline class="Stem" fill="none" stroke="#000000" stroke-width="2.48" stroke-linejoin="bevel" points="2173.79,1411.43 2173.79,1341.04" />
<polyline class="Stem" fill="none" stroke="#000000" stroke-width="2.48" stroke-linejoin="bevel" points="870.51,712.765 870.51,770.599" />
<polyline class="Stem" fill="none" stroke="#000000" stroke-width="2.48" stroke-linejoin="bevel" points="714.792,1394.77 714.792,1452.6" />
<polyline class="Stem" fill="none" stroke="#000000" stroke-width="2.48" stroke-linejoin="bevel" points="609.593,1419.57 609.593,1495.9" />
<polyline class="Stem" fill="none" stroke="#000000" stroke-width="2.48" stroke-linejoin="bevel" points="2294.56,712.765 2294.56,770.599" />
<polyline class="Stem" fill="none" stroke="#000000" stroke-width="2.48" stroke-linejoin="bevel" points="1520.94,1436.23 1520.94,1353.6" />
<polyline class="Stem" fill="none" stroke="#000000" stroke-width="2.48" stroke-linejoin="bevel" points="1333.4,1357.57 1333.4,1434" />
<polyline class="Stem" fill="none" stroke="#000000" stroke-width="2.48" stroke-linejoin="bevel" points="2103.65,1448.63 2103.65,1343.15" />
<polyline class="Stem" fill="none" stroke="#000000" stroke-width="2.48" stroke-linejoin="bevel" points="2695.88,791.431 2695.88,683.997" />
<polyline class="Stem" fill="none" stroke="#000000" stroke-width="2.48" stroke-linejoin="bevel" points="2475.66,712.765 2475.66,789.099" />
<polyline class="Stem" fill="none" stroke="#000000" stroke-width="2.48" stroke-linejoin="bevel" points="1328.3,675.565 1328.3,739.516" />
<polyline class="Stem" fill="none" stroke="#000000" stroke-width="2.48" stroke-linejoin="bevel" points="1158.07,1357.57 1158.07,1431.85" />
<path class="Hook" transform="matrix(0.992001,0,0,0.992001,1519.7,1353.4)" d="M0,22.7 C0,23 0.1,23.5 0.8,23.8 C5.1,25.2 13.7,30.6 20.2,41.7 C22,44.8 24.9,49.1 24.9,57.4 C24.9,64.6 23,72 20.4,79.2 C20.2,79.8 20,80.3 20.1,80.7 C20.1,81.1 20.2,81.4 20.6,81.6 C20.8,81.7 21,81.7 21.1,81.7 C21.8,81.7 22.3,81.3 22.7,80.6 C27.4,72.3 29,61.7 28.9,55.4 C28.9,54.9 28.9,54.6 28.9,54.2 C28.4,41.3 21,31.8 21,31.8 C21.3,31.8 11.8,19.5 9.1,15.3 C5.4,9.6 3.7,3.9 3.5,3.5 C3.4,3.2 2.5,-0.4 2.5,-0.4 C2.4,-0.8 1.9,-1.2 1.3,-1.2 C0.6,-1.2 0,-0.6 0,0.1 L0,22.7 "/>
<path class="Hook" transform="matrix(0.992001,0,0,0.992001,2694.64,683.798)" d="M0,22.7 C0,23 0.1,23.5 0.8,23.8 C5.1,25.2 13.7,30.6 20.2,41.7 C22,44.8 24.9,49.1 24.9,57.4 C24.9,64.6 23,72 20.4,79.2 C20.2,79.8 20,80.3 20.1,80.7 C20.1,81.1 20.2,81.4 20.6,81.6 C20.8,81.7 21,81.7 21.1,81.7 C21.8,81.7 22.3,81.3 22.7,80.6 C27.4,72.3 29,61.7 28.9,55.4 C28.9,54.9 28.9,54.6 28.9,54.2 C28.4,41.3 21,31.8 21,31.8 C21.3,31.8 11.8,19.5 9.1,15.3 C5.4,9.6 3.7,3.9 3.5,3.5 C3.4,3.2 2.5,-0.4 2.5,-0.4 C2.4,-0.8 1.9,-1.2 1.3,-1.2 C0.6,-1.2 0,-0.6 0,0.1 L0,22.7 "/>
<path class="Hook" transform="matrix(0.992001,0,0,0.992001,2474.42,789.199)" d="M0,-0.1 C0,0.6 0.6,1.2 1.3,1.2 C1.8,1.2 2.4,0.8 2.5,0.4 C2.5,0.3 3.4,-3.2 3.5,-3.5 C3.6,-3.9 4.5,-7.7 8.1,-13.6 C12,-20.1 18,-24.8 23,-31.8 C27.9,-38.8 30.9,-45.4 30.9,-54.2 C30.9,-63.3 28.8,-70.9 23.5,-80.6 C23.2,-81.3 22.6,-81.7 22,-81.7 C21.8,-81.7 21.6,-81.7 21.5,-81.6 C21,-81.4 20.8,-81 20.8,-80.4 C20.8,-80.1 20.9,-79.6 21.1,-79.2 C25.1,-69.9 26.7,-64.6 26.7,-57.4 C26.7,-49.1 23.8,-44.8 22,-41.7 C15.5,-30.6 5,-25.2 0.8,-23.8 C0.1,-23.5 0,-23 0,-22.7 L0,-0.1 "/>
<path class="Hook" transform="matrix(0.992001,0,0,0.992001,608.353,1496)" d="M0,-0.1 C0,0.6 0.6,1.2 1.3,1.2 C1.8,1.2 2.4,0.8 2.5,0.4 C2.5,0.3 3.4,-3.2 3.5,-3.5 C3.6,-3.9 4.5,-7.7 8.1,-13.6 C12,-20.1 18,-24.8 23,-31.8 C27.9,-38.8 30.9,-45.4 30.9,-54.2 C30.9,-63.3 28.8,-70.9 23.5,-80.6 C23.2,-81.3 22.6,-81.7 22,-81.7 C21.8,-81.7 21.6,-81.7 21.5,-81.6 C21,-81.4 20.8,-81 20.8,-80.4 C20.8,-80.1 20.9,-79.6 21.1,-79.2 C25.1,-69.9 26.7,-64.6 26.7,-57.4 C26.7,-49.1 23.8,-44.8 22,-41.7 C15.5,-30.6 5,-25.2 0.8,-23.8 C0.1,-23.5 0,-23 0,-22.7 L0,-0.1 "/>
<path class="Hook" transform="matrix(0.992001,0,0,0.992001,1012.13,751.999)" d="M0,-0.1 C0,0.6 0.6,1.2 1.3,1.2 C1.8,1.2 2.4,0.8 2.5,0.4 C2.5,0.3 3.4,-3.2 3.5,-3.5 C3.6,-3.9 4.5,-7.7 8.1,-13.6 C12,-20.1 18,-24.8 23,-31.8 C27.9,-38.8 30.9,-45.4 30.9,-54.2 C30.9,-63.3 28.8,-70.9 23.5,-80.6 C23.2,-81.3 22.6,-81.7 22,-81.7 C21.8,-81.7 21.6,-81.7 21.5,-81.6 C21,-81.4 20.8,-81 20.8,-80.4 C20.8,-80.1 20.9,-79.6 21.1,-79.2 C25.1,-69.9 26.7,-64.6 26.7,-57.4 C26.7,-49.1 23.8,-44.8 22,-41.7 C15.5,-30.6 5,-25.2 0.8,-23.8 C0.1,-23.5 0,-23 0,-22.7 L0,-0.1 "/>
<path class="Hook" transform="matrix(0.992001,0,0,0.992001,871.351,1446.4)" d="M0,-0.1 C0,0.6 0.6,1.2 1.3,1.2 C1.8,1.2 2.4,0.8 2.5,0.4 C2.5,0.3 3.4,-3.2 3.5,-3.5 C3.6,-3.9 4.5,-7.7 8.1,-13.6 C12,-20.1 18,-24.8 23,-31.8 C27.9,-38.8 30.9,-45.4 30.9,-54.2 C30.9,-63.3 28.8,-70.9 23.5,-80.6 C23.2,-81.3 22.6,-81.7 22,-81.7 C21.8,-81.7 21.6,-81.7 21.5,-81.6 C21,-81.4 20.8,-81 20.8,-80.4 C20.8,-80.1 20.9,-79.6 21.1,-79.2 C25.1,-69.9 26.7,-64.6 26.7,-57.4 C26.7,-49.1 23.8,-44.8 22,-41.7 C15.5,-30.6 5,-25.2 0.8,-23.8 C0.1,-23.5 0,-23 0,-22.7 L0,-0.1 "/>
<path class="Hook" transform="matrix(0.992001,0,0,0.992001,530.209,683.798)" d="M0,22.7 C0,23 0.1,23.5 0.8,23.8 C5.1,25.2 13.7,30.6 20.2,41.7 C22,44.8 24.9,49.1 24.9,57.4 C24.9,64.6 23,72 20.4,79.2 C20.2,79.8 20,80.3 20.1,80.7 C20.1,81.1 20.2,81.4 20.6,81.6 C20.8,81.7 21,81.7 21.1,81.7 C21.8,81.7 22.3,81.3 22.7,80.6 C27.4,72.3 29,61.7 28.9,55.4 C28.9,54.9 28.9,54.6 28.9,54.2 C28.4,41.3 21,31.8 21,31.8 C21.3,31.8 11.8,19.5 9.1,15.3 C5.4,9.6 3.7,3.9 3.5,3.5 C3.4,3.2 2.5,-0.4 2.5,-0.4 C2.4,-0.8 1.9,-1.2 1.3,-1.2 C0.6,-1.2 0,-0.6 0,0.1 L0,22.7 "/>
<path class="Hook" transform="matrix(0.992001,0,0,0.992001,1565.16,789.199)" d="M0,-0.1 C0,0.6 0.6,1.2 1.3,1.2 C1.8,1.2 2.4,0.8 2.5,0.4 C2.5,0.3 3.4,-3.2 3.5,-3.5 C3.6,-3.9 4.5,-7.7 8.1,-13.6 C12,-20.1 18,-24.8 23,-31.8 C27.9,-38.8 30.9,-45.4 30.9,-54.2 C30.9,-63.3 28.8,-70.9 23.5,-80.6 C23.2,-81.3 22.6,-81.7 22,-81.7 C21.8,-81.7 21.6,-81.7 21.5,-81.6 C21,-81.4 20.8,-81 20.8,-80.4 C20.8,-80.1 20.9,-79.6 21.1,-79.2 C25.1,-69.9 26.7,-64.6 26.7,-57.4 C26.7,-49.1 23.8,-44.8 22,-41.7 C15.5,-30.6 5,-25.2 0.8,-23.8 C0.1,-23.5 0,-23 0,-22.7 L0,-0.1 "/>
<path class="Hook" transform="matrix(0.992001,0,0,0.992001,774.03,813.999)" d="M0,-0.1 C0,0.6 0.6,1.2 1.3,1.2 C1.8,1.2 2.4,0.8 2.5,0.4 C2.5,0.3 3.4,-3.2 3.5,-3.5 C3.6,-3.9 4.5,-7.7 8.1,-13.6 C12,-20.1 18,-24.8 23,-31.8 C27.9,-38.8 30.9,-45.4 30.9,-54.2 C30.9,-63.3 28.8,-70.9 23.5,-80.6 C23.2,-81.3 22.6,-81.7 22,-81.7 C21.8,-81.7 21.6,-81.7 21.5,-81.6 C21,-81.4 20.8,-81 20.8,-80.4 C20.8,-80.1 20.9,-79.6 21.1,-79.2 C25.1,-69.9 26.7,-64.6 26.7,-57.4 C26.7,-49.1 23.8,-44.8 22,-41.7 C15.5,-30.6 5,-25.2 0.8,-23.8 C0.1,-23.5 0,-23 0,-22.7 L0,-0.1 "/>
<path class="Note" transform="matrix(0.992001,0,0,0.992001,500.465,795.399)" d="M0,4.2 C0,8.5 3.1,13.3 11.2,13.3 C21.6,13.3 32.5,4.8 32.5,-4 C32.5,-9.9 27.5,-13.2 21.3,-13.2 C11.6,-13.2 0,-5 0,4.2"/>
<path class="Note" transform="matrix(0.992001,0,0,0.992001,1489.96,1440.2)" d="M0,4.2 C0,8.5 3.1,13.3 11.2,13.3 C21.6,13.3 32.5,4.8 32.5,-4 C32.5,-9.9 27.5,-13.2 21.3,-13.2 C11.6,-13.2 0,-5 0,4.2"/>
<path class="Note" transform="matrix(0.992001,0,0,0.992001,1834.11,1427.8)" d="M0,4.2 C0,8.5 3.1,13.3 11.2,13.3 C21.6,13.3 32.5,4.8 32.5,-4 C32.5,-9.9 27.5,-13.2 21.3,-13.2 C11.6,-13.2 0,-5 0,4.2"/>
<path class="Note" transform="matrix(0.992001,0,0,0.992001,2664.9,795.399)" d="M0,4.2 C0,8.5 3.1,13.3 11.2,13.3 C21.6,13.3 32.5,4.8 32.5,-4 C32.5,-9.9 27.5,-13.2 21.3,-13.2 C11.6,-13.2 0,-5 0,4.2"/>
<path class="Note" transform="matrix(0.992001,0,0,0.992001,774.03,733.398)" d="M0,4.2 C0,8.5 3.1,13.3 11.2,13.3 C21.6,13.3 32.5,4.8 32.5,-4 C32.5,-9.9 27.5,-13.2 21.3,-13.2 C11.6,-13.2 0,-5 0,4.2"/>
<path class="Note" transform="matrix(0.992001,0,0,0.992001,1939.31,1440.2)" d="M0,4.2 C0,8.5 3.1,13.3 11.2,13.3 C21.6,13.3 32.5,4.8 32.5,-4 C32.5,-9.9 27.5,-13.2 21.3,-13.2 C11.6,-13.2 0,-5 0,4.2"/>
<path class="Note" transform="matrix(0.992001,0,0,0.992001,450.555,1440.2)" d="M0,4.2 C0,8.5 3.1,13.3 11.2,13.3 C21.6,13.3 32.5,4.8 32.5,-4 C32.5,-9.9 27.5,-13.2 21.3,-13.2 C11.6,-13.2 0,-5 0,4.2"/>
<path class="Note" transform="matrix(0.992001,0,0,0.992001,2474.42,708.598)" d="M0,4.2 C0,8.5 3.1,13.3 11.2,13.3 C21.6,13.3 32.5,4.8 32.5,-4 C32.5,-9.9 27.5,-13.2 21.3,-13.2 C11.6,-13.2 0,-5 0,4.2"/>
<path class="Note" transform="matrix(0.992001,0,0,0.992001,2293.32,708.598)" d="M0,4.2 C0,8.5 3.1,13.3 11.2,13.3 C21.6,13.3 32.5,4.8 32.5,-4 C32.5,-9.9 27.5,-13.2 21.3,-13.2 C11.6,-13.2 0,-5 0,4.2"/>
<path class="Note" transform="matrix(0.992001,0,0,0.992001,869.27,708.598)" d="M0,4.2 C0,8.5 3.1,13.3 11.2,13.3 C21.6,13.3 32.5,4.8 32.5,-4 C32.5,-9.9 27.5,-13.2 21.3,-13.2 C11.6,-13.2 0,-5 0,4.2"/>
<path class="Note" transform="matrix(0.992001,0,0,0.992001,1142.84,646.598)" d="M0,4.2 C0,8.5 3.1,13.3 11.2,13.3 C21.6,13.3 32.5,4.8 32.5,-4 C32.5,-9.9 27.5,-13.2 21.3,-13.2 C11.6,-13.2 0,-5 0,4.2"/>
<path class="Note" transform="matrix(0.992001,0,0,0.992001,2072.67,1452.6)" d="M0,4.2 C0,8.5 3.1,13.3 11.2,13.3 C21.6,13.3 32.5,4.8 32.5,-4 C32.5,-9.9 27.5,-13.2 21.3,-13.2 C11.6,-13.2 0,-5 0,4.2"/>
<path class="Note" transform="matrix(0.992001,0,0,0.992001,1763.98,1452.6)" d="M0,4.2 C0,8.5 3.1,13.3 11.2,13.3 C21.6,13.3 32.5,4.8 32.5,-4 C32.5,-9.9 27.5,-13.2 21.3,-13.2 C11.6,-13.2 0,-5 0,4.2"/>
<path class="Note" transform="matrix(0.992001,0,0,0.992001,2162.61,696.198)" d="M0,4.2 C0,8.5 3.1,13.3 11.2,13.3 C21.6,13.3 32.5,4.8 32.5,-4 C32.5,-9.9 27.5,-13.2 21.3,-13.2 C11.6,-13.2 0,-5 0,4.2"/>
<path class="Note" transform="matrix(0.992001,0,0,0.992001,2099.12,720.998)" d="M0,4.2 C0,8.5 3.1,13.3 11.2,13.3 C21.6,13.3 32.5,4.8 32.5,-4 C32.5,-9.9 27.5,-13.2 21.3,-13.2 C11.6,-13.2 0,-5 0,4.2"/>
<path class="Note" transform="matrix(0.992001,0,0,0.992001,2142.8,1415.4)" d="M0,4.2 C0,8.5 3.1,13.3 11.2,13.3 C21.6,13.3 32.5,4.8 32.5,-4 C32.5,-9.9 27.5,-13.2 21.3,-13.2 C11.6,-13.2 0,-5 0,4.2"/>
<path class="Note" transform="matrix(0.992001,0,0,0.992001,871.351,1365.8)" d="M0,4.2 C0,8.5 3.1,13.3 11.2,13.3 C21.6,13.3 32.5,4.8 32.5,-4 C32.5,-9.9 27.5,-13.2 21.3,-13.2 C11.6,-13.2 0,-5 0,4.2"/>
<path class="Note" transform="matrix(0.992001,0,0,0.992001,1978.38,708.598)" d="M0,4.2 C0,8.5 3.1,13.3 11.2,13.3 C21.6,13.3 32.5,4.8 32.5,-4 C32.5,-9.9 27.5,-13.2 21.3,-13.2 C11.6,-13.2 0,-5 0,4.2"/>
<path class="Note" transform="matrix(0.992001,0,0,0.992001,1883.14,696.198)" d="M0,4.2 C0,8.5 3.1,13.3 11.2,13.3 C21.6,13.3 32.5,4.8 32.5,-4 C32.5,-9.9 27.5,-13.2 21.3,-13.2 C11.6,-13.2 0,-5 0,4.2"/>
<path class="Note" transform="matrix(0.992001,0,0,0.992001,1816.6,720.998)" d="M0,4.2 C0,8.5 3.1,13.3 11.2,13.3 C21.6,13.3 32.5,4.8 32.5,-4 C32.5,-9.9 27.5,-13.2 21.3,-13.2 C11.6,-13.2 0,-5 0,4.2"/>
<path class="Note" transform="matrix(0.992001,0,0,0.992001,1023.47,1341)" d="M0,4.2 C0,8.5 3.1,13.3 11.2,13.3 C21.6,13.3 32.5,4.8 32.5,-4 C32.5,-9.9 27.5,-13.2 21.3,-13.2 C11.6,-13.2 0,-5 0,4.2"/>
<path class="Note" transform="matrix(0.992001,0,0,0.992001,2283.46,1440.2)" d="M0,4.2 C0,8.5 3.1,13.3 11.2,13.3 C21.6,13.3 32.5,4.8 32.5,-4 C32.5,-9.9 27.5,-13.2 21.3,-13.2 C11.6,-13.2 0,-5 0,4.2"/>
<path class="Note" transform="matrix(0.992001,0,0,0.992001,1630.62,1440.2)" d="M0,4.2 C0,8.5 3.1,13.3 11.2,13.3 C21.6,13.3 32.5,4.8 32.5,-4 C32.5,-9.9 27.5,-13.2 21.3,-13.2 C11.6,-13.2 0,-5 0,4.2"/>
<path class="Note" transform="matrix(0.992001,0,0,0.992001,1695.87,708.598)" d="M0,4.2 C0,8.5 3.1,13.3 11.2,13.3 C21.6,13.3 32.5,4.8 32.5,-4 C32.5,-9.9 27.5,-13.2 21.3,-13.2 C11.6,-13.2 0,-5 0,4.2"/>
<path class="Note" transform="matrix(0.992001,0,0,0.992001,1012.13,671.398)" d="M0,4.2 C0,8.5 3.1,13.3 11.2,13.3 C21.6,13.3 32.5,4.8 32.5,-4 C32.5,-9.9 27.5,-13.2 21.3,-13.2 C11.6,-13.2 0,-5 0,4.2"/>
<path class="Note" transform="matrix(0.992001,0,0,0.992001,1565.16,708.598)" d="M0,4.2 C0,8.5 3.1,13.3 11.2,13.3 C21.6,13.3 32.5,4.8 32.5,-4 C32.5,-9.9 27.5,-13.2 21.3,-13.2 C11.6,-13.2 0,-5 0,4.2"/>
<path class="Note" transform="matrix(0.992001,0,0,0.992001,1156.83,1353.4)" d="M0,4.2 C0,8.5 3.1,13.3 11.2,13.3 C21.6,13.3 32.5,4.8 32.5,-4 C32.5,-9.9 27.5,-13.2 21.3,-13.2 C11.6,-13.2 0,-5 0,4.2"/>
<path class="Note" transform="matrix(0.992001,0,0,0.992001,1422.3,658.998)" d="M0,4.2 C0,8.5 3.1,13.3 11.2,13.3 C21.6,13.3 32.5,4.8 32.5,-4 C32.5,-9.9 27.5,-13.2 21.3,-13.2 C11.6,-13.2 0,-5 0,4.2"/>
<path class="Note" transform="matrix(0.992001,0,0,0.992001,1226.96,1365.8)" d="M0,4.2 C0,8.5 3.1,13.3 11.2,13.3 C21.6,13.3 32.5,4.8 32.5,-4 C32.5,-9.9 27.5,-13.2 21.3,-13.2 C11.6,-13.2 0,-5 0,4.2"/>
<path class="Note" transform="matrix(0.992001,0,0,0.992001,1327.06,671.398)" d="M0,4.2 C0,8.5 3.1,13.3 11.2,13.3 C21.6,13.3 32.5,4.8 32.5,-4 C32.5,-9.9 27.5,-13.2 21.3,-13.2 C11.6,-13.2 0,-5 0,4.2"/>
<path class="Note" transform="matrix(0.992001,0,0,0.992001,1332.16,1353.4)" d="M0,4.2 C0,8.5 3.1,13.3 11.2,13.3 C21.6,13.3 32.5,4.8 32.5,-4 C32.5,-9.9 27.5,-13.2 21.3,-13.2 C11.6,-13.2 0,-5 0,4.2"/>
<path class="Note" transform="matrix(0.992001,0,0,0.992001,1263.57,658.998)" d="M0,4.2 C0,8.5 3.1,13.3 11.2,13.3 C21.6,13.3 32.5,4.8 32.5,-4 C32.5,-9.9 27.5,-13.2 21.3,-13.2 C11.6,-13.2 0,-5 0,4.2"/>
<path class="Note" transform="matrix(0.992001,0,0,0.992001,2483.5,1440.2)" d="M0,4.2 C0,8.5 3.1,13.3 11.2,13.3 C21.6,13.3 32.5,4.8 32.5,-4 C32.5,-9.9 27.5,-13.2 21.3,-13.2 C11.6,-13.2 0,-5 0,4.2"/>
<path class="Note" transform="matrix(0.992001,0,0,0.992001,713.552,1390.6)" d="M0,4.2 C0,8.5 3.1,13.3 11.2,13.3 C21.6,13.3 32.5,4.8 32.5,-4 C32.5,-9.9 27.5,-13.2 21.3,-13.2 C11.6,-13.2 0,-5 0,4.2"/>
<path class="Note" transform="matrix(0.992001,0,0,0.992001,608.353,1415.4)" d="M0,4.2 C0,8.5 3.1,13.3 11.2,13.3 C21.6,13.3 32.5,4.8 32.5,-4 C32.5,-9.9 27.5,-13.2 21.3,-13.2 C11.6,-13.2 0,-5 0,4.2"/>
<path class="Note" transform="matrix(0.992001,0,0,0.992001,631.169,758.199)" d="M0,4.2 C0,8.5 3.1,13.3 11.2,13.3 C21.6,13.3 32.5,4.8 32.5,-4 C32.5,-9.9 27.5,-13.2 21.3,-13.2 C11.6,-13.2 0,-5 0,4.2"/>
<path class="Clef" transform="matrix(0.992001,0,0,0.992001,231.198,708.598)" d="M56.2,2.1 C56.2,9.2 53.3,16.5 46.2,19.4 C44.1,7.4 41.4,-8.5 40.7,-12.9 C49.7,-12.9 56.2,-6.8 56.2,2.1 M42,20.6 C40,21 38.1,21.2 36.2,21.2 C21.9,21.2 9.7,11.2 9.7,-3.9 C9.7,-16.1 18.3,-27 27.1,-34.6 C28.8,-36.1 30.4,-37.5 31.9,-39 C32.8,-33.6 33.5,-28.9 34.2,-24.8 C25.1,-22.1 18.9,-12.5 18.9,-3.1 C18.9,3.9 24.4,13.5 32.4,13.5 C33.2,13.5 34.1,13.1 34.1,12.2 C34.1,11.3 33.1,10.8 31.9,10 C28,7.6 25.8,5 25.8,0.1 C25.8,-6 30.3,-10.9 36.2,-12.3 L42,20.6 M33.2,-82.2 C34.1,-86.2 38.7,-96.7 43.9,-96.7 C45.4,-96.7 47.8,-91.8 47.8,-84.9 C47.8,-74.5 40.1,-66.7 33.2,-59.9 C32.6,-63.9 32.1,-67.8 32.1,-72 C32.1,-75.7 32.4,-79.1 33.2,-82.2 M12.2,51.3 C12.2,57.9 17.3,66.6 30.8,66.6 C35.5,66.6 39.6,65.4 43.2,63.2 C48.6,59.4 50,52.8 50,46.5 C50,42.6 49.4,38.1 48.4,32.4 C48.1,30.4 47.5,27.4 46.9,23.5 C56.7,20.3 64,10.1 64,-0.2 C64,-15.3 53.3,-25.5 38.7,-25.5 C37.7,-31.5 36.7,-37.4 35.8,-43 C46.4,-54.1 53.7,-66.6 53.7,-82.5 C53.7,-91.6 50.9,-99 49.3,-102.6 C46.9,-107.7 44,-111.2 42.2,-111.2 C41.5,-111.2 38.4,-110 35.1,-106.1 C28.7,-98.5 26.9,-85.7 26.9,-77.3 C26.9,-71.9 27.4,-67 29.1,-55.8 C29,-55.7 23.8,-50.4 21.7,-48.7 C12.6,-40.2 0,-28.1 0,-8.1 C0,10.6 16.3,25.3 34.9,25.3 C37.8,25.3 40.5,25 42.8,24.6 C44.7,34.2 45.8,41.2 45.8,46.5 C45.8,56.9 40.5,62.4 30.4,62.4 C28,62.4 25.9,61.9 25.7,61.9 C25.6,61.8 25.4,61.7 25.4,61.6 C25.4,61.4 25.6,61.3 25.9,61.2 C30.6,60.5 35.3,56.5 35.3,50.1 C35.3,44.7 31.2,39 23.7,39 C16.7,39 12.2,44.7 12.2,51.3"/>
<path class="Clef" transform="matrix(0.992001,0,0,0.992001,231.198,1390.6)" d="M56.2,2.1 C56.2,9.2 53.3,16.5 46.2,19.4 C44.1,7.4 41.4,-8.5 40.7,-12.9 C49.7,-12.9 56.2,-6.8 56.2,2.1 M42,20.6 C40,21 38.1,21.2 36.2,21.2 C21.9,21.2 9.7,11.2 9.7,-3.9 C9.7,-16.1 18.3,-27 27.1,-34.6 C28.8,-36.1 30.4,-37.5 31.9,-39 C32.8,-33.6 33.5,-28.9 34.2,-24.8 C25.1,-22.1 18.9,-12.5 18.9,-3.1 C18.9,3.9 24.4,13.5 32.4,13.5 C33.2,13.5 34.1,13.1 34.1,12.2 C34.1,11.3 33.1,10.8 31.9,10 C28,7.6 25.8,5 25.8,0.1 C25.8,-6 30.3,-10.9 36.2,-12.3 L42,20.6 M33.2,-82.2 C34.1,-86.2 38.7,-96.7 43.9,-96.7 C45.4,-96.7 47.8,-91.8 47.8,-84.9 C47.8,-74.5 40.1,-66.7 33.2,-59.9 C32.6,-63.9 32.1,-67.8 32.1,-72 C32.1,-75.7 32.4,-79.1 33.2,-82.2 M12.2,51.3 C12.2,57.9 17.3,66.6 30.8,66.6 C35.5,66.6 39.6,65.4 43.2,63.2 C48.6,59.4 50,52.8 50,46.5 C50,42.6 49.4,38.1 48.4,32.4 C48.1,30.4 47.5,27.4 46.9,23.5 C56.7,20.3 64,10.1 64,-0.2 C64,-15.3 53.3,-25.5 38.7,-25.5 C37.7,-31.5 36.7,-37.4 35.8,-43 C46.4,-54.1 53.7,-66.6 53.7,-82.5 C53.7,-91.6 50.9,-99 49.3,-102.6 C46.9,-107.7 44,-111.2 42.2,-111.2 C41.5,-111.2 38.4,-110 35.1,-106.1 C28.7,-98.5 26.9,-85.7 26.9,-77.3 C26.9,-71.9 27.4,-67 29.1,-55.8 C29,-55.7 23.8,-50.4 21.7,-48.7 C12.6,-40.2 0,-28.1 0,-8.1 C0,10.6 16.3,25.3 34.9,25.3 C37.8,25.3 40.5,25 42.8,24.6 C44.7,34.2 45.8,41.2 45.8,46.5 C45.8,56.9 40.5,62.4 30.4,62.4 C28,62.4 25.9,61.9 25.7,61.9 C25.6,61.8 25.4,61.7 25.4,61.6 C25.4,61.4 25.6,61.3 25.9,61.2 C30.6,60.5 35.3,56.5 35.3,50.1 C35.3,44.7 31.2,39 23.7,39 C16.7,39 12.2,44.7 12.2,51.3"/>
<path class="KeySig" transform="matrix(0.992001,0,0,0.992001,313.271,683.798)" d="M20.1,-7.9 C19.5,-11.8 17.1,-15.5 12,-15.5 C7,-15.5 4.1,-12.4 3.6,-11.8 L4,-43.9 C4,-44.7 3.4,-45.3 2.6,-45.3 L1.4,-45.3 C0.6,-45.3 0,-44.7 0,-43.9 L0.5,16.2 C0.5,17 1.1,17.6 1.9,17.6 C2.1,17.6 2.5,17.5 2.7,17.4 C3.1,17.2 9.6,14 15,7.9 C18.8,3.6 20.3,-1.3 20.3,-5.4 C20.3,-6.3 20.2,-7.1 20.1,-7.9 M13.2,-4 C13.2,-2.5 12.8,2.1 10.3,5.9 C8.6,8.5 5.2,11.2 3.3,12.7 L3.6,-6.8 C3.8,-7.7 5.3,-10.6 9.3,-10.6 C12.9,-10.6 13.2,-7.2 13.2,-5.1 C13.2,-4.6 13.2,-4.3 13.2,-4"/>
<path class="KeySig" transform="matrix(0.992001,0,0,0.992001,340.846,646.598)" d="M20.1,-7.9 C19.5,-11.8 17.1,-15.5 12,-15.5 C7,-15.5 4.1,-12.4 3.6,-11.8 L4,-43.9 C4,-44.7 3.4,-45.3 2.6,-45.3 L1.4,-45.3 C0.6,-45.3 0,-44.7 0,-43.9 L0.5,16.2 C0.5,17 1.1,17.6 1.9,17.6 C2.1,17.6 2.5,17.5 2.7,17.4 C3.1,17.2 9.6,14 15,7.9 C18.8,3.6 20.3,-1.3 20.3,-5.4 C20.3,-6.3 20.2,-7.1 20.1,-7.9 M13.2,-4 C13.2,-2.5 12.8,2.1 10.3,5.9 C8.6,8.5 5.2,11.2 3.3,12.7 L3.6,-6.8 C3.8,-7.7 5.3,-10.6 9.3,-10.6 C12.9,-10.6 13.2,-7.2 13.2,-5.1 C13.2,-4.6 13.2,-4.3 13.2,-4"/>
<path class="KeySig" transform="matrix(0.992001,0,0,0.992001,368.42,696.198)" d="M20.1,-7.9 C19.5,-11.8 17.1,-15.5 12,-15.5 C7,-15.5 4.1,-12.4 3.6,-11.8 L4,-43.9 C4,-44.7 3.4,-45.3 2.6,-45.3 L1.4,-45.3 C0.6,-45.3 0,-44.7 0,-43.9 L0.5,16.2 C0.5,17 1.1,17.6 1.9,17.6 C2.1,17.6 2.5,17.5 2.7,17.4 C3.1,17.2 9.6,14 15,7.9 C18.8,3.6 20.3,-1.3 20.3,-5.4 C20.3,-6.3 20.2,-7.1 20.1,-7.9 M13.2,-4 C13.2,-2.5 12.8,2.1 10.3,5.9 C8.6,8.5 5.2,11.2 3.3,12.7 L3.6,-6.8 C3.8,-7.7 5.3,-10.6 9.3,-10.6 C12.9,-10.6 13.2,-7.2 13.2,-5.1 C13.2,-4.6 13.2,-4.3 13.2,-4"/>
<path class="KeySig" transform="matrix(0.992001,0,0,0.992001,313.271,1365.8)" d="M20.1,-7.9 C19.5,-11.8 17.1,-15.5 12,-15.5 C7,-15.5 4.1,-12.4 3.6,-11.8 L4,-43.9 C4,-44.7 3.4,-45.3 2.6,-45.3 L1.4,-45.3 C0.6,-45.3 0,-44.7 0,-43.9 L0.5,16.2 C0.5,17 1.1,17.6 1.9,17.6 C2.1,17.6 2.5,17.5 2.7,17.4 C3.1,17.2 9.6,14 15,7.9 C18.8,3.6 20.3,-1.3 20.3,-5.4 C20.3,-6.3 20.2,-7.1 20.1,-7.9 M13.2,-4 C13.2,-2.5 12.8,2.1 10.3,5.9 C8.6,8.5 5.2,11.2 3.3,12.7 L3.6,-6.8 C3.8,-7.7 5.3,-10.6 9.3,-10.6 C12.9,-10.6 13.2,-7.2 13.2,-5.1 C13.2,-4.6 13.2,-4.3 13.2,-4"/>
<path class="KeySig" transform="matrix(0.992001,0,0,0.992001,340.846,1328.6)" d="M20.1,-7.9 C19.5,-11.8 17.1,-15.5 12,-15.5 C7,-15.5 4.1,-12.4 3.6,-11.8 L4,-43.9 C4,-44.7 3.4,-45.3 2.6,-45.3 L1.4,-45.3 C0.6,-45.3 0,-44.7 0,-43.9 L0.5,16.2 C0.5,17 1.1,17.6 1.9,17.6 C2.1,17.6 2.5,17.5 2.7,17.4 C3.1,17.2 9.6,14 15,7.9 C18.8,3.6 20.3,-1.3 20.3,-5.4 C20.3,-6.3 20.2,-7.1 20.1,-7.9 M13.2,-4 C13.2,-2.5 12.8,2.1 10.3,5.9 C8.6,8.5 5.2,11.2 3.3,12.7 L3.6,-6.8 C3.8,-7.7 5.3,-10.6 9.3,-10.6 C12.9,-10.6 13.2,-7.2 13.2,-5.1 C13.2,-4.6 13.2,-4.3 13.2,-4"/>
<path class="KeySig" transform="matrix(0.992001,0,0,0.992001,368.42,1378.2)" d="M20.1,-7.9 C19.5,-11.8 17.1,-15.5 12,-15.5 C7,-15.5 4.1,-12.4 3.6,-11.8 L4,-43.9 C4,-44.7 3.4,-45.3 2.6,-45.3 L1.4,-45.3 C0.6,-45.3 0,-44.7 0,-43.9 L0.5,16.2 C0.5,17 1.1,17.6 1.9,17.6 C2.1,17.6 2.5,17.5 2.7,17.4 C3.1,17.2 9.6,14 15,7.9 C18.8,3.6 20.3,-1.3 20.3,-5.4 C20.3,-6.3 20.2,-7.1 20.1,-7.9 M13.2,-4 C13.2,-2.5 12.8,2.1 10.3,5.9 C8.6,8.5 5.2,11.2 3.3,12.7 L3.6,-6.8 C3.8,-7.7 5.3,-10.6 9.3,-10.6 C12.9,-10.6 13.2,-7.2 13.2,-5.1 C13.2,-4.6 13.2,-4.3 13.2,-4"/>
<path class="TimeSig" transform="matrix(0.992001,0,0,0.992001,412.177,659.494)" d="M24.7,-4.8 C18.6,-4.8 16.4,-3 15,-1.5 C14.7,-3.6 14.5,-5.2 14.5,-6.8 C14.5,-8.4 14.7,-9.8 15,-11.6 C15.6,-15.3 18.1,-19.9 23.5,-19.9 C26,-19.9 27.5,-19.1 28.5,-18 C26.4,-17.1 24.7,-14.4 24.7,-12.1 C24.7,-8.5 27.5,-5.7 31.1,-5.7 C34.7,-5.7 37.6,-8.5 37.6,-12.1 L37.6,-12.3 C37.6,-12.3 37.6,-12.3 37.6,-12.4 C37.6,-13.3 37.4,-14.8 37,-15.6 C35.7,-19.2 31.5,-24.5 21.5,-24.5 C12.5,-24.5 6,-15.9 4,-11.3 C3,-8.9 1.5,-4 1.5,1.6 C1.5,7.7 3.2,14.6 9.1,19.8 C14.9,24.2 18.6,24.4 22.1,24.4 C25.6,24.4 38.7,20.3 38.7,8.7 C38.7,-1.1 31,-4.8 24.7,-4.8 M21,20.2 C17.7,20.2 15,15.7 15,10.1 C15,4.5 17.7,-0.1 21,-0.1 C24.3,-0.1 27.1,4.5 27.1,10.1 C27.1,15.7 24.3,20.2 21,20.2"/>
<path class="TimeSig" transform="matrix(0.992001,0,0,0.992001,411.882,708.35)" d="M32.4,-1.8 C35.7,-4.3 38,-7.5 38,-11.5 C38,-18.7 30.1,-24.6 20.4,-24.6 C10.7,-24.6 2.8,-18.7 2.8,-11.5 C2.8,-7.5 3.8,-3.9 8.5,-0.9 C4,1.7 1.5,5.4 1.5,10.2 C1.5,18.3 10,24.8 20.4,24.8 C30.8,24.8 39.3,18.3 39.3,10.2 C39.3,5.4 37.6,0.9 32.4,-1.8 M20.4,19.2 C14,19.2 8.5,15.7 8.5,10.1 C8.5,3.4 13.7,1.8 13.7,1.8 C20.5,4.1 30.2,7.5 30.2,13 C30.2,15.7 26.7,19.2 20.4,19.2 M26.8,-4.5 C20,-6.7 12.5,-10 12.5,-14.5 C12.5,-18.4 16.1,-20 20.4,-20 C26.6,-20 30.8,-17.1 30.8,-12.5 C30.8,-7.7 28.6,-5.4 26.8,-4.5"/>
<path class="Rest" transform="matrix(0.992001,0,0,0.992001,2569.66,683.798)" d="M26.7,-20.3 C26.6,-20.3 26.4,-20.4 26.3,-20.4 C25.7,-20.4 25.2,-20.1 25,-19.6 C24.6,-19 21.5,-13.1 17,-9.8 C15.7,-8.8 14.1,-8.1 12.5,-7.8 C13.6,-9.1 14.3,-10.7 14.3,-12.6 C14.3,-16.5 11.1,-19.7 7.2,-19.7 C3.2,-19.7 0,-16.5 0,-12.6 C0,-9.5 1.9,-7 4.5,-5.9 C6,-5.2 8,-4.7 10,-4.7 C12.9,-4.7 16,-5.6 18.7,-7.6 C19.9,-8.5 21.1,-9.7 22.2,-10.9 L10.8,24.7 L13.5,25.5 L27.5,-18.6 C27.6,-18.7 27.6,-18.9 27.6,-19.1 C27.6,-19.6 27.3,-20 26.7,-20.3"/>
<path class="Rest" transform="matrix(0.992001,0,0,0.992001,2641.3,1365.8)" d="M26.7,-20.3 C26.6,-20.3 26.4,-20.4 26.3,-20.4 C25.7,-20.4 25.2,-20.1 25,-19.6 C24.6,-19 21.5,-13.1 17,-9.8 C15.7,-8.8 14.1,-8.1 12.5,-7.8 C13.6,-9.1 14.3,-10.7 14.3,-12.6 C14.3,-16.5 11.1,-19.7 7.2,-19.7 C3.2,-19.7 0,-16.5 0,-12.6 C0,-9.5 1.9,-7 4.5,-5.9 C6,-5.2 8,-4.7 10,-4.7 C12.9,-4.7 16,-5.6 18.7,-7.6 C19.9,-8.5 21.1,-9.7 22.2,-10.9 L10.8,24.7 L13.5,25.5 L27.5,-18.6 C27.6,-18.7 27.6,-18.9 27.6,-19.1 C27.6,-19.6 27.3,-20 26.7,-20.3"/>
<path class="Beam" fill-rule="evenodd" d="M1695.87,789.199 L1885.62,789.199 L1885.62,801.599 L1695.87,801.599 L1695.87,789.199 "/>
<path class="Beam" fill-rule="evenodd" d="M1819.08,770.599 L1791.8,770.599 L1791.8,782.999 L1819.08,782.999 L1819.08,770.599 "/>
<path class="Beam" fill-rule="evenodd" d="M1023.47,1421.6 L1229.44,1427.8 L1229.44,1440.2 L1023.47,1434 L1023.47,1421.6 "/>
<path class="Beam" fill-rule="evenodd" d="M1159.31,1407.09 L1132.03,1406.26 L1132.03,1418.67 L1159.31,1419.49 L1159.31,1407.09 "/>
<path class="Beam" fill-rule="evenodd" d="M1142.84,720.985 L1329.54,733.385 L1329.54,745.812 L1142.84,733.412 L1142.84,720.985 "/>
<path class="Beam" fill-rule="evenodd" d="M1266.05,710.568 L1238.77,708.756 L1238.77,721.183 L1266.05,722.995 L1266.05,710.568 "/>
<path class="Beam" fill-rule="evenodd" d="M1660.36,1359.6 L1866.34,1353.4 L1866.34,1365.8 L1660.36,1372 L1660.36,1359.6 "/>
<path class="Beam" fill-rule="evenodd" d="M1796.2,1374.11 L1768.92,1374.93 L1768.92,1387.33 L1796.2,1386.51 L1796.2,1374.11 "/>
<path class="Beam" fill-rule="evenodd" d="M1978.38,789.199 L2165.09,789.199 L2165.09,801.599 L1978.38,801.599 L1978.38,789.199 "/>
<path class="Beam" fill-rule="evenodd" d="M2101.6,770.599 L2074.32,770.599 L2074.32,782.999 L2101.6,782.999 L2101.6,770.599 "/>
<path class="Beam" fill-rule="evenodd" d="M1969.05,1341 L2175.03,1334.8 L2175.03,1347.2 L1969.05,1353.4 L1969.05,1341 "/>
<path class="Beam" fill-rule="evenodd" d="M2104.89,1355.51 L2077.61,1356.33 L2077.61,1368.73 L2104.89,1367.91 L2104.89,1355.51 "/>
<path class="Tempo" d="M437.128,528.762 L433.861,528.762 L433.861,571.035 C432.772,570.342 431.386,569.946 429.802,569.748 C426.238,569.748 423.367,570.144 420.199,571.926 C416.239,574.005 411.883,578.361 411.883,583.212 C411.883,584.301 412.081,585.39 412.675,586.38 C413.962,588.855 417.031,590.241 420.496,590.241 C427.426,590.241 437.128,584.301 437.128,576.777 L437.128,528.762 "/>
<path class="Tempo" d="M459.38,566.718 L489.62,566.718 L489.62,559.818 L459.38,559.818 L459.38,566.718 M459.38,579.078 L489.62,579.078 L489.62,572.178 L459.38,572.178 L459.38,579.078 M522.018,562.938 C522.018,557.958 523.098,545.238 529.938,545.238 C531.438,545.238 532.518,545.778 532.518,546.618 C532.518,547.038 532.458,547.218 532.038,547.758 C531.258,548.778 530.838,550.098 530.838,551.298 C530.838,553.998 532.998,555.918 536.118,555.918 C539.538,555.918 541.698,553.818 541.698,550.518 C541.698,545.358 537.318,542.118 530.478,542.118 C524.718,542.118 520.278,544.338 516.798,548.958 C513.258,553.578 511.638,559.098 511.638,566.238 C511.638,572.238 512.898,576.498 515.718,579.978 C518.658,583.578 522.678,585.438 527.598,585.438 C536.418,585.438 542.838,579.498 542.838,571.218 C542.838,564.018 537.918,558.978 530.778,558.978 C526.878,558.978 524.538,560.058 522.018,562.938 M527.658,563.478 C530.778,563.598 532.398,566.478 532.398,571.878 C532.398,578.838 530.658,582.618 527.478,582.618 C524.238,582.618 522.378,579.138 522.378,572.958 C522.378,570.798 522.558,568.938 522.858,567.558 C523.518,564.978 525.378,563.358 527.658,563.478 M561.555,542.118 C552.555,542.118 545.955,551.298 545.955,563.778 C545.955,576.258 552.555,585.438 561.555,585.438 C570.375,585.438 577.095,576.258 577.095,564.078 C577.095,556.998 575.475,551.778 571.935,547.338 C569.115,543.918 565.575,542.118 561.555,542.118 M561.495,545.238 C563.295,545.238 564.735,546.318 565.395,548.238 C566.175,550.218 566.655,556.518 566.655,563.958 C566.655,570.138 566.175,576.618 565.635,578.658 C564.975,581.058 563.535,582.318 561.495,582.318 C559.635,582.318 558.255,581.298 557.535,579.318 C556.755,577.338 556.275,570.978 556.275,563.778 C556.275,557.478 556.755,550.938 557.295,548.898 C557.955,546.498 559.395,545.238 561.495,545.238"/>
<path class="Harmony" d="M1452.71,535.748 L1450.81,535.748 L1448.86,538.748 C1445.61,536.198 1443.41,535.348 1439.76,535.348 C1435.81,535.348 1432.71,536.448 1429.56,538.998 C1424.61,542.998 1422.31,548.048 1422.31,554.798 C1422.31,559.898 1423.76,564.148 1426.71,567.398 C1429.81,570.898 1434.41,572.948 1439.21,572.948 C1443.41,572.948 1446.36,571.648 1449.61,568.398 L1451.46,572.898 L1453.56,572.898 L1453.56,561.898 C1453.56,559.348 1453.56,559.248 1453.86,558.798 C1454.31,558.248 1455.21,558.098 1458.06,558.098 L1458.81,558.098 L1458.81,555.748 L1442.91,555.748 L1442.91,558.098 L1443.86,558.098 C1448.06,558.098 1448.41,558.348 1448.41,561.148 C1448.41,563.298 1448.06,565.248 1447.41,566.448 C1446.16,568.898 1442.96,570.598 1439.71,570.598 C1436.46,570.598 1433.26,568.948 1431.56,566.448 C1429.71,563.648 1428.91,560.148 1428.91,554.798 C1428.91,543.648 1432.61,537.698 1439.56,537.698 C1445.26,537.698 1449.21,541.798 1451.26,549.798 L1453.41,549.798 L1452.71,535.748 "/>
<path class="Harmony" d="M1471.6,548.898 L1462.7,549.448 L1462.7,551.598 L1464.75,551.598 C1466.65,551.648 1466.9,551.948 1466.9,554.098 L1466.9,568.398 C1466.85,569.148 1466.8,569.448 1466.6,569.698 C1466.25,570.148 1465.3,570.348 1463.15,570.398 L1462.95,570.398 L1462.95,572.198 L1475.55,572.198 L1475.55,570.398 L1475.35,570.398 C1472.05,570.298 1471.6,570.048 1471.6,568.198 L1471.6,558.948 C1471.6,554.498 1474.05,551.198 1477.3,551.198 C1480.15,551.198 1481.6,553.248 1481.6,557.298 L1481.6,568.448 C1481.55,569.098 1481.5,569.448 1481.25,569.698 C1480.95,570.148 1479.95,570.348 1477.8,570.398 L1477.6,570.398 L1477.6,572.198 L1490.25,572.198 L1490.25,570.398 L1490.05,570.398 C1486.75,570.298 1486.3,570.048 1486.3,568.248 L1486.3,559.398 C1486.3,554.398 1488.55,551.198 1492.05,551.198 C1494.9,551.198 1496.3,553.348 1496.3,557.848 L1496.3,568.398 C1496.25,569.098 1496.2,569.448 1495.95,569.698 C1495.65,570.148 1494.65,570.348 1492.5,570.398 L1492.3,570.398 L1492.3,572.198 L1504.95,572.198 L1504.95,570.398 L1504.75,570.398 C1501.45,570.298 1501,570.048 1501,568.198 L1501,556.848 C1501,553.748 1500.7,552.698 1499.4,550.998 C1497.95,549.148 1495.9,548.148 1493.5,548.148 C1490.25,548.148 1487.85,549.698 1485.7,553.148 C1484.85,550.148 1482.15,548.148 1478.8,548.148 C1475.75,548.148 1473.55,549.598 1471.6,552.748 L1471.6,548.898 "/>
<path class="Harmony" d="M1517.21,540.319 L1503.86,577.819 L1506.76,577.819 L1520.11,540.319 L1517.21,540.319 "/>
<path class="Harmony" d="M1521.38,545.939 L1521.38,548.289 L1522.28,548.289 C1525.13,548.339 1526.08,548.489 1526.48,548.989 C1526.78,549.439 1526.78,549.539 1526.78,552.089 L1526.78,575.889 C1526.78,578.439 1526.78,578.539 1526.48,578.989 C1526.08,579.489 1525.13,579.689 1522.28,579.689 L1521.38,579.689 L1521.38,582.039 L1539.53,582.039 C1548.18,582.039 1553.38,578.389 1553.38,572.239 C1553.38,567.239 1550.23,564.389 1543.38,563.189 C1545.78,562.689 1546.88,562.239 1548.18,561.289 C1550.23,559.739 1551.48,557.289 1551.48,554.789 C1551.48,551.539 1549.48,548.389 1546.58,547.139 C1544.78,546.339 1542.28,545.939 1539.33,545.939 L1521.38,545.939 M1532.38,562.189 L1532.38,550.789 C1532.38,548.839 1533.03,548.339 1535.68,548.289 L1537.68,548.289 C1542.58,548.289 1545.68,549.889 1545.68,555.339 C1545.68,560.289 1543.28,562.189 1536.83,562.189 L1532.38,562.189 M1532.38,564.539 L1536.78,564.539 C1544.43,564.539 1547.23,566.589 1547.23,572.089 C1547.23,578.789 1543.03,579.689 1537.38,579.689 L1535.28,579.689 C1532.78,579.689 1532.28,579.189 1532.38,576.539 L1532.38,564.539 "/>
<path class="Harmony" d="M1561.28,584.339 C1562.78,584.339 1568.43,581.139 1571.58,577.839 C1574.13,575.089 1574.83,571.389 1574.83,568.839 C1574.83,564.839 1572.33,561.989 1568.28,561.989 C1566.13,561.989 1564.23,562.689 1562.63,564.089 L1562.88,543.489 C1562.88,542.839 1562.33,542.339 1561.68,542.339 L1560.93,542.339 C1560.33,542.339 1559.73,542.839 1559.73,543.489 L1560.13,583.189 C1560.13,583.839 1560.63,584.339 1561.28,584.339 M1566.83,565.739 C1569.68,565.739 1570.03,568.689 1570.03,569.839 C1570.03,574.389 1566.28,577.589 1562.93,580.039 C1562.78,580.139 1562.63,580.239 1562.48,580.389 L1562.58,568.039 C1562.68,567.789 1563.08,567.239 1563.83,566.739 C1564.43,566.289 1565.58,565.739 1566.83,565.739"/>
<path class="Harmony" d="M660.869,535.748 L658.969,535.748 L656.969,538.698 C653.319,536.048 651.469,535.348 648.019,535.348 C643.269,535.348 639.219,537.348 635.869,541.348 C632.669,545.148 631.169,549.348 631.169,554.498 C631.169,565.298 638.219,572.948 648.069,572.948 C656.069,572.948 661.169,568.248 662.319,559.848 L659.969,559.448 C658.619,566.898 654.819,570.598 648.669,570.598 C641.269,570.598 637.769,565.498 637.769,554.698 C637.769,548.998 638.519,545.248 640.219,542.248 C641.769,539.448 644.819,537.698 648.069,537.698 C651.569,537.698 654.669,539.548 656.569,542.748 C657.519,544.398 658.219,546.248 659.419,550.198 L661.619,550.198 L660.869,535.748 "/>
<path class="Harmony" d="M677.516,548.898 L668.616,549.448 L668.616,551.598 L670.666,551.598 C672.566,551.648 672.816,551.948 672.816,554.098 L672.816,568.398 C672.766,569.148 672.716,569.448 672.516,569.698 C672.166,570.148 671.216,570.348 669.066,570.398 L668.866,570.398 L668.866,572.198 L681.466,572.198 L681.466,570.398 L681.266,570.398 C677.966,570.298 677.516,570.048 677.516,568.198 L677.516,558.948 C677.516,554.498 679.966,551.198 683.216,551.198 C686.066,551.198 687.516,553.248 687.516,557.298 L687.516,568.448 C687.466,569.098 687.416,569.448 687.166,569.698 C686.866,570.148 685.866,570.348 683.716,570.398 L683.516,570.398 L683.516,572.198 L696.166,572.198 L696.166,570.398 L695.966,570.398 C692.666,570.298 692.216,570.048 692.216,568.248 L692.216,559.398 C692.216,554.398 694.466,551.198 697.966,551.198 C700.816,551.198 702.216,553.348 702.216,557.848 L702.216,568.398 C702.166,569.098 702.116,569.448 701.866,569.698 C701.566,570.148 700.566,570.348 698.416,570.398 L698.216,570.398 L698.216,572.198 L710.866,572.198 L710.866,570.398 L710.666,570.398 C707.366,570.298 706.916,570.048 706.916,568.198 L706.916,556.848 C706.916,553.748 706.616,552.698 705.316,550.998 C703.866,549.148 701.816,548.148 699.416,548.148 C696.166,548.148 693.766,549.698 691.616,553.148 C690.766,550.148 688.066,548.148 684.716,548.148 C681.666,548.148 679.466,549.598 677.516,552.748 L677.516,548.898 "/>
<path class="Harmony" d="M1834.12,1254.2 L1850.92,1254.2 C1855.37,1254.2 1858.77,1253.5 1861.42,1252 C1866.47,1249.15 1869.27,1243.45 1869.27,1235.95 C1869.27,1229.05 1866.77,1223.65 1862.17,1220.65 C1859.42,1218.9 1855.72,1218.1 1850.02,1218.1 L1834.12,1218.1 L1834.12,1220.45 L1835.07,1220.45 C1837.87,1220.5 1838.82,1220.65 1839.22,1221.15 C1839.52,1221.6 1839.52,1221.7 1839.52,1224.25 L1839.52,1248.05 C1839.52,1250.6 1839.52,1250.7 1839.22,1251.15 C1838.82,1251.65 1837.87,1251.8 1835.07,1251.85 L1834.12,1251.85 L1834.12,1254.2 M1847.97,1251.85 C1845.42,1251.85 1845.12,1251.55 1845.12,1249.1 L1845.12,1223.25 C1845.12,1220.8 1845.47,1220.45 1847.97,1220.45 L1850.57,1220.45 C1859.12,1220.45 1862.67,1225.1 1862.67,1236.15 C1862.67,1247.35 1859.47,1251.85 1851.37,1251.85 L1847.97,1251.85 "/>
<path class="Harmony" d="M1876.97,1231.1 L1879.17,1231.45 L1880.07,1227.5 C1880.82,1224.2 1881.17,1223.7 1882.62,1223.7 C1882.87,1223.7 1883.27,1223.7 1883.72,1223.75 C1889.87,1224.05 1889.87,1224.05 1892.17,1224.05 C1892.82,1224.05 1893.97,1224.05 1895.37,1224 L1891.97,1230.85 C1888.27,1238.2 1887.82,1239.1 1886.57,1242.2 C1885.02,1245.95 1884.22,1249.1 1884.22,1251.2 C1884.22,1253.5 1885.42,1254.9 1887.37,1254.9 C1889.77,1254.9 1890.72,1253.3 1890.67,1248.95 C1890.42,1241.75 1891.32,1238.25 1896.67,1226.55 C1897.57,1224.6 1898.52,1222.6 1899.42,1220.65 L1899.42,1219.2 C1896.42,1219.45 1894.82,1219.55 1891.72,1219.55 C1887.37,1219.55 1883.92,1219.4 1878.52,1219 L1876.97,1231.1 "/>
<path class="Harmony" d="M2504.82,535.748 L2502.92,535.748 L2500.97,538.748 C2497.72,536.198 2495.52,535.348 2491.87,535.348 C2487.92,535.348 2484.82,536.448 2481.67,538.998 C2476.72,542.998 2474.42,548.048 2474.42,554.798 C2474.42,559.898 2475.87,564.148 2478.82,567.398 C2481.92,570.898 2486.52,572.948 2491.32,572.948 C2495.52,572.948 2498.47,571.648 2501.72,568.398 L2503.57,572.898 L2505.67,572.898 L2505.67,561.898 C2505.67,559.348 2505.67,559.248 2505.97,558.798 C2506.42,558.248 2507.32,558.098 2510.17,558.098 L2510.92,558.098 L2510.92,555.748 L2495.02,555.748 L2495.02,558.098 L2495.97,558.098 C2500.17,558.098 2500.52,558.348 2500.52,561.148 C2500.52,563.298 2500.17,565.248 2499.52,566.448 C2498.27,568.898 2495.07,570.598 2491.82,570.598 C2488.57,570.598 2485.37,568.948 2483.67,566.448 C2481.82,563.648 2481.02,560.148 2481.02,554.798 C2481.02,543.648 2484.72,537.698 2491.67,537.698 C2497.37,537.698 2501.32,541.798 2503.37,549.798 L2505.52,549.798 L2504.82,535.748 "/>
<path class="Harmony" d="M480.255,1217.75 L478.355,1217.75 L476.355,1220.7 C472.705,1218.05 470.855,1217.35 467.405,1217.35 C462.655,1217.35 458.605,1219.35 455.255,1223.35 C452.055,1227.15 450.555,1231.35 450.555,1236.5 C450.555,1247.3 457.605,1254.95 467.455,1254.95 C475.455,1254.95 480.555,1250.25 481.705,1241.85 L479.355,1241.45 C478.005,1248.9 474.205,1252.6 468.055,1252.6 C460.655,1252.6 457.155,1247.5 457.155,1236.7 C457.155,1231 457.905,1227.25 459.605,1224.25 C461.155,1221.45 464.205,1219.7 467.455,1219.7 C470.955,1219.7 474.055,1221.55 475.955,1224.75 C476.905,1226.4 477.605,1228.25 478.805,1232.2 L481.005,1232.2 L480.255,1217.75 "/>
<path class="Harmony" d="M496.902,1230.9 L488.002,1231.45 L488.002,1233.6 L490.052,1233.6 C491.952,1233.65 492.202,1233.95 492.202,1236.1 L492.202,1250.4 C492.152,1251.15 492.102,1251.45 491.902,1251.7 C491.552,1252.15 490.602,1252.35 488.452,1252.4 L488.252,1252.4 L488.252,1254.2 L500.852,1254.2 L500.852,1252.4 L500.652,1252.4 C497.352,1252.3 496.902,1252.05 496.902,1250.2 L496.902,1240.95 C496.902,1236.5 499.352,1233.2 502.602,1233.2 C505.452,1233.2 506.902,1235.25 506.902,1239.3 L506.902,1250.45 C506.852,1251.1 506.802,1251.45 506.552,1251.7 C506.252,1252.15 505.252,1252.35 503.102,1252.4 L502.902,1252.4 L502.902,1254.2 L515.552,1254.2 L515.552,1252.4 L515.352,1252.4 C512.052,1252.3 511.602,1252.05 511.602,1250.25 L511.602,1241.4 C511.602,1236.4 513.852,1233.2 517.352,1233.2 C520.202,1233.2 521.602,1235.35 521.602,1239.85 L521.602,1250.4 C521.552,1251.1 521.502,1251.45 521.252,1251.7 C520.952,1252.15 519.952,1252.35 517.802,1252.4 L517.602,1252.4 L517.602,1254.2 L530.252,1254.2 L530.252,1252.4 L530.052,1252.4 C526.752,1252.3 526.302,1252.05 526.302,1250.2 L526.302,1238.85 C526.302,1235.75 526.002,1234.7 524.702,1233 C523.252,1231.15 521.202,1230.15 518.802,1230.15 C515.552,1230.15 513.152,1231.7 511.002,1235.15 C510.152,1232.15 507.452,1230.15 504.102,1230.15 C501.052,1230.15 498.852,1231.6 496.902,1234.75 L496.902,1230.9 "/>
<path class="Harmony" d="M743.252,1217.75 L741.352,1217.75 L739.352,1220.7 C735.702,1218.05 733.852,1217.35 730.402,1217.35 C725.652,1217.35 721.602,1219.35 718.252,1223.35 C715.052,1227.15 713.552,1231.35 713.552,1236.5 C713.552,1247.3 720.602,1254.95 730.452,1254.95 C738.452,1254.95 743.552,1250.25 744.702,1241.85 L742.352,1241.45 C741.002,1248.9 737.202,1252.6 731.052,1252.6 C723.652,1252.6 720.152,1247.5 720.152,1236.7 C720.152,1231 720.902,1227.25 722.602,1224.25 C724.152,1221.45 727.202,1219.7 730.452,1219.7 C733.952,1219.7 737.052,1221.55 738.952,1224.75 C739.902,1226.4 740.602,1228.25 741.802,1232.2 L744.002,1232.2 L743.252,1217.75 "/>
<path class="Harmony" d="M759.899,1230.9 L750.999,1231.45 L750.999,1233.6 L753.049,1233.6 C754.949,1233.65 755.199,1233.95 755.199,1236.1 L755.199,1250.4 C755.149,1251.15 755.099,1251.45 754.899,1251.7 C754.549,1252.15 753.599,1252.35 751.449,1252.4 L751.249,1252.4 L751.249,1254.2 L763.849,1254.2 L763.849,1252.4 L763.649,1252.4 C760.349,1252.3 759.899,1252.05 759.899,1250.2 L759.899,1240.95 C759.899,1236.5 762.349,1233.2 765.599,1233.2 C768.449,1233.2 769.899,1235.25 769.899,1239.3 L769.899,1250.45 C769.849,1251.1 769.799,1251.45 769.549,1251.7 C769.249,1252.15 768.249,1252.35 766.099,1252.4 L765.899,1252.4 L765.899,1254.2 L778.549,1254.2 L778.549,1252.4 L778.349,1252.4 C775.049,1252.3 774.599,1252.05 774.599,1250.25 L774.599,1241.4 C774.599,1236.4 776.849,1233.2 780.349,1233.2 C783.199,1233.2 784.599,1235.35 784.599,1239.85 L784.599,1250.4 C784.549,1251.1 784.499,1251.45 784.249,1251.7 C783.949,1252.15 782.949,1252.35 780.799,1252.4 L780.599,1252.4 L780.599,1254.2 L793.249,1254.2 L793.249,1252.4 L793.049,1252.4 C789.749,1252.3 789.299,1252.05 789.299,1250.2 L789.299,1238.85 C789.299,1235.75 788.999,1234.7 787.699,1233 C786.249,1231.15 784.199,1230.15 781.799,1230.15 C778.549,1230.15 776.149,1231.7 773.999,1235.15 C773.149,1232.15 770.449,1230.15 767.099,1230.15 C764.049,1230.15 761.849,1231.6 759.899,1234.75 L759.899,1230.9 "/>
<path class="Harmony" d="M1969.72,1217.75 L1967.82,1217.75 L1965.87,1220.75 C1962.62,1218.2 1960.42,1217.35 1956.77,1217.35 C1952.82,1217.35 1949.72,1218.45 1946.57,1221 C1941.62,1225 1939.32,1230.05 1939.32,1236.8 C1939.32,1241.9 1940.77,1246.15 1943.72,1249.4 C1946.82,1252.9 1951.42,1254.95 1956.22,1254.95 C1960.42,1254.95 1963.37,1253.65 1966.62,1250.4 L1968.47,1254.9 L1970.57,1254.9 L1970.57,1243.9 C1970.57,1241.35 1970.57,1241.25 1970.87,1240.8 C1971.32,1240.25 1972.22,1240.1 1975.07,1240.1 L1975.82,1240.1 L1975.82,1237.75 L1959.92,1237.75 L1959.92,1240.1 L1960.87,1240.1 C1965.07,1240.1 1965.42,1240.35 1965.42,1243.15 C1965.42,1245.3 1965.07,1247.25 1964.42,1248.45 C1963.17,1250.9 1959.97,1252.6 1956.72,1252.6 C1953.47,1252.6 1950.27,1250.95 1948.57,1248.45 C1946.72,1245.65 1945.92,1242.15 1945.92,1236.8 C1945.92,1225.65 1949.62,1219.7 1956.57,1219.7 C1962.27,1219.7 1966.22,1223.8 1968.27,1231.8 L1970.42,1231.8 L1969.72,1217.75 "/>
<path class="Harmony" d="M1981.51,1231.1 L1983.71,1231.45 L1984.61,1227.5 C1985.36,1224.2 1985.71,1223.7 1987.16,1223.7 C1987.41,1223.7 1987.81,1223.7 1988.26,1223.75 C1994.41,1224.05 1994.41,1224.05 1996.71,1224.05 C1997.36,1224.05 1998.51,1224.05 1999.91,1224 L1996.51,1230.85 C1992.81,1238.2 1992.36,1239.1 1991.11,1242.2 C1989.56,1245.95 1988.76,1249.1 1988.76,1251.2 C1988.76,1253.5 1989.96,1254.9 1991.91,1254.9 C1994.31,1254.9 1995.26,1253.3 1995.21,1248.95 C1994.96,1241.75 1995.86,1238.25 2001.21,1226.55 C2002.11,1224.6 2003.06,1222.6 2003.96,1220.65 L2003.96,1219.2 C2000.96,1219.45 1999.36,1219.55 1996.26,1219.55 C1991.91,1219.55 1988.46,1219.4 1983.06,1219 L1981.51,1231.1 "/>
<path class="Harmony" d="M2323.72,535.748 L2321.82,535.748 L2319.87,538.748 C2316.62,536.198 2314.42,535.348 2310.77,535.348 C2306.82,535.348 2303.72,536.448 2300.57,538.998 C2295.62,542.998 2293.32,548.048 2293.32,554.798 C2293.32,559.898 2294.77,564.148 2297.72,567.398 C2300.82,570.898 2305.42,572.948 2310.22,572.948 C2314.42,572.948 2317.37,571.648 2320.62,568.398 L2322.47,572.898 L2324.57,572.898 L2324.57,561.898 C2324.57,559.348 2324.57,559.248 2324.87,558.798 C2325.32,558.248 2326.22,558.098 2329.07,558.098 L2329.82,558.098 L2329.82,555.748 L2313.92,555.748 L2313.92,558.098 L2314.87,558.098 C2319.07,558.098 2319.42,558.348 2319.42,561.148 C2319.42,563.298 2319.07,565.248 2318.42,566.448 C2317.17,568.898 2313.97,570.598 2310.72,570.598 C2307.47,570.598 2304.27,568.948 2302.57,566.448 C2300.72,563.648 2299.92,560.148 2299.92,554.798 C2299.92,543.648 2303.62,537.698 2310.57,537.698 C2316.27,537.698 2320.22,541.798 2322.27,549.798 L2324.42,549.798 L2323.72,535.748 "/>
<path class="Harmony" d="M1361.86,1217.75 L1359.96,1217.75 L1357.96,1220.7 C1354.31,1218.05 1352.46,1217.35 1349.01,1217.35 C1344.26,1217.35 1340.21,1219.35 1336.86,1223.35 C1333.66,1227.15 1332.16,1231.35 1332.16,1236.5 C1332.16,1247.3 1339.21,1254.95 1349.06,1254.95 C1357.06,1254.95 1362.16,1250.25 1363.31,1241.85 L1360.96,1241.45 C1359.61,1248.9 1355.81,1252.6 1349.66,1252.6 C1342.26,1252.6 1338.76,1247.5 1338.76,1236.7 C1338.76,1231 1339.51,1227.25 1341.21,1224.25 C1342.76,1221.45 1345.81,1219.7 1349.06,1219.7 C1352.56,1219.7 1355.66,1221.55 1357.56,1224.75 C1358.51,1226.4 1359.21,1228.25 1360.41,1232.2 L1362.61,1232.2 L1361.86,1217.75 "/>
<path class="Harmony" d="M1371.41,1231.1 L1373.61,1231.45 L1374.51,1227.5 C1375.26,1224.2 1375.61,1223.7 1377.06,1223.7 C1377.31,1223.7 1377.71,1223.7 1378.16,1223.75 C1384.31,1224.05 1384.31,1224.05 1386.61,1224.05 C1387.26,1224.05 1388.41,1224.05 1389.81,1224 L1386.41,1230.85 C1382.71,1238.2 1382.26,1239.1 1381.01,1242.2 C1379.46,1245.95 1378.66,1249.1 1378.66,1251.2 C1378.66,1253.5 1379.86,1254.9 1381.81,1254.9 C1384.21,1254.9 1385.16,1253.3 1385.11,1248.95 C1384.86,1241.75 1385.76,1238.25 1391.11,1226.55 C1392.01,1224.6 1392.96,1222.6 1393.86,1220.65 L1393.86,1219.2 C1390.86,1219.45 1389.26,1219.55 1386.16,1219.55 C1381.81,1219.55 1378.36,1219.4 1372.96,1219 L1371.41,1231.1 "/>
<path class="Harmony" d="M898.97,535.748 L897.07,535.748 L895.07,538.698 C891.42,536.048 889.57,535.348 886.12,535.348 C881.37,535.348 877.32,537.348 873.97,541.348 C870.77,545.148 869.27,549.348 869.27,554.498 C869.27,565.298 876.32,572.948 886.17,572.948 C894.17,572.948 899.27,568.248 900.42,559.848 L898.07,559.448 C896.72,566.898 892.92,570.598 886.77,570.598 C879.37,570.598 875.87,565.498 875.87,554.698 C875.87,548.998 876.62,545.248 878.32,542.248 C879.87,539.448 882.92,537.698 886.17,537.698 C889.67,537.698 892.77,539.548 894.67,542.748 C895.62,544.398 896.32,546.248 897.52,550.198 L899.72,550.198 L898.97,535.748 "/>
<path class="Harmony" d="M915.617,548.898 L906.717,549.448 L906.717,551.598 L908.767,551.598 C910.667,551.648 910.917,551.948 910.917,554.098 L910.917,568.398 C910.867,569.148 910.817,569.448 910.617,569.698 C910.267,570.148 909.317,570.348 907.167,570.398 L906.967,570.398 L906.967,572.198 L919.567,572.198 L919.567,570.398 L919.367,570.398 C916.067,570.298 915.617,570.048 915.617,568.198 L915.617,558.948 C915.617,554.498 918.067,551.198 921.317,551.198 C924.167,551.198 925.617,553.248 925.617,557.298 L925.617,568.448 C925.567,569.098 925.517,569.448 925.267,569.698 C924.967,570.148 923.967,570.348 921.817,570.398 L921.617,570.398 L921.617,572.198 L934.267,572.198 L934.267,570.398 L934.067,570.398 C930.767,570.298 930.317,570.048 930.317,568.248 L930.317,559.398 C930.317,554.398 932.567,551.198 936.067,551.198 C938.917,551.198 940.317,553.348 940.317,557.848 L940.317,568.398 C940.267,569.098 940.217,569.448 939.967,569.698 C939.667,570.148 938.667,570.348 936.517,570.398 L936.317,570.398 L936.317,572.198 L948.967,572.198 L948.967,570.398 L948.767,570.398 C945.467,570.298 945.017,570.048 945.017,568.198 L945.017,556.848 C945.017,553.748 944.717,552.698 943.417,550.998 C941.967,549.148 939.917,548.148 937.517,548.148 C934.267,548.148 931.867,549.698 929.717,553.148 C928.867,550.148 926.167,548.148 922.817,548.148 C919.767,548.148 917.567,549.598 915.617,552.748 L915.617,548.898 "/>
<path class="Harmony" d="M2192.37,536.098 L2162.62,536.098 L2162.62,538.448 L2163.52,538.448 C2166.37,538.498 2167.32,538.648 2167.72,539.148 C2168.02,539.598 2168.02,539.698 2168.02,542.248 L2168.02,566.048 C2168.02,568.598 2168.02,568.698 2167.72,569.148 C2167.32,569.648 2166.37,569.848 2163.52,569.848 L2162.62,569.848 L2162.62,572.198 L2179.77,572.198 L2179.77,569.848 L2178.12,569.848 C2175.27,569.848 2174.32,569.648 2173.92,569.148 C2173.62,568.698 2173.62,568.548 2173.62,566.048 L2173.62,554.698 L2174.62,554.698 C2179.77,554.498 2181.62,556.348 2181.82,561.898 L2184.17,561.898 L2184.17,545.498 L2181.82,545.498 C2181.52,550.398 2179.57,552.298 2174.82,552.348 L2173.62,552.348 L2173.62,540.948 C2173.57,538.848 2174.07,538.498 2176.77,538.448 L2179.07,538.448 C2187.27,538.398 2189.32,540.248 2190.87,548.848 L2193.07,548.848 L2192.37,536.098 "/>
<path class="Harmony" d="M2199.92,549.098 L2202.12,549.448 L2203.02,545.498 C2203.77,542.198 2204.12,541.698 2205.57,541.698 C2205.82,541.698 2206.22,541.698 2206.67,541.748 C2212.82,542.048 2212.82,542.048 2215.12,542.048 C2215.77,542.048 2216.92,542.048 2218.32,541.998 L2214.92,548.848 C2211.22,556.198 2210.77,557.098 2209.52,560.198 C2207.97,563.948 2207.17,567.098 2207.17,569.198 C2207.17,571.498 2208.37,572.898 2210.32,572.898 C2212.72,572.898 2213.67,571.298 2213.62,566.948 C2213.37,559.748 2214.27,556.248 2219.62,544.548 C2220.52,542.598 2221.47,540.598 2222.37,538.648 L2222.37,537.198 C2219.37,537.448 2217.77,537.548 2214.67,537.548 C2210.32,537.548 2206.87,537.398 2201.47,536.998 L2199.92,549.098 "/>
<path class="Harmony" d="M2008.45,536.098 L1978.4,536.098 L1978.4,538.448 L1979.3,538.448 C1982.15,538.498 1983.1,538.648 1983.5,539.148 C1983.8,539.598 1983.8,539.698 1983.8,542.248 L1983.8,566.048 C1983.8,568.598 1983.8,568.698 1983.5,569.148 C1983.1,569.648 1982.15,569.848 1979.3,569.848 L1978.4,569.848 L1978.4,572.198 L2009.1,572.198 L2010.1,558.848 L2007.9,558.848 C2006,567.748 2003.95,569.648 1996.3,569.848 L1993,569.848 C1990,569.748 1989.25,569.248 1989.4,567.448 L1989.4,554.698 L1990.4,554.698 C1995.55,554.498 1997.4,556.348 1997.6,561.898 L1999.95,561.898 L1999.95,545.498 L1997.6,545.498 C1997.3,550.398 1995.35,552.348 1990.6,552.348 L1989.4,552.348 L1989.4,540.948 C1989.35,538.848 1989.85,538.498 1992.55,538.448 L1995.15,538.448 C2003.35,538.398 2005.4,540.198 2007,548.848 L2009.15,548.848 L2008.45,536.098 "/>
<path class="Harmony" d="M2018.34,574.498 C2019.84,574.498 2025.49,571.298 2028.64,567.998 C2031.19,565.248 2031.89,561.548 2031.89,558.998 C2031.89,554.998 2029.39,552.148 2025.34,552.148 C2023.19,552.148 2021.29,552.848 2019.69,554.248 L2019.94,533.648 C2019.94,532.998 2019.39,532.498 2018.74,532.498 L2017.99,532.498 C2017.39,532.498 2016.79,532.998 2016.79,533.648 L2017.19,573.348 C2017.19,573.998 2017.69,574.498 2018.34,574.498 M2023.89,555.898 C2026.74,555.898 2027.09,558.848 2027.09,559.998 C2027.09,564.548 2023.34,567.748 2019.99,570.198 C2019.84,570.298 2019.69,570.398 2019.54,570.548 L2019.64,558.198 C2019.74,557.948 2020.14,557.398 2020.89,556.898 C2021.49,556.448 2022.64,555.898 2023.89,555.898"/>
<path class="Harmony" d="M1660.38,1218.1 L1630.63,1218.1 L1630.63,1220.45 L1631.53,1220.45 C1634.38,1220.5 1635.33,1220.65 1635.73,1221.15 C1636.03,1221.6 1636.03,1221.7 1636.03,1224.25 L1636.03,1248.05 C1636.03,1250.6 1636.03,1250.7 1635.73,1251.15 C1635.33,1251.65 1634.38,1251.85 1631.53,1251.85 L1630.63,1251.85 L1630.63,1254.2 L1647.78,1254.2 L1647.78,1251.85 L1646.13,1251.85 C1643.28,1251.85 1642.33,1251.65 1641.93,1251.15 C1641.63,1250.7 1641.63,1250.55 1641.63,1248.05 L1641.63,1236.7 L1642.63,1236.7 C1647.78,1236.5 1649.63,1238.35 1649.83,1243.9 L1652.18,1243.9 L1652.18,1227.5 L1649.83,1227.5 C1649.53,1232.4 1647.58,1234.3 1642.83,1234.35 L1641.63,1234.35 L1641.63,1222.95 C1641.58,1220.85 1642.08,1220.5 1644.78,1220.45 L1647.08,1220.45 C1655.28,1220.4 1657.33,1222.25 1658.88,1230.85 L1661.08,1230.85 L1660.38,1218.1 "/>
<path class="Harmony" d="M1667.93,1231.1 L1670.13,1231.45 L1671.03,1227.5 C1671.78,1224.2 1672.13,1223.7 1673.58,1223.7 C1673.83,1223.7 1674.23,1223.7 1674.68,1223.75 C1680.83,1224.05 1680.83,1224.05 1683.13,1224.05 C1683.78,1224.05 1684.93,1224.05 1686.33,1224 L1682.93,1230.85 C1679.23,1238.2 1678.78,1239.1 1677.53,1242.2 C1675.98,1245.95 1675.18,1249.1 1675.18,1251.2 C1675.18,1253.5 1676.38,1254.9 1678.33,1254.9 C1680.73,1254.9 1681.68,1253.3 1681.63,1248.95 C1681.38,1241.75 1682.28,1238.25 1687.63,1226.55 C1688.53,1224.6 1689.48,1222.6 1690.38,1220.65 L1690.38,1219.2 C1687.38,1219.45 1685.78,1219.55 1682.68,1219.55 C1678.33,1219.55 1674.88,1219.4 1669.48,1219 L1667.93,1231.1 "/>
<path class="Harmony" d="M2513.2,1217.75 L2511.3,1217.75 L2509.3,1220.7 C2505.65,1218.05 2503.8,1217.35 2500.35,1217.35 C2495.6,1217.35 2491.55,1219.35 2488.2,1223.35 C2485,1227.15 2483.5,1231.35 2483.5,1236.5 C2483.5,1247.3 2490.55,1254.95 2500.4,1254.95 C2508.4,1254.95 2513.5,1250.25 2514.65,1241.85 L2512.3,1241.45 C2510.95,1248.9 2507.15,1252.6 2501,1252.6 C2493.6,1252.6 2490.1,1247.5 2490.1,1236.7 C2490.1,1231 2490.85,1227.25 2492.55,1224.25 C2494.1,1221.45 2497.15,1219.7 2500.4,1219.7 C2503.9,1219.7 2507,1221.55 2508.9,1224.75 C2509.85,1226.4 2510.55,1228.25 2511.75,1232.2 L2513.95,1232.2 L2513.2,1217.75 "/>
<path class="Harmony" d="M1912.91,536.098 L1883.16,536.098 L1883.16,538.448 L1884.06,538.448 C1886.91,538.498 1887.86,538.648 1888.26,539.148 C1888.56,539.598 1888.56,539.698 1888.56,542.248 L1888.56,566.048 C1888.56,568.598 1888.56,568.698 1888.26,569.148 C1887.86,569.648 1886.91,569.848 1884.06,569.848 L1883.16,569.848 L1883.16,572.198 L1900.31,572.198 L1900.31,569.848 L1898.66,569.848 C1895.81,569.848 1894.86,569.648 1894.46,569.148 C1894.16,568.698 1894.16,568.548 1894.16,566.048 L1894.16,554.698 L1895.16,554.698 C1900.31,554.498 1902.16,556.348 1902.36,561.898 L1904.71,561.898 L1904.71,545.498 L1902.36,545.498 C1902.06,550.398 1900.11,552.298 1895.36,552.348 L1894.16,552.348 L1894.16,540.948 C1894.11,538.848 1894.61,538.498 1897.31,538.448 L1899.61,538.448 C1907.81,538.398 1909.86,540.248 1911.41,548.848 L1913.61,548.848 L1912.91,536.098 "/>
<path class="Harmony" d="M1920.45,549.098 L1922.65,549.448 L1923.55,545.498 C1924.3,542.198 1924.65,541.698 1926.1,541.698 C1926.35,541.698 1926.75,541.698 1927.2,541.748 C1933.35,542.048 1933.35,542.048 1935.65,542.048 C1936.3,542.048 1937.45,542.048 1938.85,541.998 L1935.45,548.848 C1931.75,556.198 1931.3,557.098 1930.05,560.198 C1928.5,563.948 1927.7,567.098 1927.7,569.198 C1927.7,571.498 1928.9,572.898 1930.85,572.898 C1933.25,572.898 1934.2,571.298 1934.15,566.948 C1933.9,559.748 1934.8,556.248 1940.15,544.548 C1941.05,542.598 1942,540.598 1942.9,538.648 L1942.9,537.198 C1939.9,537.448 1938.3,537.548 1935.2,537.548 C1930.85,537.548 1927.4,537.398 1922,536.998 L1920.45,549.098 "/>
<path class="Harmony" d="M1725.93,536.098 L1695.88,536.098 L1695.88,538.448 L1696.78,538.448 C1699.63,538.498 1700.58,538.648 1700.98,539.148 C1701.28,539.598 1701.28,539.698 1701.28,542.248 L1701.28,566.048 C1701.28,568.598 1701.28,568.698 1700.98,569.148 C1700.58,569.648 1699.63,569.848 1696.78,569.848 L1695.88,569.848 L1695.88,572.198 L1726.58,572.198 L1727.58,558.848 L1725.38,558.848 C1723.48,567.748 1721.43,569.648 1713.78,569.848 L1710.48,569.848 C1707.48,569.748 1706.73,569.248 1706.88,567.448 L1706.88,554.698 L1707.88,554.698 C1713.03,554.498 1714.88,556.348 1715.08,561.898 L1717.43,561.898 L1717.43,545.498 L1715.08,545.498 C1714.78,550.398 1712.83,552.348 1708.08,552.348 L1706.88,552.348 L1706.88,540.948 C1706.83,538.848 1707.33,538.498 1710.03,538.448 L1712.63,538.448 C1720.83,538.398 1722.88,540.198 1724.48,548.848 L1726.63,548.848 L1725.93,536.098 "/>
<path class="Harmony" d="M1735.83,574.498 C1737.33,574.498 1742.98,571.298 1746.13,567.998 C1748.68,565.248 1749.38,561.548 1749.38,558.998 C1749.38,554.998 1746.88,552.148 1742.83,552.148 C1740.68,552.148 1738.78,552.848 1737.18,554.248 L1737.43,533.648 C1737.43,532.998 1736.88,532.498 1736.23,532.498 L1735.48,532.498 C1734.88,532.498 1734.28,532.998 1734.28,533.648 L1734.68,573.348 C1734.68,573.998 1735.18,574.498 1735.83,574.498 M1741.38,555.898 C1744.23,555.898 1744.58,558.848 1744.58,559.998 C1744.58,564.548 1740.83,567.748 1737.48,570.198 C1737.33,570.298 1737.18,570.398 1737.03,570.548 L1737.13,558.198 C1737.23,557.948 1737.63,557.398 1738.38,556.898 C1738.98,556.448 1740.13,555.898 1741.38,555.898"/>
<path class="Harmony" d="M1023.47,1218.1 L1023.47,1220.45 L1024.37,1220.45 C1027.22,1220.5 1028.17,1220.65 1028.57,1221.15 C1028.87,1221.6 1028.87,1221.7 1028.87,1224.25 L1028.87,1248.05 C1028.87,1250.6 1028.87,1250.7 1028.57,1251.15 C1028.17,1251.65 1027.22,1251.85 1024.37,1251.85 L1023.47,1251.85 L1023.47,1254.2 L1041.62,1254.2 C1050.27,1254.2 1055.47,1250.55 1055.47,1244.4 C1055.47,1239.4 1052.32,1236.55 1045.47,1235.35 C1047.87,1234.85 1048.97,1234.4 1050.27,1233.45 C1052.32,1231.9 1053.57,1229.45 1053.57,1226.95 C1053.57,1223.7 1051.57,1220.55 1048.67,1219.3 C1046.87,1218.5 1044.37,1218.1 1041.42,1218.1 L1023.47,1218.1 M1034.47,1234.35 L1034.47,1222.95 C1034.47,1221 1035.12,1220.5 1037.77,1220.45 L1039.77,1220.45 C1044.67,1220.45 1047.77,1222.05 1047.77,1227.5 C1047.77,1232.45 1045.37,1234.35 1038.92,1234.35 L1034.47,1234.35 M1034.47,1236.7 L1038.87,1236.7 C1046.52,1236.7 1049.32,1238.75 1049.32,1244.25 C1049.32,1250.95 1045.12,1251.85 1039.47,1251.85 L1037.37,1251.85 C1034.87,1251.85 1034.37,1251.35 1034.47,1248.7 L1034.47,1236.7 "/>
<path class="Harmony" d="M1063.36,1256.5 C1064.86,1256.5 1070.51,1253.3 1073.66,1250 C1076.21,1247.25 1076.91,1243.55 1076.91,1241 C1076.91,1237 1074.41,1234.15 1070.36,1234.15 C1068.21,1234.15 1066.31,1234.85 1064.71,1236.25 L1064.96,1215.65 C1064.96,1215 1064.41,1214.5 1063.76,1214.5 L1063.01,1214.5 C1062.41,1214.5 1061.81,1215 1061.81,1215.65 L1062.21,1255.35 C1062.21,1256 1062.71,1256.5 1063.36,1256.5 M1068.91,1237.9 C1071.76,1237.9 1072.11,1240.85 1072.11,1242 C1072.11,1246.55 1068.36,1249.75 1065.01,1252.2 C1064.86,1252.3 1064.71,1252.4 1064.56,1252.55 L1064.66,1240.2 C1064.76,1239.95 1065.16,1239.4 1065.91,1238.9 C1066.51,1238.45 1067.66,1237.9 1068.91,1237.9"/>
<path class="Harmony" d="M1092.75,1230.9 L1083.85,1231.45 L1083.85,1233.6 L1085.9,1233.6 C1087.8,1233.65 1088.05,1233.95 1088.05,1236.1 L1088.05,1250.4 C1088,1251.15 1087.95,1251.45 1087.75,1251.7 C1087.4,1252.15 1086.45,1252.35 1084.3,1252.4 L1084.1,1252.4 L1084.1,1254.2 L1096.7,1254.2 L1096.7,1252.4 L1096.5,1252.4 C1093.2,1252.3 1092.75,1252.05 1092.75,1250.2 L1092.75,1240.95 C1092.75,1236.5 1095.2,1233.2 1098.45,1233.2 C1101.3,1233.2 1102.75,1235.25 1102.75,1239.3 L1102.75,1250.45 C1102.7,1251.1 1102.65,1251.45 1102.4,1251.7 C1102.1,1252.15 1101.1,1252.35 1098.95,1252.4 L1098.75,1252.4 L1098.75,1254.2 L1111.4,1254.2 L1111.4,1252.4 L1111.2,1252.4 C1107.9,1252.3 1107.45,1252.05 1107.45,1250.25 L1107.45,1241.4 C1107.45,1236.4 1109.7,1233.2 1113.2,1233.2 C1116.05,1233.2 1117.45,1235.35 1117.45,1239.85 L1117.45,1250.4 C1117.4,1251.1 1117.35,1251.45 1117.1,1251.7 C1116.8,1252.15 1115.8,1252.35 1113.65,1252.4 L1113.45,1252.4 L1113.45,1254.2 L1126.1,1254.2 L1126.1,1252.4 L1125.9,1252.4 C1122.6,1252.3 1122.15,1252.05 1122.15,1250.2 L1122.15,1238.85 C1122.15,1235.75 1121.85,1234.7 1120.55,1233 C1119.1,1231.15 1117.05,1230.15 1114.65,1230.15 C1111.4,1230.15 1109,1231.7 1106.85,1235.15 C1106,1232.15 1103.3,1230.15 1099.95,1230.15 C1096.9,1230.15 1094.7,1231.6 1092.75,1234.75 L1092.75,1230.9 "/>
<path class="Harmony" d="M1130.09,1231.1 L1132.29,1231.45 L1133.19,1227.5 C1133.94,1224.2 1134.29,1223.7 1135.74,1223.7 C1135.99,1223.7 1136.39,1223.7 1136.84,1223.75 C1142.99,1224.05 1142.99,1224.05 1145.29,1224.05 C1145.94,1224.05 1147.09,1224.05 1148.49,1224 L1145.09,1230.85 C1141.39,1238.2 1140.94,1239.1 1139.69,1242.2 C1138.14,1245.95 1137.34,1249.1 1137.34,1251.2 C1137.34,1253.5 1138.54,1254.9 1140.49,1254.9 C1142.89,1254.9 1143.84,1253.3 1143.79,1248.95 C1143.54,1241.75 1144.44,1238.25 1149.79,1226.55 C1150.69,1224.6 1151.64,1222.6 1152.54,1220.65 L1152.54,1219.2 C1149.54,1219.45 1147.94,1219.55 1144.84,1219.55 C1140.49,1219.55 1137.04,1219.4 1131.64,1219 L1130.09,1231.1 "/>
<path class="Harmony" d="M1162.13,535.398 L1160.03,535.398 L1148.53,564.548 C1147.18,568.448 1145.88,569.648 1143.03,569.848 L1142.83,569.848 L1142.83,572.198 L1156.08,572.198 L1156.08,569.848 L1155.08,569.848 C1152.38,569.848 1151.03,568.898 1151.03,566.998 C1151.03,566.348 1151.18,565.748 1151.48,564.898 L1153.13,560.498 L1166.38,560.498 L1169.08,567.198 C1169.38,567.998 1169.48,568.298 1169.48,568.548 C1169.48,569.348 1168.23,569.848 1166.38,569.848 L1164.28,569.848 L1164.28,572.198 L1179.78,572.198 L1179.78,569.848 L1179.08,569.848 C1176.48,569.798 1176.03,569.498 1174.88,566.648 L1162.13,535.398 M1159.68,543.598 L1165.33,557.798 L1154.13,557.798 L1159.68,543.598 "/>
<path class="Harmony" d="M1191.82,548.898 L1182.92,549.448 L1182.92,551.598 L1184.97,551.598 C1186.87,551.648 1187.12,551.948 1187.12,554.098 L1187.12,568.398 C1187.07,569.148 1187.02,569.448 1186.82,569.698 C1186.47,570.148 1185.52,570.348 1183.37,570.398 L1183.17,570.398 L1183.17,572.198 L1195.77,572.198 L1195.77,570.398 L1195.57,570.398 C1192.27,570.298 1191.82,570.048 1191.82,568.198 L1191.82,558.948 C1191.82,554.498 1194.27,551.198 1197.52,551.198 C1200.37,551.198 1201.82,553.248 1201.82,557.298 L1201.82,568.448 C1201.77,569.098 1201.72,569.448 1201.47,569.698 C1201.17,570.148 1200.17,570.348 1198.02,570.398 L1197.82,570.398 L1197.82,572.198 L1210.47,572.198 L1210.47,570.398 L1210.27,570.398 C1206.97,570.298 1206.52,570.048 1206.52,568.248 L1206.52,559.398 C1206.52,554.398 1208.77,551.198 1212.27,551.198 C1215.12,551.198 1216.52,553.348 1216.52,557.848 L1216.52,568.398 C1216.47,569.098 1216.42,569.448 1216.17,569.698 C1215.87,570.148 1214.87,570.348 1212.72,570.398 L1212.52,570.398 L1212.52,572.198 L1225.17,572.198 L1225.17,570.398 L1224.97,570.398 C1221.67,570.298 1221.22,570.048 1221.22,568.198 L1221.22,556.848 C1221.22,553.748 1220.92,552.698 1219.62,550.998 C1218.17,549.148 1216.12,548.148 1213.72,548.148 C1210.47,548.148 1208.07,549.698 1205.92,553.148 C1205.07,550.148 1202.37,548.148 1199.02,548.148 C1195.97,548.148 1193.77,549.598 1191.82,552.748 L1191.82,548.898 "/>
<path class="Harmony" d="M1229.16,549.098 L1231.36,549.448 L1232.26,545.498 C1233.01,542.198 1233.36,541.698 1234.81,541.698 C1235.06,541.698 1235.46,541.698 1235.91,541.748 C1242.06,542.048 1242.06,542.048 1244.36,542.048 C1245.01,542.048 1246.16,542.048 1247.56,541.998 L1244.16,548.848 C1240.46,556.198 1240.01,557.098 1238.76,560.198 C1237.21,563.948 1236.41,567.098 1236.41,569.198 C1236.41,571.498 1237.61,572.898 1239.56,572.898 C1241.96,572.898 1242.91,571.298 1242.86,566.948 C1242.61,559.748 1243.51,556.248 1248.86,544.548 C1249.76,542.598 1250.71,540.598 1251.61,538.648 L1251.61,537.198 C1248.61,537.448 1247.01,537.548 1243.91,537.548 C1239.56,537.548 1236.11,537.398 1230.71,536.998 L1229.16,549.098 "/>
<path class="Harmony" d="M1256.11,558.298 L1256.11,562.448 L1268.56,562.448 L1268.56,558.298 L1256.11,558.298 "/>
<path class="Harmony" d="M1278.85,542.648 C1281.55,543.298 1282.9,543.498 1284.9,543.498 C1289.15,543.498 1292.25,542.048 1293.9,539.248 C1294.45,538.348 1294.65,537.848 1294.65,537.448 C1294.65,537.148 1294.55,536.998 1294.25,536.998 C1294.1,536.998 1293.9,537.048 1293.6,537.198 C1291.15,538.248 1289.85,538.498 1286.95,538.498 C1283.75,538.498 1281.75,538.198 1276.65,536.998 C1276.45,541.198 1276,546.548 1275.3,552.748 C1274.25,553.848 1273.9,554.498 1273.9,555.298 C1273.9,556.348 1274.55,556.998 1275.5,556.998 C1276.8,556.998 1277.55,555.948 1277.75,553.948 C1279.5,552.698 1281.15,552.148 1283.15,552.148 C1287.65,552.148 1290.3,555.548 1290.3,561.298 C1290.3,566.498 1288.65,570.798 1282.85,570.798 C1279.85,570.798 1276.75,569.248 1276.75,567.698 C1276.75,567.348 1277.05,566.948 1277.65,566.598 C1279.2,565.648 1279.65,564.998 1279.65,563.648 C1279.65,561.898 1278.3,560.548 1276.5,560.548 C1274.5,560.548 1272.9,562.398 1272.9,564.748 C1272.9,567.248 1274.35,569.748 1276.6,571.298 C1278.3,572.398 1280.3,572.948 1282.95,572.948 C1290.8,572.948 1295.75,568.348 1295.75,560.998 C1295.75,554.198 1291.25,549.648 1284.45,549.648 C1282.3,549.648 1280.75,549.998 1278,551.148 L1278.85,542.648 "/>
<path class="Harmony" d="M2313.16,1217.75 L2311.26,1217.75 L2309.26,1220.7 C2305.61,1218.05 2303.76,1217.35 2300.31,1217.35 C2295.56,1217.35 2291.51,1219.35 2288.16,1223.35 C2284.96,1227.15 2283.46,1231.35 2283.46,1236.5 C2283.46,1247.3 2290.51,1254.95 2300.36,1254.95 C2308.36,1254.95 2313.46,1250.25 2314.61,1241.85 L2312.26,1241.45 C2310.91,1248.9 2307.11,1252.6 2300.96,1252.6 C2293.56,1252.6 2290.06,1247.5 2290.06,1236.7 C2290.06,1231 2290.81,1227.25 2292.51,1224.25 C2294.06,1221.45 2297.11,1219.7 2300.36,1219.7 C2303.86,1219.7 2306.96,1221.55 2308.86,1224.75 C2309.81,1226.4 2310.51,1228.25 2311.71,1232.2 L2313.91,1232.2 L2313.16,1217.75 "/>
<path class="Harmony" d="M2329.81,1230.9 L2320.91,1231.45 L2320.91,1233.6 L2322.96,1233.6 C2324.86,1233.65 2325.11,1233.95 2325.11,1236.1 L2325.11,1250.4 C2325.06,1251.15 2325.01,1251.45 2324.81,1251.7 C2324.46,1252.15 2323.51,1252.35 2321.36,1252.4 L2321.16,1252.4 L2321.16,1254.2 L2333.76,1254.2 L2333.76,1252.4 L2333.56,1252.4 C2330.26,1252.3 2329.81,1252.05 2329.81,1250.2 L2329.81,1240.95 C2329.81,1236.5 2332.26,1233.2 2335.51,1233.2 C2338.36,1233.2 2339.81,1235.25 2339.81,1239.3 L2339.81,1250.45 C2339.76,1251.1 2339.71,1251.45 2339.46,1251.7 C2339.16,1252.15 2338.16,1252.35 2336.01,1252.4 L2335.81,1252.4 L2335.81,1254.2 L2348.46,1254.2 L2348.46,1252.4 L2348.26,1252.4 C2344.96,1252.3 2344.51,1252.05 2344.51,1250.25 L2344.51,1241.4 C2344.51,1236.4 2346.76,1233.2 2350.26,1233.2 C2353.11,1233.2 2354.51,1235.35 2354.51,1239.85 L2354.51,1250.4 C2354.46,1251.1 2354.41,1251.45 2354.16,1251.7 C2353.86,1252.15 2352.86,1252.35 2350.71,1252.4 L2350.51,1252.4 L2350.51,1254.2 L2363.16,1254.2 L2363.16,1252.4 L2362.96,1252.4 C2359.66,1252.3 2359.21,1252.05 2359.21,1250.2 L2359.21,1238.85 C2359.21,1235.75 2358.91,1234.7 2357.61,1233 C2356.16,1231.15 2354.11,1230.15 2351.71,1230.15 C2348.46,1230.15 2346.06,1231.7 2343.91,1235.15 C2343.06,1232.15 2340.36,1230.15 2337.01,1230.15 C2333.96,1230.15 2331.76,1231.6 2329.81,1234.75 L2329.81,1230.9 "/>
<path class="NoteDot" transform="matrix(0.992001,0,0,0.992001,2337.94,696.198)" d="M0,0 C0,2.8 2.2,5 5,5 C7.8,5 10,2.8 10,0 C10,-2.8 7.8,-5 5,-5 C2.2,-5 0,-2.8 0,0"/>
<path class="NoteDot" transform="matrix(0.992001,0,0,0.992001,1740.49,696.198)" d="M0,0 C0,2.8 2.2,5 5,5 C7.8,5 10,2.8 10,0 C10,-2.8 7.8,-5 5,-5 C2.2,-5 0,-2.8 0,0"/>
<path class="NoteDot" transform="matrix(0.992001,0,0,0.992001,2328.09,1427.8)" d="M0,0 C0,2.8 2.2,5 5,5 C7.8,5 10,2.8 10,0 C10,-2.8 7.8,-5 5,-5 C2.2,-5 0,-2.8 0,0"/>
<path class="NoteDot" transform="matrix(0.992001,0,0,0.992001,2023.01,696.198)" d="M0,0 C0,2.8 2.2,5 5,5 C7.8,5 10,2.8 10,0 C10,-2.8 7.8,-5 5,-5 C2.2,-5 0,-2.8 0,0"/>
<path class="NoteDot" transform="matrix(0.992001,0,0,0.992001,1983.93,1427.8)" d="M0,0 C0,2.8 2.2,5 5,5 C7.8,5 10,2.8 10,0 C10,-2.8 7.8,-5 5,-5 C2.2,-5 0,-2.8 0,0"/>
<path class="NoteDot" transform="matrix(0.992001,0,0,0.992001,1187.46,646.598)" d="M0,0 C0,2.8 2.2,5 5,5 C7.8,5 10,2.8 10,0 C10,-2.8 7.8,-5 5,-5 C2.2,-5 0,-2.8 0,0"/>
<path class="NoteDot" transform="matrix(0.992001,0,0,0.992001,1675.24,1427.8)" d="M0,0 C0,2.8 2.2,5 5,5 C7.8,5 10,2.8 10,0 C10,-2.8 7.8,-5 5,-5 C2.2,-5 0,-2.8 0,0"/>
<path class="NoteDot" transform="matrix(0.992001,0,0,0.992001,1068.09,1328.6)" d="M0,0 C0,2.8 2.2,5 5,5 C7.8,5 10,2.8 10,0 C10,-2.8 7.8,-5 5,-5 C2.2,-5 0,-2.8 0,0"/>
</svg>
