<?xml version="1.0" encoding="UTF-8" standalone="no"?>
<svg width="210.058mm" height="296.926mm" viewBox="0 0 2977.2 4208.4"
 xmlns="http://www.w3.org/2000/svg" xmlns:xlink="http://www.w3.org/1999/xlink" version="1.2" baseProfile="full">
<title>かっこう</title>
<desc>Generated by MuseScore Studio 4.5.2</desc>
<path class="" fill="#ffffff" fill-rule="evenodd" d="M0,0 L2977.2,0 L2977.2,4208.4 L0,4208.4 L0,0 "/>
<polyline class="StaffLines" fill="none" stroke="#000000" stroke-width="2.73" stroke-linejoin="bevel" points="212.598,634.199 2764.6,634.199" />
<polyline class="StaffLines" fill="none" stroke="#000000" stroke-width="2.73" stroke-linejoin="bevel" points="212.598,658.999 2764.6,658.999" />
<polyline class="StaffLines" fill="none" stroke="#000000" stroke-width="2.73" stroke-linejoin="bevel" points="212.598,683.799 2764.6,683.799" />
<polyline class="StaffLines" fill="none" stroke="#000000" stroke-width="2.73" stroke-linejoin="bevel" points="212.598,708.599 2764.6,708.599" />
<polyline class="StaffLines" fill="none" stroke="#000000" stroke-width="2.73" stroke-linejoin="bevel" points="212.598,733.399 2764.6,733.399" />
<polyline class="StaffLines" fill="none" stroke="#000000" stroke-width="2.73" stroke-linejoin="bevel" points="212.598,1105.4 2764.6,1105.4" />
<polyline class="StaffLines" fill="none" stroke="#000000" stroke-width="2.73" stroke-linejoin="bevel" points="212.598,1130.2 2764.6,1130.2" />
<polyline class="StaffLines" fill="none" stroke="#000000" stroke-width="2.73" stroke-linejoin="bevel" points="212.598,1155 2764.6,1155" />
<polyline class="StaffLines" fill="none" stroke="#000000" stroke-width="2.73" stroke-linejoin="bevel" points="212.598,1179.8 2764.6,1179.8" />
<polyline class="StaffLines" fill="none" stroke="#000000" stroke-width="2.73" stroke-linejoin="bevel" points="212.598,1204.6 2764.6,1204.6" />
<polyline class="StaffLines" fill="none" stroke="#000000" stroke-width="2.73" stroke-linejoin="bevel" points="212.598,1576.6 2764.6,1576.6" />
<polyline class="StaffLines" fill="none" stroke="#000000" stroke-width="2.73" stroke-linejoin="bevel" points="212.598,1601.4 2764.6,1601.4" />
<polyline class="StaffLines" fill="none" stroke="#000000" stroke-width="2.73" stroke-linejoin="bevel" points="212.598,1626.2 2764.6,1626.2" />
<polyline class="StaffLines" fill="none" stroke="#000000" stroke-width="2.73" stroke-linejoin="bevel" points="212.598,1651 2764.6,1651" />
<polyline class="StaffLines" fill="none" stroke="#000000" stroke-width="2.73" stroke-linejoin="bevel" points="212.598,1675.8 2764.6,1675.8" />
<path class="Text" d="M1269.84,280.381 C1272.81,279.611 1273.69,279.391 1276.22,278.951 C1277.21,278.731 1282.49,277.851 1291.95,276.421 C1288.32,290.611 1285.02,300.291 1279.85,311.291 C1276,319.651 1271.82,326.911 1268.41,331.201 L1275.89,335.601 C1279.3,329.441 1281.61,325.041 1283.04,322.401 C1290.52,307.221 1295.58,293.141 1299.65,275.761 C1303.72,275.321 1305.15,275.211 1307.57,275.211 C1317.8,275.211 1321.1,278.951 1321.1,290.611 C1321.1,302.931 1319.45,314.151 1316.48,321.191 C1315.05,324.711 1312.96,326.471 1310.21,326.471 C1306.25,326.471 1300.09,324.601 1293.82,321.411 C1294.15,323.391 1294.15,324.161 1294.15,325.811 C1294.15,327.241 1294.15,328.011 1293.93,329.661 C1301.19,332.741 1305.81,333.951 1310.54,333.951 C1315.71,333.951 1318.68,332.521 1321.32,328.781 C1325.83,322.401 1328.69,307.771 1328.69,290.941 C1328.69,281.921 1327.15,276.861 1323.3,273.231 C1319.89,269.931 1315.27,268.611 1307.46,268.611 C1304.93,268.611 1303.5,268.721 1300.97,268.941 C1301.96,263.661 1302.73,259.591 1303.28,256.401 C1304.27,250.131 1304.6,248.261 1305.37,245.841 L1296.57,244.851 C1296.57,245.511 1296.57,246.061 1296.57,246.281 C1296.57,250.901 1295.14,261.461 1293.27,269.601 C1284.36,271.031 1272.92,272.351 1268.96,272.461 L1269.84,280.381 M1334.74,265.861 C1345.41,276.751 1353,290.171 1357.18,305.351 L1364.22,301.281 C1359.05,285.771 1352.45,274.441 1341.23,262.341 L1334.74,265.861 M1389.19,296.661 C1392.49,295.121 1394.25,294.571 1400.96,293.031 C1414.05,289.951 1422.52,288.631 1429.89,288.631 C1443.2,288.631 1450.24,294.021 1450.24,304.031 C1450.24,313.821 1442.65,322.181 1430.11,326.251 C1423.84,328.341 1415.26,329.661 1408.44,329.661 C1408,329.661 1407.56,329.661 1406.9,329.551 C1408.66,332.961 1409.1,334.061 1409.76,337.141 C1423.07,335.491 1425.71,335.051 1432.42,332.961 C1447.71,328.121 1457.61,316.901 1457.61,304.581 C1457.61,300.071 1456.4,295.561 1454.2,292.041 C1450.02,285.221 1442.21,281.811 1430.88,281.811 C1421.42,281.811 1411.74,283.241 1397.33,286.651 C1390.51,288.301 1389.96,288.411 1387.21,288.631 L1389.19,296.661 M1505.02,262.011 C1506.45,262.011 1506.67,262.121 1508.65,262.341 C1515.8,263.221 1525.15,263.771 1532.85,263.771 C1539.12,263.771 1542.86,263.441 1549.46,262.341 C1548.36,263.001 1548.14,263.001 1547.37,263.441 C1546.05,264.101 1545.83,264.211 1544.62,264.871 C1539.67,267.621 1537.03,269.271 1529.99,274.001 L1535.6,278.511 C1546.38,270.701 1556.5,264.651 1563.32,261.791 L1562.77,254.531 C1556.72,256.071 1547.81,256.841 1534.94,256.841 C1522.4,256.841 1513.71,256.071 1505.68,254.201 L1505.02,262.011 M1511.62,290.171 C1503.15,297.321 1498.97,304.251 1498.97,311.401 C1498.97,318.991 1503.26,324.601 1511.51,328.011 C1516.9,330.101 1526.25,331.421 1536.81,331.421 C1546.49,331.421 1556.94,330.541 1566.51,328.891 C1568.38,328.561 1568.82,328.451 1570.25,328.341 L1569.26,319.321 C1563.1,321.851 1550.01,323.501 1536.26,323.501 C1527.57,323.501 1520.31,322.731 1516.13,321.301 C1509.97,319.211 1506.78,315.581 1506.78,310.521 C1506.78,305.351 1510.08,300.291 1517.23,294.351 L1511.62,290.171 M1614.14,254.091 C1628.88,258.271 1642.41,260.361 1660.34,261.351 L1661.55,253.431 C1643.51,253.211 1627.56,250.681 1616.78,246.611 L1614.14,254.091 M1602.7,289.841 C1611.28,286.321 1633.28,282.471 1644.61,282.471 C1650.33,282.471 1655.39,283.351 1658.14,284.891 C1662.65,287.311 1665.18,291.711 1665.18,297.211 C1665.18,302.271 1663.31,307.221 1659.57,312.171 C1656.93,315.581 1654.51,317.561 1650.11,319.981 C1640.87,325.261 1630.86,328.121 1619.2,328.891 C1620.85,331.531 1621.29,332.521 1622.72,336.921 C1639.11,333.841 1646.26,331.531 1654.62,326.471 C1666.83,318.991 1673.54,308.541 1673.54,296.771 C1673.54,289.181 1670.35,283.131 1664.19,279.281 C1659.68,276.421 1653.52,275.101 1645.27,275.101 C1636.58,275.101 1626.35,276.311 1611.72,279.061 C1603.14,280.711 1603.14,280.711 1600.61,280.931 L1602.7,289.841 "/>
<path class="MeasureNumber" d="M228.053,1513.32 C227.053,1517.96 224.373,1525.92 218.653,1525.92 C217.493,1525.92 216.733,1525.44 216.733,1524.72 C216.733,1524.44 216.813,1524.32 217.133,1523.84 C217.533,1523.32 217.733,1522.84 217.733,1522.28 C217.733,1520.96 216.693,1519.96 215.333,1519.96 C213.733,1519.96 212.613,1521.16 212.613,1522.92 C212.613,1525.64 215.173,1527.6 218.733,1527.6 C227.493,1527.6 233.093,1516.4 233.093,1508.8 C233.093,1502.56 230.093,1498.84 225.133,1498.84 C219.173,1498.84 214.733,1504.32 214.733,1510.04 C214.733,1513.84 217.653,1516.72 221.533,1516.72 C224.173,1516.72 226.213,1515.64 228.053,1513.32 M225.093,1500.52 C227.653,1500.52 229.293,1502.56 229.293,1505.76 C229.293,1510.72 226.573,1514.36 222.893,1514.36 C220.373,1514.36 218.973,1512.64 218.973,1509.64 C218.973,1506.04 220.693,1500.52 225.093,1500.52"/>
<path class="MeasureNumber" d="M216.922,1040.48 C215.682,1041.24 215.322,1041.72 215.322,1042.52 C215.322,1043.28 215.962,1043.84 216.762,1043.84 C217.802,1043.84 218.402,1043.08 218.522,1041.6 C219.762,1040.6 221.082,1040.16 222.682,1040.16 C225.642,1040.16 227.282,1042 227.282,1045.32 C227.282,1050.52 223.922,1054.76 219.802,1054.76 C217.442,1054.76 215.522,1053.64 215.522,1052.32 C215.522,1052.08 215.562,1052 215.762,1051.88 C217.042,1051.28 218.082,1050.84 218.082,1049.16 C218.082,1047.88 217.082,1046.92 215.682,1046.92 C213.922,1046.92 212.602,1048.4 212.602,1050.32 C212.602,1053.84 215.642,1056.4 219.922,1056.4 C226.402,1056.4 231.642,1051.24 231.642,1044.84 C231.642,1040.8 228.562,1037.96 224.202,1037.96 C222.482,1037.96 221.082,1038.32 219.162,1039.28 L221.402,1031.72 C223.522,1032.16 225.202,1032.36 226.642,1032.36 C229.282,1032.36 231.642,1031.52 232.962,1030.12 C233.642,1029.32 234.042,1028.64 234.042,1028.12 C234.042,1027.88 233.922,1027.64 233.762,1027.64 C233.642,1027.64 233.562,1027.68 233.322,1027.8 C232.002,1028.44 230.322,1028.8 228.762,1028.8 C226.362,1028.8 223.522,1028.4 220.562,1027.64 L216.922,1040.48 "/>
<polyline class="BarLine" fill="none" stroke="#000000" stroke-width="4.46" stroke-linejoin="bevel" points="1565.47,1575.24 1565.47,1677.16" />
<polyline class="BarLine" fill="none" stroke="#000000" stroke-width="4.46" stroke-linejoin="bevel" points="2762.37,632.835 2762.37,734.763" />
<polyline class="BarLine" fill="none" stroke="#000000" stroke-width="4.46" stroke-linejoin="bevel" points="1565.37,1104.04 1565.37,1205.96" />
<polyline class="BarLine" fill="none" stroke="#000000" stroke-width="4.46" stroke-linejoin="bevel" points="966.919,1575.24 966.919,1677.16" />
<polyline class="BarLine" fill="none" stroke="#000000" stroke-width="4.46" stroke-linejoin="bevel" points="2740.42,1575.24 2740.42,1677.16" />
<polyline class="BarLine" fill="none" stroke="#000000" stroke-width="13.64" stroke-linejoin="bevel" points="2757.78,1575.24 2757.78,1677.16" />
<polyline class="BarLine" fill="none" stroke="#000000" stroke-width="4.46" stroke-linejoin="bevel" points="1603.7,632.835 1603.7,734.763" />
<polyline class="BarLine" fill="none" stroke="#000000" stroke-width="4.46" stroke-linejoin="bevel" points="2214.94,1104.04 2214.94,1205.96" />
<polyline class="BarLine" fill="none" stroke="#000000" stroke-width="4.46" stroke-linejoin="bevel" points="1013.47,632.835 1013.47,734.763" />
<polyline class="BarLine" fill="none" stroke="#000000" stroke-width="4.46" stroke-linejoin="bevel" points="2762.37,1104.04 2762.37,1205.96" />
<polyline class="BarLine" fill="none" stroke="#000000" stroke-width="4.46" stroke-linejoin="bevel" points="2304.65,632.835 2304.65,734.763" />
<polyline class="BarLine" fill="none" stroke="#000000" stroke-width="4.46" stroke-linejoin="bevel" points="1017.95,1104.04 1017.95,1205.96" />
<polyline class="BarLine" fill="none" stroke="#000000" stroke-width="4.46" stroke-linejoin="bevel" points="2276.38,1575.24 2276.38,1677.16" />
<polyline class="Stem" fill="none" stroke="#000000" stroke-width="2.73" stroke-linejoin="bevel" points="1834.99,1163.43 1834.99,1086.8" />
<polyline class="Stem" fill="none" stroke="#000000" stroke-width="2.73" stroke-linejoin="bevel" points="1630.7,1163.43 1630.7,1086.8" />
<polyline class="Stem" fill="none" stroke="#000000" stroke-width="2.73" stroke-linejoin="bevel" points="1078.8,667.431 1078.8,603.199" />
<polyline class="Stem" fill="none" stroke="#000000" stroke-width="2.73" stroke-linejoin="bevel" points="2586.71,1163.43 2586.71,1086.8" />
<polyline class="Stem" fill="none" stroke="#000000" stroke-width="2.73" stroke-linejoin="bevel" points="488.561,667.431 488.561,603.199" />
<polyline class="Stem" fill="none" stroke="#000000" stroke-width="2.73" stroke-linejoin="bevel" points="433.706,1175.83 433.706,1093" />
<polyline class="Stem" fill="none" stroke="#000000" stroke-width="2.73" stroke-linejoin="bevel" points="709.974,692.231 709.974,615.599" />
<polyline class="Stem" fill="none" stroke="#000000" stroke-width="2.73" stroke-linejoin="bevel" points="1369.36,1634.63 1369.36,1558" />
<polyline class="Stem" fill="none" stroke="#000000" stroke-width="2.73" stroke-linejoin="bevel" points="637.995,1175.83 637.995,1093" />
<polyline class="Stem" fill="none" stroke="#000000" stroke-width="2.73" stroke-linejoin="bevel" points="2341.71,1659.43 2341.71,1576.6" />
<polyline class="Stem" fill="none" stroke="#000000" stroke-width="2.73" stroke-linejoin="bevel" points="770.811,1634.63 770.811,1558" />
<polyline class="Stem" fill="none" stroke="#000000" stroke-width="2.73" stroke-linejoin="bevel" points="842.284,1163.43 842.284,1086.8" />
<polyline class="Stem" fill="none" stroke="#000000" stroke-width="2.73" stroke-linejoin="bevel" points="2280.28,1138.63 2280.28,1074.4" />
<polyline class="Stem" fill="none" stroke="#000000" stroke-width="2.73" stroke-linejoin="bevel" points="1032.25,1609.83 1032.25,1545.6" />
<polyline class="Stem" fill="none" stroke="#000000" stroke-width="2.73" stroke-linejoin="bevel" points="2369.98,717.031 2369.98,634.199" />
<polyline class="Stem" fill="none" stroke="#000000" stroke-width="2.73" stroke-linejoin="bevel" points="1300.21,692.231 1300.21,615.599" />
<polyline class="Stem" fill="none" stroke="#000000" stroke-width="2.73" stroke-linejoin="bevel" points="1083.28,1151.03 1083.28,1080.6" />
<polyline class="Stem" fill="none" stroke="#000000" stroke-width="2.73" stroke-linejoin="bevel" points="2111.86,704.631 2111.86,621.799" />
<polyline class="Stem" fill="none" stroke="#000000" stroke-width="2.73" stroke-linejoin="bevel" points="2080.27,1647.03 2080.27,1564.2" />
<polyline class="Stem" fill="none" stroke="#000000" stroke-width="2.73" stroke-linejoin="bevel" points="1855.53,1634.63 1855.53,1558" />
<polyline class="Stem" fill="none" stroke="#000000" stroke-width="2.73" stroke-linejoin="bevel" points="1389.71,1175.83 1389.71,1093" />
<polyline class="Stem" fill="none" stroke="#000000" stroke-width="2.73" stroke-linejoin="bevel" points="2039.28,1151.03 2039.28,1080.6" />
<polyline class="Stem" fill="none" stroke="#000000" stroke-width="2.73" stroke-linejoin="bevel" points="1890.45,717.031 1890.45,634.199" />
<polyline class="Stem" fill="none" stroke="#000000" stroke-width="2.73" stroke-linejoin="bevel" points="1669.04,704.631 1669.04,621.799" />
<polyline class="Stem" fill="none" stroke="#000000" stroke-width="2.73" stroke-linejoin="bevel" points="433.706,1609.83 433.706,1545.6" />
<polyline class="Stem" fill="none" stroke="#000000" stroke-width="2.73" stroke-linejoin="bevel" points="1630.8,1622.23 1630.8,1551.8" />
<path class="Note" transform="matrix(0.992001,0,0,0.992001,1338.5,1638.6)" d="M0,4.2 C0,8.5 3.1,13.3 11.2,13.3 C21.6,13.3 32.5,4.8 32.5,-4 C32.5,-9.9 27.5,-13.2 21.3,-13.2 C11.6,-13.2 0,-5 0,4.2"/>
<path class="Note" transform="matrix(0.992001,0,0,0.992001,2049.41,1651)" d="M0,4.2 C0,8.5 3.1,13.3 11.2,13.3 C21.6,13.3 32.5,4.8 32.5,-4 C32.5,-9.9 27.5,-13.2 21.3,-13.2 C11.6,-13.2 0,-5 0,4.2"/>
<path class="Note" transform="matrix(0.992001,0,0,0.992001,1599.84,1167.4)" d="M0,4.2 C0,8.5 3.1,13.3 11.2,13.3 C21.6,13.3 32.5,4.8 32.5,-4 C32.5,-9.9 27.5,-13.2 21.3,-13.2 C11.6,-13.2 0,-5 0,4.2"/>
<path class="Note" transform="matrix(0.992001,0,0,0.992001,1804.13,1167.4)" d="M0,4.2 C0,8.5 3.1,13.3 11.2,13.3 C21.6,13.3 32.5,4.8 32.5,-4 C32.5,-9.9 27.5,-13.2 21.3,-13.2 C11.6,-13.2 0,-5 0,4.2"/>
<path class="Note" transform="matrix(0.992001,0,0,0.992001,1358.85,1179.8)" d="M0,4.2 C0,8.5 3.1,13.3 11.2,13.3 C21.6,13.3 32.5,4.8 32.5,-4 C32.5,-9.9 27.5,-13.2 21.3,-13.2 C11.6,-13.2 0,-5 0,4.2"/>
<path class="Note" transform="matrix(0.992001,0,0,0.992001,2008.42,1155)" d="M0,4.2 C0,8.5 3.1,13.3 11.2,13.3 C21.6,13.3 32.5,4.8 32.5,-4 C32.5,-9.9 27.5,-13.2 21.3,-13.2 C11.6,-13.2 0,-5 0,4.2"/>
<path class="Note" transform="matrix(0.992001,0,0,0.992001,739.951,1638.6)" d="M0,4.2 C0,8.5 3.1,13.3 11.2,13.3 C21.6,13.3 32.5,4.8 32.5,-4 C32.5,-9.9 27.5,-13.2 21.3,-13.2 C11.6,-13.2 0,-5 0,4.2"/>
<path class="Note" transform="matrix(0.992001,0,0,0.992001,1638.18,708.599)" d="M0,4.2 C0,8.5 3.1,13.3 11.2,13.3 C21.6,13.3 32.5,4.8 32.5,-4 C32.5,-9.9 27.5,-13.2 21.3,-13.2 C11.6,-13.2 0,-5 0,4.2"/>
<path class="Note" transform="matrix(0.992001,0,0,0.992001,1052.42,1155)" d="M21.3,-13.2 C11.6,-13.2 0,-5.1 0,4.2 C0,8.5 3.1,13.3 11.2,13.3 C21.6,13.3 32.5,4.8 32.5,-4 C32.5,-9.9 27.5,-13.2 21.3,-13.2 M18.6,4.4 C18.3,4.6 11,8.6 7.5,8.6 C4.2,8.6 3.5,5.9 3.5,5 C3.5,0.8 13.5,-4.1 13.9,-4.3 C14.3,-4.5 21.4,-8.5 25,-8.5 C27.4,-8.5 29,-7.1 29,-4.9 C29,-0.6 18.9,4.2 18.6,4.4"/>
<path class="Note" transform="matrix(0.992001,0,0,0.992001,679.114,696.199)" d="M21.3,-13.2 C11.6,-13.2 0,-5.1 0,4.2 C0,8.5 3.1,13.3 11.2,13.3 C21.6,13.3 32.5,4.8 32.5,-4 C32.5,-9.9 27.5,-13.2 21.3,-13.2 M18.6,4.4 C18.3,4.6 11,8.6 7.5,8.6 C4.2,8.6 3.5,5.9 3.5,5 C3.5,0.8 13.5,-4.1 13.9,-4.3 C14.3,-4.5 21.4,-8.5 25,-8.5 C27.4,-8.5 29,-7.1 29,-4.9 C29,-0.6 18.9,4.2 18.6,4.4"/>
<path class="Note" transform="matrix(0.992001,0,0,0.992001,811.424,1167.4)" d="M0,4.2 C0,8.5 3.1,13.3 11.2,13.3 C21.6,13.3 32.5,4.8 32.5,-4 C32.5,-9.9 27.5,-13.2 21.3,-13.2 C11.6,-13.2 0,-5 0,4.2"/>
<path class="Note" transform="matrix(0.992001,0,0,0.992001,1824.67,1638.6)" d="M0,4.2 C0,8.5 3.1,13.3 11.2,13.3 C21.6,13.3 32.5,4.8 32.5,-4 C32.5,-9.9 27.5,-13.2 21.3,-13.2 C11.6,-13.2 0,-5 0,4.2"/>
<path class="Note" transform="matrix(0.992001,0,0,0.992001,1859.59,720.999)" d="M0,4.2 C0,8.5 3.1,13.3 11.2,13.3 C21.6,13.3 32.5,4.8 32.5,-4 C32.5,-9.9 27.5,-13.2 21.3,-13.2 C11.6,-13.2 0,-5 0,4.2"/>
<path class="Note" transform="matrix(0.992001,0,0,0.992001,2249.42,1142.6)" d="M21.3,-13.2 C11.6,-13.2 0,-5.1 0,4.2 C0,8.5 3.1,13.3 11.2,13.3 C21.6,13.3 32.5,4.8 32.5,-4 C32.5,-9.9 27.5,-13.2 21.3,-13.2 M18.6,4.4 C18.3,4.6 11,8.6 7.5,8.6 C4.2,8.6 3.5,5.9 3.5,5 C3.5,0.8 13.5,-4.1 13.9,-4.3 C14.3,-4.5 21.4,-8.5 25,-8.5 C27.4,-8.5 29,-7.1 29,-4.9 C29,-0.6 18.9,4.2 18.6,4.4"/>
<path class="Note" transform="matrix(0.992001,0,0,0.992001,1001.39,1613.8)" d="M21.3,-13.2 C11.6,-13.2 0,-5.1 0,4.2 C0,8.5 3.1,13.3 11.2,13.3 C21.6,13.3 32.5,4.8 32.5,-4 C32.5,-9.9 27.5,-13.2 21.3,-13.2 M18.6,4.4 C18.3,4.6 11,8.6 7.5,8.6 C4.2,8.6 3.5,5.9 3.5,5 C3.5,0.8 13.5,-4.1 13.9,-4.3 C14.3,-4.5 21.4,-8.5 25,-8.5 C27.4,-8.5 29,-7.1 29,-4.9 C29,-0.6 18.9,4.2 18.6,4.4"/>
<path class="Note" transform="matrix(0.992001,0,0,0.992001,2310.85,1663.4)" d="M21.3,-13.2 C11.6,-13.2 0,-5.1 0,4.2 C0,8.5 3.1,13.3 11.2,13.3 C21.6,13.3 32.5,4.8 32.5,-4 C32.5,-9.9 27.5,-13.2 21.3,-13.2 M18.6,4.4 C18.3,4.6 11,8.6 7.5,8.6 C4.2,8.6 3.5,5.9 3.5,5 C3.5,0.8 13.5,-4.1 13.9,-4.3 C14.3,-4.5 21.4,-8.5 25,-8.5 C27.4,-8.5 29,-7.1 29,-4.9 C29,-0.6 18.9,4.2 18.6,4.4"/>
<path class="Note" transform="matrix(0.992001,0,0,0.992001,457.7,671.399)" d="M0,4.2 C0,8.5 3.1,13.3 11.2,13.3 C21.6,13.3 32.5,4.8 32.5,-4 C32.5,-9.9 27.5,-13.2 21.3,-13.2 C11.6,-13.2 0,-5 0,4.2"/>
<path class="Note" transform="matrix(0.992001,0,0,0.992001,607.135,1179.8)" d="M0,4.2 C0,8.5 3.1,13.3 11.2,13.3 C21.6,13.3 32.5,4.8 32.5,-4 C32.5,-9.9 27.5,-13.2 21.3,-13.2 C11.6,-13.2 0,-5 0,4.2"/>
<path class="Note" transform="matrix(0.992001,0,0,0.992001,402.846,1179.8)" d="M0,4.2 C0,8.5 3.1,13.3 11.2,13.3 C21.6,13.3 32.5,4.8 32.5,-4 C32.5,-9.9 27.5,-13.2 21.3,-13.2 C11.6,-13.2 0,-5 0,4.2"/>
<path class="Note" transform="matrix(0.992001,0,0,0.992001,2081,708.599)" d="M0,4.2 C0,8.5 3.1,13.3 11.2,13.3 C21.6,13.3 32.5,4.8 32.5,-4 C32.5,-9.9 27.5,-13.2 21.3,-13.2 C11.6,-13.2 0,-5 0,4.2"/>
<path class="Note" transform="matrix(0.992001,0,0,0.992001,1599.94,1626.2)" d="M0,4.2 C0,8.5 3.1,13.3 11.2,13.3 C21.6,13.3 32.5,4.8 32.5,-4 C32.5,-9.9 27.5,-13.2 21.3,-13.2 C11.6,-13.2 0,-5 0,4.2"/>
<path class="Note" transform="matrix(0.992001,0,0,0.992001,2555.85,1167.4)" d="M0,4.2 C0,8.5 3.1,13.3 11.2,13.3 C21.6,13.3 32.5,4.8 32.5,-4 C32.5,-9.9 27.5,-13.2 21.3,-13.2 C11.6,-13.2 0,-5 0,4.2"/>
<path class="Note" transform="matrix(0.992001,0,0,0.992001,1047.94,671.399)" d="M0,4.2 C0,8.5 3.1,13.3 11.2,13.3 C21.6,13.3 32.5,4.8 32.5,-4 C32.5,-9.9 27.5,-13.2 21.3,-13.2 C11.6,-13.2 0,-5 0,4.2"/>
<path class="Note" transform="matrix(0.992001,0,0,0.992001,2339.12,720.999)" d="M21.3,-13.2 C11.6,-13.2 0,-5.1 0,4.2 C0,8.5 3.1,13.3 11.2,13.3 C21.6,13.3 32.5,4.8 32.5,-4 C32.5,-9.9 27.5,-13.2 21.3,-13.2 M18.6,4.4 C18.3,4.6 11,8.6 7.5,8.6 C4.2,8.6 3.5,5.9 3.5,5 C3.5,0.8 13.5,-4.1 13.9,-4.3 C14.3,-4.5 21.4,-8.5 25,-8.5 C27.4,-8.5 29,-7.1 29,-4.9 C29,-0.6 18.9,4.2 18.6,4.4"/>
<path class="Note" transform="matrix(0.992001,0,0,0.992001,1269.35,696.199)" d="M21.3,-13.2 C11.6,-13.2 0,-5.1 0,4.2 C0,8.5 3.1,13.3 11.2,13.3 C21.6,13.3 32.5,4.8 32.5,-4 C32.5,-9.9 27.5,-13.2 21.3,-13.2 M18.6,4.4 C18.3,4.6 11,8.6 7.5,8.6 C4.2,8.6 3.5,5.9 3.5,5 C3.5,0.8 13.5,-4.1 13.9,-4.3 C14.3,-4.5 21.4,-8.5 25,-8.5 C27.4,-8.5 29,-7.1 29,-4.9 C29,-0.6 18.9,4.2 18.6,4.4"/>
<path class="Note" transform="matrix(0.992001,0,0,0.992001,402.846,1613.8)" d="M21.3,-13.2 C11.6,-13.2 0,-5.1 0,4.2 C0,8.5 3.1,13.3 11.2,13.3 C21.6,13.3 32.5,4.8 32.5,-4 C32.5,-9.9 27.5,-13.2 21.3,-13.2 M18.6,4.4 C18.3,4.6 11,8.6 7.5,8.6 C4.2,8.6 3.5,5.9 3.5,5 C3.5,0.8 13.5,-4.1 13.9,-4.3 C14.3,-4.5 21.4,-8.5 25,-8.5 C27.4,-8.5 29,-7.1 29,-4.9 C29,-0.6 18.9,4.2 18.6,4.4"/>
<path class="Clef" transform="matrix(0.992001,0,0,0.992001,232.438,1179.8)" d="M56.2,2.1 C56.2,9.2 53.3,16.5 46.2,19.4 C44.1,7.4 41.4,-8.5 40.7,-12.9 C49.7,-12.9 56.2,-6.8 56.2,2.1 M42,20.6 C40,21 38.1,21.2 36.2,21.2 C21.9,21.2 9.7,11.2 9.7,-3.9 C9.7,-16.1 18.3,-27 27.1,-34.6 C28.8,-36.1 30.4,-37.5 31.9,-39 C32.8,-33.6 33.5,-28.9 34.2,-24.8 C25.1,-22.1 18.9,-12.5 18.9,-3.1 C18.9,3.9 24.4,13.5 32.4,13.5 C33.2,13.5 34.1,13.1 34.1,12.2 C34.1,11.3 33.1,10.8 31.9,10 C28,7.6 25.8,5 25.8,0.1 C25.8,-6 30.3,-10.9 36.2,-12.3 L42,20.6 M33.2,-82.2 C34.1,-86.2 38.7,-96.7 43.9,-96.7 C45.4,-96.7 47.8,-91.8 47.8,-84.9 C47.8,-74.5 40.1,-66.7 33.2,-59.9 C32.6,-63.9 32.1,-67.8 32.1,-72 C32.1,-75.7 32.4,-79.1 33.2,-82.2 M12.2,51.3 C12.2,57.9 17.3,66.6 30.8,66.6 C35.5,66.6 39.6,65.4 43.2,63.2 C48.6,59.4 50,52.8 50,46.5 C50,42.6 49.4,38.1 48.4,32.4 C48.1,30.4 47.5,27.4 46.9,23.5 C56.7,20.3 64,10.1 64,-0.2 C64,-15.3 53.3,-25.5 38.7,-25.5 C37.7,-31.5 36.7,-37.4 35.8,-43 C46.4,-54.1 53.7,-66.6 53.7,-82.5 C53.7,-91.6 50.9,-99 49.3,-102.6 C46.9,-107.7 44,-111.2 42.2,-111.2 C41.5,-111.2 38.4,-110 35.1,-106.1 C28.7,-98.5 26.9,-85.7 26.9,-77.3 C26.9,-71.9 27.4,-67 29.1,-55.8 C29,-55.7 23.8,-50.4 21.7,-48.7 C12.6,-40.2 0,-28.1 0,-8.1 C0,10.6 16.3,25.3 34.9,25.3 C37.8,25.3 40.5,25 42.8,24.6 C44.7,34.2 45.8,41.2 45.8,46.5 C45.8,56.9 40.5,62.4 30.4,62.4 C28,62.4 25.9,61.9 25.7,61.9 C25.6,61.8 25.4,61.7 25.4,61.6 C25.4,61.4 25.6,61.3 25.9,61.2 C30.6,60.5 35.3,56.5 35.3,50.1 C35.3,44.7 31.2,39 23.7,39 C16.7,39 12.2,44.7 12.2,51.3"/>
<path class="Clef" transform="matrix(0.992001,0,0,0.992001,232.438,1651)" d="M56.2,2.1 C56.2,9.2 53.3,16.5 46.2,19.4 C44.1,7.4 41.4,-8.5 40.7,-12.9 C49.7,-12.9 56.2,-6.8 56.2,2.1 M42,20.6 C40,21 38.1,21.2 36.2,21.2 C21.9,21.2 9.7,11.2 9.7,-3.9 C9.7,-16.1 18.3,-27 27.1,-34.6 C28.8,-36.1 30.4,-37.5 31.9,-39 C32.8,-33.6 33.5,-28.9 34.2,-24.8 C25.1,-22.1 18.9,-12.5 18.9,-3.1 C18.9,3.9 24.4,13.5 32.4,13.5 C33.2,13.5 34.1,13.1 34.1,12.2 C34.1,11.3 33.1,10.8 31.9,10 C28,7.6 25.8,5 25.8,0.1 C25.8,-6 30.3,-10.9 36.2,-12.3 L42,20.6 M33.2,-82.2 C34.1,-86.2 38.7,-96.7 43.9,-96.7 C45.4,-96.7 47.8,-91.8 47.8,-84.9 C47.8,-74.5 40.1,-66.7 33.2,-59.9 C32.6,-63.9 32.1,-67.8 32.1,-72 C32.1,-75.7 32.4,-79.1 33.2,-82.2 M12.2,51.3 C12.2,57.9 17.3,66.6 30.8,66.6 C35.5,66.6 39.6,65.4 43.2,63.2 C48.6,59.4 50,52.8 50,46.5 C50,42.6 49.4,38.1 48.4,32.4 C48.1,30.4 47.5,27.4 46.9,23.5 C56.7,20.3 64,10.1 64,-0.2 C64,-15.3 53.3,-25.5 38.7,-25.5 C37.7,-31.5 36.7,-37.4 35.8,-43 C46.4,-54.1 53.7,-66.6 53.7,-82.5 C53.7,-91.6 50.9,-99 49.3,-102.6 C46.9,-107.7 44,-111.2 42.2,-111.2 C41.5,-111.2 38.4,-110 35.1,-106.1 C28.7,-98.5 26.9,-85.7 26.9,-77.3 C26.9,-71.9 27.4,-67 29.1,-55.8 C29,-55.7 23.8,-50.4 21.7,-48.7 C12.6,-40.2 0,-28.1 0,-8.1 C0,10.6 16.3,25.3 34.9,25.3 C37.8,25.3 40.5,25 42.8,24.6 C44.7,34.2 45.8,41.2 45.8,46.5 C45.8,56.9 40.5,62.4 30.4,62.4 C28,62.4 25.9,61.9 25.7,61.9 C25.6,61.8 25.4,61.7 25.4,61.6 C25.4,61.4 25.6,61.3 25.9,61.2 C30.6,60.5 35.3,56.5 35.3,50.1 C35.3,44.7 31.2,39 23.7,39 C16.7,39 12.2,44.7 12.2,51.3"/>
<path class="Clef" transform="matrix(0.992001,0,0,0.992001,232.438,708.599)" d="M56.2,2.1 C56.2,9.2 53.3,16.5 46.2,19.4 C44.1,7.4 41.4,-8.5 40.7,-12.9 C49.7,-12.9 56.2,-6.8 56.2,2.1 M42,20.6 C40,21 38.1,21.2 36.2,21.2 C21.9,21.2 9.7,11.2 9.7,-3.9 C9.7,-16.1 18.3,-27 27.1,-34.6 C28.8,-36.1 30.4,-37.5 31.9,-39 C32.8,-33.6 33.5,-28.9 34.2,-24.8 C25.1,-22.1 18.9,-12.5 18.9,-3.1 C18.9,3.9 24.4,13.5 32.4,13.5 C33.2,13.5 34.1,13.1 34.1,12.2 C34.1,11.3 33.1,10.8 31.9,10 C28,7.6 25.8,5 25.8,0.1 C25.8,-6 30.3,-10.9 36.2,-12.3 L42,20.6 M33.2,-82.2 C34.1,-86.2 38.7,-96.7 43.9,-96.7 C45.4,-96.7 47.8,-91.8 47.8,-84.9 C47.8,-74.5 40.1,-66.7 33.2,-59.9 C32.6,-63.9 32.1,-67.8 32.1,-72 C32.1,-75.7 32.4,-79.1 33.2,-82.2 M12.2,51.3 C12.2,57.9 17.3,66.6 30.8,66.6 C35.5,66.6 39.6,65.4 43.2,63.2 C48.6,59.4 50,52.8 50,46.5 C50,42.6 49.4,38.1 48.4,32.4 C48.1,30.4 47.5,27.4 46.9,23.5 C56.7,20.3 64,10.1 64,-0.2 C64,-15.3 53.3,-25.5 38.7,-25.5 C37.7,-31.5 36.7,-37.4 35.8,-43 C46.4,-54.1 53.7,-66.6 53.7,-82.5 C53.7,-91.6 50.9,-99 49.3,-102.6 C46.9,-107.7 44,-111.2 42.2,-111.2 C41.5,-111.2 38.4,-110 35.1,-106.1 C28.7,-98.5 26.9,-85.7 26.9,-77.3 C26.9,-71.9 27.4,-67 29.1,-55.8 C29,-55.7 23.8,-50.4 21.7,-48.7 C12.6,-40.2 0,-28.1 0,-8.1 C0,10.6 16.3,25.3 34.9,25.3 C37.8,25.3 40.5,25 42.8,24.6 C44.7,34.2 45.8,41.2 45.8,46.5 C45.8,56.9 40.5,62.4 30.4,62.4 C28,62.4 25.9,61.9 25.7,61.9 C25.6,61.8 25.4,61.7 25.4,61.6 C25.4,61.4 25.6,61.3 25.9,61.2 C30.6,60.5 35.3,56.5 35.3,50.1 C35.3,44.7 31.2,39 23.7,39 C16.7,39 12.2,44.7 12.2,51.3"/>
<path class="KeySig" transform="matrix(0.992001,0,0,0.992001,320.711,1155)" d="M20.1,-7.9 C19.5,-11.8 17.1,-15.5 12,-15.5 C7,-15.5 4.1,-12.4 3.6,-11.8 L4,-43.9 C4,-44.7 3.4,-45.3 2.6,-45.3 L1.4,-45.3 C0.6,-45.3 0,-44.7 0,-43.9 L0.5,16.2 C0.5,17 1.1,17.6 1.9,17.6 C2.1,17.6 2.5,17.5 2.7,17.4 C3.1,17.2 9.6,14 15,7.9 C18.8,3.6 20.3,-1.3 20.3,-5.4 C20.3,-6.3 20.2,-7.1 20.1,-7.9 M13.2,-4 C13.2,-2.5 12.8,2.1 10.3,5.9 C8.6,8.5 5.2,11.2 3.3,12.7 L3.6,-6.8 C3.8,-7.7 5.3,-10.6 9.3,-10.6 C12.9,-10.6 13.2,-7.2 13.2,-5.1 C13.2,-4.6 13.2,-4.3 13.2,-4"/>
<path class="KeySig" transform="matrix(0.992001,0,0,0.992001,320.711,1626.2)" d="M20.1,-7.9 C19.5,-11.8 17.1,-15.5 12,-15.5 C7,-15.5 4.1,-12.4 3.6,-11.8 L4,-43.9 C4,-44.7 3.4,-45.3 2.6,-45.3 L1.4,-45.3 C0.6,-45.3 0,-44.7 0,-43.9 L0.5,16.2 C0.5,17 1.1,17.6 1.9,17.6 C2.1,17.6 2.5,17.5 2.7,17.4 C3.1,17.2 9.6,14 15,7.9 C18.8,3.6 20.3,-1.3 20.3,-5.4 C20.3,-6.3 20.2,-7.1 20.1,-7.9 M13.2,-4 C13.2,-2.5 12.8,2.1 10.3,5.9 C8.6,8.5 5.2,11.2 3.3,12.7 L3.6,-6.8 C3.8,-7.7 5.3,-10.6 9.3,-10.6 C12.9,-10.6 13.2,-7.2 13.2,-5.1 C13.2,-4.6 13.2,-4.3 13.2,-4"/>
<path class="KeySig" transform="matrix(0.992001,0,0,0.992001,320.711,683.799)" d="M20.1,-7.9 C19.5,-11.8 17.1,-15.5 12,-15.5 C7,-15.5 4.1,-12.4 3.6,-11.8 L4,-43.9 C4,-44.7 3.4,-45.3 2.6,-45.3 L1.4,-45.3 C0.6,-45.3 0,-44.7 0,-43.9 L0.5,16.2 C0.5,17 1.1,17.6 1.9,17.6 C2.1,17.6 2.5,17.5 2.7,17.4 C3.1,17.2 9.6,14 15,7.9 C18.8,3.6 20.3,-1.3 20.3,-5.4 C20.3,-6.3 20.2,-7.1 20.1,-7.9 M13.2,-4 C13.2,-2.5 12.8,2.1 10.3,5.9 C8.6,8.5 5.2,11.2 3.3,12.7 L3.6,-6.8 C3.8,-7.7 5.3,-10.6 9.3,-10.6 C12.9,-10.6 13.2,-7.2 13.2,-5.1 C13.2,-4.6 13.2,-4.3 13.2,-4"/>
<path class="TimeSig" transform="matrix(0.992001,0,0,0.992001,368.172,659.495)" d="M27.2,-1.6 C35.2,-4.7 35.7,-9.9 35.7,-11.7 C35.7,-11.9 35.7,-12.1 35.7,-12.2 C35.7,-13.1 35.4,-24.4 18.2,-24.4 C1,-24.4 1.5,-12.2 1.5,-12.2 L1.6,-12.2 L1.5,-12 C1.5,-8.4 4.4,-5.6 8,-5.6 C11.6,-5.6 14.4,-8.4 14.4,-12 C14.4,-14.9 12.2,-17.7 9.4,-18.3 C9.5,-18.4 9.6,-18.5 9.7,-18.6 C11.1,-19.6 13,-20.1 14.9,-20.1 C19.1,-20.1 23.6,-17.6 23.6,-12.2 C23.6,-5.9 18.9,-5 17.7,-4.8 C16.5,-4.6 10.9,-4.2 9.7,-4.2 C8.5,-4.2 8.4,-2.8 8.4,-2.8 L8.4,-0.8 C8.4,-0.8 8.6,0.3 9.7,0.4 C11.4,0.5 13.7,0.5 16.9,1 C21.3,1.6 23.6,4.6 23.6,11.6 C23.6,18.3 19.1,20.1 14.9,20.1 C12.1,20.1 9.5,19.3 8.4,18.5 C11.7,18.3 14.4,15.4 14.4,12.1 C14.4,8.5 11.6,5.6 8,5.6 C4.4,5.6 1.5,8.5 1.5,12.1 C1.5,12.1 1.5,12.3 1.5,12.5 C1.5,13.8 1.8,17.4 5.4,20.7 C9.3,24.3 14.2,24.4 16.4,24.4 C26,24.4 36.4,21.1 36.4,10.2 C36.4,2.9 31.4,-0.2 27,-1.6 L27.2,-1.6 "/>
<path class="TimeSig" transform="matrix(0.992001,0,0,0.992001,364.266,708.599)" d="M20.8,12.7 L20.8,20.1 L12.5,20.1 C11.8,20.1 11.1,20.7 11.1,21.5 L11.1,23.4 C11.1,24.2 11.8,24.8 12.5,24.8 L42.8,24.8 C43.6,24.8 44.2,24.2 44.2,23.4 L44.2,21.5 C44.2,20.7 43.6,20.1 42.8,20.1 L33.8,20.1 L33.8,12.7 L42.8,12.7 C43.6,12.7 44.2,12 44.2,11.2 L44.2,9.3 C44.2,8.6 43.6,7.9 42.8,7.9 L33.8,7.9 L33.8,-8 C33.8,-8.6 33.5,-9.1 33.1,-9.3 L31.9,-9.9 C31.7,-10 31.6,-10 31.4,-10 C31.3,-10 31.3,-10 31.2,-10 C30.9,-10 30.5,-9.9 30.3,-9.7 L21.2,-1.4 C20.9,-1.1 20.8,-0.7 20.8,-0.3 L20.8,7.9 L9.2,7.9 C9.2,7.9 20.4,-4.1 32.2,-19.9 C32.6,-20.4 32.7,-20.9 32.7,-21.3 C32.7,-21.8 32.5,-22.2 32.4,-22.3 L30.2,-24.5 C29.9,-24.7 29.6,-24.9 29.2,-24.9 C28.6,-24.9 15.1,-24.9 14.3,-24.9 C13.6,-24.9 13.1,-24.3 13,-23.7 C13,-23.7 12.5,-16.3 9.9,-8.2 C7.3,-0.1 4.3,4.9 1.7,8.6 C1.7,8.6 1.4,9.1 1.4,9.7 C1.4,9.9 1.4,10.1 1.5,10.3 C1.8,11 2.5,12.1 2.5,12.1 C2.5,12.1 2.7,12.7 3.6,12.7 L20.8,12.7 "/>
<path class="Harmony" d="M1085.09,1003.3 L1083,1003.3 L1080.8,1006.55 C1076.79,1003.63 1074.75,1002.86 1070.96,1002.86 C1065.73,1002.86 1061.28,1005.06 1057.59,1009.46 C1054.07,1013.64 1052.42,1018.26 1052.42,1023.93 C1052.42,1035.81 1060.18,1044.22 1071.01,1044.22 C1079.81,1044.22 1085.42,1039.05 1086.69,1029.81 L1084.1,1029.37 C1082.62,1037.57 1078.44,1041.64 1071.67,1041.64 C1063.53,1041.64 1059.68,1036.03 1059.68,1024.15 C1059.68,1017.88 1060.51,1013.75 1062.38,1010.45 C1064.08,1007.37 1067.44,1005.45 1071.01,1005.45 C1074.86,1005.45 1078.27,1007.48 1080.36,1011 C1081.41,1012.82 1082.18,1014.85 1083.5,1019.2 L1085.92,1019.2 L1085.09,1003.3 "/>
<path class="Harmony" d="M2343.58,1474.89 L2310.85,1474.89 L2310.85,1477.48 L2311.84,1477.48 C2314.98,1477.53 2316.02,1477.7 2316.46,1478.25 C2316.79,1478.74 2316.79,1478.85 2316.79,1481.66 L2316.79,1507.84 C2316.79,1510.64 2316.79,1510.75 2316.46,1511.25 C2316.02,1511.8 2314.98,1512.02 2311.84,1512.02 L2310.85,1512.02 L2310.85,1514.6 L2329.72,1514.6 L2329.72,1512.02 L2327.9,1512.02 C2324.77,1512.02 2323.72,1511.8 2323.28,1511.25 C2322.95,1510.75 2322.95,1510.59 2322.95,1507.84 L2322.95,1495.35 L2324.05,1495.35 C2329.72,1495.13 2331.75,1497.17 2331.97,1503.27 L2334.56,1503.27 L2334.56,1485.23 L2331.97,1485.23 C2331.64,1490.62 2329.5,1492.71 2324.27,1492.77 L2322.95,1492.77 L2322.95,1480.23 C2322.9,1477.92 2323.45,1477.53 2326.42,1477.48 L2328.95,1477.48 C2337.97,1477.42 2340.22,1479.46 2341.93,1488.92 L2344.35,1488.92 L2343.58,1474.89 "/>
<path class="Harmony" d="M605.718,1462.49 L572.993,1462.49 L572.993,1465.07 L573.983,1465.07 C577.118,1465.13 578.163,1465.29 578.603,1465.84 C578.933,1466.34 578.933,1466.45 578.933,1469.25 L578.933,1495.43 C578.933,1498.24 578.933,1498.35 578.603,1498.84 C578.163,1499.39 577.118,1499.61 573.983,1499.61 L572.993,1499.61 L572.993,1502.2 L591.858,1502.2 L591.858,1499.61 L590.043,1499.61 C586.908,1499.61 585.863,1499.39 585.423,1498.84 C585.093,1498.35 585.093,1498.18 585.093,1495.43 L585.093,1482.95 L586.193,1482.95 C591.858,1482.73 593.893,1484.76 594.113,1490.87 L596.698,1490.87 L596.698,1472.83 L594.113,1472.83 C593.783,1478.22 591.638,1480.31 586.413,1480.36 L585.093,1480.36 L585.093,1467.82 C585.038,1465.51 585.588,1465.13 588.558,1465.07 L591.088,1465.07 C600.108,1465.02 602.363,1467.05 604.068,1476.51 L606.488,1476.51 L605.718,1462.49 "/>
<path class="Harmony" d="M2588.58,1003.69 L2555.85,1003.69 L2555.85,1006.27 L2556.84,1006.27 C2559.98,1006.33 2561.02,1006.49 2561.46,1007.04 C2561.79,1007.54 2561.79,1007.65 2561.79,1010.45 L2561.79,1036.63 C2561.79,1039.44 2561.79,1039.55 2561.46,1040.04 C2561.02,1040.59 2559.98,1040.81 2556.84,1040.81 L2555.85,1040.81 L2555.85,1043.4 L2574.72,1043.4 L2574.72,1040.81 L2572.9,1040.81 C2569.77,1040.81 2568.72,1040.59 2568.28,1040.04 C2567.95,1039.55 2567.95,1039.38 2567.95,1036.63 L2567.95,1024.15 L2569.05,1024.15 C2574.72,1023.93 2576.75,1025.96 2576.97,1032.07 L2579.56,1032.07 L2579.56,1014.03 L2576.97,1014.03 C2576.64,1019.42 2574.5,1021.51 2569.27,1021.56 L2567.95,1021.56 L2567.95,1009.02 C2567.9,1006.71 2568.45,1006.33 2571.42,1006.27 L2573.95,1006.27 C2582.97,1006.22 2585.22,1008.25 2586.93,1017.71 L2589.35,1017.71 L2588.58,1003.69 "/>
<path class="Harmony" d="M2435.36,1003.69 L2402.63,1003.69 L2402.63,1006.27 L2403.62,1006.27 C2406.76,1006.33 2407.8,1006.49 2408.24,1007.04 C2408.57,1007.54 2408.57,1007.65 2408.57,1010.45 L2408.57,1036.63 C2408.57,1039.44 2408.57,1039.55 2408.24,1040.04 C2407.8,1040.59 2406.76,1040.81 2403.62,1040.81 L2402.63,1040.81 L2402.63,1043.4 L2421.5,1043.4 L2421.5,1040.81 L2419.68,1040.81 C2416.55,1040.81 2415.5,1040.59 2415.06,1040.04 C2414.73,1039.55 2414.73,1039.38 2414.73,1036.63 L2414.73,1024.15 L2415.83,1024.15 C2421.5,1023.93 2423.53,1025.96 2423.75,1032.07 L2426.34,1032.07 L2426.34,1014.03 L2423.75,1014.03 C2423.42,1019.42 2421.28,1021.51 2416.05,1021.56 L2414.73,1021.56 L2414.73,1009.02 C2414.68,1006.71 2415.23,1006.33 2418.2,1006.27 L2420.73,1006.27 C2429.75,1006.22 2432,1008.25 2433.71,1017.71 L2436.13,1017.71 L2435.36,1003.69 "/>
<path class="Harmony" d="M2282.14,1003.69 L2249.42,1003.69 L2249.42,1006.27 L2250.41,1006.27 C2253.54,1006.33 2254.59,1006.49 2255.03,1007.04 C2255.36,1007.54 2255.36,1007.65 2255.36,1010.45 L2255.36,1036.63 C2255.36,1039.44 2255.36,1039.55 2255.03,1040.04 C2254.59,1040.59 2253.54,1040.81 2250.41,1040.81 L2249.42,1040.81 L2249.42,1043.4 L2268.28,1043.4 L2268.28,1040.81 L2266.47,1040.81 C2263.33,1040.81 2262.29,1040.59 2261.85,1040.04 C2261.52,1039.55 2261.52,1039.38 2261.52,1036.63 L2261.52,1024.15 L2262.62,1024.15 C2268.28,1023.93 2270.32,1025.96 2270.54,1032.07 L2273.12,1032.07 L2273.12,1014.03 L2270.54,1014.03 C2270.21,1019.42 2268.06,1021.51 2262.84,1021.56 L2261.52,1021.56 L2261.52,1009.02 C2261.46,1006.71 2262.01,1006.33 2264.98,1006.27 L2267.51,1006.27 C2276.53,1006.22 2278.79,1008.25 2280.49,1017.71 L2282.91,1017.71 L2282.14,1003.69 "/>
<path class="Harmony" d="M2041.15,1003.69 L2008.42,1003.69 L2008.42,1006.27 L2009.41,1006.27 C2012.55,1006.33 2013.59,1006.49 2014.03,1007.04 C2014.36,1007.54 2014.36,1007.65 2014.36,1010.45 L2014.36,1036.63 C2014.36,1039.44 2014.36,1039.55 2014.03,1040.04 C2013.59,1040.59 2012.55,1040.81 2009.41,1040.81 L2008.42,1040.81 L2008.42,1043.4 L2027.29,1043.4 L2027.29,1040.81 L2025.47,1040.81 C2022.34,1040.81 2021.29,1040.59 2020.85,1040.04 C2020.52,1039.55 2020.52,1039.38 2020.52,1036.63 L2020.52,1024.15 L2021.62,1024.15 C2027.29,1023.93 2029.32,1025.96 2029.54,1032.07 L2032.13,1032.07 L2032.13,1014.03 L2029.54,1014.03 C2029.21,1019.42 2027.07,1021.51 2021.84,1021.56 L2020.52,1021.56 L2020.52,1009.02 C2020.47,1006.71 2021.02,1006.33 2023.99,1006.27 L2026.52,1006.27 C2035.54,1006.22 2037.79,1008.25 2039.5,1017.71 L2041.92,1017.71 L2041.15,1003.69 "/>
<path class="Harmony" d="M772.677,1474.89 L739.952,1474.89 L739.952,1477.48 L740.942,1477.48 C744.077,1477.53 745.122,1477.7 745.562,1478.25 C745.892,1478.74 745.892,1478.85 745.892,1481.66 L745.892,1507.84 C745.892,1510.64 745.892,1510.75 745.562,1511.25 C745.122,1511.8 744.077,1512.02 740.942,1512.02 L739.952,1512.02 L739.952,1514.6 L758.817,1514.6 L758.817,1512.02 L757.002,1512.02 C753.867,1512.02 752.822,1511.8 752.382,1511.25 C752.052,1510.75 752.052,1510.59 752.052,1507.84 L752.052,1495.35 L753.152,1495.35 C758.817,1495.13 760.852,1497.17 761.072,1503.27 L763.657,1503.27 L763.657,1485.23 L761.072,1485.23 C760.742,1490.62 758.597,1492.71 753.372,1492.77 L752.052,1492.77 L752.052,1480.23 C751.997,1477.92 752.547,1477.53 755.517,1477.48 L758.047,1477.48 C767.067,1477.42 769.322,1479.46 771.027,1488.92 L773.447,1488.92 L772.677,1474.89 "/>
<path class="Harmony" d="M1836.86,1003.69 L1804.13,1003.69 L1804.13,1006.27 L1805.12,1006.27 C1808.26,1006.33 1809.3,1006.49 1809.74,1007.04 C1810.07,1007.54 1810.07,1007.65 1810.07,1010.45 L1810.07,1036.63 C1810.07,1039.44 1810.07,1039.55 1809.74,1040.04 C1809.3,1040.59 1808.26,1040.81 1805.12,1040.81 L1804.13,1040.81 L1804.13,1043.4 L1823,1043.4 L1823,1040.81 L1821.18,1040.81 C1818.05,1040.81 1817,1040.59 1816.56,1040.04 C1816.23,1039.55 1816.23,1039.38 1816.23,1036.63 L1816.23,1024.15 L1817.33,1024.15 C1823,1023.93 1825.03,1025.96 1825.25,1032.07 L1827.84,1032.07 L1827.84,1014.03 L1825.25,1014.03 C1824.92,1019.42 1822.78,1021.51 1817.55,1021.56 L1816.23,1021.56 L1816.23,1009.02 C1816.18,1006.71 1816.73,1006.33 1819.7,1006.27 L1822.23,1006.27 C1831.25,1006.22 1833.5,1008.25 1835.21,1017.71 L1837.63,1017.71 L1836.86,1003.69 "/>
<path class="Harmony" d="M1632.57,1003.69 L1599.85,1003.69 L1599.85,1006.27 L1600.84,1006.27 C1603.97,1006.33 1605.02,1006.49 1605.46,1007.04 C1605.79,1007.54 1605.79,1007.65 1605.79,1010.45 L1605.79,1036.63 C1605.79,1039.44 1605.79,1039.55 1605.46,1040.04 C1605.02,1040.59 1603.97,1040.81 1600.84,1040.81 L1599.85,1040.81 L1599.85,1043.4 L1618.71,1043.4 L1618.71,1040.81 L1616.9,1040.81 C1613.76,1040.81 1612.72,1040.59 1612.28,1040.04 C1611.95,1039.55 1611.95,1039.38 1611.95,1036.63 L1611.95,1024.15 L1613.05,1024.15 C1618.71,1023.93 1620.75,1025.96 1620.97,1032.07 L1623.55,1032.07 L1623.55,1014.03 L1620.97,1014.03 C1620.64,1019.42 1618.49,1021.51 1613.27,1021.56 L1611.95,1021.56 L1611.95,1009.02 C1611.89,1006.71 1612.44,1006.33 1615.41,1006.27 L1617.94,1006.27 C1626.96,1006.22 1629.22,1008.25 1630.92,1017.71 L1633.34,1017.71 L1632.57,1003.69 "/>
<path class="Harmony" d="M1391.53,1003.3 L1389.44,1003.3 L1387.24,1006.55 C1383.22,1003.63 1381.19,1002.86 1377.39,1002.86 C1372.17,1002.86 1367.71,1005.06 1364.03,1009.46 C1360.51,1013.64 1358.86,1018.26 1358.86,1023.93 C1358.86,1035.81 1366.61,1044.22 1377.45,1044.22 C1386.25,1044.22 1391.86,1039.05 1393.12,1029.81 L1390.54,1029.37 C1389.05,1037.57 1384.87,1041.64 1378.11,1041.64 C1369.97,1041.64 1366.12,1036.03 1366.12,1024.15 C1366.12,1017.88 1366.94,1013.75 1368.81,1010.45 C1370.52,1007.37 1373.87,1005.45 1377.45,1005.45 C1381.3,1005.45 1384.71,1007.48 1386.8,1011 C1387.84,1012.82 1388.61,1014.85 1389.93,1019.2 L1392.35,1019.2 L1391.53,1003.3 "/>
<path class="Harmony" d="M1238.31,1003.3 L1236.22,1003.3 L1234.02,1006.55 C1230.01,1003.63 1227.97,1002.86 1224.18,1002.86 C1218.95,1002.86 1214.5,1005.06 1210.81,1009.46 C1207.29,1013.64 1205.64,1018.26 1205.64,1023.93 C1205.64,1035.81 1213.4,1044.22 1224.23,1044.22 C1233.03,1044.22 1238.64,1039.05 1239.91,1029.81 L1237.32,1029.37 C1235.84,1037.57 1231.66,1041.64 1224.89,1041.64 C1216.75,1041.64 1212.9,1036.03 1212.9,1024.15 C1212.9,1017.88 1213.73,1013.75 1215.6,1010.45 C1217.3,1007.37 1220.66,1005.45 1224.23,1005.45 C1228.08,1005.45 1231.49,1007.48 1233.58,1011 C1234.63,1012.82 1235.4,1014.85 1236.72,1019.2 L1239.14,1019.2 L1238.31,1003.3 "/>
<path class="Harmony" d="M844.1,1003.3 L842.01,1003.3 L839.81,1006.55 C835.795,1003.63 833.76,1002.86 829.965,1002.86 C824.74,1002.86 820.285,1005.06 816.6,1009.46 C813.08,1013.64 811.43,1018.26 811.43,1023.93 C811.43,1035.81 819.185,1044.22 830.02,1044.22 C838.82,1044.22 844.43,1039.05 845.695,1029.81 L843.11,1029.37 C841.625,1037.57 837.445,1041.64 830.68,1041.64 C822.54,1041.64 818.69,1036.03 818.69,1024.15 C818.69,1017.88 819.515,1013.75 821.385,1010.45 C823.09,1007.37 826.445,1005.45 830.02,1005.45 C833.87,1005.45 837.28,1007.48 839.37,1011 C840.415,1012.82 841.185,1014.85 842.505,1019.2 L844.925,1019.2 L844.1,1003.3 "/>
<path class="Harmony" d="M639.811,1003.3 L637.721,1003.3 L635.521,1006.55 C631.506,1003.63 629.471,1002.86 625.676,1002.86 C620.451,1002.86 615.996,1005.06 612.311,1009.46 C608.791,1013.64 607.141,1018.26 607.141,1023.93 C607.141,1035.81 614.896,1044.22 625.731,1044.22 C634.531,1044.22 640.141,1039.05 641.406,1029.81 L638.821,1029.37 C637.336,1037.57 633.156,1041.64 626.391,1041.64 C618.251,1041.64 614.401,1036.03 614.401,1024.15 C614.401,1017.88 615.226,1013.75 617.096,1010.45 C618.801,1007.37 622.156,1005.45 625.731,1005.45 C629.581,1005.45 632.991,1007.48 635.081,1011 C636.126,1012.82 636.896,1014.85 638.216,1019.2 L640.636,1019.2 L639.811,1003.3 "/>
<path class="Harmony" d="M1034.12,1474.89 L1001.39,1474.89 L1001.39,1477.48 L1002.38,1477.48 C1005.52,1477.53 1006.56,1477.7 1007,1478.25 C1007.33,1478.74 1007.33,1478.85 1007.33,1481.66 L1007.33,1507.84 C1007.33,1510.64 1007.33,1510.75 1007,1511.25 C1006.56,1511.8 1005.52,1512.02 1002.38,1512.02 L1001.39,1512.02 L1001.39,1514.6 L1020.26,1514.6 L1020.26,1512.02 L1018.44,1512.02 C1015.31,1512.02 1014.26,1511.8 1013.82,1511.25 C1013.49,1510.75 1013.49,1510.59 1013.49,1507.84 L1013.49,1495.35 L1014.59,1495.35 C1020.26,1495.13 1022.29,1497.17 1022.51,1503.27 L1025.1,1503.27 L1025.1,1485.23 L1022.51,1485.23 C1022.18,1490.62 1020.04,1492.71 1014.81,1492.77 L1013.49,1492.77 L1013.49,1480.23 C1013.44,1477.92 1013.99,1477.53 1016.96,1477.48 L1019.49,1477.48 C1028.51,1477.42 1030.76,1479.46 1032.47,1488.92 L1034.89,1488.92 L1034.12,1474.89 "/>
<path class="Harmony" d="M1202.67,1474.89 L1169.95,1474.89 L1169.95,1477.48 L1170.94,1477.48 C1174.07,1477.53 1175.12,1477.7 1175.56,1478.25 C1175.89,1478.74 1175.89,1478.85 1175.89,1481.66 L1175.89,1507.84 C1175.89,1510.64 1175.89,1510.75 1175.56,1511.25 C1175.12,1511.8 1174.07,1512.02 1170.94,1512.02 L1169.95,1512.02 L1169.95,1514.6 L1188.81,1514.6 L1188.81,1512.02 L1187,1512.02 C1183.86,1512.02 1182.82,1511.8 1182.38,1511.25 C1182.05,1510.75 1182.05,1510.59 1182.05,1507.84 L1182.05,1495.35 L1183.15,1495.35 C1188.81,1495.13 1190.85,1497.17 1191.07,1503.27 L1193.65,1503.27 L1193.65,1485.23 L1191.07,1485.23 C1190.74,1490.62 1188.59,1492.71 1183.37,1492.77 L1182.05,1492.77 L1182.05,1480.23 C1181.99,1477.92 1182.54,1477.53 1185.51,1477.48 L1188.04,1477.48 C1197.06,1477.42 1199.32,1479.46 1201.02,1488.92 L1203.44,1488.92 L1202.67,1474.89 "/>
<path class="Harmony" d="M435.522,1003.3 L433.432,1003.3 L431.232,1006.55 C427.217,1003.63 425.182,1002.86 421.387,1002.86 C416.162,1002.86 411.707,1005.06 408.022,1009.46 C404.502,1013.64 402.852,1018.26 402.852,1023.93 C402.852,1035.81 410.607,1044.22 421.442,1044.22 C430.242,1044.22 435.852,1039.05 437.117,1029.81 L434.532,1029.37 C433.047,1037.57 428.867,1041.64 422.102,1041.64 C413.962,1041.64 410.112,1036.03 410.112,1024.15 C410.112,1017.88 410.937,1013.75 412.807,1010.45 C414.512,1007.37 417.867,1005.45 421.442,1005.45 C425.292,1005.45 428.702,1007.48 430.792,1011 C431.837,1012.82 432.607,1014.85 433.927,1019.2 L436.347,1019.2 L435.522,1003.3 "/>
<path class="Harmony" d="M2652.52,532.489 L2619.8,532.489 L2619.8,535.074 L2620.79,535.074 C2623.92,535.129 2624.97,535.294 2625.41,535.844 C2625.74,536.339 2625.74,536.449 2625.74,539.254 L2625.74,565.434 C2625.74,568.239 2625.74,568.349 2625.41,568.844 C2624.97,569.394 2623.92,569.614 2620.79,569.614 L2619.8,569.614 L2619.8,572.199 L2638.66,572.199 L2638.66,569.614 L2636.85,569.614 C2633.71,569.614 2632.67,569.394 2632.23,568.844 C2631.9,568.349 2631.9,568.184 2631.9,565.434 L2631.9,552.949 L2633,552.949 C2638.66,552.729 2640.7,554.764 2640.92,560.869 L2643.5,560.869 L2643.5,542.829 L2640.92,542.829 C2640.59,548.219 2638.44,550.309 2633.22,550.364 L2631.9,550.364 L2631.9,537.824 C2631.84,535.514 2632.39,535.129 2635.36,535.074 L2637.89,535.074 C2646.91,535.019 2649.17,537.054 2650.87,546.514 L2653.29,546.514 L2652.52,532.489 "/>
<path class="Harmony" d="M1371.22,1474.89 L1338.5,1474.89 L1338.5,1477.48 L1339.49,1477.48 C1342.62,1477.53 1343.67,1477.7 1344.11,1478.25 C1344.44,1478.74 1344.44,1478.85 1344.44,1481.66 L1344.44,1507.84 C1344.44,1510.64 1344.44,1510.75 1344.11,1511.25 C1343.67,1511.8 1342.62,1512.02 1339.49,1512.02 L1338.5,1512.02 L1338.5,1514.6 L1357.36,1514.6 L1357.36,1512.02 L1355.55,1512.02 C1352.41,1512.02 1351.37,1511.8 1350.93,1511.25 C1350.6,1510.75 1350.6,1510.59 1350.6,1507.84 L1350.6,1495.35 L1351.7,1495.35 C1357.36,1495.13 1359.4,1497.17 1359.62,1503.27 L1362.2,1503.27 L1362.2,1485.23 L1359.62,1485.23 C1359.29,1490.62 1357.14,1492.71 1351.92,1492.77 L1350.6,1492.77 L1350.6,1480.23 C1350.54,1477.92 1351.09,1477.53 1354.06,1477.48 L1356.59,1477.48 C1365.61,1477.42 1367.87,1479.46 1369.57,1488.92 L1371.99,1488.92 L1371.22,1474.89 "/>
<path class="Harmony" d="M2512.19,532.489 L2479.46,532.489 L2479.46,535.074 L2480.45,535.074 C2483.59,535.129 2484.63,535.294 2485.07,535.844 C2485.4,536.339 2485.4,536.449 2485.4,539.254 L2485.4,565.434 C2485.4,568.239 2485.4,568.349 2485.07,568.844 C2484.63,569.394 2483.59,569.614 2480.45,569.614 L2479.46,569.614 L2479.46,572.199 L2498.33,572.199 L2498.33,569.614 L2496.51,569.614 C2493.38,569.614 2492.33,569.394 2491.89,568.844 C2491.56,568.349 2491.56,568.184 2491.56,565.434 L2491.56,552.949 L2492.66,552.949 C2498.33,552.729 2500.36,554.764 2500.58,560.869 L2503.17,560.869 L2503.17,542.829 L2500.58,542.829 C2500.25,548.219 2498.11,550.309 2492.88,550.364 L2491.56,550.364 L2491.56,537.824 C2491.51,535.514 2492.06,535.129 2495.03,535.074 L2497.56,535.074 C2506.58,535.019 2508.83,537.054 2510.54,546.514 L2512.96,546.514 L2512.19,532.489 "/>
<path class="Harmony" d="M2371.85,532.489 L2339.12,532.489 L2339.12,535.074 L2340.11,535.074 C2343.25,535.129 2344.29,535.294 2344.73,535.844 C2345.06,536.339 2345.06,536.449 2345.06,539.254 L2345.06,565.434 C2345.06,568.239 2345.06,568.349 2344.73,568.844 C2344.29,569.394 2343.25,569.614 2340.11,569.614 L2339.12,569.614 L2339.12,572.199 L2357.99,572.199 L2357.99,569.614 L2356.17,569.614 C2353.04,569.614 2351.99,569.394 2351.55,568.844 C2351.22,568.349 2351.22,568.184 2351.22,565.434 L2351.22,552.949 L2352.32,552.949 C2357.99,552.729 2360.02,554.764 2360.24,560.869 L2362.83,560.869 L2362.83,542.829 L2360.24,542.829 C2359.91,548.219 2357.77,550.309 2352.54,550.364 L2351.22,550.364 L2351.22,537.824 C2351.17,535.514 2351.72,535.129 2354.69,535.074 L2357.22,535.074 C2366.24,535.019 2368.49,537.054 2370.2,546.514 L2372.62,546.514 L2371.85,532.489 "/>
<path class="Harmony" d="M2628.47,1474.89 L2595.75,1474.89 L2595.75,1477.48 L2596.74,1477.48 C2599.87,1477.53 2600.92,1477.7 2601.36,1478.25 C2601.69,1478.74 2601.69,1478.85 2601.69,1481.66 L2601.69,1507.84 C2601.69,1510.64 2601.69,1510.75 2601.36,1511.25 C2600.92,1511.8 2599.87,1512.02 2596.74,1512.02 L2595.75,1512.02 L2595.75,1514.6 L2614.61,1514.6 L2614.61,1512.02 L2612.8,1512.02 C2609.66,1512.02 2608.62,1511.8 2608.18,1511.25 C2607.85,1510.75 2607.85,1510.59 2607.85,1507.84 L2607.85,1495.35 L2608.95,1495.35 C2614.61,1495.13 2616.65,1497.17 2616.87,1503.27 L2619.45,1503.27 L2619.45,1485.23 L2616.87,1485.23 C2616.54,1490.62 2614.39,1492.71 2609.17,1492.77 L2607.85,1492.77 L2607.85,1480.23 C2607.79,1477.92 2608.34,1477.53 2611.31,1477.48 L2613.84,1477.48 C2622.86,1477.42 2625.12,1479.46 2626.82,1488.92 L2629.24,1488.92 L2628.47,1474.89 "/>
<path class="Harmony" d="M2113.68,532.104 L2111.59,532.104 L2109.39,535.349 C2105.37,532.434 2103.34,531.664 2099.54,531.664 C2094.32,531.664 2089.86,533.864 2086.18,538.264 C2082.66,542.444 2081.01,547.064 2081.01,552.729 C2081.01,564.609 2088.76,573.024 2099.6,573.024 C2108.4,573.024 2114.01,567.854 2115.27,558.614 L2112.69,558.174 C2111.2,566.369 2107.02,570.439 2100.26,570.439 C2092.12,570.439 2088.27,564.829 2088.27,552.949 C2088.27,546.679 2089.09,542.554 2090.96,539.254 C2092.67,536.174 2096.02,534.249 2099.6,534.249 C2103.45,534.249 2106.86,536.284 2108.95,539.804 C2109.99,541.619 2110.76,543.654 2112.08,547.999 L2114.5,547.999 L2113.68,532.104 "/>
<path class="Harmony" d="M1632.61,1474.51 L1630.52,1474.51 L1628.32,1477.75 C1624.31,1474.84 1622.27,1474.07 1618.48,1474.07 C1613.25,1474.07 1608.8,1476.27 1605.11,1480.67 C1601.59,1484.85 1599.94,1489.47 1599.94,1495.13 C1599.94,1507.01 1607.7,1515.43 1618.53,1515.43 C1627.33,1515.43 1632.94,1510.26 1634.21,1501.02 L1631.62,1500.58 C1630.14,1508.77 1625.96,1512.84 1619.19,1512.84 C1611.05,1512.84 1607.2,1507.23 1607.2,1495.35 C1607.2,1489.08 1608.03,1484.96 1609.9,1481.66 C1611.6,1478.58 1614.96,1476.65 1618.53,1476.65 C1622.38,1476.65 1625.79,1478.69 1627.88,1482.21 C1628.93,1484.02 1629.7,1486.06 1631.02,1490.4 L1633.44,1490.4 L1632.61,1474.51 "/>
<path class="Harmony" d="M1892.26,532.104 L1890.17,532.104 L1887.97,535.349 C1883.96,532.434 1881.92,531.664 1878.13,531.664 C1872.9,531.664 1868.45,533.864 1864.76,538.264 C1861.24,542.444 1859.59,547.064 1859.59,552.729 C1859.59,564.609 1867.35,573.024 1878.18,573.024 C1886.98,573.024 1892.59,567.854 1893.86,558.614 L1891.27,558.174 C1889.79,566.369 1885.61,570.439 1878.84,570.439 C1870.7,570.439 1866.85,564.829 1866.85,552.949 C1866.85,546.679 1867.68,542.554 1869.55,539.254 C1871.25,536.174 1874.61,534.249 1878.18,534.249 C1882.03,534.249 1885.44,536.284 1887.53,539.804 C1888.58,541.619 1889.35,543.654 1890.67,547.999 L1893.09,547.999 L1892.26,532.104 "/>
<path class="Harmony" d="M1670.85,532.104 L1668.76,532.104 L1666.56,535.349 C1662.55,532.434 1660.51,531.664 1656.72,531.664 C1651.49,531.664 1647.04,533.864 1643.35,538.264 C1639.83,542.444 1638.18,547.064 1638.18,552.729 C1638.18,564.609 1645.94,573.024 1656.77,573.024 C1665.57,573.024 1671.18,567.854 1672.45,558.614 L1669.86,558.174 C1668.38,566.369 1664.2,570.439 1657.43,570.439 C1649.29,570.439 1645.44,564.829 1645.44,552.949 C1645.44,546.679 1646.27,542.554 1648.14,539.254 C1649.84,536.174 1653.2,534.249 1656.77,534.249 C1660.62,534.249 1664.03,536.284 1666.12,539.804 C1667.17,541.619 1667.94,543.654 1669.26,547.999 L1671.68,547.999 L1670.85,532.104 "/>
<path class="Harmony" d="M1857.35,1474.51 L1855.26,1474.51 L1853.06,1477.75 C1849.05,1474.84 1847.01,1474.07 1843.22,1474.07 C1837.99,1474.07 1833.54,1476.27 1829.85,1480.67 C1826.33,1484.85 1824.68,1489.47 1824.68,1495.13 C1824.68,1507.01 1832.44,1515.43 1843.27,1515.43 C1852.07,1515.43 1857.68,1510.26 1858.95,1501.02 L1856.36,1500.58 C1854.88,1508.77 1850.7,1512.84 1843.93,1512.84 C1835.79,1512.84 1831.94,1507.23 1831.94,1495.35 C1831.94,1489.08 1832.77,1484.96 1834.64,1481.66 C1836.34,1478.58 1839.7,1476.65 1843.27,1476.65 C1847.12,1476.65 1850.53,1478.69 1852.62,1482.21 C1853.67,1484.02 1854.44,1486.06 1855.76,1490.4 L1858.18,1490.4 L1857.35,1474.51 "/>
<path class="Harmony" d="M1469.73,371.289 L1437.01,371.289 L1437.01,373.874 L1438,373.874 C1441.13,373.929 1442.18,374.094 1442.62,374.644 C1442.95,375.139 1442.95,375.249 1442.95,378.054 L1442.95,404.234 C1442.95,407.039 1442.95,407.149 1442.62,407.644 C1442.18,408.194 1441.13,408.414 1438,408.414 L1437.01,408.414 L1437.01,410.999 L1455.87,410.999 L1455.87,408.414 L1454.06,408.414 C1450.92,408.414 1449.88,408.194 1449.44,407.644 C1449.11,407.149 1449.11,406.984 1449.11,404.234 L1449.11,391.749 L1450.21,391.749 C1455.87,391.529 1457.91,393.564 1458.13,399.669 L1460.71,399.669 L1460.71,381.629 L1458.13,381.629 C1457.8,387.019 1455.65,389.109 1450.43,389.164 L1449.11,389.164 L1449.11,376.624 C1449.05,374.314 1449.6,373.929 1452.57,373.874 L1455.1,373.874 C1464.12,373.819 1466.38,375.854 1468.08,385.314 L1470.5,385.314 L1469.73,371.289 "/>
<path class="Harmony" d="M1302.08,532.489 L1269.35,532.489 L1269.35,535.074 L1270.34,535.074 C1273.48,535.129 1274.52,535.294 1274.96,535.844 C1275.29,536.339 1275.29,536.449 1275.29,539.254 L1275.29,565.434 C1275.29,568.239 1275.29,568.349 1274.96,568.844 C1274.52,569.394 1273.48,569.614 1270.34,569.614 L1269.35,569.614 L1269.35,572.199 L1288.22,572.199 L1288.22,569.614 L1286.4,569.614 C1283.27,569.614 1282.22,569.394 1281.78,568.844 C1281.45,568.349 1281.45,568.184 1281.45,565.434 L1281.45,552.949 L1282.55,552.949 C1288.22,552.729 1290.25,554.764 1290.47,560.869 L1293.06,560.869 L1293.06,542.829 L1290.47,542.829 C1290.14,548.219 1288,550.309 1282.77,550.364 L1281.45,550.364 L1281.45,537.824 C1281.4,535.514 1281.95,535.129 1284.92,535.074 L1287.45,535.074 C1296.47,535.019 1298.72,537.054 1300.43,546.514 L1302.85,546.514 L1302.08,532.489 "/>
<path class="Harmony" d="M2082.09,1474.51 L2080,1474.51 L2077.8,1477.75 C2073.78,1474.84 2071.75,1474.07 2067.95,1474.07 C2062.73,1474.07 2058.27,1476.27 2054.59,1480.67 C2051.07,1484.85 2049.42,1489.47 2049.42,1495.13 C2049.42,1507.01 2057.17,1515.43 2068.01,1515.43 C2076.81,1515.43 2082.42,1510.26 2083.68,1501.02 L2081.1,1500.58 C2079.61,1508.77 2075.43,1512.84 2068.67,1512.84 C2060.53,1512.84 2056.68,1507.23 2056.68,1495.35 C2056.68,1489.08 2057.5,1484.96 2059.37,1481.66 C2061.08,1478.58 2064.43,1476.65 2068.01,1476.65 C2071.86,1476.65 2075.27,1478.69 2077.36,1482.21 C2078.4,1484.02 2079.17,1486.06 2080.49,1490.4 L2082.91,1490.4 L2082.09,1474.51 "/>
<path class="Harmony" d="M1080.66,532.489 L1047.94,532.489 L1047.94,535.074 L1048.93,535.074 C1052.06,535.129 1053.11,535.294 1053.55,535.844 C1053.88,536.339 1053.88,536.449 1053.88,539.254 L1053.88,565.434 C1053.88,568.239 1053.88,568.349 1053.55,568.844 C1053.11,569.394 1052.06,569.614 1048.93,569.614 L1047.94,569.614 L1047.94,572.199 L1066.8,572.199 L1066.8,569.614 L1064.99,569.614 C1061.85,569.614 1060.81,569.394 1060.37,568.844 C1060.04,568.349 1060.04,568.184 1060.04,565.434 L1060.04,552.949 L1061.14,552.949 C1066.8,552.729 1068.84,554.764 1069.06,560.869 L1071.64,560.869 L1071.64,542.829 L1069.06,542.829 C1068.73,548.219 1066.58,550.309 1061.36,550.364 L1060.04,550.364 L1060.04,537.824 C1059.98,535.514 1060.53,535.129 1063.5,535.074 L1066.03,535.074 C1075.05,535.019 1077.31,537.054 1079.01,546.514 L1081.43,546.514 L1080.66,532.489 "/>
<path class="Harmony" d="M877.9,532.489 L845.175,532.489 L845.175,535.074 L846.165,535.074 C849.3,535.129 850.345,535.294 850.785,535.844 C851.115,536.339 851.115,536.449 851.115,539.254 L851.115,565.434 C851.115,568.239 851.115,568.349 850.785,568.844 C850.345,569.394 849.3,569.614 846.165,569.614 L845.175,569.614 L845.175,572.199 L864.04,572.199 L864.04,569.614 L862.225,569.614 C859.09,569.614 858.045,569.394 857.605,568.844 C857.275,568.349 857.275,568.184 857.275,565.434 L857.275,552.949 L858.375,552.949 C864.04,552.729 866.075,554.764 866.295,560.869 L868.88,560.869 L868.88,542.829 L866.295,542.829 C865.965,548.219 863.82,550.309 858.595,550.364 L857.275,550.364 L857.275,537.824 C857.22,535.514 857.77,535.129 860.74,535.074 L863.27,535.074 C872.29,535.019 874.545,537.054 876.25,546.514 L878.67,546.514 L877.9,532.489 "/>
<path class="Harmony" d="M711.84,532.489 L679.115,532.489 L679.115,535.074 L680.105,535.074 C683.24,535.129 684.285,535.294 684.725,535.844 C685.055,536.339 685.055,536.449 685.055,539.254 L685.055,565.434 C685.055,568.239 685.055,568.349 684.725,568.844 C684.285,569.394 683.24,569.614 680.105,569.614 L679.115,569.614 L679.115,572.199 L697.98,572.199 L697.98,569.614 L696.165,569.614 C693.03,569.614 691.985,569.394 691.545,568.844 C691.215,568.349 691.215,568.184 691.215,565.434 L691.215,552.949 L692.315,552.949 C697.98,552.729 700.015,554.764 700.235,560.869 L702.82,560.869 L702.82,542.829 L700.235,542.829 C699.905,548.219 697.76,550.309 692.535,550.364 L691.215,550.364 L691.215,537.824 C691.16,535.514 691.71,535.129 694.68,535.074 L697.21,535.074 C706.23,535.019 708.485,537.054 710.19,546.514 L712.61,546.514 L711.84,532.489 "/>
<path class="Harmony" d="M490.426,532.489 L457.701,532.489 L457.701,535.074 L458.691,535.074 C461.826,535.129 462.871,535.294 463.311,535.844 C463.641,536.339 463.641,536.449 463.641,539.254 L463.641,565.434 C463.641,568.239 463.641,568.349 463.311,568.844 C462.871,569.394 461.826,569.614 458.691,569.614 L457.701,569.614 L457.701,572.199 L476.566,572.199 L476.566,569.614 L474.751,569.614 C471.616,569.614 470.571,569.394 470.131,568.844 C469.801,568.349 469.801,568.184 469.801,565.434 L469.801,552.949 L470.901,552.949 C476.566,552.729 478.601,554.764 478.821,560.869 L481.406,560.869 L481.406,542.829 L478.821,542.829 C478.491,548.219 476.346,550.309 471.121,550.364 L469.801,550.364 L469.801,537.824 C469.746,535.514 470.296,535.129 473.266,535.074 L475.796,535.074 C484.816,535.019 487.071,537.054 488.776,546.514 L491.196,546.514 L490.426,532.489 "/>
<path class="Harmony" d="M2486.02,1474.89 L2453.3,1474.89 L2453.3,1477.48 L2454.29,1477.48 C2457.42,1477.53 2458.47,1477.7 2458.91,1478.25 C2459.24,1478.74 2459.24,1478.85 2459.24,1481.66 L2459.24,1507.84 C2459.24,1510.64 2459.24,1510.75 2458.91,1511.25 C2458.47,1511.8 2457.42,1512.02 2454.29,1512.02 L2453.3,1512.02 L2453.3,1514.6 L2472.16,1514.6 L2472.16,1512.02 L2470.35,1512.02 C2467.21,1512.02 2466.17,1511.8 2465.73,1511.25 C2465.4,1510.75 2465.4,1510.59 2465.4,1507.84 L2465.4,1495.35 L2466.5,1495.35 C2472.16,1495.13 2474.2,1497.17 2474.42,1503.27 L2477,1503.27 L2477,1485.23 L2474.42,1485.23 C2474.09,1490.62 2471.94,1492.71 2466.72,1492.77 L2465.4,1492.77 L2465.4,1480.23 C2465.34,1477.92 2465.89,1477.53 2468.86,1477.48 L2471.39,1477.48 C2480.41,1477.42 2482.67,1479.46 2484.37,1488.92 L2486.79,1488.92 L2486.02,1474.89 "/>
<path class="Harmony" d="M435.572,1474.89 L402.847,1474.89 L402.847,1477.48 L403.837,1477.48 C406.972,1477.53 408.017,1477.7 408.457,1478.25 C408.787,1478.74 408.787,1478.85 408.787,1481.66 L408.787,1507.84 C408.787,1510.64 408.787,1510.75 408.457,1511.25 C408.017,1511.8 406.972,1512.02 403.837,1512.02 L402.847,1512.02 L402.847,1514.6 L421.712,1514.6 L421.712,1512.02 L419.897,1512.02 C416.762,1512.02 415.717,1511.8 415.277,1511.25 C414.947,1510.75 414.947,1510.59 414.947,1507.84 L414.947,1495.35 L416.047,1495.35 C421.712,1495.13 423.747,1497.17 423.967,1503.27 L426.552,1503.27 L426.552,1485.23 L423.967,1485.23 C423.637,1490.62 421.492,1492.71 416.267,1492.77 L414.947,1492.77 L414.947,1480.23 C414.892,1477.92 415.442,1477.53 418.412,1477.48 L420.942,1477.48 C429.962,1477.42 432.217,1479.46 433.922,1488.92 L436.342,1488.92 L435.572,1474.89 "/>
<path class="NoteDot" transform="matrix(0.992001,0,0,0.992001,2355.48,1663.4)" d="M0,0 C0,2.8 2.2,5 5,5 C7.8,5 10,2.8 10,0 C10,-2.8 7.8,-5 5,-5 C2.2,-5 0,-2.8 0,0"/>
<path class="NoteDot" transform="matrix(0.992001,0,0,0.992001,2383.74,720.999)" d="M0,0 C0,2.8 2.2,5 5,5 C7.8,5 10,2.8 10,0 C10,-2.8 7.8,-5 5,-5 C2.2,-5 0,-2.8 0,0"/>
</svg>
