<?xml version="1.0" encoding="UTF-8" standalone="no"?>
<svg width="210.058mm" height="296.926mm" viewBox="0 0 2977.2 4208.4"
 xmlns="http://www.w3.org/2000/svg" xmlns:xlink="http://www.w3.org/1999/xlink" version="1.2" baseProfile="full">
<title>ちょうちょう</title>
<desc>Generated by MuseScore Studio 4.5.2</desc>
<path class="" fill="#ffffff" fill-rule="evenodd" d="M0,0 L2977.2,0 L2977.2,4208.4 L0,4208.4 L0,0 "/>
<polyline class="StaffLines" fill="none" stroke="#000000" stroke-width="2.73" stroke-linejoin="bevel" points="212.598,634.199 2764.6,634.199" />
<polyline class="StaffLines" fill="none" stroke="#000000" stroke-width="2.73" stroke-linejoin="bevel" points="212.598,658.999 2764.6,658.999" />
<polyline class="StaffLines" fill="none" stroke="#000000" stroke-width="2.73" stroke-linejoin="bevel" points="212.598,683.799 2764.6,683.799" />
<polyline class="StaffLines" fill="none" stroke="#000000" stroke-width="2.73" stroke-linejoin="bevel" points="212.598,708.599 2764.6,708.599" />
<polyline class="StaffLines" fill="none" stroke="#000000" stroke-width="2.73" stroke-linejoin="bevel" points="212.598,733.399 2764.6,733.399" />
<polyline class="StaffLines" fill="none" stroke="#000000" stroke-width="2.73" stroke-linejoin="bevel" points="212.598,1105.4 2764.6,1105.4" />
<polyline class="StaffLines" fill="none" stroke="#000000" stroke-width="2.73" stroke-linejoin="bevel" points="212.598,1130.2 2764.6,1130.2" />
<polyline class="StaffLines" fill="none" stroke="#000000" stroke-width="2.73" stroke-linejoin="bevel" points="212.598,1155 2764.6,1155" />
<polyline class="StaffLines" fill="none" stroke="#000000" stroke-width="2.73" stroke-linejoin="bevel" points="212.598,1179.8 2764.6,1179.8" />
<polyline class="StaffLines" fill="none" stroke="#000000" stroke-width="2.73" stroke-linejoin="bevel" points="212.598,1204.6 2764.6,1204.6" />
<path class="Text" d="M1175.22,238.237 C1175.55,238.237 1175.88,238.237 1176.1,238.237 C1176.76,238.237 1177.75,238.237 1179.18,238.347 C1185.56,238.787 1190.4,239.007 1197.44,239.117 C1193.7,252.097 1187.43,267.497 1182.7,274.977 L1190.62,278.167 C1192.82,275.307 1195.35,273.327 1199.86,271.127 C1207.34,267.387 1216.91,265.187 1225.38,265.187 C1238.58,265.187 1246.5,270.247 1246.5,278.607 C1246.5,289.167 1235.06,296.097 1217.68,296.097 C1207.67,296.097 1198.76,294.337 1190.18,290.597 C1190.51,294.117 1190.73,296.097 1190.73,296.647 C1190.73,296.757 1190.73,296.867 1190.73,297.307 C1190.73,297.637 1190.73,298.297 1190.62,299.067 C1199.42,302.037 1208,303.357 1217.79,303.357 C1240.01,303.357 1254.64,293.567 1254.64,278.607 C1254.64,266.287 1243.53,258.367 1226.15,258.367 C1214.16,258.367 1201.84,261.887 1194.14,267.607 L1194.03,267.387 C1197.11,262.327 1201.95,249.787 1205.03,239.117 C1221.64,238.567 1230.44,237.907 1245.84,235.927 C1248.15,235.597 1248.81,235.597 1250.68,235.377 L1250.13,227.457 C1242.98,229.877 1228.35,231.417 1206.79,232.187 C1207.89,228.227 1208.22,226.907 1209.76,220.527 C1210.97,215.137 1210.97,215.137 1211.52,213.487 L1202.72,212.607 C1202.61,217.557 1201.51,223.717 1199.2,232.297 C1187.65,232.297 1180.61,231.747 1175.44,230.427 L1175.22,238.237 M1322.29,231.967 C1322.62,233.397 1322.62,234.057 1322.73,235.487 L1322.84,247.477 C1322.95,258.477 1323.06,261.777 1323.5,269.257 C1323.94,278.387 1323.94,278.387 1324.05,278.827 C1324.05,279.487 1324.05,279.597 1324.16,280.147 C1322.95,279.597 1318.99,279.047 1315.91,279.047 C1311.4,279.047 1306.45,279.927 1302.71,281.467 C1297.54,283.557 1294.35,288.177 1294.35,293.347 C1294.35,296.867 1295.78,299.947 1298.42,302.367 C1301.39,305.117 1306.56,306.547 1313.05,306.547 C1320.53,306.547 1326.14,304.567 1328.78,300.937 C1330.21,299.067 1331.31,295.107 1331.31,292.027 C1331.31,290.487 1331.2,289.057 1331.09,288.067 C1331.86,288.507 1332.52,288.837 1332.85,288.947 C1340.77,292.467 1349.9,298.517 1354.08,303.357 L1358.37,296.537 C1357.27,295.877 1356.72,295.657 1355.73,294.887 C1349.02,290.157 1348.03,289.497 1345.17,287.737 C1340.33,284.987 1335.82,283.007 1330.98,281.357 C1330.32,271.787 1330.1,265.847 1329.88,258.697 C1336.26,258.697 1341.65,258.147 1350.12,257.047 C1354.85,256.387 1354.85,256.387 1356.06,256.277 L1355.29,249.237 C1350.23,251.107 1339.34,252.537 1329.66,252.537 C1329.55,247.697 1329.55,245.167 1329.55,244.837 C1329.55,237.247 1329.66,234.387 1330.21,232.077 L1322.29,231.967 M1324.27,286.197 C1324.38,286.197 1324.6,289.167 1324.6,290.487 C1324.6,293.457 1324.16,295.437 1323.17,296.867 C1321.52,299.067 1318,300.167 1312.72,300.167 C1305.35,300.167 1301.39,297.747 1301.39,293.237 C1301.39,288.177 1306.56,285.097 1315.25,285.097 C1318.44,285.097 1320.75,285.427 1324.27,286.197 M1412.6,222.617 C1427.34,226.797 1440.87,228.887 1458.8,229.877 L1460.01,221.957 C1441.97,221.737 1426.02,219.207 1415.24,215.137 L1412.6,222.617 M1401.16,258.367 C1409.74,254.847 1431.74,250.997 1443.07,250.997 C1448.79,250.997 1453.85,251.877 1456.6,253.417 C1461.11,255.837 1463.64,260.237 1463.64,265.737 C1463.64,270.797 1461.77,275.747 1458.03,280.697 C1455.39,284.107 1452.97,286.087 1448.57,288.507 C1439.33,293.787 1429.32,296.647 1417.66,297.417 C1419.31,300.057 1419.75,301.047 1421.18,305.447 C1437.57,302.367 1444.72,300.057 1453.08,294.997 C1465.29,287.517 1472,277.067 1472,265.297 C1472,257.707 1468.81,251.657 1462.65,247.807 C1458.14,244.947 1451.98,243.627 1443.73,243.627 C1435.04,243.627 1424.81,244.837 1410.18,247.587 C1401.6,249.237 1401.6,249.237 1399.07,249.457 L1401.16,258.367 M1505.22,238.237 C1505.55,238.237 1505.88,238.237 1506.1,238.237 C1506.76,238.237 1507.75,238.237 1509.18,238.347 C1515.56,238.787 1520.4,239.007 1527.44,239.117 C1523.7,252.097 1517.43,267.497 1512.7,274.977 L1520.62,278.167 C1522.82,275.307 1525.35,273.327 1529.86,271.127 C1537.34,267.387 1546.91,265.187 1555.38,265.187 C1568.58,265.187 1576.5,270.247 1576.5,278.607 C1576.5,289.167 1565.06,296.097 1547.68,296.097 C1537.67,296.097 1528.76,294.337 1520.18,290.597 C1520.51,294.117 1520.73,296.097 1520.73,296.647 C1520.73,296.757 1520.73,296.867 1520.73,297.307 C1520.73,297.637 1520.73,298.297 1520.62,299.067 C1529.42,302.037 1538,303.357 1547.79,303.357 C1570.01,303.357 1584.64,293.567 1584.64,278.607 C1584.64,266.287 1573.53,258.367 1556.15,258.367 C1544.16,258.367 1531.84,261.887 1524.14,267.607 L1524.03,267.387 C1527.11,262.327 1531.95,249.787 1535.03,239.117 C1551.64,238.567 1560.44,237.907 1575.84,235.927 C1578.15,235.597 1578.81,235.597 1580.68,235.377 L1580.13,227.457 C1572.98,229.877 1558.35,231.417 1536.79,232.187 C1537.89,228.227 1538.22,226.907 1539.76,220.527 C1540.97,215.137 1540.97,215.137 1541.52,213.487 L1532.72,212.607 C1532.61,217.557 1531.51,223.717 1529.2,232.297 C1517.65,232.297 1510.61,231.747 1505.44,230.427 L1505.22,238.237 M1652.29,231.967 C1652.62,233.397 1652.62,234.057 1652.73,235.487 L1652.84,247.477 C1652.95,258.477 1653.06,261.777 1653.5,269.257 C1653.94,278.387 1653.94,278.387 1654.05,278.827 C1654.05,279.487 1654.05,279.597 1654.16,280.147 C1652.95,279.597 1648.99,279.047 1645.91,279.047 C1641.4,279.047 1636.45,279.927 1632.71,281.467 C1627.54,283.557 1624.35,288.177 1624.35,293.347 C1624.35,296.867 1625.78,299.947 1628.42,302.367 C1631.39,305.117 1636.56,306.547 1643.05,306.547 C1650.53,306.547 1656.14,304.567 1658.78,300.937 C1660.21,299.067 1661.31,295.107 1661.31,292.027 C1661.31,290.487 1661.2,289.057 1661.09,288.067 C1661.86,288.507 1662.52,288.837 1662.85,288.947 C1670.77,292.467 1679.9,298.517 1684.08,303.357 L1688.37,296.537 C1687.27,295.877 1686.72,295.657 1685.73,294.887 C1679.02,290.157 1678.03,289.497 1675.17,287.737 C1670.33,284.987 1665.82,283.007 1660.98,281.357 C1660.32,271.787 1660.1,265.847 1659.88,258.697 C1666.26,258.697 1671.65,258.147 1680.12,257.047 C1684.85,256.387 1684.85,256.387 1686.06,256.277 L1685.29,249.237 C1680.23,251.107 1669.34,252.537 1659.66,252.537 C1659.55,247.697 1659.55,245.167 1659.55,244.837 C1659.55,237.247 1659.66,234.387 1660.21,232.077 L1652.29,231.967 M1654.27,286.197 C1654.38,286.197 1654.6,289.167 1654.6,290.487 C1654.6,293.457 1654.16,295.437 1653.17,296.867 C1651.52,299.067 1648,300.167 1642.72,300.167 C1635.35,300.167 1631.39,297.747 1631.39,293.237 C1631.39,288.177 1636.56,285.097 1645.25,285.097 C1648.44,285.097 1650.75,285.427 1654.27,286.197 M1742.6,222.617 C1757.34,226.797 1770.87,228.887 1788.8,229.877 L1790.01,221.957 C1771.97,221.737 1756.02,219.207 1745.24,215.137 L1742.6,222.617 M1731.16,258.367 C1739.74,254.847 1761.74,250.997 1773.07,250.997 C1778.79,250.997 1783.85,251.877 1786.6,253.417 C1791.11,255.837 1793.64,260.237 1793.64,265.737 C1793.64,270.797 1791.77,275.747 1788.03,280.697 C1785.39,284.107 1782.97,286.087 1778.57,288.507 C1769.33,293.787 1759.32,296.647 1747.66,297.417 C1749.31,300.057 1749.75,301.047 1751.18,305.447 C1767.57,302.367 1774.72,300.057 1783.08,294.997 C1795.29,287.517 1802,277.067 1802,265.297 C1802,257.707 1798.81,251.657 1792.65,247.807 C1788.14,244.947 1781.98,243.627 1773.73,243.627 C1765.04,243.627 1754.81,244.837 1740.18,247.587 C1731.6,249.237 1731.6,249.237 1729.07,249.457 L1731.16,258.367 "/>
<path class="MeasureNumber" d="M228.053,1042.12 C227.053,1046.76 224.373,1054.72 218.653,1054.72 C217.493,1054.72 216.733,1054.24 216.733,1053.52 C216.733,1053.24 216.813,1053.12 217.133,1052.64 C217.533,1052.12 217.733,1051.64 217.733,1051.08 C217.733,1049.76 216.693,1048.76 215.333,1048.76 C213.733,1048.76 212.613,1049.96 212.613,1051.72 C212.613,1054.44 215.173,1056.4 218.733,1056.4 C227.493,1056.4 233.093,1045.2 233.093,1037.6 C233.093,1031.36 230.093,1027.64 225.133,1027.64 C219.173,1027.64 214.733,1033.12 214.733,1038.84 C214.733,1042.64 217.653,1045.52 221.533,1045.52 C224.173,1045.52 226.213,1044.44 228.053,1042.12 M225.093,1029.32 C227.653,1029.32 229.293,1031.36 229.293,1034.56 C229.293,1039.52 226.573,1043.16 222.893,1043.16 C220.373,1043.16 218.973,1041.44 218.973,1038.44 C218.973,1034.84 220.693,1029.32 225.093,1029.32"/>
<polyline class="BarLine" fill="none" stroke="#000000" stroke-width="4.46" stroke-linejoin="bevel" points="2136.18,1104.04 2136.18,1205.96" />
<polyline class="BarLine" fill="none" stroke="#000000" stroke-width="4.46" stroke-linejoin="bevel" points="2740.42,1104.04 2740.42,1205.96" />
<polyline class="BarLine" fill="none" stroke="#000000" stroke-width="13.64" stroke-linejoin="bevel" points="2757.78,1104.04 2757.78,1205.96" />
<polyline class="BarLine" fill="none" stroke="#000000" stroke-width="4.46" stroke-linejoin="bevel" points="2762.37,632.835 2762.37,734.763" />
<polyline class="BarLine" fill="none" stroke="#000000" stroke-width="4.46" stroke-linejoin="bevel" points="2166.35,632.835 2166.35,734.763" />
<polyline class="BarLine" fill="none" stroke="#000000" stroke-width="4.46" stroke-linejoin="bevel" points="643.257,1104.04 643.257,1205.96" />
<polyline class="BarLine" fill="none" stroke="#000000" stroke-width="4.46" stroke-linejoin="bevel" points="2455.99,1104.04 2455.99,1205.96" />
<polyline class="BarLine" fill="none" stroke="#000000" stroke-width="4.46" stroke-linejoin="bevel" points="1850.92,632.835 1850.92,734.763" />
<polyline class="BarLine" fill="none" stroke="#000000" stroke-width="4.46" stroke-linejoin="bevel" points="927.685,1104.04 927.685,1205.96" />
<polyline class="BarLine" fill="none" stroke="#000000" stroke-width="4.46" stroke-linejoin="bevel" points="1535.49,632.835 1535.49,734.763" />
<polyline class="BarLine" fill="none" stroke="#000000" stroke-width="4.46" stroke-linejoin="bevel" points="1247.5,1104.04 1247.5,1205.96" />
<polyline class="BarLine" fill="none" stroke="#000000" stroke-width="4.46" stroke-linejoin="bevel" points="2481.78,632.835 2481.78,734.763" />
<polyline class="BarLine" fill="none" stroke="#000000" stroke-width="4.46" stroke-linejoin="bevel" points="1254.9,632.835 1254.9,734.763" />
<polyline class="BarLine" fill="none" stroke="#000000" stroke-width="4.46" stroke-linejoin="bevel" points="1531.93,1104.04 1531.93,1205.96" />
<polyline class="BarLine" fill="none" stroke="#000000" stroke-width="4.46" stroke-linejoin="bevel" points="658.883,632.835 658.883,734.763" />
<polyline class="BarLine" fill="none" stroke="#000000" stroke-width="4.46" stroke-linejoin="bevel" points="1851.75,1104.04 1851.75,1205.96" />
<polyline class="BarLine" fill="none" stroke="#000000" stroke-width="4.46" stroke-linejoin="bevel" points="939.472,632.835 939.472,734.763" />
<polyline class="LedgerLine" fill="none" stroke="#000000" stroke-width="3.97" stroke-linejoin="bevel" points="2192.14,758.199 2241.73,758.199" />
<polyline class="LedgerLine" fill="none" stroke="#000000" stroke-width="3.97" stroke-linejoin="bevel" points="965.264,758.199 1014.85,758.199" />
<polyline class="LedgerLine" fill="none" stroke="#000000" stroke-width="3.97" stroke-linejoin="bevel" points="2161.97,1229.4 2211.55,1229.4" />
<polyline class="Stem" fill="none" stroke="#000000" stroke-width="2.73" stroke-linejoin="bevel" points="993.017,1200.63 993.017,1130.2" />
<polyline class="Stem" fill="none" stroke="#000000" stroke-width="2.73" stroke-linejoin="bevel" points="2440.73,704.631 2440.73,634.199" />
<polyline class="Stem" fill="none" stroke="#000000" stroke-width="2.73" stroke-linejoin="bevel" points="1213.85,717.031 1213.85,652.916" />
<polyline class="Stem" fill="none" stroke="#000000" stroke-width="2.73" stroke-linejoin="bevel" points="1454.39,1175.83 1454.39,1093" />
<polyline class="Stem" fill="none" stroke="#000000" stroke-width="2.73" stroke-linejoin="bevel" points="1597.26,1175.83 1597.26,1105.51" />
<polyline class="Stem" fill="none" stroke="#000000" stroke-width="2.73" stroke-linejoin="bevel" points="1144.17,729.431 1144.17,658.882" />
<polyline class="Stem" fill="none" stroke="#000000" stroke-width="2.73" stroke-linejoin="bevel" points="1320.23,704.631 1320.23,634.199" />
<polyline class="Stem" fill="none" stroke="#000000" stroke-width="2.73" stroke-linejoin="bevel" points="1383.61,1188.23 1383.61,1124.11" />
<polyline class="Stem" fill="none" stroke="#000000" stroke-width="2.73" stroke-linejoin="bevel" points="1312.83,1200.63 1312.83,1130.08" />
<polyline class="Stem" fill="none" stroke="#000000" stroke-width="2.73" stroke-linejoin="bevel" points="582.989,729.431 582.989,646.599" />
<polyline class="Stem" fill="none" stroke="#000000" stroke-width="2.73" stroke-linejoin="bevel" points="1389.92,704.631 1389.92,634.199" />
<polyline class="Stem" fill="none" stroke="#000000" stroke-width="2.73" stroke-linejoin="bevel" points="2272.29,1200.63 2272.29,1130.31" />
<polyline class="Stem" fill="none" stroke="#000000" stroke-width="2.73" stroke-linejoin="bevel" points="1459.6,704.631 1459.6,621.799" />
<polyline class="Stem" fill="none" stroke="#000000" stroke-width="2.73" stroke-linejoin="bevel" points="1205.35,1200.63 1205.35,1130.2" />
<polyline class="Stem" fill="none" stroke="#000000" stroke-width="2.73" stroke-linejoin="bevel" points="1134.57,1200.63 1134.57,1130.2" />
<polyline class="Stem" fill="none" stroke="#000000" stroke-width="2.73" stroke-linejoin="bevel" points="513.308,729.431 513.308,640.282" />
<polyline class="Stem" fill="none" stroke="#000000" stroke-width="2.73" stroke-linejoin="bevel" points="1668.04,1200.63 1668.04,1111.48" />
<polyline class="Stem" fill="none" stroke="#000000" stroke-width="2.73" stroke-linejoin="bevel" points="1600.82,704.631 1600.82,634.316" />
<polyline class="Stem" fill="none" stroke="#000000" stroke-width="2.73" stroke-linejoin="bevel" points="1063.8,1200.63 1063.8,1130.2" />
<polyline class="Stem" fill="none" stroke="#000000" stroke-width="2.73" stroke-linejoin="bevel" points="1074.49,741.831 1074.49,677.716" />
<polyline class="Stem" fill="none" stroke="#000000" stroke-width="2.73" stroke-linejoin="bevel" points="1738.82,1200.63 1738.82,1130.2" />
<polyline class="Stem" fill="none" stroke="#000000" stroke-width="2.73" stroke-linejoin="bevel" points="1670.51,729.431 1670.51,640.282" />
<polyline class="Stem" fill="none" stroke="#000000" stroke-width="2.73" stroke-linejoin="bevel" points="2343.07,1175.83 2343.07,1105.4" />
<polyline class="Stem" fill="none" stroke="#000000" stroke-width="2.73" stroke-linejoin="bevel" points="1740.19,729.431 1740.19,658.999" />
<polyline class="Stem" fill="none" stroke="#000000" stroke-width="2.73" stroke-linejoin="bevel" points="850.146,1188.23 850.146,1105.4" />
<polyline class="Stem" fill="none" stroke="#000000" stroke-width="2.73" stroke-linejoin="bevel" points="779.367,1200.63 779.367,1130.31" />
<polyline class="Stem" fill="none" stroke="#000000" stroke-width="2.73" stroke-linejoin="bevel" points="708.589,1213.03 708.589,1136.28" />
<polyline class="Stem" fill="none" stroke="#000000" stroke-width="2.73" stroke-linejoin="bevel" points="1809.87,729.431 1809.87,658.999" />
<polyline class="Stem" fill="none" stroke="#000000" stroke-width="2.73" stroke-linejoin="bevel" points="1809.6,1200.63 1809.6,1130.2" />
<polyline class="Stem" fill="none" stroke="#000000" stroke-width="2.73" stroke-linejoin="bevel" points="2413.84,1175.83 2413.84,1105.4" />
<polyline class="Stem" fill="none" stroke="#000000" stroke-width="2.73" stroke-linejoin="bevel" points="1004.8,754.231 1004.8,683.682" />
<polyline class="Stem" fill="none" stroke="#000000" stroke-width="2.73" stroke-linejoin="bevel" points="1916.25,717.031 1916.25,652.916" />
<polyline class="Stem" fill="none" stroke="#000000" stroke-width="2.73" stroke-linejoin="bevel" points="724.215,717.031 724.215,652.916" />
<polyline class="Stem" fill="none" stroke="#000000" stroke-width="2.73" stroke-linejoin="bevel" points="601.107,1213.03 601.107,1136.4" />
<polyline class="Stem" fill="none" stroke="#000000" stroke-width="2.73" stroke-linejoin="bevel" points="530.328,1213.03 530.328,1136.4" />
<polyline class="Stem" fill="none" stroke="#000000" stroke-width="2.73" stroke-linejoin="bevel" points="1985.94,741.831 1985.94,658.882" />
<polyline class="Stem" fill="none" stroke="#000000" stroke-width="2.73" stroke-linejoin="bevel" points="459.55,1213.03 459.55,1136.4" />
<polyline class="Stem" fill="none" stroke="#000000" stroke-width="2.73" stroke-linejoin="bevel" points="2055.62,741.831 2055.62,665.199" />
<polyline class="Stem" fill="none" stroke="#000000" stroke-width="2.73" stroke-linejoin="bevel" points="388.772,1213.03 388.772,1136.4" />
<polyline class="Stem" fill="none" stroke="#000000" stroke-width="2.73" stroke-linejoin="bevel" points="443.626,704.631 443.626,634.316" />
<polyline class="Stem" fill="none" stroke="#000000" stroke-width="2.73" stroke-linejoin="bevel" points="1917.08,1188.23 1917.08,1124.11" />
<polyline class="Stem" fill="none" stroke="#000000" stroke-width="2.73" stroke-linejoin="bevel" points="2125.3,741.831 2125.3,665.199" />
<polyline class="Stem" fill="none" stroke="#000000" stroke-width="2.73" stroke-linejoin="bevel" points="2521.33,1200.63 2521.33,1130.2" />
<polyline class="Stem" fill="none" stroke="#000000" stroke-width="2.73" stroke-linejoin="bevel" points="2592.1,1200.63 2592.1,1130.2" />
<polyline class="Stem" fill="none" stroke="#000000" stroke-width="2.73" stroke-linejoin="bevel" points="863.578,741.831 863.578,658.999" />
<polyline class="Stem" fill="none" stroke="#000000" stroke-width="2.73" stroke-linejoin="bevel" points="2231.68,754.231 2231.68,665.082" />
<polyline class="Stem" fill="none" stroke="#000000" stroke-width="2.73" stroke-linejoin="bevel" points="1987.86,1213.03 1987.86,1130.08" />
<polyline class="Stem" fill="none" stroke="#000000" stroke-width="2.73" stroke-linejoin="bevel" points="793.897,741.831 793.897,658.882" />
<polyline class="Stem" fill="none" stroke="#000000" stroke-width="2.73" stroke-linejoin="bevel" points="2686.48,729.431 2686.48,646.599" />
<polyline class="Stem" fill="none" stroke="#000000" stroke-width="2.73" stroke-linejoin="bevel" points="2616.8,729.431 2616.8,658.999" />
<polyline class="Stem" fill="none" stroke="#000000" stroke-width="2.73" stroke-linejoin="bevel" points="2301.37,729.431 2301.37,659.116" />
<polyline class="Stem" fill="none" stroke="#000000" stroke-width="2.73" stroke-linejoin="bevel" points="2547.11,729.431 2547.11,658.999" />
<polyline class="Stem" fill="none" stroke="#000000" stroke-width="2.73" stroke-linejoin="bevel" points="2371.05,704.631 2371.05,634.199" />
<polyline class="Stem" fill="none" stroke="#000000" stroke-width="2.73" stroke-linejoin="bevel" points="2058.64,1213.03 2058.64,1130.2" />
<polyline class="Stem" fill="none" stroke="#000000" stroke-width="2.73" stroke-linejoin="bevel" points="2662.88,1200.63 2662.88,1117.8" />
<polyline class="Stem" fill="none" stroke="#000000" stroke-width="2.73" stroke-linejoin="bevel" points="2201.51,1225.43 2201.51,1136.28" />
<path class="Note" transform="matrix(0.992001,0,0,0.992001,2655.62,733.399)" d="M0,4.2 C0,8.5 3.1,13.3 11.2,13.3 C21.6,13.3 32.5,4.8 32.5,-4 C32.5,-9.9 27.5,-13.2 21.3,-13.2 C11.6,-13.2 0,-5 0,4.2"/>
<path class="Note" transform="matrix(0.992001,0,0,0.992001,1174.49,1204.6)" d="M0,4.2 C0,8.5 3.1,13.3 11.2,13.3 C21.6,13.3 32.5,4.8 32.5,-4 C32.5,-9.9 27.5,-13.2 21.3,-13.2 C11.6,-13.2 0,-5 0,4.2"/>
<path class="Note" transform="matrix(0.992001,0,0,0.992001,2632.02,1204.6)" d="M0,4.2 C0,8.5 3.1,13.3 11.2,13.3 C21.6,13.3 32.5,4.8 32.5,-4 C32.5,-9.9 27.5,-13.2 21.3,-13.2 C11.6,-13.2 0,-5 0,4.2"/>
<path class="Note" transform="matrix(0.992001,0,0,0.992001,2409.87,708.599)" d="M0,4.2 C0,8.5 3.1,13.3 11.2,13.3 C21.6,13.3 32.5,4.8 32.5,-4 C32.5,-9.9 27.5,-13.2 21.3,-13.2 C11.6,-13.2 0,-5 0,4.2"/>
<path class="Note" transform="matrix(0.992001,0,0,0.992001,2340.19,708.599)" d="M0,4.2 C0,8.5 3.1,13.3 11.2,13.3 C21.6,13.3 32.5,4.8 32.5,-4 C32.5,-9.9 27.5,-13.2 21.3,-13.2 C11.6,-13.2 0,-5 0,4.2"/>
<path class="Note" transform="matrix(0.992001,0,0,0.992001,2270.5,733.399)" d="M0,4.2 C0,8.5 3.1,13.3 11.2,13.3 C21.6,13.3 32.5,4.8 32.5,-4 C32.5,-9.9 27.5,-13.2 21.3,-13.2 C11.6,-13.2 0,-5 0,4.2"/>
<path class="Note" transform="matrix(0.992001,0,0,0.992001,2516.25,733.399)" d="M0,4.2 C0,8.5 3.1,13.3 11.2,13.3 C21.6,13.3 32.5,4.8 32.5,-4 C32.5,-9.9 27.5,-13.2 21.3,-13.2 C11.6,-13.2 0,-5 0,4.2"/>
<path class="Note" transform="matrix(0.992001,0,0,0.992001,2561.24,1204.6)" d="M0,4.2 C0,8.5 3.1,13.3 11.2,13.3 C21.6,13.3 32.5,4.8 32.5,-4 C32.5,-9.9 27.5,-13.2 21.3,-13.2 C11.6,-13.2 0,-5 0,4.2"/>
<path class="Note" transform="matrix(0.992001,0,0,0.992001,1281.97,1204.6)" d="M0,4.2 C0,8.5 3.1,13.3 11.2,13.3 C21.6,13.3 32.5,4.8 32.5,-4 C32.5,-9.9 27.5,-13.2 21.3,-13.2 C11.6,-13.2 0,-5 0,4.2"/>
<path class="Note" transform="matrix(0.992001,0,0,0.992001,2490.47,1204.6)" d="M0,4.2 C0,8.5 3.1,13.3 11.2,13.3 C21.6,13.3 32.5,4.8 32.5,-4 C32.5,-9.9 27.5,-13.2 21.3,-13.2 C11.6,-13.2 0,-5 0,4.2"/>
<path class="Note" transform="matrix(0.992001,0,0,0.992001,2585.93,733.399)" d="M0,4.2 C0,8.5 3.1,13.3 11.2,13.3 C21.6,13.3 32.5,4.8 32.5,-4 C32.5,-9.9 27.5,-13.2 21.3,-13.2 C11.6,-13.2 0,-5 0,4.2"/>
<path class="Note" transform="matrix(0.992001,0,0,0.992001,1352.75,1192.2)" d="M0,4.2 C0,8.5 3.1,13.3 11.2,13.3 C21.6,13.3 32.5,4.8 32.5,-4 C32.5,-9.9 27.5,-13.2 21.3,-13.2 C11.6,-13.2 0,-5 0,4.2"/>
<path class="Note" transform="matrix(0.992001,0,0,0.992001,2200.82,758.199)" d="M0,4.2 C0,8.5 3.1,13.3 11.2,13.3 C21.6,13.3 32.5,4.8 32.5,-4 C32.5,-9.9 27.5,-13.2 21.3,-13.2 C11.6,-13.2 0,-5 0,4.2"/>
<path class="Note" transform="matrix(0.992001,0,0,0.992001,2094.44,745.799)" d="M0,4.2 C0,8.5 3.1,13.3 11.2,13.3 C21.6,13.3 32.5,4.8 32.5,-4 C32.5,-9.9 27.5,-13.2 21.3,-13.2 C11.6,-13.2 0,-5 0,4.2"/>
<path class="Note" transform="matrix(0.992001,0,0,0.992001,412.766,708.599)" d="M0,4.2 C0,8.5 3.1,13.3 11.2,13.3 C21.6,13.3 32.5,4.8 32.5,-4 C32.5,-9.9 27.5,-13.2 21.3,-13.2 C11.6,-13.2 0,-5 0,4.2"/>
<path class="Note" transform="matrix(0.992001,0,0,0.992001,2382.98,1179.8)" d="M0,4.2 C0,8.5 3.1,13.3 11.2,13.3 C21.6,13.3 32.5,4.8 32.5,-4 C32.5,-9.9 27.5,-13.2 21.3,-13.2 C11.6,-13.2 0,-5 0,4.2"/>
<path class="Note" transform="matrix(0.992001,0,0,0.992001,2312.21,1179.8)" d="M0,4.2 C0,8.5 3.1,13.3 11.2,13.3 C21.6,13.3 32.5,4.8 32.5,-4 C32.5,-9.9 27.5,-13.2 21.3,-13.2 C11.6,-13.2 0,-5 0,4.2"/>
<path class="Note" transform="matrix(0.992001,0,0,0.992001,1182.99,720.999)" d="M0,4.2 C0,8.5 3.1,13.3 11.2,13.3 C21.6,13.3 32.5,4.8 32.5,-4 C32.5,-9.9 27.5,-13.2 21.3,-13.2 C11.6,-13.2 0,-5 0,4.2"/>
<path class="Note" transform="matrix(0.992001,0,0,0.992001,1359.06,708.599)" d="M0,4.2 C0,8.5 3.1,13.3 11.2,13.3 C21.6,13.3 32.5,4.8 32.5,-4 C32.5,-9.9 27.5,-13.2 21.3,-13.2 C11.6,-13.2 0,-5 0,4.2"/>
<path class="Note" transform="matrix(0.992001,0,0,0.992001,2024.76,745.799)" d="M0,4.2 C0,8.5 3.1,13.3 11.2,13.3 C21.6,13.3 32.5,4.8 32.5,-4 C32.5,-9.9 27.5,-13.2 21.3,-13.2 C11.6,-13.2 0,-5 0,4.2"/>
<path class="Note" transform="matrix(0.992001,0,0,0.992001,357.911,1217)" d="M0,4.2 C0,8.5 3.1,13.3 11.2,13.3 C21.6,13.3 32.5,4.8 32.5,-4 C32.5,-9.9 27.5,-13.2 21.3,-13.2 C11.6,-13.2 0,-5 0,4.2"/>
<path class="Note" transform="matrix(0.992001,0,0,0.992001,2241.43,1204.6)" d="M0,4.2 C0,8.5 3.1,13.3 11.2,13.3 C21.6,13.3 32.5,4.8 32.5,-4 C32.5,-9.9 27.5,-13.2 21.3,-13.2 C11.6,-13.2 0,-5 0,4.2"/>
<path class="Note" transform="matrix(0.992001,0,0,0.992001,482.447,733.399)" d="M0,4.2 C0,8.5 3.1,13.3 11.2,13.3 C21.6,13.3 32.5,4.8 32.5,-4 C32.5,-9.9 27.5,-13.2 21.3,-13.2 C11.6,-13.2 0,-5 0,4.2"/>
<path class="Note" transform="matrix(0.992001,0,0,0.992001,1955.07,745.799)" d="M0,4.2 C0,8.5 3.1,13.3 11.2,13.3 C21.6,13.3 32.5,4.8 32.5,-4 C32.5,-9.9 27.5,-13.2 21.3,-13.2 C11.6,-13.2 0,-5 0,4.2"/>
<path class="Note" transform="matrix(0.992001,0,0,0.992001,428.689,1217)" d="M0,4.2 C0,8.5 3.1,13.3 11.2,13.3 C21.6,13.3 32.5,4.8 32.5,-4 C32.5,-9.9 27.5,-13.2 21.3,-13.2 C11.6,-13.2 0,-5 0,4.2"/>
<path class="Note" transform="matrix(0.992001,0,0,0.992001,2170.65,1229.4)" d="M0,4.2 C0,8.5 3.1,13.3 11.2,13.3 C21.6,13.3 32.5,4.8 32.5,-4 C32.5,-9.9 27.5,-13.2 21.3,-13.2 C11.6,-13.2 0,-5 0,4.2"/>
<path class="Note" transform="matrix(0.992001,0,0,0.992001,499.468,1217)" d="M0,4.2 C0,8.5 3.1,13.3 11.2,13.3 C21.6,13.3 32.5,4.8 32.5,-4 C32.5,-9.9 27.5,-13.2 21.3,-13.2 C11.6,-13.2 0,-5 0,4.2"/>
<path class="Note" transform="matrix(0.992001,0,0,0.992001,552.129,733.399)" d="M0,4.2 C0,8.5 3.1,13.3 11.2,13.3 C21.6,13.3 32.5,4.8 32.5,-4 C32.5,-9.9 27.5,-13.2 21.3,-13.2 C11.6,-13.2 0,-5 0,4.2"/>
<path class="Note" transform="matrix(0.992001,0,0,0.992001,693.355,720.999)" d="M0,4.2 C0,8.5 3.1,13.3 11.2,13.3 C21.6,13.3 32.5,4.8 32.5,-4 C32.5,-9.9 27.5,-13.2 21.3,-13.2 C11.6,-13.2 0,-5 0,4.2"/>
<path class="Note" transform="matrix(0.992001,0,0,0.992001,2027.78,1217)" d="M0,4.2 C0,8.5 3.1,13.3 11.2,13.3 C21.6,13.3 32.5,4.8 32.5,-4 C32.5,-9.9 27.5,-13.2 21.3,-13.2 C11.6,-13.2 0,-5 0,4.2"/>
<path class="Note" transform="matrix(0.992001,0,0,0.992001,570.246,1217)" d="M0,4.2 C0,8.5 3.1,13.3 11.2,13.3 C21.6,13.3 32.5,4.8 32.5,-4 C32.5,-9.9 27.5,-13.2 21.3,-13.2 C11.6,-13.2 0,-5 0,4.2"/>
<path class="Note" transform="matrix(0.992001,0,0,0.992001,1885.39,720.999)" d="M0,4.2 C0,8.5 3.1,13.3 11.2,13.3 C21.6,13.3 32.5,4.8 32.5,-4 C32.5,-9.9 27.5,-13.2 21.3,-13.2 C11.6,-13.2 0,-5 0,4.2"/>
<path class="Note" transform="matrix(0.992001,0,0,0.992001,1779.01,733.399)" d="M0,4.2 C0,8.5 3.1,13.3 11.2,13.3 C21.6,13.3 32.5,4.8 32.5,-4 C32.5,-9.9 27.5,-13.2 21.3,-13.2 C11.6,-13.2 0,-5 0,4.2"/>
<path class="Note" transform="matrix(0.992001,0,0,0.992001,1957,1217)" d="M0,4.2 C0,8.5 3.1,13.3 11.2,13.3 C21.6,13.3 32.5,4.8 32.5,-4 C32.5,-9.9 27.5,-13.2 21.3,-13.2 C11.6,-13.2 0,-5 0,4.2"/>
<path class="Note" transform="matrix(0.992001,0,0,0.992001,677.729,1217)" d="M0,4.2 C0,8.5 3.1,13.3 11.2,13.3 C21.6,13.3 32.5,4.8 32.5,-4 C32.5,-9.9 27.5,-13.2 21.3,-13.2 C11.6,-13.2 0,-5 0,4.2"/>
<path class="Note" transform="matrix(0.992001,0,0,0.992001,763.036,745.799)" d="M0,4.2 C0,8.5 3.1,13.3 11.2,13.3 C21.6,13.3 32.5,4.8 32.5,-4 C32.5,-9.9 27.5,-13.2 21.3,-13.2 C11.6,-13.2 0,-5 0,4.2"/>
<path class="Note" transform="matrix(0.992001,0,0,0.992001,1886.22,1192.2)" d="M0,4.2 C0,8.5 3.1,13.3 11.2,13.3 C21.6,13.3 32.5,4.8 32.5,-4 C32.5,-9.9 27.5,-13.2 21.3,-13.2 C11.6,-13.2 0,-5 0,4.2"/>
<path class="Note" transform="matrix(0.992001,0,0,0.992001,832.718,745.799)" d="M0,4.2 C0,8.5 3.1,13.3 11.2,13.3 C21.6,13.3 32.5,4.8 32.5,-4 C32.5,-9.9 27.5,-13.2 21.3,-13.2 C11.6,-13.2 0,-5 0,4.2"/>
<path class="Note" transform="matrix(0.992001,0,0,0.992001,748.507,1204.6)" d="M0,4.2 C0,8.5 3.1,13.3 11.2,13.3 C21.6,13.3 32.5,4.8 32.5,-4 C32.5,-9.9 27.5,-13.2 21.3,-13.2 C11.6,-13.2 0,-5 0,4.2"/>
<path class="Note" transform="matrix(0.992001,0,0,0.992001,1709.33,733.399)" d="M0,4.2 C0,8.5 3.1,13.3 11.2,13.3 C21.6,13.3 32.5,4.8 32.5,-4 C32.5,-9.9 27.5,-13.2 21.3,-13.2 C11.6,-13.2 0,-5 0,4.2"/>
<path class="Note" transform="matrix(0.992001,0,0,0.992001,819.285,1192.2)" d="M0,4.2 C0,8.5 3.1,13.3 11.2,13.3 C21.6,13.3 32.5,4.8 32.5,-4 C32.5,-9.9 27.5,-13.2 21.3,-13.2 C11.6,-13.2 0,-5 0,4.2"/>
<path class="Note" transform="matrix(0.992001,0,0,0.992001,973.944,758.199)" d="M0,4.2 C0,8.5 3.1,13.3 11.2,13.3 C21.6,13.3 32.5,4.8 32.5,-4 C32.5,-9.9 27.5,-13.2 21.3,-13.2 C11.6,-13.2 0,-5 0,4.2"/>
<path class="Note" transform="matrix(0.992001,0,0,0.992001,1639.64,733.399)" d="M0,4.2 C0,8.5 3.1,13.3 11.2,13.3 C21.6,13.3 32.5,4.8 32.5,-4 C32.5,-9.9 27.5,-13.2 21.3,-13.2 C11.6,-13.2 0,-5 0,4.2"/>
<path class="Note" transform="matrix(0.992001,0,0,0.992001,1778.74,1204.6)" d="M0,4.2 C0,8.5 3.1,13.3 11.2,13.3 C21.6,13.3 32.5,4.8 32.5,-4 C32.5,-9.9 27.5,-13.2 21.3,-13.2 C11.6,-13.2 0,-5 0,4.2"/>
<path class="Note" transform="matrix(0.992001,0,0,0.992001,1707.96,1204.6)" d="M0,4.2 C0,8.5 3.1,13.3 11.2,13.3 C21.6,13.3 32.5,4.8 32.5,-4 C32.5,-9.9 27.5,-13.2 21.3,-13.2 C11.6,-13.2 0,-5 0,4.2"/>
<path class="Note" transform="matrix(0.992001,0,0,0.992001,962.157,1204.6)" d="M0,4.2 C0,8.5 3.1,13.3 11.2,13.3 C21.6,13.3 32.5,4.8 32.5,-4 C32.5,-9.9 27.5,-13.2 21.3,-13.2 C11.6,-13.2 0,-5 0,4.2"/>
<path class="Note" transform="matrix(0.992001,0,0,0.992001,1637.18,1204.6)" d="M0,4.2 C0,8.5 3.1,13.3 11.2,13.3 C21.6,13.3 32.5,4.8 32.5,-4 C32.5,-9.9 27.5,-13.2 21.3,-13.2 C11.6,-13.2 0,-5 0,4.2"/>
<path class="Note" transform="matrix(0.992001,0,0,0.992001,1043.63,745.799)" d="M0,4.2 C0,8.5 3.1,13.3 11.2,13.3 C21.6,13.3 32.5,4.8 32.5,-4 C32.5,-9.9 27.5,-13.2 21.3,-13.2 C11.6,-13.2 0,-5 0,4.2"/>
<path class="Note" transform="matrix(0.992001,0,0,0.992001,1569.96,708.599)" d="M0,4.2 C0,8.5 3.1,13.3 11.2,13.3 C21.6,13.3 32.5,4.8 32.5,-4 C32.5,-9.9 27.5,-13.2 21.3,-13.2 C11.6,-13.2 0,-5 0,4.2"/>
<path class="Note" transform="matrix(0.992001,0,0,0.992001,1032.94,1204.6)" d="M0,4.2 C0,8.5 3.1,13.3 11.2,13.3 C21.6,13.3 32.5,4.8 32.5,-4 C32.5,-9.9 27.5,-13.2 21.3,-13.2 C11.6,-13.2 0,-5 0,4.2"/>
<path class="Note" transform="matrix(0.992001,0,0,0.992001,1566.4,1179.8)" d="M0,4.2 C0,8.5 3.1,13.3 11.2,13.3 C21.6,13.3 32.5,4.8 32.5,-4 C32.5,-9.9 27.5,-13.2 21.3,-13.2 C11.6,-13.2 0,-5 0,4.2"/>
<path class="Note" transform="matrix(0.992001,0,0,0.992001,1103.71,1204.6)" d="M0,4.2 C0,8.5 3.1,13.3 11.2,13.3 C21.6,13.3 32.5,4.8 32.5,-4 C32.5,-9.9 27.5,-13.2 21.3,-13.2 C11.6,-13.2 0,-5 0,4.2"/>
<path class="Note" transform="matrix(0.992001,0,0,0.992001,1113.31,733.399)" d="M0,4.2 C0,8.5 3.1,13.3 11.2,13.3 C21.6,13.3 32.5,4.8 32.5,-4 C32.5,-9.9 27.5,-13.2 21.3,-13.2 C11.6,-13.2 0,-5 0,4.2"/>
<path class="Note" transform="matrix(0.992001,0,0,0.992001,1423.53,1179.8)" d="M0,4.2 C0,8.5 3.1,13.3 11.2,13.3 C21.6,13.3 32.5,4.8 32.5,-4 C32.5,-9.9 27.5,-13.2 21.3,-13.2 C11.6,-13.2 0,-5 0,4.2"/>
<path class="Note" transform="matrix(0.992001,0,0,0.992001,1428.74,708.599)" d="M0,4.2 C0,8.5 3.1,13.3 11.2,13.3 C21.6,13.3 32.5,4.8 32.5,-4 C32.5,-9.9 27.5,-13.2 21.3,-13.2 C11.6,-13.2 0,-5 0,4.2"/>
<path class="Note" transform="matrix(0.992001,0,0,0.992001,1289.37,708.599)" d="M0,4.2 C0,8.5 3.1,13.3 11.2,13.3 C21.6,13.3 32.5,4.8 32.5,-4 C32.5,-9.9 27.5,-13.2 21.3,-13.2 C11.6,-13.2 0,-5 0,4.2"/>
<path class="Clef" transform="matrix(0.992001,0,0,0.992001,232.438,1179.8)" d="M56.2,2.1 C56.2,9.2 53.3,16.5 46.2,19.4 C44.1,7.4 41.4,-8.5 40.7,-12.9 C49.7,-12.9 56.2,-6.8 56.2,2.1 M42,20.6 C40,21 38.1,21.2 36.2,21.2 C21.9,21.2 9.7,11.2 9.7,-3.9 C9.7,-16.1 18.3,-27 27.1,-34.6 C28.8,-36.1 30.4,-37.5 31.9,-39 C32.8,-33.6 33.5,-28.9 34.2,-24.8 C25.1,-22.1 18.9,-12.5 18.9,-3.1 C18.9,3.9 24.4,13.5 32.4,13.5 C33.2,13.5 34.1,13.1 34.1,12.2 C34.1,11.3 33.1,10.8 31.9,10 C28,7.6 25.8,5 25.8,0.1 C25.8,-6 30.3,-10.9 36.2,-12.3 L42,20.6 M33.2,-82.2 C34.1,-86.2 38.7,-96.7 43.9,-96.7 C45.4,-96.7 47.8,-91.8 47.8,-84.9 C47.8,-74.5 40.1,-66.7 33.2,-59.9 C32.6,-63.9 32.1,-67.8 32.1,-72 C32.1,-75.7 32.4,-79.1 33.2,-82.2 M12.2,51.3 C12.2,57.9 17.3,66.6 30.8,66.6 C35.5,66.6 39.6,65.4 43.2,63.2 C48.6,59.4 50,52.8 50,46.5 C50,42.6 49.4,38.1 48.4,32.4 C48.1,30.4 47.5,27.4 46.9,23.5 C56.7,20.3 64,10.1 64,-0.2 C64,-15.3 53.3,-25.5 38.7,-25.5 C37.7,-31.5 36.7,-37.4 35.8,-43 C46.4,-54.1 53.7,-66.6 53.7,-82.5 C53.7,-91.6 50.9,-99 49.3,-102.6 C46.9,-107.7 44,-111.2 42.2,-111.2 C41.5,-111.2 38.4,-110 35.1,-106.1 C28.7,-98.5 26.9,-85.7 26.9,-77.3 C26.9,-71.9 27.4,-67 29.1,-55.8 C29,-55.7 23.8,-50.4 21.7,-48.7 C12.6,-40.2 0,-28.1 0,-8.1 C0,10.6 16.3,25.3 34.9,25.3 C37.8,25.3 40.5,25 42.8,24.6 C44.7,34.2 45.8,41.2 45.8,46.5 C45.8,56.9 40.5,62.4 30.4,62.4 C28,62.4 25.9,61.9 25.7,61.9 C25.6,61.8 25.4,61.7 25.4,61.6 C25.4,61.4 25.6,61.3 25.9,61.2 C30.6,60.5 35.3,56.5 35.3,50.1 C35.3,44.7 31.2,39 23.7,39 C16.7,39 12.2,44.7 12.2,51.3"/>
<path class="Clef" transform="matrix(0.992001,0,0,0.992001,232.438,708.599)" d="M56.2,2.1 C56.2,9.2 53.3,16.5 46.2,19.4 C44.1,7.4 41.4,-8.5 40.7,-12.9 C49.7,-12.9 56.2,-6.8 56.2,2.1 M42,20.6 C40,21 38.1,21.2 36.2,21.2 C21.9,21.2 9.7,11.2 9.7,-3.9 C9.7,-16.1 18.3,-27 27.1,-34.6 C28.8,-36.1 30.4,-37.5 31.9,-39 C32.8,-33.6 33.5,-28.9 34.2,-24.8 C25.1,-22.1 18.9,-12.5 18.9,-3.1 C18.9,3.9 24.4,13.5 32.4,13.5 C33.2,13.5 34.1,13.1 34.1,12.2 C34.1,11.3 33.1,10.8 31.9,10 C28,7.6 25.8,5 25.8,0.1 C25.8,-6 30.3,-10.9 36.2,-12.3 L42,20.6 M33.2,-82.2 C34.1,-86.2 38.7,-96.7 43.9,-96.7 C45.4,-96.7 47.8,-91.8 47.8,-84.9 C47.8,-74.5 40.1,-66.7 33.2,-59.9 C32.6,-63.9 32.1,-67.8 32.1,-72 C32.1,-75.7 32.4,-79.1 33.2,-82.2 M12.2,51.3 C12.2,57.9 17.3,66.6 30.8,66.6 C35.5,66.6 39.6,65.4 43.2,63.2 C48.6,59.4 50,52.8 50,46.5 C50,42.6 49.4,38.1 48.4,32.4 C48.1,30.4 47.5,27.4 46.9,23.5 C56.7,20.3 64,10.1 64,-0.2 C64,-15.3 53.3,-25.5 38.7,-25.5 C37.7,-31.5 36.7,-37.4 35.8,-43 C46.4,-54.1 53.7,-66.6 53.7,-82.5 C53.7,-91.6 50.9,-99 49.3,-102.6 C46.9,-107.7 44,-111.2 42.2,-111.2 C41.5,-111.2 38.4,-110 35.1,-106.1 C28.7,-98.5 26.9,-85.7 26.9,-77.3 C26.9,-71.9 27.4,-67 29.1,-55.8 C29,-55.7 23.8,-50.4 21.7,-48.7 C12.6,-40.2 0,-28.1 0,-8.1 C0,10.6 16.3,25.3 34.9,25.3 C37.8,25.3 40.5,25 42.8,24.6 C44.7,34.2 45.8,41.2 45.8,46.5 C45.8,56.9 40.5,62.4 30.4,62.4 C28,62.4 25.9,61.9 25.7,61.9 C25.6,61.8 25.4,61.7 25.4,61.6 C25.4,61.4 25.6,61.3 25.9,61.2 C30.6,60.5 35.3,56.5 35.3,50.1 C35.3,44.7 31.2,39 23.7,39 C16.7,39 12.2,44.7 12.2,51.3"/>
<path class="TimeSig" transform="matrix(0.992001,0,0,0.992001,322.602,659.495)" d="M34.2,3.9 C33.4,6.1 31.4,13.3 26.5,13.3 C20,13.3 18.6,9.3 13.2,9.3 C12.4,9.3 11.6,9.4 10.6,9.6 C10.6,9.6 13.1,5.8 23.7,2.5 C34.3,-0.8 37,-6 37,-12 C37,-16.2 35.1,-24.5 20,-24.5 C4.9,-24.5 2.1,-15.4 2.1,-10.8 C2.1,-6.7 5.5,-3.4 9.6,-3.4 C13.7,-3.4 17,-6.7 17,-10.8 C17,-13.6 15,-16.7 12.4,-17.7 C12.1,-17.8 11.7,-18.3 11.7,-18.8 C11.7,-19.4 12.2,-20.1 14,-20.6 C14.5,-20.8 15.9,-21.1 17.4,-21.1 C18.8,-21.1 20.4,-20.8 21.6,-20 C23.5,-18.8 24.2,-17 24.2,-12.5 C24.2,-0.8 10.3,1.7 4.5,10.4 C4.5,10.4 1.5,14.6 1.5,19.3 C1.5,24 3.9,24.3 5.1,24.3 C6.7,24.3 8.4,23 8.4,21.2 C8.4,20.8 8.3,20.4 8.1,19.9 C7.5,18.5 7.3,17.4 7.3,16.6 C7.3,16.3 7.3,16 7.4,15.7 C7.5,15.1 8.3,14.1 10.7,14.1 C13.6,14.1 14.7,17.5 16.5,20.1 C18.3,22.7 21.1,24.3 24.3,24.3 C27.5,24.3 31.8,22 33.6,18.3 C35.4,14.6 37.7,7.1 37.7,4.4 C37.7,3.1 36.9,2.5 36,2.5 C35.3,2.5 34.6,2.9 34.2,3.9"/>
<path class="TimeSig" transform="matrix(0.992001,0,0,0.992001,319.331,708.599)" d="M20.8,12.7 L20.8,20.1 L12.5,20.1 C11.8,20.1 11.1,20.7 11.1,21.5 L11.1,23.4 C11.1,24.2 11.8,24.8 12.5,24.8 L42.8,24.8 C43.6,24.8 44.2,24.2 44.2,23.4 L44.2,21.5 C44.2,20.7 43.6,20.1 42.8,20.1 L33.8,20.1 L33.8,12.7 L42.8,12.7 C43.6,12.7 44.2,12 44.2,11.2 L44.2,9.3 C44.2,8.6 43.6,7.9 42.8,7.9 L33.8,7.9 L33.8,-8 C33.8,-8.6 33.5,-9.1 33.1,-9.3 L31.9,-9.9 C31.7,-10 31.6,-10 31.4,-10 C31.3,-10 31.3,-10 31.2,-10 C30.9,-10 30.5,-9.9 30.3,-9.7 L21.2,-1.4 C20.9,-1.1 20.8,-0.7 20.8,-0.3 L20.8,7.9 L9.2,7.9 C9.2,7.9 20.4,-4.1 32.2,-19.9 C32.6,-20.4 32.7,-20.9 32.7,-21.3 C32.7,-21.8 32.5,-22.2 32.4,-22.3 L30.2,-24.5 C29.9,-24.7 29.6,-24.9 29.2,-24.9 C28.6,-24.9 15.1,-24.9 14.3,-24.9 C13.6,-24.9 13.1,-24.3 13,-23.7 C13,-23.7 12.5,-16.3 9.9,-8.2 C7.3,-0.1 4.3,4.9 1.7,8.6 C1.7,8.6 1.4,9.1 1.4,9.7 C1.4,9.9 1.4,10.1 1.5,10.3 C1.8,11 2.5,12.1 2.5,12.1 C2.5,12.1 2.7,12.7 3.6,12.7 L20.8,12.7 "/>
<path class="Beam" fill-rule="evenodd" d="M1311.47,1123.98 L1384.98,1117.78 L1384.98,1130.22 L1311.47,1136.42 L1311.47,1123.98 "/>
<path class="Beam" fill-rule="evenodd" d="M1914.89,646.576 L1987.3,652.776 L1987.3,665.222 L1914.89,659.022 L1914.89,646.576 "/>
<path class="Beam" fill-rule="evenodd" d="M1318.87,627.999 L1391.28,627.999 L1391.28,640.399 L1318.87,640.399 L1318.87,627.999 "/>
<path class="Beam" fill-rule="evenodd" d="M2369.68,627.999 L2442.09,627.999 L2442.09,640.399 L2369.68,640.399 L2369.68,627.999 "/>
<path class="Beam" fill-rule="evenodd" d="M2545.75,652.799 L2618.16,652.799 L2618.16,665.199 L2545.75,665.199 L2545.75,652.799 "/>
<path class="Beam" fill-rule="evenodd" d="M2519.96,1124 L2593.47,1124 L2593.47,1136.4 L2519.96,1136.4 L2519.96,1124 "/>
<path class="Beam" fill-rule="evenodd" d="M2230.32,658.976 L2302.73,652.776 L2302.73,665.222 L2230.32,671.422 L2230.32,658.976 "/>
<path class="Beam" fill-rule="evenodd" d="M1142.8,652.776 L1215.21,646.576 L1215.21,659.022 L1142.8,665.222 L1142.8,652.776 "/>
<path class="Beam" fill-rule="evenodd" d="M1133.21,1124 L1206.72,1124 L1206.72,1136.4 L1133.21,1136.4 L1133.21,1124 "/>
<path class="Beam" fill-rule="evenodd" d="M442.262,627.976 L514.672,634.176 L514.672,646.622 L442.262,640.422 L442.262,627.976 "/>
<path class="Beam" fill-rule="evenodd" d="M1595.9,1099.18 L1669.41,1105.38 L1669.41,1117.82 L1595.9,1111.62 L1595.9,1099.18 "/>
<path class="Beam" fill-rule="evenodd" d="M1915.72,1117.78 L1989.22,1123.98 L1989.22,1136.42 L1915.72,1130.22 L1915.72,1117.78 "/>
<path class="Beam" fill-rule="evenodd" d="M2341.7,1099.2 L2415.21,1099.2 L2415.21,1111.6 L2341.7,1111.6 L2341.7,1099.2 "/>
<path class="Beam" fill-rule="evenodd" d="M991.653,1124 L1065.16,1124 L1065.16,1136.4 L991.653,1136.4 L991.653,1124 "/>
<path class="Beam" fill-rule="evenodd" d="M2054.25,658.999 L2126.66,658.999 L2126.66,671.399 L2054.25,671.399 L2054.25,658.999 "/>
<path class="Beam" fill-rule="evenodd" d="M1599.46,627.976 L1671.87,634.176 L1671.87,646.622 L1599.46,640.422 L1599.46,627.976 "/>
<path class="Beam" fill-rule="evenodd" d="M1737.46,1124 L1810.96,1124 L1810.96,1136.4 L1737.46,1136.4 L1737.46,1124 "/>
<path class="Beam" fill-rule="evenodd" d="M387.408,1130.2 L460.914,1130.2 L460.914,1142.6 L387.408,1142.6 L387.408,1130.2 "/>
<path class="Beam" fill-rule="evenodd" d="M1003.44,677.576 L1075.85,671.376 L1075.85,683.822 L1003.44,690.022 L1003.44,677.576 "/>
<path class="Beam" fill-rule="evenodd" d="M2200.15,1130.18 L2273.65,1123.98 L2273.65,1136.42 L2200.15,1142.62 L2200.15,1130.18 "/>
<path class="Beam" fill-rule="evenodd" d="M528.964,1130.2 L602.471,1130.2 L602.471,1142.6 L528.964,1142.6 L528.964,1130.2 "/>
<path class="Beam" fill-rule="evenodd" d="M722.851,646.576 L795.261,652.776 L795.261,665.222 L722.851,659.022 L722.851,646.576 "/>
<path class="Beam" fill-rule="evenodd" d="M1738.82,652.799 L1811.23,652.799 L1811.23,665.199 L1738.82,665.199 L1738.82,652.799 "/>
<path class="Beam" fill-rule="evenodd" d="M707.225,1130.18 L780.731,1123.98 L780.731,1136.42 L707.225,1142.62 L707.225,1130.18 "/>
<path class="Harmony" d="M1314.65,1003.3 L1312.56,1003.3 L1310.36,1006.55 C1306.35,1003.63 1304.31,1002.86 1300.52,1002.86 C1295.29,1002.86 1290.84,1005.06 1287.15,1009.46 C1283.63,1013.64 1281.98,1018.26 1281.98,1023.93 C1281.98,1035.81 1289.74,1044.22 1300.57,1044.22 C1309.37,1044.22 1314.98,1039.05 1316.25,1029.81 L1313.66,1029.37 C1312.18,1037.57 1308,1041.64 1301.23,1041.64 C1293.09,1041.64 1289.24,1036.03 1289.24,1024.15 C1289.24,1017.88 1290.07,1013.75 1291.94,1010.45 C1293.64,1007.37 1297,1005.45 1300.57,1005.45 C1304.42,1005.45 1307.83,1007.48 1309.92,1011 C1310.97,1012.82 1311.74,1014.85 1313.06,1019.2 L1315.48,1019.2 L1314.65,1003.3 "/>
<path class="Harmony" d="M2664.7,1003.3 L2662.61,1003.3 L2660.41,1006.55 C2656.39,1003.63 2654.36,1002.86 2650.56,1002.86 C2645.34,1002.86 2640.88,1005.06 2637.2,1009.46 C2633.68,1013.64 2632.03,1018.26 2632.03,1023.93 C2632.03,1035.81 2639.78,1044.22 2650.62,1044.22 C2659.42,1044.22 2665.03,1039.05 2666.29,1029.81 L2663.71,1029.37 C2662.22,1037.57 2658.04,1041.64 2651.28,1041.64 C2643.14,1041.64 2639.29,1036.03 2639.29,1024.15 C2639.29,1017.88 2640.11,1013.75 2641.98,1010.45 C2643.69,1007.37 2647.04,1005.45 2650.62,1005.45 C2654.47,1005.45 2657.88,1007.48 2659.97,1011 C2661.01,1012.82 2661.78,1014.85 2663.1,1019.2 L2665.52,1019.2 L2664.7,1003.3 "/>
<path class="Harmony" d="M1742,532.104 L1739.91,532.104 L1737.71,535.349 C1733.7,532.434 1731.66,531.664 1727.87,531.664 C1722.64,531.664 1718.19,533.864 1714.5,538.264 C1710.98,542.444 1709.33,547.064 1709.33,552.729 C1709.33,564.609 1717.09,573.024 1727.92,573.024 C1736.72,573.024 1742.33,567.854 1743.6,558.614 L1741.01,558.174 C1739.53,566.369 1735.35,570.439 1728.58,570.439 C1720.44,570.439 1716.59,564.829 1716.59,552.949 C1716.59,546.679 1717.42,542.554 1719.29,539.254 C1720.99,536.174 1724.35,534.249 1727.92,534.249 C1731.77,534.249 1735.18,536.284 1737.27,539.804 C1738.32,541.619 1739.09,543.654 1740.41,547.999 L1742.83,547.999 L1742,532.104 "/>
<path class="Harmony" d="M726.808,532.104 L724.718,532.104 L722.573,535.404 C718.998,532.599 716.578,531.664 712.563,531.664 C708.218,531.664 704.808,532.874 701.343,535.679 C695.898,540.079 693.368,545.634 693.368,553.059 C693.368,558.669 694.963,563.344 698.208,566.919 C701.618,570.769 706.678,573.024 711.958,573.024 C716.578,573.024 719.823,571.594 723.398,568.019 L725.433,572.969 L727.743,572.969 L727.743,560.869 C727.743,558.064 727.743,557.954 728.073,557.459 C728.568,556.854 729.558,556.689 732.693,556.689 L733.518,556.689 L733.518,554.104 L716.028,554.104 L716.028,556.689 L717.073,556.689 C721.693,556.689 722.078,556.964 722.078,560.044 C722.078,562.409 721.693,564.554 720.978,565.874 C719.603,568.569 716.083,570.439 712.508,570.439 C708.933,570.439 705.413,568.624 703.543,565.874 C701.508,562.794 700.628,558.944 700.628,553.059 C700.628,540.794 704.698,534.249 712.343,534.249 C718.613,534.249 722.958,538.759 725.213,547.559 L727.578,547.559 L726.808,532.104 "/>
<path class="Harmony" d="M739.537,546.789 L741.957,547.174 L742.947,542.829 C743.772,539.199 744.157,538.649 745.752,538.649 C746.027,538.649 746.467,538.649 746.962,538.704 C753.727,539.034 753.727,539.034 756.257,539.034 C756.972,539.034 758.237,539.034 759.777,538.979 L756.037,546.514 C751.967,554.599 751.472,555.589 750.097,558.999 C748.392,563.124 747.512,566.589 747.512,568.899 C747.512,571.429 748.832,572.969 750.977,572.969 C753.617,572.969 754.662,571.209 754.607,566.424 C754.332,558.504 755.322,554.654 761.207,541.784 C762.197,539.639 763.242,537.439 764.232,535.294 L764.232,533.699 C760.932,533.974 759.172,534.084 755.762,534.084 C750.977,534.084 747.182,533.919 741.242,533.479 L739.537,546.789 "/>
<path class="Harmony" d="M711.182,1003.3 L709.092,1003.3 L706.947,1006.6 C703.372,1003.8 700.952,1002.86 696.937,1002.86 C692.592,1002.86 689.182,1004.07 685.717,1006.88 C680.272,1011.28 677.742,1016.83 677.742,1024.26 C677.742,1029.87 679.337,1034.54 682.582,1038.12 C685.992,1041.97 691.052,1044.22 696.332,1044.22 C700.952,1044.22 704.197,1042.79 707.772,1039.22 L709.807,1044.17 L712.117,1044.17 L712.117,1032.07 C712.117,1029.26 712.117,1029.15 712.447,1028.66 C712.942,1028.05 713.932,1027.89 717.067,1027.89 L717.892,1027.89 L717.892,1025.3 L700.402,1025.3 L700.402,1027.89 L701.447,1027.89 C706.067,1027.89 706.452,1028.16 706.452,1031.24 C706.452,1033.61 706.067,1035.75 705.352,1037.07 C703.977,1039.77 700.457,1041.64 696.882,1041.64 C693.307,1041.64 689.787,1039.82 687.917,1037.07 C685.882,1033.99 685.002,1030.14 685.002,1024.26 C685.002,1011.99 689.072,1005.45 696.717,1005.45 C702.987,1005.45 707.332,1009.96 709.587,1018.76 L711.952,1018.76 L711.182,1003.3 "/>
<path class="Harmony" d="M723.911,1017.99 L726.331,1018.37 L727.321,1014.03 C728.146,1010.4 728.531,1009.85 730.126,1009.85 C730.401,1009.85 730.841,1009.85 731.336,1009.9 C738.101,1010.23 738.101,1010.23 740.631,1010.23 C741.346,1010.23 742.611,1010.23 744.151,1010.18 L740.411,1017.71 C736.341,1025.8 735.846,1026.79 734.471,1030.2 C732.766,1034.32 731.886,1037.79 731.886,1040.1 C731.886,1042.63 733.206,1044.17 735.351,1044.17 C737.991,1044.17 739.036,1042.41 738.981,1037.62 C738.706,1029.7 739.696,1025.85 745.581,1012.98 C746.571,1010.84 747.616,1008.64 748.606,1006.49 L748.606,1004.9 C745.306,1005.17 743.546,1005.28 740.136,1005.28 C735.351,1005.28 731.556,1005.12 725.616,1004.68 L723.911,1017.99 "/>
<path class="Harmony" d="M2061.23,1003.3 L2059.14,1003.3 L2057,1006.6 C2053.42,1003.8 2051,1002.86 2046.99,1002.86 C2042.64,1002.86 2039.23,1004.07 2035.77,1006.88 C2030.32,1011.28 2027.79,1016.83 2027.79,1024.26 C2027.79,1029.87 2029.39,1034.54 2032.63,1038.12 C2036.04,1041.97 2041.1,1044.22 2046.38,1044.22 C2051,1044.22 2054.25,1042.79 2057.82,1039.22 L2059.86,1044.17 L2062.17,1044.17 L2062.17,1032.07 C2062.17,1029.26 2062.17,1029.15 2062.5,1028.66 C2062.99,1028.05 2063.98,1027.89 2067.12,1027.89 L2067.94,1027.89 L2067.94,1025.3 L2050.45,1025.3 L2050.45,1027.89 L2051.5,1027.89 C2056.12,1027.89 2056.5,1028.16 2056.5,1031.24 C2056.5,1033.61 2056.12,1035.75 2055.4,1037.07 C2054.03,1039.77 2050.51,1041.64 2046.93,1041.64 C2043.36,1041.64 2039.84,1039.82 2037.97,1037.07 C2035.93,1033.99 2035.05,1030.14 2035.05,1024.26 C2035.05,1011.99 2039.12,1005.45 2046.77,1005.45 C2053.04,1005.45 2057.38,1009.96 2059.64,1018.76 L2062,1018.76 L2061.23,1003.3 "/>
<path class="Harmony" d="M2073.96,1017.99 L2076.38,1018.37 L2077.37,1014.03 C2078.19,1010.4 2078.58,1009.85 2080.17,1009.85 C2080.45,1009.85 2080.89,1009.85 2081.38,1009.9 C2088.15,1010.23 2088.15,1010.23 2090.68,1010.23 C2091.39,1010.23 2092.66,1010.23 2094.2,1010.18 L2090.46,1017.71 C2086.39,1025.8 2085.89,1026.79 2084.52,1030.2 C2082.81,1034.32 2081.93,1037.79 2081.93,1040.1 C2081.93,1042.63 2083.25,1044.17 2085.4,1044.17 C2088.04,1044.17 2089.08,1042.41 2089.03,1037.62 C2088.75,1029.7 2089.74,1025.85 2095.63,1012.98 C2096.62,1010.84 2097.66,1008.64 2098.65,1006.49 L2098.65,1004.9 C2095.35,1005.17 2093.59,1005.28 2090.18,1005.28 C2085.4,1005.28 2081.6,1005.12 2075.66,1004.68 L2073.96,1017.99 "/>
<path class="Harmony" d="M866.171,532.104 L864.081,532.104 L861.936,535.404 C858.361,532.599 855.941,531.664 851.926,531.664 C847.581,531.664 844.171,532.874 840.706,535.679 C835.261,540.079 832.731,545.634 832.731,553.059 C832.731,558.669 834.326,563.344 837.571,566.919 C840.981,570.769 846.041,573.024 851.321,573.024 C855.941,573.024 859.186,571.594 862.761,568.019 L864.796,572.969 L867.106,572.969 L867.106,560.869 C867.106,558.064 867.106,557.954 867.436,557.459 C867.931,556.854 868.921,556.689 872.056,556.689 L872.881,556.689 L872.881,554.104 L855.391,554.104 L855.391,556.689 L856.436,556.689 C861.056,556.689 861.441,556.964 861.441,560.044 C861.441,562.409 861.056,564.554 860.341,565.874 C858.966,568.569 855.446,570.439 851.871,570.439 C848.296,570.439 844.776,568.624 842.906,565.874 C840.871,562.794 839.991,558.944 839.991,553.059 C839.991,540.794 844.061,534.249 851.706,534.249 C857.976,534.249 862.321,538.759 864.576,547.559 L866.941,547.559 L866.171,532.104 "/>
<path class="Harmony" d="M878.9,546.789 L881.32,547.174 L882.31,542.829 C883.135,539.199 883.52,538.649 885.115,538.649 C885.39,538.649 885.83,538.649 886.325,538.704 C893.09,539.034 893.09,539.034 895.62,539.034 C896.335,539.034 897.6,539.034 899.14,538.979 L895.4,546.514 C891.33,554.599 890.835,555.589 889.46,558.999 C887.755,563.124 886.875,566.589 886.875,568.899 C886.875,571.429 888.195,572.969 890.34,572.969 C892.98,572.969 894.025,571.209 893.97,566.424 C893.695,558.504 894.685,554.654 900.57,541.784 C901.56,539.639 902.605,537.439 903.595,535.294 L903.595,533.699 C900.295,533.974 898.535,534.084 895.125,534.084 C890.34,534.084 886.545,533.919 880.605,533.479 L878.9,546.789 "/>
<path class="Harmony" d="M532.921,1003.3 L530.831,1003.3 L528.686,1006.6 C525.111,1003.8 522.691,1002.86 518.676,1002.86 C514.331,1002.86 510.921,1004.07 507.456,1006.88 C502.011,1011.28 499.481,1016.83 499.481,1024.26 C499.481,1029.87 501.076,1034.54 504.321,1038.12 C507.731,1041.97 512.791,1044.22 518.071,1044.22 C522.691,1044.22 525.936,1042.79 529.511,1039.22 L531.546,1044.17 L533.856,1044.17 L533.856,1032.07 C533.856,1029.26 533.856,1029.15 534.186,1028.66 C534.681,1028.05 535.671,1027.89 538.806,1027.89 L539.631,1027.89 L539.631,1025.3 L522.141,1025.3 L522.141,1027.89 L523.186,1027.89 C527.806,1027.89 528.191,1028.16 528.191,1031.24 C528.191,1033.61 527.806,1035.75 527.091,1037.07 C525.716,1039.77 522.196,1041.64 518.621,1041.64 C515.046,1041.64 511.526,1039.82 509.656,1037.07 C507.621,1033.99 506.741,1030.14 506.741,1024.26 C506.741,1011.99 510.811,1005.45 518.456,1005.45 C524.726,1005.45 529.071,1009.96 531.326,1018.76 L533.691,1018.76 L532.921,1003.3 "/>
<path class="Harmony" d="M545.65,1017.99 L548.07,1018.37 L549.06,1014.03 C549.885,1010.4 550.27,1009.85 551.865,1009.85 C552.14,1009.85 552.58,1009.85 553.075,1009.9 C559.84,1010.23 559.84,1010.23 562.37,1010.23 C563.085,1010.23 564.35,1010.23 565.89,1010.18 L562.15,1017.71 C558.08,1025.8 557.585,1026.79 556.21,1030.2 C554.505,1034.32 553.625,1037.79 553.625,1040.1 C553.625,1042.63 554.945,1044.17 557.09,1044.17 C559.73,1044.17 560.775,1042.41 560.72,1037.62 C560.445,1029.7 561.435,1025.85 567.32,1012.98 C568.31,1010.84 569.355,1008.64 570.345,1006.49 L570.345,1004.9 C567.045,1005.17 565.285,1005.28 561.875,1005.28 C557.09,1005.28 553.295,1005.12 547.355,1004.68 L545.65,1017.99 "/>
<path class="Harmony" d="M584.805,532.104 L582.715,532.104 L580.515,535.349 C576.5,532.434 574.465,531.664 570.67,531.664 C565.445,531.664 560.99,533.864 557.305,538.264 C553.785,542.444 552.135,547.064 552.135,552.729 C552.135,564.609 559.89,573.024 570.725,573.024 C579.525,573.024 585.135,567.854 586.4,558.614 L583.815,558.174 C582.33,566.369 578.15,570.439 571.385,570.439 C563.245,570.439 559.395,564.829 559.395,552.949 C559.395,546.679 560.22,542.554 562.09,539.254 C563.795,536.174 567.15,534.249 570.725,534.249 C574.575,534.249 577.985,536.284 580.075,539.804 C581.12,541.619 581.89,543.654 583.21,547.999 L585.63,547.999 L584.805,532.104 "/>
<path class="Harmony" d="M852.738,1003.3 L850.648,1003.3 L848.503,1006.6 C844.928,1003.8 842.508,1002.86 838.493,1002.86 C834.148,1002.86 830.738,1004.07 827.273,1006.88 C821.828,1011.28 819.298,1016.83 819.298,1024.26 C819.298,1029.87 820.893,1034.54 824.138,1038.12 C827.548,1041.97 832.608,1044.22 837.888,1044.22 C842.508,1044.22 845.753,1042.79 849.328,1039.22 L851.363,1044.17 L853.673,1044.17 L853.673,1032.07 C853.673,1029.26 853.673,1029.15 854.003,1028.66 C854.498,1028.05 855.488,1027.89 858.623,1027.89 L859.448,1027.89 L859.448,1025.3 L841.958,1025.3 L841.958,1027.89 L843.003,1027.89 C847.623,1027.89 848.008,1028.16 848.008,1031.24 C848.008,1033.61 847.623,1035.75 846.908,1037.07 C845.533,1039.77 842.013,1041.64 838.438,1041.64 C834.863,1041.64 831.343,1039.82 829.473,1037.07 C827.438,1033.99 826.558,1030.14 826.558,1024.26 C826.558,1011.99 830.628,1005.45 838.273,1005.45 C844.543,1005.45 848.888,1009.96 851.143,1018.76 L853.508,1018.76 L852.738,1003.3 "/>
<path class="Harmony" d="M865.468,1017.99 L867.888,1018.37 L868.878,1014.03 C869.703,1010.4 870.088,1009.85 871.683,1009.85 C871.958,1009.85 872.398,1009.85 872.893,1009.9 C879.658,1010.23 879.658,1010.23 882.188,1010.23 C882.903,1010.23 884.168,1010.23 885.708,1010.18 L881.968,1017.71 C877.898,1025.8 877.403,1026.79 876.028,1030.2 C874.323,1034.32 873.443,1037.79 873.443,1040.1 C873.443,1042.63 874.763,1044.17 876.908,1044.17 C879.548,1044.17 880.593,1042.41 880.538,1037.62 C880.263,1029.7 881.253,1025.85 887.138,1012.98 C888.128,1010.84 889.173,1008.64 890.163,1006.49 L890.163,1004.9 C886.863,1005.17 885.103,1005.28 881.693,1005.28 C876.908,1005.28 873.113,1005.12 867.173,1004.68 L865.468,1017.99 "/>
<path class="Harmony" d="M1918.85,532.104 L1916.76,532.104 L1914.61,535.404 C1911.04,532.599 1908.62,531.664 1904.6,531.664 C1900.26,531.664 1896.85,532.874 1893.38,535.679 C1887.94,540.079 1885.41,545.634 1885.41,553.059 C1885.41,558.669 1887,563.344 1890.25,566.919 C1893.66,570.769 1898.72,573.024 1904,573.024 C1908.62,573.024 1911.86,571.594 1915.44,568.019 L1917.47,572.969 L1919.78,572.969 L1919.78,560.869 C1919.78,558.064 1919.78,557.954 1920.11,557.459 C1920.61,556.854 1921.6,556.689 1924.73,556.689 L1925.56,556.689 L1925.56,554.104 L1908.07,554.104 L1908.07,556.689 L1909.11,556.689 C1913.73,556.689 1914.12,556.964 1914.12,560.044 C1914.12,562.409 1913.73,564.554 1913.02,565.874 C1911.64,568.569 1908.12,570.439 1904.55,570.439 C1900.97,570.439 1897.45,568.624 1895.58,565.874 C1893.55,562.794 1892.67,558.944 1892.67,553.059 C1892.67,540.794 1896.74,534.249 1904.38,534.249 C1910.65,534.249 1915,538.759 1917.25,547.559 L1919.62,547.559 L1918.85,532.104 "/>
<path class="Harmony" d="M1931.58,546.789 L1934,547.174 L1934.99,542.829 C1935.81,539.199 1936.2,538.649 1937.79,538.649 C1938.07,538.649 1938.51,538.649 1939,538.704 C1945.77,539.034 1945.77,539.034 1948.3,539.034 C1949.01,539.034 1950.28,539.034 1951.82,538.979 L1948.08,546.514 C1944.01,554.599 1943.51,555.589 1942.14,558.999 C1940.43,563.124 1939.55,566.589 1939.55,568.899 C1939.55,571.429 1940.87,572.969 1943.02,572.969 C1945.66,572.969 1946.7,571.209 1946.65,566.424 C1946.37,558.504 1947.36,554.654 1953.25,541.784 C1954.24,539.639 1955.28,537.439 1956.27,535.294 L1956.27,533.699 C1952.97,533.974 1951.21,534.084 1947.8,534.084 C1943.02,534.084 1939.22,533.919 1933.28,533.479 L1931.58,546.789 "/>
<path class="Harmony" d="M1602.64,532.104 L1600.55,532.104 L1598.35,535.349 C1594.33,532.434 1592.3,531.664 1588.5,531.664 C1583.28,531.664 1578.82,533.864 1575.14,538.264 C1571.62,542.444 1569.97,547.064 1569.97,552.729 C1569.97,564.609 1577.72,573.024 1588.56,573.024 C1597.36,573.024 1602.97,567.854 1604.23,558.614 L1601.65,558.174 C1600.16,566.369 1595.98,570.439 1589.22,570.439 C1581.08,570.439 1577.23,564.829 1577.23,552.949 C1577.23,546.679 1578.05,542.554 1579.92,539.254 C1581.63,536.174 1584.98,534.249 1588.56,534.249 C1592.41,534.249 1595.82,536.284 1597.91,539.804 C1598.95,541.619 1599.72,543.654 1601.04,547.999 L1603.46,547.999 L1602.64,532.104 "/>
<path class="Harmony" d="M2203.32,1003.3 L2201.23,1003.3 L2199.03,1006.55 C2195.02,1003.63 2192.98,1002.86 2189.19,1002.86 C2183.96,1002.86 2179.51,1005.06 2175.82,1009.46 C2172.3,1013.64 2170.65,1018.26 2170.65,1023.93 C2170.65,1035.81 2178.41,1044.22 2189.24,1044.22 C2198.04,1044.22 2203.65,1039.05 2204.92,1029.81 L2202.33,1029.37 C2200.85,1037.57 2196.67,1041.64 2189.9,1041.64 C2181.76,1041.64 2177.91,1036.03 2177.91,1024.15 C2177.91,1017.88 2178.74,1013.75 2180.61,1010.45 C2182.31,1007.37 2185.67,1005.45 2189.24,1005.45 C2193.09,1005.45 2196.5,1007.48 2198.59,1011 C2199.64,1012.82 2200.41,1014.85 2201.73,1019.2 L2204.15,1019.2 L2203.32,1003.3 "/>
<path class="Harmony" d="M391.364,1003.3 L389.274,1003.3 L387.129,1006.6 C383.554,1003.8 381.134,1002.86 377.119,1002.86 C372.774,1002.86 369.364,1004.07 365.899,1006.88 C360.454,1011.28 357.924,1016.83 357.924,1024.26 C357.924,1029.87 359.519,1034.54 362.764,1038.12 C366.174,1041.97 371.234,1044.22 376.514,1044.22 C381.134,1044.22 384.379,1042.79 387.954,1039.22 L389.989,1044.17 L392.299,1044.17 L392.299,1032.07 C392.299,1029.26 392.299,1029.15 392.629,1028.66 C393.124,1028.05 394.114,1027.89 397.249,1027.89 L398.074,1027.89 L398.074,1025.3 L380.584,1025.3 L380.584,1027.89 L381.629,1027.89 C386.249,1027.89 386.634,1028.16 386.634,1031.24 C386.634,1033.61 386.249,1035.75 385.534,1037.07 C384.159,1039.77 380.639,1041.64 377.064,1041.64 C373.489,1041.64 369.969,1039.82 368.099,1037.07 C366.064,1033.99 365.184,1030.14 365.184,1024.26 C365.184,1011.99 369.254,1005.45 376.899,1005.45 C383.169,1005.45 387.514,1009.96 389.769,1018.76 L392.134,1018.76 L391.364,1003.3 "/>
<path class="Harmony" d="M404.094,1017.99 L406.514,1018.37 L407.504,1014.03 C408.329,1010.4 408.714,1009.85 410.309,1009.85 C410.584,1009.85 411.024,1009.85 411.519,1009.9 C418.284,1010.23 418.284,1010.23 420.814,1010.23 C421.529,1010.23 422.794,1010.23 424.334,1010.18 L420.594,1017.71 C416.524,1025.8 416.029,1026.79 414.654,1030.2 C412.949,1034.32 412.069,1037.79 412.069,1040.1 C412.069,1042.63 413.389,1044.17 415.534,1044.17 C418.174,1044.17 419.219,1042.41 419.164,1037.62 C418.889,1029.7 419.879,1025.85 425.764,1012.98 C426.754,1010.84 427.799,1008.64 428.789,1006.49 L428.789,1004.9 C425.489,1005.17 423.729,1005.28 420.319,1005.28 C415.534,1005.28 411.739,1005.12 405.799,1004.68 L404.094,1017.99 "/>
<path class="Harmony" d="M1740.64,1003.3 L1738.55,1003.3 L1736.35,1006.55 C1732.33,1003.63 1730.3,1002.86 1726.5,1002.86 C1721.28,1002.86 1716.82,1005.06 1713.14,1009.46 C1709.62,1013.64 1707.97,1018.26 1707.97,1023.93 C1707.97,1035.81 1715.72,1044.22 1726.56,1044.22 C1735.36,1044.22 1740.97,1039.05 1742.23,1029.81 L1739.65,1029.37 C1738.16,1037.57 1733.98,1041.64 1727.22,1041.64 C1719.08,1041.64 1715.23,1036.03 1715.23,1024.15 C1715.23,1017.88 1716.05,1013.75 1717.92,1010.45 C1719.63,1007.37 1722.98,1005.45 1726.56,1005.45 C1730.41,1005.45 1733.82,1007.48 1735.91,1011 C1736.95,1012.82 1737.72,1014.85 1739.04,1019.2 L1741.46,1019.2 L1740.64,1003.3 "/>
<path class="Harmony" d="M445.442,532.104 L443.352,532.104 L441.152,535.349 C437.137,532.434 435.102,531.664 431.307,531.664 C426.082,531.664 421.627,533.864 417.942,538.264 C414.422,542.444 412.772,547.064 412.772,552.729 C412.772,564.609 420.527,573.024 431.362,573.024 C440.162,573.024 445.772,567.854 447.037,558.614 L444.452,558.174 C442.967,566.369 438.787,570.439 432.022,570.439 C423.882,570.439 420.032,564.829 420.032,552.949 C420.032,546.679 420.857,542.554 422.727,539.254 C424.432,536.174 427.787,534.249 431.362,534.249 C435.212,534.249 438.622,536.284 440.712,539.804 C441.757,541.619 442.527,543.654 443.847,547.999 L446.267,547.999 L445.442,532.104 "/>
<path class="Harmony" d="M1006.62,532.104 L1004.53,532.104 L1002.33,535.349 C998.315,532.434 996.28,531.664 992.485,531.664 C987.26,531.664 982.805,533.864 979.12,538.264 C975.6,542.444 973.95,547.064 973.95,552.729 C973.95,564.609 981.705,573.024 992.54,573.024 C1001.34,573.024 1006.95,567.854 1008.22,558.614 L1005.63,558.174 C1004.15,566.369 999.965,570.439 993.2,570.439 C985.06,570.439 981.21,564.829 981.21,552.949 C981.21,546.679 982.035,542.554 983.905,539.254 C985.61,536.174 988.965,534.249 992.54,534.249 C996.39,534.249 999.8,536.284 1001.89,539.804 C1002.94,541.619 1003.71,543.654 1005.03,547.999 L1007.45,547.999 L1006.62,532.104 "/>
<path class="Harmony" d="M994.833,1003.3 L992.743,1003.3 L990.543,1006.55 C986.528,1003.63 984.493,1002.86 980.698,1002.86 C975.473,1002.86 971.018,1005.06 967.333,1009.46 C963.813,1013.64 962.163,1018.26 962.163,1023.93 C962.163,1035.81 969.918,1044.22 980.753,1044.22 C989.553,1044.22 995.163,1039.05 996.428,1029.81 L993.843,1029.37 C992.358,1037.57 988.178,1041.64 981.413,1041.64 C973.273,1041.64 969.423,1036.03 969.423,1024.15 C969.423,1017.88 970.248,1013.75 972.118,1010.45 C973.823,1007.37 977.178,1005.45 980.753,1005.45 C984.603,1005.45 988.013,1007.48 990.103,1011 C991.148,1012.82 991.918,1014.85 993.238,1019.2 L995.658,1019.2 L994.833,1003.3 "/>
<path class="Harmony" d="M2344.88,1003.3 L2342.79,1003.3 L2340.59,1006.55 C2336.58,1003.63 2334.54,1002.86 2330.75,1002.86 C2325.52,1002.86 2321.07,1005.06 2317.38,1009.46 C2313.86,1013.64 2312.21,1018.26 2312.21,1023.93 C2312.21,1035.81 2319.97,1044.22 2330.8,1044.22 C2339.6,1044.22 2345.21,1039.05 2346.48,1029.81 L2343.89,1029.37 C2342.41,1037.57 2338.23,1041.64 2331.46,1041.64 C2323.32,1041.64 2319.47,1036.03 2319.47,1024.15 C2319.47,1017.88 2320.3,1013.75 2322.17,1010.45 C2323.87,1007.37 2327.23,1005.45 2330.8,1005.45 C2334.65,1005.45 2338.06,1007.48 2340.15,1011 C2341.2,1012.82 2341.97,1014.85 2343.29,1019.2 L2345.71,1019.2 L2344.88,1003.3 "/>
<path class="Harmony" d="M1599.08,1003.3 L1596.99,1003.3 L1594.79,1006.55 C1590.77,1003.63 1588.74,1002.86 1584.94,1002.86 C1579.72,1002.86 1575.26,1005.06 1571.58,1009.46 C1568.06,1013.64 1566.41,1018.26 1566.41,1023.93 C1566.41,1035.81 1574.16,1044.22 1585,1044.22 C1593.8,1044.22 1599.41,1039.05 1600.67,1029.81 L1598.09,1029.37 C1596.6,1037.57 1592.42,1041.64 1585.66,1041.64 C1577.52,1041.64 1573.67,1036.03 1573.67,1024.15 C1573.67,1017.88 1574.49,1013.75 1576.36,1010.45 C1578.07,1007.37 1581.42,1005.45 1585,1005.45 C1588.85,1005.45 1592.26,1007.48 1594.35,1011 C1595.39,1012.82 1596.16,1014.85 1597.48,1019.2 L1599.9,1019.2 L1599.08,1003.3 "/>
<path class="Harmony" d="M2058.21,532.104 L2056.12,532.104 L2053.97,535.404 C2050.4,532.599 2047.98,531.664 2043.96,531.664 C2039.62,531.664 2036.21,532.874 2032.74,535.679 C2027.3,540.079 2024.77,545.634 2024.77,553.059 C2024.77,558.669 2026.36,563.344 2029.61,566.919 C2033.02,570.769 2038.08,573.024 2043.36,573.024 C2047.98,573.024 2051.22,571.594 2054.8,568.019 L2056.83,572.969 L2059.14,572.969 L2059.14,560.869 C2059.14,558.064 2059.14,557.954 2059.47,557.459 C2059.97,556.854 2060.96,556.689 2064.09,556.689 L2064.92,556.689 L2064.92,554.104 L2047.43,554.104 L2047.43,556.689 L2048.47,556.689 C2053.09,556.689 2053.48,556.964 2053.48,560.044 C2053.48,562.409 2053.09,564.554 2052.38,565.874 C2051,568.569 2047.48,570.439 2043.91,570.439 C2040.33,570.439 2036.81,568.624 2034.94,565.874 C2032.91,562.794 2032.03,558.944 2032.03,553.059 C2032.03,540.794 2036.1,534.249 2043.74,534.249 C2050.01,534.249 2054.36,538.759 2056.61,547.559 L2058.98,547.559 L2058.21,532.104 "/>
<path class="Harmony" d="M2070.94,546.789 L2073.36,547.174 L2074.35,542.829 C2075.17,539.199 2075.56,538.649 2077.15,538.649 C2077.43,538.649 2077.87,538.649 2078.36,538.704 C2085.13,539.034 2085.13,539.034 2087.66,539.034 C2088.37,539.034 2089.64,539.034 2091.18,538.979 L2087.44,546.514 C2083.37,554.599 2082.87,555.589 2081.5,558.999 C2079.79,563.124 2078.91,566.589 2078.91,568.899 C2078.91,571.429 2080.23,572.969 2082.38,572.969 C2085.02,572.969 2086.06,571.209 2086.01,566.424 C2085.73,558.504 2086.72,554.654 2092.61,541.784 C2093.6,539.639 2094.64,537.439 2095.63,535.294 L2095.63,533.699 C2092.33,533.974 2090.57,534.084 2087.16,534.084 C2082.38,534.084 2078.58,533.919 2072.64,533.479 L2070.94,546.789 "/>
<path class="Harmony" d="M1461.41,532.104 L1459.32,532.104 L1457.12,535.349 C1453.11,532.434 1451.07,531.664 1447.28,531.664 C1442.05,531.664 1437.6,533.864 1433.91,538.264 C1430.39,542.444 1428.74,547.064 1428.74,552.729 C1428.74,564.609 1436.5,573.024 1447.33,573.024 C1456.13,573.024 1461.74,567.854 1463.01,558.614 L1460.42,558.174 C1458.94,566.369 1454.76,570.439 1447.99,570.439 C1439.85,570.439 1436,564.829 1436,552.949 C1436,546.679 1436.83,542.554 1438.7,539.254 C1440.4,536.174 1443.76,534.249 1447.33,534.249 C1451.18,534.249 1454.59,536.284 1456.68,539.804 C1457.73,541.619 1458.5,543.654 1459.82,547.999 L1462.24,547.999 L1461.41,532.104 "/>
<path class="Harmony" d="M2688.29,532.104 L2686.2,532.104 L2684,535.349 C2679.99,532.434 2677.95,531.664 2674.16,531.664 C2668.93,531.664 2664.48,533.864 2660.79,538.264 C2657.27,542.444 2655.62,547.064 2655.62,552.729 C2655.62,564.609 2663.38,573.024 2674.21,573.024 C2683.01,573.024 2688.62,567.854 2689.89,558.614 L2687.3,558.174 C2685.82,566.369 2681.64,570.439 2674.87,570.439 C2666.73,570.439 2662.88,564.829 2662.88,552.949 C2662.88,546.679 2663.71,542.554 2665.58,539.254 C2667.28,536.174 2670.64,534.249 2674.21,534.249 C2678.06,534.249 2681.47,536.284 2683.56,539.804 C2684.61,541.619 2685.38,543.654 2686.7,547.999 L2689.12,547.999 L2688.29,532.104 "/>
<path class="Harmony" d="M1145.98,532.104 L1143.89,532.104 L1141.69,535.349 C1137.68,532.434 1135.64,531.664 1131.85,531.664 C1126.62,531.664 1122.17,533.864 1118.48,538.264 C1114.96,542.444 1113.31,547.064 1113.31,552.729 C1113.31,564.609 1121.07,573.024 1131.9,573.024 C1140.7,573.024 1146.31,567.854 1147.58,558.614 L1144.99,558.174 C1143.51,566.369 1139.33,570.439 1132.56,570.439 C1124.42,570.439 1120.57,564.829 1120.57,552.949 C1120.57,546.679 1121.4,542.554 1123.27,539.254 C1124.97,536.174 1128.33,534.249 1131.9,534.249 C1135.75,534.249 1139.16,536.284 1141.25,539.804 C1142.3,541.619 1143.07,543.654 1144.39,547.999 L1146.81,547.999 L1145.98,532.104 "/>
<path class="Harmony" d="M2233.5,532.104 L2231.41,532.104 L2229.21,535.349 C2225.19,532.434 2223.16,531.664 2219.36,531.664 C2214.14,531.664 2209.68,533.864 2206,538.264 C2202.48,542.444 2200.83,547.064 2200.83,552.729 C2200.83,564.609 2208.58,573.024 2219.42,573.024 C2228.22,573.024 2233.83,567.854 2235.09,558.614 L2232.51,558.174 C2231.02,566.369 2226.84,570.439 2220.08,570.439 C2211.94,570.439 2208.09,564.829 2208.09,552.949 C2208.09,546.679 2208.91,542.554 2210.78,539.254 C2212.49,536.174 2215.84,534.249 2219.42,534.249 C2223.27,534.249 2226.68,536.284 2228.77,539.804 C2229.81,541.619 2230.58,543.654 2231.9,547.999 L2234.32,547.999 L2233.5,532.104 "/>
<path class="Harmony" d="M1456.21,1003.3 L1454.12,1003.3 L1451.92,1006.55 C1447.9,1003.63 1445.87,1002.86 1442.07,1002.86 C1436.85,1002.86 1432.39,1005.06 1428.71,1009.46 C1425.19,1013.64 1423.54,1018.26 1423.54,1023.93 C1423.54,1035.81 1431.29,1044.22 1442.13,1044.22 C1450.93,1044.22 1456.54,1039.05 1457.8,1029.81 L1455.22,1029.37 C1453.73,1037.57 1449.55,1041.64 1442.79,1041.64 C1434.65,1041.64 1430.8,1036.03 1430.8,1024.15 C1430.8,1017.88 1431.62,1013.75 1433.49,1010.45 C1435.2,1007.37 1438.55,1005.45 1442.13,1005.45 C1445.98,1005.45 1449.39,1007.48 1451.48,1011 C1452.52,1012.82 1453.29,1014.85 1454.61,1019.2 L1457.03,1019.2 L1456.21,1003.3 "/>
<path class="Harmony" d="M2523.14,1003.3 L2521.05,1003.3 L2518.85,1006.55 C2514.84,1003.63 2512.8,1002.86 2509.01,1002.86 C2503.78,1002.86 2499.33,1005.06 2495.64,1009.46 C2492.12,1013.64 2490.47,1018.26 2490.47,1023.93 C2490.47,1035.81 2498.23,1044.22 2509.06,1044.22 C2517.86,1044.22 2523.47,1039.05 2524.74,1029.81 L2522.15,1029.37 C2520.67,1037.57 2516.49,1041.64 2509.72,1041.64 C2501.58,1041.64 2497.73,1036.03 2497.73,1024.15 C2497.73,1017.88 2498.56,1013.75 2500.43,1010.45 C2502.13,1007.37 2505.49,1005.45 2509.06,1005.45 C2512.91,1005.45 2516.32,1007.48 2518.41,1011 C2519.46,1012.82 2520.23,1014.85 2521.55,1019.2 L2523.97,1019.2 L2523.14,1003.3 "/>
<path class="Harmony" d="M2548.93,532.104 L2546.84,532.104 L2544.64,535.349 C2540.62,532.434 2538.59,531.664 2534.79,531.664 C2529.57,531.664 2525.11,533.864 2521.43,538.264 C2517.91,542.444 2516.26,547.064 2516.26,552.729 C2516.26,564.609 2524.01,573.024 2534.85,573.024 C2543.65,573.024 2549.26,567.854 2550.52,558.614 L2547.94,558.174 C2546.45,566.369 2542.27,570.439 2535.51,570.439 C2527.37,570.439 2523.52,564.829 2523.52,552.949 C2523.52,546.679 2524.34,542.554 2526.21,539.254 C2527.92,536.174 2531.27,534.249 2534.85,534.249 C2538.7,534.249 2542.11,536.284 2544.2,539.804 C2545.24,541.619 2546.01,543.654 2547.33,547.999 L2549.75,547.999 L2548.93,532.104 "/>
<path class="Harmony" d="M1136.39,1003.3 L1134.3,1003.3 L1132.1,1006.55 C1128.08,1003.63 1126.05,1002.86 1122.25,1002.86 C1117.03,1002.86 1112.57,1005.06 1108.89,1009.46 C1105.37,1013.64 1103.72,1018.26 1103.72,1023.93 C1103.72,1035.81 1111.47,1044.22 1122.31,1044.22 C1131.11,1044.22 1136.72,1039.05 1137.98,1029.81 L1135.4,1029.37 C1133.91,1037.57 1129.73,1041.64 1122.97,1041.64 C1114.83,1041.64 1110.98,1036.03 1110.98,1024.15 C1110.98,1017.88 1111.8,1013.75 1113.67,1010.45 C1115.38,1007.37 1118.73,1005.45 1122.31,1005.45 C1126.16,1005.45 1129.57,1007.48 1131.66,1011 C1132.7,1012.82 1133.47,1014.85 1134.79,1019.2 L1137.21,1019.2 L1136.39,1003.3 "/>
<path class="Harmony" d="M1322.05,532.104 L1319.96,532.104 L1317.76,535.349 C1313.75,532.434 1311.71,531.664 1307.92,531.664 C1302.69,531.664 1298.24,533.864 1294.55,538.264 C1291.03,542.444 1289.38,547.064 1289.38,552.729 C1289.38,564.609 1297.14,573.024 1307.97,573.024 C1316.77,573.024 1322.38,567.854 1323.65,558.614 L1321.06,558.174 C1319.58,566.369 1315.4,570.439 1308.63,570.439 C1300.49,570.439 1296.64,564.829 1296.64,552.949 C1296.64,546.679 1297.47,542.554 1299.34,539.254 C1301.04,536.174 1304.4,534.249 1307.97,534.249 C1311.82,534.249 1315.23,536.284 1317.32,539.804 C1318.37,541.619 1319.14,543.654 1320.46,547.999 L1322.88,547.999 L1322.05,532.104 "/>
<path class="Harmony" d="M2372.86,532.104 L2370.77,532.104 L2368.57,535.349 C2364.56,532.434 2362.52,531.664 2358.73,531.664 C2353.5,531.664 2349.05,533.864 2345.36,538.264 C2341.84,542.444 2340.19,547.064 2340.19,552.729 C2340.19,564.609 2347.95,573.024 2358.78,573.024 C2367.58,573.024 2373.19,567.854 2374.46,558.614 L2371.87,558.174 C2370.39,566.369 2366.21,570.439 2359.44,570.439 C2351.3,570.439 2347.45,564.829 2347.45,552.949 C2347.45,546.679 2348.28,542.554 2350.15,539.254 C2351.85,536.174 2355.21,534.249 2358.78,534.249 C2362.63,534.249 2366.04,536.284 2368.13,539.804 C2369.18,541.619 2369.95,543.654 2371.27,547.999 L2373.69,547.999 L2372.86,532.104 "/>
<path class="Harmony" d="M1919.67,1003.3 L1917.58,1003.3 L1915.44,1006.6 C1911.86,1003.8 1909.44,1002.86 1905.43,1002.86 C1901.08,1002.86 1897.67,1004.07 1894.21,1006.88 C1888.76,1011.28 1886.23,1016.83 1886.23,1024.26 C1886.23,1029.87 1887.83,1034.54 1891.07,1038.12 C1894.48,1041.97 1899.54,1044.22 1904.82,1044.22 C1909.44,1044.22 1912.69,1042.79 1916.26,1039.22 L1918.3,1044.17 L1920.61,1044.17 L1920.61,1032.07 C1920.61,1029.26 1920.61,1029.15 1920.94,1028.66 C1921.43,1028.05 1922.42,1027.89 1925.56,1027.89 L1926.38,1027.89 L1926.38,1025.3 L1908.89,1025.3 L1908.89,1027.89 L1909.94,1027.89 C1914.56,1027.89 1914.94,1028.16 1914.94,1031.24 C1914.94,1033.61 1914.56,1035.75 1913.84,1037.07 C1912.47,1039.77 1908.95,1041.64 1905.37,1041.64 C1901.8,1041.64 1898.28,1039.82 1896.41,1037.07 C1894.37,1033.99 1893.49,1030.14 1893.49,1024.26 C1893.49,1011.99 1897.56,1005.45 1905.21,1005.45 C1911.48,1005.45 1915.82,1009.96 1918.08,1018.76 L1920.44,1018.76 L1919.67,1003.3 "/>
<path class="Harmony" d="M1932.4,1017.99 L1934.82,1018.37 L1935.81,1014.03 C1936.64,1010.4 1937.02,1009.85 1938.62,1009.85 C1938.89,1009.85 1939.33,1009.85 1939.83,1009.9 C1946.59,1010.23 1946.59,1010.23 1949.12,1010.23 C1949.84,1010.23 1951.1,1010.23 1952.64,1010.18 L1948.9,1017.71 C1944.83,1025.8 1944.34,1026.79 1942.96,1030.2 C1941.26,1034.32 1940.38,1037.79 1940.38,1040.1 C1940.38,1042.63 1941.7,1044.17 1943.84,1044.17 C1946.48,1044.17 1947.53,1042.41 1947.47,1037.62 C1947.2,1029.7 1948.19,1025.85 1954.07,1012.98 C1955.06,1010.84 1956.11,1008.64 1957.1,1006.49 L1957.1,1004.9 C1953.8,1005.17 1952.04,1005.28 1948.63,1005.28 C1943.84,1005.28 1940.05,1005.12 1934.11,1004.68 L1932.4,1017.99 "/>
</svg>
