<?xml version="1.0" encoding="UTF-8" standalone="no"?>
<svg width="210.058mm" height="296.926mm" viewBox="0 0 2977.2 4208.4"
 xmlns="http://www.w3.org/2000/svg" xmlns:xlink="http://www.w3.org/1999/xlink" version="1.2" baseProfile="full">
<title>チューリップ</title>
<desc>Generated by MuseScore Studio 4.5.2</desc>
<path class="" fill="#ffffff" fill-rule="evenodd" d="M0,0 L2977.2,0 L2977.2,4208.4 L0,4208.4 L0,0 "/>
<polyline class="StaffLines" fill="none" stroke="#000000" stroke-width="2.73" stroke-linejoin="bevel" points="212.598,634.199 2764.6,634.199" />
<polyline class="StaffLines" fill="none" stroke="#000000" stroke-width="2.73" stroke-linejoin="bevel" points="212.598,658.999 2764.6,658.999" />
<polyline class="StaffLines" fill="none" stroke="#000000" stroke-width="2.73" stroke-linejoin="bevel" points="212.598,683.799 2764.6,683.799" />
<polyline class="StaffLines" fill="none" stroke="#000000" stroke-width="2.73" stroke-linejoin="bevel" points="212.598,708.599 2764.6,708.599" />
<polyline class="StaffLines" fill="none" stroke="#000000" stroke-width="2.73" stroke-linejoin="bevel" points="212.598,733.399 2764.6,733.399" />
<polyline class="StaffLines" fill="none" stroke="#000000" stroke-width="2.73" stroke-linejoin="bevel" points="212.598,1105.4 2764.6,1105.4" />
<polyline class="StaffLines" fill="none" stroke="#000000" stroke-width="2.73" stroke-linejoin="bevel" points="212.598,1130.2 2764.6,1130.2" />
<polyline class="StaffLines" fill="none" stroke="#000000" stroke-width="2.73" stroke-linejoin="bevel" points="212.598,1155 2764.6,1155" />
<polyline class="StaffLines" fill="none" stroke="#000000" stroke-width="2.73" stroke-linejoin="bevel" points="212.598,1179.8 2764.6,1179.8" />
<polyline class="StaffLines" fill="none" stroke="#000000" stroke-width="2.73" stroke-linejoin="bevel" points="212.598,1204.6 2764.6,1204.6" />
<path class="Text" d="M1238.09,218.323 C1234.57,220.523 1231.71,221.733 1225.55,223.603 C1211.47,227.783 1193.43,230.533 1179.35,230.533 C1177.7,230.533 1176.05,230.533 1172.97,230.313 C1174.62,233.833 1174.95,234.823 1175.61,237.683 C1191.78,237.023 1201.24,236.033 1208.17,234.603 C1208.17,244.283 1208.06,250.443 1207.84,255.283 L1176.27,255.283 C1170,255.283 1168.35,255.173 1164.72,254.513 L1164.72,262.873 C1168.68,262.433 1170.66,262.323 1176.27,262.323 L1207.18,262.323 C1206.41,271.783 1204.54,277.833 1200.47,283.883 C1195.08,292.023 1186.72,298.183 1174.73,302.803 C1177.7,305.223 1178.69,306.323 1180.67,309.623 C1194.09,303.133 1202.34,296.203 1208.06,286.633 C1212.24,279.703 1214.33,272.663 1215.21,262.323 L1242.16,262.323 C1247.77,262.323 1249.75,262.433 1253.71,262.873 L1253.71,254.513 C1250.08,255.173 1248.43,255.283 1242.16,255.283 L1215.76,255.283 C1215.87,250.993 1215.98,243.843 1216.09,233.283 C1224.78,231.523 1232.26,229.323 1240.29,226.463 C1242.38,225.693 1242.38,225.693 1243.7,225.363 L1238.09,218.323 M1332.47,298.733 C1334.78,287.183 1335.66,281.683 1338.19,264.193 C1338.96,258.693 1339.07,258.363 1339.95,256.493 L1336.32,253.303 C1334.78,253.963 1333.79,254.073 1331.15,254.073 L1301.67,254.073 C1297.38,254.073 1294.52,253.853 1291.88,253.413 L1291.88,261.333 C1294.74,260.893 1295.29,260.893 1301.56,260.893 L1330.93,260.893 C1329.94,270.793 1327.41,286.963 1324.88,298.733 L1291.44,298.733 C1286.27,298.733 1284.51,298.623 1281.54,298.073 L1281.54,306.103 C1284.18,305.663 1286.82,305.553 1291.55,305.553 L1345.45,305.553 C1349.96,305.553 1352.82,305.663 1355.46,306.103 L1355.46,298.073 C1352.6,298.623 1350.73,298.733 1345.56,298.733 L1332.47,298.733 M1383.62,267.493 C1386.92,267.163 1389.23,267.053 1397.26,267.053 L1461.06,267.053 C1468.43,267.053 1470.96,267.163 1474.48,267.493 L1474.48,258.583 C1471.07,259.023 1469.31,259.133 1461.17,259.133 L1397.26,259.133 C1389.78,259.133 1386.81,259.023 1383.62,258.473 L1383.62,267.493 M1509.9,220.303 C1510.23,222.943 1510.34,224.813 1510.34,229.543 L1510.34,258.913 C1510.34,263.313 1510.23,265.623 1509.9,268.153 L1519.03,268.153 C1518.7,265.513 1518.59,264.303 1518.59,259.023 L1518.59,229.433 C1518.59,224.373 1518.7,222.943 1519.03,220.303 L1509.9,220.303 M1558.52,220.303 C1558.85,222.723 1558.96,224.263 1558.96,229.983 L1558.96,242.413 C1558.96,259.133 1558.63,264.193 1557.42,270.463 C1555.33,280.693 1550.05,287.733 1539.82,293.673 C1534.1,297.083 1528.82,298.953 1518.92,301.153 C1521.67,304.453 1522.33,305.553 1523.54,308.743 C1532.89,305.993 1538.17,303.903 1543.56,300.823 C1554.34,294.773 1561.27,286.743 1564.46,276.403 C1566.44,270.023 1567.21,260.343 1567.21,242.853 L1567.21,229.873 C1567.21,224.593 1567.32,222.833 1567.76,220.303 L1558.52,220.303 M1614.62,247.143 C1619.24,254.733 1622.32,262.103 1624.96,271.783 L1632.44,269.253 C1628.37,257.593 1625.95,252.423 1621.55,244.833 L1614.62,247.143 M1637.28,242.523 C1642.01,250.773 1645.42,258.803 1647.4,266.613 L1654.66,264.083 C1651.8,255.283 1649.82,250.883 1643.99,240.433 L1637.28,242.523 M1675.45,242.413 C1675.45,242.743 1675.45,242.743 1675.45,243.073 L1675.45,243.513 C1675.45,244.833 1675.01,247.363 1674.24,250.993 C1672.26,259.463 1669.07,267.713 1664.89,274.643 C1657.3,287.293 1646.96,295.763 1630.02,303.353 C1632.55,305.663 1633.43,306.763 1635.08,309.513 C1652.13,301.263 1663.68,291.143 1671.49,277.723 C1675.45,270.903 1679.41,260.783 1681.17,253.083 C1682.93,245.933 1682.93,245.933 1683.59,244.173 L1675.45,242.413 M1779.17,228.333 L1725.05,228.333 C1719.11,228.333 1716.58,228.223 1712.62,227.673 L1712.62,236.473 C1715.92,236.033 1718.56,235.813 1724.94,235.813 L1780.93,235.813 C1777.08,251.873 1770.7,264.743 1761.68,274.973 C1751.78,286.193 1736.16,295.873 1721.42,299.943 C1724.06,302.583 1725.27,304.123 1726.81,307.533 C1742.98,301.483 1755.41,293.453 1766.85,281.463 C1776.86,271.013 1783.9,257.263 1789.29,237.683 C1789.4,237.353 1789.4,237.353 1789.51,237.023 C1791.05,237.463 1792.15,237.573 1793.36,237.573 C1800.29,237.573 1805.9,231.963 1805.9,225.033 C1805.9,218.213 1800.29,212.603 1793.47,212.603 C1786.54,212.603 1780.93,218.213 1780.93,225.143 C1780.93,226.133 1781.04,227.123 1781.37,228.333 L1779.17,228.333 M1793.47,217.223 C1797.76,217.223 1801.28,220.743 1801.28,225.033 C1801.28,229.433 1797.76,232.953 1793.47,232.953 C1789.07,232.953 1785.55,229.433 1785.55,225.033 C1785.55,220.743 1789.07,217.223 1793.47,217.223"/>
<path class="MeasureNumber" d="M228.053,1042.12 C227.053,1046.76 224.373,1054.72 218.653,1054.72 C217.493,1054.72 216.733,1054.24 216.733,1053.52 C216.733,1053.24 216.813,1053.12 217.133,1052.64 C217.533,1052.12 217.733,1051.64 217.733,1051.08 C217.733,1049.76 216.693,1048.76 215.333,1048.76 C213.733,1048.76 212.613,1049.96 212.613,1051.72 C212.613,1054.44 215.173,1056.4 218.733,1056.4 C227.493,1056.4 233.093,1045.2 233.093,1037.6 C233.093,1031.36 230.093,1027.64 225.133,1027.64 C219.173,1027.64 214.733,1033.12 214.733,1038.84 C214.733,1042.64 217.653,1045.52 221.533,1045.52 C224.173,1045.52 226.213,1044.44 228.053,1042.12 M225.093,1029.32 C227.653,1029.32 229.293,1031.36 229.293,1034.56 C229.293,1039.52 226.573,1043.16 222.893,1043.16 C220.373,1043.16 218.973,1041.44 218.973,1038.44 C218.973,1034.84 220.693,1029.32 225.093,1029.32"/>
<polyline class="BarLine" fill="none" stroke="#000000" stroke-width="4.46" stroke-linejoin="bevel" points="667.293,632.835 667.293,734.763" />
<polyline class="BarLine" fill="none" stroke="#000000" stroke-width="4.46" stroke-linejoin="bevel" points="2740.42,1104.04 2740.42,1205.96" />
<polyline class="BarLine" fill="none" stroke="#000000" stroke-width="13.64" stroke-linejoin="bevel" points="2757.78,1104.04 2757.78,1205.96" />
<polyline class="BarLine" fill="none" stroke="#000000" stroke-width="4.46" stroke-linejoin="bevel" points="2234.03,1104.04 2234.03,1205.96" />
<polyline class="BarLine" fill="none" stroke="#000000" stroke-width="4.46" stroke-linejoin="bevel" points="1571.07,1104.04 1571.07,1205.96" />
<polyline class="BarLine" fill="none" stroke="#000000" stroke-width="4.46" stroke-linejoin="bevel" points="986.396,1104.04 986.396,1205.96" />
<polyline class="BarLine" fill="none" stroke="#000000" stroke-width="4.46" stroke-linejoin="bevel" points="2762.37,632.835 2762.37,734.763" />
<polyline class="BarLine" fill="none" stroke="#000000" stroke-width="4.46" stroke-linejoin="bevel" points="2473.37,632.835 2473.37,734.763" />
<polyline class="BarLine" fill="none" stroke="#000000" stroke-width="4.46" stroke-linejoin="bevel" points="2148.33,632.835 2148.33,734.763" />
<polyline class="BarLine" fill="none" stroke="#000000" stroke-width="4.46" stroke-linejoin="bevel" points="1859.33,632.835 1859.33,734.763" />
<polyline class="BarLine" fill="none" stroke="#000000" stroke-width="4.46" stroke-linejoin="bevel" points="1570.33,632.835 1570.33,734.763" />
<polyline class="BarLine" fill="none" stroke="#000000" stroke-width="4.46" stroke-linejoin="bevel" points="1281.33,632.835 1281.33,734.763" />
<polyline class="BarLine" fill="none" stroke="#000000" stroke-width="4.46" stroke-linejoin="bevel" points="956.292,632.835 956.292,734.763" />
<polyline class="LedgerLine" fill="none" stroke="#000000" stroke-width="3.97" stroke-linejoin="bevel" points="2259.82,1229.4 2309.41,1229.4" />
<polyline class="LedgerLine" fill="none" stroke="#000000" stroke-width="3.97" stroke-linejoin="bevel" points="1885.12,758.199 1934.71,758.199" />
<polyline class="LedgerLine" fill="none" stroke="#000000" stroke-width="3.97" stroke-linejoin="bevel" points="693.085,758.199 742.669,758.199" />
<polyline class="LedgerLine" fill="none" stroke="#000000" stroke-width="3.97" stroke-linejoin="bevel" points="2390.37,758.199 2439.96,758.199" />
<polyline class="LedgerLine" fill="none" stroke="#000000" stroke-width="3.97" stroke-linejoin="bevel" points="404.086,758.199 453.67,758.199" />
<polyline class="LedgerLine" fill="none" stroke="#000000" stroke-width="3.97" stroke-linejoin="bevel" points="1596.12,758.199 1645.71,758.199" />
<polyline class="LedgerLine" fill="none" stroke="#000000" stroke-width="3.97" stroke-linejoin="bevel" points="2643.33,758.199 2692.92,758.199" />
<polyline class="LedgerLine" fill="none" stroke="#000000" stroke-width="3.97" stroke-linejoin="bevel" points="1198.34,758.199 1247.92,758.199" />
<polyline class="Stem" fill="none" stroke="#000000" stroke-width="2.73" stroke-linejoin="bevel" points="1996.75,741.831 1996.75,677.712" />
<polyline class="Stem" fill="none" stroke="#000000" stroke-width="2.73" stroke-linejoin="bevel" points="2068.83,729.431 2068.83,646.599" />
<polyline class="Stem" fill="none" stroke="#000000" stroke-width="2.73" stroke-linejoin="bevel" points="1165.79,741.831 1165.79,677.712" />
<polyline class="Stem" fill="none" stroke="#000000" stroke-width="2.73" stroke-linejoin="bevel" points="1051.73,1163.43 1051.73,1099.2" />
<polyline class="Stem" fill="none" stroke="#000000" stroke-width="2.73" stroke-linejoin="bevel" points="1093.71,729.431 1093.71,640.286" />
<polyline class="Stem" fill="none" stroke="#000000" stroke-width="2.73" stroke-linejoin="bevel" points="858.461,1175.83 858.461,1105.45" />
<polyline class="Stem" fill="none" stroke="#000000" stroke-width="2.73" stroke-linejoin="bevel" points="1237.88,754.231 1237.88,683.686" />
<polyline class="Stem" fill="none" stroke="#000000" stroke-width="2.73" stroke-linejoin="bevel" points="1364.86,1175.83 1364.86,1093" />
<polyline class="Stem" fill="none" stroke="#000000" stroke-width="2.73" stroke-linejoin="bevel" points="701.898,1200.63 701.898,1111.55" />
<polyline class="Stem" fill="none" stroke="#000000" stroke-width="2.73" stroke-linejoin="bevel" points="545.335,1175.83 545.335,1105.4" />
<polyline class="Stem" fill="none" stroke="#000000" stroke-width="2.73" stroke-linejoin="bevel" points="1636.4,1200.63 1636.4,1130.2" />
<polyline class="Stem" fill="none" stroke="#000000" stroke-width="2.73" stroke-linejoin="bevel" points="1346.67,741.831 1346.67,665.086" />
<polyline class="Stem" fill="none" stroke="#000000" stroke-width="2.73" stroke-linejoin="bevel" points="388.772,1175.83 388.772,1105.4" />
<polyline class="Stem" fill="none" stroke="#000000" stroke-width="2.73" stroke-linejoin="bevel" points="1021.62,704.631 1021.62,634.312" />
<polyline class="Stem" fill="none" stroke="#000000" stroke-width="2.73" stroke-linejoin="bevel" points="443.626,754.231 443.626,683.686" />
<polyline class="Stem" fill="none" stroke="#000000" stroke-width="2.73" stroke-linejoin="bevel" points="1418.75,729.431 1418.75,659.112" />
<polyline class="Stem" fill="none" stroke="#000000" stroke-width="2.73" stroke-linejoin="bevel" points="587.795,729.431 587.795,646.599" />
<polyline class="Stem" fill="none" stroke="#000000" stroke-width="2.73" stroke-linejoin="bevel" points="1490.83,741.831 1490.83,658.999" />
<polyline class="Stem" fill="none" stroke="#000000" stroke-width="2.73" stroke-linejoin="bevel" points="2682.87,754.231 2682.87,671.399" />
<polyline class="Stem" fill="none" stroke="#000000" stroke-width="2.73" stroke-linejoin="bevel" points="2610.79,729.431 2610.79,659.112" />
<polyline class="Stem" fill="none" stroke="#000000" stroke-width="2.73" stroke-linejoin="bevel" points="515.71,741.831 515.71,677.712" />
<polyline class="Stem" fill="none" stroke="#000000" stroke-width="2.73" stroke-linejoin="bevel" points="1792.97,1200.63 1792.97,1130.2" />
<polyline class="Stem" fill="none" stroke="#000000" stroke-width="2.73" stroke-linejoin="bevel" points="1635.66,754.231 1635.66,683.686" />
<polyline class="Stem" fill="none" stroke="#000000" stroke-width="2.73" stroke-linejoin="bevel" points="1949.53,1213.03 1949.53,1136.4" />
<polyline class="Stem" fill="none" stroke="#000000" stroke-width="2.73" stroke-linejoin="bevel" points="2538.7,741.831 2538.7,665.086" />
<polyline class="Stem" fill="none" stroke="#000000" stroke-width="2.73" stroke-linejoin="bevel" points="876.794,729.431 876.794,646.599" />
<polyline class="Stem" fill="none" stroke="#000000" stroke-width="2.73" stroke-linejoin="bevel" points="2106.09,1213.03 2106.09,1136.4" />
<polyline class="Stem" fill="none" stroke="#000000" stroke-width="2.73" stroke-linejoin="bevel" points="1707.75,741.831 1707.75,677.712" />
<polyline class="Stem" fill="none" stroke="#000000" stroke-width="2.73" stroke-linejoin="bevel" points="804.71,741.831 804.71,677.712" />
<polyline class="Stem" fill="none" stroke="#000000" stroke-width="2.73" stroke-linejoin="bevel" points="1779.83,729.431 1779.83,646.599" />
<polyline class="Stem" fill="none" stroke="#000000" stroke-width="2.73" stroke-linejoin="bevel" points="2429.92,754.231 2429.92,683.686" />
<polyline class="Stem" fill="none" stroke="#000000" stroke-width="2.73" stroke-linejoin="bevel" points="2357.83,741.831 2357.83,677.712" />
<polyline class="Stem" fill="none" stroke="#000000" stroke-width="2.73" stroke-linejoin="bevel" points="2285.75,729.431 2285.75,640.286" />
<polyline class="Stem" fill="none" stroke="#000000" stroke-width="2.73" stroke-linejoin="bevel" points="2299.36,1225.43 2299.36,1142.6" />
<polyline class="Stem" fill="none" stroke="#000000" stroke-width="2.73" stroke-linejoin="bevel" points="1924.66,754.231 1924.66,683.686" />
<polyline class="Stem" fill="none" stroke="#000000" stroke-width="2.73" stroke-linejoin="bevel" points="732.625,754.231 732.625,683.686" />
<polyline class="Stem" fill="none" stroke="#000000" stroke-width="2.73" stroke-linejoin="bevel" points="2213.66,704.631 2213.66,634.312" />
<polyline class="Stem" fill="none" stroke="#000000" stroke-width="2.73" stroke-linejoin="bevel" points="1208.29,1163.43 1208.29,1099.2" />
<path class="Note" transform="matrix(0.992001,0,0,0.992001,2326.97,745.799)" d="M0,4.2 C0,8.5 3.1,13.3 11.2,13.3 C21.6,13.3 32.5,4.8 32.5,-4 C32.5,-9.9 27.5,-13.2 21.3,-13.2 C11.6,-13.2 0,-5 0,4.2"/>
<path class="Note" transform="matrix(0.992001,0,0,0.992001,1315.8,745.799)" d="M0,4.2 C0,8.5 3.1,13.3 11.2,13.3 C21.6,13.3 32.5,4.8 32.5,-4 C32.5,-9.9 27.5,-13.2 21.3,-13.2 C11.6,-13.2 0,-5 0,4.2"/>
<path class="Note" transform="matrix(0.992001,0,0,0.992001,1965.89,745.799)" d="M0,4.2 C0,8.5 3.1,13.3 11.2,13.3 C21.6,13.3 32.5,4.8 32.5,-4 C32.5,-9.9 27.5,-13.2 21.3,-13.2 C11.6,-13.2 0,-5 0,4.2"/>
<path class="Note" transform="matrix(0.992001,0,0,0.992001,1177.43,1167.4)" d="M0,4.2 C0,8.5 3.1,13.3 11.2,13.3 C21.6,13.3 32.5,4.8 32.5,-4 C32.5,-9.9 27.5,-13.2 21.3,-13.2 C11.6,-13.2 0,-5 0,4.2"/>
<path class="Note" transform="matrix(0.992001,0,0,0.992001,2037.97,733.399)" d="M0,4.2 C0,8.5 3.1,13.3 11.2,13.3 C21.6,13.3 32.5,4.8 32.5,-4 C32.5,-9.9 27.5,-13.2 21.3,-13.2 C11.6,-13.2 0,-5 0,4.2"/>
<path class="Note" transform="matrix(0.992001,0,0,0.992001,1062.85,733.399)" d="M0,4.2 C0,8.5 3.1,13.3 11.2,13.3 C21.6,13.3 32.5,4.8 32.5,-4 C32.5,-9.9 27.5,-13.2 21.3,-13.2 C11.6,-13.2 0,-5 0,4.2"/>
<path class="Note" transform="matrix(0.992001,0,0,0.992001,1020.87,1167.4)" d="M0,4.2 C0,8.5 3.1,13.3 11.2,13.3 C21.6,13.3 32.5,4.8 32.5,-4 C32.5,-9.9 27.5,-13.2 21.3,-13.2 C11.6,-13.2 0,-5 0,4.2"/>
<path class="Note" transform="matrix(0.992001,0,0,0.992001,1134.93,745.799)" d="M0,4.2 C0,8.5 3.1,13.3 11.2,13.3 C21.6,13.3 32.5,4.8 32.5,-4 C32.5,-9.9 27.5,-13.2 21.3,-13.2 C11.6,-13.2 0,-5 0,4.2"/>
<path class="Note" transform="matrix(0.992001,0,0,0.992001,1893.8,758.199)" d="M0,4.2 C0,8.5 3.1,13.3 11.2,13.3 C21.6,13.3 32.5,4.8 32.5,-4 C32.5,-9.9 27.5,-13.2 21.3,-13.2 C11.6,-13.2 0,-5 0,4.2"/>
<path class="Note" transform="matrix(0.992001,0,0,0.992001,2182.8,708.599)" d="M0,4.2 C0,8.5 3.1,13.3 11.2,13.3 C21.6,13.3 32.5,4.8 32.5,-4 C32.5,-9.9 27.5,-13.2 21.3,-13.2 C11.6,-13.2 0,-5 0,4.2"/>
<path class="Note" transform="matrix(0.992001,0,0,0.992001,827.601,1179.8)" d="M0,4.2 C0,8.5 3.1,13.3 11.2,13.3 C21.6,13.3 32.5,4.8 32.5,-4 C32.5,-9.9 27.5,-13.2 21.3,-13.2 C11.6,-13.2 0,-5 0,4.2"/>
<path class="Note" transform="matrix(0.992001,0,0,0.992001,2268.5,1229.4)" d="M0,4.2 C0,8.5 3.1,13.3 11.2,13.3 C21.6,13.3 32.5,4.8 32.5,-4 C32.5,-9.9 27.5,-13.2 21.3,-13.2 C11.6,-13.2 0,-5 0,4.2"/>
<path class="Note" transform="matrix(0.992001,0,0,0.992001,556.934,733.399)" d="M0,4.2 C0,8.5 3.1,13.3 11.2,13.3 C21.6,13.3 32.5,4.8 32.5,-4 C32.5,-9.9 27.5,-13.2 21.3,-13.2 C11.6,-13.2 0,-5 0,4.2"/>
<path class="Note" transform="matrix(0.992001,0,0,0.992001,2254.89,733.399)" d="M0,4.2 C0,8.5 3.1,13.3 11.2,13.3 C21.6,13.3 32.5,4.8 32.5,-4 C32.5,-9.9 27.5,-13.2 21.3,-13.2 C11.6,-13.2 0,-5 0,4.2"/>
<path class="Note" transform="matrix(0.992001,0,0,0.992001,701.765,758.199)" d="M0,4.2 C0,8.5 3.1,13.3 11.2,13.3 C21.6,13.3 32.5,4.8 32.5,-4 C32.5,-9.9 27.5,-13.2 21.3,-13.2 C11.6,-13.2 0,-5 0,4.2"/>
<path class="Note" transform="matrix(0.992001,0,0,0.992001,990.764,708.599)" d="M0,4.2 C0,8.5 3.1,13.3 11.2,13.3 C21.6,13.3 32.5,4.8 32.5,-4 C32.5,-9.9 27.5,-13.2 21.3,-13.2 C11.6,-13.2 0,-5 0,4.2"/>
<path class="Note" transform="matrix(0.992001,0,0,0.992001,1605.54,1204.6)" d="M0,4.2 C0,8.5 3.1,13.3 11.2,13.3 C21.6,13.3 32.5,4.8 32.5,-4 C32.5,-9.9 27.5,-13.2 21.3,-13.2 C11.6,-13.2 0,-5 0,4.2"/>
<path class="Note" transform="matrix(0.992001,0,0,0.992001,2075.23,1217)" d="M0,4.2 C0,8.5 3.1,13.3 11.2,13.3 C21.6,13.3 32.5,4.8 32.5,-4 C32.5,-9.9 27.5,-13.2 21.3,-13.2 C11.6,-13.2 0,-5 0,4.2"/>
<path class="Note" transform="matrix(0.992001,0,0,0.992001,1748.97,733.399)" d="M0,4.2 C0,8.5 3.1,13.3 11.2,13.3 C21.6,13.3 32.5,4.8 32.5,-4 C32.5,-9.9 27.5,-13.2 21.3,-13.2 C11.6,-13.2 0,-5 0,4.2"/>
<path class="Note" transform="matrix(0.992001,0,0,0.992001,1676.89,745.799)" d="M0,4.2 C0,8.5 3.1,13.3 11.2,13.3 C21.6,13.3 32.5,4.8 32.5,-4 C32.5,-9.9 27.5,-13.2 21.3,-13.2 C11.6,-13.2 0,-5 0,4.2"/>
<path class="Note" transform="matrix(0.992001,0,0,0.992001,2399.06,758.199)" d="M0,4.2 C0,8.5 3.1,13.3 11.2,13.3 C21.6,13.3 32.5,4.8 32.5,-4 C32.5,-9.9 27.5,-13.2 21.3,-13.2 C11.6,-13.2 0,-5 0,4.2"/>
<path class="Note" transform="matrix(0.992001,0,0,0.992001,412.766,758.199)" d="M0,4.2 C0,8.5 3.1,13.3 11.2,13.3 C21.6,13.3 32.5,4.8 32.5,-4 C32.5,-9.9 27.5,-13.2 21.3,-13.2 C11.6,-13.2 0,-5 0,4.2"/>
<path class="Note" transform="matrix(0.992001,0,0,0.992001,773.849,745.799)" d="M0,4.2 C0,8.5 3.1,13.3 11.2,13.3 C21.6,13.3 32.5,4.8 32.5,-4 C32.5,-9.9 27.5,-13.2 21.3,-13.2 C11.6,-13.2 0,-5 0,4.2"/>
<path class="Note" transform="matrix(0.992001,0,0,0.992001,671.038,1204.6)" d="M0,4.2 C0,8.5 3.1,13.3 11.2,13.3 C21.6,13.3 32.5,4.8 32.5,-4 C32.5,-9.9 27.5,-13.2 21.3,-13.2 C11.6,-13.2 0,-5 0,4.2"/>
<path class="Note" transform="matrix(0.992001,0,0,0.992001,1604.8,758.199)" d="M0,4.2 C0,8.5 3.1,13.3 11.2,13.3 C21.6,13.3 32.5,4.8 32.5,-4 C32.5,-9.9 27.5,-13.2 21.3,-13.2 C11.6,-13.2 0,-5 0,4.2"/>
<path class="Note" transform="matrix(0.992001,0,0,0.992001,2507.84,745.799)" d="M0,4.2 C0,8.5 3.1,13.3 11.2,13.3 C21.6,13.3 32.5,4.8 32.5,-4 C32.5,-9.9 27.5,-13.2 21.3,-13.2 C11.6,-13.2 0,-5 0,4.2"/>
<path class="Note" transform="matrix(0.992001,0,0,0.992001,1207.02,758.199)" d="M0,4.2 C0,8.5 3.1,13.3 11.2,13.3 C21.6,13.3 32.5,4.8 32.5,-4 C32.5,-9.9 27.5,-13.2 21.3,-13.2 C11.6,-13.2 0,-5 0,4.2"/>
<path class="Note" transform="matrix(0.992001,0,0,0.992001,514.474,1179.8)" d="M0,4.2 C0,8.5 3.1,13.3 11.2,13.3 C21.6,13.3 32.5,4.8 32.5,-4 C32.5,-9.9 27.5,-13.2 21.3,-13.2 C11.6,-13.2 0,-5 0,4.2"/>
<path class="Note" transform="matrix(0.992001,0,0,0.992001,1918.67,1217)" d="M0,4.2 C0,8.5 3.1,13.3 11.2,13.3 C21.6,13.3 32.5,4.8 32.5,-4 C32.5,-9.9 27.5,-13.2 21.3,-13.2 C11.6,-13.2 0,-5 0,4.2"/>
<path class="Note" transform="matrix(0.992001,0,0,0.992001,2579.93,733.399)" d="M0,4.2 C0,8.5 3.1,13.3 11.2,13.3 C21.6,13.3 32.5,4.8 32.5,-4 C32.5,-9.9 27.5,-13.2 21.3,-13.2 C11.6,-13.2 0,-5 0,4.2"/>
<path class="Note" transform="matrix(0.992001,0,0,0.992001,1459.97,745.799)" d="M0,4.2 C0,8.5 3.1,13.3 11.2,13.3 C21.6,13.3 32.5,4.8 32.5,-4 C32.5,-9.9 27.5,-13.2 21.3,-13.2 C11.6,-13.2 0,-5 0,4.2"/>
<path class="Note" transform="matrix(0.992001,0,0,0.992001,1387.89,733.399)" d="M0,4.2 C0,8.5 3.1,13.3 11.2,13.3 C21.6,13.3 32.5,4.8 32.5,-4 C32.5,-9.9 27.5,-13.2 21.3,-13.2 C11.6,-13.2 0,-5 0,4.2"/>
<path class="Note" transform="matrix(0.992001,0,0,0.992001,2652.01,758.199)" d="M0,4.2 C0,8.5 3.1,13.3 11.2,13.3 C21.6,13.3 32.5,4.8 32.5,-4 C32.5,-9.9 27.5,-13.2 21.3,-13.2 C11.6,-13.2 0,-5 0,4.2"/>
<path class="Note" transform="matrix(0.992001,0,0,0.992001,845.933,733.399)" d="M0,4.2 C0,8.5 3.1,13.3 11.2,13.3 C21.6,13.3 32.5,4.8 32.5,-4 C32.5,-9.9 27.5,-13.2 21.3,-13.2 C11.6,-13.2 0,-5 0,4.2"/>
<path class="Note" transform="matrix(0.992001,0,0,0.992001,1762.11,1204.6)" d="M0,4.2 C0,8.5 3.1,13.3 11.2,13.3 C21.6,13.3 32.5,4.8 32.5,-4 C32.5,-9.9 27.5,-13.2 21.3,-13.2 C11.6,-13.2 0,-5 0,4.2"/>
<path class="Note" transform="matrix(0.992001,0,0,0.992001,484.85,745.799)" d="M0,4.2 C0,8.5 3.1,13.3 11.2,13.3 C21.6,13.3 32.5,4.8 32.5,-4 C32.5,-9.9 27.5,-13.2 21.3,-13.2 C11.6,-13.2 0,-5 0,4.2"/>
<path class="Note" transform="matrix(0.992001,0,0,0.992001,357.911,1179.8)" d="M0,4.2 C0,8.5 3.1,13.3 11.2,13.3 C21.6,13.3 32.5,4.8 32.5,-4 C32.5,-9.9 27.5,-13.2 21.3,-13.2 C11.6,-13.2 0,-5 0,4.2"/>
<path class="Note" transform="matrix(0.992001,0,0,0.992001,1333.99,1179.8)" d="M0,4.2 C0,8.5 3.1,13.3 11.2,13.3 C21.6,13.3 32.5,4.8 32.5,-4 C32.5,-9.9 27.5,-13.2 21.3,-13.2 C11.6,-13.2 0,-5 0,4.2"/>
<path class="Clef" transform="matrix(0.992001,0,0,0.992001,232.438,1179.8)" d="M56.2,2.1 C56.2,9.2 53.3,16.5 46.2,19.4 C44.1,7.4 41.4,-8.5 40.7,-12.9 C49.7,-12.9 56.2,-6.8 56.2,2.1 M42,20.6 C40,21 38.1,21.2 36.2,21.2 C21.9,21.2 9.7,11.2 9.7,-3.9 C9.7,-16.1 18.3,-27 27.1,-34.6 C28.8,-36.1 30.4,-37.5 31.9,-39 C32.8,-33.6 33.5,-28.9 34.2,-24.8 C25.1,-22.1 18.9,-12.5 18.9,-3.1 C18.9,3.9 24.4,13.5 32.4,13.5 C33.2,13.5 34.1,13.1 34.1,12.2 C34.1,11.3 33.1,10.8 31.9,10 C28,7.6 25.8,5 25.8,0.1 C25.8,-6 30.3,-10.9 36.2,-12.3 L42,20.6 M33.2,-82.2 C34.1,-86.2 38.7,-96.7 43.9,-96.7 C45.4,-96.7 47.8,-91.8 47.8,-84.9 C47.8,-74.5 40.1,-66.7 33.2,-59.9 C32.6,-63.9 32.1,-67.8 32.1,-72 C32.1,-75.7 32.4,-79.1 33.2,-82.2 M12.2,51.3 C12.2,57.9 17.3,66.6 30.8,66.6 C35.5,66.6 39.6,65.4 43.2,63.2 C48.6,59.4 50,52.8 50,46.5 C50,42.6 49.4,38.1 48.4,32.4 C48.1,30.4 47.5,27.4 46.9,23.5 C56.7,20.3 64,10.1 64,-0.2 C64,-15.3 53.3,-25.5 38.7,-25.5 C37.7,-31.5 36.7,-37.4 35.8,-43 C46.4,-54.1 53.7,-66.6 53.7,-82.5 C53.7,-91.6 50.9,-99 49.3,-102.6 C46.9,-107.7 44,-111.2 42.2,-111.2 C41.5,-111.2 38.4,-110 35.1,-106.1 C28.7,-98.5 26.9,-85.7 26.9,-77.3 C26.9,-71.9 27.4,-67 29.1,-55.8 C29,-55.7 23.8,-50.4 21.7,-48.7 C12.6,-40.2 0,-28.1 0,-8.1 C0,10.6 16.3,25.3 34.9,25.3 C37.8,25.3 40.5,25 42.8,24.6 C44.7,34.2 45.8,41.2 45.8,46.5 C45.8,56.9 40.5,62.4 30.4,62.4 C28,62.4 25.9,61.9 25.7,61.9 C25.6,61.8 25.4,61.7 25.4,61.6 C25.4,61.4 25.6,61.3 25.9,61.2 C30.6,60.5 35.3,56.5 35.3,50.1 C35.3,44.7 31.2,39 23.7,39 C16.7,39 12.2,44.7 12.2,51.3"/>
<path class="Clef" transform="matrix(0.992001,0,0,0.992001,232.438,708.599)" d="M56.2,2.1 C56.2,9.2 53.3,16.5 46.2,19.4 C44.1,7.4 41.4,-8.5 40.7,-12.9 C49.7,-12.9 56.2,-6.8 56.2,2.1 M42,20.6 C40,21 38.1,21.2 36.2,21.2 C21.9,21.2 9.7,11.2 9.7,-3.9 C9.7,-16.1 18.3,-27 27.1,-34.6 C28.8,-36.1 30.4,-37.5 31.9,-39 C32.8,-33.6 33.5,-28.9 34.2,-24.8 C25.1,-22.1 18.9,-12.5 18.9,-3.1 C18.9,3.9 24.4,13.5 32.4,13.5 C33.2,13.5 34.1,13.1 34.1,12.2 C34.1,11.3 33.1,10.8 31.9,10 C28,7.6 25.8,5 25.8,0.1 C25.8,-6 30.3,-10.9 36.2,-12.3 L42,20.6 M33.2,-82.2 C34.1,-86.2 38.7,-96.7 43.9,-96.7 C45.4,-96.7 47.8,-91.8 47.8,-84.9 C47.8,-74.5 40.1,-66.7 33.2,-59.9 C32.6,-63.9 32.1,-67.8 32.1,-72 C32.1,-75.7 32.4,-79.1 33.2,-82.2 M12.2,51.3 C12.2,57.9 17.3,66.6 30.8,66.6 C35.5,66.6 39.6,65.4 43.2,63.2 C48.6,59.4 50,52.8 50,46.5 C50,42.6 49.4,38.1 48.4,32.4 C48.1,30.4 47.5,27.4 46.9,23.5 C56.7,20.3 64,10.1 64,-0.2 C64,-15.3 53.3,-25.5 38.7,-25.5 C37.7,-31.5 36.7,-37.4 35.8,-43 C46.4,-54.1 53.7,-66.6 53.7,-82.5 C53.7,-91.6 50.9,-99 49.3,-102.6 C46.9,-107.7 44,-111.2 42.2,-111.2 C41.5,-111.2 38.4,-110 35.1,-106.1 C28.7,-98.5 26.9,-85.7 26.9,-77.3 C26.9,-71.9 27.4,-67 29.1,-55.8 C29,-55.7 23.8,-50.4 21.7,-48.7 C12.6,-40.2 0,-28.1 0,-8.1 C0,10.6 16.3,25.3 34.9,25.3 C37.8,25.3 40.5,25 42.8,24.6 C44.7,34.2 45.8,41.2 45.8,46.5 C45.8,56.9 40.5,62.4 30.4,62.4 C28,62.4 25.9,61.9 25.7,61.9 C25.6,61.8 25.4,61.7 25.4,61.6 C25.4,61.4 25.6,61.3 25.9,61.2 C30.6,60.5 35.3,56.5 35.3,50.1 C35.3,44.7 31.2,39 23.7,39 C16.7,39 12.2,44.7 12.2,51.3"/>
<path class="TimeSig" transform="matrix(0.992001,0,0,0.992001,322.602,659.495)" d="M34.2,3.9 C33.4,6.1 31.4,13.3 26.5,13.3 C20,13.3 18.6,9.3 13.2,9.3 C12.4,9.3 11.6,9.4 10.6,9.6 C10.6,9.6 13.1,5.8 23.7,2.5 C34.3,-0.8 37,-6 37,-12 C37,-16.2 35.1,-24.5 20,-24.5 C4.9,-24.5 2.1,-15.4 2.1,-10.8 C2.1,-6.7 5.5,-3.4 9.6,-3.4 C13.7,-3.4 17,-6.7 17,-10.8 C17,-13.6 15,-16.7 12.4,-17.7 C12.1,-17.8 11.7,-18.3 11.7,-18.8 C11.7,-19.4 12.2,-20.1 14,-20.6 C14.5,-20.8 15.9,-21.1 17.4,-21.1 C18.8,-21.1 20.4,-20.8 21.6,-20 C23.5,-18.8 24.2,-17 24.2,-12.5 C24.2,-0.8 10.3,1.7 4.5,10.4 C4.5,10.4 1.5,14.6 1.5,19.3 C1.5,24 3.9,24.3 5.1,24.3 C6.7,24.3 8.4,23 8.4,21.2 C8.4,20.8 8.3,20.4 8.1,19.9 C7.5,18.5 7.3,17.4 7.3,16.6 C7.3,16.3 7.3,16 7.4,15.7 C7.5,15.1 8.3,14.1 10.7,14.1 C13.6,14.1 14.7,17.5 16.5,20.1 C18.3,22.7 21.1,24.3 24.3,24.3 C27.5,24.3 31.8,22 33.6,18.3 C35.4,14.6 37.7,7.1 37.7,4.4 C37.7,3.1 36.9,2.5 36,2.5 C35.3,2.5 34.6,2.9 34.2,3.9"/>
<path class="TimeSig" transform="matrix(0.992001,0,0,0.992001,319.331,708.599)" d="M20.8,12.7 L20.8,20.1 L12.5,20.1 C11.8,20.1 11.1,20.7 11.1,21.5 L11.1,23.4 C11.1,24.2 11.8,24.8 12.5,24.8 L42.8,24.8 C43.6,24.8 44.2,24.2 44.2,23.4 L44.2,21.5 C44.2,20.7 43.6,20.1 42.8,20.1 L33.8,20.1 L33.8,12.7 L42.8,12.7 C43.6,12.7 44.2,12 44.2,11.2 L44.2,9.3 C44.2,8.6 43.6,7.9 42.8,7.9 L33.8,7.9 L33.8,-8 C33.8,-8.6 33.5,-9.1 33.1,-9.3 L31.9,-9.9 C31.7,-10 31.6,-10 31.4,-10 C31.3,-10 31.3,-10 31.2,-10 C30.9,-10 30.5,-9.9 30.3,-9.7 L21.2,-1.4 C20.9,-1.1 20.8,-0.7 20.8,-0.3 L20.8,7.9 L9.2,7.9 C9.2,7.9 20.4,-4.1 32.2,-19.9 C32.6,-20.4 32.7,-20.9 32.7,-21.3 C32.7,-21.8 32.5,-22.2 32.4,-22.3 L30.2,-24.5 C29.9,-24.7 29.6,-24.9 29.2,-24.9 C28.6,-24.9 15.1,-24.9 14.3,-24.9 C13.6,-24.9 13.1,-24.3 13,-23.7 C13,-23.7 12.5,-16.3 9.9,-8.2 C7.3,-0.1 4.3,4.9 1.7,8.6 C1.7,8.6 1.4,9.1 1.4,9.7 C1.4,9.9 1.4,10.1 1.5,10.3 C1.8,11 2.5,12.1 2.5,12.1 C2.5,12.1 2.7,12.7 3.6,12.7 L20.8,12.7 "/>
<path class="Rest" transform="matrix(0.992001,0,0,0.992001,2503.35,1155)" d="M23,16.6 C22.9,16.5 22.7,16.3 22.4,15.9 L10.9,1.7 C10.8,1.6 10.7,1.3 10.7,1.1 C10.7,0.8 10.8,0.4 10.9,0.2 L21.1,-15.2 C21.2,-15.4 21.3,-15.7 21.3,-15.9 L21.3,-16.8 C21.3,-17.1 21.2,-17.4 21,-17.6 L4.8,-39.5 C4.8,-39.5 4.4,-40.1 3.8,-40.1 C3.5,-40.1 3.3,-40 3,-39.8 C2.6,-39.5 2.5,-39.1 2.5,-38.8 C2.5,-38.2 2.8,-37.7 2.8,-37.7 L10.4,-27.3 C10.6,-27 10.7,-26.6 10.7,-26.1 C10.7,-25.7 10.6,-25.2 10.4,-24.9 L0.3,-9.5 C0.2,-9.3 0.1,-8.9 0.1,-8.7 L0.1,-7.8 C0.1,-7.5 0.2,-7.2 0.4,-7 L11.6,6.9 C11.2,6.8 10.3,6.6 9.1,6.6 C7.4,6.6 5.2,7 3.4,8.6 C1.2,10.6 0,13.4 0,15.9 C0,17.3 0.3,18.7 1.1,19.8 C3.2,23 10.7,32.5 10.7,32.5 C10.7,32.5 11.2,33.1 11.9,33.1 C12.1,33.1 12.3,33.1 12.5,32.9 C13,32.5 13.2,32.1 13.2,31.7 C13.2,31.3 13,31 12.9,30.8 C12.6,30.3 9.4,24.5 9.4,24.5 C9.4,24.5 8.7,23.1 8.7,21.3 C8.7,20 9.1,18.4 10.4,17.1 C11.6,15.9 13,15.5 14.3,15.5 C15.6,15.5 16.7,15.9 17.5,16.4 L21.4,18.9 C21.4,18.9 21.8,19.1 22.2,19.1 C22.6,19.1 22.9,19 23.2,18.6 C23.4,18.2 23.5,18 23.5,17.7 C23.5,17.4 23.4,17.2 23.2,16.9 L23,16.6 "/>
<path class="Beam" fill-rule="evenodd" d="M387.408,1099.2 L546.699,1099.2 L546.699,1111.6 L387.408,1111.6 L387.408,1099.2 "/>
<path class="Beam" fill-rule="evenodd" d="M1635.04,1124 L1794.33,1124 L1794.33,1136.4 L1635.04,1136.4 L1635.04,1124 "/>
<path class="Beam" fill-rule="evenodd" d="M1345.3,658.978 L1420.11,652.778 L1420.11,665.22 L1345.3,671.42 L1345.3,658.978 "/>
<path class="Beam" fill-rule="evenodd" d="M1948.17,1130.2 L2107.46,1130.2 L2107.46,1142.6 L1948.17,1142.6 L1948.17,1130.2 "/>
<path class="Beam" fill-rule="evenodd" d="M2537.34,658.978 L2612.15,652.778 L2612.15,665.22 L2537.34,671.42 L2537.34,658.978 "/>
<path class="Beam" fill-rule="evenodd" d="M1634.3,677.578 L1709.11,671.378 L1709.11,683.82 L1634.3,690.02 L1634.3,677.578 "/>
<path class="Beam" fill-rule="evenodd" d="M700.534,1105.39 L859.825,1099.19 L859.825,1111.6 L700.534,1117.8 L700.534,1105.39 "/>
<path class="Beam" fill-rule="evenodd" d="M2356.47,671.378 L2431.28,677.578 L2431.28,690.02 L2356.47,683.82 L2356.47,671.378 "/>
<path class="Beam" fill-rule="evenodd" d="M731.261,677.578 L806.074,671.378 L806.074,683.82 L731.261,690.02 L731.261,677.578 "/>
<path class="Beam" fill-rule="evenodd" d="M2212.3,627.978 L2287.11,634.178 L2287.11,646.62 L2212.3,640.42 L2212.3,627.978 "/>
<path class="Beam" fill-rule="evenodd" d="M1164.43,671.378 L1239.24,677.578 L1239.24,690.02 L1164.43,683.82 L1164.43,671.378 "/>
<path class="Beam" fill-rule="evenodd" d="M442.262,677.578 L517.074,671.378 L517.074,683.82 L442.262,690.02 L442.262,677.578 "/>
<path class="Beam" fill-rule="evenodd" d="M1050.36,1093 L1209.66,1093 L1209.66,1105.4 L1050.36,1105.4 L1050.36,1093 "/>
<path class="Beam" fill-rule="evenodd" d="M1020.26,627.978 L1095.07,634.178 L1095.07,646.62 L1020.26,640.42 L1020.26,627.978 "/>
<path class="Beam" fill-rule="evenodd" d="M1923.3,677.578 L1998.11,671.378 L1998.11,683.82 L1923.3,690.02 L1923.3,677.578 "/>
<path class="Harmony" d="M1926.48,532.104 L1924.39,532.104 L1922.19,535.349 C1918.17,532.434 1916.14,531.664 1912.34,531.664 C1907.12,531.664 1902.66,533.864 1898.98,538.264 C1895.46,542.444 1893.81,547.064 1893.81,552.729 C1893.81,564.609 1901.56,573.024 1912.4,573.024 C1921.2,573.024 1926.81,567.854 1928.07,558.614 L1925.49,558.174 C1924,566.369 1919.82,570.439 1913.06,570.439 C1904.92,570.439 1901.07,564.829 1901.07,552.949 C1901.07,546.679 1901.89,542.554 1903.76,539.254 C1905.47,536.174 1908.82,534.249 1912.4,534.249 C1916.25,534.249 1919.66,536.284 1921.75,539.804 C1922.79,541.619 1923.56,543.654 1924.88,547.999 L1927.3,547.999 L1926.48,532.104 "/>
<path class="Harmony" d="M2536.02,1003.3 L2533.93,1003.3 L2531.73,1006.55 C2527.72,1003.63 2525.68,1002.86 2521.89,1002.86 C2516.66,1002.86 2512.21,1005.06 2508.52,1009.46 C2505,1013.64 2503.35,1018.26 2503.35,1023.93 C2503.35,1035.81 2511.11,1044.22 2521.94,1044.22 C2530.74,1044.22 2536.35,1039.05 2537.62,1029.81 L2535.03,1029.37 C2533.55,1037.57 2529.37,1041.64 2522.6,1041.64 C2514.46,1041.64 2510.61,1036.03 2510.61,1024.15 C2510.61,1017.88 2511.44,1013.75 2513.31,1010.45 C2515.01,1007.37 2518.37,1005.45 2521.94,1005.45 C2525.79,1005.45 2529.2,1007.48 2531.29,1011 C2532.34,1012.82 2533.11,1014.85 2534.43,1019.2 L2536.85,1019.2 L2536.02,1003.3 "/>
<path class="Harmony" d="M1023.44,532.104 L1021.35,532.104 L1019.15,535.349 C1015.13,532.434 1013.1,531.664 1009.3,531.664 C1004.08,531.664 999.625,533.864 995.94,538.264 C992.42,542.444 990.77,547.064 990.77,552.729 C990.77,564.609 998.525,573.024 1009.36,573.024 C1018.16,573.024 1023.77,567.854 1025.03,558.614 L1022.45,558.174 C1020.96,566.369 1016.78,570.439 1010.02,570.439 C1001.88,570.439 998.03,564.829 998.03,552.949 C998.03,546.679 998.855,542.554 1000.72,539.254 C1002.43,536.174 1005.78,534.249 1009.36,534.249 C1013.21,534.249 1016.62,536.284 1018.71,539.804 C1019.75,541.619 1020.52,543.654 1021.84,547.999 L1024.26,547.999 L1023.44,532.104 "/>
<path class="Harmony" d="M1053.59,1003.69 L1020.87,1003.69 L1020.87,1006.27 L1021.86,1006.27 C1024.99,1006.33 1026.04,1006.49 1026.48,1007.04 C1026.81,1007.54 1026.81,1007.65 1026.81,1010.45 L1026.81,1036.63 C1026.81,1039.44 1026.81,1039.55 1026.48,1040.04 C1026.04,1040.59 1024.99,1040.81 1021.86,1040.81 L1020.87,1040.81 L1020.87,1043.4 L1039.73,1043.4 L1039.73,1040.81 L1037.92,1040.81 C1034.78,1040.81 1033.74,1040.59 1033.3,1040.04 C1032.97,1039.55 1032.97,1039.38 1032.97,1036.63 L1032.97,1024.15 L1034.07,1024.15 C1039.73,1023.93 1041.77,1025.96 1041.99,1032.07 L1044.57,1032.07 L1044.57,1014.03 L1041.99,1014.03 C1041.66,1019.42 1039.51,1021.51 1034.29,1021.56 L1032.97,1021.56 L1032.97,1009.02 C1032.91,1006.71 1033.46,1006.33 1036.43,1006.27 L1038.96,1006.27 C1047.98,1006.22 1050.24,1008.25 1051.94,1017.71 L1054.36,1017.71 L1053.59,1003.69 "/>
<path class="Harmony" d="M1167.61,532.104 L1165.52,532.104 L1163.32,535.349 C1159.3,532.434 1157.27,531.664 1153.47,531.664 C1148.25,531.664 1143.79,533.864 1140.11,538.264 C1136.59,542.444 1134.94,547.064 1134.94,552.729 C1134.94,564.609 1142.69,573.024 1153.53,573.024 C1162.33,573.024 1167.94,567.854 1169.2,558.614 L1166.62,558.174 C1165.13,566.369 1160.95,570.439 1154.19,570.439 C1146.05,570.439 1142.2,564.829 1142.2,552.949 C1142.2,546.679 1143.02,542.554 1144.89,539.254 C1146.6,536.174 1149.95,534.249 1153.53,534.249 C1157.38,534.249 1160.79,536.284 1162.88,539.804 C1163.92,541.619 1164.69,543.654 1166.01,547.999 L1168.43,547.999 L1167.61,532.104 "/>
<path class="Harmony" d="M703.714,1003.3 L701.624,1003.3 L699.424,1006.55 C695.409,1003.63 693.374,1002.86 689.579,1002.86 C684.354,1002.86 679.899,1005.06 676.214,1009.46 C672.694,1013.64 671.044,1018.26 671.044,1023.93 C671.044,1035.81 678.799,1044.22 689.634,1044.22 C698.434,1044.22 704.044,1039.05 705.309,1029.81 L702.724,1029.37 C701.239,1037.57 697.059,1041.64 690.294,1041.64 C682.154,1041.64 678.304,1036.03 678.304,1024.15 C678.304,1017.88 679.129,1013.75 680.999,1010.45 C682.704,1007.37 686.059,1005.45 689.634,1005.45 C693.484,1005.45 696.894,1007.48 698.984,1011 C700.029,1012.82 700.799,1014.85 702.119,1019.2 L704.539,1019.2 L703.714,1003.3 "/>
<path class="Harmony" d="M390.587,1003.3 L388.497,1003.3 L386.297,1006.55 C382.282,1003.63 380.247,1002.86 376.452,1002.86 C371.227,1002.86 366.772,1005.06 363.087,1009.46 C359.567,1013.64 357.917,1018.26 357.917,1023.93 C357.917,1035.81 365.672,1044.22 376.507,1044.22 C385.307,1044.22 390.917,1039.05 392.182,1029.81 L389.597,1029.37 C388.112,1037.57 383.932,1041.64 377.167,1041.64 C369.027,1041.64 365.177,1036.03 365.177,1024.15 C365.177,1017.88 366.002,1013.75 367.872,1010.45 C369.577,1007.37 372.932,1005.45 376.507,1005.45 C380.357,1005.45 383.767,1007.48 385.857,1011 C386.902,1012.82 387.672,1014.85 388.992,1019.2 L391.412,1019.2 L390.587,1003.3 "/>
<path class="Harmony" d="M1638.22,1003.3 L1636.13,1003.3 L1633.93,1006.55 C1629.91,1003.63 1627.88,1002.86 1624.08,1002.86 C1618.86,1002.86 1614.4,1005.06 1610.72,1009.46 C1607.2,1013.64 1605.55,1018.26 1605.55,1023.93 C1605.55,1035.81 1613.3,1044.22 1624.14,1044.22 C1632.94,1044.22 1638.55,1039.05 1639.81,1029.81 L1637.23,1029.37 C1635.74,1037.57 1631.56,1041.64 1624.8,1041.64 C1616.66,1041.64 1612.81,1036.03 1612.81,1024.15 C1612.81,1017.88 1613.63,1013.75 1615.5,1010.45 C1617.21,1007.37 1620.56,1005.45 1624.14,1005.45 C1627.99,1005.45 1631.4,1007.48 1633.49,1011 C1634.53,1012.82 1635.3,1014.85 1636.62,1019.2 L1639.04,1019.2 L1638.22,1003.3 "/>
<path class="Harmony" d="M878.61,532.104 L876.52,532.104 L874.32,535.349 C870.305,532.434 868.27,531.664 864.475,531.664 C859.25,531.664 854.795,533.864 851.11,538.264 C847.59,542.444 845.94,547.064 845.94,552.729 C845.94,564.609 853.695,573.024 864.53,573.024 C873.33,573.024 878.94,567.854 880.205,558.614 L877.62,558.174 C876.135,566.369 871.955,570.439 865.19,570.439 C857.05,570.439 853.2,564.829 853.2,552.949 C853.2,546.679 854.025,542.554 855.895,539.254 C857.6,536.174 860.955,534.249 864.53,534.249 C868.38,534.249 871.79,536.284 873.88,539.804 C874.925,541.619 875.695,543.654 877.015,547.999 L879.435,547.999 L878.61,532.104 "/>
<path class="Harmony" d="M1349.26,532.104 L1347.17,532.104 L1345.02,535.404 C1341.45,532.599 1339.03,531.664 1335.01,531.664 C1330.67,531.664 1327.26,532.874 1323.79,535.679 C1318.35,540.079 1315.82,545.634 1315.82,553.059 C1315.82,558.669 1317.41,563.344 1320.66,566.919 C1324.07,570.769 1329.13,573.024 1334.41,573.024 C1339.03,573.024 1342.27,571.594 1345.85,568.019 L1347.88,572.969 L1350.19,572.969 L1350.19,560.869 C1350.19,558.064 1350.19,557.954 1350.52,557.459 C1351.02,556.854 1352.01,556.689 1355.14,556.689 L1355.97,556.689 L1355.97,554.104 L1338.48,554.104 L1338.48,556.689 L1339.52,556.689 C1344.14,556.689 1344.53,556.964 1344.53,560.044 C1344.53,562.409 1344.14,564.554 1343.43,565.874 C1342.05,568.569 1338.53,570.439 1334.96,570.439 C1331.38,570.439 1327.86,568.624 1325.99,565.874 C1323.96,562.794 1323.08,558.944 1323.08,553.059 C1323.08,540.794 1327.15,534.249 1334.79,534.249 C1341.06,534.249 1345.41,538.759 1347.66,547.559 L1350.03,547.559 L1349.26,532.104 "/>
<path class="Harmony" d="M1361.99,546.789 L1364.41,547.174 L1365.4,542.829 C1366.22,539.199 1366.61,538.649 1368.2,538.649 C1368.48,538.649 1368.92,538.649 1369.41,538.704 C1376.18,539.034 1376.18,539.034 1378.71,539.034 C1379.42,539.034 1380.69,539.034 1382.23,538.979 L1378.49,546.514 C1374.42,554.599 1373.92,555.589 1372.55,558.999 C1370.84,563.124 1369.96,566.589 1369.96,568.899 C1369.96,571.429 1371.28,572.969 1373.43,572.969 C1376.07,572.969 1377.11,571.209 1377.06,566.424 C1376.78,558.504 1377.77,554.654 1383.66,541.784 C1384.65,539.639 1385.69,537.439 1386.68,535.294 L1386.68,533.699 C1383.38,533.974 1381.62,534.084 1378.21,534.084 C1373.43,534.084 1369.63,533.919 1363.69,533.479 L1361.99,546.789 "/>
<path class="Harmony" d="M2684.69,532.104 L2682.6,532.104 L2680.4,535.349 C2676.38,532.434 2674.35,531.664 2670.55,531.664 C2665.33,531.664 2660.87,533.864 2657.19,538.264 C2653.67,542.444 2652.02,547.064 2652.02,552.729 C2652.02,564.609 2659.77,573.024 2670.61,573.024 C2679.41,573.024 2685.02,567.854 2686.28,558.614 L2683.7,558.174 C2682.21,566.369 2678.03,570.439 2671.27,570.439 C2663.13,570.439 2659.28,564.829 2659.28,552.949 C2659.28,546.679 2660.1,542.554 2661.97,539.254 C2663.68,536.174 2667.03,534.249 2670.61,534.249 C2674.46,534.249 2677.87,536.284 2679.96,539.804 C2681,541.619 2681.77,543.654 2683.09,547.999 L2685.51,547.999 L2684.69,532.104 "/>
<path class="Harmony" d="M1493.43,532.104 L1491.34,532.104 L1489.19,535.404 C1485.62,532.599 1483.2,531.664 1479.18,531.664 C1474.84,531.664 1471.43,532.874 1467.96,535.679 C1462.52,540.079 1459.99,545.634 1459.99,553.059 C1459.99,558.669 1461.58,563.344 1464.83,566.919 C1468.24,570.769 1473.3,573.024 1478.58,573.024 C1483.2,573.024 1486.44,571.594 1490.02,568.019 L1492.05,572.969 L1494.36,572.969 L1494.36,560.869 C1494.36,558.064 1494.36,557.954 1494.69,557.459 C1495.19,556.854 1496.18,556.689 1499.31,556.689 L1500.14,556.689 L1500.14,554.104 L1482.65,554.104 L1482.65,556.689 L1483.69,556.689 C1488.31,556.689 1488.7,556.964 1488.7,560.044 C1488.7,562.409 1488.31,564.554 1487.6,565.874 C1486.22,568.569 1482.7,570.439 1479.13,570.439 C1475.55,570.439 1472.03,568.624 1470.16,565.874 C1468.13,562.794 1467.25,558.944 1467.25,553.059 C1467.25,540.794 1471.32,534.249 1478.96,534.249 C1485.23,534.249 1489.58,538.759 1491.83,547.559 L1494.2,547.559 L1493.43,532.104 "/>
<path class="Harmony" d="M1506.16,546.789 L1508.58,547.174 L1509.57,542.829 C1510.39,539.199 1510.78,538.649 1512.37,538.649 C1512.65,538.649 1513.09,538.649 1513.58,538.704 C1520.35,539.034 1520.35,539.034 1522.88,539.034 C1523.59,539.034 1524.86,539.034 1526.4,538.979 L1522.66,546.514 C1518.59,554.599 1518.09,555.589 1516.72,558.999 C1515.01,563.124 1514.13,566.589 1514.13,568.899 C1514.13,571.429 1515.45,572.969 1517.6,572.969 C1520.24,572.969 1521.28,571.209 1521.23,566.424 C1520.95,558.504 1521.94,554.654 1527.83,541.784 C1528.82,539.639 1529.86,537.439 1530.85,535.294 L1530.85,533.699 C1527.55,533.974 1525.79,534.084 1522.38,534.084 C1517.6,534.084 1513.8,533.919 1507.86,533.479 L1506.16,546.789 "/>
<path class="Harmony" d="M2541.3,532.104 L2539.21,532.104 L2537.06,535.404 C2533.49,532.599 2531.07,531.664 2527.05,531.664 C2522.71,531.664 2519.3,532.874 2515.83,535.679 C2510.39,540.079 2507.86,545.634 2507.86,553.059 C2507.86,558.669 2509.45,563.344 2512.7,566.919 C2516.11,570.769 2521.17,573.024 2526.45,573.024 C2531.07,573.024 2534.31,571.594 2537.89,568.019 L2539.92,572.969 L2542.23,572.969 L2542.23,560.869 C2542.23,558.064 2542.23,557.954 2542.56,557.459 C2543.06,556.854 2544.05,556.689 2547.18,556.689 L2548.01,556.689 L2548.01,554.104 L2530.52,554.104 L2530.52,556.689 L2531.56,556.689 C2536.18,556.689 2536.57,556.964 2536.57,560.044 C2536.57,562.409 2536.18,564.554 2535.47,565.874 C2534.09,568.569 2530.57,570.439 2527,570.439 C2523.42,570.439 2519.9,568.624 2518.03,565.874 C2516,562.794 2515.12,558.944 2515.12,553.059 C2515.12,540.794 2519.19,534.249 2526.83,534.249 C2533.1,534.249 2537.45,538.759 2539.7,547.559 L2542.07,547.559 L2541.3,532.104 "/>
<path class="Harmony" d="M2554.03,546.789 L2556.45,547.174 L2557.44,542.829 C2558.26,539.199 2558.65,538.649 2560.24,538.649 C2560.52,538.649 2560.96,538.649 2561.45,538.704 C2568.22,539.034 2568.22,539.034 2570.75,539.034 C2571.46,539.034 2572.73,539.034 2574.27,538.979 L2570.53,546.514 C2566.46,554.599 2565.96,555.589 2564.59,558.999 C2562.88,563.124 2562,566.589 2562,568.899 C2562,571.429 2563.32,572.969 2565.47,572.969 C2568.11,572.969 2569.15,571.209 2569.1,566.424 C2568.82,558.504 2569.81,554.654 2575.7,541.784 C2576.69,539.639 2577.73,537.439 2578.72,535.294 L2578.72,533.699 C2575.42,533.974 2573.66,534.084 2570.25,534.084 C2565.47,534.084 2561.67,533.919 2555.73,533.479 L2554.03,546.789 "/>
<path class="Harmony" d="M1952.12,1003.3 L1950.03,1003.3 L1947.89,1006.6 C1944.31,1003.8 1941.89,1002.86 1937.88,1002.86 C1933.53,1002.86 1930.12,1004.07 1926.66,1006.88 C1921.21,1011.28 1918.68,1016.83 1918.68,1024.26 C1918.68,1029.87 1920.28,1034.54 1923.52,1038.12 C1926.93,1041.97 1931.99,1044.22 1937.27,1044.22 C1941.89,1044.22 1945.14,1042.79 1948.71,1039.22 L1950.75,1044.17 L1953.06,1044.17 L1953.06,1032.07 C1953.06,1029.26 1953.06,1029.15 1953.39,1028.66 C1953.88,1028.05 1954.87,1027.89 1958.01,1027.89 L1958.83,1027.89 L1958.83,1025.3 L1941.34,1025.3 L1941.34,1027.89 L1942.39,1027.89 C1947.01,1027.89 1947.39,1028.16 1947.39,1031.24 C1947.39,1033.61 1947.01,1035.75 1946.29,1037.07 C1944.92,1039.77 1941.4,1041.64 1937.82,1041.64 C1934.25,1041.64 1930.73,1039.82 1928.86,1037.07 C1926.82,1033.99 1925.94,1030.14 1925.94,1024.26 C1925.94,1011.99 1930.01,1005.45 1937.66,1005.45 C1943.93,1005.45 1948.27,1009.96 1950.53,1018.76 L1952.89,1018.76 L1952.12,1003.3 "/>
<path class="Harmony" d="M1964.85,1017.99 L1967.27,1018.37 L1968.26,1014.03 C1969.09,1010.4 1969.47,1009.85 1971.07,1009.85 C1971.34,1009.85 1971.78,1009.85 1972.28,1009.9 C1979.04,1010.23 1979.04,1010.23 1981.57,1010.23 C1982.29,1010.23 1983.55,1010.23 1985.09,1010.18 L1981.35,1017.71 C1977.28,1025.8 1976.79,1026.79 1975.41,1030.2 C1973.71,1034.32 1972.83,1037.79 1972.83,1040.1 C1972.83,1042.63 1974.15,1044.17 1976.29,1044.17 C1978.93,1044.17 1979.98,1042.41 1979.92,1037.62 C1979.65,1029.7 1980.64,1025.85 1986.52,1012.98 C1987.51,1010.84 1988.56,1008.64 1989.55,1006.49 L1989.55,1004.9 C1986.25,1005.17 1984.49,1005.28 1981.08,1005.28 C1976.29,1005.28 1972.5,1005.12 1966.56,1004.68 L1964.85,1017.99 "/>
<path class="Harmony" d="M1637.48,532.104 L1635.39,532.104 L1633.19,535.349 C1629.18,532.434 1627.14,531.664 1623.35,531.664 C1618.12,531.664 1613.67,533.864 1609.98,538.264 C1606.46,542.444 1604.81,547.064 1604.81,552.729 C1604.81,564.609 1612.57,573.024 1623.4,573.024 C1632.2,573.024 1637.81,567.854 1639.08,558.614 L1636.49,558.174 C1635.01,566.369 1630.83,570.439 1624.06,570.439 C1615.92,570.439 1612.07,564.829 1612.07,552.949 C1612.07,546.679 1612.9,542.554 1614.77,539.254 C1616.47,536.174 1619.83,534.249 1623.4,534.249 C1627.25,534.249 1630.66,536.284 1632.75,539.804 C1633.8,541.619 1634.57,543.654 1635.89,547.999 L1638.31,547.999 L1637.48,532.104 "/>
<path class="Harmony" d="M2359.65,532.104 L2357.56,532.104 L2355.36,535.349 C2351.34,532.434 2349.31,531.664 2345.51,531.664 C2340.29,531.664 2335.83,533.864 2332.15,538.264 C2328.63,542.444 2326.98,547.064 2326.98,552.729 C2326.98,564.609 2334.73,573.024 2345.57,573.024 C2354.37,573.024 2359.98,567.854 2361.24,558.614 L2358.66,558.174 C2357.17,566.369 2352.99,570.439 2346.23,570.439 C2338.09,570.439 2334.24,564.829 2334.24,552.949 C2334.24,546.679 2335.06,542.554 2336.93,539.254 C2338.64,536.174 2341.99,534.249 2345.57,534.249 C2349.42,534.249 2352.83,536.284 2354.92,539.804 C2355.96,541.619 2356.73,543.654 2358.05,547.999 L2360.47,547.999 L2359.65,532.104 "/>
<path class="Harmony" d="M734.441,532.104 L732.351,532.104 L730.151,535.349 C726.136,532.434 724.101,531.664 720.306,531.664 C715.081,531.664 710.626,533.864 706.941,538.264 C703.421,542.444 701.771,547.064 701.771,552.729 C701.771,564.609 709.526,573.024 720.361,573.024 C729.161,573.024 734.771,567.854 736.036,558.614 L733.451,558.174 C731.966,566.369 727.786,570.439 721.021,570.439 C712.881,570.439 709.031,564.829 709.031,552.949 C709.031,546.679 709.856,542.554 711.726,539.254 C713.431,536.174 716.786,534.249 720.361,534.249 C724.211,534.249 727.621,536.284 729.711,539.804 C730.756,541.619 731.526,543.654 732.846,547.999 L735.266,547.999 L734.441,532.104 "/>
<path class="Harmony" d="M589.61,532.104 L587.52,532.104 L585.32,535.349 C581.305,532.434 579.27,531.664 575.475,531.664 C570.25,531.664 565.795,533.864 562.11,538.264 C558.59,542.444 556.94,547.064 556.94,552.729 C556.94,564.609 564.695,573.024 575.53,573.024 C584.33,573.024 589.94,567.854 591.205,558.614 L588.62,558.174 C587.135,566.369 582.955,570.439 576.19,570.439 C568.05,570.439 564.2,564.829 564.2,552.949 C564.2,546.679 565.025,542.554 566.895,539.254 C568.6,536.174 571.955,534.249 575.53,534.249 C579.38,534.249 582.79,536.284 584.88,539.804 C585.925,541.619 586.695,543.654 588.015,547.999 L590.435,547.999 L589.61,532.104 "/>
<path class="Harmony" d="M1781.65,532.104 L1779.56,532.104 L1777.36,535.349 C1773.34,532.434 1771.31,531.664 1767.51,531.664 C1762.29,531.664 1757.83,533.864 1754.15,538.264 C1750.63,542.444 1748.98,547.064 1748.98,552.729 C1748.98,564.609 1756.73,573.024 1767.57,573.024 C1776.37,573.024 1781.98,567.854 1783.24,558.614 L1780.66,558.174 C1779.17,566.369 1774.99,570.439 1768.23,570.439 C1760.09,570.439 1756.24,564.829 1756.24,552.949 C1756.24,546.679 1757.06,542.554 1758.93,539.254 C1760.64,536.174 1763.99,534.249 1767.57,534.249 C1771.42,534.249 1774.83,536.284 1776.92,539.804 C1777.96,541.619 1778.73,543.654 1780.05,547.999 L1782.47,547.999 L1781.65,532.104 "/>
<path class="Harmony" d="M445.442,532.104 L443.352,532.104 L441.152,535.349 C437.137,532.434 435.102,531.664 431.307,531.664 C426.082,531.664 421.627,533.864 417.942,538.264 C414.422,542.444 412.772,547.064 412.772,552.729 C412.772,564.609 420.527,573.024 431.362,573.024 C440.162,573.024 445.772,567.854 447.037,558.614 L444.452,558.174 C442.967,566.369 438.787,570.439 432.022,570.439 C423.882,570.439 420.032,564.829 420.032,552.949 C420.032,546.679 420.857,542.554 422.727,539.254 C424.432,536.174 427.787,534.249 431.362,534.249 C435.212,534.249 438.622,536.284 440.712,539.804 C441.757,541.619 442.527,543.654 443.847,547.999 L446.267,547.999 L445.442,532.104 "/>
<path class="Harmony" d="M2215.48,532.104 L2213.39,532.104 L2211.19,535.349 C2207.17,532.434 2205.14,531.664 2201.34,531.664 C2196.12,531.664 2191.66,533.864 2187.98,538.264 C2184.46,542.444 2182.81,547.064 2182.81,552.729 C2182.81,564.609 2190.56,573.024 2201.4,573.024 C2210.2,573.024 2215.81,567.854 2217.07,558.614 L2214.49,558.174 C2213,566.369 2208.82,570.439 2202.06,570.439 C2193.92,570.439 2190.07,564.829 2190.07,552.949 C2190.07,546.679 2190.89,542.554 2192.76,539.254 C2194.47,536.174 2197.82,534.249 2201.4,534.249 C2205.25,534.249 2208.66,536.284 2210.75,539.804 C2211.79,541.619 2212.56,543.654 2213.88,547.999 L2216.3,547.999 L2215.48,532.104 "/>
<path class="Harmony" d="M2301.18,1003.3 L2299.09,1003.3 L2296.89,1006.55 C2292.87,1003.63 2290.84,1002.86 2287.04,1002.86 C2281.82,1002.86 2277.36,1005.06 2273.68,1009.46 C2270.16,1013.64 2268.51,1018.26 2268.51,1023.93 C2268.51,1035.81 2276.26,1044.22 2287.1,1044.22 C2295.9,1044.22 2301.51,1039.05 2302.77,1029.81 L2300.19,1029.37 C2298.7,1037.57 2294.52,1041.64 2287.76,1041.64 C2279.62,1041.64 2275.77,1036.03 2275.77,1024.15 C2275.77,1017.88 2276.59,1013.75 2278.46,1010.45 C2280.17,1007.37 2283.52,1005.45 2287.1,1005.45 C2290.95,1005.45 2294.36,1007.48 2296.45,1011 C2297.49,1012.82 2298.26,1014.85 2299.58,1019.2 L2302,1019.2 L2301.18,1003.3 "/>
<path class="Harmony" d="M2070.65,532.104 L2068.56,532.104 L2066.36,535.349 C2062.34,532.434 2060.31,531.664 2056.51,531.664 C2051.29,531.664 2046.83,533.864 2043.15,538.264 C2039.63,542.444 2037.98,547.064 2037.98,552.729 C2037.98,564.609 2045.73,573.024 2056.57,573.024 C2065.37,573.024 2070.98,567.854 2072.24,558.614 L2069.66,558.174 C2068.17,566.369 2063.99,570.439 2057.23,570.439 C2049.09,570.439 2045.24,564.829 2045.24,552.949 C2045.24,546.679 2046.06,542.554 2047.93,539.254 C2049.64,536.174 2052.99,534.249 2056.57,534.249 C2060.42,534.249 2063.83,536.284 2065.92,539.804 C2066.96,541.619 2067.73,543.654 2069.05,547.999 L2071.47,547.999 L2070.65,532.104 "/>
<path class="Harmony" d="M1366.67,1003.3 L1364.58,1003.3 L1362.38,1006.55 C1358.37,1003.63 1356.33,1002.86 1352.54,1002.86 C1347.31,1002.86 1342.86,1005.06 1339.17,1009.46 C1335.65,1013.64 1334,1018.26 1334,1023.93 C1334,1035.81 1341.76,1044.22 1352.59,1044.22 C1361.39,1044.22 1367,1039.05 1368.27,1029.81 L1365.68,1029.37 C1364.2,1037.57 1360.02,1041.64 1353.25,1041.64 C1345.11,1041.64 1341.26,1036.03 1341.26,1024.15 C1341.26,1017.88 1342.09,1013.75 1343.96,1010.45 C1345.66,1007.37 1349.02,1005.45 1352.59,1005.45 C1356.44,1005.45 1359.85,1007.48 1361.94,1011 C1362.99,1012.82 1363.76,1014.85 1365.08,1019.2 L1367.5,1019.2 L1366.67,1003.3 "/>
</svg>
