<?xml version="1.0" encoding="UTF-8" standalone="no"?>
<svg width="209.982mm" height="296.926mm" viewBox="0 0 2976.12 4208.4"
 xmlns="http://www.w3.org/2000/svg" xmlns:xlink="http://www.w3.org/1999/xlink" version="1.2" baseProfile="full">
<title>バリ・ハイ</title>
<desc>Generated by MuseScore Studio 4.5.2</desc>
<path class="" fill="#ffffff" fill-rule="evenodd" d="M0,0 L2976.12,0 L2976.12,4208.4 L0,4208.4 L0,0 "/>
<polyline class="StaffLines" fill="none" stroke="#000000" stroke-width="2.77" stroke-linejoin="bevel" points="201.6,630 2774.52,630" />
<polyline class="StaffLines" fill="none" stroke="#000000" stroke-width="2.77" stroke-linejoin="bevel" points="201.6,655.2 2774.52,655.2" />
<polyline class="StaffLines" fill="none" stroke="#000000" stroke-width="2.77" stroke-linejoin="bevel" points="201.6,680.4 2774.52,680.4" />
<polyline class="StaffLines" fill="none" stroke="#000000" stroke-width="2.77" stroke-linejoin="bevel" points="201.6,705.6 2774.52,705.6" />
<polyline class="StaffLines" fill="none" stroke="#000000" stroke-width="2.77" stroke-linejoin="bevel" points="201.6,730.8 2774.52,730.8" />
<polyline class="StaffLines" fill="none" stroke="#000000" stroke-width="2.77" stroke-linejoin="bevel" points="201.6,1108.8 2774.52,1108.8" />
<polyline class="StaffLines" fill="none" stroke="#000000" stroke-width="2.77" stroke-linejoin="bevel" points="201.6,1134 2774.52,1134" />
<polyline class="StaffLines" fill="none" stroke="#000000" stroke-width="2.77" stroke-linejoin="bevel" points="201.6,1159.2 2774.52,1159.2" />
<polyline class="StaffLines" fill="none" stroke="#000000" stroke-width="2.77" stroke-linejoin="bevel" points="201.6,1184.4 2774.52,1184.4" />
<polyline class="StaffLines" fill="none" stroke="#000000" stroke-width="2.77" stroke-linejoin="bevel" points="201.6,1209.6 2774.52,1209.6" />
<path class="Text" d="M925.384,213.68 L925.384,218.85 L927.364,218.85 C933.634,218.96 935.724,219.29 936.604,220.39 C937.264,221.38 937.264,221.6 937.264,227.21 L937.264,279.57 C937.264,285.18 937.264,285.4 936.604,286.39 C935.724,287.49 933.634,287.93 927.364,287.93 L925.384,287.93 L925.384,293.1 L965.314,293.1 C984.344,293.1 995.784,285.07 995.784,271.54 C995.784,260.54 988.854,254.27 973.784,251.63 C979.064,250.53 981.484,249.54 984.344,247.45 C988.854,244.04 991.604,238.65 991.604,233.15 C991.604,226 987.204,219.07 980.824,216.32 C976.864,214.56 971.364,213.68 964.874,213.68 L925.384,213.68 M949.584,249.43 L949.584,224.35 C949.584,220.06 951.014,218.96 956.844,218.85 L961.244,218.85 C972.024,218.85 978.844,222.37 978.844,234.36 C978.844,245.25 973.564,249.43 959.374,249.43 L949.584,249.43 M949.584,254.6 L959.264,254.6 C976.094,254.6 982.254,259.11 982.254,271.21 C982.254,285.95 973.014,287.93 960.584,287.93 L955.964,287.93 C950.464,287.93 949.364,286.83 949.584,281 L949.584,254.6 M1041.96,212.14 L1037.34,212.14 L1012.04,276.27 C1009.07,284.85 1006.21,287.49 999.941,287.93 L999.501,287.93 L999.501,293.1 L1028.65,293.1 L1028.65,287.93 L1026.45,287.93 C1020.51,287.93 1017.54,285.84 1017.54,281.66 C1017.54,280.23 1017.87,278.91 1018.53,277.04 L1022.16,267.36 L1051.31,267.36 L1057.25,282.1 C1057.91,283.86 1058.13,284.52 1058.13,285.07 C1058.13,286.83 1055.38,287.93 1051.31,287.93 L1046.69,287.93 L1046.69,293.1 L1080.79,293.1 L1080.79,287.93 L1079.25,287.93 C1073.53,287.82 1072.54,287.16 1070.01,280.89 L1041.96,212.14 M1036.57,230.18 L1049,261.42 L1024.36,261.42 L1036.57,230.18 M1084.28,262.52 L1084.28,271.65 L1111.67,271.65 L1111.67,262.52 L1084.28,262.52 M1187.35,262.96 L1182.51,262.96 C1178.88,282.76 1173.93,287.6 1156.88,287.93 L1152.26,287.93 C1145.66,287.71 1144.01,286.61 1144.34,282.65 L1144.34,227.21 C1144.34,221.71 1144.34,221.38 1145,220.39 C1145.88,219.29 1147.97,218.96 1154.24,218.85 L1156.22,218.85 L1156.22,213.68 L1120.14,213.68 L1120.14,218.85 L1122.12,218.85 C1128.39,218.96 1130.48,219.29 1131.36,220.39 C1132.02,221.38 1132.02,221.6 1132.02,227.21 L1132.02,279.57 C1132.02,285.18 1132.02,285.4 1131.36,286.39 C1130.48,287.49 1128.39,287.93 1122.12,287.93 L1120.14,287.93 L1120.14,293.1 L1185.04,293.1 L1187.35,262.96 M1193.83,218.85 L1196.03,218.85 C1202.3,218.96 1204.39,219.29 1205.27,220.39 C1205.93,221.38 1205.93,221.71 1205.93,227.21 L1205.93,279.57 C1205.93,285.07 1205.93,285.4 1205.27,286.39 C1204.39,287.49 1202.3,287.93 1196.03,287.93 L1193.83,287.93 L1193.83,293.1 L1230.24,293.1 L1230.24,287.93 L1228.04,287.93 C1221.88,287.93 1219.79,287.6 1218.91,286.39 C1218.25,285.4 1218.25,285.18 1218.25,279.57 L1218.25,227.21 C1218.25,221.6 1218.25,221.38 1218.91,220.39 C1219.79,219.29 1221.77,218.96 1228.04,218.85 L1230.24,218.85 L1230.24,213.68 L1193.83,213.68 L1193.83,218.85 M1239.03,262.52 L1239.03,271.65 L1266.42,271.65 L1266.42,262.52 L1239.03,262.52 M1335.28,254.93 L1335.28,279.57 C1335.28,285.18 1335.28,285.4 1334.62,286.39 C1333.74,287.49 1331.65,287.93 1325.38,287.93 L1323.4,287.93 L1323.4,293.1 L1359.48,293.1 L1359.48,287.93 L1357.5,287.93 C1351.23,287.93 1349.14,287.49 1348.26,286.39 C1347.6,285.4 1347.6,285.29 1347.6,279.57 L1347.6,227.21 C1347.6,221.49 1347.6,221.38 1348.26,220.39 C1349.25,219.18 1351.23,218.85 1357.5,218.85 L1359.48,218.85 L1359.48,213.68 L1323.84,213.68 L1323.84,218.85 L1325.38,218.85 C1331.65,218.85 1333.63,219.18 1334.62,220.39 C1335.28,221.38 1335.28,221.6 1335.28,227.21 L1335.28,248.99 L1298.43,248.99 L1298.43,227.21 C1298.43,221.6 1298.43,221.38 1299.2,220.39 C1300.08,219.18 1302.06,218.85 1308.33,218.85 L1310.42,218.85 L1310.42,213.68 L1274.23,213.68 L1274.23,218.85 L1276.21,218.85 C1282.48,218.85 1284.46,219.18 1285.45,220.39 C1286.11,221.38 1286.11,221.6 1286.11,227.21 L1286.11,279.57 C1286.11,285.07 1286.11,285.4 1285.45,286.39 C1284.57,287.49 1282.48,287.93 1276.21,287.93 L1274.23,287.93 L1274.23,293.1 L1310.42,293.1 L1310.42,287.93 L1308.33,287.93 C1302.06,287.82 1300.08,287.49 1299.2,286.39 C1298.43,285.4 1298.43,285.18 1298.43,279.57 L1298.43,254.93 L1335.28,254.93 M1407.98,212.14 L1403.36,212.14 L1378.06,276.27 C1375.09,284.85 1372.23,287.49 1365.96,287.93 L1365.52,287.93 L1365.52,293.1 L1394.67,293.1 L1394.67,287.93 L1392.47,287.93 C1386.53,287.93 1383.56,285.84 1383.56,281.66 C1383.56,280.23 1383.89,278.91 1384.55,277.04 L1388.18,267.36 L1417.33,267.36 L1423.27,282.1 C1423.93,283.86 1424.15,284.52 1424.15,285.07 C1424.15,286.83 1421.4,287.93 1417.33,287.93 L1412.71,287.93 L1412.71,293.1 L1446.81,293.1 L1446.81,287.93 L1445.27,287.93 C1439.55,287.82 1438.56,287.16 1436.03,280.89 L1407.98,212.14 M1402.59,230.18 L1415.02,261.42 L1390.38,261.42 L1402.59,230.18 M1449.98,218.85 L1452.18,218.85 C1458.45,218.96 1460.54,219.29 1461.42,220.39 C1462.08,221.38 1462.08,221.71 1462.08,227.21 L1462.08,279.57 C1462.08,285.07 1462.08,285.4 1461.42,286.39 C1460.54,287.49 1458.45,287.93 1452.18,287.93 L1449.98,287.93 L1449.98,293.1 L1486.39,293.1 L1486.39,287.93 L1484.19,287.93 C1478.03,287.93 1475.94,287.6 1475.06,286.39 C1474.4,285.4 1474.4,285.18 1474.4,279.57 L1474.4,227.21 C1474.4,221.6 1474.4,221.38 1475.06,220.39 C1475.94,219.29 1477.92,218.96 1484.19,218.85 L1486.39,218.85 L1486.39,213.68 L1449.98,213.68 L1449.98,218.85 M1517.41,212.14 L1488.04,294.64 L1494.42,294.64 L1523.79,212.14 L1517.41,212.14 "/>
<path class="Text" d="M1554.37,213.13 C1554.48,213.9 1554.48,214.56 1554.48,214.89 C1554.48,216.87 1554.04,220.83 1553.38,225.23 C1551.29,239.64 1547.44,252.51 1542.05,263.4 C1537.43,272.64 1532.92,278.8 1526.1,285.18 C1529.18,286.94 1530.39,287.93 1533.14,290.9 C1548.65,274.73 1557.56,253.61 1562.18,222.26 C1563.06,216.65 1563.17,215.99 1563.61,214.78 L1554.37,213.13 M1585.94,214.78 C1586.38,216.21 1586.82,218.19 1587.37,222.04 C1591.66,250.2 1602.66,275.61 1617.29,291.12 C1619.82,288.04 1621.14,286.83 1624.11,284.96 C1613.44,275.17 1604.42,258.89 1599.14,239.53 C1596.5,230.51 1594.08,217.86 1594.08,213.13 L1585.94,214.78 M1600.24,210.05 C1603.32,213.46 1608.6,221.93 1611.13,227.76 L1616.74,224.57 C1613.66,218.08 1610.58,213.35 1605.74,207.3 L1600.24,210.05 M1612.89,204.44 C1617.07,209.61 1621.47,216.65 1623.78,221.93 L1629.28,218.96 C1625.87,212.03 1623.12,207.63 1618.28,201.58 L1612.89,204.44 M1657,208.18 C1657.33,210.82 1657.44,212.69 1657.44,217.42 L1657.44,246.79 C1657.44,251.19 1657.33,253.5 1657,256.03 L1666.13,256.03 C1665.8,253.39 1665.69,252.18 1665.69,246.9 L1665.69,217.31 C1665.69,212.25 1665.8,210.82 1666.13,208.18 L1657,208.18 M1705.62,208.18 C1705.95,210.6 1706.06,212.14 1706.06,217.86 L1706.06,230.29 C1706.06,247.01 1705.73,252.07 1704.52,258.34 C1702.43,268.57 1697.15,275.61 1686.92,281.55 C1681.2,284.96 1675.92,286.83 1666.02,289.03 C1668.77,292.33 1669.43,293.43 1670.64,296.62 C1679.99,293.87 1685.27,291.78 1690.66,288.7 C1701.44,282.65 1708.37,274.62 1711.56,264.28 C1713.54,257.9 1714.31,248.22 1714.31,230.73 L1714.31,217.75 C1714.31,212.47 1714.42,210.71 1714.86,208.18 L1705.62,208.18 M1796.15,242.28 C1791.2,242.28 1787.13,246.35 1787.13,251.3 C1787.13,256.25 1791.2,260.32 1796.15,260.32 C1801.1,260.32 1805.17,256.25 1805.17,251.3 C1805.17,246.35 1801.1,242.28 1796.15,242.28 M1885.58,213.13 C1885.69,213.9 1885.69,214.56 1885.69,214.89 C1885.69,216.87 1885.25,220.83 1884.59,225.23 C1882.5,239.64 1878.65,252.51 1873.26,263.4 C1868.64,272.64 1864.13,278.8 1857.31,285.18 C1860.5,287.05 1861.49,287.82 1864.35,290.9 C1880.08,274.29 1888.77,253.61 1893.39,222.26 C1894.16,217.09 1894.38,216.21 1894.82,214.78 L1885.58,213.13 M1917.15,214.78 C1917.7,216.54 1917.92,217.97 1918.58,222.04 C1920.89,236.89 1924.85,250.64 1930.13,262.52 C1935.63,274.51 1941.13,283.2 1948.5,291.12 C1951.14,287.93 1952.24,287.05 1955.32,284.96 C1944.1,274.29 1935.74,259.22 1930.35,239.53 C1927.6,229.74 1925.51,218.85 1925.29,213.13 L1917.15,214.78 M2042.87,205.76 C2039.79,210.93 2032.09,218.63 2021.86,226.55 C2004.48,240.19 1985.45,249.65 1964.77,255.04 C1966.97,257.79 1967.52,258.89 1969.06,262.41 C1989.19,255.59 1997.22,251.96 2011.52,243.16 L2011.52,284.96 C2011.52,291.01 2011.41,293.54 2010.86,296.4 L2020.43,296.4 C2019.99,293.43 2019.88,291.01 2019.88,284.74 L2019.88,237.88 C2029.34,231.06 2038.69,223.03 2045.62,215.77 C2048.37,212.8 2048.48,212.58 2050.46,211.15 L2042.87,205.76 "/>
<path class="MeasureNumber" d="M206.483,1045 C207.163,1041.48 207.963,1039.28 209.483,1036.6 C211.283,1033.44 213.443,1031.84 215.843,1031.84 C217.083,1031.84 217.843,1032.32 217.843,1033.08 C217.843,1033.36 217.763,1033.52 217.483,1034.04 C217.123,1034.72 216.963,1035.2 216.963,1035.8 C216.963,1037.08 217.923,1037.96 219.283,1037.96 C220.923,1037.96 222.043,1036.76 222.043,1034.96 C222.043,1032.24 219.483,1030.24 215.923,1030.24 C207.003,1030.24 201.603,1041.88 201.603,1049.56 C201.603,1055.44 204.523,1059 209.403,1059 C215.403,1059 219.843,1054.04 219.843,1048.16 C219.843,1044.08 217.083,1041.24 213.083,1041.24 C210.283,1041.24 208.123,1042.44 206.483,1045 M211.803,1043.56 C214.283,1043.56 215.643,1045.28 215.643,1048.4 C215.643,1053.48 212.963,1057.36 209.403,1057.36 C206.843,1057.36 205.323,1055.48 205.323,1052.28 C205.323,1047.28 208.083,1043.56 211.803,1043.56"/>
<path class="TieSegment" stroke="#000000" stroke-width="1.76" stroke-linecap="round" stroke-linejoin="round" fill-rule="evenodd" d="M577.574,700.56 C586.376,684.075 612.785,684.075 621.588,700.56 C612.785,688.86 586.376,688.86 577.574,700.56"/>
<path class="TieSegment" stroke="#000000" stroke-width="1.76" stroke-linecap="round" stroke-linejoin="round" fill-rule="evenodd" d="M2311.07,1179.36 C2319.84,1162.91 2346.14,1162.91 2354.91,1179.36 C2346.14,1167.69 2319.84,1167.69 2311.07,1179.36"/>
<path class="TieSegment" stroke="#000000" stroke-width="1.76" stroke-linecap="round" stroke-linejoin="round" fill-rule="evenodd" d="M393.136,1116.36 C423.566,1088.3 514.856,1088.3 545.286,1116.36 C514.856,1095.36 423.566,1095.36 393.136,1116.36"/>
<path class="TieSegment" stroke="#000000" stroke-width="1.76" stroke-linecap="round" stroke-linejoin="round" fill-rule="evenodd" d="M393.136,1204.56 C423.566,1183.33 514.856,1183.33 545.286,1204.56 C514.856,1190.39 423.566,1190.39 393.136,1204.56"/>
<polyline class="BarLine" fill="none" stroke="#000000" stroke-width="4.54" stroke-linejoin="bevel" points="1756.22,628.614 1756.22,732.186" />
<polyline class="BarLine" fill="none" stroke="#000000" stroke-width="4.54" stroke-linejoin="bevel" points="2740.75,1107.41 2740.75,1210.99" />
<polyline class="BarLine" fill="none" stroke="#000000" stroke-width="13.86" stroke-linejoin="bevel" points="2767.59,1107.41 2767.59,1210.99" />
<polyline class="BarLine" fill="none" stroke="#000000" stroke-width="4.54" stroke-linejoin="bevel" points="899.214,1107.41 899.214,1210.99" />
<polyline class="BarLine" fill="none" stroke="#000000" stroke-width="4.54" stroke-linejoin="bevel" points="1445.16,1107.41 1445.16,1210.99" />
<polyline class="BarLine" fill="none" stroke="#000000" stroke-width="4.54" stroke-linejoin="bevel" points="203.868,1107.41 203.868,1210.99" />
<polyline class="BarLine" fill="none" stroke="#000000" stroke-width="13.86" stroke-linejoin="bevel" points="720.396,628.614 720.396,732.186" />
<polyline class="BarLine" fill="none" stroke="#000000" stroke-width="4.54" stroke-linejoin="bevel" points="747.234,628.614 747.234,732.186" />
<path class="BarLine" transform="matrix(1.008,0,0,1.008,767.142,667.8)" d="M10.4,0 C10.4,-2.9 8.1,-5.3 5.2,-5.3 C2.3,-5.3 0,-2.9 0,0 C0,2.9 2.3,5.3 5.2,5.3 C8.1,5.3 10.4,2.9 10.4,0"/>
<path class="BarLine" transform="matrix(1.008,0,0,1.008,767.142,693)" d="M10.4,0 C10.4,-2.9 8.1,-5.3 5.2,-5.3 C2.3,-5.3 0,-2.9 0,0 C0,2.9 2.3,5.3 5.2,5.3 C8.1,5.3 10.4,2.9 10.4,0"/>
<polyline class="BarLine" fill="none" stroke="#000000" stroke-width="4.54" stroke-linejoin="bevel" points="203.868,628.614 203.868,732.186" />
<polyline class="BarLine" fill="none" stroke="#000000" stroke-width="4.54" stroke-linejoin="bevel" points="2772.25,628.614 2772.25,732.186" />
<path class="BarLine" transform="matrix(1.008,0,0,1.008,2446.6,1146.6)" d="M10.4,0 C10.4,-2.9 8.1,-5.3 5.2,-5.3 C2.3,-5.3 0,-2.9 0,0 C0,2.9 2.3,5.3 5.2,5.3 C8.1,5.3 10.4,2.9 10.4,0"/>
<path class="BarLine" transform="matrix(1.008,0,0,1.008,2446.6,1171.8)" d="M10.4,0 C10.4,-2.9 8.1,-5.3 5.2,-5.3 C2.3,-5.3 0,-2.9 0,0 C0,2.9 2.3,5.3 5.2,5.3 C8.1,5.3 10.4,2.9 10.4,0"/>
<polyline class="BarLine" fill="none" stroke="#000000" stroke-width="4.54" stroke-linejoin="bevel" points="2476.98,1107.41 2476.98,1210.99" />
<polyline class="BarLine" fill="none" stroke="#000000" stroke-width="13.86" stroke-linejoin="bevel" points="2503.82,1107.41 2503.82,1210.99" />
<polyline class="BarLine" fill="none" stroke="#000000" stroke-width="4.54" stroke-linejoin="bevel" points="1913.31,1107.41 1913.31,1210.99" />
<polyline class="BarLine" fill="none" stroke="#000000" stroke-width="4.54" stroke-linejoin="bevel" points="2225.26,628.614 2225.26,732.186" />
<polyline class="BarLine" fill="none" stroke="#000000" stroke-width="4.54" stroke-linejoin="bevel" points="1205.09,628.614 1205.09,732.186" />
<path class="Accidental" transform="matrix(1.008,0,0,1.008,1786.44,1146.6)" d="M23.3,-10.5 C23.9,-10.6 24.4,-11.3 24.4,-11.9 L24.4,-17.8 C24.4,-18.6 23.8,-19.2 23,-19.2 C22.9,-19.2 22.9,-19.2 22.8,-19.2 L19.5,-18.5 L19.5,-33.4 L16.7,-33.4 L16.7,-17.9 L7.8,-16.1 L7.8,-30.2 L5,-30.2 L5,-15.5 L1.1,-14.7 C0.5,-14.6 0,-13.9 0,-13.3 L0,-13.1 L0,-7.3 L0,-7.5 C0,-6.7 0.6,-6.1 1.4,-6.1 C1.5,-6.1 1.6,-6.1 1.7,-6.1 L5,-6.8 L5,9.7 L1.1,10.5 C0.5,10.6 0,11.3 0,11.9 L0,17.7 C0,18.5 0.6,19.1 1.4,19.1 C1.5,19.1 1.6,19.1 1.7,19.1 L5,18.4 L5,33.3 L7.8,33.3 L7.8,17.8 L16.7,16 L16.7,30.1 L19.5,30.1 L19.5,15.4 L23.3,14.7 C23.9,14.6 24.4,13.9 24.4,13.3 L24.4,7.4 C24.4,6.6 23.8,6 23,6 C22.9,6 22.9,6 22.8,6 L19.5,6.7 L19.5,-9.8 L23.3,-10.5 M7.8,-7.4 L16.7,-9.2 L16.7,7.3 L7.8,9.2 L7.8,-7.4 "/>
<path class="Accidental" transform="matrix(1.008,0,0,1.008,2243.9,730.8)" d="M20.1,-7.9 C19.5,-11.8 17.1,-15.5 12,-15.5 C7,-15.5 4.1,-12.4 3.6,-11.8 L4,-43.9 C4,-44.7 3.4,-45.3 2.6,-45.3 L1.4,-45.3 C0.6,-45.3 0,-44.7 0,-43.9 L0.5,16.2 C0.5,17 1.1,17.6 1.9,17.6 C2.1,17.6 2.5,17.5 2.7,17.4 C3.1,17.2 9.6,14 15,7.9 C18.8,3.6 20.3,-1.3 20.3,-5.4 C20.3,-6.3 20.2,-7.1 20.1,-7.9 M13.2,-4 C13.2,-2.5 12.8,2.1 10.3,5.9 C8.6,8.5 5.2,11.2 3.3,12.7 L3.6,-6.8 C3.8,-7.7 5.3,-10.6 9.3,-10.6 C12.9,-10.6 13.2,-7.2 13.2,-5.1 C13.2,-4.6 13.2,-4.3 13.2,-4"/>
<path class="Accidental" transform="matrix(1.008,0,0,1.008,1223.74,630)" d="M23.3,-10.5 C23.9,-10.6 24.4,-11.3 24.4,-11.9 L24.4,-17.8 C24.4,-18.6 23.8,-19.2 23,-19.2 C22.9,-19.2 22.9,-19.2 22.8,-19.2 L19.5,-18.5 L19.5,-33.4 L16.7,-33.4 L16.7,-17.9 L7.8,-16.1 L7.8,-30.2 L5,-30.2 L5,-15.5 L1.1,-14.7 C0.5,-14.6 0,-13.9 0,-13.3 L0,-13.1 L0,-7.3 L0,-7.5 C0,-6.7 0.6,-6.1 1.4,-6.1 C1.5,-6.1 1.6,-6.1 1.7,-6.1 L5,-6.8 L5,9.7 L1.1,10.5 C0.5,10.6 0,11.3 0,11.9 L0,17.7 C0,18.5 0.6,19.1 1.4,19.1 C1.5,19.1 1.6,19.1 1.7,19.1 L5,18.4 L5,33.3 L7.8,33.3 L7.8,17.8 L16.7,16 L16.7,30.1 L19.5,30.1 L19.5,15.4 L23.3,14.7 C23.9,14.6 24.4,13.9 24.4,13.3 L24.4,7.4 C24.4,6.6 23.8,6 23,6 C22.9,6 22.9,6 22.8,6 L19.5,6.7 L19.5,-9.8 L23.3,-10.5 M7.8,-7.4 L16.7,-9.2 L16.7,7.3 L7.8,9.2 L7.8,-7.4 "/>
<path class="Accidental" transform="matrix(1.008,0,0,1.008,1786.44,1234.8)" d="M23.3,-10.5 C23.9,-10.6 24.4,-11.3 24.4,-11.9 L24.4,-17.8 C24.4,-18.6 23.8,-19.2 23,-19.2 C22.9,-19.2 22.9,-19.2 22.8,-19.2 L19.5,-18.5 L19.5,-33.4 L16.7,-33.4 L16.7,-17.9 L7.8,-16.1 L7.8,-30.2 L5,-30.2 L5,-15.5 L1.1,-14.7 C0.5,-14.6 0,-13.9 0,-13.3 L0,-13.1 L0,-7.3 L0,-7.5 C0,-6.7 0.6,-6.1 1.4,-6.1 C1.5,-6.1 1.6,-6.1 1.7,-6.1 L5,-6.8 L5,9.7 L1.1,10.5 C0.5,10.6 0,11.3 0,11.9 L0,17.7 C0,18.5 0.6,19.1 1.4,19.1 C1.5,19.1 1.6,19.1 1.7,19.1 L5,18.4 L5,33.3 L7.8,33.3 L7.8,17.8 L16.7,16 L16.7,30.1 L19.5,30.1 L19.5,15.4 L23.3,14.7 C23.9,14.6 24.4,13.9 24.4,13.3 L24.4,7.4 C24.4,6.6 23.8,6 23,6 C22.9,6 22.9,6 22.8,6 L19.5,6.7 L19.5,-9.8 L23.3,-10.5 M7.8,-7.4 L16.7,-9.2 L16.7,7.3 L7.8,9.2 L7.8,-7.4 "/>
<path class="Accidental" transform="matrix(1.008,0,0,1.008,1463.8,1121.4)" d="M20.1,-7.9 C19.5,-11.8 17.1,-15.5 12,-15.5 C7,-15.5 4.1,-12.4 3.6,-11.8 L4,-43.9 C4,-44.7 3.4,-45.3 2.6,-45.3 L1.4,-45.3 C0.6,-45.3 0,-44.7 0,-43.9 L0.5,16.2 C0.5,17 1.1,17.6 1.9,17.6 C2.1,17.6 2.5,17.5 2.7,17.4 C3.1,17.2 9.6,14 15,7.9 C18.8,3.6 20.3,-1.3 20.3,-5.4 C20.3,-6.3 20.2,-7.1 20.1,-7.9 M13.2,-4 C13.2,-2.5 12.8,2.1 10.3,5.9 C8.6,8.5 5.2,11.2 3.3,12.7 L3.6,-6.8 C3.8,-7.7 5.3,-10.6 9.3,-10.6 C12.9,-10.6 13.2,-7.2 13.2,-5.1 C13.2,-4.6 13.2,-4.3 13.2,-4"/>
<path class="Accidental" transform="matrix(1.008,0,0,1.008,1463.8,1209.6)" d="M20.1,-7.9 C19.5,-11.8 17.1,-15.5 12,-15.5 C7,-15.5 4.1,-12.4 3.6,-11.8 L4,-43.9 C4,-44.7 3.4,-45.3 2.6,-45.3 L1.4,-45.3 C0.6,-45.3 0,-44.7 0,-43.9 L0.5,16.2 C0.5,17 1.1,17.6 1.9,17.6 C2.1,17.6 2.5,17.5 2.7,17.4 C3.1,17.2 9.6,14 15,7.9 C18.8,3.6 20.3,-1.3 20.3,-5.4 C20.3,-6.3 20.2,-7.1 20.1,-7.9 M13.2,-4 C13.2,-2.5 12.8,2.1 10.3,5.9 C8.6,8.5 5.2,11.2 3.3,12.7 L3.6,-6.8 C3.8,-7.7 5.3,-10.6 9.3,-10.6 C12.9,-10.6 13.2,-7.2 13.2,-5.1 C13.2,-4.6 13.2,-4.3 13.2,-4"/>
<path class="Accidental" transform="matrix(1.008,0,0,1.008,1051.07,1121.4)" d="M16.6,-18.3 C16.4,-18.5 16.1,-18.6 15.8,-18.6 C15.7,-18.6 15.5,-18.5 15.4,-18.5 L2.8,-15 L2.8,-32.5 L0,-32.5 L0,17 C0,17.8 0.6,18.3 1.4,18.3 C1.5,18.3 1.7,18.3 1.8,18.3 L14.4,14.8 L14.4,32.3 L17.1,32.3 C17.1,15.7 17.1,-0.1 17.1,-17.2 C17.1,-17.6 16.9,-18.1 16.6,-18.3 M2.8,9.7 L2.8,-6.7 L14.4,-10 L14.4,6.5 L2.8,9.7 "/>
<path class="Accidental" transform="matrix(1.008,0,0,1.008,1051.07,1209.6)" d="M16.6,-18.3 C16.4,-18.5 16.1,-18.6 15.8,-18.6 C15.7,-18.6 15.5,-18.5 15.4,-18.5 L2.8,-15 L2.8,-32.5 L0,-32.5 L0,17 C0,17.8 0.6,18.3 1.4,18.3 C1.5,18.3 1.7,18.3 1.8,18.3 L14.4,14.8 L14.4,32.3 L17.1,32.3 C17.1,15.7 17.1,-0.1 17.1,-17.2 C17.1,-17.6 16.9,-18.1 16.6,-18.3 M2.8,9.7 L2.8,-6.7 L14.4,-10 L14.4,6.5 L2.8,9.7 "/>
<path class="Accidental" transform="matrix(1.008,0,0,1.008,917.862,1121.4)" d="M20.1,-7.9 C19.5,-11.8 17.1,-15.5 12,-15.5 C7,-15.5 4.1,-12.4 3.6,-11.8 L4,-43.9 C4,-44.7 3.4,-45.3 2.6,-45.3 L1.4,-45.3 C0.6,-45.3 0,-44.7 0,-43.9 L0.5,16.2 C0.5,17 1.1,17.6 1.9,17.6 C2.1,17.6 2.5,17.5 2.7,17.4 C3.1,17.2 9.6,14 15,7.9 C18.8,3.6 20.3,-1.3 20.3,-5.4 C20.3,-6.3 20.2,-7.1 20.1,-7.9 M13.2,-4 C13.2,-2.5 12.8,2.1 10.3,5.9 C8.6,8.5 5.2,11.2 3.3,12.7 L3.6,-6.8 C3.8,-7.7 5.3,-10.6 9.3,-10.6 C12.9,-10.6 13.2,-7.2 13.2,-5.1 C13.2,-4.6 13.2,-4.3 13.2,-4"/>
<path class="Accidental" transform="matrix(1.008,0,0,1.008,917.862,1209.6)" d="M20.1,-7.9 C19.5,-11.8 17.1,-15.5 12,-15.5 C7,-15.5 4.1,-12.4 3.6,-11.8 L4,-43.9 C4,-44.7 3.4,-45.3 2.6,-45.3 L1.4,-45.3 C0.6,-45.3 0,-44.7 0,-43.9 L0.5,16.2 C0.5,17 1.1,17.6 1.9,17.6 C2.1,17.6 2.5,17.5 2.7,17.4 C3.1,17.2 9.6,14 15,7.9 C18.8,3.6 20.3,-1.3 20.3,-5.4 C20.3,-6.3 20.2,-7.1 20.1,-7.9 M13.2,-4 C13.2,-2.5 12.8,2.1 10.3,5.9 C8.6,8.5 5.2,11.2 3.3,12.7 L3.6,-6.8 C3.8,-7.7 5.3,-10.6 9.3,-10.6 C12.9,-10.6 13.2,-7.2 13.2,-5.1 C13.2,-4.6 13.2,-4.3 13.2,-4"/>
<path class="Accidental" transform="matrix(1.008,0,0,1.008,1223.74,718.2)" d="M23.3,-10.5 C23.9,-10.6 24.4,-11.3 24.4,-11.9 L24.4,-17.8 C24.4,-18.6 23.8,-19.2 23,-19.2 C22.9,-19.2 22.9,-19.2 22.8,-19.2 L19.5,-18.5 L19.5,-33.4 L16.7,-33.4 L16.7,-17.9 L7.8,-16.1 L7.8,-30.2 L5,-30.2 L5,-15.5 L1.1,-14.7 C0.5,-14.6 0,-13.9 0,-13.3 L0,-13.1 L0,-7.3 L0,-7.5 C0,-6.7 0.6,-6.1 1.4,-6.1 C1.5,-6.1 1.6,-6.1 1.7,-6.1 L5,-6.8 L5,9.7 L1.1,10.5 C0.5,10.6 0,11.3 0,11.9 L0,17.7 C0,18.5 0.6,19.1 1.4,19.1 C1.5,19.1 1.6,19.1 1.7,19.1 L5,18.4 L5,33.3 L7.8,33.3 L7.8,17.8 L16.7,16 L16.7,30.1 L19.5,30.1 L19.5,15.4 L23.3,14.7 C23.9,14.6 24.4,13.9 24.4,13.3 L24.4,7.4 C24.4,6.6 23.8,6 23,6 C22.9,6 22.9,6 22.8,6 L19.5,6.7 L19.5,-9.8 L23.3,-10.5 M7.8,-7.4 L16.7,-9.2 L16.7,7.3 L7.8,9.2 L7.8,-7.4 "/>
<path class="Accidental" transform="matrix(1.008,0,0,1.008,328.592,1121.4)" d="M20.1,-7.9 C19.5,-11.8 17.1,-15.5 12,-15.5 C7,-15.5 4.1,-12.4 3.6,-11.8 L4,-43.9 C4,-44.7 3.4,-45.3 2.6,-45.3 L1.4,-45.3 C0.6,-45.3 0,-44.7 0,-43.9 L0.5,16.2 C0.5,17 1.1,17.6 1.9,17.6 C2.1,17.6 2.5,17.5 2.7,17.4 C3.1,17.2 9.6,14 15,7.9 C18.8,3.6 20.3,-1.3 20.3,-5.4 C20.3,-6.3 20.2,-7.1 20.1,-7.9 M13.2,-4 C13.2,-2.5 12.8,2.1 10.3,5.9 C8.6,8.5 5.2,11.2 3.3,12.7 L3.6,-6.8 C3.8,-7.7 5.3,-10.6 9.3,-10.6 C12.9,-10.6 13.2,-7.2 13.2,-5.1 C13.2,-4.6 13.2,-4.3 13.2,-4"/>
<path class="Accidental" transform="matrix(1.008,0,0,1.008,328.592,1209.6)" d="M20.1,-7.9 C19.5,-11.8 17.1,-15.5 12,-15.5 C7,-15.5 4.1,-12.4 3.6,-11.8 L4,-43.9 C4,-44.7 3.4,-45.3 2.6,-45.3 L1.4,-45.3 C0.6,-45.3 0,-44.7 0,-43.9 L0.5,16.2 C0.5,17 1.1,17.6 1.9,17.6 C2.1,17.6 2.5,17.5 2.7,17.4 C3.1,17.2 9.6,14 15,7.9 C18.8,3.6 20.3,-1.3 20.3,-5.4 C20.3,-6.3 20.2,-7.1 20.1,-7.9 M13.2,-4 C13.2,-2.5 12.8,2.1 10.3,5.9 C8.6,8.5 5.2,11.2 3.3,12.7 L3.6,-6.8 C3.8,-7.7 5.3,-10.6 9.3,-10.6 C12.9,-10.6 13.2,-7.2 13.2,-5.1 C13.2,-4.6 13.2,-4.3 13.2,-4"/>
<path class="Accidental" transform="matrix(1.008,0,0,1.008,793.996,718.2)" d="M23.3,-10.5 C23.9,-10.6 24.4,-11.3 24.4,-11.9 L24.4,-17.8 C24.4,-18.6 23.8,-19.2 23,-19.2 C22.9,-19.2 22.9,-19.2 22.8,-19.2 L19.5,-18.5 L19.5,-33.4 L16.7,-33.4 L16.7,-17.9 L7.8,-16.1 L7.8,-30.2 L5,-30.2 L5,-15.5 L1.1,-14.7 C0.5,-14.6 0,-13.9 0,-13.3 L0,-13.1 L0,-7.3 L0,-7.5 C0,-6.7 0.6,-6.1 1.4,-6.1 C1.5,-6.1 1.6,-6.1 1.7,-6.1 L5,-6.8 L5,9.7 L1.1,10.5 C0.5,10.6 0,11.3 0,11.9 L0,17.7 C0,18.5 0.6,19.1 1.4,19.1 C1.5,19.1 1.6,19.1 1.7,19.1 L5,18.4 L5,33.3 L7.8,33.3 L7.8,17.8 L16.7,16 L16.7,30.1 L19.5,30.1 L19.5,15.4 L23.3,14.7 C23.9,14.6 24.4,13.9 24.4,13.3 L24.4,7.4 C24.4,6.6 23.8,6 23,6 C22.9,6 22.9,6 22.8,6 L19.5,6.7 L19.5,-9.8 L23.3,-10.5 M7.8,-7.4 L16.7,-9.2 L16.7,7.3 L7.8,9.2 L7.8,-7.4 "/>
<path class="Accidental" transform="matrix(1.008,0,0,1.008,1774.86,730.8)" d="M20.1,-7.9 C19.5,-11.8 17.1,-15.5 12,-15.5 C7,-15.5 4.1,-12.4 3.6,-11.8 L4,-43.9 C4,-44.7 3.4,-45.3 2.6,-45.3 L1.4,-45.3 C0.6,-45.3 0,-44.7 0,-43.9 L0.5,16.2 C0.5,17 1.1,17.6 1.9,17.6 C2.1,17.6 2.5,17.5 2.7,17.4 C3.1,17.2 9.6,14 15,7.9 C18.8,3.6 20.3,-1.3 20.3,-5.4 C20.3,-6.3 20.2,-7.1 20.1,-7.9 M13.2,-4 C13.2,-2.5 12.8,2.1 10.3,5.9 C8.6,8.5 5.2,11.2 3.3,12.7 L3.6,-6.8 C3.8,-7.7 5.3,-10.6 9.3,-10.6 C12.9,-10.6 13.2,-7.2 13.2,-5.1 C13.2,-4.6 13.2,-4.3 13.2,-4"/>
<path class="Accidental" transform="matrix(1.008,0,0,1.008,793.996,630)" d="M23.3,-10.5 C23.9,-10.6 24.4,-11.3 24.4,-11.9 L24.4,-17.8 C24.4,-18.6 23.8,-19.2 23,-19.2 C22.9,-19.2 22.9,-19.2 22.8,-19.2 L19.5,-18.5 L19.5,-33.4 L16.7,-33.4 L16.7,-17.9 L7.8,-16.1 L7.8,-30.2 L5,-30.2 L5,-15.5 L1.1,-14.7 C0.5,-14.6 0,-13.9 0,-13.3 L0,-13.1 L0,-7.3 L0,-7.5 C0,-6.7 0.6,-6.1 1.4,-6.1 C1.5,-6.1 1.6,-6.1 1.7,-6.1 L5,-6.8 L5,9.7 L1.1,10.5 C0.5,10.6 0,11.3 0,11.9 L0,17.7 C0,18.5 0.6,19.1 1.4,19.1 C1.5,19.1 1.6,19.1 1.7,19.1 L5,18.4 L5,33.3 L7.8,33.3 L7.8,17.8 L16.7,16 L16.7,30.1 L19.5,30.1 L19.5,15.4 L23.3,14.7 C23.9,14.6 24.4,13.9 24.4,13.3 L24.4,7.4 C24.4,6.6 23.8,6 23,6 C22.9,6 22.9,6 22.8,6 L19.5,6.7 L19.5,-9.8 L23.3,-10.5 M7.8,-7.4 L16.7,-9.2 L16.7,7.3 L7.8,9.2 L7.8,-7.4 "/>
<path class="Accidental" transform="matrix(1.008,0,0,1.008,1774.86,642.6)" d="M20.1,-7.9 C19.5,-11.8 17.1,-15.5 12,-15.5 C7,-15.5 4.1,-12.4 3.6,-11.8 L4,-43.9 C4,-44.7 3.4,-45.3 2.6,-45.3 L1.4,-45.3 C0.6,-45.3 0,-44.7 0,-43.9 L0.5,16.2 C0.5,17 1.1,17.6 1.9,17.6 C2.1,17.6 2.5,17.5 2.7,17.4 C3.1,17.2 9.6,14 15,7.9 C18.8,3.6 20.3,-1.3 20.3,-5.4 C20.3,-6.3 20.2,-7.1 20.1,-7.9 M13.2,-4 C13.2,-2.5 12.8,2.1 10.3,5.9 C8.6,8.5 5.2,11.2 3.3,12.7 L3.6,-6.8 C3.8,-7.7 5.3,-10.6 9.3,-10.6 C12.9,-10.6 13.2,-7.2 13.2,-5.1 C13.2,-4.6 13.2,-4.3 13.2,-4"/>
<path class="Accidental" transform="matrix(1.008,0,0,1.008,2377.39,642.6)" d="M16.6,-18.3 C16.4,-18.5 16.1,-18.6 15.8,-18.6 C15.7,-18.6 15.5,-18.5 15.4,-18.5 L2.8,-15 L2.8,-32.5 L0,-32.5 L0,17 C0,17.8 0.6,18.3 1.4,18.3 C1.5,18.3 1.7,18.3 1.8,18.3 L14.4,14.8 L14.4,32.3 L17.1,32.3 C17.1,15.7 17.1,-0.1 17.1,-17.2 C17.1,-17.6 16.9,-18.1 16.6,-18.3 M2.8,9.7 L2.8,-6.7 L14.4,-10 L14.4,6.5 L2.8,9.7 "/>
<path class="Accidental" transform="matrix(1.008,0,0,1.008,2377.39,730.8)" d="M16.6,-18.3 C16.4,-18.5 16.1,-18.6 15.8,-18.6 C15.7,-18.6 15.5,-18.5 15.4,-18.5 L2.8,-15 L2.8,-32.5 L0,-32.5 L0,17 C0,17.8 0.6,18.3 1.4,18.3 C1.5,18.3 1.7,18.3 1.8,18.3 L14.4,14.8 L14.4,32.3 L17.1,32.3 C17.1,15.7 17.1,-0.1 17.1,-17.2 C17.1,-17.6 16.9,-18.1 16.6,-18.3 M2.8,9.7 L2.8,-6.7 L14.4,-10 L14.4,6.5 L2.8,9.7 "/>
<path class="Accidental" transform="matrix(1.008,0,0,1.008,2243.9,642.6)" d="M20.1,-7.9 C19.5,-11.8 17.1,-15.5 12,-15.5 C7,-15.5 4.1,-12.4 3.6,-11.8 L4,-43.9 C4,-44.7 3.4,-45.3 2.6,-45.3 L1.4,-45.3 C0.6,-45.3 0,-44.7 0,-43.9 L0.5,16.2 C0.5,17 1.1,17.6 1.9,17.6 C2.1,17.6 2.5,17.5 2.7,17.4 C3.1,17.2 9.6,14 15,7.9 C18.8,3.6 20.3,-1.3 20.3,-5.4 C20.3,-6.3 20.2,-7.1 20.1,-7.9 M13.2,-4 C13.2,-2.5 12.8,2.1 10.3,5.9 C8.6,8.5 5.2,11.2 3.3,12.7 L3.6,-6.8 C3.8,-7.7 5.3,-10.6 9.3,-10.6 C12.9,-10.6 13.2,-7.2 13.2,-5.1 C13.2,-4.6 13.2,-4.3 13.2,-4"/>
<polyline class="LedgerLine" fill="none" stroke="#000000" stroke-width="4.03" stroke-linejoin="bevel" points="1815.56,1234.8 1865.95,1234.8" />
<polyline class="LedgerLine" fill="none" stroke="#000000" stroke-width="4.03" stroke-linejoin="bevel" points="1939.51,1234.8 1989.9,1234.8" />
<polyline class="LedgerLine" fill="none" stroke="#000000" stroke-width="4.03" stroke-linejoin="bevel" points="2534.69,1234.8 2585.07,1234.8" />
<polyline class="Stem" fill="none" stroke="#000000" stroke-width="2.77" stroke-linejoin="bevel" points="2627.67,701.568 2627.67,592.005" />
<polyline class="Stem" fill="none" stroke="#000000" stroke-width="2.77" stroke-linejoin="bevel" points="386.71,1205.57 386.71,1058.4" />
<polyline class="Stem" fill="none" stroke="#000000" stroke-width="2.77" stroke-linejoin="bevel" points="2167.51,726.768 2167.51,579.6" />
<polyline class="Stem" fill="none" stroke="#000000" stroke-width="2.77" stroke-linejoin="bevel" points="1416.24,701.568 1416.24,554.4" />
<polyline class="Stem" fill="none" stroke="#000000" stroke-width="2.77" stroke-linejoin="bevel" points="1855.74,1230.77 1855.74,1077.2" />
<polyline class="Stem" fill="none" stroke="#000000" stroke-width="2.77" stroke-linejoin="bevel" points="1769.09,1218.17 1769.09,1071.1" />
<polyline class="Stem" fill="none" stroke="#000000" stroke-width="2.77" stroke-linejoin="bevel" points="1611.63,701.568 1611.63,592.005" />
<polyline class="Stem" fill="none" stroke="#000000" stroke-width="2.77" stroke-linejoin="bevel" points="1103.93,714.168 1103.93,567" />
<polyline class="Stem" fill="none" stroke="#000000" stroke-width="2.77" stroke-linejoin="bevel" points="2302.02,726.768 2302.02,579.6" />
<polyline class="Stem" fill="none" stroke="#000000" stroke-width="2.77" stroke-linejoin="bevel" points="1521.92,1205.57 1521.92,1058.4" />
<polyline class="Stem" fill="none" stroke="#000000" stroke-width="2.77" stroke-linejoin="bevel" points="541.175,709.834 541.175,768.6" />
<polyline class="Stem" fill="none" stroke="#000000" stroke-width="2.77" stroke-linejoin="bevel" points="1387.59,1205.57 1387.59,1058.6" />
<polyline class="Stem" fill="none" stroke="#000000" stroke-width="2.77" stroke-linejoin="bevel" points="2274.68,1188.63 2274.68,1247.4" />
<polyline class="Stem" fill="none" stroke="#000000" stroke-width="2.77" stroke-linejoin="bevel" points="2432.28,726.768 2432.28,579.6" />
<polyline class="Stem" fill="none" stroke="#000000" stroke-width="2.77" stroke-linejoin="bevel" points="1300.94,1180.37 1300.94,1070.8" />
<polyline class="Stem" fill="none" stroke="#000000" stroke-width="2.77" stroke-linejoin="bevel" points="2080.67,726.768 2080.67,579.6" />
<polyline class="Stem" fill="none" stroke="#000000" stroke-width="2.77" stroke-linejoin="bevel" points="1698.47,726.768 1698.47,579.795" />
<polyline class="Stem" fill="none" stroke="#000000" stroke-width="2.77" stroke-linejoin="bevel" points="2574.87,1230.77 2574.87,1077.3" />
<polyline class="Stem" fill="none" stroke="#000000" stroke-width="2.77" stroke-linejoin="bevel" points="1105.96,1205.57 1105.96,1058.4" />
<polyline class="Stem" fill="none" stroke="#000000" stroke-width="2.77" stroke-linejoin="bevel" points="1979.69,1230.77 1979.69,1077.3" />
<polyline class="Stem" fill="none" stroke="#000000" stroke-width="2.77" stroke-linejoin="bevel" points="975.98,1205.57 975.98,1058.4" />
<polyline class="Stem" fill="none" stroke="#000000" stroke-width="2.77" stroke-linejoin="bevel" points="2714.5,726.768 2714.5,579.795" />
<polyline class="Stem" fill="none" stroke="#000000" stroke-width="2.77" stroke-linejoin="bevel" points="628.014,621.634 628.014,768.6" />
<polyline class="Stem" fill="none" stroke="#000000" stroke-width="2.77" stroke-linejoin="bevel" points="841.649,1205.57 841.649,1058.4" />
<polyline class="Stem" fill="none" stroke="#000000" stroke-width="2.77" stroke-linejoin="bevel" points="1285.99,714.168 1285.99,567" />
<polyline class="Stem" fill="none" stroke="#000000" stroke-width="2.77" stroke-linejoin="bevel" points="754.994,1205.57 754.994,1058.4" />
<polyline class="Stem" fill="none" stroke="#000000" stroke-width="2.77" stroke-linejoin="bevel" points="668.339,1205.57 668.339,1058.4" />
<polyline class="Stem" fill="none" stroke="#000000" stroke-width="2.77" stroke-linejoin="bevel" points="2361.33,1100.43 2361.33,1247.4" />
<polyline class="Stem" fill="none" stroke="#000000" stroke-width="2.77" stroke-linejoin="bevel" points="856.24,714.168 856.24,567" />
<polyline class="Stem" fill="none" stroke="#000000" stroke-width="2.77" stroke-linejoin="bevel" points="581.684,1205.57 581.684,1058.4" />
<polyline class="Stem" fill="none" stroke="#000000" stroke-width="2.77" stroke-linejoin="bevel" points="1832.98,726.768 1832.98,579.6" />
<path class="Note" transform="matrix(1.008,0,0,1.008,723.636,1209.6)" d="M0,4.2 C0,8.5 3.1,13.3 11.2,13.3 C21.6,13.3 32.5,4.8 32.5,-4 C32.5,-9.9 27.5,-13.2 21.3,-13.2 C11.6,-13.2 0,-5 0,4.2"/>
<path class="Note" transform="matrix(1.008,0,0,1.008,2596.31,705.6)" d="M0,4.2 C0,8.5 3.1,13.3 11.2,13.3 C21.6,13.3 32.5,4.8 32.5,-4 C32.5,-9.9 27.5,-13.2 21.3,-13.2 C11.6,-13.2 0,-5 0,4.2"/>
<path class="Note" transform="matrix(1.008,0,0,1.008,355.351,1209.6)" d="M21.3,-13.2 C11.6,-13.2 0,-5.1 0,4.2 C0,8.5 3.1,13.3 11.2,13.3 C21.6,13.3 32.5,4.8 32.5,-4 C32.5,-9.9 27.5,-13.2 21.3,-13.2 M18.6,4.4 C18.3,4.6 11,8.6 7.5,8.6 C4.2,8.6 3.5,5.9 3.5,5 C3.5,0.8 13.5,-4.1 13.9,-4.3 C14.3,-4.5 21.4,-8.5 25,-8.5 C27.4,-8.5 29,-7.1 29,-4.9 C29,-0.6 18.9,4.2 18.6,4.4"/>
<path class="Note" transform="matrix(1.008,0,0,1.008,626.628,705.6)" d="M0,4.2 C0,8.5 3.1,13.3 11.2,13.3 C21.6,13.3 32.5,4.8 32.5,-4 C32.5,-9.9 27.5,-13.2 21.3,-13.2 C11.6,-13.2 0,-5 0,4.2"/>
<path class="Note" transform="matrix(1.008,0,0,1.008,355.351,1121.4)" d="M21.3,-13.2 C11.6,-13.2 0,-5.1 0,4.2 C0,8.5 3.1,13.3 11.2,13.3 C21.6,13.3 32.5,4.8 32.5,-4 C32.5,-9.9 27.5,-13.2 21.3,-13.2 M18.6,4.4 C18.3,4.6 11,8.6 7.5,8.6 C4.2,8.6 3.5,5.9 3.5,5 C3.5,0.8 13.5,-4.1 13.9,-4.3 C14.3,-4.5 21.4,-8.5 25,-8.5 C27.4,-8.5 29,-7.1 29,-4.9 C29,-0.6 18.9,4.2 18.6,4.4"/>
<path class="Note" transform="matrix(1.008,0,0,1.008,1254.63,718.2)" d="M0,4.2 C0,8.5 3.1,13.3 11.2,13.3 C21.6,13.3 32.5,4.8 32.5,-4 C32.5,-9.9 27.5,-13.2 21.3,-13.2 C11.6,-13.2 0,-5 0,4.2"/>
<path class="Note" transform="matrix(1.008,0,0,1.008,626.628,617.4)" d="M0,4.2 C0,8.5 3.1,13.3 11.2,13.3 C21.6,13.3 32.5,4.8 32.5,-4 C32.5,-9.9 27.5,-13.2 21.3,-13.2 C11.6,-13.2 0,-5 0,4.2"/>
<path class="Note" transform="matrix(1.008,0,0,1.008,550.326,1209.6)" d="M0,4.2 C0,8.5 3.1,13.3 11.2,13.3 C21.6,13.3 32.5,4.8 32.5,-4 C32.5,-9.9 27.5,-13.2 21.3,-13.2 C11.6,-13.2 0,-5 0,4.2"/>
<path class="Note" transform="matrix(1.008,0,0,1.008,550.326,1121.4)" d="M0,4.2 C0,8.5 3.1,13.3 11.2,13.3 C21.6,13.3 32.5,4.8 32.5,-4 C32.5,-9.9 27.5,-13.2 21.3,-13.2 C11.6,-13.2 0,-5 0,4.2"/>
<path class="Note" transform="matrix(1.008,0,0,1.008,824.882,718.2)" d="M21.3,-13.2 C11.6,-13.2 0,-5.1 0,4.2 C0,8.5 3.1,13.3 11.2,13.3 C21.6,13.3 32.5,4.8 32.5,-4 C32.5,-9.9 27.5,-13.2 21.3,-13.2 M18.6,4.4 C18.3,4.6 11,8.6 7.5,8.6 C4.2,8.6 3.5,5.9 3.5,5 C3.5,0.8 13.5,-4.1 13.9,-4.3 C14.3,-4.5 21.4,-8.5 25,-8.5 C27.4,-8.5 29,-7.1 29,-4.9 C29,-0.6 18.9,4.2 18.6,4.4"/>
<path class="Note" transform="matrix(1.008,0,0,1.008,1801.62,730.8)" d="M21.3,-13.2 C11.6,-13.2 0,-5.1 0,4.2 C0,8.5 3.1,13.3 11.2,13.3 C21.6,13.3 32.5,4.8 32.5,-4 C32.5,-9.9 27.5,-13.2 21.3,-13.2 M18.6,4.4 C18.3,4.6 11,8.6 7.5,8.6 C4.2,8.6 3.5,5.9 3.5,5 C3.5,0.8 13.5,-4.1 13.9,-4.3 C14.3,-4.5 21.4,-8.5 25,-8.5 C27.4,-8.5 29,-7.1 29,-4.9 C29,-0.6 18.9,4.2 18.6,4.4"/>
<path class="Note" transform="matrix(1.008,0,0,1.008,636.981,1209.6)" d="M0,4.2 C0,8.5 3.1,13.3 11.2,13.3 C21.6,13.3 32.5,4.8 32.5,-4 C32.5,-9.9 27.5,-13.2 21.3,-13.2 C11.6,-13.2 0,-5 0,4.2"/>
<path class="Note" transform="matrix(1.008,0,0,1.008,636.981,1121.4)" d="M0,4.2 C0,8.5 3.1,13.3 11.2,13.3 C21.6,13.3 32.5,4.8 32.5,-4 C32.5,-9.9 27.5,-13.2 21.3,-13.2 C11.6,-13.2 0,-5 0,4.2"/>
<path class="Note" transform="matrix(1.008,0,0,1.008,2359.95,1096.2)" d="M0,4.2 C0,8.5 3.1,13.3 11.2,13.3 C21.6,13.3 32.5,4.8 32.5,-4 C32.5,-9.9 27.5,-13.2 21.3,-13.2 C11.6,-13.2 0,-5 0,4.2"/>
<path class="Note" transform="matrix(1.008,0,0,1.008,824.882,630)" d="M21.3,-13.2 C11.6,-13.2 0,-5.1 0,4.2 C0,8.5 3.1,13.3 11.2,13.3 C21.6,13.3 32.5,4.8 32.5,-4 C32.5,-9.9 27.5,-13.2 21.3,-13.2 M18.6,4.4 C18.3,4.6 11,8.6 7.5,8.6 C4.2,8.6 3.5,5.9 3.5,5 C3.5,0.8 13.5,-4.1 13.9,-4.3 C14.3,-4.5 21.4,-8.5 25,-8.5 C27.4,-8.5 29,-7.1 29,-4.9 C29,-0.6 18.9,4.2 18.6,4.4"/>
<path class="Note" transform="matrix(1.008,0,0,1.008,723.636,1121.4)" d="M0,4.2 C0,8.5 3.1,13.3 11.2,13.3 C21.6,13.3 32.5,4.8 32.5,-4 C32.5,-9.9 27.5,-13.2 21.3,-13.2 C11.6,-13.2 0,-5 0,4.2"/>
<path class="Note" transform="matrix(1.008,0,0,1.008,2273.29,1184.4)" d="M0,4.2 C0,8.5 3.1,13.3 11.2,13.3 C21.6,13.3 32.5,4.8 32.5,-4 C32.5,-9.9 27.5,-13.2 21.3,-13.2 C11.6,-13.2 0,-5 0,4.2"/>
<path class="Note" transform="matrix(1.008,0,0,1.008,2683.15,642.6)" d="M0,4.2 C0,8.5 3.1,13.3 11.2,13.3 C21.6,13.3 32.5,4.8 32.5,-4 C32.5,-9.9 27.5,-13.2 21.3,-13.2 C11.6,-13.2 0,-5 0,4.2"/>
<path class="Note" transform="matrix(1.008,0,0,1.008,810.291,1209.6)" d="M0,4.2 C0,8.5 3.1,13.3 11.2,13.3 C21.6,13.3 32.5,4.8 32.5,-4 C32.5,-9.9 27.5,-13.2 21.3,-13.2 C11.6,-13.2 0,-5 0,4.2"/>
<path class="Note" transform="matrix(1.008,0,0,1.008,810.291,1121.4)" d="M0,4.2 C0,8.5 3.1,13.3 11.2,13.3 C21.6,13.3 32.5,4.8 32.5,-4 C32.5,-9.9 27.5,-13.2 21.3,-13.2 C11.6,-13.2 0,-5 0,4.2"/>
<path class="Note" transform="matrix(1.008,0,0,1.008,2683.15,730.8)" d="M0,4.2 C0,8.5 3.1,13.3 11.2,13.3 C21.6,13.3 32.5,4.8 32.5,-4 C32.5,-9.9 27.5,-13.2 21.3,-13.2 C11.6,-13.2 0,-5 0,4.2"/>
<path class="Note" transform="matrix(1.008,0,0,1.008,539.789,705.6)" d="M0,4.2 C0,8.5 3.1,13.3 11.2,13.3 C21.6,13.3 32.5,4.8 32.5,-4 C32.5,-9.9 27.5,-13.2 21.3,-13.2 C11.6,-13.2 0,-5 0,4.2"/>
<path class="Note" transform="matrix(1.008,0,0,1.008,1801.62,642.6)" d="M21.3,-13.2 C11.6,-13.2 0,-5.1 0,4.2 C0,8.5 3.1,13.3 11.2,13.3 C21.6,13.3 32.5,4.8 32.5,-4 C32.5,-9.9 27.5,-13.2 21.3,-13.2 M18.6,4.4 C18.3,4.6 11,8.6 7.5,8.6 C4.2,8.6 3.5,5.9 3.5,5 C3.5,0.8 13.5,-4.1 13.9,-4.3 C14.3,-4.5 21.4,-8.5 25,-8.5 C27.4,-8.5 29,-7.1 29,-4.9 C29,-0.6 18.9,4.2 18.6,4.4"/>
<path class="Note" transform="matrix(1.008,0,0,1.008,944.621,1209.6)" d="M0,4.2 C0,8.5 3.1,13.3 11.2,13.3 C21.6,13.3 32.5,4.8 32.5,-4 C32.5,-9.9 27.5,-13.2 21.3,-13.2 C11.6,-13.2 0,-5 0,4.2"/>
<path class="Note" transform="matrix(1.008,0,0,1.008,1667.11,642.6)" d="M0,4.2 C0,8.5 3.1,13.3 11.2,13.3 C21.6,13.3 32.5,4.8 32.5,-4 C32.5,-9.9 27.5,-13.2 21.3,-13.2 C11.6,-13.2 0,-5 0,4.2"/>
<path class="Note" transform="matrix(1.008,0,0,1.008,944.621,1121.4)" d="M0,4.2 C0,8.5 3.1,13.3 11.2,13.3 C21.6,13.3 32.5,4.8 32.5,-4 C32.5,-9.9 27.5,-13.2 21.3,-13.2 C11.6,-13.2 0,-5 0,4.2"/>
<path class="Note" transform="matrix(1.008,0,0,1.008,1667.11,730.8)" d="M0,4.2 C0,8.5 3.1,13.3 11.2,13.3 C21.6,13.3 32.5,4.8 32.5,-4 C32.5,-9.9 27.5,-13.2 21.3,-13.2 C11.6,-13.2 0,-5 0,4.2"/>
<path class="Note" transform="matrix(1.008,0,0,1.008,2543.51,1146.6)" d="M21.3,-13.2 C11.6,-13.2 0,-5.1 0,4.2 C0,8.5 3.1,13.3 11.2,13.3 C21.6,13.3 32.5,4.8 32.5,-4 C32.5,-9.9 27.5,-13.2 21.3,-13.2 M18.6,4.4 C18.3,4.6 11,8.6 7.5,8.6 C4.2,8.6 3.5,5.9 3.5,5 C3.5,0.8 13.5,-4.1 13.9,-4.3 C14.3,-4.5 21.4,-8.5 25,-8.5 C27.4,-8.5 29,-7.1 29,-4.9 C29,-0.6 18.9,4.2 18.6,4.4"/>
<path class="Note" transform="matrix(1.008,0,0,1.008,1074.6,1209.6)" d="M21.3,-13.2 C11.6,-13.2 0,-5.1 0,4.2 C0,8.5 3.1,13.3 11.2,13.3 C21.6,13.3 32.5,4.8 32.5,-4 C32.5,-9.9 27.5,-13.2 21.3,-13.2 M18.6,4.4 C18.3,4.6 11,8.6 7.5,8.6 C4.2,8.6 3.5,5.9 3.5,5 C3.5,0.8 13.5,-4.1 13.9,-4.3 C14.3,-4.5 21.4,-8.5 25,-8.5 C27.4,-8.5 29,-7.1 29,-4.9 C29,-0.6 18.9,4.2 18.6,4.4"/>
<path class="Note" transform="matrix(1.008,0,0,1.008,2400.92,642.6)" d="M21.3,-13.2 C11.6,-13.2 0,-5.1 0,4.2 C0,8.5 3.1,13.3 11.2,13.3 C21.6,13.3 32.5,4.8 32.5,-4 C32.5,-9.9 27.5,-13.2 21.3,-13.2 M18.6,4.4 C18.3,4.6 11,8.6 7.5,8.6 C4.2,8.6 3.5,5.9 3.5,5 C3.5,0.8 13.5,-4.1 13.9,-4.3 C14.3,-4.5 21.4,-8.5 25,-8.5 C27.4,-8.5 29,-7.1 29,-4.9 C29,-0.6 18.9,4.2 18.6,4.4"/>
<path class="Note" transform="matrix(1.008,0,0,1.008,1074.6,1121.4)" d="M21.3,-13.2 C11.6,-13.2 0,-5.1 0,4.2 C0,8.5 3.1,13.3 11.2,13.3 C21.6,13.3 32.5,4.8 32.5,-4 C32.5,-9.9 27.5,-13.2 21.3,-13.2 M18.6,4.4 C18.3,4.6 11,8.6 7.5,8.6 C4.2,8.6 3.5,5.9 3.5,5 C3.5,0.8 13.5,-4.1 13.9,-4.3 C14.3,-4.5 21.4,-8.5 25,-8.5 C27.4,-8.5 29,-7.1 29,-4.9 C29,-0.6 18.9,4.2 18.6,4.4"/>
<path class="Note" transform="matrix(1.008,0,0,1.008,2543.51,1234.8)" d="M21.3,-13.2 C11.6,-13.2 0,-5.1 0,4.2 C0,8.5 3.1,13.3 11.2,13.3 C21.6,13.3 32.5,4.8 32.5,-4 C32.5,-9.9 27.5,-13.2 21.3,-13.2 M18.6,4.4 C18.3,4.6 11,8.6 7.5,8.6 C4.2,8.6 3.5,5.9 3.5,5 C3.5,0.8 13.5,-4.1 13.9,-4.3 C14.3,-4.5 21.4,-8.5 25,-8.5 C27.4,-8.5 29,-7.1 29,-4.9 C29,-0.6 18.9,4.2 18.6,4.4"/>
<path class="Note" transform="matrix(1.008,0,0,1.008,2400.92,730.8)" d="M21.3,-13.2 C11.6,-13.2 0,-5.1 0,4.2 C0,8.5 3.1,13.3 11.2,13.3 C21.6,13.3 32.5,4.8 32.5,-4 C32.5,-9.9 27.5,-13.2 21.3,-13.2 M18.6,4.4 C18.3,4.6 11,8.6 7.5,8.6 C4.2,8.6 3.5,5.9 3.5,5 C3.5,0.8 13.5,-4.1 13.9,-4.3 C14.3,-4.5 21.4,-8.5 25,-8.5 C27.4,-8.5 29,-7.1 29,-4.9 C29,-0.6 18.9,4.2 18.6,4.4"/>
<path class="Note" transform="matrix(1.008,0,0,1.008,1269.58,1184.4)" d="M0,4.2 C0,8.5 3.1,13.3 11.2,13.3 C21.6,13.3 32.5,4.8 32.5,-4 C32.5,-9.9 27.5,-13.2 21.3,-13.2 C11.6,-13.2 0,-5 0,4.2"/>
<path class="Note" transform="matrix(1.008,0,0,1.008,2049.31,730.8)" d="M0,4.2 C0,8.5 3.1,13.3 11.2,13.3 C21.6,13.3 32.5,4.8 32.5,-4 C32.5,-9.9 27.5,-13.2 21.3,-13.2 C11.6,-13.2 0,-5 0,4.2"/>
<path class="Note" transform="matrix(1.008,0,0,1.008,2270.66,642.6)" d="M0,4.2 C0,8.5 3.1,13.3 11.2,13.3 C21.6,13.3 32.5,4.8 32.5,-4 C32.5,-9.9 27.5,-13.2 21.3,-13.2 C11.6,-13.2 0,-5 0,4.2"/>
<path class="Note" transform="matrix(1.008,0,0,1.008,1356.23,1209.6)" d="M0,4.2 C0,8.5 3.1,13.3 11.2,13.3 C21.6,13.3 32.5,4.8 32.5,-4 C32.5,-9.9 27.5,-13.2 21.3,-13.2 C11.6,-13.2 0,-5 0,4.2"/>
<path class="Note" transform="matrix(1.008,0,0,1.008,1356.23,1121.4)" d="M0,4.2 C0,8.5 3.1,13.3 11.2,13.3 C21.6,13.3 32.5,4.8 32.5,-4 C32.5,-9.9 27.5,-13.2 21.3,-13.2 C11.6,-13.2 0,-5 0,4.2"/>
<path class="Note" transform="matrix(1.008,0,0,1.008,2049.31,642.6)" d="M0,4.2 C0,8.5 3.1,13.3 11.2,13.3 C21.6,13.3 32.5,4.8 32.5,-4 C32.5,-9.9 27.5,-13.2 21.3,-13.2 C11.6,-13.2 0,-5 0,4.2"/>
<path class="Note" transform="matrix(1.008,0,0,1.008,1254.63,630)" d="M0,4.2 C0,8.5 3.1,13.3 11.2,13.3 C21.6,13.3 32.5,4.8 32.5,-4 C32.5,-9.9 27.5,-13.2 21.3,-13.2 C11.6,-13.2 0,-5 0,4.2"/>
<path class="Note" transform="matrix(1.008,0,0,1.008,2270.66,730.8)" d="M0,4.2 C0,8.5 3.1,13.3 11.2,13.3 C21.6,13.3 32.5,4.8 32.5,-4 C32.5,-9.9 27.5,-13.2 21.3,-13.2 C11.6,-13.2 0,-5 0,4.2"/>
<path class="Note" transform="matrix(1.008,0,0,1.008,1490.56,1209.6)" d="M21.3,-13.2 C11.6,-13.2 0,-5.1 0,4.2 C0,8.5 3.1,13.3 11.2,13.3 C21.6,13.3 32.5,4.8 32.5,-4 C32.5,-9.9 27.5,-13.2 21.3,-13.2 M18.6,4.4 C18.3,4.6 11,8.6 7.5,8.6 C4.2,8.6 3.5,5.9 3.5,5 C3.5,0.8 13.5,-4.1 13.9,-4.3 C14.3,-4.5 21.4,-8.5 25,-8.5 C27.4,-8.5 29,-7.1 29,-4.9 C29,-0.6 18.9,4.2 18.6,4.4"/>
<path class="Note" transform="matrix(1.008,0,0,1.008,1580.27,705.6)" d="M0,4.2 C0,8.5 3.1,13.3 11.2,13.3 C21.6,13.3 32.5,4.8 32.5,-4 C32.5,-9.9 27.5,-13.2 21.3,-13.2 C11.6,-13.2 0,-5 0,4.2"/>
<path class="Note" transform="matrix(1.008,0,0,1.008,1948.33,1146.6)" d="M21.3,-13.2 C11.6,-13.2 0,-5.1 0,4.2 C0,8.5 3.1,13.3 11.2,13.3 C21.6,13.3 32.5,4.8 32.5,-4 C32.5,-9.9 27.5,-13.2 21.3,-13.2 M18.6,4.4 C18.3,4.6 11,8.6 7.5,8.6 C4.2,8.6 3.5,5.9 3.5,5 C3.5,0.8 13.5,-4.1 13.9,-4.3 C14.3,-4.5 21.4,-8.5 25,-8.5 C27.4,-8.5 29,-7.1 29,-4.9 C29,-0.6 18.9,4.2 18.6,4.4"/>
<path class="Note" transform="matrix(1.008,0,0,1.008,1490.56,1121.4)" d="M21.3,-13.2 C11.6,-13.2 0,-5.1 0,4.2 C0,8.5 3.1,13.3 11.2,13.3 C21.6,13.3 32.5,4.8 32.5,-4 C32.5,-9.9 27.5,-13.2 21.3,-13.2 M18.6,4.4 C18.3,4.6 11,8.6 7.5,8.6 C4.2,8.6 3.5,5.9 3.5,5 C3.5,0.8 13.5,-4.1 13.9,-4.3 C14.3,-4.5 21.4,-8.5 25,-8.5 C27.4,-8.5 29,-7.1 29,-4.9 C29,-0.6 18.9,4.2 18.6,4.4"/>
<path class="Note" transform="matrix(1.008,0,0,1.008,1072.57,718.2)" d="M0,4.2 C0,8.5 3.1,13.3 11.2,13.3 C21.6,13.3 32.5,4.8 32.5,-4 C32.5,-9.9 27.5,-13.2 21.3,-13.2 C11.6,-13.2 0,-5 0,4.2"/>
<path class="Note" transform="matrix(1.008,0,0,1.008,1948.33,1234.8)" d="M21.3,-13.2 C11.6,-13.2 0,-5.1 0,4.2 C0,8.5 3.1,13.3 11.2,13.3 C21.6,13.3 32.5,4.8 32.5,-4 C32.5,-9.9 27.5,-13.2 21.3,-13.2 M18.6,4.4 C18.3,4.6 11,8.6 7.5,8.6 C4.2,8.6 3.5,5.9 3.5,5 C3.5,0.8 13.5,-4.1 13.9,-4.3 C14.3,-4.5 21.4,-8.5 25,-8.5 C27.4,-8.5 29,-7.1 29,-4.9 C29,-0.6 18.9,4.2 18.6,4.4"/>
<path class="Note" transform="matrix(1.008,0,0,1.008,1072.57,630)" d="M0,4.2 C0,8.5 3.1,13.3 11.2,13.3 C21.6,13.3 32.5,4.8 32.5,-4 C32.5,-9.9 27.5,-13.2 21.3,-13.2 C11.6,-13.2 0,-5 0,4.2"/>
<path class="Note" transform="matrix(1.008,0,0,1.008,1737.73,1222.2)" d="M0,4.2 C0,8.5 3.1,13.3 11.2,13.3 C21.6,13.3 32.5,4.8 32.5,-4 C32.5,-9.9 27.5,-13.2 21.3,-13.2 C11.6,-13.2 0,-5 0,4.2"/>
<path class="Note" transform="matrix(1.008,0,0,1.008,1737.73,1134)" d="M0,4.2 C0,8.5 3.1,13.3 11.2,13.3 C21.6,13.3 32.5,4.8 32.5,-4 C32.5,-9.9 27.5,-13.2 21.3,-13.2 C11.6,-13.2 0,-5 0,4.2"/>
<path class="Note" transform="matrix(1.008,0,0,1.008,1384.89,617.4)" d="M21.3,-13.2 C11.6,-13.2 0,-5.1 0,4.2 C0,8.5 3.1,13.3 11.2,13.3 C21.6,13.3 32.5,4.8 32.5,-4 C32.5,-9.9 27.5,-13.2 21.3,-13.2 M18.6,4.4 C18.3,4.6 11,8.6 7.5,8.6 C4.2,8.6 3.5,5.9 3.5,5 C3.5,0.8 13.5,-4.1 13.9,-4.3 C14.3,-4.5 21.4,-8.5 25,-8.5 C27.4,-8.5 29,-7.1 29,-4.9 C29,-0.6 18.9,4.2 18.6,4.4"/>
<path class="Note" transform="matrix(1.008,0,0,1.008,2136.15,642.6)" d="M0,4.2 C0,8.5 3.1,13.3 11.2,13.3 C21.6,13.3 32.5,4.8 32.5,-4 C32.5,-9.9 27.5,-13.2 21.3,-13.2 C11.6,-13.2 0,-5 0,4.2"/>
<path class="Note" transform="matrix(1.008,0,0,1.008,1384.89,705.6)" d="M21.3,-13.2 C11.6,-13.2 0,-5.1 0,4.2 C0,8.5 3.1,13.3 11.2,13.3 C21.6,13.3 32.5,4.8 32.5,-4 C32.5,-9.9 27.5,-13.2 21.3,-13.2 M18.6,4.4 C18.3,4.6 11,8.6 7.5,8.6 C4.2,8.6 3.5,5.9 3.5,5 C3.5,0.8 13.5,-4.1 13.9,-4.3 C14.3,-4.5 21.4,-8.5 25,-8.5 C27.4,-8.5 29,-7.1 29,-4.9 C29,-0.6 18.9,4.2 18.6,4.4"/>
<path class="Note" transform="matrix(1.008,0,0,1.008,1824.38,1234.8)" d="M0,4.2 C0,8.5 3.1,13.3 11.2,13.3 C21.6,13.3 32.5,4.8 32.5,-4 C32.5,-9.9 27.5,-13.2 21.3,-13.2 C11.6,-13.2 0,-5 0,4.2"/>
<path class="Note" transform="matrix(1.008,0,0,1.008,2136.15,730.8)" d="M0,4.2 C0,8.5 3.1,13.3 11.2,13.3 C21.6,13.3 32.5,4.8 32.5,-4 C32.5,-9.9 27.5,-13.2 21.3,-13.2 C11.6,-13.2 0,-5 0,4.2"/>
<path class="Note" transform="matrix(1.008,0,0,1.008,1824.38,1146.6)" d="M0,4.2 C0,8.5 3.1,13.3 11.2,13.3 C21.6,13.3 32.5,4.8 32.5,-4 C32.5,-9.9 27.5,-13.2 21.3,-13.2 C11.6,-13.2 0,-5 0,4.2"/>
<path class="Note" transform="matrix(1.008,0,0,1.008,2359.95,1184.4)" d="M0,4.2 C0,8.5 3.1,13.3 11.2,13.3 C21.6,13.3 32.5,4.8 32.5,-4 C32.5,-9.9 27.5,-13.2 21.3,-13.2 C11.6,-13.2 0,-5 0,4.2"/>
<path class="Clef" transform="matrix(1.008,0,0,1.008,226.296,1184.4)" d="M56.2,2.1 C56.2,9.2 53.3,16.5 46.2,19.4 C44.1,7.4 41.4,-8.5 40.7,-12.9 C49.7,-12.9 56.2,-6.8 56.2,2.1 M42,20.6 C40,21 38.1,21.2 36.2,21.2 C21.9,21.2 9.7,11.2 9.7,-3.9 C9.7,-16.1 18.3,-27 27.1,-34.6 C28.8,-36.1 30.4,-37.5 31.9,-39 C32.8,-33.6 33.5,-28.9 34.2,-24.8 C25.1,-22.1 18.9,-12.5 18.9,-3.1 C18.9,3.9 24.4,13.5 32.4,13.5 C33.2,13.5 34.1,13.1 34.1,12.2 C34.1,11.3 33.1,10.8 31.9,10 C28,7.6 25.8,5 25.8,0.1 C25.8,-6 30.3,-10.9 36.2,-12.3 L42,20.6 M33.2,-82.2 C34.1,-86.2 38.7,-96.7 43.9,-96.7 C45.4,-96.7 47.8,-91.8 47.8,-84.9 C47.8,-74.5 40.1,-66.7 33.2,-59.9 C32.6,-63.9 32.1,-67.8 32.1,-72 C32.1,-75.7 32.4,-79.1 33.2,-82.2 M12.2,51.3 C12.2,57.9 17.3,66.6 30.8,66.6 C35.5,66.6 39.6,65.4 43.2,63.2 C48.6,59.4 50,52.8 50,46.5 C50,42.6 49.4,38.1 48.4,32.4 C48.1,30.4 47.5,27.4 46.9,23.5 C56.7,20.3 64,10.1 64,-0.2 C64,-15.3 53.3,-25.5 38.7,-25.5 C37.7,-31.5 36.7,-37.4 35.8,-43 C46.4,-54.1 53.7,-66.6 53.7,-82.5 C53.7,-91.6 50.9,-99 49.3,-102.6 C46.9,-107.7 44,-111.2 42.2,-111.2 C41.5,-111.2 38.4,-110 35.1,-106.1 C28.7,-98.5 26.9,-85.7 26.9,-77.3 C26.9,-71.9 27.4,-67 29.1,-55.8 C29,-55.7 23.8,-50.4 21.7,-48.7 C12.6,-40.2 0,-28.1 0,-8.1 C0,10.6 16.3,25.3 34.9,25.3 C37.8,25.3 40.5,25 42.8,24.6 C44.7,34.2 45.8,41.2 45.8,46.5 C45.8,56.9 40.5,62.4 30.4,62.4 C28,62.4 25.9,61.9 25.7,61.9 C25.6,61.8 25.4,61.7 25.4,61.6 C25.4,61.4 25.6,61.3 25.9,61.2 C30.6,60.5 35.3,56.5 35.3,50.1 C35.3,44.7 31.2,39 23.7,39 C16.7,39 12.2,44.7 12.2,51.3"/>
<path class="Clef" transform="matrix(1.008,0,0,1.008,226.296,705.6)" d="M56.2,2.1 C56.2,9.2 53.3,16.5 46.2,19.4 C44.1,7.4 41.4,-8.5 40.7,-12.9 C49.7,-12.9 56.2,-6.8 56.2,2.1 M42,20.6 C40,21 38.1,21.2 36.2,21.2 C21.9,21.2 9.7,11.2 9.7,-3.9 C9.7,-16.1 18.3,-27 27.1,-34.6 C28.8,-36.1 30.4,-37.5 31.9,-39 C32.8,-33.6 33.5,-28.9 34.2,-24.8 C25.1,-22.1 18.9,-12.5 18.9,-3.1 C18.9,3.9 24.4,13.5 32.4,13.5 C33.2,13.5 34.1,13.1 34.1,12.2 C34.1,11.3 33.1,10.8 31.9,10 C28,7.6 25.8,5 25.8,0.1 C25.8,-6 30.3,-10.9 36.2,-12.3 L42,20.6 M33.2,-82.2 C34.1,-86.2 38.7,-96.7 43.9,-96.7 C45.4,-96.7 47.8,-91.8 47.8,-84.9 C47.8,-74.5 40.1,-66.7 33.2,-59.9 C32.6,-63.9 32.1,-67.8 32.1,-72 C32.1,-75.7 32.4,-79.1 33.2,-82.2 M12.2,51.3 C12.2,57.9 17.3,66.6 30.8,66.6 C35.5,66.6 39.6,65.4 43.2,63.2 C48.6,59.4 50,52.8 50,46.5 C50,42.6 49.4,38.1 48.4,32.4 C48.1,30.4 47.5,27.4 46.9,23.5 C56.7,20.3 64,10.1 64,-0.2 C64,-15.3 53.3,-25.5 38.7,-25.5 C37.7,-31.5 36.7,-37.4 35.8,-43 C46.4,-54.1 53.7,-66.6 53.7,-82.5 C53.7,-91.6 50.9,-99 49.3,-102.6 C46.9,-107.7 44,-111.2 42.2,-111.2 C41.5,-111.2 38.4,-110 35.1,-106.1 C28.7,-98.5 26.9,-85.7 26.9,-77.3 C26.9,-71.9 27.4,-67 29.1,-55.8 C29,-55.7 23.8,-50.4 21.7,-48.7 C12.6,-40.2 0,-28.1 0,-8.1 C0,10.6 16.3,25.3 34.9,25.3 C37.8,25.3 40.5,25 42.8,24.6 C44.7,34.2 45.8,41.2 45.8,46.5 C45.8,56.9 40.5,62.4 30.4,62.4 C28,62.4 25.9,61.9 25.7,61.9 C25.6,61.8 25.4,61.7 25.4,61.6 C25.4,61.4 25.6,61.3 25.9,61.2 C30.6,60.5 35.3,56.5 35.3,50.1 C35.3,44.7 31.2,39 23.7,39 C16.7,39 12.2,44.7 12.2,51.3"/>
<path class="TimeSig" transform="matrix(1.008,0,0,1.008,314.591,655.2)" d="M20.8,12.7 L20.8,20.1 L12.5,20.1 C11.8,20.1 11.1,20.7 11.1,21.5 L11.1,23.4 C11.1,24.2 11.8,24.8 12.5,24.8 L42.8,24.8 C43.6,24.8 44.2,24.2 44.2,23.4 L44.2,21.5 C44.2,20.7 43.6,20.1 42.8,20.1 L33.8,20.1 L33.8,12.7 L42.8,12.7 C43.6,12.7 44.2,12 44.2,11.2 L44.2,9.3 C44.2,8.6 43.6,7.9 42.8,7.9 L33.8,7.9 L33.8,-8 C33.8,-8.6 33.5,-9.1 33.1,-9.3 L31.9,-9.9 C31.7,-10 31.6,-10 31.4,-10 C31.3,-10 31.3,-10 31.2,-10 C30.9,-10 30.5,-9.9 30.3,-9.7 L21.2,-1.4 C20.9,-1.1 20.8,-0.7 20.8,-0.3 L20.8,7.9 L9.2,7.9 C9.2,7.9 20.4,-4.1 32.2,-19.9 C32.6,-20.4 32.7,-20.9 32.7,-21.3 C32.7,-21.8 32.5,-22.2 32.4,-22.3 L30.2,-24.5 C29.9,-24.7 29.6,-24.9 29.2,-24.9 C28.6,-24.9 15.1,-24.9 14.3,-24.9 C13.6,-24.9 13.1,-24.3 13,-23.7 C13,-23.7 12.5,-16.3 9.9,-8.2 C7.3,-0.1 4.3,4.9 1.7,8.6 C1.7,8.6 1.4,9.1 1.4,9.7 C1.4,9.9 1.4,10.1 1.5,10.3 C1.8,11 2.5,12.1 2.5,12.1 C2.5,12.1 2.7,12.7 3.6,12.7 L20.8,12.7 "/>
<path class="TimeSig" transform="matrix(1.008,0,0,1.008,314.591,705.6)" d="M20.8,12.7 L20.8,20.1 L12.5,20.1 C11.8,20.1 11.1,20.7 11.1,21.5 L11.1,23.4 C11.1,24.2 11.8,24.8 12.5,24.8 L42.8,24.8 C43.6,24.8 44.2,24.2 44.2,23.4 L44.2,21.5 C44.2,20.7 43.6,20.1 42.8,20.1 L33.8,20.1 L33.8,12.7 L42.8,12.7 C43.6,12.7 44.2,12 44.2,11.2 L44.2,9.3 C44.2,8.6 43.6,7.9 42.8,7.9 L33.8,7.9 L33.8,-8 C33.8,-8.6 33.5,-9.1 33.1,-9.3 L31.9,-9.9 C31.7,-10 31.6,-10 31.4,-10 C31.3,-10 31.3,-10 31.2,-10 C30.9,-10 30.5,-9.9 30.3,-9.7 L21.2,-1.4 C20.9,-1.1 20.8,-0.7 20.8,-0.3 L20.8,7.9 L9.2,7.9 C9.2,7.9 20.4,-4.1 32.2,-19.9 C32.6,-20.4 32.7,-20.9 32.7,-21.3 C32.7,-21.8 32.5,-22.2 32.4,-22.3 L30.2,-24.5 C29.9,-24.7 29.6,-24.9 29.2,-24.9 C28.6,-24.9 15.1,-24.9 14.3,-24.9 C13.6,-24.9 13.1,-24.3 13,-23.7 C13,-23.7 12.5,-16.3 9.9,-8.2 C7.3,-0.1 4.3,4.9 1.7,8.6 C1.7,8.6 1.4,9.1 1.4,9.7 C1.4,9.9 1.4,10.1 1.5,10.3 C1.8,11 2.5,12.1 2.5,12.1 C2.5,12.1 2.7,12.7 3.6,12.7 L20.8,12.7 "/>
<path class="Rest" transform="matrix(1.008,0,0,1.008,2143.31,1159.2)" d="M23,16.6 C22.9,16.5 22.7,16.3 22.4,15.9 L10.9,1.7 C10.8,1.6 10.7,1.3 10.7,1.1 C10.7,0.8 10.8,0.4 10.9,0.2 L21.1,-15.2 C21.2,-15.4 21.3,-15.7 21.3,-15.9 L21.3,-16.8 C21.3,-17.1 21.2,-17.4 21,-17.6 L4.8,-39.5 C4.8,-39.5 4.4,-40.1 3.8,-40.1 C3.5,-40.1 3.3,-40 3,-39.8 C2.6,-39.5 2.5,-39.1 2.5,-38.8 C2.5,-38.2 2.8,-37.7 2.8,-37.7 L10.4,-27.3 C10.6,-27 10.7,-26.6 10.7,-26.1 C10.7,-25.7 10.6,-25.2 10.4,-24.9 L0.3,-9.5 C0.2,-9.3 0.1,-8.9 0.1,-8.7 L0.1,-7.8 C0.1,-7.5 0.2,-7.2 0.4,-7 L11.6,6.9 C11.2,6.8 10.3,6.6 9.1,6.6 C7.4,6.6 5.2,7 3.4,8.6 C1.2,10.6 0,13.4 0,15.9 C0,17.3 0.3,18.7 1.1,19.8 C3.2,23 10.7,32.5 10.7,32.5 C10.7,32.5 11.2,33.1 11.9,33.1 C12.1,33.1 12.3,33.1 12.5,32.9 C13,32.5 13.2,32.1 13.2,31.7 C13.2,31.3 13,31 12.9,30.8 C12.6,30.3 9.4,24.5 9.4,24.5 C9.4,24.5 8.7,23.1 8.7,21.3 C8.7,20 9.1,18.4 10.4,17.1 C11.6,15.9 13,15.5 14.3,15.5 C15.6,15.5 16.7,15.9 17.5,16.4 L21.4,18.9 C21.4,18.9 21.8,19.1 22.2,19.1 C22.6,19.1 22.9,19 23.2,18.6 C23.4,18.2 23.5,18 23.5,17.7 C23.5,17.4 23.4,17.2 23.2,16.9 L23,16.6 "/>
<path class="Rest" transform="matrix(1.008,0,0,1.008,409.532,680.4)" d="M23,16.6 C22.9,16.5 22.7,16.3 22.4,15.9 L10.9,1.7 C10.8,1.6 10.7,1.3 10.7,1.1 C10.7,0.8 10.8,0.4 10.9,0.2 L21.1,-15.2 C21.2,-15.4 21.3,-15.7 21.3,-15.9 L21.3,-16.8 C21.3,-17.1 21.2,-17.4 21,-17.6 L4.8,-39.5 C4.8,-39.5 4.4,-40.1 3.8,-40.1 C3.5,-40.1 3.3,-40 3,-39.8 C2.6,-39.5 2.5,-39.1 2.5,-38.8 C2.5,-38.2 2.8,-37.7 2.8,-37.7 L10.4,-27.3 C10.6,-27 10.7,-26.6 10.7,-26.1 C10.7,-25.7 10.6,-25.2 10.4,-24.9 L0.3,-9.5 C0.2,-9.3 0.1,-8.9 0.1,-8.7 L0.1,-7.8 C0.1,-7.5 0.2,-7.2 0.4,-7 L11.6,6.9 C11.2,6.8 10.3,6.6 9.1,6.6 C7.4,6.6 5.2,7 3.4,8.6 C1.2,10.6 0,13.4 0,15.9 C0,17.3 0.3,18.7 1.1,19.8 C3.2,23 10.7,32.5 10.7,32.5 C10.7,32.5 11.2,33.1 11.9,33.1 C12.1,33.1 12.3,33.1 12.5,32.9 C13,32.5 13.2,32.1 13.2,31.7 C13.2,31.3 13,31 12.9,30.8 C12.6,30.3 9.4,24.5 9.4,24.5 C9.4,24.5 8.7,23.1 8.7,21.3 C8.7,20 9.1,18.4 10.4,17.1 C11.6,15.9 13,15.5 14.3,15.5 C15.6,15.5 16.7,15.9 17.5,16.4 L21.4,18.9 C21.4,18.9 21.8,19.1 22.2,19.1 C22.6,19.1 22.9,19 23.2,18.6 C23.4,18.2 23.5,18 23.5,17.7 C23.5,17.4 23.4,17.2 23.2,16.9 L23,16.6 "/>
<path class="Beam" fill-rule="evenodd" d="M539.789,762.3 L629.4,762.3 L629.4,774.9 L539.789,774.9 L539.789,762.3 "/>
<path class="Beam" fill-rule="evenodd" d="M1299.55,1064.64 L1388.98,1052.04 L1388.98,1064.76 L1299.55,1077.36 L1299.55,1064.64 "/>
<path class="Beam" fill-rule="evenodd" d="M753.608,1052.1 L843.035,1052.1 L843.035,1064.7 L753.608,1064.7 L753.608,1052.1 "/>
<path class="Beam" fill-rule="evenodd" d="M2273.29,1241.1 L2362.72,1241.1 L2362.72,1253.7 L2273.29,1253.7 L2273.29,1241.1 "/>
<path class="Beam" fill-rule="evenodd" d="M580.298,1052.1 L669.725,1052.1 L669.725,1064.7 L580.298,1064.7 L580.298,1052.1 "/>
<path class="Beam" fill-rule="evenodd" d="M2626.28,585.838 L2715.89,573.238 L2715.89,585.962 L2626.28,598.562 L2626.28,585.838 "/>
<path class="Beam" fill-rule="evenodd" d="M2079.28,573.3 L2168.89,573.3 L2168.89,585.9 L2079.28,585.9 L2079.28,573.3 "/>
<path class="Beam" fill-rule="evenodd" d="M1767.7,1064.68 L1857.13,1070.98 L1857.13,1083.62 L1767.7,1077.32 L1767.7,1064.68 "/>
<path class="Beam" fill-rule="evenodd" d="M1610.24,585.838 L1699.85,573.238 L1699.85,585.962 L1610.24,598.562 L1610.24,585.838 "/>
<path class="VoltaSegment" d="M1945.15,1042.46 L1943.22,1042.46 C1939.76,1045.05 1935.85,1046.15 1929.31,1046.26 L1929.31,1049.34 L1931.62,1049.34 C1936.51,1049.34 1936.57,1049.45 1936.51,1053.96 L1936.51,1073.48 C1936.51,1076.89 1936.51,1077.06 1936.13,1077.61 C1935.63,1078.21 1934.53,1078.43 1931.56,1078.43 L1929.8,1078.43 L1929.8,1081.4 L1951.75,1081.4 L1951.75,1078.43 L1949.99,1078.43 C1947.07,1078.43 1946.03,1078.21 1945.53,1077.61 C1945.15,1077.06 1945.15,1076.84 1945.15,1073.48 L1945.15,1042.46 M1963.95,1071.89 C1961.09,1071.89 1958.78,1074.2 1958.78,1077.06 C1958.78,1079.86 1961.09,1082.23 1963.9,1082.23 C1966.81,1082.23 1969.12,1079.92 1969.12,1077.06 C1969.12,1074.2 1966.81,1071.89 1963.95,1071.89"/>
<polyline class="VoltaSegment" fill="none" stroke="#000000" stroke-width="2.77" stroke-linejoin="miter" stroke-miterlimit="2" points="1914.19,1081.4 1914.19,1025.96 2476.1,1025.96 2476.1,1081.4" />
<path class="VoltaSegment" d="M2549.69,1066.77 L2549.08,1069.52 C2548.59,1071.72 2548.26,1072.44 2547.82,1072.71 C2547.27,1073.1 2547.16,1073.1 2543.69,1073.15 L2533.08,1073.15 C2535,1071.5 2536.43,1070.46 2538.58,1069.03 C2546.33,1064.02 2547.93,1062.81 2549.52,1060.78 C2551.39,1058.3 2552.49,1055.39 2552.49,1052.8 C2552.49,1046.92 2546.72,1042.46 2538.96,1042.46 C2531.48,1042.46 2525.71,1047.3 2525.71,1053.57 C2525.71,1057.42 2527.85,1059.9 2531.15,1059.9 C2534.01,1059.9 2535.83,1058.08 2535.83,1055.22 C2535.83,1052.86 2534.78,1051.48 2532.25,1050.27 C2531.65,1050 2531.37,1049.67 2531.37,1049.23 C2531.37,1047.47 2534.34,1045.6 2537.09,1045.6 C2540.94,1045.6 2543.14,1047.96 2543.14,1052.03 C2543.14,1056.6 2541.38,1059.84 2535.55,1066.06 C2529.39,1072.6 2527.25,1075.08 2524.5,1079.04 L2524.5,1081.62 C2525.93,1081.46 2526.53,1081.4 2527.36,1081.4 L2548.04,1081.4 C2549.08,1081.4 2549.74,1081.46 2551.39,1081.62 L2552.66,1066.77 L2549.69,1066.77 M2562.66,1071.89 C2559.8,1071.89 2557.49,1074.2 2557.49,1077.06 C2557.49,1079.86 2559.8,1082.23 2562.61,1082.23 C2565.52,1082.23 2567.83,1079.92 2567.83,1077.06 C2567.83,1074.2 2565.52,1071.89 2562.66,1071.89"/>
<polyline class="VoltaSegment" fill="none" stroke="#000000" stroke-width="2.77" stroke-linejoin="miter" stroke-miterlimit="2" points="2509.36,1081.4 2509.36,1025.96 2773.13,1025.96 2773.13,1081.4" />
<path class="NoteDot" transform="matrix(1.008,0,0,1.008,1846.97,642.6)" d="M0,0 C0,2.8 2.2,5 5,5 C7.8,5 10,2.8 10,0 C10,-2.8 7.8,-5 5,-5 C2.2,-5 0,-2.8 0,0"/>
<path class="NoteDot" transform="matrix(1.008,0,0,1.008,870.226,718.2)" d="M0,0 C0,2.8 2.2,5 5,5 C7.8,5 10,2.8 10,0 C10,-2.8 7.8,-5 5,-5 C2.2,-5 0,-2.8 0,0"/>
<path class="NoteDot" transform="matrix(1.008,0,0,1.008,870.226,617.4)" d="M0,0 C0,2.8 2.2,5 5,5 C7.8,5 10,2.8 10,0 C10,-2.8 7.8,-5 5,-5 C2.2,-5 0,-2.8 0,0"/>
<path class="NoteDot" transform="matrix(1.008,0,0,1.008,1846.97,718.2)" d="M0,0 C0,2.8 2.2,5 5,5 C7.8,5 10,2.8 10,0 C10,-2.8 7.8,-5 5,-5 C2.2,-5 0,-2.8 0,0"/>
<path class="NoteDot" transform="matrix(1.008,0,0,1.008,1535.91,1197)" d="M0,0 C0,2.8 2.2,5 5,5 C7.8,5 10,2.8 10,0 C10,-2.8 7.8,-5 5,-5 C2.2,-5 0,-2.8 0,0"/>
<path class="NoteDot" transform="matrix(1.008,0,0,1.008,1535.91,1121.4)" d="M0,0 C0,2.8 2.2,5 5,5 C7.8,5 10,2.8 10,0 C10,-2.8 7.8,-5 5,-5 C2.2,-5 0,-2.8 0,0"/>
<path class="Bracket" transform="matrix(1.008,0,0,1.008,182.464,1209.6)" d="M3.1,-50 C5.7,-51.9 9,-55.8 9,-63 C9,-72 4.1,-81.3 4.1,-86.9 C4.1,-94.4 8.4,-98.6 8.6,-98.8 C8.7,-98.9 8.8,-99.1 8.8,-99.2 C8.8,-99.3 8.7,-99.4 8.7,-99.4 C8.6,-99.5 8.6,-99.5 8.5,-99.5 C8.4,-99.5 8.2,-99.4 8,-99.3 C7.9,-99.1 0.1,-93.7 0.1,-85.6 C0.1,-76.7 4.6,-70.6 4.6,-59 C4.6,-56.9 3.8,-53.3 0.2,-50.3 C0.1,-50.2 0,-50.1 0,-50 C0,-49.9 0.1,-49.8 0.2,-49.7 C3.8,-46.7 4.6,-43.1 4.6,-41 C4.6,-29.4 0.1,-23.3 0.1,-14.4 C0.1,-6.3 7.9,-0.8 8,-0.7 C8.2,-0.6 8.4,-0.5 8.5,-0.5 C8.6,-0.5 8.6,-0.5 8.7,-0.6 C8.8,-0.6 8.8,-0.7 8.8,-0.8 C8.7,-0.9 8.7,-1.1 8.6,-1.2 C8.4,-1.4 4.1,-5.6 4.1,-13.1 C4.1,-18.7 9,-28 9,-37 C9,-44.2 5.7,-48.1 3.1,-50"/>
<path class="Bracket" transform="matrix(1.008,0,0,1.008,182.464,730.8)" d="M3.1,-50 C5.7,-51.9 9,-55.8 9,-63 C9,-72 4.1,-81.3 4.1,-86.9 C4.1,-94.4 8.4,-98.6 8.6,-98.8 C8.7,-98.9 8.8,-99.1 8.8,-99.2 C8.8,-99.3 8.7,-99.4 8.7,-99.4 C8.6,-99.5 8.6,-99.5 8.5,-99.5 C8.4,-99.5 8.2,-99.4 8,-99.3 C7.9,-99.1 0.1,-93.7 0.1,-85.6 C0.1,-76.7 4.6,-70.6 4.6,-59 C4.6,-56.9 3.8,-53.3 0.2,-50.3 C0.1,-50.2 0,-50.1 0,-50 C0,-49.9 0.1,-49.8 0.2,-49.7 C3.8,-46.7 4.6,-43.1 4.6,-41 C4.6,-29.4 0.1,-23.3 0.1,-14.4 C0.1,-6.3 7.9,-0.8 8,-0.7 C8.2,-0.6 8.4,-0.5 8.5,-0.5 C8.6,-0.5 8.6,-0.5 8.7,-0.6 C8.8,-0.6 8.8,-0.7 8.8,-0.8 C8.7,-0.9 8.7,-1.1 8.6,-1.2 C8.4,-1.4 4.1,-5.6 4.1,-13.1 C4.1,-18.7 9,-28 9,-37 C9,-44.2 5.7,-48.1 3.1,-50"/>
</svg>
