<?xml version="1.0" encoding="UTF-8" standalone="no"?>
<svg width="210.058mm" height="296.926mm" viewBox="0 0 2977.2 4208.4"
 xmlns="http://www.w3.org/2000/svg" xmlns:xlink="http://www.w3.org/1999/xlink" version="1.2" baseProfile="full">
<title>モナリザの微笑.xml</title>
<desc>Generated by MuseScore Studio 4.5.2</desc>
<path class="" fill="#ffffff" fill-rule="evenodd" d="M0,0 L2977.2,0 L2977.2,4208.4 L0,4208.4 L0,0 "/>
<polyline class="StaffLines" fill="none" stroke="#000000" stroke-width="2.73" stroke-linejoin="bevel" points="212.598,634.198 2764.6,634.198" />
<polyline class="StaffLines" fill="none" stroke="#000000" stroke-width="2.73" stroke-linejoin="bevel" points="212.598,658.998 2764.6,658.998" />
<polyline class="StaffLines" fill="none" stroke="#000000" stroke-width="2.73" stroke-linejoin="bevel" points="212.598,683.798 2764.6,683.798" />
<polyline class="StaffLines" fill="none" stroke="#000000" stroke-width="2.73" stroke-linejoin="bevel" points="212.598,708.598 2764.6,708.598" />
<polyline class="StaffLines" fill="none" stroke="#000000" stroke-width="2.73" stroke-linejoin="bevel" points="212.598,733.398 2764.6,733.398" />
<polyline class="StaffLines" fill="none" stroke="#000000" stroke-width="2.73" stroke-linejoin="bevel" points="212.598,1241.8 2764.6,1241.8" />
<polyline class="StaffLines" fill="none" stroke="#000000" stroke-width="2.73" stroke-linejoin="bevel" points="212.598,1266.6 2764.6,1266.6" />
<polyline class="StaffLines" fill="none" stroke="#000000" stroke-width="2.73" stroke-linejoin="bevel" points="212.598,1291.4 2764.6,1291.4" />
<polyline class="StaffLines" fill="none" stroke="#000000" stroke-width="2.73" stroke-linejoin="bevel" points="212.598,1316.2 2764.6,1316.2" />
<polyline class="StaffLines" fill="none" stroke="#000000" stroke-width="2.73" stroke-linejoin="bevel" points="212.598,1341 2764.6,1341" />
<polyline class="StaffLines" fill="none" stroke="#000000" stroke-width="2.73" stroke-linejoin="bevel" points="212.598,1849.4 2764.6,1849.4" />
<polyline class="StaffLines" fill="none" stroke="#000000" stroke-width="2.73" stroke-linejoin="bevel" points="212.598,1874.2 2764.6,1874.2" />
<polyline class="StaffLines" fill="none" stroke="#000000" stroke-width="2.73" stroke-linejoin="bevel" points="212.598,1899 2764.6,1899" />
<polyline class="StaffLines" fill="none" stroke="#000000" stroke-width="2.73" stroke-linejoin="bevel" points="212.598,1923.8 2764.6,1923.8" />
<polyline class="StaffLines" fill="none" stroke="#000000" stroke-width="2.73" stroke-linejoin="bevel" points="212.598,1948.6 2764.6,1948.6" />
<path class="Text" d="M1142.28,266.608 L1142.28,290.808 C1142.28,304.558 1147.12,307.968 1166.59,307.968 C1171.65,307.968 1179.57,307.638 1183.64,307.308 C1190.57,306.648 1190.79,306.648 1191.89,306.648 C1192.22,306.648 1192.66,306.648 1193.21,306.758 L1193.21,298.178 C1189.58,299.168 1187.93,299.498 1183.64,299.828 C1177.48,300.378 1171.43,300.708 1167.25,300.708 C1159.88,300.708 1155.04,299.938 1152.95,298.508 C1150.64,297.078 1150.2,295.208 1150.2,288.278 L1150.2,266.608 L1183.75,266.608 C1189.58,266.608 1192.66,266.718 1196.4,267.158 L1196.4,258.908 C1192.55,259.458 1190.13,259.568 1183.64,259.568 L1150.2,259.568 L1150.2,236.468 L1176.82,236.468 C1183.31,236.468 1186.17,236.578 1189.47,237.018 L1189.47,228.658 C1185.84,229.318 1183.64,229.428 1176.71,229.428 L1126.11,229.428 C1119.29,229.428 1117.09,229.318 1113.46,228.658 L1113.46,237.018 C1116.76,236.578 1119.62,236.468 1126,236.468 L1142.28,236.468 L1142.28,259.568 L1119.84,259.568 C1113.24,259.568 1110.93,259.458 1107.08,258.908 L1107.08,267.158 C1110.82,266.718 1113.9,266.608 1119.73,266.608 L1142.28,266.608 M1269.22,249.448 C1269.22,248.018 1269.22,248.018 1269.22,239.768 L1269.33,231.848 C1269.44,225.688 1269.44,225.468 1269.88,222.498 L1260.64,222.498 C1261.08,225.138 1261.19,227.448 1261.19,231.848 L1261.19,239.768 C1261.19,243.178 1261.19,245.378 1261.08,249.448 L1230.39,249.448 C1224.01,249.448 1221.48,249.338 1217.52,248.678 L1217.52,257.258 C1221.26,256.818 1224.45,256.708 1230.28,256.708 L1260.75,256.708 C1259.87,269.798 1258.66,275.408 1255.14,282.008 C1249.86,291.908 1240.73,299.498 1227.86,304.668 C1230.5,307.088 1231.49,308.298 1233.47,311.708 C1246.45,305.218 1254.92,298.068 1260.75,288.718 C1266.03,280.358 1268.01,272.108 1268.89,256.708 L1293.75,256.708 C1299.58,256.708 1302.77,256.818 1306.51,257.258 L1306.51,248.678 C1302.66,249.338 1300.02,249.448 1293.64,249.448 L1269.22,249.448 M1342.81,224.038 C1343.14,226.678 1343.25,228.548 1343.25,233.278 L1343.25,262.648 C1343.25,267.048 1343.14,269.358 1342.81,271.888 L1351.94,271.888 C1351.61,269.248 1351.5,268.038 1351.5,262.758 L1351.5,233.168 C1351.5,228.108 1351.61,226.678 1351.94,224.038 L1342.81,224.038 M1391.43,224.038 C1391.76,226.458 1391.87,227.998 1391.87,233.718 L1391.87,246.148 C1391.87,262.868 1391.54,267.928 1390.33,274.198 C1388.24,284.428 1382.96,291.468 1372.73,297.408 C1367.01,300.818 1361.73,302.688 1351.83,304.888 C1354.58,308.188 1355.24,309.288 1356.45,312.478 C1365.8,309.728 1371.08,307.638 1376.47,304.558 C1387.25,298.508 1394.18,290.478 1397.37,280.138 C1399.35,273.758 1400.12,264.078 1400.12,246.588 L1400.12,233.608 C1400.12,228.328 1400.23,226.568 1400.67,224.038 L1391.43,224.038 M1464.14,245.158 L1464.14,232.068 C1464.14,227.228 1464.25,225.798 1464.58,223.158 L1455.67,223.158 C1456,225.578 1456.11,226.568 1456.11,232.398 L1456.11,245.158 L1446.98,245.158 C1440.05,245.158 1437.85,245.048 1434.11,244.498 L1434.11,252.858 C1437.63,252.418 1439.83,252.308 1446.87,252.308 L1456.11,252.308 L1456.11,270.348 C1456.11,276.178 1456,277.278 1455.67,279.588 L1464.58,279.588 C1464.25,277.058 1464.14,275.518 1464.14,270.678 L1464.14,252.308 L1497.58,252.308 C1497.36,269.908 1496.7,276.508 1494.28,283.108 C1489.88,294.218 1478.77,302.798 1464.36,306.428 C1466.89,308.848 1467.99,310.498 1469.31,313.358 C1484.16,308.298 1494.06,300.598 1500,289.598 C1504.07,281.678 1505.28,273.538 1505.39,252.308 L1515.07,252.308 C1522.11,252.308 1524.31,252.418 1527.83,252.858 L1527.83,244.498 C1524.09,245.048 1521.89,245.158 1514.96,245.158 L1505.5,245.158 L1505.5,239.328 C1505.5,237.018 1505.5,234.928 1505.5,233.608 C1505.61,226.348 1505.61,226.238 1505.94,223.158 L1497.36,223.158 C1497.69,225.688 1497.69,226.678 1497.69,234.378 L1497.69,245.158 L1464.14,245.158 M1510.12,217.878 C1513.09,222.828 1515.29,228.108 1517.93,236.248 L1523.76,234.268 C1521.23,226.458 1519.47,222.608 1515.95,216.228 L1510.12,217.878 M1522.99,214.468 C1525.63,218.758 1528.6,225.798 1530.69,232.508 L1536.41,230.528 C1534.65,224.588 1531.9,218.318 1528.6,212.598 L1522.99,214.468 "/>
<path class="Text" d="M1597.9,236.028 C1603.4,236.248 1606.59,237.018 1610.66,238.778 C1621.77,243.728 1628.15,253.848 1628.15,266.388 C1628.15,279.918 1620.78,291.688 1608.68,297.188 C1603.51,299.608 1598.34,301.038 1590.31,302.358 C1592.4,304.998 1593.06,306.098 1594.16,309.728 C1601.75,308.078 1605.93,306.758 1610.88,304.668 C1626.83,297.848 1636.07,283.768 1636.07,266.718 C1636.07,256.158 1632.33,246.588 1625.4,239.878 C1618.25,232.838 1607.47,228.988 1595.15,228.988 C1580.41,228.988 1568.42,233.938 1559.62,243.618 C1552.25,251.868 1548.07,262.758 1548.07,273.978 C1548.07,289.378 1555.88,300.818 1566.33,300.818 C1574.25,300.818 1580.74,294.218 1587.12,279.698 C1592.07,268.148 1596.25,251.318 1597.9,236.028 M1589.98,236.138 C1588.55,250.218 1584.48,266.498 1579.97,276.838 C1575.24,287.618 1570.84,292.788 1566.22,292.788 C1560.28,292.788 1555.66,284.648 1555.66,274.088 C1555.66,260.448 1562.48,248.018 1573.59,241.308 C1578.65,238.228 1583.38,236.688 1589.98,236.138"/>
<path class="Text" d="M1684.47,270.898 C1684.36,289.378 1680.62,299.498 1670.72,308.628 C1673.36,310.828 1674.02,311.488 1675.56,313.468 C1685.9,303.678 1690.19,291.578 1690.85,270.898 L1699.21,270.898 L1699.21,297.298 C1696.24,299.058 1695.25,299.608 1693.6,300.048 L1696.13,306.758 C1697.78,305.438 1698.11,305.218 1702.4,302.358 C1710.76,296.638 1715.27,293.228 1719.78,289.158 L1718.46,283.438 C1713.29,287.948 1710.54,290.148 1705.37,293.448 L1705.37,270.898 L1708.12,270.898 C1711.97,270.898 1714.72,271.008 1717.03,271.338 L1717.03,264.518 C1714.83,264.848 1712.52,264.958 1708.23,264.958 L1683.59,264.958 C1679.3,264.958 1677.1,264.848 1674.68,264.408 L1674.68,271.448 C1677.21,271.008 1679.52,270.898 1683.59,270.898 L1684.47,270.898 M1753.22,235.368 C1750.69,235.808 1748.16,236.028 1743.65,236.028 L1730.34,236.028 C1731.66,231.848 1732.54,228.548 1733.31,225.028 C1734.19,220.738 1734.19,220.738 1734.85,218.758 L1727.59,217.328 C1727.48,220.628 1726.71,226.128 1725.28,231.738 C1722.64,242.738 1718.24,252.968 1713.18,260.118 C1715.38,261.548 1716.7,262.648 1717.8,264.188 C1719.23,261.988 1719.67,261.218 1720.88,259.018 C1722.31,269.908 1724.4,277.168 1728.69,286.628 C1723.3,296.088 1716.59,303.238 1706.14,310.498 C1708.34,312.258 1709.44,313.468 1710.87,315.888 C1720.44,308.518 1726.6,302.028 1732.1,293.118 C1737.05,301.478 1742.11,307.638 1750.03,315.228 C1751.79,312.368 1752.56,311.488 1754.98,309.068 C1746.18,301.698 1740.68,295.428 1735.62,286.628 C1742.11,273.648 1744.75,262.208 1746.29,242.078 C1749.7,242.188 1751.02,242.298 1753.22,242.628 L1753.22,235.368 M1739.58,242.078 C1738.81,257.698 1736.61,268.808 1732.1,279.588 C1728.25,270.238 1726.27,261.768 1725.17,250.108 C1726.6,246.698 1727.04,245.378 1728.36,242.078 L1739.58,242.078 M1694.37,248.458 L1685.79,248.458 L1685.79,233.828 C1685.79,229.648 1685.9,228.108 1686.12,226.458 L1679.41,226.458 C1679.74,228.218 1679.85,230.748 1679.85,233.938 L1679.85,248.568 C1679.85,250.988 1679.74,252.748 1679.52,254.398 C1681.5,254.288 1684.36,254.178 1686.34,254.178 L1708.34,254.178 C1710.98,254.178 1712.08,254.178 1715.16,254.398 C1714.94,252.638 1714.83,250.988 1714.83,248.238 L1714.83,233.938 C1714.83,230.418 1714.94,228.108 1715.27,226.458 L1708.56,226.458 C1708.78,228.108 1708.89,229.978 1708.89,233.828 L1708.89,248.458 L1700.42,248.458 L1700.42,226.678 C1700.42,223.378 1700.53,220.958 1700.86,219.088 L1693.93,219.088 C1694.26,221.178 1694.37,223.378 1694.37,226.678 L1694.37,248.458 M1671.6,217.328 C1668.52,224.808 1660.71,233.718 1650.59,241.198 C1652.46,242.958 1653.56,244.498 1654.77,246.808 C1661.7,241.198 1668.41,234.268 1672.59,228.328 C1676.22,223.378 1676.22,223.378 1677.98,221.288 L1671.6,217.328 M1661.81,304.558 C1661.81,310.718 1661.7,313.798 1661.15,317.538 L1668.96,317.538 C1668.41,314.238 1668.3,310.938 1668.3,304.668 L1668.3,260.558 C1670.72,257.368 1673.69,252.748 1675.01,250.438 C1676.22,248.018 1676.22,248.018 1677.54,246.148 L1671.27,242.628 C1668.19,252.088 1658.84,263.968 1648.72,271.448 C1650.48,273.428 1651.25,274.638 1652.57,277.058 C1656.97,273.208 1658.95,271.118 1662.14,267.048 C1661.92,273.538 1661.81,275.628 1661.81,279.588 L1661.81,304.558 M1787.32,235.368 C1789.74,240.648 1791.28,244.938 1792.71,250.658 L1799.53,248.458 C1797.33,242.628 1796.01,239.658 1794.03,235.368 L1801.51,235.368 C1804.92,235.368 1807.34,235.478 1810.42,235.698 L1810.42,228.768 C1807.78,229.208 1805.58,229.318 1801.18,229.318 L1782.7,229.318 C1784.68,225.688 1785.45,224.038 1787.65,219.308 L1780.17,217.218 C1778.63,222.938 1777.09,226.458 1773.9,231.628 C1770.71,236.798 1767.63,240.428 1762.35,245.378 C1765.87,247.358 1765.87,247.358 1767.96,249.668 C1772.58,245.048 1774.78,242.408 1779.18,235.368 L1787.32,235.368 M1847.71,280.688 C1852.44,280.688 1856.07,280.908 1859.15,281.348 L1859.15,273.648 C1856.07,274.088 1852.55,274.308 1847.71,274.308 L1813.72,274.308 C1814.71,269.138 1814.93,266.938 1815.04,259.898 C1823.4,259.018 1831.21,257.808 1836.38,256.708 C1846.06,254.618 1846.06,254.618 1848.15,254.178 L1842.87,248.018 C1837.26,250.218 1831.98,251.428 1821.64,252.968 C1808.44,254.838 1794.25,255.938 1781.82,255.938 C1780.5,255.938 1778.3,255.938 1775.55,255.828 C1776.98,258.358 1777.64,260.008 1778.19,262.208 C1789.52,262.098 1797.22,261.658 1808.11,260.668 C1807.89,267.708 1807.78,269.578 1806.9,274.308 L1775.66,274.308 C1770.82,274.308 1767.3,274.088 1764.33,273.648 L1764.33,281.348 C1767.52,280.908 1771.04,280.688 1775.66,280.688 L1805.14,280.688 C1801.18,291.468 1794.36,298.618 1782.81,303.678 C1777.86,305.988 1773.46,307.308 1764.44,309.288 C1766.53,312.038 1767.3,313.138 1768.51,316.108 C1780.94,312.808 1789.41,309.068 1796.01,304.008 C1803.05,298.728 1808,292.018 1811.3,283.328 C1815.37,291.468 1819.99,297.188 1826.7,302.688 C1834.84,309.288 1843.31,313.138 1857.28,316.658 C1858.49,313.798 1860.03,311.488 1861.79,309.508 C1849.03,307.308 1841.55,304.668 1834.07,299.718 C1826.48,294.878 1821.86,289.818 1816.8,280.688 L1847.71,280.688 M1830.33,235.368 C1832.64,239.438 1833.96,242.298 1835.5,247.028 L1842.1,245.158 C1839.46,239.438 1839.13,238.668 1837.15,235.368 L1851.78,235.368 C1856.18,235.368 1858.49,235.478 1861.24,235.918 L1861.24,228.768 C1858.6,229.208 1856.51,229.318 1851.67,229.318 L1823.84,229.318 C1825.93,224.478 1826.37,223.268 1827.8,219.198 L1820.54,217.438 C1819.55,222.388 1818.45,225.688 1815.81,231.188 C1813.17,236.578 1810.97,239.988 1807.01,244.608 C1809.87,245.818 1810.86,246.368 1812.95,248.238 C1816.91,242.958 1818.67,240.208 1821.09,235.368 L1830.33,235.368 "/>
<path class="MeasureNumber" d="M228.958,1771.48 L227.798,1771.48 C225.598,1773.12 221.358,1774.52 218.478,1774.52 L217.998,1776.28 L220.758,1776.28 C223.198,1776.28 223.478,1776.36 223.478,1777.08 C223.478,1777.44 223.478,1777.44 223.078,1778.88 L218.798,1794.88 C218.278,1796.88 218.238,1797 217.878,1797.36 C217.478,1797.76 216.638,1797.88 214.518,1797.92 L212.798,1797.92 L212.598,1799.8 L227.398,1799.8 L227.638,1797.92 L225.478,1797.92 C222.878,1797.92 222.318,1797.72 222.318,1796.84 C222.318,1796.56 222.478,1795.64 222.678,1794.88 L228.958,1771.48 M251.193,1771.48 L250.033,1771.48 C247.833,1773.12 243.593,1774.52 240.713,1774.52 L240.233,1776.28 L242.993,1776.28 C245.433,1776.28 245.713,1776.36 245.713,1777.08 C245.713,1777.44 245.713,1777.44 245.313,1778.88 L241.033,1794.88 C240.513,1796.88 240.473,1797 240.113,1797.36 C239.713,1797.76 238.873,1797.88 236.753,1797.92 L235.033,1797.92 L234.833,1799.8 L249.633,1799.8 L249.873,1797.92 L247.713,1797.92 C245.113,1797.92 244.553,1797.72 244.553,1796.84 C244.553,1796.56 244.713,1795.64 244.913,1794.88 L251.193,1771.48 "/>
<path class="MeasureNumber" d="M217.481,1178.8 C218.161,1175.28 218.961,1173.08 220.481,1170.4 C222.281,1167.24 224.441,1165.64 226.841,1165.64 C228.081,1165.64 228.841,1166.12 228.841,1166.88 C228.841,1167.16 228.761,1167.32 228.481,1167.84 C228.121,1168.52 227.961,1169 227.961,1169.6 C227.961,1170.88 228.921,1171.76 230.281,1171.76 C231.921,1171.76 233.041,1170.56 233.041,1168.76 C233.041,1166.04 230.481,1164.04 226.921,1164.04 C218.001,1164.04 212.601,1175.68 212.601,1183.36 C212.601,1189.24 215.521,1192.8 220.401,1192.8 C226.401,1192.8 230.841,1187.84 230.841,1181.96 C230.841,1177.88 228.081,1175.04 224.081,1175.04 C221.281,1175.04 219.121,1176.24 217.481,1178.8 M222.801,1177.36 C225.281,1177.36 226.641,1179.08 226.641,1182.2 C226.641,1187.28 223.961,1191.16 220.401,1191.16 C217.841,1191.16 216.321,1189.28 216.321,1186.08 C216.321,1181.08 219.081,1177.36 222.801,1177.36"/>
<path class="SlurSegment" stroke="#000000" stroke-width="1.24" stroke-linecap="round" stroke-linejoin="round" fill-rule="evenodd" d="M2380.15,1839.48 C2421.07,1805.08 2501.07,1807.19 2540.13,1843.69 C2500.86,1815.12 2420.87,1813.01 2380.15,1839.48"/>
<path class="TieSegment" stroke="#000000" stroke-width="1.24" stroke-linecap="round" stroke-linejoin="round" fill-rule="evenodd" d="M1085.88,1880.8 C1095.78,1860.55 1125.48,1860.55 1135.38,1880.8 C1125.48,1866.5 1095.78,1866.5 1085.88,1880.8"/>
<path class="TieSegment" stroke="#000000" stroke-width="1.24" stroke-linecap="round" stroke-linejoin="round" fill-rule="evenodd" d="M1549.29,1868.4 C1562.51,1848.82 1602.2,1848.82 1615.43,1868.4 C1602.2,1855.44 1562.51,1855.44 1549.29,1868.4"/>
<path class="TieSegment" stroke="#000000" stroke-width="1.24" stroke-linecap="round" stroke-linejoin="round" fill-rule="evenodd" d="M2029.14,1856.1 C2042.37,1834.52 2082.06,1834.52 2095.28,1856.1 C2082.06,1841.14 2042.37,1841.14 2029.14,1856.1"/>
<polyline class="BarLine" fill="none" stroke="#000000" stroke-width="4.46" stroke-linejoin="bevel" points="2762.37,632.834 2762.37,734.762" />
<polyline class="BarLine" fill="none" stroke="#000000" stroke-width="4.46" stroke-linejoin="bevel" points="837.71,1848.03 837.71,1949.96" />
<polyline class="BarLine" fill="none" stroke="#000000" stroke-width="4.46" stroke-linejoin="bevel" points="1282.01,1848.03 1282.01,1949.96" />
<polyline class="BarLine" fill="none" stroke="#000000" stroke-width="4.46" stroke-linejoin="bevel" points="2762.37,1240.43 2762.37,1342.36" />
<polyline class="BarLine" fill="none" stroke="#000000" stroke-width="4.46" stroke-linejoin="bevel" points="734.027,632.834 734.027,734.762" />
<polyline class="BarLine" fill="none" stroke="#000000" stroke-width="4.46" stroke-linejoin="bevel" points="909.174,1240.43 909.174,1342.36" />
<polyline class="BarLine" fill="none" stroke="#000000" stroke-width="4.46" stroke-linejoin="bevel" points="1762.07,1848.03 1762.07,1949.96" />
<polyline class="BarLine" fill="none" stroke="#000000" stroke-width="4.46" stroke-linejoin="bevel" points="2296.09,1240.43 2296.09,1342.36" />
<polyline class="BarLine" fill="none" stroke="#000000" stroke-width="4.46" stroke-linejoin="bevel" points="1827.54,632.834 1827.54,734.762" />
<polyline class="BarLine" fill="none" stroke="#000000" stroke-width="4.46" stroke-linejoin="bevel" points="1866.86,1240.43 1866.86,1342.36" />
<polyline class="BarLine" fill="none" stroke="#000000" stroke-width="4.46" stroke-linejoin="bevel" points="2330.8,1848.03 2330.8,1949.96" />
<polyline class="BarLine" fill="none" stroke="#000000" stroke-width="4.46" stroke-linejoin="bevel" points="2321.4,632.834 2321.4,734.762" />
<polyline class="BarLine" fill="none" stroke="#000000" stroke-width="4.46" stroke-linejoin="bevel" points="2739.55,1848.03 2739.55,1949.96" />
<polyline class="BarLine" fill="none" stroke="#000000" stroke-width="13.64" stroke-linejoin="bevel" points="2757.78,1848.03 2757.78,1949.96" />
<polyline class="BarLine" fill="none" stroke="#000000" stroke-width="4.46" stroke-linejoin="bevel" points="1298.41,632.834 1298.41,734.762" />
<polyline class="BarLine" fill="none" stroke="#000000" stroke-width="4.46" stroke-linejoin="bevel" points="1424,1240.43 1424,1342.36" />
<polyline class="BarLine" fill="none" stroke="#000000" stroke-width="4.46" stroke-linejoin="bevel" points="1437.64,1240.43 1437.64,1342.36" />
<path class="Accidental" transform="matrix(0.992,0,0,0.992,947.201,1911.4)" d="M23.3,-10.5 C23.9,-10.6 24.4,-11.3 24.4,-11.9 L24.4,-17.8 C24.4,-18.6 23.8,-19.2 23,-19.2 C22.9,-19.2 22.9,-19.2 22.8,-19.2 L19.5,-18.5 L19.5,-33.4 L16.7,-33.4 L16.7,-17.9 L7.8,-16.1 L7.8,-30.2 L5,-30.2 L5,-15.5 L1.1,-14.7 C0.5,-14.6 0,-13.9 0,-13.3 L0,-13.1 L0,-7.3 L0,-7.5 C0,-6.7 0.6,-6.1 1.4,-6.1 C1.5,-6.1 1.6,-6.1 1.7,-6.1 L5,-6.8 L5,9.7 L1.1,10.5 C0.5,10.6 0,11.3 0,11.9 L0,17.7 C0,18.5 0.6,19.1 1.4,19.1 C1.5,19.1 1.6,19.1 1.7,19.1 L5,18.4 L5,33.3 L7.8,33.3 L7.8,17.8 L16.7,16 L16.7,30.1 L19.5,30.1 L19.5,15.4 L23.3,14.7 C23.9,14.6 24.4,13.9 24.4,13.3 L24.4,7.4 C24.4,6.6 23.8,6 23,6 C22.9,6 22.9,6 22.8,6 L19.5,6.7 L19.5,-9.8 L23.3,-10.5 M7.8,-7.4 L16.7,-9.2 L16.7,7.3 L7.8,9.2 L7.8,-7.4 "/>
<path class="Accidental" transform="matrix(0.992,0,0,0.992,2438.7,1316.2)" d="M23.3,-10.5 C23.9,-10.6 24.4,-11.3 24.4,-11.9 L24.4,-17.8 C24.4,-18.6 23.8,-19.2 23,-19.2 C22.9,-19.2 22.9,-19.2 22.8,-19.2 L19.5,-18.5 L19.5,-33.4 L16.7,-33.4 L16.7,-17.9 L7.8,-16.1 L7.8,-30.2 L5,-30.2 L5,-15.5 L1.1,-14.7 C0.5,-14.6 0,-13.9 0,-13.3 L0,-13.1 L0,-7.3 L0,-7.5 C0,-6.7 0.6,-6.1 1.4,-6.1 C1.5,-6.1 1.6,-6.1 1.7,-6.1 L5,-6.8 L5,9.7 L1.1,10.5 C0.5,10.6 0,11.3 0,11.9 L0,17.7 C0,18.5 0.6,19.1 1.4,19.1 C1.5,19.1 1.6,19.1 1.7,19.1 L5,18.4 L5,33.3 L7.8,33.3 L7.8,17.8 L16.7,16 L16.7,30.1 L19.5,30.1 L19.5,15.4 L23.3,14.7 C23.9,14.6 24.4,13.9 24.4,13.3 L24.4,7.4 C24.4,6.6 23.8,6 23,6 C22.9,6 22.9,6 22.8,6 L19.5,6.7 L19.5,-9.8 L23.3,-10.5 M7.8,-7.4 L16.7,-9.2 L16.7,7.3 L7.8,9.2 L7.8,-7.4 "/>
<path class="Accidental" transform="matrix(0.992,0,0,0.992,1543.19,1316.2)" d="M23.3,-10.5 C23.9,-10.6 24.4,-11.3 24.4,-11.9 L24.4,-17.8 C24.4,-18.6 23.8,-19.2 23,-19.2 C22.9,-19.2 22.9,-19.2 22.8,-19.2 L19.5,-18.5 L19.5,-33.4 L16.7,-33.4 L16.7,-17.9 L7.8,-16.1 L7.8,-30.2 L5,-30.2 L5,-15.5 L1.1,-14.7 C0.5,-14.6 0,-13.9 0,-13.3 L0,-13.1 L0,-7.3 L0,-7.5 C0,-6.7 0.6,-6.1 1.4,-6.1 C1.5,-6.1 1.6,-6.1 1.7,-6.1 L5,-6.8 L5,9.7 L1.1,10.5 C0.5,10.6 0,11.3 0,11.9 L0,17.7 C0,18.5 0.6,19.1 1.4,19.1 C1.5,19.1 1.6,19.1 1.7,19.1 L5,18.4 L5,33.3 L7.8,33.3 L7.8,17.8 L16.7,16 L16.7,30.1 L19.5,30.1 L19.5,15.4 L23.3,14.7 C23.9,14.6 24.4,13.9 24.4,13.3 L24.4,7.4 C24.4,6.6 23.8,6 23,6 C22.9,6 22.9,6 22.8,6 L19.5,6.7 L19.5,-9.8 L23.3,-10.5 M7.8,-7.4 L16.7,-9.2 L16.7,7.3 L7.8,9.2 L7.8,-7.4 "/>
<path class="Accidental" transform="matrix(0.992,0,0,0.992,1427.25,1899)" d="M23.3,-10.5 C23.9,-10.6 24.4,-11.3 24.4,-11.9 L24.4,-17.8 C24.4,-18.6 23.8,-19.2 23,-19.2 C22.9,-19.2 22.9,-19.2 22.8,-19.2 L19.5,-18.5 L19.5,-33.4 L16.7,-33.4 L16.7,-17.9 L7.8,-16.1 L7.8,-30.2 L5,-30.2 L5,-15.5 L1.1,-14.7 C0.5,-14.6 0,-13.9 0,-13.3 L0,-13.1 L0,-7.3 L0,-7.5 C0,-6.7 0.6,-6.1 1.4,-6.1 C1.5,-6.1 1.6,-6.1 1.7,-6.1 L5,-6.8 L5,9.7 L1.1,10.5 C0.5,10.6 0,11.3 0,11.9 L0,17.7 C0,18.5 0.6,19.1 1.4,19.1 C1.5,19.1 1.6,19.1 1.7,19.1 L5,18.4 L5,33.3 L7.8,33.3 L7.8,17.8 L16.7,16 L16.7,30.1 L19.5,30.1 L19.5,15.4 L23.3,14.7 C23.9,14.6 24.4,13.9 24.4,13.3 L24.4,7.4 C24.4,6.6 23.8,6 23,6 C22.9,6 22.9,6 22.8,6 L19.5,6.7 L19.5,-9.8 L23.3,-10.5 M7.8,-7.4 L16.7,-9.2 L16.7,7.3 L7.8,9.2 L7.8,-7.4 "/>
<polyline class="LedgerLine" fill="none" stroke="#000000" stroke-width="3.97" stroke-linejoin="bevel" points="1464.51,758.198 1513.1,758.198" />
<polyline class="LedgerLine" fill="none" stroke="#000000" stroke-width="3.97" stroke-linejoin="bevel" points="1071.18,1365.8 1119.77,1365.8" />
<polyline class="LedgerLine" fill="none" stroke="#000000" stroke-width="3.97" stroke-linejoin="bevel" points="1393.98,758.198 1442.58,758.198" />
<polyline class="LedgerLine" fill="none" stroke="#000000" stroke-width="3.97" stroke-linejoin="bevel" points="1217.47,758.198 1266.07,758.198" />
<polyline class="LedgerLine" fill="none" stroke="#000000" stroke-width="3.97" stroke-linejoin="bevel" points="1139.66,1365.8 1188.25,1365.8" />
<polyline class="LedgerLine" fill="none" stroke="#000000" stroke-width="3.97" stroke-linejoin="bevel" points="1208.14,1365.8 1256.73,1365.8" />
<polyline class="Stem" fill="none" stroke="#000000" stroke-width="2.48" stroke-linejoin="bevel" points="1178.83,1361.83 1178.83,1272.76" />
<polyline class="Stem" fill="none" stroke="#000000" stroke-width="2.48" stroke-linejoin="bevel" points="2004.05,1283.16 2004.05,1353.51" />
<polyline class="Stem" fill="none" stroke="#000000" stroke-width="2.48" stroke-linejoin="bevel" points="2360.3,1299.83 2360.3,1235.6" />
<polyline class="Stem" fill="none" stroke="#000000" stroke-width="2.48" stroke-linejoin="bevel" points="2555,1882.63 2555,1818.4" />
<polyline class="Stem" fill="none" stroke="#000000" stroke-width="2.48" stroke-linejoin="bevel" points="1186.12,741.83 1186.12,663.12" />
<polyline class="Stem" fill="none" stroke="#000000" stroke-width="2.48" stroke-linejoin="bevel" points="2038.32,687.965 2038.32,764.299" />
<polyline class="Stem" fill="none" stroke="#000000" stroke-width="2.48" stroke-linejoin="bevel" points="2365.27,1865.96 2365.27,1948.6" />
<polyline class="Stem" fill="none" stroke="#000000" stroke-width="2.48" stroke-linejoin="bevel" points="2108.84,675.565 2108.84,751.998" />
<polyline class="Stem" fill="none" stroke="#000000" stroke-width="2.48" stroke-linejoin="bevel" points="621.733,717.03 621.733,652.904" />
<polyline class="Stem" fill="none" stroke="#000000" stroke-width="2.48" stroke-linejoin="bevel" points="2214.62,687.965 2214.62,758.198" />
<polyline class="Stem" fill="none" stroke="#000000" stroke-width="2.48" stroke-linejoin="bevel" points="2258.71,1853.56 2258.71,1936.1" />
<polyline class="Stem" fill="none" stroke="#000000" stroke-width="2.48" stroke-linejoin="bevel" points="1256.64,754.23 1256.64,665.163" />
<polyline class="Stem" fill="none" stroke="#000000" stroke-width="2.48" stroke-linejoin="bevel" points="1785.77,729.43 1785.77,658.893" />
<polyline class="Stem" fill="none" stroke="#000000" stroke-width="2.48" stroke-linejoin="bevel" points="2152.05,1865.96 2152.05,1948.6" />
<polyline class="Stem" fill="none" stroke="#000000" stroke-width="2.48" stroke-linejoin="bevel" points="2355.87,663.165 2355.87,745.798" />
<polyline class="Stem" fill="none" stroke="#000000" stroke-width="2.48" stroke-linejoin="bevel" points="2080.95,1878.36 2080.95,1960.9" />
<polyline class="Stem" fill="none" stroke="#000000" stroke-width="2.48" stroke-linejoin="bevel" points="1901.33,1295.56 1901.33,1365.8" />
<polyline class="Stem" fill="none" stroke="#000000" stroke-width="2.48" stroke-linejoin="bevel" points="2620.33,687.965 2620.33,751.893" />
<polyline class="Stem" fill="none" stroke="#000000" stroke-width="2.48" stroke-linejoin="bevel" points="2009.85,1878.36 2009.85,1948.6" />
<polyline class="Stem" fill="none" stroke="#000000" stroke-width="2.48" stroke-linejoin="bevel" points="1938.74,1878.36 1938.74,1948.6" />
<polyline class="Stem" fill="none" stroke="#000000" stroke-width="2.48" stroke-linejoin="bevel" points="2690.85,675.565 2690.85,745.904" />
<polyline class="Stem" fill="none" stroke="#000000" stroke-width="2.48" stroke-linejoin="bevel" points="1867.64,1878.36 1867.64,1948.6" />
<polyline class="Stem" fill="none" stroke="#000000" stroke-width="2.48" stroke-linejoin="bevel" points="1796.54,1878.36 1796.54,1948.6" />
<polyline class="Stem" fill="none" stroke="#000000" stroke-width="2.48" stroke-linejoin="bevel" points="1715.24,717.03 1715.24,652.904" />
<polyline class="Stem" fill="none" stroke="#000000" stroke-width="2.48" stroke-linejoin="bevel" points="692.256,729.43 692.256,658.893" />
<polyline class="Stem" fill="none" stroke="#000000" stroke-width="2.48" stroke-linejoin="bevel" points="1601.09,1890.76 1601.09,1967.2" />
<polyline class="Stem" fill="none" stroke="#000000" stroke-width="2.48" stroke-linejoin="bevel" points="1529.99,1890.76 1529.99,1967.2" />
<polyline class="Stem" fill="none" stroke="#000000" stroke-width="2.48" stroke-linejoin="bevel" points="457.622,1262.63 457.622,1204.6" />
<polyline class="Stem" fill="none" stroke="#000000" stroke-width="2.48" stroke-linejoin="bevel" points="1458.89,1903.16 1458.89,1967.2" />
<polyline class="Stem" fill="none" stroke="#000000" stroke-width="2.48" stroke-linejoin="bevel" points="1387.59,1890.76 1387.59,1967.2" />
<polyline class="Stem" fill="none" stroke="#000000" stroke-width="2.48" stroke-linejoin="bevel" points="1604.57,1312.23 1604.57,1241.69" />
<polyline class="Stem" fill="none" stroke="#000000" stroke-width="2.48" stroke-linejoin="bevel" points="628.822,1324.63 628.822,1242" />
<polyline class="Stem" fill="none" stroke="#000000" stroke-width="2.48" stroke-linejoin="bevel" points="1316.49,1890.76 1316.49,1967.2" />
<polyline class="Stem" fill="none" stroke="#000000" stroke-width="2.48" stroke-linejoin="bevel" points="697.302,1312.23 697.302,1229.4" />
<polyline class="Stem" fill="none" stroke="#000000" stroke-width="2.48" stroke-linejoin="bevel" points="798.243,717.03 798.243,634.198" />
<polyline class="Stem" fill="none" stroke="#000000" stroke-width="2.48" stroke-linejoin="bevel" points="800.022,1324.63 800.022,1260.51" />
<polyline class="Stem" fill="none" stroke="#000000" stroke-width="2.48" stroke-linejoin="bevel" points="1121.04,1903.16 1121.04,1973.4" />
<polyline class="Stem" fill="none" stroke="#000000" stroke-width="2.48" stroke-linejoin="bevel" points="1079.68,1895.03 1079.68,1830.9" />
<polyline class="Stem" fill="none" stroke="#000000" stroke-width="2.48" stroke-linejoin="bevel" points="868.502,1337.03 868.502,1266.49" />
<polyline class="Stem" fill="none" stroke="#000000" stroke-width="2.48" stroke-linejoin="bevel" points="904.027,729.43 904.027,659.104" />
<polyline class="Stem" fill="none" stroke="#000000" stroke-width="2.48" stroke-linejoin="bevel" points="1008.58,1907.43 1008.58,1836.89" />
<polyline class="Stem" fill="none" stroke="#000000" stroke-width="2.48" stroke-linejoin="bevel" points="872.182,1903.16 872.182,1973.4" />
<polyline class="Stem" fill="none" stroke="#000000" stroke-width="2.48" stroke-linejoin="bevel" points="1503.67,766.63 1503.67,683.798" />
<polyline class="Stem" fill="none" stroke="#000000" stroke-width="2.48" stroke-linejoin="bevel" points="973.391,1349.43 973.391,1266.64" />
<polyline class="Stem" fill="none" stroke="#000000" stroke-width="2.48" stroke-linejoin="bevel" points="605.635,1903.16 605.635,1967.09" />
<polyline class="Stem" fill="none" stroke="#000000" stroke-width="2.48" stroke-linejoin="bevel" points="534.532,1890.76 534.532,1961.1" />
<polyline class="Stem" fill="none" stroke="#000000" stroke-width="2.48" stroke-linejoin="bevel" points="1041.87,1349.43 1041.87,1268.68" />
<polyline class="Stem" fill="none" stroke="#000000" stroke-width="2.48" stroke-linejoin="bevel" points="427.878,1903.16 427.878,1973.4" />
<polyline class="Stem" fill="none" stroke="#000000" stroke-width="2.48" stroke-linejoin="bevel" points="1110.35,1361.83 1110.35,1270.72" />
<polyline class="Stem" fill="none" stroke="#000000" stroke-width="2.48" stroke-linejoin="bevel" points="974.55,741.83 974.55,665.093" />
<polyline class="Stem" fill="none" stroke="#000000" stroke-width="2.48" stroke-linejoin="bevel" points="1433.15,754.23 1433.15,683.693" />
<polyline class="Stem" fill="none" stroke="#000000" stroke-width="2.48" stroke-linejoin="bevel" points="1045.07,729.43 1045.07,659.034" />
<polyline class="Stem" fill="none" stroke="#000000" stroke-width="2.48" stroke-linejoin="bevel" points="2568.56,1299.83 2568.56,1235.6" />
<polyline class="Stem" fill="none" stroke="#000000" stroke-width="2.48" stroke-linejoin="bevel" points="2500.08,1312.23 2500.08,1235.6" />
<polyline class="Stem" fill="none" stroke="#000000" stroke-width="2.48" stroke-linejoin="bevel" points="1247.31,1374.23 1247.31,1291.4" />
<polyline class="Stem" fill="none" stroke="#000000" stroke-width="2.48" stroke-linejoin="bevel" points="2428.78,1299.83 2428.78,1235.6" />
<polyline class="Stem" fill="none" stroke="#000000" stroke-width="2.48" stroke-linejoin="bevel" points="1891.75,717.03 1891.75,634.198" />
<polyline class="Stem" fill="none" stroke="#000000" stroke-width="2.48" stroke-linejoin="bevel" points="1115.6,729.43 1115.6,661.077" />
<polyline class="Stem" fill="none" stroke="#000000" stroke-width="2.48" stroke-linejoin="bevel" points="1362.63,741.83 1362.63,677.704" />
<polyline class="Stem" fill="none" stroke="#000000" stroke-width="2.48" stroke-linejoin="bevel" points="2072.53,1295.56 2072.53,1359.49" />
<polyline class="Stem" fill="none" stroke="#000000" stroke-width="2.48" stroke-linejoin="bevel" points="1501.85,1299.83 1501.85,1223.2" />
<polyline class="Stem" fill="none" stroke="#000000" stroke-width="2.48" stroke-linejoin="bevel" points="1673.05,1299.83 1673.05,1235.71" />
<path class="Hook" transform="matrix(0.992,0,0,0.992,627.582,1241.8)" d="M0,22.7 C0,23 0.1,23.5 0.8,23.8 C5.1,25.2 13.7,30.6 20.2,41.7 C22,44.8 24.9,49.1 24.9,57.4 C24.9,64.6 23,72 20.4,79.2 C20.2,79.8 20,80.3 20.1,80.7 C20.1,81.1 20.2,81.4 20.6,81.6 C20.8,81.7 21,81.7 21.1,81.7 C21.8,81.7 22.3,81.3 22.7,80.6 C27.4,72.3 29,61.7 28.9,55.4 C28.9,54.9 28.9,54.6 28.9,54.2 C28.4,41.3 21,31.8 21,31.8 C21.3,31.8 11.8,19.5 9.1,15.3 C5.4,9.6 3.7,3.9 3.5,3.5 C3.4,3.2 2.5,-0.4 2.5,-0.4 C2.4,-0.8 1.9,-1.2 1.3,-1.2 C0.6,-1.2 0,-0.6 0,0.1 L0,22.7 "/>
<path class="Hook" transform="matrix(0.992,0,0,0.992,2079.71,1961)" d="M0,-0.1 C0,0.6 0.6,1.2 1.3,1.2 C1.8,1.2 2.4,0.8 2.5,0.4 C2.5,0.3 3.4,-3.2 3.5,-3.5 C3.6,-3.9 4.5,-7.7 8.1,-13.6 C12,-20.1 18,-24.8 23,-31.8 C27.9,-38.8 30.9,-45.4 30.9,-54.2 C30.9,-63.3 28.8,-70.9 23.5,-80.6 C23.2,-81.3 22.6,-81.7 22,-81.7 C21.8,-81.7 21.6,-81.7 21.5,-81.6 C21,-81.4 20.8,-81 20.8,-80.4 C20.8,-80.1 20.9,-79.6 21.1,-79.2 C25.1,-69.9 26.7,-64.6 26.7,-57.4 C26.7,-49.1 23.8,-44.8 22,-41.7 C15.5,-30.6 5,-25.2 0.8,-23.8 C0.1,-23.5 0,-23 0,-22.7 L0,-0.1 "/>
<path class="Hook" transform="matrix(0.992,0,0,0.992,2257.47,1936.2)" d="M0,-0.1 C0,0.6 0.6,1.2 1.3,1.2 C1.8,1.2 2.4,0.8 2.5,0.4 C2.5,0.3 3.4,-3.2 3.5,-3.5 C3.6,-3.9 4.5,-7.7 8.1,-13.6 C12,-20.1 18,-24.8 23,-31.8 C27.9,-38.8 30.9,-45.4 30.9,-54.2 C30.9,-63.3 28.8,-70.9 23.5,-80.6 C23.2,-81.3 22.6,-81.7 22,-81.7 C21.8,-81.7 21.6,-81.7 21.5,-81.6 C21,-81.4 20.8,-81 20.8,-80.4 C20.8,-80.1 20.9,-79.6 21.1,-79.2 C25.1,-69.9 26.7,-64.6 26.7,-57.4 C26.7,-49.1 23.8,-44.8 22,-41.7 C15.5,-30.6 5,-25.2 0.8,-23.8 C0.1,-23.5 0,-23 0,-22.7 L0,-0.1 "/>
<path class="Hook" transform="matrix(0.992,0,0,0.992,2037.08,764.398)" d="M0,-0.1 C0,0.6 0.6,1.2 1.3,1.2 C1.8,1.2 2.4,0.8 2.5,0.4 C2.5,0.3 3.4,-3.2 3.5,-3.5 C3.6,-3.9 4.5,-7.7 8.1,-13.6 C12,-20.1 18,-24.8 23,-31.8 C27.9,-38.8 30.9,-45.4 30.9,-54.2 C30.9,-63.3 28.8,-70.9 23.5,-80.6 C23.2,-81.3 22.6,-81.7 22,-81.7 C21.8,-81.7 21.6,-81.7 21.5,-81.6 C21,-81.4 20.8,-81 20.8,-80.4 C20.8,-80.1 20.9,-79.6 21.1,-79.2 C25.1,-69.9 26.7,-64.6 26.7,-57.4 C26.7,-49.1 23.8,-44.8 22,-41.7 C15.5,-30.6 5,-25.2 0.8,-23.8 C0.1,-23.5 0,-23 0,-22.7 L0,-0.1 "/>
<path class="Note" transform="matrix(0.992,0,0,0.992,2329.32,1303.8)" d="M0,4.2 C0,8.5 3.1,13.3 11.2,13.3 C21.6,13.3 32.5,4.8 32.5,-4 C32.5,-9.9 27.5,-13.2 21.3,-13.2 C11.6,-13.2 0,-5 0,4.2"/>
<path class="Note" transform="matrix(0.992,0,0,0.992,1457.65,1899)" d="M0,4.2 C0,8.5 3.1,13.3 11.2,13.3 C21.6,13.3 32.5,4.8 32.5,-4 C32.5,-9.9 27.5,-13.2 21.3,-13.2 C11.6,-13.2 0,-5 0,4.2"/>
<path class="Note" transform="matrix(0.992,0,0,0.992,2524.01,1886.6)" d="M0,4.2 C0,8.5 3.1,13.3 11.2,13.3 C21.6,13.3 32.5,4.8 32.5,-4 C32.5,-9.9 27.5,-13.2 21.3,-13.2 C11.6,-13.2 0,-5 0,4.2"/>
<path class="Note" transform="matrix(0.992,0,0,0.992,1155.13,745.798)" d="M0,4.2 C0,8.5 3.1,13.3 11.2,13.3 C21.6,13.3 32.5,4.8 32.5,-4 C32.5,-9.9 27.5,-13.2 21.3,-13.2 C11.6,-13.2 0,-5 0,4.2"/>
<path class="Note" transform="matrix(0.992,0,0,0.992,2364.03,1861.8)" d="M21.3,-13.2 C11.6,-13.2 0,-5.1 0,4.2 C0,8.5 3.1,13.3 11.2,13.3 C21.6,13.3 32.5,4.8 32.5,-4 C32.5,-9.9 27.5,-13.2 21.3,-13.2 M18.6,4.4 C18.3,4.6 11,8.6 7.5,8.6 C4.2,8.6 3.5,5.9 3.5,5 C3.5,0.8 13.5,-4.1 13.9,-4.3 C14.3,-4.5 21.4,-8.5 25,-8.5 C27.4,-8.5 29,-7.1 29,-4.9 C29,-0.6 18.9,4.2 18.6,4.4"/>
<path class="Note" transform="matrix(0.992,0,0,0.992,1573.59,1316.2)" d="M0,4.2 C0,8.5 3.1,13.3 11.2,13.3 C21.6,13.3 32.5,4.8 32.5,-4 C32.5,-9.9 27.5,-13.2 21.3,-13.2 C11.6,-13.2 0,-5 0,4.2"/>
<path class="Note" transform="matrix(0.992,0,0,0.992,1900.09,1291.4)" d="M0,4.2 C0,8.5 3.1,13.3 11.2,13.3 C21.6,13.3 32.5,4.8 32.5,-4 C32.5,-9.9 27.5,-13.2 21.3,-13.2 C11.6,-13.2 0,-5 0,4.2"/>
<path class="Note" transform="matrix(0.992,0,0,0.992,1470.87,1303.8)" d="M0,4.2 C0,8.5 3.1,13.3 11.2,13.3 C21.6,13.3 32.5,4.8 32.5,-4 C32.5,-9.9 27.5,-13.2 21.3,-13.2 C11.6,-13.2 0,-5 0,4.2"/>
<path class="Note" transform="matrix(0.992,0,0,0.992,2002.81,1279)" d="M0,4.2 C0,8.5 3.1,13.3 11.2,13.3 C21.6,13.3 32.5,4.8 32.5,-4 C32.5,-9.9 27.5,-13.2 21.3,-13.2 C11.6,-13.2 0,-5 0,4.2"/>
<path class="Note" transform="matrix(0.992,0,0,0.992,2037.08,683.798)" d="M0,4.2 C0,8.5 3.1,13.3 11.2,13.3 C21.6,13.3 32.5,4.8 32.5,-4 C32.5,-9.9 27.5,-13.2 21.3,-13.2 C11.6,-13.2 0,-5 0,4.2"/>
<path class="Note" transform="matrix(0.992,0,0,0.992,1225.66,758.198)" d="M0,4.2 C0,8.5 3.1,13.3 11.2,13.3 C21.6,13.3 32.5,4.8 32.5,-4 C32.5,-9.9 27.5,-13.2 21.3,-13.2 C11.6,-13.2 0,-5 0,4.2"/>
<path class="Note" transform="matrix(0.992,0,0,0.992,2071.29,1291.4)" d="M0,4.2 C0,8.5 3.1,13.3 11.2,13.3 C21.6,13.3 32.5,4.8 32.5,-4 C32.5,-9.9 27.5,-13.2 21.3,-13.2 C11.6,-13.2 0,-5 0,4.2"/>
<path class="Note" transform="matrix(0.992,0,0,0.992,2107.6,671.398)" d="M0,4.2 C0,8.5 3.1,13.3 11.2,13.3 C21.6,13.3 32.5,4.8 32.5,-4 C32.5,-9.9 27.5,-13.2 21.3,-13.2 C11.6,-13.2 0,-5 0,4.2"/>
<path class="Note" transform="matrix(0.992,0,0,0.992,1084.61,733.398)" d="M0,4.2 C0,8.5 3.1,13.3 11.2,13.3 C21.6,13.3 32.5,4.8 32.5,-4 C32.5,-9.9 27.5,-13.2 21.3,-13.2 C11.6,-13.2 0,-5 0,4.2"/>
<path class="Note" transform="matrix(0.992,0,0,0.992,590.749,720.998)" d="M0,4.2 C0,8.5 3.1,13.3 11.2,13.3 C21.6,13.3 32.5,4.8 32.5,-4 C32.5,-9.9 27.5,-13.2 21.3,-13.2 C11.6,-13.2 0,-5 0,4.2"/>
<path class="Note" transform="matrix(0.992,0,0,0.992,2257.47,1849.4)" d="M0,4.2 C0,8.5 3.1,13.3 11.2,13.3 C21.6,13.3 32.5,4.8 32.5,-4 C32.5,-9.9 27.5,-13.2 21.3,-13.2 C11.6,-13.2 0,-5 0,4.2"/>
<path class="Note" transform="matrix(0.992,0,0,0.992,1860.77,720.998)" d="M0,4.2 C0,8.5 3.1,13.3 11.2,13.3 C21.6,13.3 32.5,4.8 32.5,-4 C32.5,-9.9 27.5,-13.2 21.3,-13.2 C11.6,-13.2 0,-5 0,4.2"/>
<path class="Note" transform="matrix(0.992,0,0,0.992,1216.33,1378.2)" d="M0,4.2 C0,8.5 3.1,13.3 11.2,13.3 C21.6,13.3 32.5,4.8 32.5,-4 C32.5,-9.9 27.5,-13.2 21.3,-13.2 C11.6,-13.2 0,-5 0,4.2"/>
<path class="Note" transform="matrix(0.992,0,0,0.992,2213.38,683.798)" d="M0,4.2 C0,8.5 3.1,13.3 11.2,13.3 C21.6,13.3 32.5,4.8 32.5,-4 C32.5,-9.9 27.5,-13.2 21.3,-13.2 C11.6,-13.2 0,-5 0,4.2"/>
<path class="Note" transform="matrix(0.992,0,0,0.992,1331.64,745.798)" d="M0,4.2 C0,8.5 3.1,13.3 11.2,13.3 C21.6,13.3 32.5,4.8 32.5,-4 C32.5,-9.9 27.5,-13.2 21.3,-13.2 C11.6,-13.2 0,-5 0,4.2"/>
<path class="Note" transform="matrix(0.992,0,0,0.992,2397.8,1303.8)" d="M0,4.2 C0,8.5 3.1,13.3 11.2,13.3 C21.6,13.3 32.5,4.8 32.5,-4 C32.5,-9.9 27.5,-13.2 21.3,-13.2 C11.6,-13.2 0,-5 0,4.2"/>
<path class="Note" transform="matrix(0.992,0,0,0.992,1147.85,1365.8)" d="M0,4.2 C0,8.5 3.1,13.3 11.2,13.3 C21.6,13.3 32.5,4.8 32.5,-4 C32.5,-9.9 27.5,-13.2 21.3,-13.2 C11.6,-13.2 0,-5 0,4.2"/>
<path class="Note" transform="matrix(0.992,0,0,0.992,2469.1,1316.2)" d="M0,4.2 C0,8.5 3.1,13.3 11.2,13.3 C21.6,13.3 32.5,4.8 32.5,-4 C32.5,-9.9 27.5,-13.2 21.3,-13.2 C11.6,-13.2 0,-5 0,4.2"/>
<path class="Note" transform="matrix(0.992,0,0,0.992,1014.09,733.398)" d="M0,4.2 C0,8.5 3.1,13.3 11.2,13.3 C21.6,13.3 32.5,4.8 32.5,-4 C32.5,-9.9 27.5,-13.2 21.3,-13.2 C11.6,-13.2 0,-5 0,4.2"/>
<path class="Note" transform="matrix(0.992,0,0,0.992,1079.37,1365.8)" d="M0,4.2 C0,8.5 3.1,13.3 11.2,13.3 C21.6,13.3 32.5,4.8 32.5,-4 C32.5,-9.9 27.5,-13.2 21.3,-13.2 C11.6,-13.2 0,-5 0,4.2"/>
<path class="Note" transform="matrix(0.992,0,0,0.992,2537.58,1303.8)" d="M0,4.2 C0,8.5 3.1,13.3 11.2,13.3 C21.6,13.3 32.5,4.8 32.5,-4 C32.5,-9.9 27.5,-13.2 21.3,-13.2 C11.6,-13.2 0,-5 0,4.2"/>
<path class="Note" transform="matrix(0.992,0,0,0.992,1754.78,733.398)" d="M0,4.2 C0,8.5 3.1,13.3 11.2,13.3 C21.6,13.3 32.5,4.8 32.5,-4 C32.5,-9.9 27.5,-13.2 21.3,-13.2 C11.6,-13.2 0,-5 0,4.2"/>
<path class="Note" transform="matrix(0.992,0,0,0.992,2150.81,1861.8)" d="M0,4.2 C0,8.5 3.1,13.3 11.2,13.3 C21.6,13.3 32.5,4.8 32.5,-4 C32.5,-9.9 27.5,-13.2 21.3,-13.2 C11.6,-13.2 0,-5 0,4.2"/>
<path class="Note" transform="matrix(0.992,0,0,0.992,943.566,745.798)" d="M0,4.2 C0,8.5 3.1,13.3 11.2,13.3 C21.6,13.3 32.5,4.8 32.5,-4 C32.5,-9.9 27.5,-13.2 21.3,-13.2 C11.6,-13.2 0,-5 0,4.2"/>
<path class="Note" transform="matrix(0.992,0,0,0.992,1402.17,758.198)" d="M0,4.2 C0,8.5 3.1,13.3 11.2,13.3 C21.6,13.3 32.5,4.8 32.5,-4 C32.5,-9.9 27.5,-13.2 21.3,-13.2 C11.6,-13.2 0,-5 0,4.2"/>
<path class="Note" transform="matrix(0.992,0,0,0.992,2079.71,1874.2)" d="M0,4.2 C0,8.5 3.1,13.3 11.2,13.3 C21.6,13.3 32.5,4.8 32.5,-4 C32.5,-9.9 27.5,-13.2 21.3,-13.2 C11.6,-13.2 0,-5 0,4.2"/>
<path class="Note" transform="matrix(0.992,0,0,0.992,2354.63,658.998)" d="M21.3,-13.2 C11.6,-13.2 0,-5.1 0,4.2 C0,8.5 3.1,13.3 11.2,13.3 C21.6,13.3 32.5,4.8 32.5,-4 C32.5,-9.9 27.5,-13.2 21.3,-13.2 M18.6,4.4 C18.3,4.6 11,8.6 7.5,8.6 C4.2,8.6 3.5,5.9 3.5,5 C3.5,0.8 13.5,-4.1 13.9,-4.3 C14.3,-4.5 21.4,-8.5 25,-8.5 C27.4,-8.5 29,-7.1 29,-4.9 C29,-0.6 18.9,4.2 18.6,4.4"/>
<path class="Note" transform="matrix(0.992,0,0,0.992,1010.89,1353.4)" d="M0,4.2 C0,8.5 3.1,13.3 11.2,13.3 C21.6,13.3 32.5,4.8 32.5,-4 C32.5,-9.9 27.5,-13.2 21.3,-13.2 C11.6,-13.2 0,-5 0,4.2"/>
<path class="Note" transform="matrix(0.992,0,0,0.992,426.638,1899)" d="M0,4.2 C0,8.5 3.1,13.3 11.2,13.3 C21.6,13.3 32.5,4.8 32.5,-4 C32.5,-9.9 27.5,-13.2 21.3,-13.2 C11.6,-13.2 0,-5 0,4.2"/>
<path class="Note" transform="matrix(0.992,0,0,0.992,2008.61,1874.2)" d="M0,4.2 C0,8.5 3.1,13.3 11.2,13.3 C21.6,13.3 32.5,4.8 32.5,-4 C32.5,-9.9 27.5,-13.2 21.3,-13.2 C11.6,-13.2 0,-5 0,4.2"/>
<path class="Note" transform="matrix(0.992,0,0,0.992,533.292,1886.6)" d="M0,4.2 C0,8.5 3.1,13.3 11.2,13.3 C21.6,13.3 32.5,4.8 32.5,-4 C32.5,-9.9 27.5,-13.2 21.3,-13.2 C11.6,-13.2 0,-5 0,4.2"/>
<path class="Note" transform="matrix(0.992,0,0,0.992,2619.09,683.798)" d="M0,4.2 C0,8.5 3.1,13.3 11.2,13.3 C21.6,13.3 32.5,4.8 32.5,-4 C32.5,-9.9 27.5,-13.2 21.3,-13.2 C11.6,-13.2 0,-5 0,4.2"/>
<path class="Note" transform="matrix(0.992,0,0,0.992,1937.5,1874.2)" d="M0,4.2 C0,8.5 3.1,13.3 11.2,13.3 C21.6,13.3 32.5,4.8 32.5,-4 C32.5,-9.9 27.5,-13.2 21.3,-13.2 C11.6,-13.2 0,-5 0,4.2"/>
<path class="Note" transform="matrix(0.992,0,0,0.992,604.395,1899)" d="M0,4.2 C0,8.5 3.1,13.3 11.2,13.3 C21.6,13.3 32.5,4.8 32.5,-4 C32.5,-9.9 27.5,-13.2 21.3,-13.2 C11.6,-13.2 0,-5 0,4.2"/>
<path class="Note" transform="matrix(0.992,0,0,0.992,1866.4,1874.2)" d="M0,4.2 C0,8.5 3.1,13.3 11.2,13.3 C21.6,13.3 32.5,4.8 32.5,-4 C32.5,-9.9 27.5,-13.2 21.3,-13.2 C11.6,-13.2 0,-5 0,4.2"/>
<path class="Note" transform="matrix(0.992,0,0,0.992,2689.61,671.398)" d="M0,4.2 C0,8.5 3.1,13.3 11.2,13.3 C21.6,13.3 32.5,4.8 32.5,-4 C32.5,-9.9 27.5,-13.2 21.3,-13.2 C11.6,-13.2 0,-5 0,4.2"/>
<path class="Note" transform="matrix(0.992,0,0,0.992,873.043,733.398)" d="M0,4.2 C0,8.5 3.1,13.3 11.2,13.3 C21.6,13.3 32.5,4.8 32.5,-4 C32.5,-9.9 27.5,-13.2 21.3,-13.2 C11.6,-13.2 0,-5 0,4.2"/>
<path class="Note" transform="matrix(0.992,0,0,0.992,1795.3,1874.2)" d="M0,4.2 C0,8.5 3.1,13.3 11.2,13.3 C21.6,13.3 32.5,4.8 32.5,-4 C32.5,-9.9 27.5,-13.2 21.3,-13.2 C11.6,-13.2 0,-5 0,4.2"/>
<path class="Note" transform="matrix(0.992,0,0,0.992,870.942,1899)" d="M0,4.2 C0,8.5 3.1,13.3 11.2,13.3 C21.6,13.3 32.5,4.8 32.5,-4 C32.5,-9.9 27.5,-13.2 21.3,-13.2 C11.6,-13.2 0,-5 0,4.2"/>
<path class="Note" transform="matrix(0.992,0,0,0.992,1472.69,770.598)" d="M0,4.2 C0,8.5 3.1,13.3 11.2,13.3 C21.6,13.3 32.5,4.8 32.5,-4 C32.5,-9.9 27.5,-13.2 21.3,-13.2 C11.6,-13.2 0,-5 0,4.2"/>
<path class="Note" transform="matrix(0.992,0,0,0.992,977.596,1911.4)" d="M0,4.2 C0,8.5 3.1,13.3 11.2,13.3 C21.6,13.3 32.5,4.8 32.5,-4 C32.5,-9.9 27.5,-13.2 21.3,-13.2 C11.6,-13.2 0,-5 0,4.2"/>
<path class="Note" transform="matrix(0.992,0,0,0.992,837.518,1341)" d="M0,4.2 C0,8.5 3.1,13.3 11.2,13.3 C21.6,13.3 32.5,4.8 32.5,-4 C32.5,-9.9 27.5,-13.2 21.3,-13.2 C11.6,-13.2 0,-5 0,4.2"/>
<path class="Note" transform="matrix(0.992,0,0,0.992,1684.26,720.998)" d="M0,4.2 C0,8.5 3.1,13.3 11.2,13.3 C21.6,13.3 32.5,4.8 32.5,-4 C32.5,-9.9 27.5,-13.2 21.3,-13.2 C11.6,-13.2 0,-5 0,4.2"/>
<path class="Note" transform="matrix(0.992,0,0,0.992,1599.85,1886.6)" d="M21.3,-13.2 C11.6,-13.2 0,-5.1 0,4.2 C0,8.5 3.1,13.3 11.2,13.3 C21.6,13.3 32.5,4.8 32.5,-4 C32.5,-9.9 27.5,-13.2 21.3,-13.2 M18.6,4.4 C18.3,4.6 11,8.6 7.5,8.6 C4.2,8.6 3.5,5.9 3.5,5 C3.5,0.8 13.5,-4.1 13.9,-4.3 C14.3,-4.5 21.4,-8.5 25,-8.5 C27.4,-8.5 29,-7.1 29,-4.9 C29,-0.6 18.9,4.2 18.6,4.4"/>
<path class="Note" transform="matrix(0.992,0,0,0.992,1048.7,1899)" d="M0,4.2 C0,8.5 3.1,13.3 11.2,13.3 C21.6,13.3 32.5,4.8 32.5,-4 C32.5,-9.9 27.5,-13.2 21.3,-13.2 C11.6,-13.2 0,-5 0,4.2"/>
<path class="Note" transform="matrix(0.992,0,0,0.992,769.038,1328.6)" d="M0,4.2 C0,8.5 3.1,13.3 11.2,13.3 C21.6,13.3 32.5,4.8 32.5,-4 C32.5,-9.9 27.5,-13.2 21.3,-13.2 C11.6,-13.2 0,-5 0,4.2"/>
<path class="Note" transform="matrix(0.992,0,0,0.992,1119.8,1899)" d="M21.3,-13.2 C11.6,-13.2 0,-5.1 0,4.2 C0,8.5 3.1,13.3 11.2,13.3 C21.6,13.3 32.5,4.8 32.5,-4 C32.5,-9.9 27.5,-13.2 21.3,-13.2 M18.6,4.4 C18.3,4.6 11,8.6 7.5,8.6 C4.2,8.6 3.5,5.9 3.5,5 C3.5,0.8 13.5,-4.1 13.9,-4.3 C14.3,-4.5 21.4,-8.5 25,-8.5 C27.4,-8.5 29,-7.1 29,-4.9 C29,-0.6 18.9,4.2 18.6,4.4"/>
<path class="Note" transform="matrix(0.992,0,0,0.992,767.259,720.998)" d="M0,4.2 C0,8.5 3.1,13.3 11.2,13.3 C21.6,13.3 32.5,4.8 32.5,-4 C32.5,-9.9 27.5,-13.2 21.3,-13.2 C11.6,-13.2 0,-5 0,4.2"/>
<path class="Note" transform="matrix(0.992,0,0,0.992,666.318,1316.2)" d="M0,4.2 C0,8.5 3.1,13.3 11.2,13.3 C21.6,13.3 32.5,4.8 32.5,-4 C32.5,-9.9 27.5,-13.2 21.3,-13.2 C11.6,-13.2 0,-5 0,4.2"/>
<path class="Note" transform="matrix(0.992,0,0,0.992,597.838,1328.6)" d="M0,4.2 C0,8.5 3.1,13.3 11.2,13.3 C21.6,13.3 32.5,4.8 32.5,-4 C32.5,-9.9 27.5,-13.2 21.3,-13.2 C11.6,-13.2 0,-5 0,4.2"/>
<path class="Note" transform="matrix(0.992,0,0,0.992,1315.25,1886.6)" d="M0,4.2 C0,8.5 3.1,13.3 11.2,13.3 C21.6,13.3 32.5,4.8 32.5,-4 C32.5,-9.9 27.5,-13.2 21.3,-13.2 C11.6,-13.2 0,-5 0,4.2"/>
<path class="Note" transform="matrix(0.992,0,0,0.992,1528.75,1886.6)" d="M0,4.2 C0,8.5 3.1,13.3 11.2,13.3 C21.6,13.3 32.5,4.8 32.5,-4 C32.5,-9.9 27.5,-13.2 21.3,-13.2 C11.6,-13.2 0,-5 0,4.2"/>
<path class="Note" transform="matrix(0.992,0,0,0.992,661.272,733.398)" d="M0,4.2 C0,8.5 3.1,13.3 11.2,13.3 C21.6,13.3 32.5,4.8 32.5,-4 C32.5,-9.9 27.5,-13.2 21.3,-13.2 C11.6,-13.2 0,-5 0,4.2"/>
<path class="Note" transform="matrix(0.992,0,0,0.992,1386.35,1886.6)" d="M0,4.2 C0,8.5 3.1,13.3 11.2,13.3 C21.6,13.3 32.5,4.8 32.5,-4 C32.5,-9.9 27.5,-13.2 21.3,-13.2 C11.6,-13.2 0,-5 0,4.2"/>
<path class="Note" transform="matrix(0.992,0,0,0.992,426.638,1266.6)" d="M0,4.2 C0,8.5 3.1,13.3 11.2,13.3 C21.6,13.3 32.5,4.8 32.5,-4 C32.5,-9.9 27.5,-13.2 21.3,-13.2 C11.6,-13.2 0,-5 0,4.2"/>
<path class="Note" transform="matrix(0.992,0,0,0.992,1642.07,1303.8)" d="M0,4.2 C0,8.5 3.1,13.3 11.2,13.3 C21.6,13.3 32.5,4.8 32.5,-4 C32.5,-9.9 27.5,-13.2 21.3,-13.2 C11.6,-13.2 0,-5 0,4.2"/>
<path class="Note" transform="matrix(0.992,0,0,0.992,942.406,1353.4)" d="M0,4.2 C0,8.5 3.1,13.3 11.2,13.3 C21.6,13.3 32.5,4.8 32.5,-4 C32.5,-9.9 27.5,-13.2 21.3,-13.2 C11.6,-13.2 0,-5 0,4.2"/>
<path class="Clef" transform="matrix(0.992,0,0,0.992,231.198,1316.2)" d="M56.2,2.1 C56.2,9.2 53.3,16.5 46.2,19.4 C44.1,7.4 41.4,-8.5 40.7,-12.9 C49.7,-12.9 56.2,-6.8 56.2,2.1 M42,20.6 C40,21 38.1,21.2 36.2,21.2 C21.9,21.2 9.7,11.2 9.7,-3.9 C9.7,-16.1 18.3,-27 27.1,-34.6 C28.8,-36.1 30.4,-37.5 31.9,-39 C32.8,-33.6 33.5,-28.9 34.2,-24.8 C25.1,-22.1 18.9,-12.5 18.9,-3.1 C18.9,3.9 24.4,13.5 32.4,13.5 C33.2,13.5 34.1,13.1 34.1,12.2 C34.1,11.3 33.1,10.8 31.9,10 C28,7.6 25.8,5 25.8,0.1 C25.8,-6 30.3,-10.9 36.2,-12.3 L42,20.6 M33.2,-82.2 C34.1,-86.2 38.7,-96.7 43.9,-96.7 C45.4,-96.7 47.8,-91.8 47.8,-84.9 C47.8,-74.5 40.1,-66.7 33.2,-59.9 C32.6,-63.9 32.1,-67.8 32.1,-72 C32.1,-75.7 32.4,-79.1 33.2,-82.2 M12.2,51.3 C12.2,57.9 17.3,66.6 30.8,66.6 C35.5,66.6 39.6,65.4 43.2,63.2 C48.6,59.4 50,52.8 50,46.5 C50,42.6 49.4,38.1 48.4,32.4 C48.1,30.4 47.5,27.4 46.9,23.5 C56.7,20.3 64,10.1 64,-0.2 C64,-15.3 53.3,-25.5 38.7,-25.5 C37.7,-31.5 36.7,-37.4 35.8,-43 C46.4,-54.1 53.7,-66.6 53.7,-82.5 C53.7,-91.6 50.9,-99 49.3,-102.6 C46.9,-107.7 44,-111.2 42.2,-111.2 C41.5,-111.2 38.4,-110 35.1,-106.1 C28.7,-98.5 26.9,-85.7 26.9,-77.3 C26.9,-71.9 27.4,-67 29.1,-55.8 C29,-55.7 23.8,-50.4 21.7,-48.7 C12.6,-40.2 0,-28.1 0,-8.1 C0,10.6 16.3,25.3 34.9,25.3 C37.8,25.3 40.5,25 42.8,24.6 C44.7,34.2 45.8,41.2 45.8,46.5 C45.8,56.9 40.5,62.4 30.4,62.4 C28,62.4 25.9,61.9 25.7,61.9 C25.6,61.8 25.4,61.7 25.4,61.6 C25.4,61.4 25.6,61.3 25.9,61.2 C30.6,60.5 35.3,56.5 35.3,50.1 C35.3,44.7 31.2,39 23.7,39 C16.7,39 12.2,44.7 12.2,51.3"/>
<path class="Clef" transform="matrix(0.992,0,0,0.992,231.198,708.598)" d="M56.2,2.1 C56.2,9.2 53.3,16.5 46.2,19.4 C44.1,7.4 41.4,-8.5 40.7,-12.9 C49.7,-12.9 56.2,-6.8 56.2,2.1 M42,20.6 C40,21 38.1,21.2 36.2,21.2 C21.9,21.2 9.7,11.2 9.7,-3.9 C9.7,-16.1 18.3,-27 27.1,-34.6 C28.8,-36.1 30.4,-37.5 31.9,-39 C32.8,-33.6 33.5,-28.9 34.2,-24.8 C25.1,-22.1 18.9,-12.5 18.9,-3.1 C18.9,3.9 24.4,13.5 32.4,13.5 C33.2,13.5 34.1,13.1 34.1,12.2 C34.1,11.3 33.1,10.8 31.9,10 C28,7.6 25.8,5 25.8,0.1 C25.8,-6 30.3,-10.9 36.2,-12.3 L42,20.6 M33.2,-82.2 C34.1,-86.2 38.7,-96.7 43.9,-96.7 C45.4,-96.7 47.8,-91.8 47.8,-84.9 C47.8,-74.5 40.1,-66.7 33.2,-59.9 C32.6,-63.9 32.1,-67.8 32.1,-72 C32.1,-75.7 32.4,-79.1 33.2,-82.2 M12.2,51.3 C12.2,57.9 17.3,66.6 30.8,66.6 C35.5,66.6 39.6,65.4 43.2,63.2 C48.6,59.4 50,52.8 50,46.5 C50,42.6 49.4,38.1 48.4,32.4 C48.1,30.4 47.5,27.4 46.9,23.5 C56.7,20.3 64,10.1 64,-0.2 C64,-15.3 53.3,-25.5 38.7,-25.5 C37.7,-31.5 36.7,-37.4 35.8,-43 C46.4,-54.1 53.7,-66.6 53.7,-82.5 C53.7,-91.6 50.9,-99 49.3,-102.6 C46.9,-107.7 44,-111.2 42.2,-111.2 C41.5,-111.2 38.4,-110 35.1,-106.1 C28.7,-98.5 26.9,-85.7 26.9,-77.3 C26.9,-71.9 27.4,-67 29.1,-55.8 C29,-55.7 23.8,-50.4 21.7,-48.7 C12.6,-40.2 0,-28.1 0,-8.1 C0,10.6 16.3,25.3 34.9,25.3 C37.8,25.3 40.5,25 42.8,24.6 C44.7,34.2 45.8,41.2 45.8,46.5 C45.8,56.9 40.5,62.4 30.4,62.4 C28,62.4 25.9,61.9 25.7,61.9 C25.6,61.8 25.4,61.7 25.4,61.6 C25.4,61.4 25.6,61.3 25.9,61.2 C30.6,60.5 35.3,56.5 35.3,50.1 C35.3,44.7 31.2,39 23.7,39 C16.7,39 12.2,44.7 12.2,51.3"/>
<path class="Clef" transform="matrix(0.992,0,0,0.992,231.198,1923.8)" d="M56.2,2.1 C56.2,9.2 53.3,16.5 46.2,19.4 C44.1,7.4 41.4,-8.5 40.7,-12.9 C49.7,-12.9 56.2,-6.8 56.2,2.1 M42,20.6 C40,21 38.1,21.2 36.2,21.2 C21.9,21.2 9.7,11.2 9.7,-3.9 C9.7,-16.1 18.3,-27 27.1,-34.6 C28.8,-36.1 30.4,-37.5 31.9,-39 C32.8,-33.6 33.5,-28.9 34.2,-24.8 C25.1,-22.1 18.9,-12.5 18.9,-3.1 C18.9,3.9 24.4,13.5 32.4,13.5 C33.2,13.5 34.1,13.1 34.1,12.2 C34.1,11.3 33.1,10.8 31.9,10 C28,7.6 25.8,5 25.8,0.1 C25.8,-6 30.3,-10.9 36.2,-12.3 L42,20.6 M33.2,-82.2 C34.1,-86.2 38.7,-96.7 43.9,-96.7 C45.4,-96.7 47.8,-91.8 47.8,-84.9 C47.8,-74.5 40.1,-66.7 33.2,-59.9 C32.6,-63.9 32.1,-67.8 32.1,-72 C32.1,-75.7 32.4,-79.1 33.2,-82.2 M12.2,51.3 C12.2,57.9 17.3,66.6 30.8,66.6 C35.5,66.6 39.6,65.4 43.2,63.2 C48.6,59.4 50,52.8 50,46.5 C50,42.6 49.4,38.1 48.4,32.4 C48.1,30.4 47.5,27.4 46.9,23.5 C56.7,20.3 64,10.1 64,-0.2 C64,-15.3 53.3,-25.5 38.7,-25.5 C37.7,-31.5 36.7,-37.4 35.8,-43 C46.4,-54.1 53.7,-66.6 53.7,-82.5 C53.7,-91.6 50.9,-99 49.3,-102.6 C46.9,-107.7 44,-111.2 42.2,-111.2 C41.5,-111.2 38.4,-110 35.1,-106.1 C28.7,-98.5 26.9,-85.7 26.9,-77.3 C26.9,-71.9 27.4,-67 29.1,-55.8 C29,-55.7 23.8,-50.4 21.7,-48.7 C12.6,-40.2 0,-28.1 0,-8.1 C0,10.6 16.3,25.3 34.9,25.3 C37.8,25.3 40.5,25 42.8,24.6 C44.7,34.2 45.8,41.2 45.8,46.5 C45.8,56.9 40.5,62.4 30.4,62.4 C28,62.4 25.9,61.9 25.7,61.9 C25.6,61.8 25.4,61.7 25.4,61.6 C25.4,61.4 25.6,61.3 25.9,61.2 C30.6,60.5 35.3,56.5 35.3,50.1 C35.3,44.7 31.2,39 23.7,39 C16.7,39 12.2,44.7 12.2,51.3"/>
<path class="KeySig" transform="matrix(0.992,0,0,0.992,313.271,1241.8)" d="M23.3,-10.5 C23.9,-10.6 24.4,-11.3 24.4,-11.9 L24.4,-17.8 C24.4,-18.6 23.8,-19.2 23,-19.2 C22.9,-19.2 22.9,-19.2 22.8,-19.2 L19.5,-18.5 L19.5,-33.4 L16.7,-33.4 L16.7,-17.9 L7.8,-16.1 L7.8,-30.2 L5,-30.2 L5,-15.5 L1.1,-14.7 C0.5,-14.6 0,-13.9 0,-13.3 L0,-13.1 L0,-7.3 L0,-7.5 C0,-6.7 0.6,-6.1 1.4,-6.1 C1.5,-6.1 1.6,-6.1 1.7,-6.1 L5,-6.8 L5,9.7 L1.1,10.5 C0.5,10.6 0,11.3 0,11.9 L0,17.7 C0,18.5 0.6,19.1 1.4,19.1 C1.5,19.1 1.6,19.1 1.7,19.1 L5,18.4 L5,33.3 L7.8,33.3 L7.8,17.8 L16.7,16 L16.7,30.1 L19.5,30.1 L19.5,15.4 L23.3,14.7 C23.9,14.6 24.4,13.9 24.4,13.3 L24.4,7.4 C24.4,6.6 23.8,6 23,6 C22.9,6 22.9,6 22.8,6 L19.5,6.7 L19.5,-9.8 L23.3,-10.5 M7.8,-7.4 L16.7,-9.2 L16.7,7.3 L7.8,9.2 L7.8,-7.4 "/>
<path class="KeySig" transform="matrix(0.992,0,0,0.992,340.442,1279)" d="M23.3,-10.5 C23.9,-10.6 24.4,-11.3 24.4,-11.9 L24.4,-17.8 C24.4,-18.6 23.8,-19.2 23,-19.2 C22.9,-19.2 22.9,-19.2 22.8,-19.2 L19.5,-18.5 L19.5,-33.4 L16.7,-33.4 L16.7,-17.9 L7.8,-16.1 L7.8,-30.2 L5,-30.2 L5,-15.5 L1.1,-14.7 C0.5,-14.6 0,-13.9 0,-13.3 L0,-13.1 L0,-7.3 L0,-7.5 C0,-6.7 0.6,-6.1 1.4,-6.1 C1.5,-6.1 1.6,-6.1 1.7,-6.1 L5,-6.8 L5,9.7 L1.1,10.5 C0.5,10.6 0,11.3 0,11.9 L0,17.7 C0,18.5 0.6,19.1 1.4,19.1 C1.5,19.1 1.6,19.1 1.7,19.1 L5,18.4 L5,33.3 L7.8,33.3 L7.8,17.8 L16.7,16 L16.7,30.1 L19.5,30.1 L19.5,15.4 L23.3,14.7 C23.9,14.6 24.4,13.9 24.4,13.3 L24.4,7.4 C24.4,6.6 23.8,6 23,6 C22.9,6 22.9,6 22.8,6 L19.5,6.7 L19.5,-9.8 L23.3,-10.5 M7.8,-7.4 L16.7,-9.2 L16.7,7.3 L7.8,9.2 L7.8,-7.4 "/>
<path class="KeySig" transform="matrix(0.992,0,0,0.992,313.271,634.198)" d="M23.3,-10.5 C23.9,-10.6 24.4,-11.3 24.4,-11.9 L24.4,-17.8 C24.4,-18.6 23.8,-19.2 23,-19.2 C22.9,-19.2 22.9,-19.2 22.8,-19.2 L19.5,-18.5 L19.5,-33.4 L16.7,-33.4 L16.7,-17.9 L7.8,-16.1 L7.8,-30.2 L5,-30.2 L5,-15.5 L1.1,-14.7 C0.5,-14.6 0,-13.9 0,-13.3 L0,-13.1 L0,-7.3 L0,-7.5 C0,-6.7 0.6,-6.1 1.4,-6.1 C1.5,-6.1 1.6,-6.1 1.7,-6.1 L5,-6.8 L5,9.7 L1.1,10.5 C0.5,10.6 0,11.3 0,11.9 L0,17.7 C0,18.5 0.6,19.1 1.4,19.1 C1.5,19.1 1.6,19.1 1.7,19.1 L5,18.4 L5,33.3 L7.8,33.3 L7.8,17.8 L16.7,16 L16.7,30.1 L19.5,30.1 L19.5,15.4 L23.3,14.7 C23.9,14.6 24.4,13.9 24.4,13.3 L24.4,7.4 C24.4,6.6 23.8,6 23,6 C22.9,6 22.9,6 22.8,6 L19.5,6.7 L19.5,-9.8 L23.3,-10.5 M7.8,-7.4 L16.7,-9.2 L16.7,7.3 L7.8,9.2 L7.8,-7.4 "/>
<path class="KeySig" transform="matrix(0.992,0,0,0.992,340.442,671.398)" d="M23.3,-10.5 C23.9,-10.6 24.4,-11.3 24.4,-11.9 L24.4,-17.8 C24.4,-18.6 23.8,-19.2 23,-19.2 C22.9,-19.2 22.9,-19.2 22.8,-19.2 L19.5,-18.5 L19.5,-33.4 L16.7,-33.4 L16.7,-17.9 L7.8,-16.1 L7.8,-30.2 L5,-30.2 L5,-15.5 L1.1,-14.7 C0.5,-14.6 0,-13.9 0,-13.3 L0,-13.1 L0,-7.3 L0,-7.5 C0,-6.7 0.6,-6.1 1.4,-6.1 C1.5,-6.1 1.6,-6.1 1.7,-6.1 L5,-6.8 L5,9.7 L1.1,10.5 C0.5,10.6 0,11.3 0,11.9 L0,17.7 C0,18.5 0.6,19.1 1.4,19.1 C1.5,19.1 1.6,19.1 1.7,19.1 L5,18.4 L5,33.3 L7.8,33.3 L7.8,17.8 L16.7,16 L16.7,30.1 L19.5,30.1 L19.5,15.4 L23.3,14.7 C23.9,14.6 24.4,13.9 24.4,13.3 L24.4,7.4 C24.4,6.6 23.8,6 23,6 C22.9,6 22.9,6 22.8,6 L19.5,6.7 L19.5,-9.8 L23.3,-10.5 M7.8,-7.4 L16.7,-9.2 L16.7,7.3 L7.8,9.2 L7.8,-7.4 "/>
<path class="KeySig" transform="matrix(0.992,0,0,0.992,313.271,1849.4)" d="M23.3,-10.5 C23.9,-10.6 24.4,-11.3 24.4,-11.9 L24.4,-17.8 C24.4,-18.6 23.8,-19.2 23,-19.2 C22.9,-19.2 22.9,-19.2 22.8,-19.2 L19.5,-18.5 L19.5,-33.4 L16.7,-33.4 L16.7,-17.9 L7.8,-16.1 L7.8,-30.2 L5,-30.2 L5,-15.5 L1.1,-14.7 C0.5,-14.6 0,-13.9 0,-13.3 L0,-13.1 L0,-7.3 L0,-7.5 C0,-6.7 0.6,-6.1 1.4,-6.1 C1.5,-6.1 1.6,-6.1 1.7,-6.1 L5,-6.8 L5,9.7 L1.1,10.5 C0.5,10.6 0,11.3 0,11.9 L0,17.7 C0,18.5 0.6,19.1 1.4,19.1 C1.5,19.1 1.6,19.1 1.7,19.1 L5,18.4 L5,33.3 L7.8,33.3 L7.8,17.8 L16.7,16 L16.7,30.1 L19.5,30.1 L19.5,15.4 L23.3,14.7 C23.9,14.6 24.4,13.9 24.4,13.3 L24.4,7.4 C24.4,6.6 23.8,6 23,6 C22.9,6 22.9,6 22.8,6 L19.5,6.7 L19.5,-9.8 L23.3,-10.5 M7.8,-7.4 L16.7,-9.2 L16.7,7.3 L7.8,9.2 L7.8,-7.4 "/>
<path class="KeySig" transform="matrix(0.992,0,0,0.992,340.442,1886.6)" d="M23.3,-10.5 C23.9,-10.6 24.4,-11.3 24.4,-11.9 L24.4,-17.8 C24.4,-18.6 23.8,-19.2 23,-19.2 C22.9,-19.2 22.9,-19.2 22.8,-19.2 L19.5,-18.5 L19.5,-33.4 L16.7,-33.4 L16.7,-17.9 L7.8,-16.1 L7.8,-30.2 L5,-30.2 L5,-15.5 L1.1,-14.7 C0.5,-14.6 0,-13.9 0,-13.3 L0,-13.1 L0,-7.3 L0,-7.5 C0,-6.7 0.6,-6.1 1.4,-6.1 C1.5,-6.1 1.6,-6.1 1.7,-6.1 L5,-6.8 L5,9.7 L1.1,10.5 C0.5,10.6 0,11.3 0,11.9 L0,17.7 C0,18.5 0.6,19.1 1.4,19.1 C1.5,19.1 1.6,19.1 1.7,19.1 L5,18.4 L5,33.3 L7.8,33.3 L7.8,17.8 L16.7,16 L16.7,30.1 L19.5,30.1 L19.5,15.4 L23.3,14.7 C23.9,14.6 24.4,13.9 24.4,13.3 L24.4,7.4 C24.4,6.6 23.8,6 23,6 C22.9,6 22.9,6 22.8,6 L19.5,6.7 L19.5,-9.8 L23.3,-10.5 M7.8,-7.4 L16.7,-9.2 L16.7,7.3 L7.8,9.2 L7.8,-7.4 "/>
<path class="TimeSig" transform="matrix(0.992,0,0,0.992,389.438,683.798)" d="M32.5,-17.9 C30,-16.3 28.2,-13.4 28.2,-10.2 C28.2,-9.8 28.2,-9.4 28.3,-9 C28.8,-4.9 32.1,-1.7 36.2,-1.2 C36.5,-1.2 37,-1.2 37.3,-1.2 C42.3,-1.2 46.3,-5.2 46.3,-10.2 C46.3,-10.2 46.3,-10.5 46.3,-10.8 C46.3,-11.2 46.2,-11.9 46.1,-12.3 C45.2,-16.6 41.3,-25.8 24.3,-25.8 C2.5,-25.8 0,-7.7 0,-1.2 C0,10.7 1.5,25.6 26.5,25.6 C36.4,25.6 44.1,19.8 44.5,9.1 C44.5,8.6 44.2,8.3 43.7,8.3 L42.4,8.3 C42,8.3 41.6,8.7 41.6,9.1 C41.2,17.4 35.3,22.4 26.5,22.4 C17.8,22.4 13.6,17.7 13.6,8.9 L13.6,-10.2 C13.6,-15.8 15.8,-22.2 24.7,-22.2 C29.4,-22.2 31.5,-20.5 32.6,-18.8 C32.7,-18.6 32.7,-18.5 32.7,-18.3 C32.7,-18.2 32.7,-18 32.5,-17.9"/>
<path class="Rest" transform="matrix(0.992,0,0,0.992,529.358,1291.4)" d="M26.7,-20.3 C26.6,-20.3 26.4,-20.4 26.3,-20.4 C25.7,-20.4 25.2,-20.1 25,-19.6 C24.6,-19 21.5,-13.1 17,-9.8 C15.7,-8.8 14.1,-8.1 12.5,-7.8 C13.6,-9.1 14.3,-10.7 14.3,-12.6 C14.3,-16.5 11.1,-19.7 7.2,-19.7 C3.2,-19.7 0,-16.5 0,-12.6 C0,-9.5 1.9,-7 4.5,-5.9 C6,-5.2 8,-4.7 10,-4.7 C12.9,-4.7 16,-5.6 18.7,-7.6 C19.9,-8.5 21.1,-9.7 22.2,-10.9 L10.8,24.7 L13.5,25.5 L27.5,-18.6 C27.6,-18.7 27.6,-18.9 27.6,-19.1 C27.6,-19.6 27.3,-20 26.7,-20.3"/>
<path class="Rest" transform="matrix(0.992,0,0,0.992,1578.47,683.798)" d="M23,16.6 C22.9,16.5 22.7,16.3 22.4,15.9 L10.9,1.7 C10.8,1.6 10.7,1.3 10.7,1.1 C10.7,0.8 10.8,0.4 10.9,0.2 L21.1,-15.2 C21.2,-15.4 21.3,-15.7 21.3,-15.9 L21.3,-16.8 C21.3,-17.1 21.2,-17.4 21,-17.6 L4.8,-39.5 C4.8,-39.5 4.4,-40.1 3.8,-40.1 C3.5,-40.1 3.3,-40 3,-39.8 C2.6,-39.5 2.5,-39.1 2.5,-38.8 C2.5,-38.2 2.8,-37.7 2.8,-37.7 L10.4,-27.3 C10.6,-27 10.7,-26.6 10.7,-26.1 C10.7,-25.7 10.6,-25.2 10.4,-24.9 L0.3,-9.5 C0.2,-9.3 0.1,-8.9 0.1,-8.7 L0.1,-7.8 C0.1,-7.5 0.2,-7.2 0.4,-7 L11.6,6.9 C11.2,6.8 10.3,6.6 9.1,6.6 C7.4,6.6 5.2,7 3.4,8.6 C1.2,10.6 0,13.4 0,15.9 C0,17.3 0.3,18.7 1.1,19.8 C3.2,23 10.7,32.5 10.7,32.5 C10.7,32.5 11.2,33.1 11.9,33.1 C12.1,33.1 12.3,33.1 12.5,32.9 C13,32.5 13.2,32.1 13.2,31.7 C13.2,31.3 13,31 12.9,30.8 C12.6,30.3 9.4,24.5 9.4,24.5 C9.4,24.5 8.7,23.1 8.7,21.3 C8.7,20 9.1,18.4 10.4,17.1 C11.6,15.9 13,15.5 14.3,15.5 C15.6,15.5 16.7,15.9 17.5,16.4 L21.4,18.9 C21.4,18.9 21.8,19.1 22.2,19.1 C22.6,19.1 22.9,19 23.2,18.6 C23.4,18.2 23.5,18 23.5,17.7 C23.5,17.4 23.4,17.2 23.2,16.9 L23,16.6 "/>
<path class="Rest" transform="matrix(0.992,0,0,0.992,484.964,683.798)" d="M23,16.6 C22.9,16.5 22.7,16.3 22.4,15.9 L10.9,1.7 C10.8,1.6 10.7,1.3 10.7,1.1 C10.7,0.8 10.8,0.4 10.9,0.2 L21.1,-15.2 C21.2,-15.4 21.3,-15.7 21.3,-15.9 L21.3,-16.8 C21.3,-17.1 21.2,-17.4 21,-17.6 L4.8,-39.5 C4.8,-39.5 4.4,-40.1 3.8,-40.1 C3.5,-40.1 3.3,-40 3,-39.8 C2.6,-39.5 2.5,-39.1 2.5,-38.8 C2.5,-38.2 2.8,-37.7 2.8,-37.7 L10.4,-27.3 C10.6,-27 10.7,-26.6 10.7,-26.1 C10.7,-25.7 10.6,-25.2 10.4,-24.9 L0.3,-9.5 C0.2,-9.3 0.1,-8.9 0.1,-8.7 L0.1,-7.8 C0.1,-7.5 0.2,-7.2 0.4,-7 L11.6,6.9 C11.2,6.8 10.3,6.6 9.1,6.6 C7.4,6.6 5.2,7 3.4,8.6 C1.2,10.6 0,13.4 0,15.9 C0,17.3 0.3,18.7 1.1,19.8 C3.2,23 10.7,32.5 10.7,32.5 C10.7,32.5 11.2,33.1 11.9,33.1 C12.1,33.1 12.3,33.1 12.5,32.9 C13,32.5 13.2,32.1 13.2,31.7 C13.2,31.3 13,31 12.9,30.8 C12.6,30.3 9.4,24.5 9.4,24.5 C9.4,24.5 8.7,23.1 8.7,21.3 C8.7,20 9.1,18.4 10.4,17.1 C11.6,15.9 13,15.5 14.3,15.5 C15.6,15.5 16.7,15.9 17.5,16.4 L21.4,18.9 C21.4,18.9 21.8,19.1 22.2,19.1 C22.6,19.1 22.9,19 23.2,18.6 C23.4,18.2 23.5,18 23.5,17.7 C23.5,17.4 23.4,17.2 23.2,16.9 L23,16.6 "/>
<path class="Rest" transform="matrix(0.992,0,0,0.992,2630.67,1899)" d="M23,16.6 C22.9,16.5 22.7,16.3 22.4,15.9 L10.9,1.7 C10.8,1.6 10.7,1.3 10.7,1.1 C10.7,0.8 10.8,0.4 10.9,0.2 L21.1,-15.2 C21.2,-15.4 21.3,-15.7 21.3,-15.9 L21.3,-16.8 C21.3,-17.1 21.2,-17.4 21,-17.6 L4.8,-39.5 C4.8,-39.5 4.4,-40.1 3.8,-40.1 C3.5,-40.1 3.3,-40 3,-39.8 C2.6,-39.5 2.5,-39.1 2.5,-38.8 C2.5,-38.2 2.8,-37.7 2.8,-37.7 L10.4,-27.3 C10.6,-27 10.7,-26.6 10.7,-26.1 C10.7,-25.7 10.6,-25.2 10.4,-24.9 L0.3,-9.5 C0.2,-9.3 0.1,-8.9 0.1,-8.7 L0.1,-7.8 C0.1,-7.5 0.2,-7.2 0.4,-7 L11.6,6.9 C11.2,6.8 10.3,6.6 9.1,6.6 C7.4,6.6 5.2,7 3.4,8.6 C1.2,10.6 0,13.4 0,15.9 C0,17.3 0.3,18.7 1.1,19.8 C3.2,23 10.7,32.5 10.7,32.5 C10.7,32.5 11.2,33.1 11.9,33.1 C12.1,33.1 12.3,33.1 12.5,32.9 C13,32.5 13.2,32.1 13.2,31.7 C13.2,31.3 13,31 12.9,30.8 C12.6,30.3 9.4,24.5 9.4,24.5 C9.4,24.5 8.7,23.1 8.7,21.3 C8.7,20 9.1,18.4 10.4,17.1 C11.6,15.9 13,15.5 14.3,15.5 C15.6,15.5 16.7,15.9 17.5,16.4 L21.4,18.9 C21.4,18.9 21.8,19.1 22.2,19.1 C22.6,19.1 22.9,19 23.2,18.6 C23.4,18.2 23.5,18 23.5,17.7 C23.5,17.4 23.4,17.2 23.2,16.9 L23,16.6 "/>
<path class="Rest" transform="matrix(0.992,0,0,0.992,1710.55,1291.4)" d="M0,-1 C0,0.4 0,0.4 1.4,0.4 L31.1,0.4 C32.5,0.4 32.5,0.4 32.5,-1 L32.5,-11.8 C32.5,-13.2 32.5,-13.2 31.1,-13.2 L1.4,-13.2 C0,-13.2 0,-13.2 0,-11.8 L0,-1 "/>
<path class="Rest" transform="matrix(0.992,0,0,0.992,2139.77,1291.4)" d="M0,-1 C0,0.4 0,0.4 1.4,0.4 L31.1,0.4 C32.5,0.4 32.5,0.4 32.5,-1 L32.5,-11.8 C32.5,-13.2 32.5,-13.2 31.1,-13.2 L1.4,-13.2 C0,-13.2 0,-13.2 0,-11.8 L0,-1 "/>
<path class="Rest" transform="matrix(0.992,0,0,0.992,675.497,1899)" d="M0,-1 C0,0.4 0,0.4 1.4,0.4 L31.1,0.4 C32.5,0.4 32.5,0.4 32.5,-1 L32.5,-11.8 C32.5,-13.2 32.5,-13.2 31.1,-13.2 L1.4,-13.2 C0,-13.2 0,-13.2 0,-11.8 L0,-1 "/>
<path class="Rest" transform="matrix(0.992,0,0,0.992,1319.05,1291.4)" d="M23,16.6 C22.9,16.5 22.7,16.3 22.4,15.9 L10.9,1.7 C10.8,1.6 10.7,1.3 10.7,1.1 C10.7,0.8 10.8,0.4 10.9,0.2 L21.1,-15.2 C21.2,-15.4 21.3,-15.7 21.3,-15.9 L21.3,-16.8 C21.3,-17.1 21.2,-17.4 21,-17.6 L4.8,-39.5 C4.8,-39.5 4.4,-40.1 3.8,-40.1 C3.5,-40.1 3.3,-40 3,-39.8 C2.6,-39.5 2.5,-39.1 2.5,-38.8 C2.5,-38.2 2.8,-37.7 2.8,-37.7 L10.4,-27.3 C10.6,-27 10.7,-26.6 10.7,-26.1 C10.7,-25.7 10.6,-25.2 10.4,-24.9 L0.3,-9.5 C0.2,-9.3 0.1,-8.9 0.1,-8.7 L0.1,-7.8 C0.1,-7.5 0.2,-7.2 0.4,-7 L11.6,6.9 C11.2,6.8 10.3,6.6 9.1,6.6 C7.4,6.6 5.2,7 3.4,8.6 C1.2,10.6 0,13.4 0,15.9 C0,17.3 0.3,18.7 1.1,19.8 C3.2,23 10.7,32.5 10.7,32.5 C10.7,32.5 11.2,33.1 11.9,33.1 C12.1,33.1 12.3,33.1 12.5,32.9 C13,32.5 13.2,32.1 13.2,31.7 C13.2,31.3 13,31 12.9,30.8 C12.6,30.3 9.4,24.5 9.4,24.5 C9.4,24.5 8.7,23.1 8.7,21.3 C8.7,20 9.1,18.4 10.4,17.1 C11.6,15.9 13,15.5 14.3,15.5 C15.6,15.5 16.7,15.9 17.5,16.4 L21.4,18.9 C21.4,18.9 21.8,19.1 22.2,19.1 C22.6,19.1 22.9,19 23.2,18.6 C23.4,18.2 23.5,18 23.5,17.7 C23.5,17.4 23.4,17.2 23.2,16.9 L23,16.6 "/>
<path class="Rest" transform="matrix(0.992,0,0,0.992,1966.55,683.798)" d="M26.7,-20.3 C26.6,-20.3 26.4,-20.4 26.3,-20.4 C25.7,-20.4 25.2,-20.1 25,-19.6 C24.6,-19 21.5,-13.1 17,-9.8 C15.7,-8.8 14.1,-8.1 12.5,-7.8 C13.6,-9.1 14.3,-10.7 14.3,-12.6 C14.3,-16.5 11.1,-19.7 7.2,-19.7 C3.2,-19.7 0,-16.5 0,-12.6 C0,-9.5 1.9,-7 4.5,-5.9 C6,-5.2 8,-4.7 10,-4.7 C12.9,-4.7 16,-5.6 18.7,-7.6 C19.9,-8.5 21.1,-9.7 22.2,-10.9 L10.8,24.7 L13.5,25.5 L27.5,-18.6 C27.6,-18.7 27.6,-18.9 27.6,-19.1 C27.6,-19.6 27.3,-20 26.7,-20.3"/>
<path class="Rest" transform="matrix(0.992,0,0,0.992,2606.06,1291.4)" d="M0,-1 C0,0.4 0,0.4 1.4,0.4 L31.1,0.4 C32.5,0.4 32.5,0.4 32.5,-1 L32.5,-11.8 C32.5,-13.2 32.5,-13.2 31.1,-13.2 L1.4,-13.2 C0,-13.2 0,-13.2 0,-11.8 L0,-1 "/>
<path class="Rest" transform="matrix(0.992,0,0,0.992,2513.31,683.798)" d="M23,16.6 C22.9,16.5 22.7,16.3 22.4,15.9 L10.9,1.7 C10.8,1.6 10.7,1.3 10.7,1.1 C10.7,0.8 10.8,0.4 10.9,0.2 L21.1,-15.2 C21.2,-15.4 21.3,-15.7 21.3,-15.9 L21.3,-16.8 C21.3,-17.1 21.2,-17.4 21,-17.6 L4.8,-39.5 C4.8,-39.5 4.4,-40.1 3.8,-40.1 C3.5,-40.1 3.3,-40 3,-39.8 C2.6,-39.5 2.5,-39.1 2.5,-38.8 C2.5,-38.2 2.8,-37.7 2.8,-37.7 L10.4,-27.3 C10.6,-27 10.7,-26.6 10.7,-26.1 C10.7,-25.7 10.6,-25.2 10.4,-24.9 L0.3,-9.5 C0.2,-9.3 0.1,-8.9 0.1,-8.7 L0.1,-7.8 C0.1,-7.5 0.2,-7.2 0.4,-7 L11.6,6.9 C11.2,6.8 10.3,6.6 9.1,6.6 C7.4,6.6 5.2,7 3.4,8.6 C1.2,10.6 0,13.4 0,15.9 C0,17.3 0.3,18.7 1.1,19.8 C3.2,23 10.7,32.5 10.7,32.5 C10.7,32.5 11.2,33.1 11.9,33.1 C12.1,33.1 12.3,33.1 12.5,32.9 C13,32.5 13.2,32.1 13.2,31.7 C13.2,31.3 13,31 12.9,30.8 C12.6,30.3 9.4,24.5 9.4,24.5 C9.4,24.5 8.7,23.1 8.7,21.3 C8.7,20 9.1,18.4 10.4,17.1 C11.6,15.9 13,15.5 14.3,15.5 C15.6,15.5 16.7,15.9 17.5,16.4 L21.4,18.9 C21.4,18.9 21.8,19.1 22.2,19.1 C22.6,19.1 22.9,19 23.2,18.6 C23.4,18.2 23.5,18 23.5,17.7 C23.5,17.4 23.4,17.2 23.2,16.9 L23,16.6 "/>
<path class="Beam" fill-rule="evenodd" d="M1714,646.576 L1787.01,652.776 L1787.01,665.221 L1714,659.021 L1714,646.576 "/>
<path class="Beam" fill-rule="evenodd" d="M1361.39,671.376 L1434.39,677.576 L1434.39,690.021 L1361.39,683.821 L1361.39,671.376 "/>
<path class="Beam" fill-rule="evenodd" d="M972.151,1260.4 L1180.07,1266.6 L1180.07,1279 L972.151,1272.8 L972.151,1260.4 "/>
<path class="Beam" fill-rule="evenodd" d="M533.292,1954.78 L606.875,1960.98 L606.875,1973.42 L533.292,1967.22 L533.292,1954.78 "/>
<path class="Beam" fill-rule="evenodd" d="M1043.83,652.796 L1257.88,658.996 L1257.88,671.401 L1043.83,665.201 L1043.83,652.796 "/>
<path class="Beam" fill-rule="evenodd" d="M2619.09,745.776 L2692.09,739.576 L2692.09,752.021 L2619.09,758.221 L2619.09,745.776 "/>
<path class="Beam" fill-rule="evenodd" d="M902.787,652.776 L975.79,658.976 L975.79,671.421 L902.787,665.221 L902.787,652.776 "/>
<path class="Beam" fill-rule="evenodd" d="M2002.81,1347.17 L2073.77,1353.37 L2073.77,1365.82 L2002.81,1359.62 L2002.81,1347.17 "/>
<path class="Beam" fill-rule="evenodd" d="M1603.33,1235.57 L1674.29,1229.37 L1674.29,1241.82 L1603.33,1248.02 L1603.33,1235.57 "/>
<path class="Beam" fill-rule="evenodd" d="M1795.3,1942.4 L2011.09,1942.4 L2011.09,1954.8 L1795.3,1954.8 L1795.3,1942.4 "/>
<path class="Beam" fill-rule="evenodd" d="M1007.34,1830.78 L1080.92,1824.58 L1080.92,1837.02 L1007.34,1843.22 L1007.34,1830.78 "/>
<path class="Beam" fill-rule="evenodd" d="M620.493,646.576 L693.496,652.776 L693.496,665.221 L620.493,659.021 L620.493,646.576 "/>
<path class="Beam" fill-rule="evenodd" d="M798.782,1254.17 L869.742,1260.37 L869.742,1272.82 L798.782,1266.62 L798.782,1254.17 "/>
<path class="Beam" fill-rule="evenodd" d="M1315.25,1961 L1531.23,1961 L1531.23,1973.4 L1315.25,1973.4 L1315.25,1961 "/>
<path class="Beam" fill-rule="evenodd" d="M2359.06,1229.4 L2569.8,1229.4 L2569.8,1241.8 L2359.06,1241.8 L2359.06,1229.4 "/>
<path class="Marker" d="M1360.98,1152.49 L1328.25,1152.49 L1328.25,1155.07 L1329.24,1155.07 C1332.38,1155.13 1333.42,1155.29 1333.86,1155.84 C1334.19,1156.34 1334.19,1156.45 1334.19,1159.25 L1334.19,1185.43 C1334.19,1188.24 1334.19,1188.35 1333.86,1188.84 C1333.42,1189.39 1332.38,1189.61 1329.24,1189.61 L1328.25,1189.61 L1328.25,1192.2 L1347.12,1192.2 L1347.12,1189.61 L1345.3,1189.61 C1342.17,1189.61 1341.12,1189.39 1340.68,1188.84 C1340.35,1188.35 1340.35,1188.18 1340.35,1185.43 L1340.35,1172.95 L1341.45,1172.95 C1347.12,1172.73 1349.15,1174.76 1349.37,1180.87 L1351.96,1180.87 L1351.96,1162.83 L1349.37,1162.83 C1349.04,1168.22 1346.9,1170.31 1341.67,1170.36 L1340.35,1170.36 L1340.35,1157.82 C1340.3,1155.51 1340.85,1155.13 1343.82,1155.07 L1346.35,1155.07 C1355.37,1155.02 1357.62,1157.05 1359.33,1166.51 L1361.75,1166.51 L1360.98,1152.49 M1372.89,1152.87 C1371.13,1152.87 1369.7,1154.3 1369.7,1156.06 C1369.7,1157.82 1371.13,1159.25 1372.83,1159.25 C1374.65,1159.25 1376.08,1157.82 1376.08,1156.06 C1376.08,1154.3 1374.65,1152.87 1372.89,1152.87 M1375.47,1166.57 L1365.13,1167.17 L1365.13,1169.54 L1367.94,1169.54 C1370.03,1169.59 1370.3,1169.92 1370.3,1172.29 L1370.3,1188.02 C1370.25,1188.84 1370.19,1189.17 1369.97,1189.45 C1369.59,1189.94 1368.54,1190.16 1366.18,1190.22 L1365.79,1190.22 L1365.79,1192.2 L1380.04,1192.2 L1380.04,1190.22 L1379.65,1190.22 C1375.97,1190.11 1375.47,1189.83 1375.47,1187.85 L1375.47,1166.57 M1392.45,1166.57 L1382.94,1167.17 L1382.94,1169.54 L1384.92,1169.54 C1387.01,1169.59 1387.28,1169.92 1387.28,1172.29 L1387.28,1188.02 C1387.23,1188.84 1387.17,1189.17 1386.95,1189.45 C1386.57,1189.94 1385.52,1190.16 1383.16,1190.22 L1382.94,1190.22 L1382.94,1192.2 L1396.85,1192.2 L1396.85,1190.22 L1396.63,1190.22 C1392.95,1190.11 1392.45,1189.83 1392.45,1187.85 L1392.45,1179.71 C1392.45,1177.02 1392.84,1174.54 1393.44,1173.28 C1394.6,1170.8 1397.07,1169.1 1399.44,1169.1 C1400.87,1169.1 1402.52,1169.87 1403.34,1171.02 C1404.17,1172.23 1404.55,1173.88 1404.55,1176.52 L1404.55,1188.02 C1404.5,1188.84 1404.44,1189.17 1404.22,1189.45 C1403.84,1189.94 1402.74,1190.16 1400.37,1190.22 L1400.15,1190.22 L1400.15,1192.2 L1414.07,1192.2 L1414.07,1190.22 L1413.85,1190.22 C1410.22,1190.11 1409.72,1189.83 1409.72,1187.85 L1409.72,1176.8 C1409.72,1172.84 1409.56,1171.85 1408.57,1169.98 C1407.19,1167.34 1404.44,1165.74 1401.14,1165.74 C1397.57,1165.74 1394.87,1167.39 1392.45,1171.02 L1392.45,1166.57 M1440.62,1179.82 C1440.68,1171.57 1436,1165.74 1429.29,1165.74 C1422.25,1165.74 1416.97,1171.85 1416.97,1180.1 C1416.97,1187.85 1421.98,1193.02 1429.4,1193.02 C1434.68,1193.02 1438.37,1190.44 1440.62,1185.21 L1438.7,1184.17 C1436.44,1188.4 1434.13,1190.05 1430.45,1190.05 C1427.64,1190.05 1425.61,1188.9 1424.18,1186.42 C1423.19,1184.77 1422.75,1182.85 1422.8,1179.82 L1440.62,1179.82 M1422.86,1177.46 C1422.86,1173.61 1424.62,1168.11 1429.24,1168.11 C1432.54,1168.11 1434.74,1171.02 1434.74,1175.48 C1434.74,1177.02 1434.24,1177.46 1432.48,1177.46 L1422.86,1177.46 "/>
<path class="Jump" d="M2461.49,1799.8 L2479.97,1799.8 C2484.86,1799.8 2488.6,1799.03 2491.52,1797.38 C2497.07,1794.24 2500.15,1787.97 2500.15,1779.72 C2500.15,1772.13 2497.4,1766.19 2492.34,1762.89 C2489.32,1760.97 2485.25,1760.09 2478.98,1760.09 L2461.49,1760.09 L2461.49,1762.67 L2462.53,1762.67 C2465.61,1762.73 2466.66,1762.89 2467.1,1763.44 C2467.43,1763.94 2467.43,1764.05 2467.43,1766.85 L2467.43,1793.03 C2467.43,1795.84 2467.43,1795.95 2467.1,1796.44 C2466.66,1796.99 2465.61,1797.16 2462.53,1797.21 L2461.49,1797.21 L2461.49,1799.8 M2476.72,1797.21 C2473.92,1797.21 2473.59,1796.88 2473.59,1794.19 L2473.59,1765.75 C2473.59,1763.06 2473.97,1762.67 2476.72,1762.67 L2479.58,1762.67 C2488.99,1762.67 2492.89,1767.79 2492.89,1779.94 C2492.89,1792.26 2489.37,1797.21 2480.46,1797.21 L2476.72,1797.21 M2510.21,1793.69 C2508.28,1793.69 2506.74,1795.23 2506.74,1797.1 C2506.74,1799.03 2508.28,1800.57 2510.15,1800.57 C2512.08,1800.57 2513.62,1799.03 2513.62,1797.1 C2513.62,1795.23 2512.08,1793.69 2510.21,1793.69 M2553.1,1759.7 L2551.01,1759.7 L2548.81,1762.95 C2544.79,1760.03 2542.76,1759.26 2538.96,1759.26 C2533.74,1759.26 2529.28,1761.46 2525.6,1765.86 C2522.08,1770.04 2520.43,1774.66 2520.43,1780.33 C2520.43,1792.21 2528.18,1800.62 2539.02,1800.62 C2547.82,1800.62 2553.43,1795.45 2554.69,1786.21 L2552.11,1785.77 C2550.62,1793.97 2546.44,1798.04 2539.68,1798.04 C2531.54,1798.04 2527.69,1792.43 2527.69,1780.55 C2527.69,1774.28 2528.51,1770.15 2530.38,1766.85 C2532.09,1763.77 2535.44,1761.85 2539.02,1761.85 C2542.87,1761.85 2546.28,1763.88 2548.37,1767.4 C2549.41,1769.22 2550.18,1771.25 2551.5,1775.6 L2553.92,1775.6 L2553.1,1759.7 M2564.91,1793.69 C2562.99,1793.69 2561.45,1795.23 2561.45,1797.1 C2561.45,1799.03 2562.99,1800.57 2564.86,1800.57 C2566.78,1800.57 2568.32,1799.03 2568.32,1797.1 C2568.32,1795.23 2566.78,1793.69 2564.91,1793.69 M2612.8,1782.09 C2612.8,1778.62 2612.19,1776.86 2610.6,1775.54 C2608.78,1774.06 2606.09,1773.34 2602.57,1773.34 C2596.35,1773.34 2591.84,1776.26 2591.84,1780.27 C2591.84,1782.31 2593.11,1783.63 2595.03,1783.63 C2596.79,1783.63 2598,1782.47 2598,1780.82 C2598,1780.11 2597.73,1779.34 2597.18,1778.57 C2596.85,1778.18 2596.79,1778.07 2596.79,1777.8 C2596.79,1776.7 2598.99,1775.71 2601.63,1775.71 C2603.39,1775.71 2605.32,1776.26 2606.2,1777.08 C2607.24,1777.96 2607.63,1779.28 2607.63,1781.76 L2607.63,1783.9 C2601.91,1784.89 2600.09,1785.33 2597.4,1786.38 C2592.61,1788.14 2590.36,1790.67 2590.36,1794.19 C2590.36,1798.15 2593.44,1800.62 2598.33,1800.62 C2602.13,1800.62 2605.54,1799.08 2607.9,1796.28 C2608.78,1799.08 2610.16,1800.18 2612.74,1800.18 C2615.22,1800.18 2617.8,1798.59 2617.8,1796.99 C2617.8,1796.61 2617.58,1796.33 2617.25,1796.33 C2617.03,1796.33 2616.81,1796.39 2616.43,1796.55 C2615.66,1796.88 2615.33,1796.94 2614.89,1796.94 C2613.35,1796.94 2612.8,1795.95 2612.8,1793.14 L2612.8,1782.09 M2607.63,1788.8 C2607.63,1792.1 2607.46,1792.87 2606.53,1794.3 C2605.15,1796.33 2602.68,1797.71 2600.26,1797.71 C2597.73,1797.71 2595.91,1795.89 2595.91,1793.42 C2595.91,1791.11 2597.07,1789.46 2599.49,1788.3 C2601.19,1787.53 2603.34,1786.98 2607.63,1786.27 L2607.63,1788.8 M2629.74,1759.26 L2619.56,1759.87 L2619.56,1762.23 L2622.26,1762.23 C2624.29,1762.29 2624.57,1762.62 2624.57,1764.98 L2624.57,1795.62 C2624.51,1796.44 2624.46,1796.77 2624.24,1797.05 C2623.85,1797.54 2622.81,1797.76 2620.44,1797.82 L2620.06,1797.82 L2620.06,1799.8 L2634.3,1799.8 L2634.3,1797.82 L2633.92,1797.82 C2630.23,1797.71 2629.74,1797.43 2629.74,1795.45 L2629.74,1759.26 M2685.43,1760.09 L2652.71,1760.09 L2652.71,1762.67 L2653.7,1762.67 C2656.83,1762.73 2657.88,1762.89 2658.32,1763.44 C2658.65,1763.94 2658.65,1764.05 2658.65,1766.85 L2658.65,1793.03 C2658.65,1795.84 2658.65,1795.95 2658.32,1796.44 C2657.88,1796.99 2656.83,1797.21 2653.7,1797.21 L2652.71,1797.21 L2652.71,1799.8 L2671.57,1799.8 L2671.57,1797.21 L2669.76,1797.21 C2666.62,1797.21 2665.58,1796.99 2665.14,1796.44 C2664.81,1795.95 2664.81,1795.78 2664.81,1793.03 L2664.81,1780.55 L2665.91,1780.55 C2671.57,1780.33 2673.61,1782.36 2673.83,1788.47 L2676.41,1788.47 L2676.41,1770.43 L2673.83,1770.43 C2673.5,1775.82 2671.35,1777.91 2666.13,1777.96 L2664.81,1777.96 L2664.81,1765.42 C2664.75,1763.11 2665.3,1762.73 2668.27,1762.67 L2670.8,1762.67 C2679.82,1762.62 2682.08,1764.65 2683.78,1774.11 L2686.2,1774.11 L2685.43,1760.09 M2697.34,1760.47 C2695.58,1760.47 2694.15,1761.9 2694.15,1763.66 C2694.15,1765.42 2695.58,1766.85 2697.29,1766.85 C2699.1,1766.85 2700.53,1765.42 2700.53,1763.66 C2700.53,1761.9 2699.1,1760.47 2697.34,1760.47 M2699.93,1774.17 L2689.59,1774.77 L2689.59,1777.14 L2692.39,1777.14 C2694.48,1777.19 2694.76,1777.52 2694.76,1779.89 L2694.76,1795.62 C2694.7,1796.44 2694.65,1796.77 2694.43,1797.05 C2694.04,1797.54 2693,1797.76 2690.63,1797.82 L2690.25,1797.82 L2690.25,1799.8 L2704.49,1799.8 L2704.49,1797.82 L2704.11,1797.82 C2700.42,1797.71 2699.93,1797.43 2699.93,1795.45 L2699.93,1774.17 M2716.91,1774.17 L2707.39,1774.77 L2707.39,1777.14 L2709.37,1777.14 C2711.46,1777.19 2711.74,1777.52 2711.74,1779.89 L2711.74,1795.62 C2711.68,1796.44 2711.63,1796.77 2711.41,1797.05 C2711.02,1797.54 2709.98,1797.76 2707.61,1797.82 L2707.39,1797.82 L2707.39,1799.8 L2721.31,1799.8 L2721.31,1797.82 L2721.09,1797.82 C2717.4,1797.71 2716.91,1797.43 2716.91,1795.45 L2716.91,1787.31 C2716.91,1784.62 2717.29,1782.14 2717.9,1780.88 C2719.05,1778.4 2721.53,1776.7 2723.89,1776.7 C2725.32,1776.7 2726.97,1777.47 2727.8,1778.62 C2728.62,1779.83 2729.01,1781.48 2729.01,1784.12 L2729.01,1795.62 C2728.95,1796.44 2728.9,1796.77 2728.68,1797.05 C2728.29,1797.54 2727.19,1797.76 2724.83,1797.82 L2724.61,1797.82 L2724.61,1799.8 L2738.52,1799.8 L2738.52,1797.82 L2738.3,1797.82 C2734.67,1797.71 2734.18,1797.43 2734.18,1795.45 L2734.18,1784.4 C2734.18,1780.44 2734.01,1779.45 2733.02,1777.58 C2731.65,1774.94 2728.9,1773.34 2725.6,1773.34 C2722.02,1773.34 2719.33,1774.99 2716.91,1778.62 L2716.91,1774.17 M2765.08,1787.42 C2765.13,1779.17 2760.46,1773.34 2753.75,1773.34 C2746.71,1773.34 2741.43,1779.45 2741.43,1787.7 C2741.43,1795.45 2746.43,1800.62 2753.86,1800.62 C2759.14,1800.62 2762.82,1798.04 2765.08,1792.81 L2763.15,1791.77 C2760.9,1796 2758.59,1797.65 2754.9,1797.65 C2752.1,1797.65 2750.06,1796.5 2748.63,1794.02 C2747.64,1792.37 2747.2,1790.45 2747.26,1787.42 L2765.08,1787.42 M2747.31,1785.06 C2747.31,1781.21 2749.07,1775.71 2753.69,1775.71 C2756.99,1775.71 2759.19,1778.62 2759.19,1783.08 C2759.19,1784.62 2758.7,1785.06 2756.94,1785.06 L2747.31,1785.06 "/>
<path class="Tempo" d="M244.327,474.12 L241.06,474.12 L241.06,516.393 C239.971,515.7 238.585,515.304 237.001,515.106 C233.437,515.106 230.566,515.502 227.398,517.284 C223.438,519.363 219.082,523.719 219.082,528.57 C219.082,529.659 219.28,530.748 219.874,531.738 C221.161,534.213 224.23,535.599 227.695,535.599 C234.625,535.599 244.327,529.659 244.327,522.135 L244.327,474.12 "/>
<path class="Tempo" d="M266.578,512.076 L296.818,512.076 L296.818,505.176 L266.578,505.176 L266.578,512.076 M266.578,524.436 L296.818,524.436 L296.818,517.536 L266.578,517.536 L266.578,524.436 M339.356,487.476 L337.256,487.476 C333.476,490.296 329.216,491.496 322.076,491.616 L322.076,494.976 L324.596,494.976 C329.936,494.976 329.996,495.096 329.936,500.016 L329.936,521.316 C329.936,525.036 329.936,525.216 329.516,525.816 C328.976,526.476 327.776,526.716 324.536,526.716 L322.616,526.716 L322.616,529.956 L346.556,529.956 L346.556,526.716 L344.636,526.716 C341.456,526.716 340.316,526.476 339.776,525.816 C339.356,525.216 339.356,524.976 339.356,521.316 L339.356,487.476 M373.794,487.476 L371.694,487.476 C367.914,490.296 363.654,491.496 356.514,491.616 L356.514,494.976 L359.034,494.976 C364.374,494.976 364.434,495.096 364.374,500.016 L364.374,521.316 C364.374,525.036 364.374,525.216 363.954,525.816 C363.414,526.476 362.214,526.716 358.974,526.716 L357.054,526.716 L357.054,529.956 L380.994,529.956 L380.994,526.716 L379.074,526.716 C375.894,526.716 374.754,526.476 374.214,525.816 C373.794,525.216 373.794,524.976 373.794,521.316 L373.794,487.476 M414.591,513.996 L413.931,516.996 C413.391,519.396 413.031,520.176 412.551,520.476 C411.951,520.896 411.831,520.896 408.051,520.956 L396.471,520.956 C398.571,519.156 400.131,518.016 402.471,516.456 C410.931,510.996 412.671,509.676 414.411,507.456 C416.451,504.756 417.651,501.576 417.651,498.756 C417.651,492.336 411.351,487.476 402.891,487.476 C394.731,487.476 388.431,492.756 388.431,499.596 C388.431,503.796 390.771,506.496 394.371,506.496 C397.491,506.496 399.471,504.516 399.471,501.396 C399.471,498.816 398.331,497.316 395.571,495.996 C394.911,495.696 394.611,495.336 394.611,494.856 C394.611,492.936 397.851,490.896 400.851,490.896 C405.051,490.896 407.451,493.476 407.451,497.916 C407.451,502.896 405.531,506.436 399.171,513.216 C392.451,520.356 390.111,523.056 387.111,527.376 L387.111,530.196 C388.671,530.016 389.331,529.956 390.231,529.956 L412.791,529.956 C413.931,529.956 414.651,530.016 416.451,530.196 L417.831,513.996 L414.591,513.996 "/>
</svg>
