<?xml version="1.0" encoding="UTF-8" standalone="no"?>
<svg width="210.058mm" height="296.926mm" viewBox="0 0 2977.2 4208.4"
 xmlns="http://www.w3.org/2000/svg" xmlns:xlink="http://www.w3.org/1999/xlink" version="1.2" baseProfile="full">
<title>ロシアより愛をこめて</title>
<desc>Generated by MuseScore Studio 4.5.2</desc>
<path class="" fill="#ffffff" fill-rule="evenodd" d="M0,0 L2977.2,0 L2977.2,4208.4 L0,4208.4 L0,0 "/>
<polyline class="StaffLines" fill="none" stroke="#000000" stroke-width="2.73" stroke-linejoin="bevel" points="212.598,634.198 2764.6,634.198" />
<polyline class="StaffLines" fill="none" stroke="#000000" stroke-width="2.73" stroke-linejoin="bevel" points="212.598,658.998 2764.6,658.998" />
<polyline class="StaffLines" fill="none" stroke="#000000" stroke-width="2.73" stroke-linejoin="bevel" points="212.598,683.798 2764.6,683.798" />
<polyline class="StaffLines" fill="none" stroke="#000000" stroke-width="2.73" stroke-linejoin="bevel" points="212.598,708.598 2764.6,708.598" />
<polyline class="StaffLines" fill="none" stroke="#000000" stroke-width="2.73" stroke-linejoin="bevel" points="212.598,733.398 2764.6,733.398" />
<polyline class="StaffLines" fill="none" stroke="#000000" stroke-width="2.73" stroke-linejoin="bevel" points="212.598,1192.2 2764.6,1192.2" />
<polyline class="StaffLines" fill="none" stroke="#000000" stroke-width="2.73" stroke-linejoin="bevel" points="212.598,1217 2764.6,1217" />
<polyline class="StaffLines" fill="none" stroke="#000000" stroke-width="2.73" stroke-linejoin="bevel" points="212.598,1241.8 2764.6,1241.8" />
<polyline class="StaffLines" fill="none" stroke="#000000" stroke-width="2.73" stroke-linejoin="bevel" points="212.598,1266.6 2764.6,1266.6" />
<polyline class="StaffLines" fill="none" stroke="#000000" stroke-width="2.73" stroke-linejoin="bevel" points="212.598,1291.4 2764.6,1291.4" />
<polyline class="StaffLines" fill="none" stroke="#000000" stroke-width="2.73" stroke-linejoin="bevel" points="212.598,1750.2 2764.6,1750.2" />
<polyline class="StaffLines" fill="none" stroke="#000000" stroke-width="2.73" stroke-linejoin="bevel" points="212.598,1775 2764.6,1775" />
<polyline class="StaffLines" fill="none" stroke="#000000" stroke-width="2.73" stroke-linejoin="bevel" points="212.598,1799.8 2764.6,1799.8" />
<polyline class="StaffLines" fill="none" stroke="#000000" stroke-width="2.73" stroke-linejoin="bevel" points="212.598,1824.6 2764.6,1824.6" />
<polyline class="StaffLines" fill="none" stroke="#000000" stroke-width="2.73" stroke-linejoin="bevel" points="212.598,1849.4 2764.6,1849.4" />
<polyline class="StaffLines" fill="none" stroke="#000000" stroke-width="2.73" stroke-linejoin="bevel" points="212.598,2308.2 2764.6,2308.2" />
<polyline class="StaffLines" fill="none" stroke="#000000" stroke-width="2.73" stroke-linejoin="bevel" points="212.598,2333 2764.6,2333" />
<polyline class="StaffLines" fill="none" stroke="#000000" stroke-width="2.73" stroke-linejoin="bevel" points="212.598,2357.8 2764.6,2357.8" />
<polyline class="StaffLines" fill="none" stroke="#000000" stroke-width="2.73" stroke-linejoin="bevel" points="212.598,2382.6 2764.6,2382.6" />
<polyline class="StaffLines" fill="none" stroke="#000000" stroke-width="2.73" stroke-linejoin="bevel" points="212.598,2407.4 2764.6,2407.4" />
<path class="Text" d="M1018.08,295.969 L1018.08,303.779 L1026.44,303.779 C1026.22,301.469 1026.11,298.609 1026.11,295.309 L1026.11,235.799 C1026.11,231.289 1026.11,229.859 1026.44,227.219 C1023.91,227.549 1022.59,227.549 1017.86,227.549 L959.228,227.549 C954.938,227.549 952.848,227.439 950.648,227.219 C950.978,229.859 951.088,231.289 951.088,235.799 L951.088,295.529 C951.088,299.159 950.978,301.359 950.648,303.779 L959.118,303.779 L959.118,295.969 L1018.08,295.969 M1018.08,288.819 L959.118,288.819 L959.118,234.809 L1018.08,234.809 L1018.08,288.819 M1068.13,227.109 C1076.16,229.859 1087.6,236.019 1095.19,241.629 L1099.7,234.259 C1090.35,228.429 1083.2,224.799 1072.42,220.399 L1068.13,227.109 M1059.44,253.399 C1069.45,257.139 1079.46,262.639 1087.49,268.469 L1091.78,261.099 C1082.21,255.049 1074.29,250.979 1063.84,246.689 L1059.44,253.399 M1063.18,306.089 C1064.83,305.539 1065.27,305.319 1067.47,304.879 C1069.67,304.439 1071.65,303.999 1073.41,303.669 C1082.43,301.799 1093.54,298.059 1101.24,294.209 C1120.6,284.639 1134.02,269.679 1143.59,246.799 C1140.62,244.819 1139.52,243.829 1136.77,240.969 C1133.36,250.649 1129.73,257.579 1123.57,265.609 C1114.66,277.159 1104.21,284.969 1090.57,290.139 C1079.57,294.319 1068.13,296.959 1060.98,296.959 L1063.18,306.089 M1249.52,223.809 C1247.54,224.579 1247.54,224.579 1240.17,224.579 L1181.1,224.579 C1174.83,224.579 1171.75,224.359 1168.01,223.809 L1168.01,232.279 C1172.08,231.839 1174.94,231.729 1180.99,231.729 L1243.47,231.729 C1240.28,237.999 1236.21,243.389 1231.15,248.119 C1225.98,252.959 1221.47,255.599 1213.77,258.569 C1216.63,261.099 1217.51,262.089 1219.16,264.839 C1233.46,258.239 1243.69,248.229 1251.28,233.489 C1252.6,230.849 1252.82,230.519 1253.92,229.089 L1249.52,223.809 M1201.56,242.949 C1201.89,245.039 1202,245.809 1202,248.889 C1202,270.339 1197.71,281.559 1186.05,290.909 C1180.33,295.639 1174.83,298.389 1165.92,301.029 C1168.56,303.779 1169.33,304.879 1170.98,308.399 C1184.29,303.339 1192.43,297.839 1199.14,289.369 C1206.62,279.909 1209.7,269.019 1210.03,250.649 C1210.14,244.929 1210.14,244.929 1210.47,242.949 L1201.56,242.949 "/>
<path class="Text" d="M1312.88,216.329 C1313.32,218.969 1313.32,219.849 1313.43,225.239 C1313.54,240.969 1314.31,262.199 1315.19,274.849 C1315.19,275.179 1315.19,275.399 1315.19,275.509 C1315.3,275.949 1315.3,276.059 1315.3,276.499 C1314.97,276.279 1314.97,276.279 1314.75,276.279 C1314.31,276.279 1314.31,276.169 1313.76,276.059 C1311.45,275.509 1307.49,275.069 1304.19,275.069 C1288.57,275.069 1278.34,281.889 1278.34,292.449 C1278.34,302.569 1287.03,308.729 1301.22,308.729 C1310.35,308.729 1317.39,305.979 1320.8,301.139 C1322.56,298.719 1323.55,294.649 1323.55,290.029 C1323.55,288.599 1323.33,286.509 1323.11,285.299 C1324.1,285.849 1324.21,285.849 1325.75,286.509 C1329.49,288.159 1335.54,291.569 1340.6,294.979 C1346.54,298.939 1349.73,301.689 1352.04,304.549 L1357.21,296.849 C1354.46,295.199 1354.46,295.089 1352.15,293.439 C1340.71,285.189 1331.69,280.349 1322.78,277.819 C1322.23,270.779 1321.68,260.109 1321.35,249.439 C1330.48,249.219 1337.96,248.559 1347.86,247.019 C1352.59,246.359 1352.59,246.359 1354.46,246.249 L1353.47,238.109 C1347.42,240.529 1333.34,242.289 1321.24,242.289 C1321.02,234.479 1321.02,233.269 1321.02,230.849 C1321.02,222.269 1321.13,219.079 1321.68,216.329 L1312.88,216.329 M1315.41,283.539 C1315.52,283.539 1315.74,287.939 1315.74,289.589 C1315.74,293.769 1314.97,296.079 1313.1,297.839 C1310.46,300.149 1306.17,301.469 1300.89,301.469 C1295.06,301.469 1290,299.819 1287.69,297.069 C1286.7,295.969 1286.04,294.099 1286.04,292.339 C1286.04,285.959 1292.86,281.999 1304.08,281.999 C1308.37,281.999 1310.9,282.329 1315.41,283.539 M1402.86,215.889 C1402.86,217.209 1402.75,217.759 1402.53,219.409 C1399.78,238.879 1398.79,249.219 1398.79,259.999 C1398.79,260.549 1398.79,261.539 1398.79,262.529 L1399.01,273.969 L1399.12,275.949 C1399.12,276.169 1399.12,276.609 1399.12,277.159 L1407.04,276.829 C1406.93,275.179 1406.93,274.629 1406.93,274.189 C1406.93,266.159 1409.02,257.689 1412.87,249.659 C1419.14,236.789 1426.18,230.519 1434.54,230.519 C1445.1,230.519 1451.26,240.749 1451.26,258.459 C1451.26,276.059 1445.21,287.609 1432.34,294.979 C1425.96,298.609 1420.24,300.369 1410.01,301.909 C1412.43,304.879 1413.09,306.089 1414.41,309.389 C1422.11,307.739 1428.71,305.539 1433.99,302.899 C1450.49,294.649 1459.4,279.579 1459.4,259.669 C1459.4,247.899 1457.42,239.759 1452.8,232.939 C1448.51,226.559 1442.35,223.149 1435.2,223.149 C1426.62,223.149 1419.36,227.879 1413.2,237.339 C1410.01,242.289 1407.81,247.679 1406.49,253.729 C1405.94,256.039 1405.94,256.039 1405.72,256.919 L1405.28,256.809 C1405.61,251.199 1407.15,239.209 1408.91,228.099 C1409.9,222.159 1410.56,219.079 1411.44,216.769 L1402.86,215.889 "/>
<path class="Text" d="M1562.25,274.079 C1560.05,274.519 1557.52,274.629 1552.57,274.629 L1525.07,274.629 C1526.83,272.539 1527.71,271.549 1530.9,267.259 C1533.65,267.369 1534.64,267.369 1538.49,267.369 C1559.28,267.369 1559.72,267.149 1562.36,255.929 C1560.16,255.269 1558.4,254.389 1556.53,252.849 C1555.76,258.129 1555.1,259.999 1553.34,260.769 C1552.02,261.539 1547.51,261.759 1536.18,261.759 C1530.13,261.759 1526.83,261.539 1525.4,261.209 C1524.41,260.879 1524.19,260.549 1524.19,259.559 L1524.19,252.629 C1524.19,249.659 1524.3,247.679 1524.74,245.369 L1517.37,245.369 C1517.81,247.899 1517.92,250.099 1517.92,253.289 L1517.92,261.649 C1517.92,265.279 1519.13,266.379 1523.64,266.929 C1519.35,272.539 1517.59,274.409 1513.19,278.039 C1506.81,283.429 1501.86,286.179 1490.75,291.129 C1492.95,292.889 1493.94,293.989 1495.37,296.409 C1505.82,291.349 1509.89,288.709 1516.27,283.319 C1521,288.489 1525.51,292.449 1532,296.519 C1518.58,302.239 1508.02,304.989 1489.98,307.079 C1491.85,309.279 1492.62,310.599 1493.72,313.569 C1511.98,310.819 1525.4,306.859 1538.38,300.259 C1545.53,303.999 1552.13,306.639 1559.83,308.619 C1569.51,311.149 1576.44,312.469 1584.91,313.239 C1585.68,310.269 1586.56,308.399 1588.1,306.199 C1572.04,305.429 1557.85,302.349 1544.87,296.629 C1553.23,291.459 1557.74,287.719 1564.67,280.129 C1565.44,279.249 1565.66,279.139 1566.43,278.479 L1562.25,274.079 M1555.87,280.019 C1550.48,285.849 1546.08,289.149 1538.27,293.439 C1530.79,289.259 1525.73,285.189 1521.22,280.019 L1555.87,280.019 M1505.38,235.469 C1498.45,235.469 1495.59,235.359 1491.85,234.919 C1492.18,237.779 1492.29,240.089 1492.29,243.059 L1492.29,249.109 C1492.29,251.859 1492.07,254.389 1491.74,256.919 L1498.89,256.919 L1498.89,241.299 L1578.53,241.299 L1578.53,256.589 L1585.68,256.589 C1585.35,254.499 1585.13,252.079 1585.13,249.659 L1585.13,243.279 C1585.13,239.979 1585.24,237.779 1585.57,235.029 C1582.49,235.359 1578.75,235.469 1573.14,235.469 L1564.45,235.469 C1566.65,232.059 1567.42,230.739 1571.49,223.259 L1565.33,221.499 C1567.75,221.169 1572.92,220.289 1580.73,218.859 L1575.45,212.589 C1571.27,214.239 1565.11,215.559 1553.89,216.879 C1538.93,218.749 1516.82,220.069 1500.21,220.069 C1498.67,220.069 1496.91,220.069 1494.38,220.069 C1495.81,222.379 1496.25,223.369 1497.13,226.119 C1503.18,226.009 1506.37,225.899 1507.03,225.899 C1508.9,228.979 1510.33,231.839 1511.65,235.469 L1505.38,235.469 M1518.14,235.469 C1516.49,231.289 1515.17,228.759 1513.3,225.679 C1518.03,225.569 1523.97,225.239 1532.11,224.799 C1534.09,228.099 1535.63,231.619 1536.95,235.469 L1518.14,235.469 M1543.33,235.469 C1542.01,231.509 1540.91,228.979 1538.49,224.359 C1549.6,223.479 1556.09,222.819 1564.56,221.609 C1562.69,226.999 1560.6,231.179 1557.63,235.469 L1543.33,235.469 M1499.33,272.209 C1506.48,264.619 1509.89,259.559 1513.52,250.539 L1507.8,247.789 C1504.94,256.259 1501.86,260.989 1494.38,267.369 L1499.33,272.209 M1548.94,253.069 C1543.11,248.229 1541.79,247.239 1534.2,242.729 L1530.35,246.799 C1536.29,250.319 1539.48,252.849 1544.54,257.689 L1548.94,253.069 M1582.71,267.149 C1577.1,258.899 1573.47,254.609 1565.66,246.799 L1560.71,250.209 C1567.86,257.139 1571.49,261.759 1577.21,271.329 L1582.71,267.149 "/>
<path class="Text" d="M1631.77,230.959 C1620.55,230.959 1612.19,230.519 1608.23,229.749 L1608.12,237.339 C1609.33,237.229 1609.55,237.229 1610.54,237.229 C1610.87,237.229 1611.75,237.229 1612.3,237.229 C1616.37,237.339 1626.71,237.559 1628.47,237.559 C1629.02,237.559 1630.12,237.449 1630.56,237.339 C1629.9,238.439 1629.9,238.439 1629.57,238.989 C1621.65,253.069 1612.52,264.619 1604.93,270.449 L1611.09,276.609 C1612.85,273.639 1615.27,271.109 1619.56,267.479 C1628.47,259.889 1637.16,255.819 1644.09,255.819 C1649.26,255.819 1651.9,258.459 1652.78,264.509 C1645.41,267.699 1640.13,270.559 1636.39,273.309 C1628.91,278.919 1625.17,284.639 1625.17,290.689 C1625.17,302.019 1634.74,307.629 1654.43,307.629 C1662.9,307.629 1672.47,306.859 1681.16,305.429 C1683.36,305.099 1683.91,304.989 1685.56,304.879 L1684.57,296.409 C1678.3,298.939 1666.09,300.699 1655.2,300.699 C1639.69,300.699 1632.87,297.509 1632.87,290.249 C1632.87,283.649 1638.59,278.479 1653.55,271.439 C1653.66,272.759 1653.66,272.979 1653.66,274.739 C1653.66,281.449 1653.33,288.159 1653,290.579 L1660.48,290.469 C1660.26,288.929 1660.26,288.049 1660.26,286.509 C1660.26,285.519 1660.26,283.979 1660.37,281.559 C1660.48,279.359 1660.48,276.939 1660.48,275.509 C1660.48,272.759 1660.48,271.659 1660.26,268.799 C1674.01,263.409 1683.91,260.109 1689.63,259.119 L1686.11,251.419 C1684.35,252.629 1684.02,252.739 1678.63,254.609 C1673.79,256.369 1667.52,258.679 1659.49,261.869 C1658.06,253.729 1653.11,249.659 1644.97,249.659 C1639.25,249.659 1633.42,251.529 1628.36,255.049 C1627.26,255.819 1627.26,255.819 1623.3,258.899 C1623.19,258.789 1623.19,258.789 1623.08,258.569 C1623.08,258.569 1623.08,258.569 1623.08,258.459 C1623.08,258.459 1623.19,258.459 1623.19,258.349 C1623.3,258.239 1623.85,257.799 1624.62,257.249 C1625.06,256.919 1627.26,254.389 1628.36,253.069 C1632.21,248.339 1634.96,243.939 1638.26,237.449 C1651.57,237.009 1663.12,236.129 1674.56,234.589 C1676.54,234.259 1677.2,234.149 1678.96,234.039 L1678.3,226.559 C1672.25,228.539 1661.25,229.859 1643.65,230.739 C1642.66,230.739 1642.66,230.739 1641.34,230.849 C1641.89,229.859 1643.32,226.889 1644.75,223.369 C1646.62,218.859 1646.62,218.859 1647.61,217.429 L1638.81,215.889 C1638.48,219.409 1637.16,223.259 1633.53,230.959 L1631.77,230.959 M1729.45,233.709 C1730.88,233.709 1731.1,233.819 1733.08,234.039 C1740.23,234.919 1749.58,235.469 1757.28,235.469 C1763.55,235.469 1767.29,235.139 1773.89,234.039 C1772.79,234.699 1772.57,234.699 1771.8,235.139 C1770.48,235.799 1770.26,235.909 1769.05,236.569 C1764.1,239.319 1761.46,240.969 1754.42,245.699 L1760.03,250.209 C1770.81,242.399 1780.93,236.349 1787.75,233.489 L1787.2,226.229 C1781.15,227.769 1772.24,228.539 1759.37,228.539 C1746.83,228.539 1738.14,227.769 1730.11,225.899 L1729.45,233.709 M1736.05,261.869 C1727.58,269.019 1723.4,275.949 1723.4,283.099 C1723.4,290.689 1727.69,296.299 1735.94,299.709 C1741.33,301.799 1750.68,303.119 1761.24,303.119 C1770.92,303.119 1781.37,302.239 1790.94,300.589 C1792.81,300.259 1793.25,300.149 1794.68,300.039 L1793.69,291.019 C1787.53,293.549 1774.44,295.199 1760.69,295.199 C1752,295.199 1744.74,294.429 1740.56,292.999 C1734.4,290.909 1731.21,287.279 1731.21,282.219 C1731.21,277.049 1734.51,271.989 1741.66,266.049 L1736.05,261.869 M1838.02,223.699 C1838.68,225.459 1838.79,225.899 1839.45,229.529 C1840.44,235.029 1841.76,241.519 1842.53,245.039 C1837.47,248.779 1834.39,251.969 1831.53,256.259 C1827.46,262.529 1825.15,270.119 1825.15,277.269 C1825.15,290.249 1831.42,298.829 1840.99,298.829 C1847.37,298.829 1853.53,294.869 1860.57,286.289 C1869.15,275.949 1876.96,260.219 1881.91,243.169 C1897.09,246.359 1905.12,255.159 1905.12,268.579 C1905.12,274.299 1903.47,279.579 1900.28,284.199 C1896.98,289.039 1891.48,292.999 1883.78,296.189 C1877.95,298.609 1873.66,299.709 1867.39,300.259 C1870.25,303.889 1870.8,304.769 1871.68,307.629 C1876.41,306.529 1876.96,306.419 1878.61,305.979 C1887.3,303.669 1895.22,299.819 1900.83,295.089 C1908.31,288.929 1912.82,278.919 1912.82,268.689 C1912.82,252.079 1901.93,240.089 1883.67,236.679 C1884.22,234.589 1884.44,233.379 1884.99,231.509 C1887.3,221.719 1887.3,221.719 1887.96,219.959 L1879.71,218.199 C1879.49,221.389 1878.17,228.649 1876.3,235.909 C1874.76,235.799 1873.44,235.799 1872.67,235.799 C1864.42,235.799 1856.83,237.559 1849.13,241.299 C1847.7,234.919 1846.27,225.679 1846.16,222.159 L1838.02,223.699 M1844.4,252.409 C1846.82,262.529 1850.34,272.759 1854.74,281.999 C1849.79,288.049 1845.06,291.349 1841.21,291.349 C1835.82,291.349 1832.3,285.629 1832.3,276.939 C1832.3,272.209 1833.95,266.269 1836.7,261.539 C1838.68,258.019 1840.77,255.599 1844.4,252.409 M1859.69,275.949 C1859.47,275.069 1859.36,274.849 1858.81,273.419 C1854.96,264.069 1852.65,256.809 1850.56,247.899 C1856.94,244.159 1863.98,242.289 1871.79,242.289 C1872.34,242.289 1873.33,242.399 1874.54,242.399 C1871.13,254.169 1866.29,265.389 1861.12,273.529 C1860.35,274.739 1860.35,274.849 1859.8,275.949 L1859.69,275.949 M1931.62,241.079 C1937.01,239.869 1946.8,238.989 1969.57,237.449 C1981.78,236.679 1987.28,236.129 1993.77,235.029 C1989.59,237.009 1986.73,238.549 1983.32,240.859 C1970.23,249.659 1962.75,261.869 1962.75,274.629 C1962.75,283.649 1967.15,291.789 1974.96,297.069 C1981.23,301.359 1987.83,303.669 1998.72,305.539 C2000.48,305.869 2000.92,305.979 2002.13,306.199 L2003.56,297.289 C2003.12,297.289 2002.68,297.289 2002.46,297.289 C1998.28,297.289 1991.35,295.749 1985.96,293.769 C1976.17,290.029 1970.56,282.659 1970.56,273.419 C1970.56,264.289 1975.29,255.379 1984.09,248.009 C1990.14,242.839 1997.84,238.879 2005.21,236.899 C2009.39,235.909 2013.13,235.469 2017.53,235.469 L2016.87,227.219 C2015.11,227.769 2009.94,228.209 2003.78,228.429 C1989.59,229.089 1954.39,231.069 1941.3,232.059 C1937.89,232.279 1936.57,232.389 1935.03,232.389 C1934.26,232.389 1933.16,232.389 1931.07,232.389 L1931.62,241.079 "/>
<path class="MeasureNumber" d="M231.389,2250.32 L230.349,2252.16 C228.749,2254.92 228.429,2255.16 226.389,2255.2 L217.109,2255.2 C218.069,2253.92 219.829,2252.44 223.029,2250.2 C228.309,2246.56 228.669,2246.32 229.789,2245.44 C232.989,2242.96 234.309,2240.6 234.309,2237.44 C234.309,2233.24 231.189,2230.44 226.589,2230.44 C221.469,2230.44 217.029,2234.2 217.029,2238.56 C217.029,2240.8 218.229,2242.24 220.149,2242.24 C221.589,2242.24 222.709,2241.16 222.709,2239.68 C222.709,2238.64 222.189,2237.96 220.869,2237.24 C219.909,2236.76 219.749,2236.56 219.749,2236.08 C219.749,2234.36 222.709,2232.44 225.429,2232.44 C228.229,2232.44 230.109,2234.32 230.109,2237.12 C230.109,2240.12 228.789,2242.32 225.189,2245.44 C214.549,2254.68 212.949,2256.36 212.589,2258.6 L229.749,2258.6 L232.829,2250.88 L231.389,2250.32 M251.263,2243.8 C254.383,2242.32 257.303,2240.68 257.303,2236.68 C257.303,2233.04 254.223,2230.44 249.943,2230.44 C244.783,2230.44 240.783,2234.16 240.783,2239 C240.783,2241.44 241.623,2243 243.783,2244.56 C239.063,2246.36 236.543,2249.28 236.543,2252.92 C236.543,2256.8 239.743,2259.2 244.863,2259.2 C251.023,2259.2 255.423,2255.44 255.423,2250.24 C255.423,2247.08 253.703,2245.4 251.263,2243.8 M249.543,2242.84 C245.463,2240.92 243.983,2239.36 243.983,2237.08 C243.983,2234.32 246.463,2232.16 249.623,2232.16 C252.383,2232.16 254.303,2233.92 254.303,2236.44 C254.303,2239.44 252.223,2241.8 249.543,2242.84 M245.303,2245.64 C247.223,2246.52 247.863,2246.84 248.863,2247.44 C250.863,2248.64 251.943,2250.24 251.943,2252.04 C251.943,2255.12 249.063,2257.44 245.303,2257.44 C241.903,2257.44 239.783,2255.52 239.783,2252.44 C239.783,2249.44 241.703,2247.08 245.303,2245.64"/>
<path class="MeasureNumber" d="M228.958,1672.28 L227.798,1672.28 C225.598,1673.92 221.358,1675.32 218.478,1675.32 L217.998,1677.08 L220.758,1677.08 C223.198,1677.08 223.478,1677.16 223.478,1677.88 C223.478,1678.24 223.478,1678.24 223.078,1679.68 L218.798,1695.68 C218.278,1697.68 218.238,1697.8 217.878,1698.16 C217.478,1698.56 216.638,1698.68 214.518,1698.72 L212.798,1698.72 L212.598,1700.6 L227.398,1700.6 L227.638,1698.72 L225.478,1698.72 C222.878,1698.72 222.318,1698.52 222.318,1697.64 C222.318,1697.36 222.478,1696.44 222.678,1695.68 L228.958,1672.28 M248.553,1686.92 C247.553,1691.56 244.873,1699.52 239.153,1699.52 C237.993,1699.52 237.233,1699.04 237.233,1698.32 C237.233,1698.04 237.313,1697.92 237.633,1697.44 C238.033,1696.92 238.233,1696.44 238.233,1695.88 C238.233,1694.56 237.193,1693.56 235.833,1693.56 C234.233,1693.56 233.113,1694.76 233.113,1696.52 C233.113,1699.24 235.673,1701.2 239.233,1701.2 C247.993,1701.2 253.593,1690 253.593,1682.4 C253.593,1676.16 250.593,1672.44 245.633,1672.44 C239.673,1672.44 235.233,1677.92 235.233,1683.64 C235.233,1687.44 238.153,1690.32 242.033,1690.32 C244.673,1690.32 246.713,1689.24 248.553,1686.92 M245.593,1674.12 C248.153,1674.12 249.793,1676.16 249.793,1679.36 C249.793,1684.32 247.073,1687.96 243.393,1687.96 C240.873,1687.96 239.473,1686.24 239.473,1683.24 C239.473,1679.64 241.193,1674.12 245.593,1674.12"/>
<path class="MeasureNumber" d="M228.958,1114.28 L227.798,1114.28 C225.598,1115.92 221.358,1117.32 218.478,1117.32 L217.998,1119.08 L220.758,1119.08 C223.198,1119.08 223.478,1119.16 223.478,1119.88 C223.478,1120.24 223.478,1120.24 223.078,1121.68 L218.798,1137.68 C218.278,1139.68 218.238,1139.8 217.878,1140.16 C217.478,1140.56 216.638,1140.68 214.518,1140.72 L212.798,1140.72 L212.598,1142.6 L227.398,1142.6 L227.638,1140.72 L225.478,1140.72 C222.878,1140.72 222.318,1140.52 222.318,1139.64 C222.318,1139.36 222.478,1138.44 222.678,1137.68 L228.958,1114.28 M246.873,1114.44 C238.273,1114.44 233.993,1126.28 233.993,1133.32 C233.993,1139.12 236.873,1143.2 240.953,1143.2 C247.793,1143.2 253.913,1134.32 253.913,1124.4 C253.913,1118.44 251.073,1114.44 246.873,1114.44 M246.833,1116.04 C248.913,1116.04 250.033,1117.88 250.033,1121.32 C250.033,1125.24 249.033,1130.32 247.393,1134.44 C245.473,1139.44 243.553,1141.6 241.153,1141.6 C238.993,1141.6 237.793,1139.68 237.793,1136.28 C237.793,1131.08 239.633,1124.12 242.193,1119.48 C243.433,1117.24 245.033,1116.04 246.833,1116.04"/>
<path class="TieSegment" stroke="#000000" stroke-width="1.24" stroke-linecap="round" stroke-linejoin="round" fill-rule="evenodd" d="M1874.83,2264.95 C1923.7,2231.41 2070.31,2231.41 2119.18,2264.95 C2070.31,2239.34 1923.7,2239.34 1874.83,2264.95"/>
<path class="TieSegment" stroke="#000000" stroke-width="1.24" stroke-linecap="round" stroke-linejoin="round" fill-rule="evenodd" d="M2056.04,1322.24 C2095.16,1345.24 2212.5,1345.24 2251.62,1322.24 C2212.5,1353.17 2095.16,1353.17 2056.04,1322.24"/>
<path class="TieSegment" stroke="#000000" stroke-width="1.24" stroke-linecap="round" stroke-linejoin="round" fill-rule="evenodd" d="M1250.95,1719.35 C1289.53,1688.57 1405.3,1688.57 1443.89,1719.35 C1405.3,1696.51 1289.53,1696.51 1250.95,1719.35"/>
<path class="TieSegment" stroke="#000000" stroke-width="1.24" stroke-linecap="round" stroke-linejoin="round" fill-rule="evenodd" d="M1825.32,1706.95 C1863.91,1676.17 1979.67,1676.17 2018.26,1706.95 C1979.67,1684.11 1863.91,1684.11 1825.32,1706.95"/>
<polyline class="BarLine" fill="none" stroke="#000000" stroke-width="4.46" stroke-linejoin="bevel" points="1662.72,632.834 1662.72,734.762" />
<polyline class="BarLine" fill="none" stroke="#000000" stroke-width="4.46" stroke-linejoin="bevel" points="1965.13,632.834 1965.13,734.762" />
<polyline class="BarLine" fill="none" stroke="#000000" stroke-width="4.46" stroke-linejoin="bevel" points="1092.54,2306.83 1092.54,2408.76" />
<polyline class="BarLine" fill="none" stroke="#000000" stroke-width="13.64" stroke-linejoin="bevel" points="536.82,632.834 536.82,734.762" />
<polyline class="BarLine" fill="none" stroke="#000000" stroke-width="4.46" stroke-linejoin="bevel" points="555.048,632.834 555.048,734.762" />
<path class="BarLine" transform="matrix(0.992,0,0,0.992,566.456,671.398)" d="M10.4,0 C10.4,-2.9 8.1,-5.3 5.2,-5.3 C2.3,-5.3 0,-2.9 0,0 C0,2.9 2.3,5.3 5.2,5.3 C8.1,5.3 10.4,2.9 10.4,0"/>
<path class="BarLine" transform="matrix(0.992,0,0,0.992,566.456,696.198)" d="M10.4,0 C10.4,-2.9 8.1,-5.3 5.2,-5.3 C2.3,-5.3 0,-2.9 0,0 C0,2.9 2.3,5.3 5.2,5.3 C8.1,5.3 10.4,2.9 10.4,0"/>
<polyline class="BarLine" fill="none" stroke="#000000" stroke-width="4.46" stroke-linejoin="bevel" points="1342.35,2306.83 1342.35,2408.76" />
<polyline class="BarLine" fill="none" stroke="#000000" stroke-width="4.46" stroke-linejoin="bevel" points="1820.56,2306.83 1820.56,2408.76" />
<polyline class="BarLine" fill="none" stroke="#000000" stroke-width="4.46" stroke-linejoin="bevel" points="2762.37,1748.83 2762.37,1850.76" />
<polyline class="BarLine" fill="none" stroke="#000000" stroke-width="4.46" stroke-linejoin="bevel" points="2484.2,1748.83 2484.2,1850.76" />
<polyline class="BarLine" fill="none" stroke="#000000" stroke-width="4.46" stroke-linejoin="bevel" points="2247.62,1748.83 2247.62,1850.76" />
<polyline class="BarLine" fill="none" stroke="#000000" stroke-width="4.46" stroke-linejoin="bevel" points="1969.45,1748.83 1969.45,1850.76" />
<polyline class="BarLine" fill="none" stroke="#000000" stroke-width="4.46" stroke-linejoin="bevel" points="876.935,632.834 876.935,734.762" />
<polyline class="BarLine" fill="none" stroke="#000000" stroke-width="4.46" stroke-linejoin="bevel" points="1771.05,1748.83 1771.05,1850.76" />
<polyline class="BarLine" fill="none" stroke="#000000" stroke-width="4.46" stroke-linejoin="bevel" points="1395.08,1748.83 1395.08,1850.76" />
<polyline class="BarLine" fill="none" stroke="#000000" stroke-width="4.46" stroke-linejoin="bevel" points="1196.68,1748.83 1196.68,1850.76" />
<polyline class="BarLine" fill="none" stroke="#000000" stroke-width="4.46" stroke-linejoin="bevel" points="918.513,1748.83 918.513,1850.76" />
<polyline class="BarLine" fill="none" stroke="#000000" stroke-width="4.46" stroke-linejoin="bevel" points="640.343,1748.83 640.343,1850.76" />
<polyline class="BarLine" fill="none" stroke="#000000" stroke-width="4.46" stroke-linejoin="bevel" points="2070.38,2306.83 2070.38,2408.76" />
<polyline class="BarLine" fill="none" stroke="#000000" stroke-width="4.46" stroke-linejoin="bevel" points="1133.69,632.834 1133.69,734.762" />
<path class="BarLine" transform="matrix(0.992,0,0,0.992,2376.94,2345.4)" d="M10.4,0 C10.4,-2.9 8.1,-5.3 5.2,-5.3 C2.3,-5.3 0,-2.9 0,0 C0,2.9 2.3,5.3 5.2,5.3 C8.1,5.3 10.4,2.9 10.4,0"/>
<path class="BarLine" transform="matrix(0.992,0,0,0.992,2376.94,2370.2)" d="M10.4,0 C10.4,-2.9 8.1,-5.3 5.2,-5.3 C2.3,-5.3 0,-2.9 0,0 C0,2.9 2.3,5.3 5.2,5.3 C8.1,5.3 10.4,2.9 10.4,0"/>
<polyline class="BarLine" fill="none" stroke="#000000" stroke-width="4.46" stroke-linejoin="bevel" points="2398.66,2306.83 2398.66,2408.76" />
<polyline class="BarLine" fill="none" stroke="#000000" stroke-width="13.64" stroke-linejoin="bevel" points="2416.89,2306.83 2416.89,2408.76" />
<polyline class="BarLine" fill="none" stroke="#000000" stroke-width="4.46" stroke-linejoin="bevel" points="2762.37,1190.83 2762.37,1292.76" />
<polyline class="BarLine" fill="none" stroke="#000000" stroke-width="4.46" stroke-linejoin="bevel" points="2499.26,1190.83 2499.26,1292.76" />
<polyline class="BarLine" fill="none" stroke="#000000" stroke-width="4.46" stroke-linejoin="bevel" points="2512.9,1190.83 2512.9,1292.76" />
<polyline class="BarLine" fill="none" stroke="#000000" stroke-width="4.46" stroke-linejoin="bevel" points="2205.64,1190.83 2205.64,1292.76" />
<polyline class="BarLine" fill="none" stroke="#000000" stroke-width="4.46" stroke-linejoin="bevel" points="2001.83,1190.83 2001.83,1292.76" />
<polyline class="BarLine" fill="none" stroke="#000000" stroke-width="4.46" stroke-linejoin="bevel" points="1698.52,1190.83 1698.52,1292.76" />
<polyline class="BarLine" fill="none" stroke="#000000" stroke-width="4.46" stroke-linejoin="bevel" points="1449.05,1190.83 1449.05,1292.76" />
<polyline class="BarLine" fill="none" stroke="#000000" stroke-width="4.46" stroke-linejoin="bevel" points="1405.97,632.834 1405.97,734.762" />
<polyline class="BarLine" fill="none" stroke="#000000" stroke-width="4.46" stroke-linejoin="bevel" points="1199.58,1190.83 1199.58,1292.76" />
<polyline class="BarLine" fill="none" stroke="#000000" stroke-width="4.46" stroke-linejoin="bevel" points="950.102,1190.83 950.102,1292.76" />
<polyline class="BarLine" fill="none" stroke="#000000" stroke-width="4.46" stroke-linejoin="bevel" points="655.79,1190.83 655.79,1292.76" />
<polyline class="BarLine" fill="none" stroke="#000000" stroke-width="4.46" stroke-linejoin="bevel" points="2739.55,2306.83 2739.55,2408.76" />
<polyline class="BarLine" fill="none" stroke="#000000" stroke-width="13.64" stroke-linejoin="bevel" points="2757.78,2306.83 2757.78,2408.76" />
<polyline class="BarLine" fill="none" stroke="#000000" stroke-width="4.46" stroke-linejoin="bevel" points="2762.37,632.834 2762.37,734.762" />
<polyline class="BarLine" fill="none" stroke="#000000" stroke-width="4.46" stroke-linejoin="bevel" points="2490.1,632.834 2490.1,734.762" />
<polyline class="BarLine" fill="none" stroke="#000000" stroke-width="4.46" stroke-linejoin="bevel" points="2221.88,632.834 2221.88,734.762" />
<polyline class="BarLine" fill="none" stroke="#000000" stroke-width="4.46" stroke-linejoin="bevel" points="727.355,2306.83 727.355,2408.76" />
<path class="Accidental" transform="matrix(0.992,0,0,0.992,816.461,1737.8)" d="M23.3,-10.5 C23.9,-10.6 24.4,-11.3 24.4,-11.9 L24.4,-17.8 C24.4,-18.6 23.8,-19.2 23,-19.2 C22.9,-19.2 22.9,-19.2 22.8,-19.2 L19.5,-18.5 L19.5,-33.4 L16.7,-33.4 L16.7,-17.9 L7.8,-16.1 L7.8,-30.2 L5,-30.2 L5,-15.5 L1.1,-14.7 C0.5,-14.6 0,-13.9 0,-13.3 L0,-13.1 L0,-7.3 L0,-7.5 C0,-6.7 0.6,-6.1 1.4,-6.1 C1.5,-6.1 1.6,-6.1 1.7,-6.1 L5,-6.8 L5,9.7 L1.1,10.5 C0.5,10.6 0,11.3 0,11.9 L0,17.7 C0,18.5 0.6,19.1 1.4,19.1 C1.5,19.1 1.6,19.1 1.7,19.1 L5,18.4 L5,33.3 L7.8,33.3 L7.8,17.8 L16.7,16 L16.7,30.1 L19.5,30.1 L19.5,15.4 L23.3,14.7 C23.9,14.6 24.4,13.9 24.4,13.3 L24.4,7.4 C24.4,6.6 23.8,6 23,6 C22.9,6 22.9,6 22.8,6 L19.5,6.7 L19.5,-9.8 L23.3,-10.5 M7.8,-7.4 L16.7,-9.2 L16.7,7.3 L7.8,9.2 L7.8,-7.4 "/>
<path class="Accidental" transform="matrix(0.992,0,0,0.992,2076.26,1787.4)" d="M23.3,-10.5 C23.9,-10.6 24.4,-11.3 24.4,-11.9 L24.4,-17.8 C24.4,-18.6 23.8,-19.2 23,-19.2 C22.9,-19.2 22.9,-19.2 22.8,-19.2 L19.5,-18.5 L19.5,-33.4 L16.7,-33.4 L16.7,-17.9 L7.8,-16.1 L7.8,-30.2 L5,-30.2 L5,-15.5 L1.1,-14.7 C0.5,-14.6 0,-13.9 0,-13.3 L0,-13.1 L0,-7.3 L0,-7.5 C0,-6.7 0.6,-6.1 1.4,-6.1 C1.5,-6.1 1.6,-6.1 1.7,-6.1 L5,-6.8 L5,9.7 L1.1,10.5 C0.5,10.6 0,11.3 0,11.9 L0,17.7 C0,18.5 0.6,19.1 1.4,19.1 C1.5,19.1 1.6,19.1 1.7,19.1 L5,18.4 L5,33.3 L7.8,33.3 L7.8,17.8 L16.7,16 L16.7,30.1 L19.5,30.1 L19.5,15.4 L23.3,14.7 C23.9,14.6 24.4,13.9 24.4,13.3 L24.4,7.4 C24.4,6.6 23.8,6 23,6 C22.9,6 22.9,6 22.8,6 L19.5,6.7 L19.5,-9.8 L23.3,-10.5 M7.8,-7.4 L16.7,-9.2 L16.7,7.3 L7.8,9.2 L7.8,-7.4 "/>
<path class="Accidental" transform="matrix(0.992,0,0,0.992,549.405,1279)" d="M23.3,-10.5 C23.9,-10.6 24.4,-11.3 24.4,-11.9 L24.4,-17.8 C24.4,-18.6 23.8,-19.2 23,-19.2 C22.9,-19.2 22.9,-19.2 22.8,-19.2 L19.5,-18.5 L19.5,-33.4 L16.7,-33.4 L16.7,-17.9 L7.8,-16.1 L7.8,-30.2 L5,-30.2 L5,-15.5 L1.1,-14.7 C0.5,-14.6 0,-13.9 0,-13.3 L0,-13.1 L0,-7.3 L0,-7.5 C0,-6.7 0.6,-6.1 1.4,-6.1 C1.5,-6.1 1.6,-6.1 1.7,-6.1 L5,-6.8 L5,9.7 L1.1,10.5 C0.5,10.6 0,11.3 0,11.9 L0,17.7 C0,18.5 0.6,19.1 1.4,19.1 C1.5,19.1 1.6,19.1 1.7,19.1 L5,18.4 L5,33.3 L7.8,33.3 L7.8,17.8 L16.7,16 L16.7,30.1 L19.5,30.1 L19.5,15.4 L23.3,14.7 C23.9,14.6 24.4,13.9 24.4,13.3 L24.4,7.4 C24.4,6.6 23.8,6 23,6 C22.9,6 22.9,6 22.8,6 L19.5,6.7 L19.5,-9.8 L23.3,-10.5 M7.8,-7.4 L16.7,-9.2 L16.7,7.3 L7.8,9.2 L7.8,-7.4 "/>
<path class="Accidental" transform="matrix(0.992,0,0,0.992,2508.45,671.398)" d="M23.3,-10.5 C23.9,-10.6 24.4,-11.3 24.4,-11.9 L24.4,-17.8 C24.4,-18.6 23.8,-19.2 23,-19.2 C22.9,-19.2 22.9,-19.2 22.8,-19.2 L19.5,-18.5 L19.5,-33.4 L16.7,-33.4 L16.7,-17.9 L7.8,-16.1 L7.8,-30.2 L5,-30.2 L5,-15.5 L1.1,-14.7 C0.5,-14.6 0,-13.9 0,-13.3 L0,-13.1 L0,-7.3 L0,-7.5 C0,-6.7 0.6,-6.1 1.4,-6.1 C1.5,-6.1 1.6,-6.1 1.7,-6.1 L5,-6.8 L5,9.7 L1.1,10.5 C0.5,10.6 0,11.3 0,11.9 L0,17.7 C0,18.5 0.6,19.1 1.4,19.1 C1.5,19.1 1.6,19.1 1.7,19.1 L5,18.4 L5,33.3 L7.8,33.3 L7.8,17.8 L16.7,16 L16.7,30.1 L19.5,30.1 L19.5,15.4 L23.3,14.7 C23.9,14.6 24.4,13.9 24.4,13.3 L24.4,7.4 C24.4,6.6 23.8,6 23,6 C22.9,6 22.9,6 22.8,6 L19.5,6.7 L19.5,-9.8 L23.3,-10.5 M7.8,-7.4 L16.7,-9.2 L16.7,7.3 L7.8,9.2 L7.8,-7.4 "/>
<path class="Accidental" transform="matrix(0.992,0,0,0.992,2319.11,1229.4)" d="M23.3,-10.5 C23.9,-10.6 24.4,-11.3 24.4,-11.9 L24.4,-17.8 C24.4,-18.6 23.8,-19.2 23,-19.2 C22.9,-19.2 22.9,-19.2 22.8,-19.2 L19.5,-18.5 L19.5,-33.4 L16.7,-33.4 L16.7,-17.9 L7.8,-16.1 L7.8,-30.2 L5,-30.2 L5,-15.5 L1.1,-14.7 C0.5,-14.6 0,-13.9 0,-13.3 L0,-13.1 L0,-7.3 L0,-7.5 C0,-6.7 0.6,-6.1 1.4,-6.1 C1.5,-6.1 1.6,-6.1 1.7,-6.1 L5,-6.8 L5,9.7 L1.1,10.5 C0.5,10.6 0,11.3 0,11.9 L0,17.7 C0,18.5 0.6,19.1 1.4,19.1 C1.5,19.1 1.6,19.1 1.7,19.1 L5,18.4 L5,33.3 L7.8,33.3 L7.8,17.8 L16.7,16 L16.7,30.1 L19.5,30.1 L19.5,15.4 L23.3,14.7 C23.9,14.6 24.4,13.9 24.4,13.3 L24.4,7.4 C24.4,6.6 23.8,6 23,6 C22.9,6 22.9,6 22.8,6 L19.5,6.7 L19.5,-9.8 L23.3,-10.5 M7.8,-7.4 L16.7,-9.2 L16.7,7.3 L7.8,9.2 L7.8,-7.4 "/>
<path class="Accidental" transform="matrix(0.992,0,0,0.992,2240.24,683.798)" d="M20.1,-7.9 C19.5,-11.8 17.1,-15.5 12,-15.5 C7,-15.5 4.1,-12.4 3.6,-11.8 L4,-43.9 C4,-44.7 3.4,-45.3 2.6,-45.3 L1.4,-45.3 C0.6,-45.3 0,-44.7 0,-43.9 L0.5,16.2 C0.5,17 1.1,17.6 1.9,17.6 C2.1,17.6 2.5,17.5 2.7,17.4 C3.1,17.2 9.6,14 15,7.9 C18.8,3.6 20.3,-1.3 20.3,-5.4 C20.3,-6.3 20.2,-7.1 20.1,-7.9 M13.2,-4 C13.2,-2.5 12.8,2.1 10.3,5.9 C8.6,8.5 5.2,11.2 3.3,12.7 L3.6,-6.8 C3.8,-7.7 5.3,-10.6 9.3,-10.6 C12.9,-10.6 13.2,-7.2 13.2,-5.1 C13.2,-4.6 13.2,-4.3 13.2,-4"/>
<path class="Accidental" transform="matrix(0.992,0,0,0.992,1152.04,708.598)" d="M23.3,-10.5 C23.9,-10.6 24.4,-11.3 24.4,-11.9 L24.4,-17.8 C24.4,-18.6 23.8,-19.2 23,-19.2 C22.9,-19.2 22.9,-19.2 22.8,-19.2 L19.5,-18.5 L19.5,-33.4 L16.7,-33.4 L16.7,-17.9 L7.8,-16.1 L7.8,-30.2 L5,-30.2 L5,-15.5 L1.1,-14.7 C0.5,-14.6 0,-13.9 0,-13.3 L0,-13.1 L0,-7.3 L0,-7.5 C0,-6.7 0.6,-6.1 1.4,-6.1 C1.5,-6.1 1.6,-6.1 1.7,-6.1 L5,-6.8 L5,9.7 L1.1,10.5 C0.5,10.6 0,11.3 0,11.9 L0,17.7 C0,18.5 0.6,19.1 1.4,19.1 C1.5,19.1 1.6,19.1 1.7,19.1 L5,18.4 L5,33.3 L7.8,33.3 L7.8,17.8 L16.7,16 L16.7,30.1 L19.5,30.1 L19.5,15.4 L23.3,14.7 C23.9,14.6 24.4,13.9 24.4,13.3 L24.4,7.4 C24.4,6.6 23.8,6 23,6 C22.9,6 22.9,6 22.8,6 L19.5,6.7 L19.5,-9.8 L23.3,-10.5 M7.8,-7.4 L16.7,-9.2 L16.7,7.3 L7.8,9.2 L7.8,-7.4 "/>
<path class="Accidental" transform="matrix(0.992,0,0,0.992,2117.75,683.798)" d="M16.6,-18.3 C16.4,-18.5 16.1,-18.6 15.8,-18.6 C15.7,-18.6 15.5,-18.5 15.4,-18.5 L2.8,-15 L2.8,-32.5 L0,-32.5 L0,17 C0,17.8 0.6,18.3 1.4,18.3 C1.5,18.3 1.7,18.3 1.8,18.3 L14.4,14.8 L14.4,32.3 L17.1,32.3 C17.1,15.7 17.1,-0.1 17.1,-17.2 C17.1,-17.6 16.9,-18.1 16.6,-18.3 M2.8,9.7 L2.8,-6.7 L14.4,-10 L14.4,6.5 L2.8,9.7 "/>
<path class="Accidental" transform="matrix(0.992,0,0,0.992,1778.36,1316.2)" d="M23.3,-10.5 C23.9,-10.6 24.4,-11.3 24.4,-11.9 L24.4,-17.8 C24.4,-18.6 23.8,-19.2 23,-19.2 C22.9,-19.2 22.9,-19.2 22.8,-19.2 L19.5,-18.5 L19.5,-33.4 L16.7,-33.4 L16.7,-17.9 L7.8,-16.1 L7.8,-30.2 L5,-30.2 L5,-15.5 L1.1,-14.7 C0.5,-14.6 0,-13.9 0,-13.3 L0,-13.1 L0,-7.3 L0,-7.5 C0,-6.7 0.6,-6.1 1.4,-6.1 C1.5,-6.1 1.6,-6.1 1.7,-6.1 L5,-6.8 L5,9.7 L1.1,10.5 C0.5,10.6 0,11.3 0,11.9 L0,17.7 C0,18.5 0.6,19.1 1.4,19.1 C1.5,19.1 1.6,19.1 1.7,19.1 L5,18.4 L5,33.3 L7.8,33.3 L7.8,17.8 L16.7,16 L16.7,30.1 L19.5,30.1 L19.5,15.4 L23.3,14.7 C23.9,14.6 24.4,13.9 24.4,13.3 L24.4,7.4 C24.4,6.6 23.8,6 23,6 C22.9,6 22.9,6 22.8,6 L19.5,6.7 L19.5,-9.8 L23.3,-10.5 M7.8,-7.4 L16.7,-9.2 L16.7,7.3 L7.8,9.2 L7.8,-7.4 "/>
<polyline class="LedgerLine" fill="none" stroke="#000000" stroke-width="3.97" stroke-linejoin="bevel" points="387.221,1700.6 435.814,1700.6" />
<polyline class="LedgerLine" fill="none" stroke="#000000" stroke-width="3.97" stroke-linejoin="bevel" points="456.534,1725.4 505.126,1725.4" />
<polyline class="LedgerLine" fill="none" stroke="#000000" stroke-width="3.97" stroke-linejoin="bevel" points="1735.83,2283.4 1784.43,2283.4" />
<polyline class="LedgerLine" fill="none" stroke="#000000" stroke-width="3.97" stroke-linejoin="bevel" points="1994.5,1725.4 2043.1,1725.4" />
<polyline class="LedgerLine" fill="none" stroke="#000000" stroke-width="3.97" stroke-linejoin="bevel" points="2272.67,1700.6 2321.27,1700.6" />
<polyline class="LedgerLine" fill="none" stroke="#000000" stroke-width="3.97" stroke-linejoin="bevel" points="2611.7,1167.4 2660.29,1167.4" />
<polyline class="LedgerLine" fill="none" stroke="#000000" stroke-width="3.97" stroke-linejoin="bevel" points="2272.67,1725.4 2321.27,1725.4" />
<polyline class="LedgerLine" fill="none" stroke="#000000" stroke-width="3.97" stroke-linejoin="bevel" points="665.391,1725.4 713.984,1725.4" />
<polyline class="LedgerLine" fill="none" stroke="#000000" stroke-width="3.97" stroke-linejoin="bevel" points="2537.94,1167.4 2586.54,1167.4" />
<polyline class="LedgerLine" fill="none" stroke="#000000" stroke-width="3.97" stroke-linejoin="bevel" points="445.548,758.198 494.14,758.198" />
<polyline class="LedgerLine" fill="none" stroke="#000000" stroke-width="3.97" stroke-linejoin="bevel" points="1576.04,758.198 1624.63,758.198" />
<polyline class="LedgerLine" fill="none" stroke="#000000" stroke-width="3.97" stroke-linejoin="bevel" points="2537.94,1142.6 2586.54,1142.6" />
<polyline class="LedgerLine" fill="none" stroke="#000000" stroke-width="3.97" stroke-linejoin="bevel" points="445.548,782.998 494.14,782.998" />
<polyline class="LedgerLine" fill="none" stroke="#000000" stroke-width="3.97" stroke-linejoin="bevel" points="1845.61,2283.4 1898.98,2283.4" />
<polyline class="LedgerLine" fill="none" stroke="#000000" stroke-width="3.97" stroke-linejoin="bevel" points="2341.99,1725.4 2390.58,1725.4" />
<polyline class="LedgerLine" fill="none" stroke="#000000" stroke-width="3.97" stroke-linejoin="bevel" points="734.704,1725.4 783.296,1725.4" />
<polyline class="LedgerLine" fill="none" stroke="#000000" stroke-width="3.97" stroke-linejoin="bevel" points="1796.1,1725.4 1849.47,1725.4" />
<polyline class="LedgerLine" fill="none" stroke="#000000" stroke-width="3.97" stroke-linejoin="bevel" points="1576.04,782.998 1624.63,782.998" />
<polyline class="LedgerLine" fill="none" stroke="#000000" stroke-width="3.97" stroke-linejoin="bevel" points="2509.25,1700.6 2557.84,1700.6" />
<polyline class="LedgerLine" fill="none" stroke="#000000" stroke-width="3.97" stroke-linejoin="bevel" points="481.426,2283.4 530.019,2283.4" />
<polyline class="LedgerLine" fill="none" stroke="#000000" stroke-width="3.97" stroke-linejoin="bevel" points="2095.42,2283.4 2144.02,2283.4" />
<polyline class="LedgerLine" fill="none" stroke="#000000" stroke-width="3.97" stroke-linejoin="bevel" points="2274.55,2432.2 2323.15,2432.2" />
<polyline class="LedgerLine" fill="none" stroke="#000000" stroke-width="3.97" stroke-linejoin="bevel" points="2509.25,1725.4 2557.84,1725.4" />
<polyline class="LedgerLine" fill="none" stroke="#000000" stroke-width="3.97" stroke-linejoin="bevel" points="387.221,2283.4 435.814,2283.4" />
<polyline class="LedgerLine" fill="none" stroke="#000000" stroke-width="3.97" stroke-linejoin="bevel" points="2578.56,1725.4 2627.15,1725.4" />
<polyline class="LedgerLine" fill="none" stroke="#000000" stroke-width="3.97" stroke-linejoin="bevel" points="2274.55,2457 2323.15,2457" />
<polyline class="LedgerLine" fill="none" stroke="#000000" stroke-width="3.97" stroke-linejoin="bevel" points="943.561,1725.4 992.154,1725.4" />
<polyline class="LedgerLine" fill="none" stroke="#000000" stroke-width="3.97" stroke-linejoin="bevel" points="1807.02,1316.2 1855.61,1316.2" />
<polyline class="LedgerLine" fill="none" stroke="#000000" stroke-width="3.97" stroke-linejoin="bevel" points="1012.87,1725.4 1061.47,1725.4" />
<polyline class="LedgerLine" fill="none" stroke="#000000" stroke-width="3.97" stroke-linejoin="bevel" points="1723.57,1341 1772.16,1341" />
<polyline class="LedgerLine" fill="none" stroke="#000000" stroke-width="3.97" stroke-linejoin="bevel" points="1723.57,1316.2 1772.16,1316.2" />
<polyline class="LedgerLine" fill="none" stroke="#000000" stroke-width="3.97" stroke-linejoin="bevel" points="387.221,1725.4 435.814,1725.4" />
<polyline class="Stem" fill="none" stroke="#000000" stroke-width="2.48" stroke-linejoin="bevel" points="1358.45,692.23 1358.45,615.598" />
<polyline class="Stem" fill="none" stroke="#000000" stroke-width="2.48" stroke-linejoin="bevel" points="1429.56,1741.96 1429.56,1824.5" />
<polyline class="Stem" fill="none" stroke="#000000" stroke-width="2.48" stroke-linejoin="bevel" points="1762.74,1337.03 1762.74,1241.8" />
<polyline class="Stem" fill="none" stroke="#000000" stroke-width="2.48" stroke-linejoin="bevel" points="1653.52,1250.23 1653.52,1173.6" />
<polyline class="Stem" fill="none" stroke="#000000" stroke-width="2.48" stroke-linejoin="bevel" points="638.748,741.83 638.748,658.998" />
<polyline class="Stem" fill="none" stroke="#000000" stroke-width="2.48" stroke-linejoin="bevel" points="2691.95,1741.96 2691.95,1824.6" />
<polyline class="Stem" fill="none" stroke="#000000" stroke-width="2.48" stroke-linejoin="bevel" points="1846.19,1312.23 1846.19,1229.4" />
<polyline class="Stem" fill="none" stroke="#000000" stroke-width="2.48" stroke-linejoin="bevel" points="1513.27,1237.83 1513.27,1167.4" />
<polyline class="Stem" fill="none" stroke="#000000" stroke-width="2.48" stroke-linejoin="bevel" points="396.645,2275.16 396.645,2357.8" />
<polyline class="Stem" fill="none" stroke="#000000" stroke-width="2.48" stroke-linejoin="bevel" points="1404.04,1287.43 1404.04,1204.6" />
<polyline class="Stem" fill="none" stroke="#000000" stroke-width="2.48" stroke-linejoin="bevel" points="1956.83,1287.43 1956.83,1204.6" />
<polyline class="Stem" fill="none" stroke="#000000" stroke-width="2.48" stroke-linejoin="bevel" points="2587.98,1717.16 2587.98,1799.8" />
<polyline class="Stem" fill="none" stroke="#000000" stroke-width="2.48" stroke-linejoin="bevel" points="490.85,2287.56 490.85,2370.2" />
<polyline class="Stem" fill="none" stroke="#000000" stroke-width="2.48" stroke-linejoin="bevel" points="1263.79,1262.63 1263.79,1179.8" />
<polyline class="Stem" fill="none" stroke="#000000" stroke-width="2.48" stroke-linejoin="bevel" points="1154.57,1237.83 1154.57,1167.4" />
<polyline class="Stem" fill="none" stroke="#000000" stroke-width="2.48" stroke-linejoin="bevel" points="632.158,2299.96 632.158,2382.6" />
<polyline class="Stem" fill="none" stroke="#000000" stroke-width="2.48" stroke-linejoin="bevel" points="984.574,1233.56 984.574,1310" />
<polyline class="Stem" fill="none" stroke="#000000" stroke-width="2.48" stroke-linejoin="bevel" points="2269.86,1299.83 2269.86,1217" />
<polyline class="Stem" fill="none" stroke="#000000" stroke-width="2.48" stroke-linejoin="bevel" points="2518.67,1704.76 2518.67,1799.8" />
<polyline class="Stem" fill="none" stroke="#000000" stroke-width="2.48" stroke-linejoin="bevel" points="2350.75,1233.56 2350.75,1310" />
<polyline class="Stem" fill="none" stroke="#000000" stroke-width="2.48" stroke-linejoin="bevel" points="1470.18,729.43 1470.18,646.598" />
<polyline class="Stem" fill="none" stroke="#000000" stroke-width="2.48" stroke-linejoin="bevel" points="761.827,2312.36 761.827,2395" />
<polyline class="Stem" fill="none" stroke="#000000" stroke-width="2.48" stroke-linejoin="bevel" points="2424.51,1221.16 2424.51,1303.8" />
<polyline class="Stem" fill="none" stroke="#000000" stroke-width="2.48" stroke-linejoin="bevel" points="879.686,1233.56 879.686,1297.6" />
<polyline class="Stem" fill="none" stroke="#000000" stroke-width="2.48" stroke-linejoin="bevel" points="2351.41,1717.16 2351.41,1799.8" />
<polyline class="Stem" fill="none" stroke="#000000" stroke-width="2.48" stroke-linejoin="bevel" points="885.776,2316.63 885.776,2258.6" />
<polyline class="Stem" fill="none" stroke="#000000" stroke-width="2.48" stroke-linejoin="bevel" points="2547.37,1146.76 2547.37,1241.8" />
<polyline class="Stem" fill="none" stroke="#000000" stroke-width="2.48" stroke-linejoin="bevel" points="830.514,1233.56 830.514,1297.6" />
<polyline class="Stem" fill="none" stroke="#000000" stroke-width="2.48" stroke-linejoin="bevel" points="720.007,1299.83 720.007,1217" />
<polyline class="Stem" fill="none" stroke="#000000" stroke-width="2.48" stroke-linejoin="bevel" points="911.407,687.965 911.407,758.198" />
<polyline class="Stem" fill="none" stroke="#000000" stroke-width="2.48" stroke-linejoin="bevel" points="2621.13,1159.16 2621.13,1241.8" />
<polyline class="Stem" fill="none" stroke="#000000" stroke-width="2.48" stroke-linejoin="bevel" points="610.785,1275.03 610.785,1192.2" />
<polyline class="Stem" fill="none" stroke="#000000" stroke-width="2.48" stroke-linejoin="bevel" points="1406.56,2316.63 1406.56,2240.2" />
<polyline class="Stem" fill="none" stroke="#000000" stroke-width="2.48" stroke-linejoin="bevel" points="2282.1,1704.76 2282.1,1799.8" />
<polyline class="Stem" fill="none" stroke="#000000" stroke-width="2.48" stroke-linejoin="bevel" points="1213.42,704.63 1213.42,621.798" />
<polyline class="Stem" fill="none" stroke="#000000" stroke-width="2.48" stroke-linejoin="bevel" points="500.148,1250.23 500.148,1173.6" />
<polyline class="Stem" fill="none" stroke="#000000" stroke-width="2.48" stroke-linejoin="bevel" points="1532.17,2316.63 1532.17,2258.6" />
<polyline class="Stem" fill="none" stroke="#000000" stroke-width="2.48" stroke-linejoin="bevel" points="426.39,1213.03 426.39,1155" />
<polyline class="Stem" fill="none" stroke="#000000" stroke-width="2.48" stroke-linejoin="bevel" points="829.42,741.83 829.42,658.998" />
<polyline class="Stem" fill="none" stroke="#000000" stroke-width="2.48" stroke-linejoin="bevel" points="2206.95,1771.03 2206.95,1713" />
<polyline class="Stem" fill="none" stroke="#000000" stroke-width="2.48" stroke-linejoin="bevel" points="1626.38,2316.63 1626.38,2258.6" />
<polyline class="Stem" fill="none" stroke="#000000" stroke-width="2.48" stroke-linejoin="bevel" points="396.645,1704.76 396.645,1799.8" />
<polyline class="Stem" fill="none" stroke="#000000" stroke-width="2.48" stroke-linejoin="bevel" points="1670.94,2299.96 1670.94,2382.6" />
<polyline class="Stem" fill="none" stroke="#000000" stroke-width="2.48" stroke-linejoin="bevel" points="1745.26,2275.16 1745.26,2357.8" />
<polyline class="Stem" fill="none" stroke="#000000" stroke-width="2.48" stroke-linejoin="bevel" points="2137.64,1783.43 2137.64,1719.2" />
<polyline class="Stem" fill="none" stroke="#000000" stroke-width="2.48" stroke-linejoin="bevel" points="465.958,1717.16 465.958,1799.8" />
<polyline class="Stem" fill="none" stroke="#000000" stroke-width="2.48" stroke-linejoin="bevel" points="1615.21,779.03 1615.21,683.798" />
<polyline class="Stem" fill="none" stroke="#000000" stroke-width="2.48" stroke-linejoin="bevel" points="2714.85,692.23 2714.85,615.598" />
<polyline class="Stem" fill="none" stroke="#000000" stroke-width="2.48" stroke-linejoin="bevel" points="569.927,1741.96 569.927,1824.6" />
<polyline class="Stem" fill="none" stroke="#000000" stroke-width="2.48" stroke-linejoin="bevel" points="2003.93,1729.56 2003.93,1812.2" />
<polyline class="Stem" fill="none" stroke="#000000" stroke-width="2.48" stroke-linejoin="bevel" points="1086.18,692.23 1086.18,615.598" />
<polyline class="Stem" fill="none" stroke="#000000" stroke-width="2.48" stroke-linejoin="bevel" points="484.716,779.03 484.716,683.798" />
<polyline class="Stem" fill="none" stroke="#000000" stroke-width="2.48" stroke-linejoin="bevel" points="674.815,1717.16 674.815,1799.8" />
<polyline class="Stem" fill="none" stroke="#000000" stroke-width="2.48" stroke-linejoin="bevel" points="2540.08,675.565 2540.08,751.998" />
<polyline class="Stem" fill="none" stroke="#000000" stroke-width="2.48" stroke-linejoin="bevel" points="2442.58,692.23 2442.58,615.598" />
<polyline class="Stem" fill="none" stroke="#000000" stroke-width="2.48" stroke-linejoin="bevel" points="744.128,1729.56 744.128,1812.2" />
<polyline class="Stem" fill="none" stroke="#000000" stroke-width="2.48" stroke-linejoin="bevel" points="2104.85,2287.56 2104.85,2370.2" />
<polyline class="Stem" fill="none" stroke="#000000" stroke-width="2.48" stroke-linejoin="bevel" points="2267.81,687.965 2267.81,758.198" />
<polyline class="Stem" fill="none" stroke="#000000" stroke-width="2.48" stroke-linejoin="bevel" points="848.097,1741.96 848.097,1824.6" />
<polyline class="Stem" fill="none" stroke="#000000" stroke-width="2.48" stroke-linejoin="bevel" points="2144.62,687.965 2144.62,758.198" />
<polyline class="Stem" fill="none" stroke="#000000" stroke-width="2.48" stroke-linejoin="bevel" points="2313.72,2453.03 2313.72,2357.8" />
<polyline class="Stem" fill="none" stroke="#000000" stroke-width="2.48" stroke-linejoin="bevel" points="1999.6,675.565 1999.6,751.998" />
<polyline class="Stem" fill="none" stroke="#000000" stroke-width="2.48" stroke-linejoin="bevel" points="1917.61,741.83 1917.61,658.998" />
<polyline class="Stem" fill="none" stroke="#000000" stroke-width="2.48" stroke-linejoin="bevel" points="952.985,1717.16 952.985,1799.8" />
<polyline class="Stem" fill="none" stroke="#000000" stroke-width="2.48" stroke-linejoin="bevel" points="2485.69,2415.83 2485.69,2333" />
<polyline class="Stem" fill="none" stroke="#000000" stroke-width="2.48" stroke-linejoin="bevel" points="1700.64,1741.96 1700.64,1824.6" />
<polyline class="Stem" fill="none" stroke="#000000" stroke-width="2.48" stroke-linejoin="bevel" points="1022.3,1729.56 1022.3,1812.2" />
<polyline class="Stem" fill="none" stroke="#000000" stroke-width="2.48" stroke-linejoin="bevel" points="1803.21,717.03 1803.21,634.198" />
<polyline class="Stem" fill="none" stroke="#000000" stroke-width="2.48" stroke-linejoin="bevel" points="1645.96,1754.36 1645.96,1837" />
<polyline class="Stem" fill="none" stroke="#000000" stroke-width="2.48" stroke-linejoin="bevel" points="1126.27,1754.36 1126.27,1837" />
<polyline class="Stem" fill="none" stroke="#000000" stroke-width="2.48" stroke-linejoin="bevel" points="1591.28,1741.96 1591.28,1824.6" />
<polyline class="Stem" fill="none" stroke="#000000" stroke-width="2.48" stroke-linejoin="bevel" points="1521.97,1741.96 1521.97,1824.6" />
<polyline class="Stem" fill="none" stroke="#000000" stroke-width="2.48" stroke-linejoin="bevel" points="1726.94,741.83 1726.94,658.998" />
<polyline class="Stem" fill="none" stroke="#000000" stroke-width="2.48" stroke-linejoin="bevel" points="715.017,717.03 715.017,634.198" />
<path class="Hook" transform="matrix(0.992,0,0,0.992,1405.32,2240)" d="M0,22.7 C0,23 0.1,23.5 0.8,23.8 C5.1,25.2 13.7,30.6 20.2,41.7 C22,44.8 24.9,49.1 24.9,57.4 C24.9,64.6 23,72 20.4,79.2 C20.2,79.8 20,80.3 20.1,80.7 C20.1,81.1 20.2,81.4 20.6,81.6 C20.8,81.7 21,81.7 21.1,81.7 C21.8,81.7 22.3,81.3 22.7,80.6 C27.4,72.3 29,61.7 28.9,55.4 C28.9,54.9 28.9,54.6 28.9,54.2 C28.4,41.3 21,31.8 21,31.8 C21.3,31.8 11.8,19.5 9.1,15.3 C5.4,9.6 3.7,3.9 3.5,3.5 C3.4,3.2 2.5,-0.4 2.5,-0.4 C2.4,-0.8 1.9,-1.2 1.3,-1.2 C0.6,-1.2 0,-0.6 0,0.1 L0,22.7 "/>
<path class="Hook" transform="matrix(0.992,0,0,0.992,1428.32,1824.6)" d="M0,-0.1 C0,0.6 0.6,1.2 1.3,1.2 C1.8,1.2 2.4,0.8 2.5,0.4 C2.5,0.3 3.4,-3.2 3.5,-3.5 C3.6,-3.9 4.5,-7.7 8.1,-13.6 C12,-20.1 18,-24.8 23,-31.8 C27.9,-38.8 30.9,-45.4 30.9,-54.2 C30.9,-63.3 28.8,-70.9 23.5,-80.6 C23.2,-81.3 22.6,-81.7 22,-81.7 C21.8,-81.7 21.6,-81.7 21.5,-81.6 C21,-81.4 20.8,-81 20.8,-80.4 C20.8,-80.1 20.9,-79.6 21.1,-79.2 C25.1,-69.9 26.7,-64.6 26.7,-57.4 C26.7,-49.1 23.8,-44.8 22,-41.7 C15.5,-30.6 5,-25.2 0.8,-23.8 C0.1,-23.5 0,-23 0,-22.7 L0,-0.1 "/>
<path class="Note" transform="matrix(0.992,0,0,0.992,846.857,1737.8)" d="M0,4.2 C0,8.5 3.1,13.3 11.2,13.3 C21.6,13.3 32.5,4.8 32.5,-4 C32.5,-9.9 27.5,-13.2 21.3,-13.2 C11.6,-13.2 0,-5 0,4.2"/>
<path class="Note" transform="matrix(0.992,0,0,0.992,579.8,1279)" d="M0,4.2 C0,8.5 3.1,13.3 11.2,13.3 C21.6,13.3 32.5,4.8 32.5,-4 C32.5,-9.9 27.5,-13.2 21.3,-13.2 C11.6,-13.2 0,-5 0,4.2"/>
<path class="Note" transform="matrix(0.992,0,0,0.992,1428.32,1737.8)" d="M0,4.2 C0,8.5 3.1,13.3 11.2,13.3 C21.6,13.3 32.5,4.8 32.5,-4 C32.5,-9.9 27.5,-13.2 21.3,-13.2 C11.6,-13.2 0,-5 0,4.2"/>
<path class="Note" transform="matrix(0.992,0,0,0.992,2454.71,2419.8)" d="M21.3,-13.2 C11.6,-13.2 0,-5.1 0,4.2 C0,8.5 3.1,13.3 11.2,13.3 C21.6,13.3 32.5,4.8 32.5,-4 C32.5,-9.9 27.5,-13.2 21.3,-13.2 M18.6,4.4 C18.3,4.6 11,8.6 7.5,8.6 C4.2,8.6 3.5,5.9 3.5,5 C3.5,0.8 13.5,-4.1 13.9,-4.3 C14.3,-4.5 21.4,-8.5 25,-8.5 C27.4,-8.5 29,-7.1 29,-4.9 C29,-0.6 18.9,4.2 18.6,4.4"/>
<path class="Note" transform="matrix(0.992,0,0,0.992,910.167,683.798)" d="M21.3,-13.2 C11.6,-13.2 0,-5.1 0,4.2 C0,8.5 3.1,13.3 11.2,13.3 C21.6,13.3 32.5,4.8 32.5,-4 C32.5,-9.9 27.5,-13.2 21.3,-13.2 M18.6,4.4 C18.3,4.6 11,8.6 7.5,8.6 C4.2,8.6 3.5,5.9 3.5,5 C3.5,0.8 13.5,-4.1 13.9,-4.3 C14.3,-4.5 21.4,-8.5 25,-8.5 C27.4,-8.5 29,-7.1 29,-4.9 C29,-0.6 18.9,4.2 18.6,4.4"/>
<path class="Note" transform="matrix(0.992,0,0,0.992,1520.73,1737.8)" d="M0,4.2 C0,8.5 3.1,13.3 11.2,13.3 C21.6,13.3 32.5,4.8 32.5,-4 C32.5,-9.9 27.5,-13.2 21.3,-13.2 C11.6,-13.2 0,-5 0,4.2"/>
<path class="Note" transform="matrix(0.992,0,0,0.992,1125.03,1750.2)" d="M0,4.2 C0,8.5 3.1,13.3 11.2,13.3 C21.6,13.3 32.5,4.8 32.5,-4 C32.5,-9.9 27.5,-13.2 21.3,-13.2 C11.6,-13.2 0,-5 0,4.2"/>
<path class="Note" transform="matrix(0.992,0,0,0.992,1590.04,1737.8)" d="M0,4.2 C0,8.5 3.1,13.3 11.2,13.3 C21.6,13.3 32.5,4.8 32.5,-4 C32.5,-9.9 27.5,-13.2 21.3,-13.2 C11.6,-13.2 0,-5 0,4.2"/>
<path class="Note" transform="matrix(0.992,0,0,0.992,1772.22,720.998)" d="M21.3,-13.2 C11.6,-13.2 0,-5.1 0,4.2 C0,8.5 3.1,13.3 11.2,13.3 C21.6,13.3 32.5,4.8 32.5,-4 C32.5,-9.9 27.5,-13.2 21.3,-13.2 M18.6,4.4 C18.3,4.6 11,8.6 7.5,8.6 C4.2,8.6 3.5,5.9 3.5,5 C3.5,0.8 13.5,-4.1 13.9,-4.3 C14.3,-4.5 21.4,-8.5 25,-8.5 C27.4,-8.5 29,-7.1 29,-4.9 C29,-0.6 18.9,4.2 18.6,4.4"/>
<path class="Note" transform="matrix(0.992,0,0,0.992,1021.06,1725.4)" d="M21.3,-13.2 C11.6,-13.2 0,-5.1 0,4.2 C0,8.5 3.1,13.3 11.2,13.3 C21.6,13.3 32.5,4.8 32.5,-4 C32.5,-9.9 27.5,-13.2 21.3,-13.2 M18.6,4.4 C18.3,4.6 11,8.6 7.5,8.6 C4.2,8.6 3.5,5.9 3.5,5 C3.5,0.8 13.5,-4.1 13.9,-4.3 C14.3,-4.5 21.4,-8.5 25,-8.5 C27.4,-8.5 29,-7.1 29,-4.9 C29,-0.6 18.9,4.2 18.6,4.4"/>
<path class="Note" transform="matrix(0.992,0,0,0.992,1644.72,1750.2)" d="M0,4.2 C0,8.5 3.1,13.3 11.2,13.3 C21.6,13.3 32.5,4.8 32.5,-4 C32.5,-9.9 27.5,-13.2 21.3,-13.2 C11.6,-13.2 0,-5 0,4.2"/>
<path class="Note" transform="matrix(0.992,0,0,0.992,951.745,1713)" d="M0,4.2 C0,8.5 3.1,13.3 11.2,13.3 C21.6,13.3 32.5,4.8 32.5,-4 C32.5,-9.9 27.5,-13.2 21.3,-13.2 C11.6,-13.2 0,-5 0,4.2"/>
<path class="Note" transform="matrix(0.992,0,0,0.992,1699.4,1737.8)" d="M0,4.2 C0,8.5 3.1,13.3 11.2,13.3 C21.6,13.3 32.5,4.8 32.5,-4 C32.5,-9.9 27.5,-13.2 21.3,-13.2 C11.6,-13.2 0,-5 0,4.2"/>
<path class="Note" transform="matrix(0.992,0,0,0.992,1886.63,745.798)" d="M0,4.2 C0,8.5 3.1,13.3 11.2,13.3 C21.6,13.3 32.5,4.8 32.5,-4 C32.5,-9.9 27.5,-13.2 21.3,-13.2 C11.6,-13.2 0,-5 0,4.2"/>
<path class="Note" transform="matrix(0.992,0,0,0.992,1695.96,745.798)" d="M0,4.2 C0,8.5 3.1,13.3 11.2,13.3 C21.6,13.3 32.5,4.8 32.5,-4 C32.5,-9.9 27.5,-13.2 21.3,-13.2 C11.6,-13.2 0,-5 0,4.2"/>
<path class="Note" transform="matrix(0.992,0,0,0.992,742.888,1725.4)" d="M21.3,-13.2 C11.6,-13.2 0,-5.1 0,4.2 C0,8.5 3.1,13.3 11.2,13.3 C21.6,13.3 32.5,4.8 32.5,-4 C32.5,-9.9 27.5,-13.2 21.3,-13.2 M18.6,4.4 C18.3,4.6 11,8.6 7.5,8.6 C4.2,8.6 3.5,5.9 3.5,5 C3.5,0.8 13.5,-4.1 13.9,-4.3 C14.3,-4.5 21.4,-8.5 25,-8.5 C27.4,-8.5 29,-7.1 29,-4.9 C29,-0.6 18.9,4.2 18.6,4.4"/>
<path class="Note" transform="matrix(0.992,0,0,0.992,1804.29,1725.4)" d="M18.7,-13.6 C4.9,-13.6 0,-6.6 0,-0.1 C0,6.4 4.9,13.4 18.7,13.4 C32.5,13.4 37.3,6.4 37.3,-0.1 C37.3,-6.6 32.5,-13.6 18.7,-13.6 M23.8,9.6 C22.6,10 21,10.2 19.5,10.2 C16.7,10.2 14.8,9.4 13.5,6.9 C12.2,4.4 10.4,-2 10.3,-4.7 C10.1,-7.4 11.1,-9 13.5,-9.8 C14.7,-10.2 16.3,-10.4 17.8,-10.4 C20.6,-10.4 22.4,-9.8 23.8,-7.1 C25.2,-4.4 27,2 27,4.5 C27,7.1 26.2,8.9 23.8,9.6"/>
<path class="Note" transform="matrix(0.992,0,0,0.992,798.435,745.798)" d="M0,4.2 C0,8.5 3.1,13.3 11.2,13.3 C21.6,13.3 32.5,4.8 32.5,-4 C32.5,-9.9 27.5,-13.2 21.3,-13.2 C11.6,-13.2 0,-5 0,4.2"/>
<path class="Note" transform="matrix(0.992,0,0,0.992,673.575,1713)" d="M0,4.2 C0,8.5 3.1,13.3 11.2,13.3 C21.6,13.3 32.5,4.8 32.5,-4 C32.5,-9.9 27.5,-13.2 21.3,-13.2 C11.6,-13.2 0,-5 0,4.2"/>
<path class="Note" transform="matrix(0.992,0,0,0.992,568.687,1737.8)" d="M0,4.2 C0,8.5 3.1,13.3 11.2,13.3 C21.6,13.3 32.5,4.8 32.5,-4 C32.5,-9.9 27.5,-13.2 21.3,-13.2 C11.6,-13.2 0,-5 0,4.2"/>
<path class="Note" transform="matrix(0.992,0,0,0.992,464.718,1713)" d="M21.3,-13.2 C11.6,-13.2 0,-5.1 0,4.2 C0,8.5 3.1,13.3 11.2,13.3 C21.6,13.3 32.5,4.8 32.5,-4 C32.5,-9.9 27.5,-13.2 21.3,-13.2 M18.6,4.4 C18.3,4.6 11,8.6 7.5,8.6 C4.2,8.6 3.5,5.9 3.5,5 C3.5,0.8 13.5,-4.1 13.9,-4.3 C14.3,-4.5 21.4,-8.5 25,-8.5 C27.4,-8.5 29,-7.1 29,-4.9 C29,-0.6 18.9,4.2 18.6,4.4"/>
<path class="Note" transform="matrix(0.992,0,0,0.992,2002.69,1725.4)" d="M21.3,-13.2 C11.6,-13.2 0,-5.1 0,4.2 C0,8.5 3.1,13.3 11.2,13.3 C21.6,13.3 32.5,4.8 32.5,-4 C32.5,-9.9 27.5,-13.2 21.3,-13.2 M18.6,4.4 C18.3,4.6 11,8.6 7.5,8.6 C4.2,8.6 3.5,5.9 3.5,5 C3.5,0.8 13.5,-4.1 13.9,-4.3 C14.3,-4.5 21.4,-8.5 25,-8.5 C27.4,-8.5 29,-7.1 29,-4.9 C29,-0.6 18.9,4.2 18.6,4.4"/>
<path class="Note" transform="matrix(0.992,0,0,0.992,2282.74,2457)" d="M0,4.2 C0,8.5 3.1,13.3 11.2,13.3 C21.6,13.3 32.5,4.8 32.5,-4 C32.5,-9.9 27.5,-13.2 21.3,-13.2 C11.6,-13.2 0,-5 0,4.2"/>
<path class="Note" transform="matrix(0.992,0,0,0.992,395.405,1700.6)" d="M0,4.2 C0,8.5 3.1,13.3 11.2,13.3 C21.6,13.3 32.5,4.8 32.5,-4 C32.5,-9.9 27.5,-13.2 21.3,-13.2 C11.6,-13.2 0,-5 0,4.2"/>
<path class="Note" transform="matrix(0.992,0,0,0.992,2106.66,1787.4)" d="M0,4.2 C0,8.5 3.1,13.3 11.2,13.3 C21.6,13.3 32.5,4.8 32.5,-4 C32.5,-9.9 27.5,-13.2 21.3,-13.2 C11.6,-13.2 0,-5 0,4.2"/>
<path class="Note" transform="matrix(0.992,0,0,0.992,1584.22,782.998)" d="M0,4.2 C0,8.5 3.1,13.3 11.2,13.3 C21.6,13.3 32.5,4.8 32.5,-4 C32.5,-9.9 27.5,-13.2 21.3,-13.2 C11.6,-13.2 0,-5 0,4.2"/>
<path class="Note" transform="matrix(0.992,0,0,0.992,1998.36,671.398)" d="M21.3,-13.2 C11.6,-13.2 0,-5.1 0,4.2 C0,8.5 3.1,13.3 11.2,13.3 C21.6,13.3 32.5,4.8 32.5,-4 C32.5,-9.9 27.5,-13.2 21.3,-13.2 M18.6,4.4 C18.3,4.6 11,8.6 7.5,8.6 C4.2,8.6 3.5,5.9 3.5,5 C3.5,0.8 13.5,-4.1 13.9,-4.3 C14.3,-4.5 21.4,-8.5 25,-8.5 C27.4,-8.5 29,-7.1 29,-4.9 C29,-0.6 18.9,4.2 18.6,4.4"/>
<path class="Note" transform="matrix(0.992,0,0,0.992,2103.61,2283.4)" d="M21.3,-13.2 C11.6,-13.2 0,-5.1 0,4.2 C0,8.5 3.1,13.3 11.2,13.3 C21.6,13.3 32.5,4.8 32.5,-4 C32.5,-9.9 27.5,-13.2 21.3,-13.2 M18.6,4.4 C18.3,4.6 11,8.6 7.5,8.6 C4.2,8.6 3.5,5.9 3.5,5 C3.5,0.8 13.5,-4.1 13.9,-4.3 C14.3,-4.5 21.4,-8.5 25,-8.5 C27.4,-8.5 29,-7.1 29,-4.9 C29,-0.6 18.9,4.2 18.6,4.4"/>
<path class="Note" transform="matrix(0.992,0,0,0.992,2175.97,1775)" d="M0,4.2 C0,8.5 3.1,13.3 11.2,13.3 C21.6,13.3 32.5,4.8 32.5,-4 C32.5,-9.9 27.5,-13.2 21.3,-13.2 C11.6,-13.2 0,-5 0,4.2"/>
<path class="Note" transform="matrix(0.992,0,0,0.992,2143.38,683.798)" d="M0,4.2 C0,8.5 3.1,13.3 11.2,13.3 C21.6,13.3 32.5,4.8 32.5,-4 C32.5,-9.9 27.5,-13.2 21.3,-13.2 C11.6,-13.2 0,-5 0,4.2"/>
<path class="Note" transform="matrix(0.992,0,0,0.992,1055.19,696.198)" d="M0,4.2 C0,8.5 3.1,13.3 11.2,13.3 C21.6,13.3 32.5,4.8 32.5,-4 C32.5,-9.9 27.5,-13.2 21.3,-13.2 C11.6,-13.2 0,-5 0,4.2"/>
<path class="Note" transform="matrix(0.992,0,0,0.992,2266.57,683.798)" d="M21.3,-13.2 C11.6,-13.2 0,-5.1 0,4.2 C0,8.5 3.1,13.3 11.2,13.3 C21.6,13.3 32.5,4.8 32.5,-4 C32.5,-9.9 27.5,-13.2 21.3,-13.2 M18.6,4.4 C18.3,4.6 11,8.6 7.5,8.6 C4.2,8.6 3.5,5.9 3.5,5 C3.5,0.8 13.5,-4.1 13.9,-4.3 C14.3,-4.5 21.4,-8.5 25,-8.5 C27.4,-8.5 29,-7.1 29,-4.9 C29,-0.6 18.9,4.2 18.6,4.4"/>
<path class="Note" transform="matrix(0.992,0,0,0.992,2619.89,1155)" d="M21.3,-13.2 C11.6,-13.2 0,-5.1 0,4.2 C0,8.5 3.1,13.3 11.2,13.3 C21.6,13.3 32.5,4.8 32.5,-4 C32.5,-9.9 27.5,-13.2 21.3,-13.2 M18.6,4.4 C18.3,4.6 11,8.6 7.5,8.6 C4.2,8.6 3.5,5.9 3.5,5 C3.5,0.8 13.5,-4.1 13.9,-4.3 C14.3,-4.5 21.4,-8.5 25,-8.5 C27.4,-8.5 29,-7.1 29,-4.9 C29,-0.6 18.9,4.2 18.6,4.4"/>
<path class="Note" transform="matrix(0.992,0,0,0.992,2546.13,1142.6)" d="M0,4.2 C0,8.5 3.1,13.3 11.2,13.3 C21.6,13.3 32.5,4.8 32.5,-4 C32.5,-9.9 27.5,-13.2 21.3,-13.2 C11.6,-13.2 0,-5 0,4.2"/>
<path class="Note" transform="matrix(0.992,0,0,0.992,2280.86,1700.6)" d="M0,4.2 C0,8.5 3.1,13.3 11.2,13.3 C21.6,13.3 32.5,4.8 32.5,-4 C32.5,-9.9 27.5,-13.2 21.3,-13.2 C11.6,-13.2 0,-5 0,4.2"/>
<path class="Note" transform="matrix(0.992,0,0,0.992,1182.44,708.598)" d="M21.3,-13.2 C11.6,-13.2 0,-5.1 0,4.2 C0,8.5 3.1,13.3 11.2,13.3 C21.6,13.3 32.5,4.8 32.5,-4 C32.5,-9.9 27.5,-13.2 21.3,-13.2 M18.6,4.4 C18.3,4.6 11,8.6 7.5,8.6 C4.2,8.6 3.5,5.9 3.5,5 C3.5,0.8 13.5,-4.1 13.9,-4.3 C14.3,-4.5 21.4,-8.5 25,-8.5 C27.4,-8.5 29,-7.1 29,-4.9 C29,-0.6 18.9,4.2 18.6,4.4"/>
<path class="Note" transform="matrix(0.992,0,0,0.992,2423.27,1217)" d="M0,4.2 C0,8.5 3.1,13.3 11.2,13.3 C21.6,13.3 32.5,4.8 32.5,-4 C32.5,-9.9 27.5,-13.2 21.3,-13.2 C11.6,-13.2 0,-5 0,4.2"/>
<path class="Note" transform="matrix(0.992,0,0,0.992,2350.17,1713)" d="M21.3,-13.2 C11.6,-13.2 0,-5.1 0,4.2 C0,8.5 3.1,13.3 11.2,13.3 C21.6,13.3 32.5,4.8 32.5,-4 C32.5,-9.9 27.5,-13.2 21.3,-13.2 M18.6,4.4 C18.3,4.6 11,8.6 7.5,8.6 C4.2,8.6 3.5,5.9 3.5,5 C3.5,0.8 13.5,-4.1 13.9,-4.3 C14.3,-4.5 21.4,-8.5 25,-8.5 C27.4,-8.5 29,-7.1 29,-4.9 C29,-0.6 18.9,4.2 18.6,4.4"/>
<path class="Note" transform="matrix(0.992,0,0,0.992,1853.8,2283.4)" d="M18.7,-13.6 C4.9,-13.6 0,-6.6 0,-0.1 C0,6.4 4.9,13.4 18.7,13.4 C32.5,13.4 37.3,6.4 37.3,-0.1 C37.3,-6.6 32.5,-13.6 18.7,-13.6 M23.8,9.6 C22.6,10 21,10.2 19.5,10.2 C16.7,10.2 14.8,9.4 13.5,6.9 C12.2,4.4 10.4,-2 10.3,-4.7 C10.1,-7.4 11.1,-9 13.5,-9.8 C14.7,-10.2 16.3,-10.4 17.8,-10.4 C20.6,-10.4 22.4,-9.8 23.8,-7.1 C25.2,-4.4 27,2 27,4.5 C27,7.1 26.2,8.9 23.8,9.6"/>
<path class="Note" transform="matrix(0.992,0,0,0.992,684.032,720.998)" d="M21.3,-13.2 C11.6,-13.2 0,-5.1 0,4.2 C0,8.5 3.1,13.3 11.2,13.3 C21.6,13.3 32.5,4.8 32.5,-4 C32.5,-9.9 27.5,-13.2 21.3,-13.2 M18.6,4.4 C18.3,4.6 11,8.6 7.5,8.6 C4.2,8.6 3.5,5.9 3.5,5 C3.5,0.8 13.5,-4.1 13.9,-4.3 C14.3,-4.5 21.4,-8.5 25,-8.5 C27.4,-8.5 29,-7.1 29,-4.9 C29,-0.6 18.9,4.2 18.6,4.4"/>
<path class="Note" transform="matrix(0.992,0,0,0.992,2349.51,1229.4)" d="M0,4.2 C0,8.5 3.1,13.3 11.2,13.3 C21.6,13.3 32.5,4.8 32.5,-4 C32.5,-9.9 27.5,-13.2 21.3,-13.2 C11.6,-13.2 0,-5 0,4.2"/>
<path class="Note" transform="matrix(0.992,0,0,0.992,2238.87,1303.8)" d="M21.3,-13.2 C11.6,-13.2 0,-5.1 0,4.2 C0,8.5 3.1,13.3 11.2,13.3 C21.6,13.3 32.5,4.8 32.5,-4 C32.5,-9.9 27.5,-13.2 21.3,-13.2 M18.6,4.4 C18.3,4.6 11,8.6 7.5,8.6 C4.2,8.6 3.5,5.9 3.5,5 C3.5,0.8 13.5,-4.1 13.9,-4.3 C14.3,-4.5 21.4,-8.5 25,-8.5 C27.4,-8.5 29,-7.1 29,-4.9 C29,-0.6 18.9,4.2 18.6,4.4"/>
<path class="Note" transform="matrix(0.992,0,0,0.992,2035.06,1303.8)" d="M18.7,-13.6 C4.9,-13.6 0,-6.6 0,-0.1 C0,6.4 4.9,13.4 18.7,13.4 C32.5,13.4 37.3,6.4 37.3,-0.1 C37.3,-6.6 32.5,-13.6 18.7,-13.6 M23.8,9.6 C22.6,10 21,10.2 19.5,10.2 C16.7,10.2 14.8,9.4 13.5,6.9 C12.2,4.4 10.4,-2 10.3,-4.7 C10.1,-7.4 11.1,-9 13.5,-9.8 C14.7,-10.2 16.3,-10.4 17.8,-10.4 C20.6,-10.4 22.4,-9.8 23.8,-7.1 C25.2,-4.4 27,2 27,4.5 C27,7.1 26.2,8.9 23.8,9.6"/>
<path class="Note" transform="matrix(0.992,0,0,0.992,2411.6,696.198)" d="M0,4.2 C0,8.5 3.1,13.3 11.2,13.3 C21.6,13.3 32.5,4.8 32.5,-4 C32.5,-9.9 27.5,-13.2 21.3,-13.2 C11.6,-13.2 0,-5 0,4.2"/>
<path class="Note" transform="matrix(0.992,0,0,0.992,2517.43,1700.6)" d="M0,4.2 C0,8.5 3.1,13.3 11.2,13.3 C21.6,13.3 32.5,4.8 32.5,-4 C32.5,-9.9 27.5,-13.2 21.3,-13.2 C11.6,-13.2 0,-5 0,4.2"/>
<path class="Note" transform="matrix(0.992,0,0,0.992,1925.84,1291.4)" d="M0,4.2 C0,8.5 3.1,13.3 11.2,13.3 C21.6,13.3 32.5,4.8 32.5,-4 C32.5,-9.9 27.5,-13.2 21.3,-13.2 C11.6,-13.2 0,-5 0,4.2"/>
<path class="Note" transform="matrix(0.992,0,0,0.992,1815.21,1316.2)" d="M21.3,-13.2 C11.6,-13.2 0,-5.1 0,4.2 C0,8.5 3.1,13.3 11.2,13.3 C21.6,13.3 32.5,4.8 32.5,-4 C32.5,-9.9 27.5,-13.2 21.3,-13.2 M18.6,4.4 C18.3,4.6 11,8.6 7.5,8.6 C4.2,8.6 3.5,5.9 3.5,5 C3.5,0.8 13.5,-4.1 13.9,-4.3 C14.3,-4.5 21.4,-8.5 25,-8.5 C27.4,-8.5 29,-7.1 29,-4.9 C29,-0.6 18.9,4.2 18.6,4.4"/>
<path class="Note" transform="matrix(0.992,0,0,0.992,2586.74,1713)" d="M21.3,-13.2 C11.6,-13.2 0,-5.1 0,4.2 C0,8.5 3.1,13.3 11.2,13.3 C21.6,13.3 32.5,4.8 32.5,-4 C32.5,-9.9 27.5,-13.2 21.3,-13.2 M18.6,4.4 C18.3,4.6 11,8.6 7.5,8.6 C4.2,8.6 3.5,5.9 3.5,5 C3.5,0.8 13.5,-4.1 13.9,-4.3 C14.3,-4.5 21.4,-8.5 25,-8.5 C27.4,-8.5 29,-7.1 29,-4.9 C29,-0.6 18.9,4.2 18.6,4.4"/>
<path class="Note" transform="matrix(0.992,0,0,0.992,1731.75,1341)" d="M0,4.2 C0,8.5 3.1,13.3 11.2,13.3 C21.6,13.3 32.5,4.8 32.5,-4 C32.5,-9.9 27.5,-13.2 21.3,-13.2 C11.6,-13.2 0,-5 0,4.2"/>
<path class="Note" transform="matrix(0.992,0,0,0.992,2690.71,1737.8)" d="M0,4.2 C0,8.5 3.1,13.3 11.2,13.3 C21.6,13.3 32.5,4.8 32.5,-4 C32.5,-9.9 27.5,-13.2 21.3,-13.2 C11.6,-13.2 0,-5 0,4.2"/>
<path class="Note" transform="matrix(0.992,0,0,0.992,1622.53,1254.2)" d="M0,4.2 C0,8.5 3.1,13.3 11.2,13.3 C21.6,13.3 32.5,4.8 32.5,-4 C32.5,-9.9 27.5,-13.2 21.3,-13.2 C11.6,-13.2 0,-5 0,4.2"/>
<path class="Note" transform="matrix(0.992,0,0,0.992,607.764,745.798)" d="M0,4.2 C0,8.5 3.1,13.3 11.2,13.3 C21.6,13.3 32.5,4.8 32.5,-4 C32.5,-9.9 27.5,-13.2 21.3,-13.2 C11.6,-13.2 0,-5 0,4.2"/>
<path class="Note" transform="matrix(0.992,0,0,0.992,2538.84,671.398)" d="M21.3,-13.2 C11.6,-13.2 0,-5.1 0,4.2 C0,8.5 3.1,13.3 11.2,13.3 C21.6,13.3 32.5,4.8 32.5,-4 C32.5,-9.9 27.5,-13.2 21.3,-13.2 M18.6,4.4 C18.3,4.6 11,8.6 7.5,8.6 C4.2,8.6 3.5,5.9 3.5,5 C3.5,0.8 13.5,-4.1 13.9,-4.3 C14.3,-4.5 21.4,-8.5 25,-8.5 C27.4,-8.5 29,-7.1 29,-4.9 C29,-0.6 18.9,4.2 18.6,4.4"/>
<path class="Note" transform="matrix(0.992,0,0,0.992,1744.02,2271)" d="M0,4.2 C0,8.5 3.1,13.3 11.2,13.3 C21.6,13.3 32.5,4.8 32.5,-4 C32.5,-9.9 27.5,-13.2 21.3,-13.2 C11.6,-13.2 0,-5 0,4.2"/>
<path class="Note" transform="matrix(0.992,0,0,0.992,1482.28,1241.8)" d="M21.3,-13.2 C11.6,-13.2 0,-5.1 0,4.2 C0,8.5 3.1,13.3 11.2,13.3 C21.6,13.3 32.5,4.8 32.5,-4 C32.5,-9.9 27.5,-13.2 21.3,-13.2 M18.6,4.4 C18.3,4.6 11,8.6 7.5,8.6 C4.2,8.6 3.5,5.9 3.5,5 C3.5,0.8 13.5,-4.1 13.9,-4.3 C14.3,-4.5 21.4,-8.5 25,-8.5 C27.4,-8.5 29,-7.1 29,-4.9 C29,-0.6 18.9,4.2 18.6,4.4"/>
<path class="Note" transform="matrix(0.992,0,0,0.992,1327.47,696.198)" d="M0,4.2 C0,8.5 3.1,13.3 11.2,13.3 C21.6,13.3 32.5,4.8 32.5,-4 C32.5,-9.9 27.5,-13.2 21.3,-13.2 C11.6,-13.2 0,-5 0,4.2"/>
<path class="Note" transform="matrix(0.992,0,0,0.992,2683.87,696.198)" d="M0,4.2 C0,8.5 3.1,13.3 11.2,13.3 C21.6,13.3 32.5,4.8 32.5,-4 C32.5,-9.9 27.5,-13.2 21.3,-13.2 C11.6,-13.2 0,-5 0,4.2"/>
<path class="Note" transform="matrix(0.992,0,0,0.992,1669.7,2295.8)" d="M0,4.2 C0,8.5 3.1,13.3 11.2,13.3 C21.6,13.3 32.5,4.8 32.5,-4 C32.5,-9.9 27.5,-13.2 21.3,-13.2 C11.6,-13.2 0,-5 0,4.2"/>
<path class="Note" transform="matrix(0.992,0,0,0.992,1373.06,1291.4)" d="M0,4.2 C0,8.5 3.1,13.3 11.2,13.3 C21.6,13.3 32.5,4.8 32.5,-4 C32.5,-9.9 27.5,-13.2 21.3,-13.2 C11.6,-13.2 0,-5 0,4.2"/>
<path class="Note" transform="matrix(0.992,0,0,0.992,1595.39,2320.6)" d="M0,4.2 C0,8.5 3.1,13.3 11.2,13.3 C21.6,13.3 32.5,4.8 32.5,-4 C32.5,-9.9 27.5,-13.2 21.3,-13.2 C11.6,-13.2 0,-5 0,4.2"/>
<path class="Note" transform="matrix(0.992,0,0,0.992,395.405,2271)" d="M0,4.2 C0,8.5 3.1,13.3 11.2,13.3 C21.6,13.3 32.5,4.8 32.5,-4 C32.5,-9.9 27.5,-13.2 21.3,-13.2 C11.6,-13.2 0,-5 0,4.2"/>
<path class="Note" transform="matrix(0.992,0,0,0.992,1232.81,1266.6)" d="M21.3,-13.2 C11.6,-13.2 0,-5.1 0,4.2 C0,8.5 3.1,13.3 11.2,13.3 C21.6,13.3 32.5,4.8 32.5,-4 C32.5,-9.9 27.5,-13.2 21.3,-13.2 M18.6,4.4 C18.3,4.6 11,8.6 7.5,8.6 C4.2,8.6 3.5,5.9 3.5,5 C3.5,0.8 13.5,-4.1 13.9,-4.3 C14.3,-4.5 21.4,-8.5 25,-8.5 C27.4,-8.5 29,-7.1 29,-4.9 C29,-0.6 18.9,4.2 18.6,4.4"/>
<path class="Note" transform="matrix(0.992,0,0,0.992,1123.59,1241.8)" d="M0,4.2 C0,8.5 3.1,13.3 11.2,13.3 C21.6,13.3 32.5,4.8 32.5,-4 C32.5,-9.9 27.5,-13.2 21.3,-13.2 C11.6,-13.2 0,-5 0,4.2"/>
<path class="Note" transform="matrix(0.992,0,0,0.992,489.61,2283.4)" d="M21.3,-13.2 C11.6,-13.2 0,-5.1 0,4.2 C0,8.5 3.1,13.3 11.2,13.3 C21.6,13.3 32.5,4.8 32.5,-4 C32.5,-9.9 27.5,-13.2 21.3,-13.2 M18.6,4.4 C18.3,4.6 11,8.6 7.5,8.6 C4.2,8.6 3.5,5.9 3.5,5 C3.5,0.8 13.5,-4.1 13.9,-4.3 C14.3,-4.5 21.4,-8.5 25,-8.5 C27.4,-8.5 29,-7.1 29,-4.9 C29,-0.6 18.9,4.2 18.6,4.4"/>
<path class="Note" transform="matrix(0.992,0,0,0.992,1501.19,2320.6)" d="M0,4.2 C0,8.5 3.1,13.3 11.2,13.3 C21.6,13.3 32.5,4.8 32.5,-4 C32.5,-9.9 27.5,-13.2 21.3,-13.2 C11.6,-13.2 0,-5 0,4.2"/>
<path class="Note" transform="matrix(0.992,0,0,0.992,630.918,2295.8)" d="M0,4.2 C0,8.5 3.1,13.3 11.2,13.3 C21.6,13.3 32.5,4.8 32.5,-4 C32.5,-9.9 27.5,-13.2 21.3,-13.2 C11.6,-13.2 0,-5 0,4.2"/>
<path class="Note" transform="matrix(0.992,0,0,0.992,453.732,782.998)" d="M0,4.2 C0,8.5 3.1,13.3 11.2,13.3 C21.6,13.3 32.5,4.8 32.5,-4 C32.5,-9.9 27.5,-13.2 21.3,-13.2 C11.6,-13.2 0,-5 0,4.2"/>
<path class="Note" transform="matrix(0.992,0,0,0.992,983.334,1229.4)" d="M21.3,-13.2 C11.6,-13.2 0,-5.1 0,4.2 C0,8.5 3.1,13.3 11.2,13.3 C21.6,13.3 32.5,4.8 32.5,-4 C32.5,-9.9 27.5,-13.2 21.3,-13.2 M18.6,4.4 C18.3,4.6 11,8.6 7.5,8.6 C4.2,8.6 3.5,5.9 3.5,5 C3.5,0.8 13.5,-4.1 13.9,-4.3 C14.3,-4.5 21.4,-8.5 25,-8.5 C27.4,-8.5 29,-7.1 29,-4.9 C29,-0.6 18.9,4.2 18.6,4.4"/>
<path class="Note" transform="matrix(0.992,0,0,0.992,878.446,1229.4)" d="M0,4.2 C0,8.5 3.1,13.3 11.2,13.3 C21.6,13.3 32.5,4.8 32.5,-4 C32.5,-9.9 27.5,-13.2 21.3,-13.2 C11.6,-13.2 0,-5 0,4.2"/>
<path class="Note" transform="matrix(0.992,0,0,0.992,760.587,2308.2)" d="M0,4.2 C0,8.5 3.1,13.3 11.2,13.3 C21.6,13.3 32.5,4.8 32.5,-4 C32.5,-9.9 27.5,-13.2 21.3,-13.2 C11.6,-13.2 0,-5 0,4.2"/>
<path class="Note" transform="matrix(0.992,0,0,0.992,395.405,1217)" d="M0,4.2 C0,8.5 3.1,13.3 11.2,13.3 C21.6,13.3 32.5,4.8 32.5,-4 C32.5,-9.9 27.5,-13.2 21.3,-13.2 C11.6,-13.2 0,-5 0,4.2"/>
<path class="Note" transform="matrix(0.992,0,0,0.992,854.791,2320.6)" d="M21.3,-13.2 C11.6,-13.2 0,-5.1 0,4.2 C0,8.5 3.1,13.3 11.2,13.3 C21.6,13.3 32.5,4.8 32.5,-4 C32.5,-9.9 27.5,-13.2 21.3,-13.2 M18.6,4.4 C18.3,4.6 11,8.6 7.5,8.6 C4.2,8.6 3.5,5.9 3.5,5 C3.5,0.8 13.5,-4.1 13.9,-4.3 C14.3,-4.5 21.4,-8.5 25,-8.5 C27.4,-8.5 29,-7.1 29,-4.9 C29,-0.6 18.9,4.2 18.6,4.4"/>
<path class="Note" transform="matrix(0.992,0,0,0.992,1375.58,2320.6)" d="M0,4.2 C0,8.5 3.1,13.3 11.2,13.3 C21.6,13.3 32.5,4.8 32.5,-4 C32.5,-9.9 27.5,-13.2 21.3,-13.2 C11.6,-13.2 0,-5 0,4.2"/>
<path class="Note" transform="matrix(0.992,0,0,0.992,829.274,1229.4)" d="M0,4.2 C0,8.5 3.1,13.3 11.2,13.3 C21.6,13.3 32.5,4.8 32.5,-4 C32.5,-9.9 27.5,-13.2 21.3,-13.2 C11.6,-13.2 0,-5 0,4.2"/>
<path class="Note" transform="matrix(0.992,0,0,0.992,469.163,1254.2)" d="M21.3,-13.2 C11.6,-13.2 0,-5.1 0,4.2 C0,8.5 3.1,13.3 11.2,13.3 C21.6,13.3 32.5,4.8 32.5,-4 C32.5,-9.9 27.5,-13.2 21.3,-13.2 M18.6,4.4 C18.3,4.6 11,8.6 7.5,8.6 C4.2,8.6 3.5,5.9 3.5,5 C3.5,0.8 13.5,-4.1 13.9,-4.3 C14.3,-4.5 21.4,-8.5 25,-8.5 C27.4,-8.5 29,-7.1 29,-4.9 C29,-0.6 18.9,4.2 18.6,4.4"/>
<path class="Note" transform="matrix(0.992,0,0,0.992,1125.77,2320.6)" d="M18.7,-13.6 C4.9,-13.6 0,-6.6 0,-0.1 C0,6.4 4.9,13.4 18.7,13.4 C32.5,13.4 37.3,6.4 37.3,-0.1 C37.3,-6.6 32.5,-13.6 18.7,-13.6 M23.8,9.6 C22.6,10 21,10.2 19.5,10.2 C16.7,10.2 14.8,9.4 13.5,6.9 C12.2,4.4 10.4,-2 10.3,-4.7 C10.1,-7.4 11.1,-9 13.5,-9.8 C14.7,-10.2 16.3,-10.4 17.8,-10.4 C20.6,-10.4 22.4,-9.8 23.8,-7.1 C25.2,-4.4 27,2 27,4.5 C27,7.1 26.2,8.9 23.8,9.6"/>
<path class="Note" transform="matrix(0.992,0,0,0.992,689.022,1303.8)" d="M21.3,-13.2 C11.6,-13.2 0,-5.1 0,4.2 C0,8.5 3.1,13.3 11.2,13.3 C21.6,13.3 32.5,4.8 32.5,-4 C32.5,-9.9 27.5,-13.2 21.3,-13.2 M18.6,4.4 C18.3,4.6 11,8.6 7.5,8.6 C4.2,8.6 3.5,5.9 3.5,5 C3.5,0.8 13.5,-4.1 13.9,-4.3 C14.3,-4.5 21.4,-8.5 25,-8.5 C27.4,-8.5 29,-7.1 29,-4.9 C29,-0.6 18.9,4.2 18.6,4.4"/>
<path class="Note" transform="matrix(0.992,0,0,0.992,1439.2,733.398)" d="M21.3,-13.2 C11.6,-13.2 0,-5.1 0,4.2 C0,8.5 3.1,13.3 11.2,13.3 C21.6,13.3 32.5,4.8 32.5,-4 C32.5,-9.9 27.5,-13.2 21.3,-13.2 M18.6,4.4 C18.3,4.6 11,8.6 7.5,8.6 C4.2,8.6 3.5,5.9 3.5,5 C3.5,0.8 13.5,-4.1 13.9,-4.3 C14.3,-4.5 21.4,-8.5 25,-8.5 C27.4,-8.5 29,-7.1 29,-4.9 C29,-0.6 18.9,4.2 18.6,4.4"/>
<path class="Note" transform="matrix(0.992,0,0,0.992,1229.92,1737.8)" d="M18.7,-13.6 C4.9,-13.6 0,-6.6 0,-0.1 C0,6.4 4.9,13.4 18.7,13.4 C32.5,13.4 37.3,6.4 37.3,-0.1 C37.3,-6.6 32.5,-13.6 18.7,-13.6 M23.8,9.6 C22.6,10 21,10.2 19.5,10.2 C16.7,10.2 14.8,9.4 13.5,6.9 C12.2,4.4 10.4,-2 10.3,-4.7 C10.1,-7.4 11.1,-9 13.5,-9.8 C14.7,-10.2 16.3,-10.4 17.8,-10.4 C20.6,-10.4 22.4,-9.8 23.8,-7.1 C25.2,-4.4 27,2 27,4.5 C27,7.1 26.2,8.9 23.8,9.6"/>
<path class="Clef" transform="matrix(0.992,0,0,0.992,231.198,1266.6)" d="M56.2,2.1 C56.2,9.2 53.3,16.5 46.2,19.4 C44.1,7.4 41.4,-8.5 40.7,-12.9 C49.7,-12.9 56.2,-6.8 56.2,2.1 M42,20.6 C40,21 38.1,21.2 36.2,21.2 C21.9,21.2 9.7,11.2 9.7,-3.9 C9.7,-16.1 18.3,-27 27.1,-34.6 C28.8,-36.1 30.4,-37.5 31.9,-39 C32.8,-33.6 33.5,-28.9 34.2,-24.8 C25.1,-22.1 18.9,-12.5 18.9,-3.1 C18.9,3.9 24.4,13.5 32.4,13.5 C33.2,13.5 34.1,13.1 34.1,12.2 C34.1,11.3 33.1,10.8 31.9,10 C28,7.6 25.8,5 25.8,0.1 C25.8,-6 30.3,-10.9 36.2,-12.3 L42,20.6 M33.2,-82.2 C34.1,-86.2 38.7,-96.7 43.9,-96.7 C45.4,-96.7 47.8,-91.8 47.8,-84.9 C47.8,-74.5 40.1,-66.7 33.2,-59.9 C32.6,-63.9 32.1,-67.8 32.1,-72 C32.1,-75.7 32.4,-79.1 33.2,-82.2 M12.2,51.3 C12.2,57.9 17.3,66.6 30.8,66.6 C35.5,66.6 39.6,65.4 43.2,63.2 C48.6,59.4 50,52.8 50,46.5 C50,42.6 49.4,38.1 48.4,32.4 C48.1,30.4 47.5,27.4 46.9,23.5 C56.7,20.3 64,10.1 64,-0.2 C64,-15.3 53.3,-25.5 38.7,-25.5 C37.7,-31.5 36.7,-37.4 35.8,-43 C46.4,-54.1 53.7,-66.6 53.7,-82.5 C53.7,-91.6 50.9,-99 49.3,-102.6 C46.9,-107.7 44,-111.2 42.2,-111.2 C41.5,-111.2 38.4,-110 35.1,-106.1 C28.7,-98.5 26.9,-85.7 26.9,-77.3 C26.9,-71.9 27.4,-67 29.1,-55.8 C29,-55.7 23.8,-50.4 21.7,-48.7 C12.6,-40.2 0,-28.1 0,-8.1 C0,10.6 16.3,25.3 34.9,25.3 C37.8,25.3 40.5,25 42.8,24.6 C44.7,34.2 45.8,41.2 45.8,46.5 C45.8,56.9 40.5,62.4 30.4,62.4 C28,62.4 25.9,61.9 25.7,61.9 C25.6,61.8 25.4,61.7 25.4,61.6 C25.4,61.4 25.6,61.3 25.9,61.2 C30.6,60.5 35.3,56.5 35.3,50.1 C35.3,44.7 31.2,39 23.7,39 C16.7,39 12.2,44.7 12.2,51.3"/>
<path class="Clef" transform="matrix(0.992,0,0,0.992,231.198,708.598)" d="M56.2,2.1 C56.2,9.2 53.3,16.5 46.2,19.4 C44.1,7.4 41.4,-8.5 40.7,-12.9 C49.7,-12.9 56.2,-6.8 56.2,2.1 M42,20.6 C40,21 38.1,21.2 36.2,21.2 C21.9,21.2 9.7,11.2 9.7,-3.9 C9.7,-16.1 18.3,-27 27.1,-34.6 C28.8,-36.1 30.4,-37.5 31.9,-39 C32.8,-33.6 33.5,-28.9 34.2,-24.8 C25.1,-22.1 18.9,-12.5 18.9,-3.1 C18.9,3.9 24.4,13.5 32.4,13.5 C33.2,13.5 34.1,13.1 34.1,12.2 C34.1,11.3 33.1,10.8 31.9,10 C28,7.6 25.8,5 25.8,0.1 C25.8,-6 30.3,-10.9 36.2,-12.3 L42,20.6 M33.2,-82.2 C34.1,-86.2 38.7,-96.7 43.9,-96.7 C45.4,-96.7 47.8,-91.8 47.8,-84.9 C47.8,-74.5 40.1,-66.7 33.2,-59.9 C32.6,-63.9 32.1,-67.8 32.1,-72 C32.1,-75.7 32.4,-79.1 33.2,-82.2 M12.2,51.3 C12.2,57.9 17.3,66.6 30.8,66.6 C35.5,66.6 39.6,65.4 43.2,63.2 C48.6,59.4 50,52.8 50,46.5 C50,42.6 49.4,38.1 48.4,32.4 C48.1,30.4 47.5,27.4 46.9,23.5 C56.7,20.3 64,10.1 64,-0.2 C64,-15.3 53.3,-25.5 38.7,-25.5 C37.7,-31.5 36.7,-37.4 35.8,-43 C46.4,-54.1 53.7,-66.6 53.7,-82.5 C53.7,-91.6 50.9,-99 49.3,-102.6 C46.9,-107.7 44,-111.2 42.2,-111.2 C41.5,-111.2 38.4,-110 35.1,-106.1 C28.7,-98.5 26.9,-85.7 26.9,-77.3 C26.9,-71.9 27.4,-67 29.1,-55.8 C29,-55.7 23.8,-50.4 21.7,-48.7 C12.6,-40.2 0,-28.1 0,-8.1 C0,10.6 16.3,25.3 34.9,25.3 C37.8,25.3 40.5,25 42.8,24.6 C44.7,34.2 45.8,41.2 45.8,46.5 C45.8,56.9 40.5,62.4 30.4,62.4 C28,62.4 25.9,61.9 25.7,61.9 C25.6,61.8 25.4,61.7 25.4,61.6 C25.4,61.4 25.6,61.3 25.9,61.2 C30.6,60.5 35.3,56.5 35.3,50.1 C35.3,44.7 31.2,39 23.7,39 C16.7,39 12.2,44.7 12.2,51.3"/>
<path class="Clef" transform="matrix(0.992,0,0,0.992,231.198,2382.6)" d="M56.2,2.1 C56.2,9.2 53.3,16.5 46.2,19.4 C44.1,7.4 41.4,-8.5 40.7,-12.9 C49.7,-12.9 56.2,-6.8 56.2,2.1 M42,20.6 C40,21 38.1,21.2 36.2,21.2 C21.9,21.2 9.7,11.2 9.7,-3.9 C9.7,-16.1 18.3,-27 27.1,-34.6 C28.8,-36.1 30.4,-37.5 31.9,-39 C32.8,-33.6 33.5,-28.9 34.2,-24.8 C25.1,-22.1 18.9,-12.5 18.9,-3.1 C18.9,3.9 24.4,13.5 32.4,13.5 C33.2,13.5 34.1,13.1 34.1,12.2 C34.1,11.3 33.1,10.8 31.9,10 C28,7.6 25.8,5 25.8,0.1 C25.8,-6 30.3,-10.9 36.2,-12.3 L42,20.6 M33.2,-82.2 C34.1,-86.2 38.7,-96.7 43.9,-96.7 C45.4,-96.7 47.8,-91.8 47.8,-84.9 C47.8,-74.5 40.1,-66.7 33.2,-59.9 C32.6,-63.9 32.1,-67.8 32.1,-72 C32.1,-75.7 32.4,-79.1 33.2,-82.2 M12.2,51.3 C12.2,57.9 17.3,66.6 30.8,66.6 C35.5,66.6 39.6,65.4 43.2,63.2 C48.6,59.4 50,52.8 50,46.5 C50,42.6 49.4,38.1 48.4,32.4 C48.1,30.4 47.5,27.4 46.9,23.5 C56.7,20.3 64,10.1 64,-0.2 C64,-15.3 53.3,-25.5 38.7,-25.5 C37.7,-31.5 36.7,-37.4 35.8,-43 C46.4,-54.1 53.7,-66.6 53.7,-82.5 C53.7,-91.6 50.9,-99 49.3,-102.6 C46.9,-107.7 44,-111.2 42.2,-111.2 C41.5,-111.2 38.4,-110 35.1,-106.1 C28.7,-98.5 26.9,-85.7 26.9,-77.3 C26.9,-71.9 27.4,-67 29.1,-55.8 C29,-55.7 23.8,-50.4 21.7,-48.7 C12.6,-40.2 0,-28.1 0,-8.1 C0,10.6 16.3,25.3 34.9,25.3 C37.8,25.3 40.5,25 42.8,24.6 C44.7,34.2 45.8,41.2 45.8,46.5 C45.8,56.9 40.5,62.4 30.4,62.4 C28,62.4 25.9,61.9 25.7,61.9 C25.6,61.8 25.4,61.7 25.4,61.6 C25.4,61.4 25.6,61.3 25.9,61.2 C30.6,60.5 35.3,56.5 35.3,50.1 C35.3,44.7 31.2,39 23.7,39 C16.7,39 12.2,44.7 12.2,51.3"/>
<path class="Clef" transform="matrix(0.992,0,0,0.992,231.198,1824.6)" d="M56.2,2.1 C56.2,9.2 53.3,16.5 46.2,19.4 C44.1,7.4 41.4,-8.5 40.7,-12.9 C49.7,-12.9 56.2,-6.8 56.2,2.1 M42,20.6 C40,21 38.1,21.2 36.2,21.2 C21.9,21.2 9.7,11.2 9.7,-3.9 C9.7,-16.1 18.3,-27 27.1,-34.6 C28.8,-36.1 30.4,-37.5 31.9,-39 C32.8,-33.6 33.5,-28.9 34.2,-24.8 C25.1,-22.1 18.9,-12.5 18.9,-3.1 C18.9,3.9 24.4,13.5 32.4,13.5 C33.2,13.5 34.1,13.1 34.1,12.2 C34.1,11.3 33.1,10.8 31.9,10 C28,7.6 25.8,5 25.8,0.1 C25.8,-6 30.3,-10.9 36.2,-12.3 L42,20.6 M33.2,-82.2 C34.1,-86.2 38.7,-96.7 43.9,-96.7 C45.4,-96.7 47.8,-91.8 47.8,-84.9 C47.8,-74.5 40.1,-66.7 33.2,-59.9 C32.6,-63.9 32.1,-67.8 32.1,-72 C32.1,-75.7 32.4,-79.1 33.2,-82.2 M12.2,51.3 C12.2,57.9 17.3,66.6 30.8,66.6 C35.5,66.6 39.6,65.4 43.2,63.2 C48.6,59.4 50,52.8 50,46.5 C50,42.6 49.4,38.1 48.4,32.4 C48.1,30.4 47.5,27.4 46.9,23.5 C56.7,20.3 64,10.1 64,-0.2 C64,-15.3 53.3,-25.5 38.7,-25.5 C37.7,-31.5 36.7,-37.4 35.8,-43 C46.4,-54.1 53.7,-66.6 53.7,-82.5 C53.7,-91.6 50.9,-99 49.3,-102.6 C46.9,-107.7 44,-111.2 42.2,-111.2 C41.5,-111.2 38.4,-110 35.1,-106.1 C28.7,-98.5 26.9,-85.7 26.9,-77.3 C26.9,-71.9 27.4,-67 29.1,-55.8 C29,-55.7 23.8,-50.4 21.7,-48.7 C12.6,-40.2 0,-28.1 0,-8.1 C0,10.6 16.3,25.3 34.9,25.3 C37.8,25.3 40.5,25 42.8,24.6 C44.7,34.2 45.8,41.2 45.8,46.5 C45.8,56.9 40.5,62.4 30.4,62.4 C28,62.4 25.9,61.9 25.7,61.9 C25.6,61.8 25.4,61.7 25.4,61.6 C25.4,61.4 25.6,61.3 25.9,61.2 C30.6,60.5 35.3,56.5 35.3,50.1 C35.3,44.7 31.2,39 23.7,39 C16.7,39 12.2,44.7 12.2,51.3"/>
<path class="KeySig" transform="matrix(0.992,0,0,0.992,313.271,1241.8)" d="M20.1,-7.9 C19.5,-11.8 17.1,-15.5 12,-15.5 C7,-15.5 4.1,-12.4 3.6,-11.8 L4,-43.9 C4,-44.7 3.4,-45.3 2.6,-45.3 L1.4,-45.3 C0.6,-45.3 0,-44.7 0,-43.9 L0.5,16.2 C0.5,17 1.1,17.6 1.9,17.6 C2.1,17.6 2.5,17.5 2.7,17.4 C3.1,17.2 9.6,14 15,7.9 C18.8,3.6 20.3,-1.3 20.3,-5.4 C20.3,-6.3 20.2,-7.1 20.1,-7.9 M13.2,-4 C13.2,-2.5 12.8,2.1 10.3,5.9 C8.6,8.5 5.2,11.2 3.3,12.7 L3.6,-6.8 C3.8,-7.7 5.3,-10.6 9.3,-10.6 C12.9,-10.6 13.2,-7.2 13.2,-5.1 C13.2,-4.6 13.2,-4.3 13.2,-4"/>
<path class="KeySig" transform="matrix(0.992,0,0,0.992,313.271,2357.8)" d="M20.1,-7.9 C19.5,-11.8 17.1,-15.5 12,-15.5 C7,-15.5 4.1,-12.4 3.6,-11.8 L4,-43.9 C4,-44.7 3.4,-45.3 2.6,-45.3 L1.4,-45.3 C0.6,-45.3 0,-44.7 0,-43.9 L0.5,16.2 C0.5,17 1.1,17.6 1.9,17.6 C2.1,17.6 2.5,17.5 2.7,17.4 C3.1,17.2 9.6,14 15,7.9 C18.8,3.6 20.3,-1.3 20.3,-5.4 C20.3,-6.3 20.2,-7.1 20.1,-7.9 M13.2,-4 C13.2,-2.5 12.8,2.1 10.3,5.9 C8.6,8.5 5.2,11.2 3.3,12.7 L3.6,-6.8 C3.8,-7.7 5.3,-10.6 9.3,-10.6 C12.9,-10.6 13.2,-7.2 13.2,-5.1 C13.2,-4.6 13.2,-4.3 13.2,-4"/>
<path class="KeySig" transform="matrix(0.992,0,0,0.992,313.271,683.798)" d="M20.1,-7.9 C19.5,-11.8 17.1,-15.5 12,-15.5 C7,-15.5 4.1,-12.4 3.6,-11.8 L4,-43.9 C4,-44.7 3.4,-45.3 2.6,-45.3 L1.4,-45.3 C0.6,-45.3 0,-44.7 0,-43.9 L0.5,16.2 C0.5,17 1.1,17.6 1.9,17.6 C2.1,17.6 2.5,17.5 2.7,17.4 C3.1,17.2 9.6,14 15,7.9 C18.8,3.6 20.3,-1.3 20.3,-5.4 C20.3,-6.3 20.2,-7.1 20.1,-7.9 M13.2,-4 C13.2,-2.5 12.8,2.1 10.3,5.9 C8.6,8.5 5.2,11.2 3.3,12.7 L3.6,-6.8 C3.8,-7.7 5.3,-10.6 9.3,-10.6 C12.9,-10.6 13.2,-7.2 13.2,-5.1 C13.2,-4.6 13.2,-4.3 13.2,-4"/>
<path class="KeySig" transform="matrix(0.992,0,0,0.992,313.271,1799.8)" d="M20.1,-7.9 C19.5,-11.8 17.1,-15.5 12,-15.5 C7,-15.5 4.1,-12.4 3.6,-11.8 L4,-43.9 C4,-44.7 3.4,-45.3 2.6,-45.3 L1.4,-45.3 C0.6,-45.3 0,-44.7 0,-43.9 L0.5,16.2 C0.5,17 1.1,17.6 1.9,17.6 C2.1,17.6 2.5,17.5 2.7,17.4 C3.1,17.2 9.6,14 15,7.9 C18.8,3.6 20.3,-1.3 20.3,-5.4 C20.3,-6.3 20.2,-7.1 20.1,-7.9 M13.2,-4 C13.2,-2.5 12.8,2.1 10.3,5.9 C8.6,8.5 5.2,11.2 3.3,12.7 L3.6,-6.8 C3.8,-7.7 5.3,-10.6 9.3,-10.6 C12.9,-10.6 13.2,-7.2 13.2,-5.1 C13.2,-4.6 13.2,-4.3 13.2,-4"/>
<path class="TimeSig" transform="matrix(0.992,0,0,0.992,358.205,683.798)" d="M32.5,-17.9 C30,-16.3 28.2,-13.4 28.2,-10.2 C28.2,-9.8 28.2,-9.4 28.3,-9 C28.8,-4.9 32.1,-1.7 36.2,-1.2 C36.5,-1.2 37,-1.2 37.3,-1.2 C42.3,-1.2 46.3,-5.2 46.3,-10.2 C46.3,-10.2 46.3,-10.5 46.3,-10.8 C46.3,-11.2 46.2,-11.9 46.1,-12.3 C45.2,-16.6 41.3,-25.8 24.3,-25.8 C2.5,-25.8 0,-7.7 0,-1.2 C0,10.7 1.5,25.6 26.5,25.6 C36.4,25.6 44.1,19.8 44.5,9.1 C44.5,8.6 44.2,8.3 43.7,8.3 L42.4,8.3 C42,8.3 41.6,8.7 41.6,9.1 C41.2,17.4 35.3,22.4 26.5,22.4 C17.8,22.4 13.6,17.7 13.6,8.9 L13.6,-10.2 C13.6,-15.8 15.8,-22.2 24.7,-22.2 C29.4,-22.2 31.5,-20.5 32.6,-18.8 C32.7,-18.6 32.7,-18.5 32.7,-18.3 C32.7,-18.2 32.7,-18 32.5,-17.9"/>
<path class="Rest" transform="matrix(0.992,0,0,0.992,996.099,2357.8)" d="M23,16.6 C22.9,16.5 22.7,16.3 22.4,15.9 L10.9,1.7 C10.8,1.6 10.7,1.3 10.7,1.1 C10.7,0.8 10.8,0.4 10.9,0.2 L21.1,-15.2 C21.2,-15.4 21.3,-15.7 21.3,-15.9 L21.3,-16.8 C21.3,-17.1 21.2,-17.4 21,-17.6 L4.8,-39.5 C4.8,-39.5 4.4,-40.1 3.8,-40.1 C3.5,-40.1 3.3,-40 3,-39.8 C2.6,-39.5 2.5,-39.1 2.5,-38.8 C2.5,-38.2 2.8,-37.7 2.8,-37.7 L10.4,-27.3 C10.6,-27 10.7,-26.6 10.7,-26.1 C10.7,-25.7 10.6,-25.2 10.4,-24.9 L0.3,-9.5 C0.2,-9.3 0.1,-8.9 0.1,-8.7 L0.1,-7.8 C0.1,-7.5 0.2,-7.2 0.4,-7 L11.6,6.9 C11.2,6.8 10.3,6.6 9.1,6.6 C7.4,6.6 5.2,7 3.4,8.6 C1.2,10.6 0,13.4 0,15.9 C0,17.3 0.3,18.7 1.1,19.8 C3.2,23 10.7,32.5 10.7,32.5 C10.7,32.5 11.2,33.1 11.9,33.1 C12.1,33.1 12.3,33.1 12.5,32.9 C13,32.5 13.2,32.1 13.2,31.7 C13.2,31.3 13,31 12.9,30.8 C12.6,30.3 9.4,24.5 9.4,24.5 C9.4,24.5 8.7,23.1 8.7,21.3 C8.7,20 9.1,18.4 10.4,17.1 C11.6,15.9 13,15.5 14.3,15.5 C15.6,15.5 16.7,15.9 17.5,16.4 L21.4,18.9 C21.4,18.9 21.8,19.1 22.2,19.1 C22.6,19.1 22.9,19 23.2,18.6 C23.4,18.2 23.5,18 23.5,17.7 C23.5,17.4 23.4,17.2 23.2,16.9 L23,16.6 "/>
<path class="Rest" transform="matrix(0.992,0,0,0.992,1438.38,2357.8)" d="M26.7,-20.3 C26.6,-20.3 26.4,-20.4 26.3,-20.4 C25.7,-20.4 25.2,-20.1 25,-19.6 C24.6,-19 21.5,-13.1 17,-9.8 C15.7,-8.8 14.1,-8.1 12.5,-7.8 C13.6,-9.1 14.3,-10.7 14.3,-12.6 C14.3,-16.5 11.1,-19.7 7.2,-19.7 C3.2,-19.7 0,-16.5 0,-12.6 C0,-9.5 1.9,-7 4.5,-5.9 C6,-5.2 8,-4.7 10,-4.7 C12.9,-4.7 16,-5.6 18.7,-7.6 C19.9,-8.5 21.1,-9.7 22.2,-10.9 L10.8,24.7 L13.5,25.5 L27.5,-18.6 C27.6,-18.7 27.6,-18.9 27.6,-19.1 C27.6,-19.6 27.3,-20 26.7,-20.3"/>
<path class="Rest" transform="matrix(0.992,0,0,0.992,2596.01,2357.8)" d="M0,-1 C0,0.4 0,0.4 1.4,0.4 L31.1,0.4 C32.5,0.4 32.5,0.4 32.5,-1 L32.5,-11.8 C32.5,-13.2 32.5,-13.2 31.1,-13.2 L1.4,-13.2 C0,-13.2 0,-13.2 0,-11.8 L0,-1 "/>
<path class="Rest" transform="matrix(0.992,0,0,0.992,1474.52,1799.8)" d="M26.7,-20.3 C26.6,-20.3 26.4,-20.4 26.3,-20.4 C25.7,-20.4 25.2,-20.1 25,-19.6 C24.6,-19 21.5,-13.1 17,-9.8 C15.7,-8.8 14.1,-8.1 12.5,-7.8 C13.6,-9.1 14.3,-10.7 14.3,-12.6 C14.3,-16.5 11.1,-19.7 7.2,-19.7 C3.2,-19.7 0,-16.5 0,-12.6 C0,-9.5 1.9,-7 4.5,-5.9 C6,-5.2 8,-4.7 10,-4.7 C12.9,-4.7 16,-5.6 18.7,-7.6 C19.9,-8.5 21.1,-9.7 22.2,-10.9 L10.8,24.7 L13.5,25.5 L27.5,-18.6 C27.6,-18.7 27.6,-18.9 27.6,-19.1 C27.6,-19.6 27.3,-20 26.7,-20.3"/>
<path class="Articulation" transform="matrix(0.992,0,0,0.992,2176.41,1809.92)" d="M1.4,0 C0.6,0 0,0.6 0,1.4 L0,3.2 C0,4 0.6,4.6 1.4,4.6 L30.2,4.6 C31,4.6 31.6,4 31.6,3.2 L31.6,1.4 C31.6,0.6 31,0 30.2,0 L1.4,0 "/>
<path class="Articulation" transform="matrix(0.992,0,0,0.992,2107.1,1809.92)" d="M1.4,0 C0.6,0 0,0.6 0,1.4 L0,3.2 C0,4 0.6,4.6 1.4,4.6 L30.2,4.6 C31,4.6 31.6,4 31.6,3.2 L31.6,1.4 C31.6,0.6 31,0 30.2,0 L1.4,0 "/>
<path class="Beam" fill-rule="evenodd" d="M829.274,1291.4 L880.926,1291.4 L880.926,1303.8 L829.274,1303.8 L829.274,1291.4 "/>
<path class="Tuplet" d="M1681.1,2438.88 C1683.22,2438.21 1684.07,2437.85 1685.15,2437.13 C1687.27,2435.73 1688.57,2433.26 1688.57,2430.74 C1688.57,2426.46 1685.15,2423.58 1680.11,2423.58 C1675.21,2423.58 1671.07,2426.64 1671.07,2430.33 C1671.07,2432.18 1672.19,2433.44 1673.9,2433.44 C1675.39,2433.44 1676.47,2432.36 1676.47,2430.87 C1676.47,2430.11 1676.24,2429.57 1675.52,2428.85 C1675.07,2428.44 1674.89,2428.13 1674.89,2427.81 C1674.89,2426.73 1677.14,2425.61 1679.26,2425.61 C1682.27,2425.61 1684.07,2427.27 1684.07,2430.06 C1684.07,2434.07 1681.24,2437.85 1678.22,2437.85 C1678.09,2437.85 1677.68,2437.8 1677.19,2437.76 C1675.88,2437.67 1675.88,2437.67 1675.61,2437.67 C1674.62,2437.67 1674.08,2438.12 1674.08,2438.93 C1674.08,2439.65 1674.58,2440.1 1675.39,2440.1 C1675.61,2440.1 1675.93,2440.05 1676.29,2440.01 C1676.92,2439.87 1677.59,2439.83 1678,2439.83 C1680.11,2439.83 1681.55,2441.72 1681.55,2444.51 C1681.55,2449.37 1679.17,2454.05 1673.72,2454.05 C1671.2,2454.05 1669.04,2452.79 1669.04,2451.35 C1669.04,2450.85 1669.22,2450.67 1669.94,2450.36 C1671.25,2449.77 1671.79,2448.96 1671.79,2447.75 C1671.79,2446.17 1670.53,2444.96 1668.91,2444.96 C1666.97,2444.96 1665.71,2446.49 1665.71,2448.83 C1665.71,2453.19 1669.04,2455.94 1674.44,2455.94 C1681.24,2455.94 1686.41,2451.39 1686.41,2445.36 C1686.41,2441.85 1684.25,2439.87 1681.1,2438.88"/>
<polyline class="Tuplet" fill="none" stroke="#000000" stroke-width="2.48" stroke-linejoin="miter" stroke-miterlimit="2" points="1596.63,2421.16 1596.63,2439.76 1653.31,2439.76" />
<polyline class="Tuplet" fill="none" stroke="#000000" stroke-width="2.48" stroke-linejoin="miter" stroke-miterlimit="2" points="1700.97,2439.76 1757.66,2439.76 1757.66,2421.16" />
<path class="Tuplet" d="M1649.92,1880.88 C1652.03,1880.21 1652.89,1879.85 1653.97,1879.13 C1656.08,1877.73 1657.39,1875.26 1657.39,1872.74 C1657.39,1868.46 1653.97,1865.58 1648.93,1865.58 C1644.02,1865.58 1639.88,1868.64 1639.88,1872.33 C1639.88,1874.18 1641.01,1875.44 1642.72,1875.44 C1644.2,1875.44 1645.28,1874.36 1645.28,1872.87 C1645.28,1872.11 1645.06,1871.57 1644.34,1870.85 C1643.89,1870.44 1643.71,1870.13 1643.71,1869.81 C1643.71,1868.73 1645.96,1867.61 1648.07,1867.61 C1651.09,1867.61 1652.89,1869.27 1652.89,1872.06 C1652.89,1876.07 1650.05,1879.85 1647.04,1879.85 C1646.9,1879.85 1646.5,1879.8 1646,1879.76 C1644.7,1879.67 1644.7,1879.67 1644.43,1879.67 C1643.44,1879.67 1642.9,1880.12 1642.9,1880.93 C1642.9,1881.65 1643.39,1882.1 1644.2,1882.1 C1644.43,1882.1 1644.74,1882.05 1645.1,1882.01 C1645.73,1881.87 1646.41,1881.83 1646.81,1881.83 C1648.93,1881.83 1650.37,1883.72 1650.37,1886.51 C1650.37,1891.37 1647.98,1896.05 1642.54,1896.05 C1640.02,1896.05 1637.86,1894.79 1637.86,1893.35 C1637.86,1892.85 1638.04,1892.67 1638.76,1892.36 C1640.06,1891.77 1640.6,1890.96 1640.6,1889.75 C1640.6,1888.17 1639.34,1886.96 1637.72,1886.96 C1635.79,1886.96 1634.53,1888.49 1634.53,1890.83 C1634.53,1895.19 1637.86,1897.94 1643.26,1897.94 C1650.05,1897.94 1655.23,1893.39 1655.23,1887.36 C1655.23,1883.85 1653.07,1881.87 1649.92,1880.88"/>
<polyline class="Tuplet" fill="none" stroke="#000000" stroke-width="2.48" stroke-linejoin="miter" stroke-miterlimit="2" points="1578.88,1863.16 1578.88,1881.76 1622.13,1881.76" />
<polyline class="Tuplet" fill="none" stroke="#000000" stroke-width="2.48" stroke-linejoin="miter" stroke-miterlimit="2" points="1669.79,1881.76 1713.04,1881.76 1713.04,1863.16" />
<polyline class="VoltaSegment" fill="none" stroke="#000000" stroke-width="2.73" stroke-linejoin="miter" stroke-miterlimit="2" points="358.205,2212.55 2397.79,2212.55 2397.79,2267.11" />
<path class="VoltaSegment" d="M2237.23,1119.17 L2235.3,1119.17 C2231.84,1121.76 2227.93,1122.86 2221.39,1122.97 L2221.39,1126.05 L2223.7,1126.05 C2228.59,1126.05 2228.65,1126.16 2228.59,1130.67 L2228.59,1150.19 C2228.59,1153.6 2228.59,1153.77 2228.21,1154.32 C2227.71,1154.92 2226.61,1155.14 2223.64,1155.14 L2221.88,1155.14 L2221.88,1158.11 L2243.83,1158.11 L2243.83,1155.14 L2242.07,1155.14 C2239.15,1155.14 2238.11,1154.92 2237.61,1154.32 C2237.23,1153.77 2237.23,1153.55 2237.23,1150.19 L2237.23,1119.17 M2256.03,1148.6 C2253.17,1148.6 2250.86,1150.91 2250.86,1153.77 C2250.86,1156.57 2253.17,1158.94 2255.98,1158.94 C2258.89,1158.94 2261.2,1156.63 2261.2,1153.77 C2261.2,1150.91 2258.89,1148.6 2256.03,1148.6"/>
<polyline class="VoltaSegment" fill="none" stroke="#000000" stroke-width="2.73" stroke-linejoin="miter" stroke-miterlimit="2" points="2206.51,1158.11 2206.51,1103.55 2753.94,1103.55" />
<polyline class="VoltaSegment" fill="none" stroke="#000000" stroke-width="2.73" stroke-linejoin="miter" stroke-miterlimit="2" points="358.205,1656.9 2753.94,1656.9" />
<path class="VoltaSegment" d="M2462.43,2252.48 L2461.82,2255.23 C2461.33,2257.43 2461,2258.14 2460.56,2258.42 C2460.01,2258.8 2459.9,2258.8 2456.43,2258.86 L2445.82,2258.86 C2447.74,2257.21 2449.17,2256.16 2451.32,2254.73 C2459.07,2249.73 2460.67,2248.52 2462.26,2246.48 C2464.13,2244.01 2465.23,2241.09 2465.23,2238.51 C2465.23,2232.62 2459.46,2228.17 2451.7,2228.17 C2444.22,2228.17 2438.45,2233.01 2438.45,2239.28 C2438.45,2243.13 2440.59,2245.6 2443.89,2245.6 C2446.75,2245.6 2448.57,2243.79 2448.57,2240.93 C2448.57,2238.56 2447.52,2237.19 2444.99,2235.98 C2444.39,2235.7 2444.11,2235.37 2444.11,2234.93 C2444.11,2233.17 2447.08,2231.3 2449.83,2231.3 C2453.68,2231.3 2455.88,2233.67 2455.88,2237.74 C2455.88,2242.3 2454.12,2245.55 2448.29,2251.76 C2442.13,2258.31 2439.99,2260.78 2437.24,2264.74 L2437.24,2267.33 C2438.67,2267.16 2439.27,2267.11 2440.1,2267.11 L2460.78,2267.11 C2461.82,2267.11 2462.48,2267.16 2464.13,2267.33 L2465.4,2252.48 L2462.43,2252.48 M2475.4,2257.59 C2472.54,2257.59 2470.23,2259.9 2470.23,2262.76 C2470.23,2265.57 2472.54,2267.93 2475.34,2267.93 C2478.26,2267.93 2480.57,2265.62 2480.57,2262.76 C2480.57,2259.9 2478.26,2257.59 2475.4,2257.59"/>
<polyline class="VoltaSegment" fill="none" stroke="#000000" stroke-width="2.73" stroke-linejoin="miter" stroke-miterlimit="2" points="2422.34,2267.11 2422.34,2212.55 2763.24,2212.55 2763.24,2267.11" />
<path class="NoteDot" transform="matrix(0.992,0,0,0.992,733.647,1303.8)" d="M0,0 C0,2.8 2.2,5 5,5 C7.8,5 10,2.8 10,0 C10,-2.8 7.8,-5 5,-5 C2.2,-5 0,-2.8 0,0"/>
<path class="NoteDot" transform="matrix(0.992,0,0,0.992,2042.98,671.398)" d="M0,0 C0,2.8 2.2,5 5,5 C7.8,5 10,2.8 10,0 C10,-2.8 7.8,-5 5,-5 C2.2,-5 0,-2.8 0,0"/>
<path class="NoteDot" transform="matrix(0.992,0,0,0.992,2148.23,2271)" d="M0,0 C0,2.8 2.2,5 5,5 C7.8,5 10,2.8 10,0 C10,-2.8 7.8,-5 5,-5 C2.2,-5 0,-2.8 0,0"/>
<path class="NoteDot" transform="matrix(0.992,0,0,0.992,2664.51,1155)" d="M0,0 C0,2.8 2.2,5 5,5 C7.8,5 10,2.8 10,0 C10,-2.8 7.8,-5 5,-5 C2.2,-5 0,-2.8 0,0"/>
<path class="NoteDot" transform="matrix(0.992,0,0,0.992,2311.2,671.398)" d="M0,0 C0,2.8 2.2,5 5,5 C7.8,5 10,2.8 10,0 C10,-2.8 7.8,-5 5,-5 C2.2,-5 0,-2.8 0,0"/>
<path class="NoteDot" transform="matrix(0.992,0,0,0.992,2394.79,1713)" d="M0,0 C0,2.8 2.2,5 5,5 C7.8,5 10,2.8 10,0 C10,-2.8 7.8,-5 5,-5 C2.2,-5 0,-2.8 0,0"/>
<path class="NoteDot" transform="matrix(0.992,0,0,0.992,954.792,671.398)" d="M0,0 C0,2.8 2.2,5 5,5 C7.8,5 10,2.8 10,0 C10,-2.8 7.8,-5 5,-5 C2.2,-5 0,-2.8 0,0"/>
<path class="NoteDot" transform="matrix(0.992,0,0,0.992,1227.06,696.198)" d="M0,0 C0,2.8 2.2,5 5,5 C7.8,5 10,2.8 10,0 C10,-2.8 7.8,-5 5,-5 C2.2,-5 0,-2.8 0,0"/>
<path class="NoteDot" transform="matrix(0.992,0,0,0.992,1526.91,1229.4)" d="M0,0 C0,2.8 2.2,5 5,5 C7.8,5 10,2.8 10,0 C10,-2.8 7.8,-5 5,-5 C2.2,-5 0,-2.8 0,0"/>
<path class="NoteDot" transform="matrix(0.992,0,0,0.992,2583.47,671.398)" d="M0,0 C0,2.8 2.2,5 5,5 C7.8,5 10,2.8 10,0 C10,-2.8 7.8,-5 5,-5 C2.2,-5 0,-2.8 0,0"/>
<path class="NoteDot" transform="matrix(0.992,0,0,0.992,1483.82,720.998)" d="M0,0 C0,2.8 2.2,5 5,5 C7.8,5 10,2.8 10,0 C10,-2.8 7.8,-5 5,-5 C2.2,-5 0,-2.8 0,0"/>
<path class="NoteDot" transform="matrix(0.992,0,0,0.992,1277.43,1254.2)" d="M0,0 C0,2.8 2.2,5 5,5 C7.8,5 10,2.8 10,0 C10,-2.8 7.8,-5 5,-5 C2.2,-5 0,-2.8 0,0"/>
<path class="NoteDot" transform="matrix(0.992,0,0,0.992,1027.96,1229.4)" d="M0,0 C0,2.8 2.2,5 5,5 C7.8,5 10,2.8 10,0 C10,-2.8 7.8,-5 5,-5 C2.2,-5 0,-2.8 0,0"/>
</svg>
