<?xml version="1.0" encoding="UTF-8" standalone="no"?>
<svg width="210.058mm" height="296.926mm" viewBox="0 0 2977.2 4208.4"
 xmlns="http://www.w3.org/2000/svg" xmlns:xlink="http://www.w3.org/1999/xlink" version="1.2" baseProfile="full">
<title>恋しさとせつなさと心強さと</title>
<desc>Generated by MuseScore Studio 4.5.2</desc>
<path class="" fill="#ffffff" fill-rule="evenodd" d="M0,0 L2977.2,0 L2977.2,4208.4 L0,4208.4 L0,0 "/>
<polyline class="StaffLines" fill="none" stroke="#000000" stroke-width="2.73" stroke-linejoin="bevel" points="212.598,636.741 2764.6,636.741" />
<polyline class="StaffLines" fill="none" stroke="#000000" stroke-width="2.73" stroke-linejoin="bevel" points="212.598,661.541 2764.6,661.541" />
<polyline class="StaffLines" fill="none" stroke="#000000" stroke-width="2.73" stroke-linejoin="bevel" points="212.598,686.341 2764.6,686.341" />
<polyline class="StaffLines" fill="none" stroke="#000000" stroke-width="2.73" stroke-linejoin="bevel" points="212.598,711.141 2764.6,711.141" />
<polyline class="StaffLines" fill="none" stroke="#000000" stroke-width="2.73" stroke-linejoin="bevel" points="212.598,735.941 2764.6,735.941" />
<polyline class="StaffLines" fill="none" stroke="#000000" stroke-width="2.73" stroke-linejoin="bevel" points="212.598,1318.74 2764.6,1318.74" />
<polyline class="StaffLines" fill="none" stroke="#000000" stroke-width="2.73" stroke-linejoin="bevel" points="212.598,1343.54 2764.6,1343.54" />
<polyline class="StaffLines" fill="none" stroke="#000000" stroke-width="2.73" stroke-linejoin="bevel" points="212.598,1368.34 2764.6,1368.34" />
<polyline class="StaffLines" fill="none" stroke="#000000" stroke-width="2.73" stroke-linejoin="bevel" points="212.598,1393.14 2764.6,1393.14" />
<polyline class="StaffLines" fill="none" stroke="#000000" stroke-width="2.73" stroke-linejoin="bevel" points="212.598,1417.94 2764.6,1417.94" />
<path class="Text" d="M830.142,230.743 C829.922,239.213 829.152,244.163 827.282,248.673 C824.202,256.373 818.922,260.993 808.582,265.393 C811.222,267.373 812.322,268.473 813.862,270.673 C824.422,265.283 829.372,260.553 832.892,252.523 C835.422,246.803 836.522,241.303 836.962,230.743 L851.042,230.743 L851.042,257.143 C851.042,259.123 850.492,259.673 847.962,259.673 C844.772,259.673 842.682,259.453 837.292,258.793 C838.282,261.323 838.722,262.863 839.052,265.393 C842.792,265.723 846.092,265.833 848.842,265.833 C855.662,265.833 857.752,264.073 857.752,258.573 L857.752,230.743 L878.432,230.743 C883.382,230.743 886.902,230.853 890.422,231.293 L890.422,224.033 C887.672,224.473 884.262,224.693 878.542,224.693 L845.212,224.693 L845.212,220.843 C845.212,217.653 845.432,215.453 845.872,213.033 L837.402,213.033 C837.842,215.453 838.062,217.763 838.062,220.843 L838.062,224.693 L805.832,224.693 C800.112,224.693 796.922,224.473 793.952,224.033 L793.952,231.293 C797.142,230.853 800.112,230.743 805.722,230.743 L830.142,230.743 M813.202,235.143 C810.452,241.303 808.692,244.163 805.282,248.123 C801.872,251.973 799.012,254.393 793.402,257.803 C795.602,259.453 796.812,260.663 798.682,262.973 C808.912,255.053 813.422,249.553 819.472,237.673 L813.202,235.143 M862.922,239.433 C872.272,248.233 875.902,252.743 882.502,263.193 L888.442,258.353 C881.182,248.893 876.342,243.613 867.982,235.693 L862.922,239.433 M797.252,307.083 C804.732,297.293 808.472,289.813 812.102,276.833 L805.832,274.193 C804.182,280.573 803.082,283.763 800.772,288.383 C798.242,293.773 796.152,296.743 791.532,302.243 L797.252,307.083 M828.052,283.323 C828.052,278.373 828.162,276.283 828.712,273.203 L820.462,273.203 C820.902,276.723 821.122,279.473 821.122,283.323 L821.122,299.933 C821.122,308.183 824.422,309.723 841.582,309.723 C856.322,309.723 862.262,309.063 865.122,306.973 C867.982,304.773 868.972,301.803 870.072,291.023 C867.322,290.363 865.672,289.703 863.252,288.273 C862.922,296.523 862.262,300.263 860.942,301.363 C859.182,302.903 854.672,303.453 842.682,303.453 C829.482,303.453 828.052,303.013 828.052,298.613 L828.052,283.323 M856.762,287.723 C851.042,280.243 847.192,276.063 840.482,270.343 L835.422,274.193 C841.692,279.693 845.762,284.423 851.372,292.453 L856.762,287.723 M891.082,301.143 C884.702,288.933 880.412,282.333 872.602,272.983 L867.102,276.503 C875.682,287.173 878.212,291.243 884.922,305.873 L891.082,301.143 "/>
<path class="Text" d="M922.322,218.423 C922.652,220.623 922.762,221.943 922.762,224.253 C922.762,226.013 922.762,228.103 922.652,231.403 C921.772,266.053 921.662,268.803 921.662,276.173 C921.662,287.723 923.202,293.553 927.712,298.723 C932.112,303.783 939.042,306.423 948.392,306.423 C961.262,306.423 971.602,301.913 979.412,292.673 C984.252,287.063 987.442,280.573 991.622,267.703 C988.102,265.943 986.782,265.063 983.702,262.423 C982.162,270.123 980.842,274.413 978.312,279.693 C972.042,292.233 961.922,298.833 948.832,298.833 C943.112,298.833 938.162,297.293 935.082,294.543 C931.782,291.573 930.352,287.943 929.912,281.343 C929.802,278.813 929.692,276.063 929.692,274.743 C929.692,269.793 930.022,254.833 930.462,241.633 C930.792,227.773 931.232,222.163 931.892,218.423 L922.322,218.423 M1023.41,246.033 C1025.06,245.813 1025.61,245.703 1027.7,245.703 C1042.22,245.483 1055.97,244.383 1066.86,242.843 C1067.52,243.943 1067.52,244.163 1068.73,246.473 C1073.46,255.713 1076.21,260.223 1081.93,268.033 C1077.31,265.613 1068.62,264.073 1059.16,264.073 C1050.25,264.073 1043.65,265.283 1037.82,268.143 C1030.12,271.883 1025.39,278.813 1025.39,286.073 C1025.39,290.473 1027.15,294.763 1030.34,298.173 C1035.4,303.453 1045.52,306.423 1058.94,306.423 C1069.83,306.423 1080.28,304.553 1091.28,300.483 L1090.07,292.013 C1081.82,296.303 1069.72,299.053 1058.83,299.053 C1049.37,299.053 1041.45,297.183 1037.38,293.993 C1034.74,291.793 1033.2,288.823 1033.2,285.413 C1033.2,281.453 1035.51,277.493 1039.14,275.183 C1044.09,272.103 1050.8,270.563 1060.04,270.563 C1067.52,270.563 1073.68,271.553 1079.29,273.423 C1082.37,274.523 1083.91,275.513 1086.88,277.933 L1094.25,273.753 C1086.55,263.523 1078.41,250.323 1074.45,241.743 C1075.55,241.523 1075.55,241.523 1078.19,240.973 C1085.12,239.653 1086.44,239.323 1093.04,237.563 C1096.34,236.683 1097.22,236.463 1099.53,236.023 L1098.43,228.213 C1092.49,230.743 1082.48,233.383 1071.81,235.143 C1070.82,233.053 1070.49,232.503 1067.85,225.463 C1065.1,218.423 1065.1,218.423 1064.66,215.563 L1055.97,216.773 C1056.96,218.753 1057.62,220.293 1058.83,223.153 C1060.81,228.103 1062.57,232.503 1064.22,236.243 C1053.88,237.673 1041.45,238.553 1031.44,238.553 C1027.7,238.553 1025.83,238.443 1022.97,238.003 L1023.41,246.033 M1150.9,217.873 C1151.56,219.633 1151.78,220.183 1152.77,224.803 C1155.63,238.883 1157.72,246.583 1160.8,255.603 C1153.98,259.013 1150.57,261.103 1146.39,264.513 C1139.9,269.793 1136.6,276.173 1136.6,283.213 C1136.6,291.903 1141.22,297.953 1150.24,301.253 C1155.52,303.233 1163.77,304.223 1174.66,304.223 C1182.36,304.223 1187.64,303.893 1198.97,302.793 C1205.02,302.133 1205.02,302.133 1207.11,302.133 L1206.23,293.003 C1199.74,295.313 1187.42,296.743 1174.77,296.743 C1153.21,296.743 1144.74,292.893 1144.74,282.883 C1144.74,273.753 1152.88,266.493 1171.69,259.013 C1181.37,255.053 1197.1,249.993 1204.8,248.343 L1201.5,239.983 C1199.3,241.083 1198.31,241.413 1194.46,242.843 C1177.41,248.783 1174.33,249.993 1167.84,252.633 C1164.1,241.633 1160.03,223.593 1159.59,216.223 L1150.9,217.873 M1254.96,220.513 C1255.4,223.483 1255.51,226.673 1255.51,236.903 C1255.51,239.653 1255.51,240.643 1255.51,244.053 C1243.96,245.043 1237.14,245.483 1235.16,245.483 C1234.72,245.483 1233.84,245.483 1232.74,245.373 L1233.4,253.073 C1238.46,252.193 1244.62,251.533 1255.51,250.763 C1255.51,254.613 1255.51,263.853 1255.51,264.513 C1255.51,280.243 1255.84,286.623 1256.94,290.583 C1259.8,300.483 1268.16,304.223 1287.74,304.223 C1296.21,304.223 1305.34,303.453 1315.57,301.913 C1318.21,301.583 1318.43,301.473 1319.97,301.363 L1319.09,292.893 C1312.05,295.423 1300.5,296.963 1288.51,296.963 C1281.47,296.963 1274.76,296.303 1271.35,295.093 C1267.06,293.773 1264.97,291.683 1263.98,287.943 C1263.21,284.753 1262.88,277.163 1262.88,260.223 C1262.88,258.793 1262.88,256.813 1262.88,254.943 C1262.88,253.403 1262.88,252.303 1262.88,251.863 C1262.88,251.423 1262.88,250.983 1262.88,250.323 C1277.51,249.333 1285.43,248.893 1298.74,248.453 C1298.52,256.923 1298.3,260.553 1297.42,265.393 C1296.43,270.783 1295.11,272.543 1292.03,272.543 C1288.84,272.543 1283.67,270.453 1277.62,266.493 C1277.73,268.693 1277.84,269.793 1277.84,271.003 C1277.84,272.103 1277.73,272.653 1277.62,274.303 C1284.22,277.933 1288.62,279.363 1292.91,279.363 C1298.63,279.363 1302.26,276.173 1304.02,269.683 C1305.12,265.283 1305.89,257.583 1306,248.233 C1309.52,248.233 1311.94,248.123 1313.7,248.123 C1317.33,248.013 1320.19,248.013 1321.18,248.013 C1325.8,248.013 1326.46,248.013 1329.43,248.233 L1329.21,240.423 C1325.58,240.863 1317,241.193 1306.22,241.413 L1306.22,238.443 L1306.33,231.293 L1306.33,226.673 C1306.33,223.153 1306.44,220.403 1306.77,218.203 L1298.3,218.203 C1298.85,221.613 1298.96,224.913 1298.96,234.923 C1298.96,236.243 1298.96,237.453 1298.85,238.663 C1298.85,239.433 1298.85,239.983 1298.85,240.313 C1298.85,240.643 1298.85,241.083 1298.85,241.743 C1285.1,242.293 1280.7,242.513 1262.88,243.503 C1263.21,224.033 1263.21,224.033 1263.87,220.513 L1254.96,220.513 M1348.57,250.213 C1350.44,249.333 1351.87,248.893 1356.49,247.573 C1375.52,242.293 1389.93,239.763 1401.37,239.763 C1416.33,239.763 1425.46,247.243 1425.46,259.563 C1425.46,271.883 1416.99,281.783 1401.92,287.283 C1393.56,290.363 1383.66,291.903 1371.34,292.343 C1373.32,295.313 1373.87,296.633 1374.75,300.483 C1391.8,299.053 1401.04,296.963 1411.16,292.123 C1425.9,284.973 1434.04,273.423 1434.04,259.673 C1434.04,242.843 1421.28,232.173 1401.15,232.173 C1392.02,232.173 1381.46,233.493 1369.25,236.243 C1349.67,240.643 1349.67,240.643 1346.37,240.863 L1348.57,250.213 M1483.1,215.013 C1482.88,220.073 1481.12,229.423 1479.36,235.693 C1477.27,235.693 1473.64,235.803 1471.44,235.803 C1465.39,235.803 1462.09,235.583 1458.35,234.923 L1458.24,242.513 C1458.9,242.513 1459.45,242.513 1459.67,242.513 C1460,242.513 1460.88,242.513 1462.09,242.623 C1463.74,242.623 1467.48,242.733 1469.35,242.733 C1471,242.733 1474.74,242.623 1477.49,242.513 C1474.3,252.963 1471.11,260.883 1466.05,270.893 C1461.98,278.813 1459.01,283.653 1455.49,288.053 L1462.97,292.453 C1463.52,291.573 1464.18,290.253 1465.17,288.713 C1469.35,281.453 1470.34,279.583 1472.98,274.303 C1477.82,264.183 1481.78,253.953 1485.19,242.183 C1491.9,241.743 1498.72,240.863 1503.23,239.873 C1505.87,239.433 1505.87,239.433 1507.08,239.213 L1506.75,231.623 C1501.69,233.273 1494.76,234.593 1487.06,235.253 C1488.6,229.643 1489.26,227.003 1490.03,223.263 C1490.91,218.753 1491.02,218.313 1491.79,216.223 L1483.1,215.013 M1547.89,245.373 C1538.98,239.653 1531.61,235.913 1518.85,230.853 L1514.78,237.013 C1526.33,241.193 1534.69,245.593 1543.93,251.973 L1547.89,245.373 M1548.11,294.103 C1547.34,293.553 1547.34,293.553 1546.13,292.343 C1540.19,287.063 1533.37,282.883 1524.57,279.033 C1523.91,274.853 1523.36,267.263 1523.36,262.313 C1523.36,258.463 1523.69,256.153 1524.79,252.083 L1517.31,251.313 C1516.43,255.383 1516.21,258.023 1516.21,261.983 C1516.21,264.733 1516.43,269.903 1516.98,277.053 C1512.69,275.843 1509.94,275.403 1505.87,275.403 C1500.92,275.403 1496.74,276.173 1492.89,277.823 C1486.73,280.353 1482.66,285.853 1482.66,291.793 C1482.66,301.583 1490.91,307.743 1504.11,307.743 C1517.53,307.743 1525.01,301.473 1525.01,290.143 C1525.01,289.043 1525.01,288.383 1524.79,286.623 C1532.82,290.803 1539.75,296.303 1544.04,301.583 L1548.11,294.103 M1517.53,284.093 C1517.53,284.093 1517.75,287.503 1517.75,288.823 C1517.75,297.073 1513.46,300.813 1504,300.813 C1495.31,300.813 1490.03,297.403 1490.03,291.793 C1490.03,285.743 1495.97,281.893 1505.32,281.893 C1509.72,281.893 1512.91,282.443 1517.53,284.093 M1573.41,246.033 C1575.06,245.813 1575.61,245.703 1577.7,245.703 C1592.22,245.483 1605.97,244.383 1616.86,242.843 C1617.52,243.943 1617.52,244.163 1618.73,246.473 C1623.46,255.713 1626.21,260.223 1631.93,268.033 C1627.31,265.613 1618.62,264.073 1609.16,264.073 C1600.25,264.073 1593.65,265.283 1587.82,268.143 C1580.12,271.883 1575.39,278.813 1575.39,286.073 C1575.39,290.473 1577.15,294.763 1580.34,298.173 C1585.4,303.453 1595.52,306.423 1608.94,306.423 C1619.83,306.423 1630.28,304.553 1641.28,300.483 L1640.07,292.013 C1631.82,296.303 1619.72,299.053 1608.83,299.053 C1599.37,299.053 1591.45,297.183 1587.38,293.993 C1584.74,291.793 1583.2,288.823 1583.2,285.413 C1583.2,281.453 1585.51,277.493 1589.14,275.183 C1594.09,272.103 1600.8,270.563 1610.04,270.563 C1617.52,270.563 1623.68,271.553 1629.29,273.423 C1632.37,274.523 1633.91,275.513 1636.88,277.933 L1644.25,273.753 C1636.55,263.523 1628.41,250.323 1624.45,241.743 C1625.55,241.523 1625.55,241.523 1628.19,240.973 C1635.12,239.653 1636.44,239.323 1643.04,237.563 C1646.34,236.683 1647.22,236.463 1649.53,236.023 L1648.43,228.213 C1642.49,230.743 1632.48,233.383 1621.81,235.143 C1620.82,233.053 1620.49,232.503 1617.85,225.463 C1615.1,218.423 1615.1,218.423 1614.66,215.563 L1605.97,216.773 C1606.96,218.753 1607.62,220.293 1608.83,223.153 C1610.81,228.103 1612.57,232.503 1614.22,236.243 C1603.88,237.673 1591.45,238.553 1581.44,238.553 C1577.7,238.553 1575.83,238.443 1572.97,238.003 L1573.41,246.033 M1700.9,217.873 C1701.56,219.633 1701.78,220.183 1702.77,224.803 C1705.63,238.883 1707.72,246.583 1710.8,255.603 C1703.98,259.013 1700.57,261.103 1696.39,264.513 C1689.9,269.793 1686.6,276.173 1686.6,283.213 C1686.6,291.903 1691.22,297.953 1700.24,301.253 C1705.52,303.233 1713.77,304.223 1724.66,304.223 C1732.36,304.223 1737.64,303.893 1748.97,302.793 C1755.02,302.133 1755.02,302.133 1757.11,302.133 L1756.23,293.003 C1749.74,295.313 1737.42,296.743 1724.77,296.743 C1703.21,296.743 1694.74,292.893 1694.74,282.883 C1694.74,273.753 1702.88,266.493 1721.69,259.013 C1731.37,255.053 1747.1,249.993 1754.8,248.343 L1751.5,239.983 C1749.3,241.083 1748.31,241.413 1744.46,242.843 C1727.41,248.783 1724.33,249.993 1717.84,252.633 C1714.1,241.633 1710.03,223.593 1709.59,216.223 L1700.9,217.873 "/>
<path class="Text" d="M1787.91,294.983 C1792.2,287.063 1793.74,283.433 1796.16,275.623 C1799.02,266.713 1800.34,261.103 1802.43,249.003 L1795.06,247.023 C1793.52,258.133 1792.31,263.523 1789.34,272.433 C1786.92,280.023 1785.27,283.433 1780.87,290.693 L1787.91,294.983 M1852.92,229.863 C1840.27,222.053 1832.24,218.313 1816.62,212.593 L1812.33,218.643 C1828.5,224.583 1836.64,228.653 1847.97,236.353 L1852.92,229.863 M1883.61,287.833 C1877.56,269.793 1873.49,260.773 1864.69,246.033 L1858.2,249.443 C1863.04,257.473 1865.13,261.323 1868.32,268.913 C1871.73,276.723 1873.49,281.783 1876.46,291.903 L1883.61,287.833 M1819.48,246.473 C1819.48,242.403 1819.7,239.543 1820.25,236.133 L1811.34,236.133 C1811.89,240.423 1812.11,243.063 1812.11,246.583 L1812.11,299.273 C1812.11,307.413 1815.19,308.733 1834.11,308.733 C1851.16,308.733 1855.12,307.743 1857.76,302.573 C1859.85,298.503 1860.84,292.453 1861.94,278.813 C1859.19,278.153 1857.21,277.383 1854.46,275.953 C1854.24,284.753 1853.8,289.593 1852.92,294.103 C1852.15,298.063 1851.05,299.823 1848.85,300.483 C1846.43,301.363 1841.26,301.803 1834.77,301.803 C1822.01,301.803 1819.48,301.143 1819.48,297.733 L1819.48,246.473 M1954.56,253.843 L1940.37,253.843 C1935.97,253.843 1933.44,253.733 1930.8,253.403 C1931.13,255.823 1931.24,258.243 1931.24,261.543 L1931.24,273.863 C1931.24,277.603 1931.13,280.023 1930.8,282.663 C1933.88,282.333 1936.19,282.223 1940.59,282.223 L1954.56,282.223 L1954.56,299.713 C1944.44,300.703 1932.67,301.473 1928.16,301.473 C1927.17,301.473 1926.51,301.473 1925.19,301.363 L1926.62,308.953 C1928.05,308.733 1928.82,308.513 1930.47,308.403 C1951.81,306.423 1963.91,304.773 1981.29,301.473 C1984.15,306.093 1984.92,307.633 1987.12,312.143 L1993.06,309.063 C1988.22,300.263 1984.48,294.653 1976.89,284.753 L1971.61,287.613 C1974.8,291.573 1975.68,292.783 1978.1,296.303 C1972.05,297.403 1968.53,297.953 1961.05,298.943 L1961.05,282.223 L1976.89,282.223 C1980.63,282.223 1983.05,282.333 1986.13,282.663 C1985.8,280.023 1985.69,277.823 1985.69,274.193 L1985.69,260.663 C1985.69,257.473 1985.8,255.603 1986.13,253.403 C1983.38,253.733 1981.4,253.843 1977.55,253.843 L1961.05,253.843 L1961.05,241.743 C1966.11,241.303 1972.49,240.753 1980.08,239.873 C1982.28,242.953 1982.94,243.943 1985.58,247.903 L1991.19,243.613 C1984.04,233.823 1978.21,226.893 1970.07,218.753 L1964.9,221.943 C1970.18,227.443 1972.05,229.533 1976.01,234.483 C1965.78,235.583 1955.22,236.353 1944.66,236.683 C1949.39,229.753 1951.59,225.793 1956.87,215.453 L1949.28,213.473 C1946.53,221.503 1943.23,227.993 1937.51,236.903 C1933.66,237.013 1933.66,237.013 1932.67,237.013 C1931.02,237.013 1929.37,236.903 1927.61,236.793 L1928.71,243.943 C1930.91,243.503 1932.89,243.393 1940.15,243.063 C1947.3,242.733 1949.94,242.513 1954.56,242.183 L1954.56,253.843 M1954.56,259.673 L1954.56,276.393 L1937.51,276.393 L1937.51,259.673 L1954.56,259.673 M1961.05,259.673 L1979.31,259.673 L1979.31,276.393 L1961.05,276.393 L1961.05,259.673 M1902.75,266.493 C1903.52,262.093 1904.73,252.303 1905.06,248.453 L1916.72,248.453 C1919.8,248.453 1922.22,248.563 1924.53,248.783 C1924.31,246.473 1924.2,243.393 1924.2,240.093 L1924.2,225.573 C1924.2,222.603 1924.31,220.293 1924.53,217.873 C1922.33,218.093 1919.91,218.203 1917.27,218.203 L1904.84,218.203 C1900,218.203 1896.92,217.983 1894.61,217.543 L1894.61,224.803 C1897.14,224.473 1900.44,224.363 1904.73,224.363 L1917.6,224.363 L1917.6,242.293 L1909.13,242.293 C1903.08,242.293 1901.32,242.183 1898.57,241.853 C1898.24,253.843 1897.03,263.633 1894.94,272.763 C1896.92,272.653 1899.23,272.543 1902.42,272.543 L1917.05,272.543 C1916.83,284.973 1915.73,294.103 1913.75,300.263 C1912.87,302.903 1911.44,303.673 1907.81,303.673 C1904.62,303.673 1900.22,303.233 1895.49,302.573 C1896.37,305.433 1896.59,306.753 1896.81,309.833 C1901.1,310.163 1904.84,310.383 1908.36,310.383 C1913.75,310.383 1916.5,309.283 1918.48,306.203 C1921.45,301.803 1923.32,289.593 1923.87,271.333 C1923.98,268.913 1923.98,268.033 1924.2,266.163 C1922.11,266.383 1919.69,266.493 1915.95,266.493 L1902.75,266.493 "/>
<path class="Text" d="M2013.41,246.033 C2015.06,245.813 2015.61,245.703 2017.7,245.703 C2032.22,245.483 2045.97,244.383 2056.86,242.843 C2057.52,243.943 2057.52,244.163 2058.73,246.473 C2063.46,255.713 2066.21,260.223 2071.93,268.033 C2067.31,265.613 2058.62,264.073 2049.16,264.073 C2040.25,264.073 2033.65,265.283 2027.82,268.143 C2020.12,271.883 2015.39,278.813 2015.39,286.073 C2015.39,290.473 2017.15,294.763 2020.34,298.173 C2025.4,303.453 2035.52,306.423 2048.94,306.423 C2059.83,306.423 2070.28,304.553 2081.28,300.483 L2080.07,292.013 C2071.82,296.303 2059.72,299.053 2048.83,299.053 C2039.37,299.053 2031.45,297.183 2027.38,293.993 C2024.74,291.793 2023.2,288.823 2023.2,285.413 C2023.2,281.453 2025.51,277.493 2029.14,275.183 C2034.09,272.103 2040.8,270.563 2050.04,270.563 C2057.52,270.563 2063.68,271.553 2069.29,273.423 C2072.37,274.523 2073.91,275.513 2076.88,277.933 L2084.25,273.753 C2076.55,263.523 2068.41,250.323 2064.45,241.743 C2065.55,241.523 2065.55,241.523 2068.19,240.973 C2075.12,239.653 2076.44,239.323 2083.04,237.563 C2086.34,236.683 2087.22,236.463 2089.53,236.023 L2088.43,228.213 C2082.49,230.743 2072.48,233.383 2061.81,235.143 C2060.82,233.053 2060.49,232.503 2057.85,225.463 C2055.1,218.423 2055.1,218.423 2054.66,215.563 L2045.97,216.773 C2046.96,218.753 2047.62,220.293 2048.83,223.153 C2050.81,228.103 2052.57,232.503 2054.22,236.243 C2043.88,237.673 2031.45,238.553 2021.44,238.553 C2017.7,238.553 2015.83,238.443 2012.97,238.003 L2013.41,246.033 M2140.9,217.873 C2141.56,219.633 2141.78,220.183 2142.77,224.803 C2145.63,238.883 2147.72,246.583 2150.8,255.603 C2143.98,259.013 2140.57,261.103 2136.39,264.513 C2129.9,269.793 2126.6,276.173 2126.6,283.213 C2126.6,291.903 2131.22,297.953 2140.24,301.253 C2145.52,303.233 2153.77,304.223 2164.66,304.223 C2172.36,304.223 2177.64,303.893 2188.97,302.793 C2195.02,302.133 2195.02,302.133 2197.11,302.133 L2196.23,293.003 C2189.74,295.313 2177.42,296.743 2164.77,296.743 C2143.21,296.743 2134.74,292.893 2134.74,282.883 C2134.74,273.753 2142.88,266.493 2161.69,259.013 C2171.37,255.053 2187.1,249.993 2194.8,248.343 L2191.5,239.983 C2189.3,241.083 2188.31,241.413 2184.46,242.843 C2167.41,248.783 2164.33,249.993 2157.84,252.633 C2154.1,241.633 2150.03,223.593 2149.59,216.223 L2140.9,217.873 "/>
<path class="MeasureNumber" d="M216.922,1253.82 C215.682,1254.58 215.322,1255.06 215.322,1255.86 C215.322,1256.62 215.962,1257.18 216.762,1257.18 C217.802,1257.18 218.402,1256.42 218.522,1254.94 C219.762,1253.94 221.082,1253.5 222.682,1253.5 C225.642,1253.5 227.282,1255.34 227.282,1258.66 C227.282,1263.86 223.922,1268.1 219.802,1268.1 C217.442,1268.1 215.522,1266.98 215.522,1265.66 C215.522,1265.42 215.562,1265.34 215.762,1265.22 C217.042,1264.62 218.082,1264.18 218.082,1262.5 C218.082,1261.22 217.082,1260.26 215.682,1260.26 C213.922,1260.26 212.602,1261.74 212.602,1263.66 C212.602,1267.18 215.642,1269.74 219.922,1269.74 C226.402,1269.74 231.642,1264.58 231.642,1258.18 C231.642,1254.14 228.562,1251.3 224.202,1251.3 C222.482,1251.3 221.082,1251.66 219.162,1252.62 L221.402,1245.06 C223.522,1245.5 225.202,1245.7 226.642,1245.7 C229.282,1245.7 231.642,1244.86 232.962,1243.46 C233.642,1242.66 234.042,1241.98 234.042,1241.46 C234.042,1241.22 233.922,1240.98 233.762,1240.98 C233.642,1240.98 233.562,1241.02 233.322,1241.14 C232.002,1241.78 230.322,1242.14 228.762,1242.14 C226.362,1242.14 223.522,1241.74 220.562,1240.98 L216.922,1253.82 "/>
<path class="TieSegment" stroke="#000000" stroke-width="1.24" stroke-linecap="round" stroke-linejoin="round" fill-rule="evenodd" d="M1401.46,668.245 C1413.94,646.931 1451.38,646.931 1463.86,668.245 C1451.38,653.394 1413.94,653.394 1401.46,668.245"/>
<path class="TieSegment" stroke="#000000" stroke-width="1.24" stroke-linecap="round" stroke-linejoin="round" fill-rule="evenodd" d="M1241.98,716.837 C1252.18,728.926 1282.81,728.926 1293.02,716.837 C1282.81,734.935 1252.18,734.935 1241.98,716.837"/>
<path class="TieSegment" stroke="#000000" stroke-width="1.24" stroke-linecap="round" stroke-linejoin="round" fill-rule="evenodd" d="M721.999,729.237 C737.808,745.805 785.235,745.805 801.044,729.237 C785.235,752.935 737.808,752.935 721.999,729.237"/>
<path class="TieSegment" stroke="#000000" stroke-width="1.24" stroke-linecap="round" stroke-linejoin="round" fill-rule="evenodd" d="M581.991,741.637 C592.199,753.726 622.825,753.726 633.034,741.637 C622.825,759.735 592.199,759.735 581.991,741.637"/>
<path class="TieSegment" stroke="#000000" stroke-width="1.24" stroke-linecap="round" stroke-linejoin="round" fill-rule="evenodd" d="M1921.44,643.445 C1928.32,624.426 1948.95,624.426 1955.83,643.445 C1948.95,629.769 1928.32,629.769 1921.44,643.445"/>
<path class="TieSegment" stroke="#000000" stroke-width="1.24" stroke-linecap="round" stroke-linejoin="round" fill-rule="evenodd" d="M2251.94,680.645 C2258.82,665.905 2279.46,665.905 2286.33,680.645 C2279.46,671.249 2258.82,671.249 2251.94,680.645"/>
<path class="TieSegment" stroke="#000000" stroke-width="1.24" stroke-linecap="round" stroke-linejoin="round" fill-rule="evenodd" d="M524.047,1398.84 C534.295,1410.95 565.042,1410.95 575.291,1398.84 C565.042,1416.97 534.295,1416.97 524.047,1398.84"/>
<path class="TieSegment" stroke="#000000" stroke-width="1.24" stroke-linecap="round" stroke-linejoin="round" fill-rule="evenodd" d="M2321.04,1398.84 C2331.29,1410.95 2362.03,1410.95 2372.28,1398.84 C2362.03,1416.97 2331.29,1416.97 2321.04,1398.84"/>
<path class="TieSegment" stroke="#000000" stroke-width="1.24" stroke-linecap="round" stroke-linejoin="round" fill-rule="evenodd" d="M1144.12,1411.24 C1154.37,1425.7 1185.12,1425.7 1195.36,1411.24 C1185.12,1431.72 1154.37,1431.72 1144.12,1411.24"/>
<path class="TieSegment" stroke="#000000" stroke-width="1.24" stroke-linecap="round" stroke-linejoin="round" fill-rule="evenodd" d="M1700.96,1411.24 C1711.21,1425.7 1741.96,1425.7 1752.21,1411.24 C1741.96,1431.72 1711.21,1431.72 1700.96,1411.24"/>
<polyline class="BarLine" fill="none" stroke="#000000" stroke-width="4.46" stroke-linejoin="bevel" points="2163.23,1317.38 2163.23,1419.3" />
<polyline class="BarLine" fill="none" stroke="#000000" stroke-width="4.46" stroke-linejoin="bevel" points="1543.15,1317.38 1543.15,1419.3" />
<path class="BarLine" transform="matrix(0.992,0,0,0.992,2717.84,1355.94)" d="M10.4,0 C10.4,-2.9 8.1,-5.3 5.2,-5.3 C2.3,-5.3 0,-2.9 0,0 C0,2.9 2.3,5.3 5.2,5.3 C8.1,5.3 10.4,2.9 10.4,0"/>
<path class="BarLine" transform="matrix(0.992,0,0,0.992,2717.84,1380.74)" d="M10.4,0 C10.4,-2.9 8.1,-5.3 5.2,-5.3 C2.3,-5.3 0,-2.9 0,0 C0,2.9 2.3,5.3 5.2,5.3 C8.1,5.3 10.4,2.9 10.4,0"/>
<polyline class="BarLine" fill="none" stroke="#000000" stroke-width="4.46" stroke-linejoin="bevel" points="2739.55,1317.38 2739.55,1419.3" />
<polyline class="BarLine" fill="none" stroke="#000000" stroke-width="13.64" stroke-linejoin="bevel" points="2757.78,1317.38 2757.78,1419.3" />
<polyline class="BarLine" fill="none" stroke="#000000" stroke-width="4.46" stroke-linejoin="bevel" points="2762.37,635.377 2762.37,737.305" />
<polyline class="BarLine" fill="none" stroke="#000000" stroke-width="4.46" stroke-linejoin="bevel" points="2441,635.377 2441,737.305" />
<polyline class="BarLine" fill="none" stroke="#000000" stroke-width="4.46" stroke-linejoin="bevel" points="1744.53,635.377 1744.53,737.305" />
<polyline class="BarLine" fill="none" stroke="#000000" stroke-width="4.46" stroke-linejoin="bevel" points="1084.55,635.377 1084.55,737.305" />
<polyline class="BarLine" fill="none" stroke="#000000" stroke-width="4.46" stroke-linejoin="bevel" points="986.308,1317.38 986.308,1419.3" />
<polyline class="Stem" fill="none" stroke="#000000" stroke-width="2.48" stroke-linejoin="bevel" points="1770.45,1389.17 1770.45,1318.83" />
<polyline class="Stem" fill="none" stroke="#000000" stroke-width="2.48" stroke-linejoin="bevel" points="2334.32,1376.77 2334.32,1300.14" />
<polyline class="Stem" fill="none" stroke="#000000" stroke-width="2.48" stroke-linejoin="bevel" points="1255.25,694.773 1255.25,618.211" />
<polyline class="Stem" fill="none" stroke="#000000" stroke-width="2.48" stroke-linejoin="bevel" points="1714.24,1389.17 1714.24,1306.27" />
<polyline class="Stem" fill="none" stroke="#000000" stroke-width="2.48" stroke-linejoin="bevel" points="1311.26,694.773 1311.26,624.252" />
<polyline class="Stem" fill="none" stroke="#000000" stroke-width="2.48" stroke-linejoin="bevel" points="1854.75,1401.57 1854.75,1324.85" />
<polyline class="Stem" fill="none" stroke="#000000" stroke-width="2.48" stroke-linejoin="bevel" points="1607.37,1376.77 1607.37,1300.21" />
<polyline class="Stem" fill="none" stroke="#000000" stroke-width="2.48" stroke-linejoin="bevel" points="1395.26,682.373 1395.26,618.23" />
<polyline class="Stem" fill="none" stroke="#000000" stroke-width="2.48" stroke-linejoin="bevel" points="957.546,690.507 957.546,760.741" />
<polyline class="Stem" fill="none" stroke="#000000" stroke-width="2.48" stroke-linejoin="bevel" points="1449.52,690.507 1449.52,754.452" />
<polyline class="Stem" fill="none" stroke="#000000" stroke-width="2.48" stroke-linejoin="bevel" points="1382.22,1389.17 1382.22,1306.34" />
<polyline class="Stem" fill="none" stroke="#000000" stroke-width="2.48" stroke-linejoin="bevel" points="1297.91,1401.57 1297.91,1324.85" />
<polyline class="Stem" fill="none" stroke="#000000" stroke-width="2.48" stroke-linejoin="bevel" points="1533.53,678.107 1533.53,748.43" />
<polyline class="Stem" fill="none" stroke="#000000" stroke-width="2.48" stroke-linejoin="bevel" points="1939.06,1389.17 1939.06,1306.34" />
<polyline class="Stem" fill="none" stroke="#000000" stroke-width="2.48" stroke-linejoin="bevel" points="1617.53,665.707 1617.53,748.341" />
<polyline class="Stem" fill="none" stroke="#000000" stroke-width="2.48" stroke-linejoin="bevel" points="1213.6,1389.17 1213.6,1318.83" />
<polyline class="Stem" fill="none" stroke="#000000" stroke-width="2.48" stroke-linejoin="bevel" points="1157.4,1389.17 1157.4,1306.27" />
<polyline class="Stem" fill="none" stroke="#000000" stroke-width="2.48" stroke-linejoin="bevel" points="2065.52,1389.17 2065.52,1306.34" />
<polyline class="Stem" fill="none" stroke="#000000" stroke-width="2.48" stroke-linejoin="bevel" points="1808.75,669.973 1808.75,593.27" />
<polyline class="Stem" fill="none" stroke="#000000" stroke-width="2.48" stroke-linejoin="bevel" points="1050.52,1376.77 1050.52,1300.21" />
<polyline class="Stem" fill="none" stroke="#000000" stroke-width="2.48" stroke-linejoin="bevel" points="2559.13,1364.37 2559.13,1293.94" />
<polyline class="Stem" fill="none" stroke="#000000" stroke-width="2.48" stroke-linejoin="bevel" points="537.324,1376.77 537.324,1300.14" />
<polyline class="Stem" fill="none" stroke="#000000" stroke-width="2.48" stroke-linejoin="bevel" points="1915.24,657.573 1915.24,587.211" />
<polyline class="Stem" fill="none" stroke="#000000" stroke-width="2.48" stroke-linejoin="bevel" points="888.601,1376.77 888.601,1300.14" />
<polyline class="Stem" fill="none" stroke="#000000" stroke-width="2.48" stroke-linejoin="bevel" points="1941.5,665.707 1941.5,736.03" />
<polyline class="Stem" fill="none" stroke="#000000" stroke-width="2.48" stroke-linejoin="bevel" points="762.141,1364.37 762.141,1293.94" />
<polyline class="Stem" fill="none" stroke="#000000" stroke-width="2.48" stroke-linejoin="bevel" points="2474.83,1376.77 2474.83,1312.54" />
<polyline class="Stem" fill="none" stroke="#000000" stroke-width="2.48" stroke-linejoin="bevel" points="2025.5,678.107 2025.5,742.052" />
<polyline class="Stem" fill="none" stroke="#000000" stroke-width="2.48" stroke-linejoin="bevel" points="677.835,1376.77 677.835,1312.54" />
<polyline class="Stem" fill="none" stroke="#000000" stroke-width="2.48" stroke-linejoin="bevel" points="2139.25,682.373 2139.25,618.211" />
<polyline class="Stem" fill="none" stroke="#000000" stroke-width="2.48" stroke-linejoin="bevel" points="488.777,731.973 488.777,642.87" />
<polyline class="Stem" fill="none" stroke="#000000" stroke-width="2.48" stroke-linejoin="bevel" points="593.528,1376.77 593.528,1312.54" />
<polyline class="Stem" fill="none" stroke="#000000" stroke-width="2.48" stroke-linejoin="bevel" points="2390.52,1376.77 2390.52,1312.54" />
<polyline class="Stem" fill="none" stroke="#000000" stroke-width="2.48" stroke-linejoin="bevel" points="2245.74,694.773 2245.74,624.27" />
<polyline class="Stem" fill="none" stroke="#000000" stroke-width="2.48" stroke-linejoin="bevel" points="903.286,694.773 903.286,630.63" />
<polyline class="Stem" fill="none" stroke="#000000" stroke-width="2.48" stroke-linejoin="bevel" points="2272,702.907 2272,766.763" />
<polyline class="Stem" fill="none" stroke="#000000" stroke-width="2.48" stroke-linejoin="bevel" points="430.451,1376.77 430.451,1300.14" />
<polyline class="Stem" fill="none" stroke="#000000" stroke-width="2.48" stroke-linejoin="bevel" points="2227.44,1376.77 2227.44,1300.14" />
<polyline class="Stem" fill="none" stroke="#000000" stroke-width="2.48" stroke-linejoin="bevel" points="2356.01,678.107 2356.01,754.719" />
<polyline class="Stem" fill="none" stroke="#000000" stroke-width="2.48" stroke-linejoin="bevel" points="1148.76,707.173 1148.76,624.27" />
<polyline class="Stem" fill="none" stroke="#000000" stroke-width="2.48" stroke-linejoin="bevel" points="595.268,719.573 595.268,636.811" />
<polyline class="Stem" fill="none" stroke="#000000" stroke-width="2.48" stroke-linejoin="bevel" points="819.281,707.173 819.281,636.652" />
<polyline class="Stem" fill="none" stroke="#000000" stroke-width="2.48" stroke-linejoin="bevel" points="651.271,719.573 651.271,642.852" />
<polyline class="Stem" fill="none" stroke="#000000" stroke-width="2.48" stroke-linejoin="bevel" points="735.276,707.173 735.276,636.83" />
<path class="Note" transform="matrix(0.992,0,0,0.992,1739.46,1393.14)" d="M0,4.2 C0,8.5 3.1,13.3 11.2,13.3 C21.6,13.3 32.5,4.8 32.5,-4 C32.5,-9.9 27.5,-13.2 21.3,-13.2 C11.6,-13.2 0,-5 0,4.2"/>
<path class="Note" transform="matrix(0.992,0,0,0.992,1576.38,1380.74)" d="M0,4.2 C0,8.5 3.1,13.3 11.2,13.3 C21.6,13.3 32.5,4.8 32.5,-4 C32.5,-9.9 27.5,-13.2 21.3,-13.2 C11.6,-13.2 0,-5 0,4.2"/>
<path class="Note" transform="matrix(0.992,0,0,0.992,620.287,723.541)" d="M0,4.2 C0,8.5 3.1,13.3 11.2,13.3 C21.6,13.3 32.5,4.8 32.5,-4 C32.5,-9.9 27.5,-13.2 21.3,-13.2 C11.6,-13.2 0,-5 0,4.2"/>
<path class="Note" transform="matrix(0.992,0,0,0.992,704.292,711.141)" d="M0,4.2 C0,8.5 3.1,13.3 11.2,13.3 C21.6,13.3 32.5,4.8 32.5,-4 C32.5,-9.9 27.5,-13.2 21.3,-13.2 C11.6,-13.2 0,-5 0,4.2"/>
<path class="Note" transform="matrix(0.992,0,0,0.992,564.284,723.541)" d="M0,4.2 C0,8.5 3.1,13.3 11.2,13.3 C21.6,13.3 32.5,4.8 32.5,-4 C32.5,-9.9 27.5,-13.2 21.3,-13.2 C11.6,-13.2 0,-5 0,4.2"/>
<path class="Note" transform="matrix(0.992,0,0,0.992,788.297,711.141)" d="M0,4.2 C0,8.5 3.1,13.3 11.2,13.3 C21.6,13.3 32.5,4.8 32.5,-4 C32.5,-9.9 27.5,-13.2 21.3,-13.2 C11.6,-13.2 0,-5 0,4.2"/>
<path class="Note" transform="matrix(0.992,0,0,0.992,2196.46,1380.74)" d="M0,4.2 C0,8.5 3.1,13.3 11.2,13.3 C21.6,13.3 32.5,4.8 32.5,-4 C32.5,-9.9 27.5,-13.2 21.3,-13.2 C11.6,-13.2 0,-5 0,4.2"/>
<path class="Note" transform="matrix(0.992,0,0,0.992,2354.77,673.941)" d="M0,4.2 C0,8.5 3.1,13.3 11.2,13.3 C21.6,13.3 32.5,4.8 32.5,-4 C32.5,-9.9 27.5,-13.2 21.3,-13.2 C11.6,-13.2 0,-5 0,4.2"/>
<path class="Note" transform="matrix(0.992,0,0,0.992,2303.33,1380.74)" d="M0,4.2 C0,8.5 3.1,13.3 11.2,13.3 C21.6,13.3 32.5,4.8 32.5,-4 C32.5,-9.9 27.5,-13.2 21.3,-13.2 C11.6,-13.2 0,-5 0,4.2"/>
<path class="Note" transform="matrix(0.992,0,0,0.992,1683.26,1393.14)" d="M0,4.2 C0,8.5 3.1,13.3 11.2,13.3 C21.6,13.3 32.5,4.8 32.5,-4 C32.5,-9.9 27.5,-13.2 21.3,-13.2 C11.6,-13.2 0,-5 0,4.2"/>
<path class="Note" transform="matrix(0.992,0,0,0.992,1224.27,698.741)" d="M0,4.2 C0,8.5 3.1,13.3 11.2,13.3 C21.6,13.3 32.5,4.8 32.5,-4 C32.5,-9.9 27.5,-13.2 21.3,-13.2 C11.6,-13.2 0,-5 0,4.2"/>
<path class="Note" transform="matrix(0.992,0,0,0.992,2270.76,698.741)" d="M0,4.2 C0,8.5 3.1,13.3 11.2,13.3 C21.6,13.3 32.5,4.8 32.5,-4 C32.5,-9.9 27.5,-13.2 21.3,-13.2 C11.6,-13.2 0,-5 0,4.2"/>
<path class="Note" transform="matrix(0.992,0,0,0.992,399.466,1380.74)" d="M0,4.2 C0,8.5 3.1,13.3 11.2,13.3 C21.6,13.3 32.5,4.8 32.5,-4 C32.5,-9.9 27.5,-13.2 21.3,-13.2 C11.6,-13.2 0,-5 0,4.2"/>
<path class="Note" transform="matrix(0.992,0,0,0.992,872.302,698.741)" d="M0,4.2 C0,8.5 3.1,13.3 11.2,13.3 C21.6,13.3 32.5,4.8 32.5,-4 C32.5,-9.9 27.5,-13.2 21.3,-13.2 C11.6,-13.2 0,-5 0,4.2"/>
<path class="Note" transform="matrix(0.992,0,0,0.992,956.306,686.341)" d="M0,4.2 C0,8.5 3.1,13.3 11.2,13.3 C21.6,13.3 32.5,4.8 32.5,-4 C32.5,-9.9 27.5,-13.2 21.3,-13.2 C11.6,-13.2 0,-5 0,4.2"/>
<path class="Note" transform="matrix(0.992,0,0,0.992,2214.76,698.741)" d="M0,4.2 C0,8.5 3.1,13.3 11.2,13.3 C21.6,13.3 32.5,4.8 32.5,-4 C32.5,-9.9 27.5,-13.2 21.3,-13.2 C11.6,-13.2 0,-5 0,4.2"/>
<path class="Note" transform="matrix(0.992,0,0,0.992,506.339,1380.74)" d="M0,4.2 C0,8.5 3.1,13.3 11.2,13.3 C21.6,13.3 32.5,4.8 32.5,-4 C32.5,-9.9 27.5,-13.2 21.3,-13.2 C11.6,-13.2 0,-5 0,4.2"/>
<path class="Note" transform="matrix(0.992,0,0,0.992,2359.54,1380.74)" d="M0,4.2 C0,8.5 3.1,13.3 11.2,13.3 C21.6,13.3 32.5,4.8 32.5,-4 C32.5,-9.9 27.5,-13.2 21.3,-13.2 C11.6,-13.2 0,-5 0,4.2"/>
<path class="Note" transform="matrix(0.992,0,0,0.992,562.544,1380.74)" d="M0,4.2 C0,8.5 3.1,13.3 11.2,13.3 C21.6,13.3 32.5,4.8 32.5,-4 C32.5,-9.9 27.5,-13.2 21.3,-13.2 C11.6,-13.2 0,-5 0,4.2"/>
<path class="Note" transform="matrix(0.992,0,0,0.992,2108.27,686.341)" d="M0,4.2 C0,8.5 3.1,13.3 11.2,13.3 C21.6,13.3 32.5,4.8 32.5,-4 C32.5,-9.9 27.5,-13.2 21.3,-13.2 C11.6,-13.2 0,-5 0,4.2"/>
<path class="Note" transform="matrix(0.992,0,0,0.992,2024.26,673.941)" d="M0,4.2 C0,8.5 3.1,13.3 11.2,13.3 C21.6,13.3 32.5,4.8 32.5,-4 C32.5,-9.9 27.5,-13.2 21.3,-13.2 C11.6,-13.2 0,-5 0,4.2"/>
<path class="Note" transform="matrix(0.992,0,0,0.992,646.85,1380.74)" d="M0,4.2 C0,8.5 3.1,13.3 11.2,13.3 C21.6,13.3 32.5,4.8 32.5,-4 C32.5,-9.9 27.5,-13.2 21.3,-13.2 C11.6,-13.2 0,-5 0,4.2"/>
<path class="Note" transform="matrix(0.992,0,0,0.992,1940.26,661.541)" d="M0,4.2 C0,8.5 3.1,13.3 11.2,13.3 C21.6,13.3 32.5,4.8 32.5,-4 C32.5,-9.9 27.5,-13.2 21.3,-13.2 C11.6,-13.2 0,-5 0,4.2"/>
<path class="Note" transform="matrix(0.992,0,0,0.992,731.157,1368.34)" d="M0,4.2 C0,8.5 3.1,13.3 11.2,13.3 C21.6,13.3 32.5,4.8 32.5,-4 C32.5,-9.9 27.5,-13.2 21.3,-13.2 C11.6,-13.2 0,-5 0,4.2"/>
<path class="Note" transform="matrix(0.992,0,0,0.992,1884.25,661.541)" d="M0,4.2 C0,8.5 3.1,13.3 11.2,13.3 C21.6,13.3 32.5,4.8 32.5,-4 C32.5,-9.9 27.5,-13.2 21.3,-13.2 C11.6,-13.2 0,-5 0,4.2"/>
<path class="Note" transform="matrix(0.992,0,0,0.992,857.617,1380.74)" d="M0,4.2 C0,8.5 3.1,13.3 11.2,13.3 C21.6,13.3 32.5,4.8 32.5,-4 C32.5,-9.9 27.5,-13.2 21.3,-13.2 C11.6,-13.2 0,-5 0,4.2"/>
<path class="Note" transform="matrix(0.992,0,0,0.992,2034.53,1393.14)" d="M0,4.2 C0,8.5 3.1,13.3 11.2,13.3 C21.6,13.3 32.5,4.8 32.5,-4 C32.5,-9.9 27.5,-13.2 21.3,-13.2 C11.6,-13.2 0,-5 0,4.2"/>
<path class="Note" transform="matrix(0.992,0,0,0.992,2443.84,1380.74)" d="M0,4.2 C0,8.5 3.1,13.3 11.2,13.3 C21.6,13.3 32.5,4.8 32.5,-4 C32.5,-9.9 27.5,-13.2 21.3,-13.2 C11.6,-13.2 0,-5 0,4.2"/>
<path class="Note" transform="matrix(0.992,0,0,0.992,1777.76,673.941)" d="M0,4.2 C0,8.5 3.1,13.3 11.2,13.3 C21.6,13.3 32.5,4.8 32.5,-4 C32.5,-9.9 27.5,-13.2 21.3,-13.2 C11.6,-13.2 0,-5 0,4.2"/>
<path class="Note" transform="matrix(0.992,0,0,0.992,1019.54,1380.74)" d="M0,4.2 C0,8.5 3.1,13.3 11.2,13.3 C21.6,13.3 32.5,4.8 32.5,-4 C32.5,-9.9 27.5,-13.2 21.3,-13.2 C11.6,-13.2 0,-5 0,4.2"/>
<path class="Note" transform="matrix(0.992,0,0,0.992,2474.23,686.341)" d="M18.7,-13.6 C4.9,-13.6 0,-6.6 0,-0.1 C0,6.4 4.9,13.4 18.7,13.4 C32.5,13.4 37.3,6.4 37.3,-0.1 C37.3,-6.6 32.5,-13.6 18.7,-13.6 M23.8,9.6 C22.6,10 21,10.2 19.5,10.2 C16.7,10.2 14.8,9.4 13.5,6.9 C12.2,4.4 10.4,-2 10.3,-4.7 C10.1,-7.4 11.1,-9 13.5,-9.8 C14.7,-10.2 16.3,-10.4 17.8,-10.4 C20.6,-10.4 22.4,-9.8 23.8,-7.1 C25.2,-4.4 27,2 27,4.5 C27,7.1 26.2,8.9 23.8,9.6"/>
<path class="Note" transform="matrix(0.992,0,0,0.992,1908.07,1393.14)" d="M0,4.2 C0,8.5 3.1,13.3 11.2,13.3 C21.6,13.3 32.5,4.8 32.5,-4 C32.5,-9.9 27.5,-13.2 21.3,-13.2 C11.6,-13.2 0,-5 0,4.2"/>
<path class="Note" transform="matrix(0.992,0,0,0.992,2528.15,1368.34)" d="M21.3,-13.2 C11.6,-13.2 0,-5.1 0,4.2 C0,8.5 3.1,13.3 11.2,13.3 C21.6,13.3 32.5,4.8 32.5,-4 C32.5,-9.9 27.5,-13.2 21.3,-13.2 M18.6,4.4 C18.3,4.6 11,8.6 7.5,8.6 C4.2,8.6 3.5,5.9 3.5,5 C3.5,0.8 13.5,-4.1 13.9,-4.3 C14.3,-4.5 21.4,-8.5 25,-8.5 C27.4,-8.5 29,-7.1 29,-4.9 C29,-0.6 18.9,4.2 18.6,4.4"/>
<path class="Note" transform="matrix(0.992,0,0,0.992,1126.41,1393.14)" d="M0,4.2 C0,8.5 3.1,13.3 11.2,13.3 C21.6,13.3 32.5,4.8 32.5,-4 C32.5,-9.9 27.5,-13.2 21.3,-13.2 C11.6,-13.2 0,-5 0,4.2"/>
<path class="Note" transform="matrix(0.992,0,0,0.992,1616.29,661.541)" d="M0,4.2 C0,8.5 3.1,13.3 11.2,13.3 C21.6,13.3 32.5,4.8 32.5,-4 C32.5,-9.9 27.5,-13.2 21.3,-13.2 C11.6,-13.2 0,-5 0,4.2"/>
<path class="Note" transform="matrix(0.992,0,0,0.992,1182.62,1393.14)" d="M0,4.2 C0,8.5 3.1,13.3 11.2,13.3 C21.6,13.3 32.5,4.8 32.5,-4 C32.5,-9.9 27.5,-13.2 21.3,-13.2 C11.6,-13.2 0,-5 0,4.2"/>
<path class="Note" transform="matrix(0.992,0,0,0.992,1532.29,673.941)" d="M0,4.2 C0,8.5 3.1,13.3 11.2,13.3 C21.6,13.3 32.5,4.8 32.5,-4 C32.5,-9.9 27.5,-13.2 21.3,-13.2 C11.6,-13.2 0,-5 0,4.2"/>
<path class="Note" transform="matrix(0.992,0,0,0.992,1280.27,698.741)" d="M0,4.2 C0,8.5 3.1,13.3 11.2,13.3 C21.6,13.3 32.5,4.8 32.5,-4 C32.5,-9.9 27.5,-13.2 21.3,-13.2 C11.6,-13.2 0,-5 0,4.2"/>
<path class="Note" transform="matrix(0.992,0,0,0.992,1266.92,1405.54)" d="M0,4.2 C0,8.5 3.1,13.3 11.2,13.3 C21.6,13.3 32.5,4.8 32.5,-4 C32.5,-9.9 27.5,-13.2 21.3,-13.2 C11.6,-13.2 0,-5 0,4.2"/>
<path class="Note" transform="matrix(0.992,0,0,0.992,1448.28,686.341)" d="M0,4.2 C0,8.5 3.1,13.3 11.2,13.3 C21.6,13.3 32.5,4.8 32.5,-4 C32.5,-9.9 27.5,-13.2 21.3,-13.2 C11.6,-13.2 0,-5 0,4.2"/>
<path class="Note" transform="matrix(0.992,0,0,0.992,1351.23,1393.14)" d="M21.3,-13.2 C11.6,-13.2 0,-5.1 0,4.2 C0,8.5 3.1,13.3 11.2,13.3 C21.6,13.3 32.5,4.8 32.5,-4 C32.5,-9.9 27.5,-13.2 21.3,-13.2 M18.6,4.4 C18.3,4.6 11,8.6 7.5,8.6 C4.2,8.6 3.5,5.9 3.5,5 C3.5,0.8 13.5,-4.1 13.9,-4.3 C14.3,-4.5 21.4,-8.5 25,-8.5 C27.4,-8.5 29,-7.1 29,-4.9 C29,-0.6 18.9,4.2 18.6,4.4"/>
<path class="Note" transform="matrix(0.992,0,0,0.992,457.793,735.941)" d="M0,4.2 C0,8.5 3.1,13.3 11.2,13.3 C21.6,13.3 32.5,4.8 32.5,-4 C32.5,-9.9 27.5,-13.2 21.3,-13.2 C11.6,-13.2 0,-5 0,4.2"/>
<path class="Note" transform="matrix(0.992,0,0,0.992,1364.28,686.341)" d="M0,4.2 C0,8.5 3.1,13.3 11.2,13.3 C21.6,13.3 32.5,4.8 32.5,-4 C32.5,-9.9 27.5,-13.2 21.3,-13.2 C11.6,-13.2 0,-5 0,4.2"/>
<path class="Note" transform="matrix(0.992,0,0,0.992,1823.77,1405.54)" d="M0,4.2 C0,8.5 3.1,13.3 11.2,13.3 C21.6,13.3 32.5,4.8 32.5,-4 C32.5,-9.9 27.5,-13.2 21.3,-13.2 C11.6,-13.2 0,-5 0,4.2"/>
<path class="Note" transform="matrix(0.992,0,0,0.992,1117.78,711.141)" d="M0,4.2 C0,8.5 3.1,13.3 11.2,13.3 C21.6,13.3 32.5,4.8 32.5,-4 C32.5,-9.9 27.5,-13.2 21.3,-13.2 C11.6,-13.2 0,-5 0,4.2"/>
<path class="Clef" transform="matrix(0.992,0,0,0.992,231.198,1393.14)" d="M56.2,2.1 C56.2,9.2 53.3,16.5 46.2,19.4 C44.1,7.4 41.4,-8.5 40.7,-12.9 C49.7,-12.9 56.2,-6.8 56.2,2.1 M42,20.6 C40,21 38.1,21.2 36.2,21.2 C21.9,21.2 9.7,11.2 9.7,-3.9 C9.7,-16.1 18.3,-27 27.1,-34.6 C28.8,-36.1 30.4,-37.5 31.9,-39 C32.8,-33.6 33.5,-28.9 34.2,-24.8 C25.1,-22.1 18.9,-12.5 18.9,-3.1 C18.9,3.9 24.4,13.5 32.4,13.5 C33.2,13.5 34.1,13.1 34.1,12.2 C34.1,11.3 33.1,10.8 31.9,10 C28,7.6 25.8,5 25.8,0.1 C25.8,-6 30.3,-10.9 36.2,-12.3 L42,20.6 M33.2,-82.2 C34.1,-86.2 38.7,-96.7 43.9,-96.7 C45.4,-96.7 47.8,-91.8 47.8,-84.9 C47.8,-74.5 40.1,-66.7 33.2,-59.9 C32.6,-63.9 32.1,-67.8 32.1,-72 C32.1,-75.7 32.4,-79.1 33.2,-82.2 M12.2,51.3 C12.2,57.9 17.3,66.6 30.8,66.6 C35.5,66.6 39.6,65.4 43.2,63.2 C48.6,59.4 50,52.8 50,46.5 C50,42.6 49.4,38.1 48.4,32.4 C48.1,30.4 47.5,27.4 46.9,23.5 C56.7,20.3 64,10.1 64,-0.2 C64,-15.3 53.3,-25.5 38.7,-25.5 C37.7,-31.5 36.7,-37.4 35.8,-43 C46.4,-54.1 53.7,-66.6 53.7,-82.5 C53.7,-91.6 50.9,-99 49.3,-102.6 C46.9,-107.7 44,-111.2 42.2,-111.2 C41.5,-111.2 38.4,-110 35.1,-106.1 C28.7,-98.5 26.9,-85.7 26.9,-77.3 C26.9,-71.9 27.4,-67 29.1,-55.8 C29,-55.7 23.8,-50.4 21.7,-48.7 C12.6,-40.2 0,-28.1 0,-8.1 C0,10.6 16.3,25.3 34.9,25.3 C37.8,25.3 40.5,25 42.8,24.6 C44.7,34.2 45.8,41.2 45.8,46.5 C45.8,56.9 40.5,62.4 30.4,62.4 C28,62.4 25.9,61.9 25.7,61.9 C25.6,61.8 25.4,61.7 25.4,61.6 C25.4,61.4 25.6,61.3 25.9,61.2 C30.6,60.5 35.3,56.5 35.3,50.1 C35.3,44.7 31.2,39 23.7,39 C16.7,39 12.2,44.7 12.2,51.3"/>
<path class="Clef" transform="matrix(0.992,0,0,0.992,231.198,711.141)" d="M56.2,2.1 C56.2,9.2 53.3,16.5 46.2,19.4 C44.1,7.4 41.4,-8.5 40.7,-12.9 C49.7,-12.9 56.2,-6.8 56.2,2.1 M42,20.6 C40,21 38.1,21.2 36.2,21.2 C21.9,21.2 9.7,11.2 9.7,-3.9 C9.7,-16.1 18.3,-27 27.1,-34.6 C28.8,-36.1 30.4,-37.5 31.9,-39 C32.8,-33.6 33.5,-28.9 34.2,-24.8 C25.1,-22.1 18.9,-12.5 18.9,-3.1 C18.9,3.9 24.4,13.5 32.4,13.5 C33.2,13.5 34.1,13.1 34.1,12.2 C34.1,11.3 33.1,10.8 31.9,10 C28,7.6 25.8,5 25.8,0.1 C25.8,-6 30.3,-10.9 36.2,-12.3 L42,20.6 M33.2,-82.2 C34.1,-86.2 38.7,-96.7 43.9,-96.7 C45.4,-96.7 47.8,-91.8 47.8,-84.9 C47.8,-74.5 40.1,-66.7 33.2,-59.9 C32.6,-63.9 32.1,-67.8 32.1,-72 C32.1,-75.7 32.4,-79.1 33.2,-82.2 M12.2,51.3 C12.2,57.9 17.3,66.6 30.8,66.6 C35.5,66.6 39.6,65.4 43.2,63.2 C48.6,59.4 50,52.8 50,46.5 C50,42.6 49.4,38.1 48.4,32.4 C48.1,30.4 47.5,27.4 46.9,23.5 C56.7,20.3 64,10.1 64,-0.2 C64,-15.3 53.3,-25.5 38.7,-25.5 C37.7,-31.5 36.7,-37.4 35.8,-43 C46.4,-54.1 53.7,-66.6 53.7,-82.5 C53.7,-91.6 50.9,-99 49.3,-102.6 C46.9,-107.7 44,-111.2 42.2,-111.2 C41.5,-111.2 38.4,-110 35.1,-106.1 C28.7,-98.5 26.9,-85.7 26.9,-77.3 C26.9,-71.9 27.4,-67 29.1,-55.8 C29,-55.7 23.8,-50.4 21.7,-48.7 C12.6,-40.2 0,-28.1 0,-8.1 C0,10.6 16.3,25.3 34.9,25.3 C37.8,25.3 40.5,25 42.8,24.6 C44.7,34.2 45.8,41.2 45.8,46.5 C45.8,56.9 40.5,62.4 30.4,62.4 C28,62.4 25.9,61.9 25.7,61.9 C25.6,61.8 25.4,61.7 25.4,61.6 C25.4,61.4 25.6,61.3 25.9,61.2 C30.6,60.5 35.3,56.5 35.3,50.1 C35.3,44.7 31.2,39 23.7,39 C16.7,39 12.2,44.7 12.2,51.3"/>
<path class="KeySig" transform="matrix(0.992,0,0,0.992,313.271,636.741)" d="M23.3,-10.5 C23.9,-10.6 24.4,-11.3 24.4,-11.9 L24.4,-17.8 C24.4,-18.6 23.8,-19.2 23,-19.2 C22.9,-19.2 22.9,-19.2 22.8,-19.2 L19.5,-18.5 L19.5,-33.4 L16.7,-33.4 L16.7,-17.9 L7.8,-16.1 L7.8,-30.2 L5,-30.2 L5,-15.5 L1.1,-14.7 C0.5,-14.6 0,-13.9 0,-13.3 L0,-13.1 L0,-7.3 L0,-7.5 C0,-6.7 0.6,-6.1 1.4,-6.1 C1.5,-6.1 1.6,-6.1 1.7,-6.1 L5,-6.8 L5,9.7 L1.1,10.5 C0.5,10.6 0,11.3 0,11.9 L0,17.7 C0,18.5 0.6,19.1 1.4,19.1 C1.5,19.1 1.6,19.1 1.7,19.1 L5,18.4 L5,33.3 L7.8,33.3 L7.8,17.8 L16.7,16 L16.7,30.1 L19.5,30.1 L19.5,15.4 L23.3,14.7 C23.9,14.6 24.4,13.9 24.4,13.3 L24.4,7.4 C24.4,6.6 23.8,6 23,6 C22.9,6 22.9,6 22.8,6 L19.5,6.7 L19.5,-9.8 L23.3,-10.5 M7.8,-7.4 L16.7,-9.2 L16.7,7.3 L7.8,9.2 L7.8,-7.4 "/>
<path class="KeySig" transform="matrix(0.992,0,0,0.992,313.271,1318.74)" d="M23.3,-10.5 C23.9,-10.6 24.4,-11.3 24.4,-11.9 L24.4,-17.8 C24.4,-18.6 23.8,-19.2 23,-19.2 C22.9,-19.2 22.9,-19.2 22.8,-19.2 L19.5,-18.5 L19.5,-33.4 L16.7,-33.4 L16.7,-17.9 L7.8,-16.1 L7.8,-30.2 L5,-30.2 L5,-15.5 L1.1,-14.7 C0.5,-14.6 0,-13.9 0,-13.3 L0,-13.1 L0,-7.3 L0,-7.5 C0,-6.7 0.6,-6.1 1.4,-6.1 C1.5,-6.1 1.6,-6.1 1.7,-6.1 L5,-6.8 L5,9.7 L1.1,10.5 C0.5,10.6 0,11.3 0,11.9 L0,17.7 C0,18.5 0.6,19.1 1.4,19.1 C1.5,19.1 1.6,19.1 1.7,19.1 L5,18.4 L5,33.3 L7.8,33.3 L7.8,17.8 L16.7,16 L16.7,30.1 L19.5,30.1 L19.5,15.4 L23.3,14.7 C23.9,14.6 24.4,13.9 24.4,13.3 L24.4,7.4 C24.4,6.6 23.8,6 23,6 C22.9,6 22.9,6 22.8,6 L19.5,6.7 L19.5,-9.8 L23.3,-10.5 M7.8,-7.4 L16.7,-9.2 L16.7,7.3 L7.8,9.2 L7.8,-7.4 "/>
<path class="TimeSig" transform="matrix(0.992,0,0,0.992,362.266,686.341)" d="M32.5,-17.9 C30,-16.3 28.2,-13.4 28.2,-10.2 C28.2,-9.8 28.2,-9.4 28.3,-9 C28.8,-4.9 32.1,-1.7 36.2,-1.2 C36.5,-1.2 37,-1.2 37.3,-1.2 C42.3,-1.2 46.3,-5.2 46.3,-10.2 C46.3,-10.2 46.3,-10.5 46.3,-10.8 C46.3,-11.2 46.2,-11.9 46.1,-12.3 C45.2,-16.6 41.3,-25.8 24.3,-25.8 C2.5,-25.8 0,-7.7 0,-1.2 C0,10.7 1.5,25.6 26.5,25.6 C36.4,25.6 44.1,19.8 44.5,9.1 C44.5,8.6 44.2,8.3 43.7,8.3 L42.4,8.3 C42,8.3 41.6,8.7 41.6,9.1 C41.2,17.4 35.3,22.4 26.5,22.4 C17.8,22.4 13.6,17.7 13.6,8.9 L13.6,-10.2 C13.6,-15.8 15.8,-22.2 24.7,-22.2 C29.4,-22.2 31.5,-20.5 32.6,-18.8 C32.7,-18.6 32.7,-18.5 32.7,-18.3 C32.7,-18.2 32.7,-18 32.5,-17.9"/>
<path class="Beam" fill-rule="evenodd" d="M429.211,1293.94 L538.564,1293.94 L538.564,1306.34 L429.211,1306.34 L429.211,1293.94 "/>
<path class="Beam" fill-rule="evenodd" d="M538.564,1312.54 L511.284,1312.54 L511.284,1324.94 L538.564,1324.94 L538.564,1312.54 "/>
<path class="Beam" fill-rule="evenodd" d="M2389.28,1306.34 L2476.07,1306.34 L2476.07,1318.74 L2389.28,1318.74 L2389.28,1306.34 "/>
<path class="Beam" fill-rule="evenodd" d="M1606.13,1293.93 L1715.48,1300.13 L1715.48,1312.55 L1606.13,1306.35 L1606.13,1293.93 "/>
<path class="Beam" fill-rule="evenodd" d="M1715.48,1318.73 L1688.2,1317.18 L1688.2,1329.6 L1715.48,1331.15 L1715.48,1318.73 "/>
<path class="Beam" fill-rule="evenodd" d="M1147.52,618.131 L1256.49,611.931 L1256.49,624.351 L1147.52,630.551 L1147.52,618.131 "/>
<path class="Beam" fill-rule="evenodd" d="M1256.49,630.531 L1229.21,632.083 L1229.21,644.503 L1256.49,642.951 L1256.49,630.531 "/>
<path class="Beam" fill-rule="evenodd" d="M1212.36,1312.53 L1299.15,1318.73 L1299.15,1331.16 L1212.36,1324.96 L1212.36,1312.53 "/>
<path class="Beam" fill-rule="evenodd" d="M1049.28,1293.93 L1158.64,1300.13 L1158.64,1312.55 L1049.28,1306.35 L1049.28,1293.93 "/>
<path class="Beam" fill-rule="evenodd" d="M1158.64,1318.73 L1131.36,1317.18 L1131.36,1329.6 L1158.64,1331.15 L1158.64,1318.73 "/>
<path class="Beam" fill-rule="evenodd" d="M1310.02,618.125 L1396.5,611.925 L1396.5,624.357 L1310.02,630.557 L1310.02,618.125 "/>
<path class="Beam" fill-rule="evenodd" d="M1448.28,748.325 L1534.77,742.125 L1534.77,754.557 L1448.28,760.757 L1448.28,748.325 "/>
<path class="Beam" fill-rule="evenodd" d="M592.288,1306.34 L679.075,1306.34 L679.075,1318.74 L592.288,1318.74 L592.288,1306.34 "/>
<path class="Beam" fill-rule="evenodd" d="M818.041,630.525 L904.526,624.325 L904.526,636.757 L818.041,642.957 L818.041,630.525 "/>
<path class="Beam" fill-rule="evenodd" d="M487.537,636.731 L596.508,630.531 L596.508,642.951 L487.537,649.151 L487.537,636.731 "/>
<path class="Beam" fill-rule="evenodd" d="M596.508,649.131 L569.228,650.683 L569.228,663.103 L596.508,661.551 L596.508,649.131 "/>
<path class="Beam" fill-rule="evenodd" d="M1807.51,587.131 L1916.48,580.931 L1916.48,593.351 L1807.51,599.551 L1807.51,587.131 "/>
<path class="Beam" fill-rule="evenodd" d="M1916.48,599.531 L1889.2,601.083 L1889.2,613.503 L1916.48,611.951 L1916.48,599.531 "/>
<path class="Beam" fill-rule="evenodd" d="M1940.26,729.725 L2026.74,735.925 L2026.74,748.357 L1940.26,742.157 L1940.26,729.725 "/>
<path class="Beam" fill-rule="evenodd" d="M2226.2,1293.94 L2335.56,1293.94 L2335.56,1306.34 L2226.2,1306.34 L2226.2,1293.94 "/>
<path class="Beam" fill-rule="evenodd" d="M2335.56,1312.54 L2308.28,1312.54 L2308.28,1324.94 L2335.56,1324.94 L2335.56,1312.54 "/>
<path class="Beam" fill-rule="evenodd" d="M650.031,636.725 L736.516,630.525 L736.516,642.957 L650.031,649.157 L650.031,636.725 "/>
<path class="Beam" fill-rule="evenodd" d="M2270.76,760.677 L2357.25,748.277 L2357.25,760.804 L2270.76,773.204 L2270.76,760.677 "/>
<path class="Beam" fill-rule="evenodd" d="M2138.01,611.931 L2246.98,618.131 L2246.98,630.551 L2138.01,624.351 L2138.01,611.931 "/>
<path class="Beam" fill-rule="evenodd" d="M2246.98,636.731 L2219.7,635.179 L2219.7,647.599 L2246.98,649.151 L2246.98,636.731 "/>
<path class="Beam" fill-rule="evenodd" d="M1769.21,1312.53 L1855.99,1318.73 L1855.99,1331.16 L1769.21,1324.96 L1769.21,1312.53 "/>
<path class="Tempo" d="M287.869,460.591 L284.602,460.591 L284.602,502.864 C283.513,502.171 282.127,501.775 280.543,501.577 C276.979,501.577 274.108,501.973 270.94,503.755 C266.98,505.834 262.624,510.19 262.624,515.041 C262.624,516.13 262.822,517.219 263.416,518.209 C264.703,520.684 267.772,522.07 271.237,522.07 C278.167,522.07 287.869,516.13 287.869,508.606 L287.869,460.591 "/>
<path class="Tempo" d="M310.121,498.547 L340.361,498.547 L340.361,491.647 L310.121,491.647 L310.121,498.547 M310.121,510.907 L340.361,510.907 L340.361,504.007 L310.121,504.007 L310.121,510.907 M382.899,473.947 L380.799,473.947 C377.019,476.767 372.759,477.967 365.619,478.087 L365.619,481.447 L368.139,481.447 C373.479,481.447 373.539,481.567 373.479,486.487 L373.479,507.787 C373.479,511.507 373.479,511.687 373.059,512.287 C372.519,512.947 371.319,513.187 368.079,513.187 L366.159,513.187 L366.159,516.427 L390.099,516.427 L390.099,513.187 L388.179,513.187 C384.999,513.187 383.859,512.947 383.319,512.287 C382.899,511.687 382.899,511.447 382.899,507.787 L382.899,473.947 M416.137,494.347 C421.237,493.027 425.797,490.747 425.797,484.567 C425.797,478.207 420.157,473.947 411.637,473.947 C407.257,473.947 403.717,475.087 401.197,477.307 C399.217,479.047 398.017,481.567 398.017,483.847 C398.017,486.967 400.357,489.307 403.417,489.307 C406.297,489.307 408.277,487.387 408.277,484.567 C408.277,482.947 407.617,481.687 405.937,480.067 C405.637,479.767 405.517,479.587 405.517,479.347 C405.517,478.207 407.737,477.067 410.077,477.067 C413.857,477.067 416.077,479.827 416.077,484.507 C416.077,489.727 414.337,492.907 411.397,492.907 C410.917,492.907 410.317,492.847 409.357,492.607 C408.037,492.307 407.617,492.247 406.957,492.247 C405.457,492.247 404.737,492.907 404.737,494.227 C404.737,495.607 405.637,496.507 406.897,496.507 C407.317,496.507 407.677,496.447 408.697,496.327 C410.077,496.207 410.437,496.147 410.857,496.147 C414.577,496.147 416.437,499.027 416.437,504.667 C416.437,510.727 413.917,514.147 409.477,514.147 C406.957,514.147 404.317,512.887 404.317,511.627 C404.317,511.267 404.497,510.907 404.857,510.547 C406.657,508.867 407.077,508.087 407.077,506.347 C407.077,503.527 404.857,501.367 401.917,501.367 C398.677,501.367 396.517,503.707 396.517,507.067 C396.517,513.127 402.397,517.267 411.037,517.267 C418.957,517.267 426.877,513.967 426.877,504.847 C426.877,501.067 425.197,497.767 422.437,496.147 C420.697,495.187 419.317,494.767 416.137,494.347 M446.734,473.947 C437.734,473.947 431.134,483.127 431.134,495.607 C431.134,508.087 437.734,517.267 446.734,517.267 C455.554,517.267 462.274,508.087 462.274,495.907 C462.274,488.827 460.654,483.607 457.114,479.167 C454.294,475.747 450.754,473.947 446.734,473.947 M446.674,477.067 C448.474,477.067 449.914,478.147 450.574,480.067 C451.354,482.047 451.834,488.347 451.834,495.787 C451.834,501.967 451.354,508.447 450.814,510.487 C450.154,512.887 448.714,514.147 446.674,514.147 C444.814,514.147 443.434,513.127 442.714,511.147 C441.934,509.167 441.454,502.807 441.454,495.607 C441.454,489.307 441.934,482.767 442.474,480.727 C443.134,478.327 444.574,477.067 446.674,477.067"/>
<path class="NoteDot" transform="matrix(0.992,0,0,0.992,2152.89,673.941)" d="M0,0 C0,2.8 2.2,5 5,5 C7.8,5 10,2.8 10,0 C10,-2.8 7.8,-5 5,-5 C2.2,-5 0,-2.8 0,0"/>
<path class="NoteDot" transform="matrix(0.992,0,0,0.992,2241.08,1380.74)" d="M0,0 C0,2.8 2.2,5 5,5 C7.8,5 10,2.8 10,0 C10,-2.8 7.8,-5 5,-5 C2.2,-5 0,-2.8 0,0"/>
<path class="NoteDot" transform="matrix(0.992,0,0,0.992,1822.39,673.941)" d="M0,0 C0,2.8 2.2,5 5,5 C7.8,5 10,2.8 10,0 C10,-2.8 7.8,-5 5,-5 C2.2,-5 0,-2.8 0,0"/>
<path class="NoteDot" transform="matrix(0.992,0,0,0.992,444.091,1380.74)" d="M0,0 C0,2.8 2.2,5 5,5 C7.8,5 10,2.8 10,0 C10,-2.8 7.8,-5 5,-5 C2.2,-5 0,-2.8 0,0"/>
<path class="NoteDot" transform="matrix(0.992,0,0,0.992,502.417,723.541)" d="M0,0 C0,2.8 2.2,5 5,5 C7.8,5 10,2.8 10,0 C10,-2.8 7.8,-5 5,-5 C2.2,-5 0,-2.8 0,0"/>
<path class="NoteDot" transform="matrix(0.992,0,0,0.992,1064.16,1380.74)" d="M0,0 C0,2.8 2.2,5 5,5 C7.8,5 10,2.8 10,0 C10,-2.8 7.8,-5 5,-5 C2.2,-5 0,-2.8 0,0"/>
<path class="NoteDot" transform="matrix(0.992,0,0,0.992,1621.01,1380.74)" d="M0,0 C0,2.8 2.2,5 5,5 C7.8,5 10,2.8 10,0 C10,-2.8 7.8,-5 5,-5 C2.2,-5 0,-2.8 0,0"/>
<path class="NoteDot" transform="matrix(0.992,0,0,0.992,1162.4,698.741)" d="M0,0 C0,2.8 2.2,5 5,5 C7.8,5 10,2.8 10,0 C10,-2.8 7.8,-5 5,-5 C2.2,-5 0,-2.8 0,0"/>
</svg>
