<?xml version="1.0" encoding="UTF-8" standalone="no"?>
<svg width="210.058mm" height="296.926mm" viewBox="0 0 2977.2 4208.4"
 xmlns="http://www.w3.org/2000/svg" xmlns:xlink="http://www.w3.org/1999/xlink" version="1.2" baseProfile="full">
<title>恋の季節</title>
<desc>Generated by MuseScore Studio 4.5.2</desc>
<path class="" fill="#ffffff" fill-rule="evenodd" d="M0,0 L2977.2,0 L2977.2,4208.4 L0,4208.4 L0,0 "/>
<polyline class="StaffLines" fill="none" stroke="#000000" stroke-width="2.73" stroke-linejoin="bevel" points="212.598,634.198 2764.6,634.198" />
<polyline class="StaffLines" fill="none" stroke="#000000" stroke-width="2.73" stroke-linejoin="bevel" points="212.598,658.998 2764.6,658.998" />
<polyline class="StaffLines" fill="none" stroke="#000000" stroke-width="2.73" stroke-linejoin="bevel" points="212.598,683.798 2764.6,683.798" />
<polyline class="StaffLines" fill="none" stroke="#000000" stroke-width="2.73" stroke-linejoin="bevel" points="212.598,708.598 2764.6,708.598" />
<polyline class="StaffLines" fill="none" stroke="#000000" stroke-width="2.73" stroke-linejoin="bevel" points="212.598,733.398 2764.6,733.398" />
<polyline class="StaffLines" fill="none" stroke="#000000" stroke-width="2.73" stroke-linejoin="bevel" points="212.598,1241.8 2764.6,1241.8" />
<polyline class="StaffLines" fill="none" stroke="#000000" stroke-width="2.73" stroke-linejoin="bevel" points="212.598,1266.6 2764.6,1266.6" />
<polyline class="StaffLines" fill="none" stroke="#000000" stroke-width="2.73" stroke-linejoin="bevel" points="212.598,1291.4 2764.6,1291.4" />
<polyline class="StaffLines" fill="none" stroke="#000000" stroke-width="2.73" stroke-linejoin="bevel" points="212.598,1316.2 2764.6,1316.2" />
<polyline class="StaffLines" fill="none" stroke="#000000" stroke-width="2.73" stroke-linejoin="bevel" points="212.598,1341 2764.6,1341" />
<polyline class="StaffLines" fill="none" stroke="#000000" stroke-width="2.73" stroke-linejoin="bevel" points="212.598,1849.4 2764.6,1849.4" />
<polyline class="StaffLines" fill="none" stroke="#000000" stroke-width="2.73" stroke-linejoin="bevel" points="212.598,1874.2 2764.6,1874.2" />
<polyline class="StaffLines" fill="none" stroke="#000000" stroke-width="2.73" stroke-linejoin="bevel" points="212.598,1899 2764.6,1899" />
<polyline class="StaffLines" fill="none" stroke="#000000" stroke-width="2.73" stroke-linejoin="bevel" points="212.598,1923.8 2764.6,1923.8" />
<polyline class="StaffLines" fill="none" stroke="#000000" stroke-width="2.73" stroke-linejoin="bevel" points="212.598,1948.6 2764.6,1948.6" />
<path class="Text" d="M1313.05,231.072 C1312.83,239.542 1312.06,244.492 1310.19,249.002 C1307.11,256.702 1301.83,261.322 1291.49,265.722 C1294.13,267.702 1295.23,268.802 1296.77,271.002 C1307.33,265.612 1312.28,260.882 1315.8,252.852 C1318.33,247.132 1319.43,241.632 1319.87,231.072 L1333.95,231.072 L1333.95,257.472 C1333.95,259.452 1333.4,260.002 1330.87,260.002 C1327.68,260.002 1325.59,259.782 1320.2,259.122 C1321.19,261.652 1321.63,263.192 1321.96,265.722 C1325.7,266.052 1329,266.162 1331.75,266.162 C1338.57,266.162 1340.66,264.402 1340.66,258.902 L1340.66,231.072 L1361.34,231.072 C1366.29,231.072 1369.81,231.182 1373.33,231.622 L1373.33,224.362 C1370.58,224.802 1367.17,225.022 1361.45,225.022 L1328.12,225.022 L1328.12,221.172 C1328.12,217.982 1328.34,215.782 1328.78,213.362 L1320.31,213.362 C1320.75,215.782 1320.97,218.092 1320.97,221.172 L1320.97,225.022 L1288.74,225.022 C1283.02,225.022 1279.83,224.802 1276.86,224.362 L1276.86,231.622 C1280.05,231.182 1283.02,231.072 1288.63,231.072 L1313.05,231.072 M1296.11,235.472 C1293.36,241.632 1291.6,244.492 1288.19,248.452 C1284.78,252.302 1281.92,254.722 1276.31,258.132 C1278.51,259.782 1279.72,260.992 1281.59,263.302 C1291.82,255.382 1296.33,249.882 1302.38,238.002 L1296.11,235.472 M1345.83,239.762 C1355.18,248.562 1358.81,253.072 1365.41,263.522 L1371.35,258.682 C1364.09,249.222 1359.25,243.942 1350.89,236.022 L1345.83,239.762 M1280.16,307.412 C1287.64,297.622 1291.38,290.142 1295.01,277.162 L1288.74,274.522 C1287.09,280.902 1285.99,284.092 1283.68,288.712 C1281.15,294.102 1279.06,297.072 1274.44,302.572 L1280.16,307.412 M1310.96,283.652 C1310.96,278.702 1311.07,276.612 1311.62,273.532 L1303.37,273.532 C1303.81,277.052 1304.03,279.802 1304.03,283.652 L1304.03,300.262 C1304.03,308.512 1307.33,310.052 1324.49,310.052 C1339.23,310.052 1345.17,309.392 1348.03,307.302 C1350.89,305.102 1351.88,302.132 1352.98,291.352 C1350.23,290.692 1348.58,290.032 1346.16,288.602 C1345.83,296.852 1345.17,300.592 1343.85,301.692 C1342.09,303.232 1337.58,303.782 1325.59,303.782 C1312.39,303.782 1310.96,303.342 1310.96,298.942 L1310.96,283.652 M1339.67,288.052 C1333.95,280.572 1330.1,276.392 1323.39,270.672 L1318.33,274.522 C1324.6,280.022 1328.67,284.752 1334.28,292.782 L1339.67,288.052 M1373.99,301.472 C1367.61,289.262 1363.32,282.662 1355.51,273.312 L1350.01,276.832 C1358.59,287.502 1361.12,291.572 1367.83,306.202 L1373.99,301.472 "/>
<path class="Text" d="M1440.65,231.622 C1446.15,231.842 1449.34,232.612 1453.41,234.372 C1464.52,239.322 1470.9,249.442 1470.9,261.982 C1470.9,275.512 1463.53,287.282 1451.43,292.782 C1446.26,295.202 1441.09,296.632 1433.06,297.952 C1435.15,300.592 1435.81,301.692 1436.91,305.322 C1444.5,303.672 1448.68,302.352 1453.63,300.262 C1469.58,293.442 1478.82,279.362 1478.82,262.312 C1478.82,251.752 1475.08,242.182 1468.15,235.472 C1461,228.432 1450.22,224.582 1437.9,224.582 C1423.16,224.582 1411.17,229.532 1402.37,239.212 C1395,247.462 1390.82,258.352 1390.82,269.572 C1390.82,284.972 1398.63,296.412 1409.08,296.412 C1417,296.412 1423.49,289.812 1429.87,275.292 C1434.82,263.742 1439,246.912 1440.65,231.622 M1432.73,231.732 C1431.3,245.812 1427.23,262.092 1422.72,272.432 C1417.99,283.212 1413.59,288.382 1408.97,288.382 C1403.03,288.382 1398.41,280.242 1398.41,269.682 C1398.41,256.042 1405.23,243.612 1416.34,236.902 C1421.4,233.822 1426.13,232.282 1432.73,231.732"/>
<path class="Text" d="M1540.64,235.142 L1508.63,235.142 C1503.79,235.142 1500.38,234.922 1497.3,234.482 L1497.3,241.852 C1500.71,241.412 1503.9,241.192 1508.52,241.192 L1534.37,241.192 C1524.91,249.442 1511.27,256.262 1495.54,260.662 C1497.41,262.752 1498.29,263.962 1499.5,266.492 C1507.97,263.742 1515.45,260.552 1522.6,256.482 C1530.08,252.302 1534.92,248.562 1541.08,242.292 C1540.75,245.152 1540.64,246.802 1540.64,248.232 L1540.64,251.092 C1540.64,254.392 1540.53,256.262 1540.2,258.572 L1547.79,258.572 C1547.46,256.482 1547.35,254.502 1547.35,251.092 L1547.35,248.122 C1547.35,247.022 1547.24,244.712 1547.02,242.292 C1553.18,248.342 1558.79,252.522 1567.26,256.812 C1574.96,260.772 1582.55,263.742 1590.91,266.052 C1592.01,263.412 1593,261.762 1594.87,259.672 C1583.87,257.032 1578.37,255.272 1570.34,251.532 C1563.3,248.232 1558.02,244.932 1553.62,241.192 L1580.57,241.192 C1585.63,241.192 1588.71,241.412 1591.9,241.852 L1591.9,234.482 C1588.93,234.922 1585.85,235.142 1580.57,235.142 L1547.35,235.142 L1547.35,224.252 C1558.24,223.152 1566.49,222.052 1574.41,220.622 C1580.68,219.412 1581.78,219.192 1582.77,219.082 L1577.6,212.702 C1567.04,216.552 1536.68,220.072 1513.14,220.072 C1511.38,220.072 1508.63,219.962 1505,219.852 C1506.54,222.162 1507.2,223.812 1507.86,226.122 C1521.06,226.012 1527.55,225.792 1540.64,224.802 L1540.64,235.142 M1508.85,282.662 C1503.68,282.662 1500.27,282.442 1497.3,282.002 L1497.3,289.372 C1500.6,288.932 1504.01,288.712 1508.96,288.712 L1542.29,288.712 L1542.29,302.682 C1542.29,305.212 1541.19,305.872 1536.68,305.872 C1532.72,305.872 1527.77,305.432 1522.16,304.442 C1523.15,306.972 1523.59,308.512 1524.03,311.482 C1527.99,311.922 1533.49,312.142 1536.9,312.142 C1546.25,312.142 1549.11,310.052 1549.11,303.232 L1549.11,288.712 L1580.24,288.712 C1585.19,288.712 1588.82,288.932 1591.9,289.372 L1591.9,282.002 C1588.82,282.442 1585.52,282.662 1580.35,282.662 L1549.11,282.662 L1549.11,280.682 C1557.69,276.832 1561.87,274.302 1570.34,268.032 L1573.64,265.502 L1569.68,261.432 C1567.59,261.762 1565.61,261.872 1561.54,261.872 L1527,261.872 C1521.83,261.872 1519.41,261.762 1516.77,261.322 L1516.77,268.252 C1519.19,267.812 1522.05,267.702 1527.22,267.702 L1561.87,267.702 C1556.92,271.332 1552.08,273.972 1546.25,276.502 L1541.96,276.502 C1542.18,278.812 1542.29,280.242 1542.29,282.662 L1508.85,282.662 M1656.03,307.082 C1650.64,296.962 1646.24,289.812 1641.07,282.992 L1635.46,285.632 C1638.98,290.252 1640.19,292.122 1642.28,295.532 C1632.49,298.612 1629.52,299.382 1619.51,301.582 L1619.51,280.682 L1641.73,280.682 C1647.89,280.682 1649.65,280.792 1651.96,281.122 C1651.63,278.592 1651.63,276.612 1651.63,270.672 L1651.63,253.512 C1651.63,248.012 1651.74,245.152 1651.96,242.732 C1649.54,243.062 1647.01,243.172 1641.4,243.172 L1622.92,243.172 C1617.53,243.172 1614.56,243.062 1612.47,242.732 C1612.8,245.482 1612.91,247.792 1612.91,254.722 L1612.91,302.792 C1608.73,303.562 1606.64,303.782 1604.77,303.892 L1607.19,311.482 C1609.72,310.712 1611.04,310.272 1613.68,309.612 C1629.96,305.542 1632.93,304.772 1645.25,300.702 C1646.9,303.892 1647.78,305.652 1649.87,310.492 L1656.03,307.082 M1619.51,248.892 L1645.36,248.892 L1645.36,258.462 L1619.51,258.462 L1619.51,248.892 M1619.51,264.072 L1645.36,264.072 L1645.36,274.962 L1619.51,274.962 L1619.51,264.072 M1629.41,228.982 C1631.28,232.612 1632.38,235.802 1633.81,240.862 L1640.3,238.882 C1638.76,234.812 1637.66,232.392 1635.9,228.982 L1644.48,228.982 C1648.99,228.982 1652.07,229.092 1654.93,229.422 L1654.93,222.492 C1652.18,222.932 1649.1,223.152 1644.04,223.152 L1623.8,223.152 C1624.9,221.062 1624.9,221.062 1627.98,214.572 L1620.72,212.592 C1619.73,216.772 1617.86,220.952 1614.89,225.902 C1611.48,231.622 1608.18,235.692 1603.01,240.532 C1605.21,241.522 1606.64,242.512 1608.73,244.492 C1613.68,239.432 1616.76,235.362 1620.61,228.982 L1629.41,228.982 M1674.4,228.762 C1676.38,232.722 1677.81,236.242 1679.13,240.752 L1685.51,238.662 C1683.97,234.592 1683.2,232.942 1680.78,228.762 L1692.11,228.762 C1696.84,228.762 1700.03,228.872 1703.88,229.312 L1703.88,222.272 C1700.58,222.712 1697.5,222.932 1692.11,222.932 L1667.36,222.932 C1668.79,220.072 1669.34,218.642 1670.99,214.682 L1663.95,212.702 C1661.75,222.272 1657.13,230.522 1649.76,238.332 C1652.18,239.432 1653.17,240.092 1655.37,241.742 C1659.99,236.022 1661.42,233.932 1664.39,228.762 L1674.4,228.762 M1699.92,254.392 C1699.92,249.442 1700.03,246.252 1700.25,242.732 C1696.95,243.172 1694.2,243.282 1688.48,243.282 L1672.75,243.282 C1669.12,243.282 1665.27,243.172 1662.3,242.842 C1662.52,245.922 1662.63,247.682 1662.63,255.272 L1662.63,301.582 C1662.63,305.982 1662.41,309.832 1661.97,313.022 L1670,313.022 C1669.56,310.162 1669.45,306.312 1669.45,301.362 L1669.45,249.112 L1693.21,249.112 L1693.21,290.472 C1693.21,294.322 1692.55,295.092 1689.36,295.092 C1686.28,295.092 1682.54,294.652 1677.81,293.882 C1679.02,296.742 1679.35,298.172 1679.57,301.142 C1683.42,301.472 1686.72,301.692 1688.92,301.692 C1697.61,301.692 1699.92,299.602 1699.92,291.352 L1699.92,254.392 "/>
<path class="MeasureNumber" d="M216.922,1176.88 C215.682,1177.64 215.322,1178.12 215.322,1178.92 C215.322,1179.68 215.962,1180.24 216.762,1180.24 C217.802,1180.24 218.402,1179.48 218.522,1178 C219.762,1177 221.082,1176.56 222.682,1176.56 C225.642,1176.56 227.282,1178.4 227.282,1181.72 C227.282,1186.92 223.922,1191.16 219.802,1191.16 C217.442,1191.16 215.522,1190.04 215.522,1188.72 C215.522,1188.48 215.562,1188.4 215.762,1188.28 C217.042,1187.68 218.082,1187.24 218.082,1185.56 C218.082,1184.28 217.082,1183.32 215.682,1183.32 C213.922,1183.32 212.602,1184.8 212.602,1186.72 C212.602,1190.24 215.642,1192.8 219.922,1192.8 C226.402,1192.8 231.642,1187.64 231.642,1181.24 C231.642,1177.2 228.562,1174.36 224.202,1174.36 C222.482,1174.36 221.082,1174.72 219.162,1175.68 L221.402,1168.12 C223.522,1168.56 225.202,1168.76 226.642,1168.76 C229.282,1168.76 231.642,1167.92 232.962,1166.52 C233.642,1165.72 234.042,1165.04 234.042,1164.52 C234.042,1164.28 233.922,1164.04 233.762,1164.04 C233.642,1164.04 233.562,1164.08 233.322,1164.2 C232.002,1164.84 230.322,1165.2 228.762,1165.2 C226.362,1165.2 223.522,1164.8 220.562,1164.04 L216.922,1176.88 "/>
<path class="MeasureNumber" d="M228.958,1771.48 L227.798,1771.48 C225.598,1773.12 221.358,1774.52 218.478,1774.52 L217.998,1776.28 L220.758,1776.28 C223.198,1776.28 223.478,1776.36 223.478,1777.08 C223.478,1777.44 223.478,1777.44 223.078,1778.88 L218.798,1794.88 C218.278,1796.88 218.238,1797 217.878,1797.36 C217.478,1797.76 216.638,1797.88 214.518,1797.92 L212.798,1797.92 L212.598,1799.8 L227.398,1799.8 L227.638,1797.92 L225.478,1797.92 C222.878,1797.92 222.318,1797.72 222.318,1796.84 C222.318,1796.56 222.478,1795.64 222.678,1794.88 L228.958,1771.48 M251.193,1771.48 L250.033,1771.48 C247.833,1773.12 243.593,1774.52 240.713,1774.52 L240.233,1776.28 L242.993,1776.28 C245.433,1776.28 245.713,1776.36 245.713,1777.08 C245.713,1777.44 245.713,1777.44 245.313,1778.88 L241.033,1794.88 C240.513,1796.88 240.473,1797 240.113,1797.36 C239.713,1797.76 238.873,1797.88 236.753,1797.92 L235.033,1797.92 L234.833,1799.8 L249.633,1799.8 L249.873,1797.92 L247.713,1797.92 C245.113,1797.92 244.553,1797.72 244.553,1796.84 C244.553,1796.56 244.713,1795.64 244.913,1794.88 L251.193,1771.48 "/>
<path class="TieSegment" stroke="#000000" stroke-width="1.24" stroke-linecap="round" stroke-linejoin="round" fill-rule="evenodd" d="M611.027,1929.6 C641.564,1941.91 733.174,1941.91 763.711,1929.6 C733.174,1949.85 641.564,1949.85 611.027,1929.6"/>
<path class="TieSegment" stroke="#000000" stroke-width="1.24" stroke-linecap="round" stroke-linejoin="round" fill-rule="evenodd" d="M1357.41,1941.89 C1369.23,1956.64 1404.69,1956.64 1416.51,1941.89 C1404.69,1962.97 1369.23,1962.97 1357.41,1941.89"/>
<path class="TieSegment" stroke="#000000" stroke-width="1.24" stroke-linecap="round" stroke-linejoin="round" fill-rule="evenodd" d="M2325.28,1334.4 C2352.83,1353.75 2435.49,1353.75 2463.04,1334.4 C2435.49,1361.68 2352.83,1361.68 2325.28,1334.4"/>
<path class="TieSegment" stroke="#000000" stroke-width="1.24" stroke-linecap="round" stroke-linejoin="round" fill-rule="evenodd" d="M1924.74,1929.84 C2007.34,1962.96 2255.14,1962.96 2337.74,1929.84 C2255.14,1970.89 2007.34,1970.89 1924.74,1929.84"/>
<polyline class="BarLine" fill="none" stroke="#000000" stroke-width="4.46" stroke-linejoin="bevel" points="1870.52,1848.03 1870.52,1949.96" />
<polyline class="BarLine" fill="none" stroke="#000000" stroke-width="4.46" stroke-linejoin="bevel" points="2762.37,632.834 2762.37,734.762" />
<polyline class="BarLine" fill="none" stroke="#000000" stroke-width="4.46" stroke-linejoin="bevel" points="1509.25,1848.03 1509.25,1949.96" />
<polyline class="BarLine" fill="none" stroke="#000000" stroke-width="4.46" stroke-linejoin="bevel" points="1308.45,1240.43 1308.45,1342.36" />
<polyline class="BarLine" fill="none" stroke="#000000" stroke-width="4.46" stroke-linejoin="bevel" points="2288.49,1848.03 2288.49,1949.96" />
<polyline class="BarLine" fill="none" stroke="#000000" stroke-width="4.46" stroke-linejoin="bevel" points="2166.28,632.834 2166.28,734.762" />
<polyline class="BarLine" fill="none" stroke="#000000" stroke-width="4.46" stroke-linejoin="bevel" points="1741.09,1240.43 1741.09,1342.36" />
<polyline class="BarLine" fill="none" stroke="#000000" stroke-width="4.46" stroke-linejoin="bevel" points="840.102,1240.43 840.102,1342.36" />
<polyline class="BarLine" fill="none" stroke="#000000" stroke-width="4.46" stroke-linejoin="bevel" points="1079.01,1848.03 1079.01,1949.96" />
<polyline class="BarLine" fill="none" stroke="#000000" stroke-width="4.46" stroke-linejoin="bevel" points="2748.73,1848.03 2748.73,1949.96" />
<polyline class="BarLine" fill="none" stroke="#000000" stroke-width="4.46" stroke-linejoin="bevel" points="2762.37,1848.03 2762.37,1949.96" />
<polyline class="BarLine" fill="none" stroke="#000000" stroke-width="4.46" stroke-linejoin="bevel" points="2102.98,1240.43 2102.98,1342.36" />
<polyline class="BarLine" fill="none" stroke="#000000" stroke-width="4.46" stroke-linejoin="bevel" points="2116.62,1240.43 2116.62,1342.36" />
<polyline class="BarLine" fill="none" stroke="#000000" stroke-width="4.46" stroke-linejoin="bevel" points="717.732,1848.03 717.732,1949.96" />
<polyline class="BarLine" fill="none" stroke="#000000" stroke-width="4.46" stroke-linejoin="bevel" points="1605.22,632.834 1605.22,734.762" />
<polyline class="BarLine" fill="none" stroke="#000000" stroke-width="4.46" stroke-linejoin="bevel" points="2762.37,1240.43 2762.37,1342.36" />
<polyline class="BarLine" fill="none" stroke="#000000" stroke-width="4.46" stroke-linejoin="bevel" points="1009.13,632.834 1009.13,734.762" />
<polyline class="BarLine" fill="none" stroke="#000000" stroke-width="4.46" stroke-linejoin="bevel" points="2417.06,1240.43 2417.06,1342.36" />
<path class="Accidental" transform="matrix(0.992,0,0,0.992,964.928,1923.8)" d="M23.3,-10.5 C23.9,-10.6 24.4,-11.3 24.4,-11.9 L24.4,-17.8 C24.4,-18.6 23.8,-19.2 23,-19.2 C22.9,-19.2 22.9,-19.2 22.8,-19.2 L19.5,-18.5 L19.5,-33.4 L16.7,-33.4 L16.7,-17.9 L7.8,-16.1 L7.8,-30.2 L5,-30.2 L5,-15.5 L1.1,-14.7 C0.5,-14.6 0,-13.9 0,-13.3 L0,-13.1 L0,-7.3 L0,-7.5 C0,-6.7 0.6,-6.1 1.4,-6.1 C1.5,-6.1 1.6,-6.1 1.7,-6.1 L5,-6.8 L5,9.7 L1.1,10.5 C0.5,10.6 0,11.3 0,11.9 L0,17.7 C0,18.5 0.6,19.1 1.4,19.1 C1.5,19.1 1.6,19.1 1.7,19.1 L5,18.4 L5,33.3 L7.8,33.3 L7.8,17.8 L16.7,16 L16.7,30.1 L19.5,30.1 L19.5,15.4 L23.3,14.7 C23.9,14.6 24.4,13.9 24.4,13.3 L24.4,7.4 C24.4,6.6 23.8,6 23,6 C22.9,6 22.9,6 22.8,6 L19.5,6.7 L19.5,-9.8 L23.3,-10.5 M7.8,-7.4 L16.7,-9.2 L16.7,7.3 L7.8,9.2 L7.8,-7.4 "/>
<path class="Accidental" transform="matrix(0.992,0,0,0.992,1097.36,1923.8)" d="M16.6,-18.3 C16.4,-18.5 16.1,-18.6 15.8,-18.6 C15.7,-18.6 15.5,-18.5 15.4,-18.5 L2.8,-15 L2.8,-32.5 L0,-32.5 L0,17 C0,17.8 0.6,18.3 1.4,18.3 C1.5,18.3 1.7,18.3 1.8,18.3 L14.4,14.8 L14.4,32.3 L17.1,32.3 C17.1,15.7 17.1,-0.1 17.1,-17.2 C17.1,-17.6 16.9,-18.1 16.6,-18.3 M2.8,9.7 L2.8,-6.7 L14.4,-10 L14.4,6.5 L2.8,9.7 "/>
<path class="Accidental" transform="matrix(0.992,0,0,0.992,1264.68,1936.2)" d="M23.3,-10.5 C23.9,-10.6 24.4,-11.3 24.4,-11.9 L24.4,-17.8 C24.4,-18.6 23.8,-19.2 23,-19.2 C22.9,-19.2 22.9,-19.2 22.8,-19.2 L19.5,-18.5 L19.5,-33.4 L16.7,-33.4 L16.7,-17.9 L7.8,-16.1 L7.8,-30.2 L5,-30.2 L5,-15.5 L1.1,-14.7 C0.5,-14.6 0,-13.9 0,-13.3 L0,-13.1 L0,-7.3 L0,-7.5 C0,-6.7 0.6,-6.1 1.4,-6.1 C1.5,-6.1 1.6,-6.1 1.7,-6.1 L5,-6.8 L5,9.7 L1.1,10.5 C0.5,10.6 0,11.3 0,11.9 L0,17.7 C0,18.5 0.6,19.1 1.4,19.1 C1.5,19.1 1.6,19.1 1.7,19.1 L5,18.4 L5,33.3 L7.8,33.3 L7.8,17.8 L16.7,16 L16.7,30.1 L19.5,30.1 L19.5,15.4 L23.3,14.7 C23.9,14.6 24.4,13.9 24.4,13.3 L24.4,7.4 C24.4,6.6 23.8,6 23,6 C22.9,6 22.9,6 22.8,6 L19.5,6.7 L19.5,-9.8 L23.3,-10.5 M7.8,-7.4 L16.7,-9.2 L16.7,7.3 L7.8,9.2 L7.8,-7.4 "/>
<path class="Accidental" transform="matrix(0.992,0,0,0.992,1380.6,1923.8)" d="M16.6,-18.3 C16.4,-18.5 16.1,-18.6 15.8,-18.6 C15.7,-18.6 15.5,-18.5 15.4,-18.5 L2.8,-15 L2.8,-32.5 L0,-32.5 L0,17 C0,17.8 0.6,18.3 1.4,18.3 C1.5,18.3 1.7,18.3 1.8,18.3 L14.4,14.8 L14.4,32.3 L17.1,32.3 C17.1,15.7 17.1,-0.1 17.1,-17.2 C17.1,-17.6 16.9,-18.1 16.6,-18.3 M2.8,9.7 L2.8,-6.7 L14.4,-10 L14.4,6.5 L2.8,9.7 "/>
<polyline class="LedgerLine" fill="none" stroke="#000000" stroke-width="3.97" stroke-linejoin="bevel" points="1820.93,1365.8 1869.52,1365.8" />
<polyline class="LedgerLine" fill="none" stroke="#000000" stroke-width="3.97" stroke-linejoin="bevel" points="2681.87,758.198 2730.47,758.198" />
<polyline class="LedgerLine" fill="none" stroke="#000000" stroke-width="3.97" stroke-linejoin="bevel" points="1524.73,758.198 1573.32,758.198" />
<polyline class="LedgerLine" fill="none" stroke="#000000" stroke-width="3.97" stroke-linejoin="bevel" points="1647.47,1365.8 1696.06,1365.8" />
<polyline class="LedgerLine" fill="none" stroke="#000000" stroke-width="3.97" stroke-linejoin="bevel" points="1575.97,1365.8 1624.56,1365.8" />
<polyline class="LedgerLine" fill="none" stroke="#000000" stroke-width="3.97" stroke-linejoin="bevel" points="1503.18,1365.8 1551.77,1365.8" />
<polyline class="LedgerLine" fill="none" stroke="#000000" stroke-width="3.97" stroke-linejoin="bevel" points="1405,1365.8 1453.59,1365.8" />
<polyline class="LedgerLine" fill="none" stroke="#000000" stroke-width="3.97" stroke-linejoin="bevel" points="1454.65,758.198 1503.24,758.198" />
<polyline class="LedgerLine" fill="none" stroke="#000000" stroke-width="3.97" stroke-linejoin="bevel" points="1766.14,1365.8 1814.73,1365.8" />
<polyline class="LedgerLine" fill="none" stroke="#000000" stroke-width="3.97" stroke-linejoin="bevel" points="1766.14,1390.6 1814.73,1390.6" />
<polyline class="LedgerLine" fill="none" stroke="#000000" stroke-width="3.97" stroke-linejoin="bevel" points="1820.93,1390.6 1869.52,1390.6" />
<polyline class="LedgerLine" fill="none" stroke="#000000" stroke-width="3.97" stroke-linejoin="bevel" points="1228.61,1390.6 1277.2,1390.6" />
<polyline class="LedgerLine" fill="none" stroke="#000000" stroke-width="3.97" stroke-linejoin="bevel" points="1228.61,1365.8 1277.2,1365.8" />
<polyline class="LedgerLine" fill="none" stroke="#000000" stroke-width="3.97" stroke-linejoin="bevel" points="1173.82,1365.8 1222.41,1365.8" />
<polyline class="LedgerLine" fill="none" stroke="#000000" stroke-width="3.97" stroke-linejoin="bevel" points="1119.03,1365.8 1167.62,1365.8" />
<polyline class="LedgerLine" fill="none" stroke="#000000" stroke-width="3.97" stroke-linejoin="bevel" points="1046.24,1390.6 1094.83,1390.6" />
<polyline class="LedgerLine" fill="none" stroke="#000000" stroke-width="3.97" stroke-linejoin="bevel" points="2015.7,758.198 2064.3,758.198" />
<polyline class="LedgerLine" fill="none" stroke="#000000" stroke-width="3.97" stroke-linejoin="bevel" points="1046.24,1365.8 1094.83,1365.8" />
<polyline class="LedgerLine" fill="none" stroke="#000000" stroke-width="3.97" stroke-linejoin="bevel" points="991.445,1365.8 1040.04,1365.8" />
<polyline class="LedgerLine" fill="none" stroke="#000000" stroke-width="3.97" stroke-linejoin="bevel" points="2085.78,758.198 2134.37,758.198" />
<polyline class="LedgerLine" fill="none" stroke="#000000" stroke-width="3.97" stroke-linejoin="bevel" points="936.652,1365.8 985.245,1365.8" />
<polyline class="LedgerLine" fill="none" stroke="#000000" stroke-width="3.97" stroke-linejoin="bevel" points="1875.72,1365.8 1924.31,1365.8" />
<polyline class="LedgerLine" fill="none" stroke="#000000" stroke-width="3.97" stroke-linejoin="bevel" points="1875.72,1390.6 1924.31,1390.6" />
<polyline class="LedgerLine" fill="none" stroke="#000000" stroke-width="3.97" stroke-linejoin="bevel" points="1930.51,1365.8 1979.11,1365.8" />
<polyline class="LedgerLine" fill="none" stroke="#000000" stroke-width="3.97" stroke-linejoin="bevel" points="865.15,1365.8 913.742,1365.8" />
<polyline class="LedgerLine" fill="none" stroke="#000000" stroke-width="3.97" stroke-linejoin="bevel" points="1930.51,1390.6 1979.11,1390.6" />
<polyline class="LedgerLine" fill="none" stroke="#000000" stroke-width="3.97" stroke-linejoin="bevel" points="1930.51,1415.4 1979.11,1415.4" />
<polyline class="LedgerLine" fill="none" stroke="#000000" stroke-width="3.97" stroke-linejoin="bevel" points="760.261,1365.8 808.854,1365.8" />
<polyline class="LedgerLine" fill="none" stroke="#000000" stroke-width="3.97" stroke-linejoin="bevel" points="705.469,1365.8 754.061,1365.8" />
<polyline class="LedgerLine" fill="none" stroke="#000000" stroke-width="3.97" stroke-linejoin="bevel" points="650.676,1390.6 699.269,1390.6" />
<polyline class="LedgerLine" fill="none" stroke="#000000" stroke-width="3.97" stroke-linejoin="bevel" points="650.676,1365.8 699.269,1365.8" />
<polyline class="LedgerLine" fill="none" stroke="#000000" stroke-width="3.97" stroke-linejoin="bevel" points="595.884,1365.8 644.476,1365.8" />
<polyline class="LedgerLine" fill="none" stroke="#000000" stroke-width="3.97" stroke-linejoin="bevel" points="541.091,1390.6 589.684,1390.6" />
<polyline class="LedgerLine" fill="none" stroke="#000000" stroke-width="3.97" stroke-linejoin="bevel" points="541.091,1365.8 589.684,1365.8" />
<polyline class="LedgerLine" fill="none" stroke="#000000" stroke-width="3.97" stroke-linejoin="bevel" points="486.299,1365.8 534.891,1365.8" />
<polyline class="LedgerLine" fill="none" stroke="#000000" stroke-width="3.97" stroke-linejoin="bevel" points="414.796,1390.6 463.388,1390.6" />
<polyline class="LedgerLine" fill="none" stroke="#000000" stroke-width="3.97" stroke-linejoin="bevel" points="414.796,1365.8 463.388,1365.8" />
<polyline class="LedgerLine" fill="none" stroke="#000000" stroke-width="3.97" stroke-linejoin="bevel" points="1985.31,1365.8 2033.9,1365.8" />
<polyline class="LedgerLine" fill="none" stroke="#000000" stroke-width="3.97" stroke-linejoin="bevel" points="1985.31,1390.6 2033.9,1390.6" />
<polyline class="LedgerLine" fill="none" stroke="#000000" stroke-width="3.97" stroke-linejoin="bevel" points="2611.8,758.198 2660.39,758.198" />
<polyline class="LedgerLine" fill="none" stroke="#000000" stroke-width="3.97" stroke-linejoin="bevel" points="1647.47,1390.6 1696.06,1390.6" />
<polyline class="Stem" fill="none" stroke="#000000" stroke-width="2.48" stroke-linejoin="bevel" points="1372.67,1349.43 1372.67,1266.6" />
<polyline class="Stem" fill="none" stroke="#000000" stroke-width="2.48" stroke-linejoin="bevel" points="1493.82,754.23 1493.82,663.12" />
<polyline class="Stem" fill="none" stroke="#000000" stroke-width="2.48" stroke-linejoin="bevel" points="2708.06,1957.03 2708.06,1880.4" />
<polyline class="Stem" fill="none" stroke="#000000" stroke-width="2.48" stroke-linejoin="bevel" points="1444.17,1361.83 1444.17,1291.25" />
<polyline class="Stem" fill="none" stroke="#000000" stroke-width="2.48" stroke-linejoin="bevel" points="2650.96,754.23 2650.96,663.12" />
<polyline class="Stem" fill="none" stroke="#000000" stroke-width="2.48" stroke-linejoin="bevel" points="2653.76,1957.03 2653.76,1880.4" />
<polyline class="Stem" fill="none" stroke="#000000" stroke-width="2.48" stroke-linejoin="bevel" points="2599.45,1957.03 2599.45,1880.4" />
<polyline class="Stem" fill="none" stroke="#000000" stroke-width="2.48" stroke-linejoin="bevel" points="2490.85,1957.03 2490.85,1880.4" />
<polyline class="Stem" fill="none" stroke="#000000" stroke-width="2.48" stroke-linejoin="bevel" points="453.964,1399.03 453.964,1291.4" />
<polyline class="Stem" fill="none" stroke="#000000" stroke-width="2.48" stroke-linejoin="bevel" points="2580.89,741.83 2580.89,661.077" />
<polyline class="Stem" fill="none" stroke="#000000" stroke-width="2.48" stroke-linejoin="bevel" points="2436.55,1957.03 2436.55,1880.4" />
<polyline class="Stem" fill="none" stroke="#000000" stroke-width="2.48" stroke-linejoin="bevel" points="2322.96,1965.16 2322.96,2023" />
<polyline class="Stem" fill="none" stroke="#000000" stroke-width="2.48" stroke-linejoin="bevel" points="525.467,1374.23 525.467,1285.47" />
<polyline class="Stem" fill="none" stroke="#000000" stroke-width="2.48" stroke-linejoin="bevel" points="512.291,741.83 512.291,658.998" />
<polyline class="Stem" fill="none" stroke="#000000" stroke-width="2.48" stroke-linejoin="bevel" points="2206.04,1965.16 2206.04,2023" />
<polyline class="Stem" fill="none" stroke="#000000" stroke-width="2.48" stroke-linejoin="bevel" points="2151.74,1965.16 2151.74,2041.5" />
<polyline class="Stem" fill="none" stroke="#000000" stroke-width="2.48" stroke-linejoin="bevel" points="580.26,1399.03 580.26,1297.33" />
<polyline class="Stem" fill="none" stroke="#000000" stroke-width="2.48" stroke-linejoin="bevel" points="2510.81,741.83 2510.81,659.035" />
<polyline class="Stem" fill="none" stroke="#000000" stroke-width="2.48" stroke-linejoin="bevel" points="1353.66,741.83 1353.66,659.035" />
<polyline class="Stem" fill="none" stroke="#000000" stroke-width="2.48" stroke-linejoin="bevel" points="2043.14,1965.16 2043.14,2023" />
<polyline class="Stem" fill="none" stroke="#000000" stroke-width="2.48" stroke-linejoin="bevel" points="635.052,1374.23 635.052,1297.6" />
<polyline class="Stem" fill="none" stroke="#000000" stroke-width="2.48" stroke-linejoin="bevel" points="2440.73,741.83 2440.73,665.198" />
<polyline class="Stem" fill="none" stroke="#000000" stroke-width="2.48" stroke-linejoin="bevel" points="1988.84,1965.16 1988.84,2023" />
<polyline class="Stem" fill="none" stroke="#000000" stroke-width="2.48" stroke-linejoin="bevel" points="1905,1965.16 1905,2023" />
<polyline class="Stem" fill="none" stroke="#000000" stroke-width="2.48" stroke-linejoin="bevel" points="689.845,1399.03 689.845,1297.6" />
<polyline class="Stem" fill="none" stroke="#000000" stroke-width="2.48" stroke-linejoin="bevel" points="1788.08,1903.16 1788.08,1973.4" />
<polyline class="Stem" fill="none" stroke="#000000" stroke-width="2.48" stroke-linejoin="bevel" points="2370.65,741.83 2370.65,665.198" />
<polyline class="Stem" fill="none" stroke="#000000" stroke-width="2.48" stroke-linejoin="bevel" points="1736.37,1907.43 1736.37,1830.8" />
<polyline class="Stem" fill="none" stroke="#000000" stroke-width="2.48" stroke-linejoin="bevel" points="744.637,1374.23 744.637,1297.6" />
<polyline class="Stem" fill="none" stroke="#000000" stroke-width="2.48" stroke-linejoin="bevel" points="1654.92,1919.83 1654.92,1837" />
<polyline class="Stem" fill="none" stroke="#000000" stroke-width="2.48" stroke-linejoin="bevel" points="617.409,717.03 617.409,652.904" />
<polyline class="Stem" fill="none" stroke="#000000" stroke-width="2.48" stroke-linejoin="bevel" points="799.43,1374.23 799.43,1297.6" />
<polyline class="Stem" fill="none" stroke="#000000" stroke-width="2.48" stroke-linejoin="bevel" points="2300.57,741.83 2300.57,665.198" />
<polyline class="Stem" fill="none" stroke="#000000" stroke-width="2.48" stroke-linejoin="bevel" points="1434.74,1919.83 1434.74,1837" />
<polyline class="Stem" fill="none" stroke="#000000" stroke-width="2.48" stroke-linejoin="bevel" points="1370.68,1919.83 1370.68,1849.4" />
<polyline class="Stem" fill="none" stroke="#000000" stroke-width="2.48" stroke-linejoin="bevel" points="687.488,741.83 687.488,658.892" />
<polyline class="Stem" fill="none" stroke="#000000" stroke-width="2.48" stroke-linejoin="bevel" points="904.318,1361.83 904.318,1279" />
<polyline class="Stem" fill="none" stroke="#000000" stroke-width="2.48" stroke-linejoin="bevel" points="2230.49,741.83 2230.49,665.198" />
<polyline class="Stem" fill="none" stroke="#000000" stroke-width="2.48" stroke-linejoin="bevel" points="1326.06,1932.23 1326.06,1849.4" />
<polyline class="Stem" fill="none" stroke="#000000" stroke-width="2.48" stroke-linejoin="bevel" points="946.076,1382.36 946.076,1440.2" />
<polyline class="Stem" fill="none" stroke="#000000" stroke-width="2.48" stroke-linejoin="bevel" points="1254.76,1919.83 1254.76,1849.4" />
<polyline class="Stem" fill="none" stroke="#000000" stroke-width="2.48" stroke-linejoin="bevel" points="1151.5,1919.83 1151.5,1837" />
<polyline class="Stem" fill="none" stroke="#000000" stroke-width="2.48" stroke-linejoin="bevel" points="757.566,717.03 757.566,640.398" />
<polyline class="Stem" fill="none" stroke="#000000" stroke-width="2.48" stroke-linejoin="bevel" points="1000.87,1382.36 1000.87,1440.2" />
<polyline class="Stem" fill="none" stroke="#000000" stroke-width="2.48" stroke-linejoin="bevel" points="2124.95,754.23 2124.95,665.126" />
<polyline class="Stem" fill="none" stroke="#000000" stroke-width="2.48" stroke-linejoin="bevel" points="1026.31,1919.83 1026.31,1837" />
<polyline class="Stem" fill="none" stroke="#000000" stroke-width="2.48" stroke-linejoin="bevel" points="1969.68,1411.43 1969.68,1297.6" />
<polyline class="Stem" fill="none" stroke="#000000" stroke-width="2.48" stroke-linejoin="bevel" points="1085.41,1399.03 1085.41,1291.6" />
<polyline class="Stem" fill="none" stroke="#000000" stroke-width="2.48" stroke-linejoin="bevel" points="944.855,1907.43 944.855,1830.8" />
<polyline class="Stem" fill="none" stroke="#000000" stroke-width="2.48" stroke-linejoin="bevel" points="2054.87,754.23 2054.87,661.041" />
<polyline class="Stem" fill="none" stroke="#000000" stroke-width="2.48" stroke-linejoin="bevel" points="863.401,1907.43 863.401,1830.8" />
<polyline class="Stem" fill="none" stroke="#000000" stroke-width="2.48" stroke-linejoin="bevel" points="1128.45,1382.36 1128.45,1452.74" />
<polyline class="Stem" fill="none" stroke="#000000" stroke-width="2.48" stroke-linejoin="bevel" points="781.948,1907.43 781.948,1830.8" />
<polyline class="Stem" fill="none" stroke="#000000" stroke-width="2.48" stroke-linejoin="bevel" points="827.645,741.83 827.645,640.398" />
<polyline class="Stem" fill="none" stroke="#000000" stroke-width="2.48" stroke-linejoin="bevel" points="624.304,1907.43 624.304,1830.8" />
<polyline class="Stem" fill="none" stroke="#000000" stroke-width="2.48" stroke-linejoin="bevel" points="1183.24,1382.36 1183.24,1458.8" />
<polyline class="Stem" fill="none" stroke="#000000" stroke-width="2.48" stroke-linejoin="bevel" points="1984.79,741.83 1984.79,656.956" />
<polyline class="Stem" fill="none" stroke="#000000" stroke-width="2.48" stroke-linejoin="bevel" points="557.22,1907.43 557.22,1831" />
<polyline class="Stem" fill="none" stroke="#000000" stroke-width="2.48" stroke-linejoin="bevel" points="1238.03,1407.16 1238.03,1464.86" />
<polyline class="Stem" fill="none" stroke="#000000" stroke-width="2.48" stroke-linejoin="bevel" points="1423.74,741.83 1423.74,661.077" />
<polyline class="Stem" fill="none" stroke="#000000" stroke-width="2.48" stroke-linejoin="bevel" points="453.964,1907.43 453.964,1830.8" />
<polyline class="Stem" fill="none" stroke="#000000" stroke-width="2.48" stroke-linejoin="bevel" points="897.724,717.03 897.724,640.398" />
<polyline class="Stem" fill="none" stroke="#000000" stroke-width="2.48" stroke-linejoin="bevel" points="1914.71,717.03 1914.71,652.871" />
<polyline class="Stem" fill="none" stroke="#000000" stroke-width="2.48" stroke-linejoin="bevel" points="967.802,717.03 967.802,640.398" />
<polyline class="Stem" fill="none" stroke="#000000" stroke-width="2.48" stroke-linejoin="bevel" points="1844.64,741.83 1844.64,658.892" />
<polyline class="Stem" fill="none" stroke="#000000" stroke-width="2.48" stroke-linejoin="bevel" points="2689.87,1295.56 2689.87,1365.8" />
<polyline class="Stem" fill="none" stroke="#000000" stroke-width="2.48" stroke-linejoin="bevel" points="2648.12,1299.83 2648.12,1223.2" />
<polyline class="Stem" fill="none" stroke="#000000" stroke-width="2.48" stroke-linejoin="bevel" points="2600.45,1312.23 2600.45,1241.8" />
<polyline class="Stem" fill="none" stroke="#000000" stroke-width="2.48" stroke-linejoin="bevel" points="2552.78,1312.23 2552.78,1241.8" />
<polyline class="Stem" fill="none" stroke="#000000" stroke-width="2.48" stroke-linejoin="bevel" points="2481.28,1312.23 2481.28,1229.4" />
<polyline class="Stem" fill="none" stroke="#000000" stroke-width="2.48" stroke-linejoin="bevel" points="1493.26,1349.43 1493.26,1285.35" />
<polyline class="Stem" fill="none" stroke="#000000" stroke-width="2.48" stroke-linejoin="bevel" points="1860.1,1399.03 1860.1,1297.6" />
<polyline class="Stem" fill="none" stroke="#000000" stroke-width="2.48" stroke-linejoin="bevel" points="1283.58,741.83 1283.58,665.198" />
<polyline class="Stem" fill="none" stroke="#000000" stroke-width="2.48" stroke-linejoin="bevel" points="1542.35,1361.83 1542.35,1279.2" />
<polyline class="Stem" fill="none" stroke="#000000" stroke-width="2.48" stroke-linejoin="bevel" points="1774.56,717.03 1774.56,652.904" />
<polyline class="Stem" fill="none" stroke="#000000" stroke-width="2.48" stroke-linejoin="bevel" points="1073.35,704.63 1073.35,621.997" />
<polyline class="Stem" fill="none" stroke="#000000" stroke-width="2.48" stroke-linejoin="bevel" points="1615.13,1374.23 1615.13,1291.4" />
<polyline class="Stem" fill="none" stroke="#000000" stroke-width="2.48" stroke-linejoin="bevel" points="2338.56,1312.23 2338.56,1229.4" />
<polyline class="Stem" fill="none" stroke="#000000" stroke-width="2.48" stroke-linejoin="bevel" points="2271.48,1312.23 2271.48,1229.6" />
<polyline class="Stem" fill="none" stroke="#000000" stroke-width="2.48" stroke-linejoin="bevel" points="2024.48,1399.03 2024.48,1291.4" />
<polyline class="Stem" fill="none" stroke="#000000" stroke-width="2.48" stroke-linejoin="bevel" points="1686.64,1386.63 1686.64,1291.6" />
<polyline class="Stem" fill="none" stroke="#000000" stroke-width="2.48" stroke-linejoin="bevel" points="1669.44,741.83 1669.44,658.998" />
<polyline class="Stem" fill="none" stroke="#000000" stroke-width="2.48" stroke-linejoin="bevel" points="2721.04,766.63 2721.04,665.162" />
<polyline class="Stem" fill="none" stroke="#000000" stroke-width="2.48" stroke-linejoin="bevel" points="1213.5,741.83 1213.5,665.198" />
<polyline class="Stem" fill="none" stroke="#000000" stroke-width="2.48" stroke-linejoin="bevel" points="1563.9,766.63 1563.9,665.162" />
<polyline class="Stem" fill="none" stroke="#000000" stroke-width="2.48" stroke-linejoin="bevel" points="2180.83,1312.23 2180.83,1229.4" />
<polyline class="Stem" fill="none" stroke="#000000" stroke-width="2.48" stroke-linejoin="bevel" points="1143.42,741.83 1143.42,665.198" />
<polyline class="Stem" fill="none" stroke="#000000" stroke-width="2.48" stroke-linejoin="bevel" points="1805.31,1399.03 1805.31,1297.6" />
<polyline class="Stem" fill="none" stroke="#000000" stroke-width="2.48" stroke-linejoin="bevel" points="1914.89,1399.03 1914.89,1297.6" />
<path class="Hook" transform="matrix(0.992,0,0,0.992,2270.24,1229.4)" d="M0,22.7 C0,23 0.1,23.5 0.8,23.8 C5.1,25.2 13.7,30.6 20.2,41.7 C22,44.8 24.9,49.1 24.9,57.4 C24.9,64.6 23,72 20.4,79.2 C20.2,79.8 20,80.3 20.1,80.7 C20.1,81.1 20.2,81.4 20.6,81.6 C20.8,81.7 21,81.7 21.1,81.7 C21.8,81.7 22.3,81.3 22.7,80.6 C27.4,72.3 29,61.7 28.9,55.4 C28.9,54.9 28.9,54.6 28.9,54.2 C28.4,41.3 21,31.8 21,31.8 C21.3,31.8 11.8,19.5 9.1,15.3 C5.4,9.6 3.7,3.9 3.5,3.5 C3.4,3.2 2.5,-0.4 2.5,-0.4 C2.4,-0.8 1.9,-1.2 1.3,-1.2 C0.6,-1.2 0,-0.6 0,0.1 L0,22.7 "/>
<path class="Hook" transform="matrix(0.992,0,0,0.992,1685.4,1291.4)" d="M0,22.7 C0,23 0.1,23.5 0.8,23.8 C5.1,25.2 13.7,30.6 20.2,41.7 C22,44.8 24.9,49.1 24.9,57.4 C24.9,64.6 23,72 20.4,79.2 C20.2,79.8 20,80.3 20.1,80.7 C20.1,81.1 20.2,81.4 20.6,81.6 C20.8,81.7 21,81.7 21.1,81.7 C21.8,81.7 22.3,81.3 22.7,80.6 C27.4,72.3 29,61.7 28.9,55.4 C28.9,54.9 28.9,54.6 28.9,54.2 C28.4,41.3 21,31.8 21,31.8 C21.3,31.8 11.8,19.5 9.1,15.3 C5.4,9.6 3.7,3.9 3.5,3.5 C3.4,3.2 2.5,-0.4 2.5,-0.4 C2.4,-0.8 1.9,-1.2 1.3,-1.2 C0.6,-1.2 0,-0.6 0,0.1 L0,22.7 "/>
<path class="Hook" transform="matrix(0.992,0,0,0.992,1541.11,1279)" d="M0,22.7 C0,23 0.1,23.5 0.8,23.8 C5.1,25.2 13.7,30.6 20.2,41.7 C22,44.8 24.9,49.1 24.9,57.4 C24.9,64.6 23,72 20.4,79.2 C20.2,79.8 20,80.3 20.1,80.7 C20.1,81.1 20.2,81.4 20.6,81.6 C20.8,81.7 21,81.7 21.1,81.7 C21.8,81.7 22.3,81.3 22.7,80.6 C27.4,72.3 29,61.7 28.9,55.4 C28.9,54.9 28.9,54.6 28.9,54.2 C28.4,41.3 21,31.8 21,31.8 C21.3,31.8 11.8,19.5 9.1,15.3 C5.4,9.6 3.7,3.9 3.5,3.5 C3.4,3.2 2.5,-0.4 2.5,-0.4 C2.4,-0.8 1.9,-1.2 1.3,-1.2 C0.6,-1.2 0,-0.6 0,0.1 L0,22.7 "/>
<path class="Hook" transform="matrix(0.992,0,0,0.992,1072.11,621.798)" d="M0,22.7 C0,23 0.1,23.5 0.8,23.8 C5.1,25.2 13.7,30.6 20.2,41.7 C22,44.8 24.9,49.1 24.9,57.4 C24.9,64.6 23,72 20.4,79.2 C20.2,79.8 20,80.3 20.1,80.7 C20.1,81.1 20.2,81.4 20.6,81.6 C20.8,81.7 21,81.7 21.1,81.7 C21.8,81.7 22.3,81.3 22.7,80.6 C27.4,72.3 29,61.7 28.9,55.4 C28.9,54.9 28.9,54.6 28.9,54.2 C28.4,41.3 21,31.8 21,31.8 C21.3,31.8 11.8,19.5 9.1,15.3 C5.4,9.6 3.7,3.9 3.5,3.5 C3.4,3.2 2.5,-0.4 2.5,-0.4 C2.4,-0.8 1.9,-1.2 1.3,-1.2 C0.6,-1.2 0,-0.6 0,0.1 L0,22.7 "/>
<path class="Hook" transform="matrix(0.992,0,0,0.992,555.98,1830.8)" d="M0,22.7 C0,23 0.1,23.5 0.8,23.8 C5.1,25.2 13.7,30.6 20.2,41.7 C22,44.8 24.9,49.1 24.9,57.4 C24.9,64.6 23,72 20.4,79.2 C20.2,79.8 20,80.3 20.1,80.7 C20.1,81.1 20.2,81.4 20.6,81.6 C20.8,81.7 21,81.7 21.1,81.7 C21.8,81.7 22.3,81.3 22.7,80.6 C27.4,72.3 29,61.7 28.9,55.4 C28.9,54.9 28.9,54.6 28.9,54.2 C28.4,41.3 21,31.8 21,31.8 C21.3,31.8 11.8,19.5 9.1,15.3 C5.4,9.6 3.7,3.9 3.5,3.5 C3.4,3.2 2.5,-0.4 2.5,-0.4 C2.4,-0.8 1.9,-1.2 1.3,-1.2 C0.6,-1.2 0,-0.6 0,0.1 L0,22.7 "/>
<path class="Hook" transform="matrix(0.992,0,0,0.992,1084.17,1291.4)" d="M0,22.7 C0,23 0.1,23.5 0.8,23.8 C5.1,25.2 13.7,30.6 20.2,41.7 C22,44.8 24.9,49.1 24.9,57.4 C24.9,64.6 23,72 20.4,79.2 C20.2,79.8 20,80.3 20.1,80.7 C20.1,81.1 20.2,81.4 20.6,81.6 C20.8,81.7 21,81.7 21.1,81.7 C21.8,81.7 22.3,81.3 22.7,80.6 C27.4,72.3 29,61.7 28.9,55.4 C28.9,54.9 28.9,54.6 28.9,54.2 C28.4,41.3 21,31.8 21,31.8 C21.3,31.8 11.8,19.5 9.1,15.3 C5.4,9.6 3.7,3.9 3.5,3.5 C3.4,3.2 2.5,-0.4 2.5,-0.4 C2.4,-0.8 1.9,-1.2 1.3,-1.2 C0.6,-1.2 0,-0.6 0,0.1 L0,22.7 "/>
<path class="Hook" transform="matrix(0.992,0,0,0.992,2150.5,2041.6)" d="M0,-0.1 C0,0.6 0.6,1.2 1.3,1.2 C1.8,1.2 2.4,0.8 2.5,0.4 C2.5,0.3 3.4,-3.2 3.5,-3.5 C3.6,-3.9 4.5,-7.7 8.1,-13.6 C12,-20.1 18,-24.8 23,-31.8 C27.9,-38.8 30.9,-45.4 30.9,-54.2 C30.9,-63.3 28.8,-70.9 23.5,-80.6 C23.2,-81.3 22.6,-81.7 22,-81.7 C21.8,-81.7 21.6,-81.7 21.5,-81.6 C21,-81.4 20.8,-81 20.8,-80.4 C20.8,-80.1 20.9,-79.6 21.1,-79.2 C25.1,-69.9 26.7,-64.6 26.7,-57.4 C26.7,-49.1 23.8,-44.8 22,-41.7 C15.5,-30.6 5,-25.2 0.8,-23.8 C0.1,-23.5 0,-23 0,-22.7 L0,-0.1 "/>
<path class="Note" transform="matrix(0.992,0,0,0.992,2149.85,1316.2)" d="M0,4.2 C0,8.5 3.1,13.3 11.2,13.3 C21.6,13.3 32.5,4.8 32.5,-4 C32.5,-9.9 27.5,-13.2 21.3,-13.2 C11.6,-13.2 0,-5 0,4.2"/>
<path class="Note" transform="matrix(0.992,0,0,0.992,1705.39,1911.4)" d="M0,4.2 C0,8.5 3.1,13.3 11.2,13.3 C21.6,13.3 32.5,4.8 32.5,-4 C32.5,-9.9 27.5,-13.2 21.3,-13.2 C11.6,-13.2 0,-5 0,4.2"/>
<path class="Note" transform="matrix(0.992,0,0,0.992,1829.11,1403)" d="M0,4.2 C0,8.5 3.1,13.3 11.2,13.3 C21.6,13.3 32.5,4.8 32.5,-4 C32.5,-9.9 27.5,-13.2 21.3,-13.2 C11.6,-13.2 0,-5 0,4.2"/>
<path class="Note" transform="matrix(0.992,0,0,0.992,1883.91,1403)" d="M0,4.2 C0,8.5 3.1,13.3 11.2,13.3 C21.6,13.3 32.5,4.8 32.5,-4 C32.5,-9.9 27.5,-13.2 21.3,-13.2 C11.6,-13.2 0,-5 0,4.2"/>
<path class="Note" transform="matrix(0.992,0,0,0.992,2619.98,758.198)" d="M0,4.2 C0,8.5 3.1,13.3 11.2,13.3 C21.6,13.3 32.5,4.8 32.5,-4 C32.5,-9.9 27.5,-13.2 21.3,-13.2 C11.6,-13.2 0,-5 0,4.2"/>
<path class="Note" transform="matrix(0.992,0,0,0.992,1252.6,745.798)" d="M0,4.2 C0,8.5 3.1,13.3 11.2,13.3 C21.6,13.3 32.5,4.8 32.5,-4 C32.5,-9.9 27.5,-13.2 21.3,-13.2 C11.6,-13.2 0,-5 0,4.2"/>
<path class="Note" transform="matrix(0.992,0,0,0.992,2690.06,770.598)" d="M0,4.2 C0,8.5 3.1,13.3 11.2,13.3 C21.6,13.3 32.5,4.8 32.5,-4 C32.5,-9.9 27.5,-13.2 21.3,-13.2 C11.6,-13.2 0,-5 0,4.2"/>
<path class="Note" transform="matrix(0.992,0,0,0.992,1182.52,745.798)" d="M0,4.2 C0,8.5 3.1,13.3 11.2,13.3 C21.6,13.3 32.5,4.8 32.5,-4 C32.5,-9.9 27.5,-13.2 21.3,-13.2 C11.6,-13.2 0,-5 0,4.2"/>
<path class="Note" transform="matrix(0.992,0,0,0.992,1938.7,1415.4)" d="M0,4.2 C0,8.5 3.1,13.3 11.2,13.3 C21.6,13.3 32.5,4.8 32.5,-4 C32.5,-9.9 27.5,-13.2 21.3,-13.2 C11.6,-13.2 0,-5 0,4.2"/>
<path class="Note" transform="matrix(0.992,0,0,0.992,1774.32,1403)" d="M0,4.2 C0,8.5 3.1,13.3 11.2,13.3 C21.6,13.3 32.5,4.8 32.5,-4 C32.5,-9.9 27.5,-13.2 21.3,-13.2 C11.6,-13.2 0,-5 0,4.2"/>
<path class="Note" transform="matrix(0.992,0,0,0.992,1392.75,745.798)" d="M0,4.2 C0,8.5 3.1,13.3 11.2,13.3 C21.6,13.3 32.5,4.8 32.5,-4 C32.5,-9.9 27.5,-13.2 21.3,-13.2 C11.6,-13.2 0,-5 0,4.2"/>
<path class="Note" transform="matrix(0.992,0,0,0.992,2622.77,1961)" d="M0,4.2 C0,8.5 3.1,13.3 11.2,13.3 C21.6,13.3 32.5,4.8 32.5,-4 C32.5,-9.9 27.5,-13.2 21.3,-13.2 C11.6,-13.2 0,-5 0,4.2"/>
<path class="Note" transform="matrix(0.992,0,0,0.992,1993.49,1403)" d="M21.3,-13.2 C11.6,-13.2 0,-5.1 0,4.2 C0,8.5 3.1,13.3 11.2,13.3 C21.6,13.3 32.5,4.8 32.5,-4 C32.5,-9.9 27.5,-13.2 21.3,-13.2 M18.6,4.4 C18.3,4.6 11,8.6 7.5,8.6 C4.2,8.6 3.5,5.9 3.5,5 C3.5,0.8 13.5,-4.1 13.9,-4.3 C14.3,-4.5 21.4,-8.5 25,-8.5 C27.4,-8.5 29,-7.1 29,-4.9 C29,-0.6 18.9,4.2 18.6,4.4"/>
<path class="Note" transform="matrix(0.992,0,0,0.992,1112.44,745.798)" d="M0,4.2 C0,8.5 3.1,13.3 11.2,13.3 C21.6,13.3 32.5,4.8 32.5,-4 C32.5,-9.9 27.5,-13.2 21.3,-13.2 C11.6,-13.2 0,-5 0,4.2"/>
<path class="Note" transform="matrix(0.992,0,0,0.992,1462.83,758.198)" d="M0,4.2 C0,8.5 3.1,13.3 11.2,13.3 C21.6,13.3 32.5,4.8 32.5,-4 C32.5,-9.9 27.5,-13.2 21.3,-13.2 C11.6,-13.2 0,-5 0,4.2"/>
<path class="Note" transform="matrix(0.992,0,0,0.992,2549.9,745.798)" d="M0,4.2 C0,8.5 3.1,13.3 11.2,13.3 C21.6,13.3 32.5,4.8 32.5,-4 C32.5,-9.9 27.5,-13.2 21.3,-13.2 C11.6,-13.2 0,-5 0,4.2"/>
<path class="Note" transform="matrix(0.992,0,0,0.992,1655.65,1390.6)" d="M0,4.2 C0,8.5 3.1,13.3 11.2,13.3 C21.6,13.3 32.5,4.8 32.5,-4 C32.5,-9.9 27.5,-13.2 21.3,-13.2 C11.6,-13.2 0,-5 0,4.2"/>
<path class="Note" transform="matrix(0.992,0,0,0.992,1532.91,770.598)" d="M0,4.2 C0,8.5 3.1,13.3 11.2,13.3 C21.6,13.3 32.5,4.8 32.5,-4 C32.5,-9.9 27.5,-13.2 21.3,-13.2 C11.6,-13.2 0,-5 0,4.2"/>
<path class="Note" transform="matrix(0.992,0,0,0.992,2568.47,1961)" d="M0,4.2 C0,8.5 3.1,13.3 11.2,13.3 C21.6,13.3 32.5,4.8 32.5,-4 C32.5,-9.9 27.5,-13.2 21.3,-13.2 C11.6,-13.2 0,-5 0,4.2"/>
<path class="Note" transform="matrix(0.992,0,0,0.992,1584.15,1378.2)" d="M0,4.2 C0,8.5 3.1,13.3 11.2,13.3 C21.6,13.3 32.5,4.8 32.5,-4 C32.5,-9.9 27.5,-13.2 21.3,-13.2 C11.6,-13.2 0,-5 0,4.2"/>
<path class="Note" transform="matrix(0.992,0,0,0.992,2240.49,1316.2)" d="M0,4.2 C0,8.5 3.1,13.3 11.2,13.3 C21.6,13.3 32.5,4.8 32.5,-4 C32.5,-9.9 27.5,-13.2 21.3,-13.2 C11.6,-13.2 0,-5 0,4.2"/>
<path class="Note" transform="matrix(0.992,0,0,0.992,1638.45,745.798)" d="M0,4.2 C0,8.5 3.1,13.3 11.2,13.3 C21.6,13.3 32.5,4.8 32.5,-4 C32.5,-9.9 27.5,-13.2 21.3,-13.2 C11.6,-13.2 0,-5 0,4.2"/>
<path class="Note" transform="matrix(0.992,0,0,0.992,2307.57,1316.2)" d="M21.3,-13.2 C11.6,-13.2 0,-5.1 0,4.2 C0,8.5 3.1,13.3 11.2,13.3 C21.6,13.3 32.5,4.8 32.5,-4 C32.5,-9.9 27.5,-13.2 21.3,-13.2 M18.6,4.4 C18.3,4.6 11,8.6 7.5,8.6 C4.2,8.6 3.5,5.9 3.5,5 C3.5,0.8 13.5,-4.1 13.9,-4.3 C14.3,-4.5 21.4,-8.5 25,-8.5 C27.4,-8.5 29,-7.1 29,-4.9 C29,-0.6 18.9,4.2 18.6,4.4"/>
<path class="Note" transform="matrix(0.992,0,0,0.992,1042.36,708.598)" d="M0,4.2 C0,8.5 3.1,13.3 11.2,13.3 C21.6,13.3 32.5,4.8 32.5,-4 C32.5,-9.9 27.5,-13.2 21.3,-13.2 C11.6,-13.2 0,-5 0,4.2"/>
<path class="Note" transform="matrix(0.992,0,0,0.992,1511.36,1365.8)" d="M0,4.2 C0,8.5 3.1,13.3 11.2,13.3 C21.6,13.3 32.5,4.8 32.5,-4 C32.5,-9.9 27.5,-13.2 21.3,-13.2 C11.6,-13.2 0,-5 0,4.2"/>
<path class="Note" transform="matrix(0.992,0,0,0.992,1462.27,1353.4)" d="M0,4.2 C0,8.5 3.1,13.3 11.2,13.3 C21.6,13.3 32.5,4.8 32.5,-4 C32.5,-9.9 27.5,-13.2 21.3,-13.2 C11.6,-13.2 0,-5 0,4.2"/>
<path class="Note" transform="matrix(0.992,0,0,0.992,2459.86,1961)" d="M0,4.2 C0,8.5 3.1,13.3 11.2,13.3 C21.6,13.3 32.5,4.8 32.5,-4 C32.5,-9.9 27.5,-13.2 21.3,-13.2 C11.6,-13.2 0,-5 0,4.2"/>
<path class="Note" transform="matrix(0.992,0,0,0.992,2450.29,1316.2)" d="M0,4.2 C0,8.5 3.1,13.3 11.2,13.3 C21.6,13.3 32.5,4.8 32.5,-4 C32.5,-9.9 27.5,-13.2 21.3,-13.2 C11.6,-13.2 0,-5 0,4.2"/>
<path class="Note" transform="matrix(0.992,0,0,0.992,1413.19,1365.8)" d="M0,4.2 C0,8.5 3.1,13.3 11.2,13.3 C21.6,13.3 32.5,4.8 32.5,-4 C32.5,-9.9 27.5,-13.2 21.3,-13.2 C11.6,-13.2 0,-5 0,4.2"/>
<path class="Note" transform="matrix(0.992,0,0,0.992,2521.8,1316.2)" d="M0,4.2 C0,8.5 3.1,13.3 11.2,13.3 C21.6,13.3 32.5,4.8 32.5,-4 C32.5,-9.9 27.5,-13.2 21.3,-13.2 C11.6,-13.2 0,-5 0,4.2"/>
<path class="Note" transform="matrix(0.992,0,0,0.992,2405.56,1961)" d="M0,4.2 C0,8.5 3.1,13.3 11.2,13.3 C21.6,13.3 32.5,4.8 32.5,-4 C32.5,-9.9 27.5,-13.2 21.3,-13.2 C11.6,-13.2 0,-5 0,4.2"/>
<path class="Note" transform="matrix(0.992,0,0,0.992,1743.57,720.998)" d="M0,4.2 C0,8.5 3.1,13.3 11.2,13.3 C21.6,13.3 32.5,4.8 32.5,-4 C32.5,-9.9 27.5,-13.2 21.3,-13.2 C11.6,-13.2 0,-5 0,4.2"/>
<path class="Note" transform="matrix(0.992,0,0,0.992,2569.46,1316.2)" d="M0,4.2 C0,8.5 3.1,13.3 11.2,13.3 C21.6,13.3 32.5,4.8 32.5,-4 C32.5,-9.9 27.5,-13.2 21.3,-13.2 C11.6,-13.2 0,-5 0,4.2"/>
<path class="Note" transform="matrix(0.992,0,0,0.992,1341.68,1353.4)" d="M0,4.2 C0,8.5 3.1,13.3 11.2,13.3 C21.6,13.3 32.5,4.8 32.5,-4 C32.5,-9.9 27.5,-13.2 21.3,-13.2 C11.6,-13.2 0,-5 0,4.2"/>
<path class="Note" transform="matrix(0.992,0,0,0.992,2617.13,1303.8)" d="M0,4.2 C0,8.5 3.1,13.3 11.2,13.3 C21.6,13.3 32.5,4.8 32.5,-4 C32.5,-9.9 27.5,-13.2 21.3,-13.2 C11.6,-13.2 0,-5 0,4.2"/>
<path class="Note" transform="matrix(0.992,0,0,0.992,2321.72,1961)" d="M0,4.2 C0,8.5 3.1,13.3 11.2,13.3 C21.6,13.3 32.5,4.8 32.5,-4 C32.5,-9.9 27.5,-13.2 21.3,-13.2 C11.6,-13.2 0,-5 0,4.2"/>
<path class="Note" transform="matrix(0.992,0,0,0.992,2688.63,1291.4)" d="M0,4.2 C0,8.5 3.1,13.3 11.2,13.3 C21.6,13.3 32.5,4.8 32.5,-4 C32.5,-9.9 27.5,-13.2 21.3,-13.2 C11.6,-13.2 0,-5 0,4.2"/>
<path class="Note" transform="matrix(0.992,0,0,0.992,936.818,720.998)" d="M0,4.2 C0,8.5 3.1,13.3 11.2,13.3 C21.6,13.3 32.5,4.8 32.5,-4 C32.5,-9.9 27.5,-13.2 21.3,-13.2 C11.6,-13.2 0,-5 0,4.2"/>
<path class="Note" transform="matrix(0.992,0,0,0.992,1813.65,745.798)" d="M0,4.2 C0,8.5 3.1,13.3 11.2,13.3 C21.6,13.3 32.5,4.8 32.5,-4 C32.5,-9.9 27.5,-13.2 21.3,-13.2 C11.6,-13.2 0,-5 0,4.2"/>
<path class="Note" transform="matrix(0.992,0,0,0.992,866.739,720.998)" d="M0,4.2 C0,8.5 3.1,13.3 11.2,13.3 C21.6,13.3 32.5,4.8 32.5,-4 C32.5,-9.9 27.5,-13.2 21.3,-13.2 C11.6,-13.2 0,-5 0,4.2"/>
<path class="Note" transform="matrix(0.992,0,0,0.992,1236.79,1403)" d="M0,4.2 C0,8.5 3.1,13.3 11.2,13.3 C21.6,13.3 32.5,4.8 32.5,-4 C32.5,-9.9 27.5,-13.2 21.3,-13.2 C11.6,-13.2 0,-5 0,4.2"/>
<path class="Note" transform="matrix(0.992,0,0,0.992,422.98,1403)" d="M0,4.2 C0,8.5 3.1,13.3 11.2,13.3 C21.6,13.3 32.5,4.8 32.5,-4 C32.5,-9.9 27.5,-13.2 21.3,-13.2 C11.6,-13.2 0,-5 0,4.2"/>
<path class="Note" transform="matrix(0.992,0,0,0.992,2479.82,745.798)" d="M0,4.2 C0,8.5 3.1,13.3 11.2,13.3 C21.6,13.3 32.5,4.8 32.5,-4 C32.5,-9.9 27.5,-13.2 21.3,-13.2 C11.6,-13.2 0,-5 0,4.2"/>
<path class="Note" transform="matrix(0.992,0,0,0.992,1883.73,720.998)" d="M0,4.2 C0,8.5 3.1,13.3 11.2,13.3 C21.6,13.3 32.5,4.8 32.5,-4 C32.5,-9.9 27.5,-13.2 21.3,-13.2 C11.6,-13.2 0,-5 0,4.2"/>
<path class="Note" transform="matrix(0.992,0,0,0.992,422.98,1911.4)" d="M0,4.2 C0,8.5 3.1,13.3 11.2,13.3 C21.6,13.3 32.5,4.8 32.5,-4 C32.5,-9.9 27.5,-13.2 21.3,-13.2 C11.6,-13.2 0,-5 0,4.2"/>
<path class="Note" transform="matrix(0.992,0,0,0.992,2204.8,1961)" d="M0,4.2 C0,8.5 3.1,13.3 11.2,13.3 C21.6,13.3 32.5,4.8 32.5,-4 C32.5,-9.9 27.5,-13.2 21.3,-13.2 C11.6,-13.2 0,-5 0,4.2"/>
<path class="Note" transform="matrix(0.992,0,0,0.992,494.483,1378.2)" d="M0,4.2 C0,8.5 3.1,13.3 11.2,13.3 C21.6,13.3 32.5,4.8 32.5,-4 C32.5,-9.9 27.5,-13.2 21.3,-13.2 C11.6,-13.2 0,-5 0,4.2"/>
<path class="Note" transform="matrix(0.992,0,0,0.992,1182,1378.2)" d="M0,4.2 C0,8.5 3.1,13.3 11.2,13.3 C21.6,13.3 32.5,4.8 32.5,-4 C32.5,-9.9 27.5,-13.2 21.3,-13.2 C11.6,-13.2 0,-5 0,4.2"/>
<path class="Note" transform="matrix(0.992,0,0,0.992,526.236,1911.4)" d="M0,4.2 C0,8.5 3.1,13.3 11.2,13.3 C21.6,13.3 32.5,4.8 32.5,-4 C32.5,-9.9 27.5,-13.2 21.3,-13.2 C11.6,-13.2 0,-5 0,4.2"/>
<path class="Note" transform="matrix(0.992,0,0,0.992,2150.5,1961)" d="M0,4.2 C0,8.5 3.1,13.3 11.2,13.3 C21.6,13.3 32.5,4.8 32.5,-4 C32.5,-9.9 27.5,-13.2 21.3,-13.2 C11.6,-13.2 0,-5 0,4.2"/>
<path class="Note" transform="matrix(0.992,0,0,0.992,593.32,1911.4)" d="M21.3,-13.2 C11.6,-13.2 0,-5.1 0,4.2 C0,8.5 3.1,13.3 11.2,13.3 C21.6,13.3 32.5,4.8 32.5,-4 C32.5,-9.9 27.5,-13.2 21.3,-13.2 M18.6,4.4 C18.3,4.6 11,8.6 7.5,8.6 C4.2,8.6 3.5,5.9 3.5,5 C3.5,0.8 13.5,-4.1 13.9,-4.3 C14.3,-4.5 21.4,-8.5 25,-8.5 C27.4,-8.5 29,-7.1 29,-4.9 C29,-0.6 18.9,4.2 18.6,4.4"/>
<path class="Note" transform="matrix(0.992,0,0,0.992,796.66,745.798)" d="M0,4.2 C0,8.5 3.1,13.3 11.2,13.3 C21.6,13.3 32.5,4.8 32.5,-4 C32.5,-9.9 27.5,-13.2 21.3,-13.2 C11.6,-13.2 0,-5 0,4.2"/>
<path class="Note" transform="matrix(0.992,0,0,0.992,1127.21,1378.2)" d="M0,4.2 C0,8.5 3.1,13.3 11.2,13.3 C21.6,13.3 32.5,4.8 32.5,-4 C32.5,-9.9 27.5,-13.2 21.3,-13.2 C11.6,-13.2 0,-5 0,4.2"/>
<path class="Note" transform="matrix(0.992,0,0,0.992,1953.81,745.798)" d="M0,4.2 C0,8.5 3.1,13.3 11.2,13.3 C21.6,13.3 32.5,4.8 32.5,-4 C32.5,-9.9 27.5,-13.2 21.3,-13.2 C11.6,-13.2 0,-5 0,4.2"/>
<path class="Note" transform="matrix(0.992,0,0,0.992,750.964,1911.4)" d="M0,4.2 C0,8.5 3.1,13.3 11.2,13.3 C21.6,13.3 32.5,4.8 32.5,-4 C32.5,-9.9 27.5,-13.2 21.3,-13.2 C11.6,-13.2 0,-5 0,4.2"/>
<path class="Note" transform="matrix(0.992,0,0,0.992,1054.42,1403)" d="M0,4.2 C0,8.5 3.1,13.3 11.2,13.3 C21.6,13.3 32.5,4.8 32.5,-4 C32.5,-9.9 27.5,-13.2 21.3,-13.2 C11.6,-13.2 0,-5 0,4.2"/>
<path class="Note" transform="matrix(0.992,0,0,0.992,832.417,1911.4)" d="M0,4.2 C0,8.5 3.1,13.3 11.2,13.3 C21.6,13.3 32.5,4.8 32.5,-4 C32.5,-9.9 27.5,-13.2 21.3,-13.2 C11.6,-13.2 0,-5 0,4.2"/>
<path class="Note" transform="matrix(0.992,0,0,0.992,2023.89,758.198)" d="M0,4.2 C0,8.5 3.1,13.3 11.2,13.3 C21.6,13.3 32.5,4.8 32.5,-4 C32.5,-9.9 27.5,-13.2 21.3,-13.2 C11.6,-13.2 0,-5 0,4.2"/>
<path class="Note" transform="matrix(0.992,0,0,0.992,913.87,1911.4)" d="M0,4.2 C0,8.5 3.1,13.3 11.2,13.3 C21.6,13.3 32.5,4.8 32.5,-4 C32.5,-9.9 27.5,-13.2 21.3,-13.2 C11.6,-13.2 0,-5 0,4.2"/>
<path class="Note" transform="matrix(0.992,0,0,0.992,999.629,1378.2)" d="M0,4.2 C0,8.5 3.1,13.3 11.2,13.3 C21.6,13.3 32.5,4.8 32.5,-4 C32.5,-9.9 27.5,-13.2 21.3,-13.2 C11.6,-13.2 0,-5 0,4.2"/>
<path class="Note" transform="matrix(0.992,0,0,0.992,995.323,1923.8)" d="M0,4.2 C0,8.5 3.1,13.3 11.2,13.3 C21.6,13.3 32.5,4.8 32.5,-4 C32.5,-9.9 27.5,-13.2 21.3,-13.2 C11.6,-13.2 0,-5 0,4.2"/>
<path class="Note" transform="matrix(0.992,0,0,0.992,2409.74,745.798)" d="M0,4.2 C0,8.5 3.1,13.3 11.2,13.3 C21.6,13.3 32.5,4.8 32.5,-4 C32.5,-9.9 27.5,-13.2 21.3,-13.2 C11.6,-13.2 0,-5 0,4.2"/>
<path class="Note" transform="matrix(0.992,0,0,0.992,726.582,720.998)" d="M0,4.2 C0,8.5 3.1,13.3 11.2,13.3 C21.6,13.3 32.5,4.8 32.5,-4 C32.5,-9.9 27.5,-13.2 21.3,-13.2 C11.6,-13.2 0,-5 0,4.2"/>
<path class="Note" transform="matrix(0.992,0,0,0.992,2041.9,1961)" d="M0,4.2 C0,8.5 3.1,13.3 11.2,13.3 C21.6,13.3 32.5,4.8 32.5,-4 C32.5,-9.9 27.5,-13.2 21.3,-13.2 C11.6,-13.2 0,-5 0,4.2"/>
<path class="Note" transform="matrix(0.992,0,0,0.992,944.836,1378.2)" d="M0,4.2 C0,8.5 3.1,13.3 11.2,13.3 C21.6,13.3 32.5,4.8 32.5,-4 C32.5,-9.9 27.5,-13.2 21.3,-13.2 C11.6,-13.2 0,-5 0,4.2"/>
<path class="Note" transform="matrix(0.992,0,0,0.992,1322.68,745.798)" d="M0,4.2 C0,8.5 3.1,13.3 11.2,13.3 C21.6,13.3 32.5,4.8 32.5,-4 C32.5,-9.9 27.5,-13.2 21.3,-13.2 C11.6,-13.2 0,-5 0,4.2"/>
<path class="Note" transform="matrix(0.992,0,0,0.992,656.503,745.798)" d="M0,4.2 C0,8.5 3.1,13.3 11.2,13.3 C21.6,13.3 32.5,4.8 32.5,-4 C32.5,-9.9 27.5,-13.2 21.3,-13.2 C11.6,-13.2 0,-5 0,4.2"/>
<path class="Note" transform="matrix(0.992,0,0,0.992,549.275,1403)" d="M0,4.2 C0,8.5 3.1,13.3 11.2,13.3 C21.6,13.3 32.5,4.8 32.5,-4 C32.5,-9.9 27.5,-13.2 21.3,-13.2 C11.6,-13.2 0,-5 0,4.2"/>
<path class="Note" transform="matrix(0.992,0,0,0.992,2093.97,758.198)" d="M0,4.2 C0,8.5 3.1,13.3 11.2,13.3 C21.6,13.3 32.5,4.8 32.5,-4 C32.5,-9.9 27.5,-13.2 21.3,-13.2 C11.6,-13.2 0,-5 0,4.2"/>
<path class="Note" transform="matrix(0.992,0,0,0.992,1223.77,1923.8)" d="M0,4.2 C0,8.5 3.1,13.3 11.2,13.3 C21.6,13.3 32.5,4.8 32.5,-4 C32.5,-9.9 27.5,-13.2 21.3,-13.2 C11.6,-13.2 0,-5 0,4.2"/>
<path class="Note" transform="matrix(0.992,0,0,0.992,1987.6,1961)" d="M0,4.2 C0,8.5 3.1,13.3 11.2,13.3 C21.6,13.3 32.5,4.8 32.5,-4 C32.5,-9.9 27.5,-13.2 21.3,-13.2 C11.6,-13.2 0,-5 0,4.2"/>
<path class="Note" transform="matrix(0.992,0,0,0.992,604.068,1378.2)" d="M0,4.2 C0,8.5 3.1,13.3 11.2,13.3 C21.6,13.3 32.5,4.8 32.5,-4 C32.5,-9.9 27.5,-13.2 21.3,-13.2 C11.6,-13.2 0,-5 0,4.2"/>
<path class="Note" transform="matrix(0.992,0,0,0.992,873.334,1365.8)" d="M0,4.2 C0,8.5 3.1,13.3 11.2,13.3 C21.6,13.3 32.5,4.8 32.5,-4 C32.5,-9.9 27.5,-13.2 21.3,-13.2 C11.6,-13.2 0,-5 0,4.2"/>
<path class="Note" transform="matrix(0.992,0,0,0.992,1295.07,1936.2)" d="M0,4.2 C0,8.5 3.1,13.3 11.2,13.3 C21.6,13.3 32.5,4.8 32.5,-4 C32.5,-9.9 27.5,-13.2 21.3,-13.2 C11.6,-13.2 0,-5 0,4.2"/>
<path class="Note" transform="matrix(0.992,0,0,0.992,2199.51,745.798)" d="M0,4.2 C0,8.5 3.1,13.3 11.2,13.3 C21.6,13.3 32.5,4.8 32.5,-4 C32.5,-9.9 27.5,-13.2 21.3,-13.2 C11.6,-13.2 0,-5 0,4.2"/>
<path class="Note" transform="matrix(0.992,0,0,0.992,1903.76,1961)" d="M0,4.2 C0,8.5 3.1,13.3 11.2,13.3 C21.6,13.3 32.5,4.8 32.5,-4 C32.5,-9.9 27.5,-13.2 21.3,-13.2 C11.6,-13.2 0,-5 0,4.2"/>
<path class="Note" transform="matrix(0.992,0,0,0.992,1339.7,1923.8)" d="M0,4.2 C0,8.5 3.1,13.3 11.2,13.3 C21.6,13.3 32.5,4.8 32.5,-4 C32.5,-9.9 27.5,-13.2 21.3,-13.2 C11.6,-13.2 0,-5 0,4.2"/>
<path class="Note" transform="matrix(0.992,0,0,0.992,768.445,1378.2)" d="M0,4.2 C0,8.5 3.1,13.3 11.2,13.3 C21.6,13.3 32.5,4.8 32.5,-4 C32.5,-9.9 27.5,-13.2 21.3,-13.2 C11.6,-13.2 0,-5 0,4.2"/>
<path class="Note" transform="matrix(0.992,0,0,0.992,1403.76,1923.8)" d="M0,4.2 C0,8.5 3.1,13.3 11.2,13.3 C21.6,13.3 32.5,4.8 32.5,-4 C32.5,-9.9 27.5,-13.2 21.3,-13.2 C11.6,-13.2 0,-5 0,4.2"/>
<path class="Note" transform="matrix(0.992,0,0,0.992,481.306,745.798)" d="M0,4.2 C0,8.5 3.1,13.3 11.2,13.3 C21.6,13.3 32.5,4.8 32.5,-4 C32.5,-9.9 27.5,-13.2 21.3,-13.2 C11.6,-13.2 0,-5 0,4.2"/>
<path class="Note" transform="matrix(0.992,0,0,0.992,1786.84,1899)" d="M0,4.2 C0,8.5 3.1,13.3 11.2,13.3 C21.6,13.3 32.5,4.8 32.5,-4 C32.5,-9.9 27.5,-13.2 21.3,-13.2 C11.6,-13.2 0,-5 0,4.2"/>
<path class="Note" transform="matrix(0.992,0,0,0.992,586.424,720.998)" d="M0,4.2 C0,8.5 3.1,13.3 11.2,13.3 C21.6,13.3 32.5,4.8 32.5,-4 C32.5,-9.9 27.5,-13.2 21.3,-13.2 C11.6,-13.2 0,-5 0,4.2"/>
<path class="Note" transform="matrix(0.992,0,0,0.992,713.653,1378.2)" d="M0,4.2 C0,8.5 3.1,13.3 11.2,13.3 C21.6,13.3 32.5,4.8 32.5,-4 C32.5,-9.9 27.5,-13.2 21.3,-13.2 C11.6,-13.2 0,-5 0,4.2"/>
<path class="Note" transform="matrix(0.992,0,0,0.992,2339.67,745.798)" d="M0,4.2 C0,8.5 3.1,13.3 11.2,13.3 C21.6,13.3 32.5,4.8 32.5,-4 C32.5,-9.9 27.5,-13.2 21.3,-13.2 C11.6,-13.2 0,-5 0,4.2"/>
<path class="Note" transform="matrix(0.992,0,0,0.992,2269.59,745.798)" d="M0,4.2 C0,8.5 3.1,13.3 11.2,13.3 C21.6,13.3 32.5,4.8 32.5,-4 C32.5,-9.9 27.5,-13.2 21.3,-13.2 C11.6,-13.2 0,-5 0,4.2"/>
<path class="Note" transform="matrix(0.992,0,0,0.992,1623.93,1923.8)" d="M0,4.2 C0,8.5 3.1,13.3 11.2,13.3 C21.6,13.3 32.5,4.8 32.5,-4 C32.5,-9.9 27.5,-13.2 21.3,-13.2 C11.6,-13.2 0,-5 0,4.2"/>
<path class="Note" transform="matrix(0.992,0,0,0.992,658.86,1403)" d="M0,4.2 C0,8.5 3.1,13.3 11.2,13.3 C21.6,13.3 32.5,4.8 32.5,-4 C32.5,-9.9 27.5,-13.2 21.3,-13.2 C11.6,-13.2 0,-5 0,4.2"/>
<path class="Note" transform="matrix(0.992,0,0,0.992,1120.52,1923.8)" d="M0,4.2 C0,8.5 3.1,13.3 11.2,13.3 C21.6,13.3 32.5,4.8 32.5,-4 C32.5,-9.9 27.5,-13.2 21.3,-13.2 C11.6,-13.2 0,-5 0,4.2"/>
<path class="Note" transform="matrix(0.992,0,0,0.992,1903.76,1911.4)" d="M18.7,-13.6 C4.9,-13.6 0,-6.6 0,-0.1 C0,6.4 4.9,13.4 18.7,13.4 C32.5,13.4 37.3,6.4 37.3,-0.1 C37.3,-6.6 32.5,-13.6 18.7,-13.6 M23.8,9.6 C22.6,10 21,10.2 19.5,10.2 C16.7,10.2 14.8,9.4 13.5,6.9 C12.2,4.4 10.4,-2 10.3,-4.7 C10.1,-7.4 11.1,-9 13.5,-9.8 C14.7,-10.2 16.3,-10.4 17.8,-10.4 C20.6,-10.4 22.4,-9.8 23.8,-7.1 C25.2,-4.4 27,2 27,4.5 C27,7.1 26.2,8.9 23.8,9.6"/>
<path class="Note" transform="matrix(0.992,0,0,0.992,2321.72,1911.4)" d="M18.7,-13.6 C4.9,-13.6 0,-6.6 0,-0.1 C0,6.4 4.9,13.4 18.7,13.4 C32.5,13.4 37.3,6.4 37.3,-0.1 C37.3,-6.6 32.5,-13.6 18.7,-13.6 M23.8,9.6 C22.6,10 21,10.2 19.5,10.2 C16.7,10.2 14.8,9.4 13.5,6.9 C12.2,4.4 10.4,-2 10.3,-4.7 C10.1,-7.4 11.1,-9 13.5,-9.8 C14.7,-10.2 16.3,-10.4 17.8,-10.4 C20.6,-10.4 22.4,-9.8 23.8,-7.1 C25.2,-4.4 27,2 27,4.5 C27,7.1 26.2,8.9 23.8,9.6"/>
<path class="Note" transform="matrix(0.992,0,0,0.992,2677.07,1961)" d="M0,4.2 C0,8.5 3.1,13.3 11.2,13.3 C21.6,13.3 32.5,4.8 32.5,-4 C32.5,-9.9 27.5,-13.2 21.3,-13.2 C11.6,-13.2 0,-5 0,4.2"/>
<path class="Clef" transform="matrix(0.992,0,0,0.992,231.198,708.598)" d="M56.2,2.1 C56.2,9.2 53.3,16.5 46.2,19.4 C44.1,7.4 41.4,-8.5 40.7,-12.9 C49.7,-12.9 56.2,-6.8 56.2,2.1 M42,20.6 C40,21 38.1,21.2 36.2,21.2 C21.9,21.2 9.7,11.2 9.7,-3.9 C9.7,-16.1 18.3,-27 27.1,-34.6 C28.8,-36.1 30.4,-37.5 31.9,-39 C32.8,-33.6 33.5,-28.9 34.2,-24.8 C25.1,-22.1 18.9,-12.5 18.9,-3.1 C18.9,3.9 24.4,13.5 32.4,13.5 C33.2,13.5 34.1,13.1 34.1,12.2 C34.1,11.3 33.1,10.8 31.9,10 C28,7.6 25.8,5 25.8,0.1 C25.8,-6 30.3,-10.9 36.2,-12.3 L42,20.6 M33.2,-82.2 C34.1,-86.2 38.7,-96.7 43.9,-96.7 C45.4,-96.7 47.8,-91.8 47.8,-84.9 C47.8,-74.5 40.1,-66.7 33.2,-59.9 C32.6,-63.9 32.1,-67.8 32.1,-72 C32.1,-75.7 32.4,-79.1 33.2,-82.2 M12.2,51.3 C12.2,57.9 17.3,66.6 30.8,66.6 C35.5,66.6 39.6,65.4 43.2,63.2 C48.6,59.4 50,52.8 50,46.5 C50,42.6 49.4,38.1 48.4,32.4 C48.1,30.4 47.5,27.4 46.9,23.5 C56.7,20.3 64,10.1 64,-0.2 C64,-15.3 53.3,-25.5 38.7,-25.5 C37.7,-31.5 36.7,-37.4 35.8,-43 C46.4,-54.1 53.7,-66.6 53.7,-82.5 C53.7,-91.6 50.9,-99 49.3,-102.6 C46.9,-107.7 44,-111.2 42.2,-111.2 C41.5,-111.2 38.4,-110 35.1,-106.1 C28.7,-98.5 26.9,-85.7 26.9,-77.3 C26.9,-71.9 27.4,-67 29.1,-55.8 C29,-55.7 23.8,-50.4 21.7,-48.7 C12.6,-40.2 0,-28.1 0,-8.1 C0,10.6 16.3,25.3 34.9,25.3 C37.8,25.3 40.5,25 42.8,24.6 C44.7,34.2 45.8,41.2 45.8,46.5 C45.8,56.9 40.5,62.4 30.4,62.4 C28,62.4 25.9,61.9 25.7,61.9 C25.6,61.8 25.4,61.7 25.4,61.6 C25.4,61.4 25.6,61.3 25.9,61.2 C30.6,60.5 35.3,56.5 35.3,50.1 C35.3,44.7 31.2,39 23.7,39 C16.7,39 12.2,44.7 12.2,51.3"/>
<path class="Clef" transform="matrix(0.992,0,0,0.992,231.198,1316.2)" d="M56.2,2.1 C56.2,9.2 53.3,16.5 46.2,19.4 C44.1,7.4 41.4,-8.5 40.7,-12.9 C49.7,-12.9 56.2,-6.8 56.2,2.1 M42,20.6 C40,21 38.1,21.2 36.2,21.2 C21.9,21.2 9.7,11.2 9.7,-3.9 C9.7,-16.1 18.3,-27 27.1,-34.6 C28.8,-36.1 30.4,-37.5 31.9,-39 C32.8,-33.6 33.5,-28.9 34.2,-24.8 C25.1,-22.1 18.9,-12.5 18.9,-3.1 C18.9,3.9 24.4,13.5 32.4,13.5 C33.2,13.5 34.1,13.1 34.1,12.2 C34.1,11.3 33.1,10.8 31.9,10 C28,7.6 25.8,5 25.8,0.1 C25.8,-6 30.3,-10.9 36.2,-12.3 L42,20.6 M33.2,-82.2 C34.1,-86.2 38.7,-96.7 43.9,-96.7 C45.4,-96.7 47.8,-91.8 47.8,-84.9 C47.8,-74.5 40.1,-66.7 33.2,-59.9 C32.6,-63.9 32.1,-67.8 32.1,-72 C32.1,-75.7 32.4,-79.1 33.2,-82.2 M12.2,51.3 C12.2,57.9 17.3,66.6 30.8,66.6 C35.5,66.6 39.6,65.4 43.2,63.2 C48.6,59.4 50,52.8 50,46.5 C50,42.6 49.4,38.1 48.4,32.4 C48.1,30.4 47.5,27.4 46.9,23.5 C56.7,20.3 64,10.1 64,-0.2 C64,-15.3 53.3,-25.5 38.7,-25.5 C37.7,-31.5 36.7,-37.4 35.8,-43 C46.4,-54.1 53.7,-66.6 53.7,-82.5 C53.7,-91.6 50.9,-99 49.3,-102.6 C46.9,-107.7 44,-111.2 42.2,-111.2 C41.5,-111.2 38.4,-110 35.1,-106.1 C28.7,-98.5 26.9,-85.7 26.9,-77.3 C26.9,-71.9 27.4,-67 29.1,-55.8 C29,-55.7 23.8,-50.4 21.7,-48.7 C12.6,-40.2 0,-28.1 0,-8.1 C0,10.6 16.3,25.3 34.9,25.3 C37.8,25.3 40.5,25 42.8,24.6 C44.7,34.2 45.8,41.2 45.8,46.5 C45.8,56.9 40.5,62.4 30.4,62.4 C28,62.4 25.9,61.9 25.7,61.9 C25.6,61.8 25.4,61.7 25.4,61.6 C25.4,61.4 25.6,61.3 25.9,61.2 C30.6,60.5 35.3,56.5 35.3,50.1 C35.3,44.7 31.2,39 23.7,39 C16.7,39 12.2,44.7 12.2,51.3"/>
<path class="Clef" transform="matrix(0.992,0,0,0.992,231.198,1923.8)" d="M56.2,2.1 C56.2,9.2 53.3,16.5 46.2,19.4 C44.1,7.4 41.4,-8.5 40.7,-12.9 C49.7,-12.9 56.2,-6.8 56.2,2.1 M42,20.6 C40,21 38.1,21.2 36.2,21.2 C21.9,21.2 9.7,11.2 9.7,-3.9 C9.7,-16.1 18.3,-27 27.1,-34.6 C28.8,-36.1 30.4,-37.5 31.9,-39 C32.8,-33.6 33.5,-28.9 34.2,-24.8 C25.1,-22.1 18.9,-12.5 18.9,-3.1 C18.9,3.9 24.4,13.5 32.4,13.5 C33.2,13.5 34.1,13.1 34.1,12.2 C34.1,11.3 33.1,10.8 31.9,10 C28,7.6 25.8,5 25.8,0.1 C25.8,-6 30.3,-10.9 36.2,-12.3 L42,20.6 M33.2,-82.2 C34.1,-86.2 38.7,-96.7 43.9,-96.7 C45.4,-96.7 47.8,-91.8 47.8,-84.9 C47.8,-74.5 40.1,-66.7 33.2,-59.9 C32.6,-63.9 32.1,-67.8 32.1,-72 C32.1,-75.7 32.4,-79.1 33.2,-82.2 M12.2,51.3 C12.2,57.9 17.3,66.6 30.8,66.6 C35.5,66.6 39.6,65.4 43.2,63.2 C48.6,59.4 50,52.8 50,46.5 C50,42.6 49.4,38.1 48.4,32.4 C48.1,30.4 47.5,27.4 46.9,23.5 C56.7,20.3 64,10.1 64,-0.2 C64,-15.3 53.3,-25.5 38.7,-25.5 C37.7,-31.5 36.7,-37.4 35.8,-43 C46.4,-54.1 53.7,-66.6 53.7,-82.5 C53.7,-91.6 50.9,-99 49.3,-102.6 C46.9,-107.7 44,-111.2 42.2,-111.2 C41.5,-111.2 38.4,-110 35.1,-106.1 C28.7,-98.5 26.9,-85.7 26.9,-77.3 C26.9,-71.9 27.4,-67 29.1,-55.8 C29,-55.7 23.8,-50.4 21.7,-48.7 C12.6,-40.2 0,-28.1 0,-8.1 C0,10.6 16.3,25.3 34.9,25.3 C37.8,25.3 40.5,25 42.8,24.6 C44.7,34.2 45.8,41.2 45.8,46.5 C45.8,56.9 40.5,62.4 30.4,62.4 C28,62.4 25.9,61.9 25.7,61.9 C25.6,61.8 25.4,61.7 25.4,61.6 C25.4,61.4 25.6,61.3 25.9,61.2 C30.6,60.5 35.3,56.5 35.3,50.1 C35.3,44.7 31.2,39 23.7,39 C16.7,39 12.2,44.7 12.2,51.3"/>
<path class="KeySig" transform="matrix(0.992,0,0,0.992,313.271,1899)" d="M20.1,-7.9 C19.5,-11.8 17.1,-15.5 12,-15.5 C7,-15.5 4.1,-12.4 3.6,-11.8 L4,-43.9 C4,-44.7 3.4,-45.3 2.6,-45.3 L1.4,-45.3 C0.6,-45.3 0,-44.7 0,-43.9 L0.5,16.2 C0.5,17 1.1,17.6 1.9,17.6 C2.1,17.6 2.5,17.5 2.7,17.4 C3.1,17.2 9.6,14 15,7.9 C18.8,3.6 20.3,-1.3 20.3,-5.4 C20.3,-6.3 20.2,-7.1 20.1,-7.9 M13.2,-4 C13.2,-2.5 12.8,2.1 10.3,5.9 C8.6,8.5 5.2,11.2 3.3,12.7 L3.6,-6.8 C3.8,-7.7 5.3,-10.6 9.3,-10.6 C12.9,-10.6 13.2,-7.2 13.2,-5.1 C13.2,-4.6 13.2,-4.3 13.2,-4"/>
<path class="KeySig" transform="matrix(0.992,0,0,0.992,340.845,1861.8)" d="M20.1,-7.9 C19.5,-11.8 17.1,-15.5 12,-15.5 C7,-15.5 4.1,-12.4 3.6,-11.8 L4,-43.9 C4,-44.7 3.4,-45.3 2.6,-45.3 L1.4,-45.3 C0.6,-45.3 0,-44.7 0,-43.9 L0.5,16.2 C0.5,17 1.1,17.6 1.9,17.6 C2.1,17.6 2.5,17.5 2.7,17.4 C3.1,17.2 9.6,14 15,7.9 C18.8,3.6 20.3,-1.3 20.3,-5.4 C20.3,-6.3 20.2,-7.1 20.1,-7.9 M13.2,-4 C13.2,-2.5 12.8,2.1 10.3,5.9 C8.6,8.5 5.2,11.2 3.3,12.7 L3.6,-6.8 C3.8,-7.7 5.3,-10.6 9.3,-10.6 C12.9,-10.6 13.2,-7.2 13.2,-5.1 C13.2,-4.6 13.2,-4.3 13.2,-4"/>
<path class="KeySig" transform="matrix(0.992,0,0,0.992,313.271,683.798)" d="M20.1,-7.9 C19.5,-11.8 17.1,-15.5 12,-15.5 C7,-15.5 4.1,-12.4 3.6,-11.8 L4,-43.9 C4,-44.7 3.4,-45.3 2.6,-45.3 L1.4,-45.3 C0.6,-45.3 0,-44.7 0,-43.9 L0.5,16.2 C0.5,17 1.1,17.6 1.9,17.6 C2.1,17.6 2.5,17.5 2.7,17.4 C3.1,17.2 9.6,14 15,7.9 C18.8,3.6 20.3,-1.3 20.3,-5.4 C20.3,-6.3 20.2,-7.1 20.1,-7.9 M13.2,-4 C13.2,-2.5 12.8,2.1 10.3,5.9 C8.6,8.5 5.2,11.2 3.3,12.7 L3.6,-6.8 C3.8,-7.7 5.3,-10.6 9.3,-10.6 C12.9,-10.6 13.2,-7.2 13.2,-5.1 C13.2,-4.6 13.2,-4.3 13.2,-4"/>
<path class="KeySig" transform="matrix(0.992,0,0,0.992,340.845,646.598)" d="M20.1,-7.9 C19.5,-11.8 17.1,-15.5 12,-15.5 C7,-15.5 4.1,-12.4 3.6,-11.8 L4,-43.9 C4,-44.7 3.4,-45.3 2.6,-45.3 L1.4,-45.3 C0.6,-45.3 0,-44.7 0,-43.9 L0.5,16.2 C0.5,17 1.1,17.6 1.9,17.6 C2.1,17.6 2.5,17.5 2.7,17.4 C3.1,17.2 9.6,14 15,7.9 C18.8,3.6 20.3,-1.3 20.3,-5.4 C20.3,-6.3 20.2,-7.1 20.1,-7.9 M13.2,-4 C13.2,-2.5 12.8,2.1 10.3,5.9 C8.6,8.5 5.2,11.2 3.3,12.7 L3.6,-6.8 C3.8,-7.7 5.3,-10.6 9.3,-10.6 C12.9,-10.6 13.2,-7.2 13.2,-5.1 C13.2,-4.6 13.2,-4.3 13.2,-4"/>
<path class="KeySig" transform="matrix(0.992,0,0,0.992,313.271,1291.4)" d="M20.1,-7.9 C19.5,-11.8 17.1,-15.5 12,-15.5 C7,-15.5 4.1,-12.4 3.6,-11.8 L4,-43.9 C4,-44.7 3.4,-45.3 2.6,-45.3 L1.4,-45.3 C0.6,-45.3 0,-44.7 0,-43.9 L0.5,16.2 C0.5,17 1.1,17.6 1.9,17.6 C2.1,17.6 2.5,17.5 2.7,17.4 C3.1,17.2 9.6,14 15,7.9 C18.8,3.6 20.3,-1.3 20.3,-5.4 C20.3,-6.3 20.2,-7.1 20.1,-7.9 M13.2,-4 C13.2,-2.5 12.8,2.1 10.3,5.9 C8.6,8.5 5.2,11.2 3.3,12.7 L3.6,-6.8 C3.8,-7.7 5.3,-10.6 9.3,-10.6 C12.9,-10.6 13.2,-7.2 13.2,-5.1 C13.2,-4.6 13.2,-4.3 13.2,-4"/>
<path class="KeySig" transform="matrix(0.992,0,0,0.992,340.845,1254.2)" d="M20.1,-7.9 C19.5,-11.8 17.1,-15.5 12,-15.5 C7,-15.5 4.1,-12.4 3.6,-11.8 L4,-43.9 C4,-44.7 3.4,-45.3 2.6,-45.3 L1.4,-45.3 C0.6,-45.3 0,-44.7 0,-43.9 L0.5,16.2 C0.5,17 1.1,17.6 1.9,17.6 C2.1,17.6 2.5,17.5 2.7,17.4 C3.1,17.2 9.6,14 15,7.9 C18.8,3.6 20.3,-1.3 20.3,-5.4 C20.3,-6.3 20.2,-7.1 20.1,-7.9 M13.2,-4 C13.2,-2.5 12.8,2.1 10.3,5.9 C8.6,8.5 5.2,11.2 3.3,12.7 L3.6,-6.8 C3.8,-7.7 5.3,-10.6 9.3,-10.6 C12.9,-10.6 13.2,-7.2 13.2,-5.1 C13.2,-4.6 13.2,-4.3 13.2,-4"/>
<path class="TimeSig" transform="matrix(0.992,0,0,0.992,385.78,683.798)" d="M32.5,-17.9 C30,-16.3 28.2,-13.4 28.2,-10.2 C28.2,-9.8 28.2,-9.4 28.3,-9 C28.8,-4.9 32.1,-1.7 36.2,-1.2 C36.5,-1.2 37,-1.2 37.3,-1.2 C42.3,-1.2 46.3,-5.2 46.3,-10.2 C46.3,-10.2 46.3,-10.5 46.3,-10.8 C46.3,-11.2 46.2,-11.9 46.1,-12.3 C45.2,-16.6 41.3,-25.8 24.3,-25.8 C2.5,-25.8 0,-7.7 0,-1.2 C0,10.7 1.5,25.6 26.5,25.6 C36.4,25.6 44.1,19.8 44.5,9.1 C44.5,8.6 44.2,8.3 43.7,8.3 L42.4,8.3 C42,8.3 41.6,8.7 41.6,9.1 C41.2,17.4 35.3,22.4 26.5,22.4 C17.8,22.4 13.6,17.7 13.6,8.9 L13.6,-10.2 C13.6,-15.8 15.8,-22.2 24.7,-22.2 C29.4,-22.2 31.5,-20.5 32.6,-18.8 C32.7,-18.6 32.7,-18.5 32.7,-18.3 C32.7,-18.2 32.7,-18 32.5,-17.9"/>
<path class="Rest" transform="matrix(0.992,0,0,0.992,1542.48,1899)" d="M23,16.6 C22.9,16.5 22.7,16.3 22.4,15.9 L10.9,1.7 C10.8,1.6 10.7,1.3 10.7,1.1 C10.7,0.8 10.8,0.4 10.9,0.2 L21.1,-15.2 C21.2,-15.4 21.3,-15.7 21.3,-15.9 L21.3,-16.8 C21.3,-17.1 21.2,-17.4 21,-17.6 L4.8,-39.5 C4.8,-39.5 4.4,-40.1 3.8,-40.1 C3.5,-40.1 3.3,-40 3,-39.8 C2.6,-39.5 2.5,-39.1 2.5,-38.8 C2.5,-38.2 2.8,-37.7 2.8,-37.7 L10.4,-27.3 C10.6,-27 10.7,-26.6 10.7,-26.1 C10.7,-25.7 10.6,-25.2 10.4,-24.9 L0.3,-9.5 C0.2,-9.3 0.1,-8.9 0.1,-8.7 L0.1,-7.8 C0.1,-7.5 0.2,-7.2 0.4,-7 L11.6,6.9 C11.2,6.8 10.3,6.6 9.1,6.6 C7.4,6.6 5.2,7 3.4,8.6 C1.2,10.6 0,13.4 0,15.9 C0,17.3 0.3,18.7 1.1,19.8 C3.2,23 10.7,32.5 10.7,32.5 C10.7,32.5 11.2,33.1 11.9,33.1 C12.1,33.1 12.3,33.1 12.5,32.9 C13,32.5 13.2,32.1 13.2,31.7 C13.2,31.3 13,31 12.9,30.8 C12.6,30.3 9.4,24.5 9.4,24.5 C9.4,24.5 8.7,23.1 8.7,21.3 C8.7,20 9.1,18.4 10.4,17.1 C11.6,15.9 13,15.5 14.3,15.5 C15.6,15.5 16.7,15.9 17.5,16.4 L21.4,18.9 C21.4,18.9 21.8,19.1 22.2,19.1 C22.6,19.1 22.9,19 23.2,18.6 C23.4,18.2 23.5,18 23.5,17.7 C23.5,17.4 23.4,17.2 23.2,16.9 L23,16.6 "/>
<path class="Rest" transform="matrix(0.992,0,0,0.992,2514.17,1874.2)" d="M26.7,-20.3 C26.6,-20.3 26.4,-20.4 26.3,-20.4 C25.7,-20.4 25.2,-20.1 25,-19.6 C24.6,-19 21.5,-13.1 17,-9.8 C15.7,-8.8 14.1,-8.1 12.5,-7.8 C13.6,-9.1 14.3,-10.7 14.3,-12.6 C14.3,-16.5 11.1,-19.7 7.2,-19.7 C3.2,-19.7 0,-16.5 0,-12.6 C0,-9.5 1.9,-7 4.5,-5.9 C6,-5.2 8,-4.7 10,-4.7 C12.9,-4.7 16,-5.6 18.7,-7.6 C19.9,-8.5 21.1,-9.7 22.2,-10.9 L10.8,24.7 L13.5,25.5 L27.5,-18.6 C27.6,-18.7 27.6,-18.9 27.6,-19.1 C27.6,-19.6 27.3,-20 26.7,-20.3"/>
<path class="Rest" transform="matrix(0.992,0,0,0.992,2096.2,1874.2)" d="M26.7,-20.3 C26.6,-20.3 26.4,-20.4 26.3,-20.4 C25.7,-20.4 25.2,-20.1 25,-19.6 C24.6,-19 21.5,-13.1 17,-9.8 C15.7,-8.8 14.1,-8.1 12.5,-7.8 C13.6,-9.1 14.3,-10.7 14.3,-12.6 C14.3,-16.5 11.1,-19.7 7.2,-19.7 C3.2,-19.7 0,-16.5 0,-12.6 C0,-9.5 1.9,-7 4.5,-5.9 C6,-5.2 8,-4.7 10,-4.7 C12.9,-4.7 16,-5.6 18.7,-7.6 C19.9,-8.5 21.1,-9.7 22.2,-10.9 L10.8,24.7 L13.5,25.5 L27.5,-18.6 C27.6,-18.7 27.6,-18.9 27.6,-19.1 C27.6,-19.6 27.3,-20 26.7,-20.3"/>
<path class="Beam" fill-rule="evenodd" d="M944.836,1434 L1002.11,1434 L1002.11,1446.4 L944.836,1446.4 L944.836,1434 "/>
<path class="Beam" fill-rule="evenodd" d="M2598.21,1874.2 L2709.3,1874.2 L2709.3,1886.6 L2598.21,1886.6 L2598.21,1874.2 "/>
<path class="Beam" fill-rule="evenodd" d="M1127.21,1446.36 L1239.27,1458.76 L1239.27,1471.24 L1127.21,1458.84 L1127.21,1446.36 "/>
<path class="Beam" fill-rule="evenodd" d="M1913.47,646.588 L2126.19,658.988 L2126.19,671.409 L1913.47,659.009 L1913.47,646.588 "/>
<path class="Beam" fill-rule="evenodd" d="M1352.42,652.796 L1565.14,658.996 L1565.14,671.401 L1352.42,665.201 L1352.42,652.796 "/>
<path class="Beam" fill-rule="evenodd" d="M616.169,646.576 L688.728,652.776 L688.728,665.221 L616.169,659.021 L616.169,646.576 "/>
<path class="Beam" fill-rule="evenodd" d="M1804.07,1291.4 L1970.92,1291.4 L1970.92,1303.8 L1804.07,1303.8 L1804.07,1291.4 "/>
<path class="Beam" fill-rule="evenodd" d="M1987.6,2016.8 L2044.38,2016.8 L2044.38,2029.2 L1987.6,2029.2 L1987.6,2016.8 "/>
<path class="Beam" fill-rule="evenodd" d="M1253.52,1843.2 L1371.92,1843.2 L1371.92,1855.6 L1253.52,1855.6 L1253.52,1843.2 "/>
<path class="Beam" fill-rule="evenodd" d="M1773.32,646.576 L1845.88,652.776 L1845.88,665.221 L1773.32,659.021 L1773.32,646.576 "/>
<path class="Beam" fill-rule="evenodd" d="M1142.18,658.998 L1284.82,658.998 L1284.82,671.398 L1142.18,671.398 L1142.18,658.998 "/>
<path class="Beam" fill-rule="evenodd" d="M2509.57,652.796 L2722.28,658.996 L2722.28,671.401 L2509.57,665.201 L2509.57,652.796 "/>
<path class="Beam" fill-rule="evenodd" d="M2551.54,1235.6 L2601.69,1235.6 L2601.69,1248 L2551.54,1248 L2551.54,1235.6 "/>
<path class="Beam" fill-rule="evenodd" d="M2435.31,1874.2 L2492.09,1874.2 L2492.09,1886.6 L2435.31,1886.6 L2435.31,1874.2 "/>
<path class="Beam" fill-rule="evenodd" d="M2229.25,658.998 L2441.97,658.998 L2441.97,671.398 L2229.25,671.398 L2229.25,658.998 "/>
<path class="Beam" fill-rule="evenodd" d="M1442.93,1285.15 L1494.5,1278.95 L1494.5,1291.44 L1442.93,1297.64 L1442.93,1285.15 "/>
<path class="Beam" fill-rule="evenodd" d="M756.326,634.198 L969.042,634.198 L969.042,646.598 L756.326,646.598 L756.326,634.198 "/>
<path class="Beam" fill-rule="evenodd" d="M633.812,1291.4 L800.67,1291.4 L800.67,1303.8 L633.812,1303.8 L633.812,1291.4 "/>
<path class="Beam" fill-rule="evenodd" d="M524.227,1278.85 L581.5,1291.25 L581.5,1303.94 L524.227,1291.54 L524.227,1278.85 "/>
<path class="Marker" d="M2039.95,1152.49 L2007.23,1152.49 L2007.23,1155.07 L2008.22,1155.07 C2011.35,1155.13 2012.4,1155.29 2012.84,1155.84 C2013.17,1156.34 2013.17,1156.45 2013.17,1159.25 L2013.17,1185.43 C2013.17,1188.24 2013.17,1188.35 2012.84,1188.84 C2012.4,1189.39 2011.35,1189.61 2008.22,1189.61 L2007.23,1189.61 L2007.23,1192.2 L2026.09,1192.2 L2026.09,1189.61 L2024.28,1189.61 C2021.14,1189.61 2020.1,1189.39 2019.66,1188.84 C2019.33,1188.35 2019.33,1188.18 2019.33,1185.43 L2019.33,1172.95 L2020.43,1172.95 C2026.09,1172.73 2028.13,1174.76 2028.35,1180.87 L2030.93,1180.87 L2030.93,1162.83 L2028.35,1162.83 C2028.02,1168.22 2025.87,1170.31 2020.65,1170.36 L2019.33,1170.36 L2019.33,1157.82 C2019.27,1155.51 2019.82,1155.13 2022.79,1155.07 L2025.32,1155.07 C2034.34,1155.02 2036.6,1157.05 2038.3,1166.51 L2040.72,1166.51 L2039.95,1152.49 M2051.86,1152.87 C2050.1,1152.87 2048.67,1154.3 2048.67,1156.06 C2048.67,1157.82 2050.1,1159.25 2051.81,1159.25 C2053.62,1159.25 2055.05,1157.82 2055.05,1156.06 C2055.05,1154.3 2053.62,1152.87 2051.86,1152.87 M2054.45,1166.57 L2044.11,1167.17 L2044.11,1169.54 L2046.91,1169.54 C2049,1169.59 2049.28,1169.92 2049.28,1172.29 L2049.28,1188.02 C2049.22,1188.84 2049.17,1189.17 2048.95,1189.45 C2048.56,1189.94 2047.52,1190.16 2045.15,1190.22 L2044.77,1190.22 L2044.77,1192.2 L2059.01,1192.2 L2059.01,1190.22 L2058.63,1190.22 C2054.94,1190.11 2054.45,1189.83 2054.45,1187.85 L2054.45,1166.57 M2071.43,1166.57 L2061.92,1167.17 L2061.92,1169.54 L2063.9,1169.54 C2065.99,1169.59 2066.26,1169.92 2066.26,1172.29 L2066.26,1188.02 C2066.21,1188.84 2066.15,1189.17 2065.93,1189.45 C2065.55,1189.94 2064.5,1190.16 2062.14,1190.22 L2061.92,1190.22 L2061.92,1192.2 L2075.83,1192.2 L2075.83,1190.22 L2075.61,1190.22 C2071.93,1190.11 2071.43,1189.83 2071.43,1187.85 L2071.43,1179.71 C2071.43,1177.02 2071.82,1174.54 2072.42,1173.28 C2073.58,1170.8 2076.05,1169.1 2078.42,1169.1 C2079.85,1169.1 2081.5,1169.87 2082.32,1171.02 C2083.15,1172.23 2083.53,1173.88 2083.53,1176.52 L2083.53,1188.02 C2083.48,1188.84 2083.42,1189.17 2083.2,1189.45 C2082.82,1189.94 2081.72,1190.16 2079.35,1190.22 L2079.13,1190.22 L2079.13,1192.2 L2093.05,1192.2 L2093.05,1190.22 L2092.83,1190.22 C2089.2,1190.11 2088.7,1189.83 2088.7,1187.85 L2088.7,1176.8 C2088.7,1172.84 2088.54,1171.85 2087.55,1169.98 C2086.17,1167.34 2083.42,1165.74 2080.12,1165.74 C2076.55,1165.74 2073.85,1167.39 2071.43,1171.02 L2071.43,1166.57 M2119.6,1179.82 C2119.65,1171.57 2114.98,1165.74 2108.27,1165.74 C2101.23,1165.74 2095.95,1171.85 2095.95,1180.1 C2095.95,1187.85 2100.95,1193.02 2108.38,1193.02 C2113.66,1193.02 2117.34,1190.44 2119.6,1185.21 L2117.67,1184.17 C2115.42,1188.4 2113.11,1190.05 2109.42,1190.05 C2106.62,1190.05 2104.58,1188.9 2103.15,1186.42 C2102.16,1184.77 2101.72,1182.85 2101.78,1179.82 L2119.6,1179.82 M2101.83,1177.46 C2101.83,1173.61 2103.59,1168.11 2108.21,1168.11 C2111.51,1168.11 2113.71,1171.02 2113.71,1175.48 C2113.71,1177.02 2113.22,1177.46 2111.46,1177.46 L2101.83,1177.46 "/>
<path class="Jump" d="M2461.49,1799.8 L2479.97,1799.8 C2484.86,1799.8 2488.6,1799.03 2491.52,1797.38 C2497.07,1794.24 2500.15,1787.97 2500.15,1779.72 C2500.15,1772.13 2497.4,1766.19 2492.34,1762.89 C2489.32,1760.97 2485.25,1760.09 2478.98,1760.09 L2461.49,1760.09 L2461.49,1762.67 L2462.53,1762.67 C2465.61,1762.73 2466.66,1762.89 2467.1,1763.44 C2467.43,1763.94 2467.43,1764.05 2467.43,1766.85 L2467.43,1793.03 C2467.43,1795.84 2467.43,1795.95 2467.1,1796.44 C2466.66,1796.99 2465.61,1797.16 2462.53,1797.21 L2461.49,1797.21 L2461.49,1799.8 M2476.72,1797.21 C2473.92,1797.21 2473.59,1796.88 2473.59,1794.19 L2473.59,1765.75 C2473.59,1763.06 2473.97,1762.67 2476.72,1762.67 L2479.58,1762.67 C2488.99,1762.67 2492.89,1767.79 2492.89,1779.94 C2492.89,1792.26 2489.37,1797.21 2480.46,1797.21 L2476.72,1797.21 M2510.21,1793.69 C2508.29,1793.69 2506.75,1795.23 2506.75,1797.1 C2506.75,1799.03 2508.29,1800.57 2510.16,1800.57 C2512.08,1800.57 2513.62,1799.03 2513.62,1797.1 C2513.62,1795.23 2512.08,1793.69 2510.21,1793.69 M2553.1,1759.7 L2551.01,1759.7 L2548.81,1762.95 C2544.8,1760.03 2542.76,1759.26 2538.97,1759.26 C2533.74,1759.26 2529.29,1761.46 2525.6,1765.86 C2522.08,1770.04 2520.43,1774.66 2520.43,1780.33 C2520.43,1792.21 2528.19,1800.62 2539.02,1800.62 C2547.82,1800.62 2553.43,1795.45 2554.7,1786.21 L2552.11,1785.77 C2550.63,1793.97 2546.45,1798.04 2539.68,1798.04 C2531.54,1798.04 2527.69,1792.43 2527.69,1780.55 C2527.69,1774.28 2528.52,1770.15 2530.39,1766.85 C2532.09,1763.77 2535.45,1761.85 2539.02,1761.85 C2542.87,1761.85 2546.28,1763.88 2548.37,1767.4 C2549.42,1769.22 2550.19,1771.25 2551.51,1775.6 L2553.93,1775.6 L2553.1,1759.7 M2564.91,1793.69 C2562.99,1793.69 2561.45,1795.23 2561.45,1797.1 C2561.45,1799.03 2562.99,1800.57 2564.86,1800.57 C2566.78,1800.57 2568.32,1799.03 2568.32,1797.1 C2568.32,1795.23 2566.78,1793.69 2564.91,1793.69 M2612.8,1782.09 C2612.8,1778.62 2612.2,1776.86 2610.6,1775.54 C2608.79,1774.06 2606.09,1773.34 2602.57,1773.34 C2596.36,1773.34 2591.85,1776.26 2591.85,1780.27 C2591.85,1782.31 2593.11,1783.63 2595.04,1783.63 C2596.8,1783.63 2598.01,1782.47 2598.01,1780.82 C2598.01,1780.11 2597.73,1779.34 2597.18,1778.57 C2596.85,1778.18 2596.8,1778.07 2596.8,1777.8 C2596.8,1776.7 2599,1775.71 2601.64,1775.71 C2603.4,1775.71 2605.32,1776.26 2606.2,1777.08 C2607.25,1777.96 2607.63,1779.28 2607.63,1781.76 L2607.63,1783.9 C2601.91,1784.89 2600.1,1785.33 2597.4,1786.38 C2592.62,1788.14 2590.36,1790.67 2590.36,1794.19 C2590.36,1798.15 2593.44,1800.62 2598.34,1800.62 C2602.13,1800.62 2605.54,1799.08 2607.91,1796.28 C2608.79,1799.08 2610.16,1800.18 2612.75,1800.18 C2615.22,1800.18 2617.81,1798.59 2617.81,1796.99 C2617.81,1796.61 2617.59,1796.33 2617.26,1796.33 C2617.04,1796.33 2616.82,1796.39 2616.43,1796.55 C2615.66,1796.88 2615.33,1796.94 2614.89,1796.94 C2613.35,1796.94 2612.8,1795.95 2612.8,1793.14 L2612.8,1782.09 M2607.63,1788.8 C2607.63,1792.1 2607.47,1792.87 2606.53,1794.3 C2605.16,1796.33 2602.68,1797.71 2600.26,1797.71 C2597.73,1797.71 2595.92,1795.89 2595.92,1793.42 C2595.92,1791.11 2597.07,1789.46 2599.49,1788.3 C2601.2,1787.53 2603.34,1786.98 2607.63,1786.27 L2607.63,1788.8 M2629.74,1759.26 L2619.56,1759.87 L2619.56,1762.23 L2622.26,1762.23 C2624.29,1762.29 2624.57,1762.62 2624.57,1764.98 L2624.57,1795.62 C2624.51,1796.44 2624.46,1796.77 2624.24,1797.05 C2623.85,1797.54 2622.81,1797.76 2620.44,1797.82 L2620.06,1797.82 L2620.06,1799.8 L2634.3,1799.8 L2634.3,1797.82 L2633.92,1797.82 C2630.23,1797.71 2629.74,1797.43 2629.74,1795.45 L2629.74,1759.26 M2685.43,1760.09 L2652.71,1760.09 L2652.71,1762.67 L2653.7,1762.67 C2656.83,1762.73 2657.88,1762.89 2658.32,1763.44 C2658.65,1763.94 2658.65,1764.05 2658.65,1766.85 L2658.65,1793.03 C2658.65,1795.84 2658.65,1795.95 2658.32,1796.44 C2657.88,1796.99 2656.83,1797.21 2653.7,1797.21 L2652.71,1797.21 L2652.71,1799.8 L2671.57,1799.8 L2671.57,1797.21 L2669.76,1797.21 C2666.62,1797.21 2665.58,1796.99 2665.14,1796.44 C2664.81,1795.95 2664.81,1795.78 2664.81,1793.03 L2664.81,1780.55 L2665.91,1780.55 C2671.57,1780.33 2673.61,1782.36 2673.83,1788.47 L2676.41,1788.47 L2676.41,1770.43 L2673.83,1770.43 C2673.5,1775.82 2671.35,1777.91 2666.13,1777.96 L2664.81,1777.96 L2664.81,1765.42 C2664.75,1763.11 2665.3,1762.73 2668.27,1762.67 L2670.8,1762.67 C2679.82,1762.62 2682.08,1764.65 2683.78,1774.11 L2686.2,1774.11 L2685.43,1760.09 M2697.34,1760.47 C2695.58,1760.47 2694.15,1761.9 2694.15,1763.66 C2694.15,1765.42 2695.58,1766.85 2697.29,1766.85 C2699.1,1766.85 2700.53,1765.42 2700.53,1763.66 C2700.53,1761.9 2699.1,1760.47 2697.34,1760.47 M2699.93,1774.17 L2689.59,1774.77 L2689.59,1777.14 L2692.39,1777.14 C2694.48,1777.19 2694.76,1777.52 2694.76,1779.89 L2694.76,1795.62 C2694.7,1796.44 2694.65,1796.77 2694.43,1797.05 C2694.04,1797.54 2693,1797.76 2690.63,1797.82 L2690.25,1797.82 L2690.25,1799.8 L2704.49,1799.8 L2704.49,1797.82 L2704.11,1797.82 C2700.42,1797.71 2699.93,1797.43 2699.93,1795.45 L2699.93,1774.17 M2716.91,1774.17 L2707.39,1774.77 L2707.39,1777.14 L2709.37,1777.14 C2711.46,1777.19 2711.74,1777.52 2711.74,1779.89 L2711.74,1795.62 C2711.68,1796.44 2711.63,1796.77 2711.41,1797.05 C2711.02,1797.54 2709.98,1797.76 2707.61,1797.82 L2707.39,1797.82 L2707.39,1799.8 L2721.31,1799.8 L2721.31,1797.82 L2721.09,1797.82 C2717.4,1797.71 2716.91,1797.43 2716.91,1795.45 L2716.91,1787.31 C2716.91,1784.62 2717.29,1782.14 2717.9,1780.88 C2719.05,1778.4 2721.53,1776.7 2723.89,1776.7 C2725.32,1776.7 2726.97,1777.47 2727.8,1778.62 C2728.62,1779.83 2729.01,1781.48 2729.01,1784.12 L2729.01,1795.62 C2728.95,1796.44 2728.9,1796.77 2728.68,1797.05 C2728.29,1797.54 2727.19,1797.76 2724.83,1797.82 L2724.61,1797.82 L2724.61,1799.8 L2738.52,1799.8 L2738.52,1797.82 L2738.3,1797.82 C2734.67,1797.71 2734.18,1797.43 2734.18,1795.45 L2734.18,1784.4 C2734.18,1780.44 2734.01,1779.45 2733.02,1777.58 C2731.65,1774.94 2728.9,1773.34 2725.6,1773.34 C2722.02,1773.34 2719.33,1774.99 2716.91,1778.62 L2716.91,1774.17 M2765.08,1787.42 C2765.13,1779.17 2760.46,1773.34 2753.75,1773.34 C2746.71,1773.34 2741.43,1779.45 2741.43,1787.7 C2741.43,1795.45 2746.43,1800.62 2753.86,1800.62 C2759.14,1800.62 2762.82,1798.04 2765.08,1792.81 L2763.15,1791.77 C2760.9,1796 2758.59,1797.65 2754.9,1797.65 C2752.1,1797.65 2750.06,1796.5 2748.63,1794.02 C2747.64,1792.37 2747.2,1790.45 2747.26,1787.42 L2765.08,1787.42 M2747.31,1785.06 C2747.31,1781.21 2749.07,1775.71 2753.69,1775.71 C2756.99,1775.71 2759.19,1778.62 2759.19,1783.08 C2759.19,1784.62 2758.7,1785.06 2756.94,1785.06 L2747.31,1785.06 "/>
<path class="Tuplet" d="M1315.44,1811.32 C1317.55,1810.64 1318.41,1810.28 1319.49,1809.56 C1321.6,1808.17 1322.91,1805.69 1322.91,1803.17 C1322.91,1798.9 1319.49,1796.02 1314.45,1796.02 C1309.54,1796.02 1305.4,1799.08 1305.4,1802.77 C1305.4,1804.61 1306.53,1805.87 1308.24,1805.87 C1309.72,1805.87 1310.8,1804.79 1310.8,1803.31 C1310.8,1802.54 1310.58,1802 1309.86,1801.28 C1309.41,1800.88 1309.23,1800.56 1309.23,1800.25 C1309.23,1799.17 1311.48,1798.04 1313.59,1798.04 C1316.61,1798.04 1318.41,1799.71 1318.41,1802.5 C1318.41,1806.5 1315.57,1810.28 1312.56,1810.28 C1312.42,1810.28 1312.02,1810.24 1311.52,1810.19 C1310.22,1810.1 1310.22,1810.1 1309.95,1810.1 C1308.96,1810.1 1308.42,1810.55 1308.42,1811.36 C1308.42,1812.08 1308.91,1812.53 1309.72,1812.53 C1309.95,1812.53 1310.26,1812.49 1310.62,1812.44 C1311.25,1812.31 1311.93,1812.26 1312.33,1812.26 C1314.45,1812.26 1315.89,1814.15 1315.89,1816.94 C1315.89,1821.8 1313.5,1826.48 1308.06,1826.48 C1305.54,1826.48 1303.38,1825.22 1303.38,1823.78 C1303.38,1823.29 1303.56,1823.11 1304.28,1822.79 C1305.58,1822.21 1306.12,1821.4 1306.12,1820.18 C1306.12,1818.61 1304.86,1817.39 1303.24,1817.39 C1301.31,1817.39 1300.05,1818.92 1300.05,1821.26 C1300.05,1825.63 1303.38,1828.37 1308.78,1828.37 C1315.57,1828.37 1320.75,1823.83 1320.75,1817.8 C1320.75,1814.29 1318.59,1812.31 1315.44,1811.32"/>
<path class="Tempo" d="M292.097,496.62 L288.83,496.62 L288.83,538.893 C287.741,538.2 286.355,537.804 284.771,537.606 C281.207,537.606 278.336,538.002 275.168,539.784 C271.208,541.863 266.852,546.219 266.852,551.07 C266.852,552.159 267.05,553.248 267.644,554.238 C268.931,556.713 272,558.099 275.465,558.099 C282.395,558.099 292.097,552.159 292.097,544.635 L292.097,496.62 "/>
<path class="Tempo" d="M314.349,534.576 L344.589,534.576 L344.589,527.676 L314.349,527.676 L314.349,534.576 M314.349,546.936 L344.589,546.936 L344.589,540.036 L314.349,540.036 L314.349,546.936 M387.127,509.976 L385.027,509.976 C381.247,512.796 376.987,513.996 369.847,514.116 L369.847,517.476 L372.367,517.476 C377.707,517.476 377.767,517.596 377.707,522.516 L377.707,543.816 C377.707,547.536 377.707,547.716 377.287,548.316 C376.747,548.976 375.547,549.216 372.307,549.216 L370.387,549.216 L370.387,552.456 L394.327,552.456 L394.327,549.216 L392.407,549.216 C389.227,549.216 388.087,548.976 387.547,548.316 C387.127,547.716 387.127,547.476 387.127,543.816 L387.127,509.976 M421.564,509.976 L419.464,509.976 C415.684,512.796 411.424,513.996 404.284,514.116 L404.284,517.476 L406.804,517.476 C412.144,517.476 412.204,517.596 412.144,522.516 L412.144,543.816 C412.144,547.536 412.144,547.716 411.724,548.316 C411.184,548.976 409.984,549.216 406.744,549.216 L404.824,549.216 L404.824,552.456 L428.764,552.456 L428.764,549.216 L426.844,549.216 C423.664,549.216 422.524,548.976 421.984,548.316 C421.564,547.716 421.564,547.476 421.564,543.816 L421.564,509.976 M450.962,509.976 C441.962,509.976 435.362,519.156 435.362,531.636 C435.362,544.116 441.962,553.296 450.962,553.296 C459.782,553.296 466.502,544.116 466.502,531.936 C466.502,524.856 464.882,519.636 461.342,515.196 C458.522,511.776 454.982,509.976 450.962,509.976 M450.902,513.096 C452.702,513.096 454.142,514.176 454.802,516.096 C455.582,518.076 456.062,524.376 456.062,531.816 C456.062,537.996 455.582,544.476 455.042,546.516 C454.382,548.916 452.942,550.176 450.902,550.176 C449.042,550.176 447.662,549.156 446.942,547.176 C446.162,545.196 445.682,538.836 445.682,531.636 C445.682,525.336 446.162,518.796 446.702,516.756 C447.362,514.356 448.802,513.096 450.902,513.096"/>
<path class="NoteDot" transform="matrix(0.992,0,0,0.992,2194.47,1303.8)" d="M0,0 C0,2.8 2.2,5 5,5 C7.8,5 10,2.8 10,0 C10,-2.8 7.8,-5 5,-5 C2.2,-5 0,-2.8 0,0"/>
<path class="NoteDot" transform="matrix(0.992,0,0,0.992,1165.14,1911.4)" d="M0,0 C0,2.8 2.2,5 5,5 C7.8,5 10,2.8 10,0 C10,-2.8 7.8,-5 5,-5 C2.2,-5 0,-2.8 0,0"/>
<path class="NoteDot" transform="matrix(0.992,0,0,0.992,1448.38,1911.4)" d="M0,0 C0,2.8 2.2,5 5,5 C7.8,5 10,2.8 10,0 C10,-2.8 7.8,-5 5,-5 C2.2,-5 0,-2.8 0,0"/>
<path class="NoteDot" transform="matrix(0.992,0,0,0.992,467.604,1911.4)" d="M0,0 C0,2.8 2.2,5 5,5 C7.8,5 10,2.8 10,0 C10,-2.8 7.8,-5 5,-5 C2.2,-5 0,-2.8 0,0"/>
</svg>
