<?xml version="1.0" encoding="UTF-8" standalone="no"?>
<svg width="210.058mm" height="296.926mm" viewBox="0 0 2977.2 4208.4"
 xmlns="http://www.w3.org/2000/svg" xmlns:xlink="http://www.w3.org/1999/xlink" version="1.2" baseProfile="full">
<title>春の小川</title>
<desc>Generated by MuseScore Studio 4.5.2</desc>
<path class="" fill="#ffffff" fill-rule="evenodd" d="M0,0 L2977.2,0 L2977.2,4208.4 L0,4208.4 L0,0 "/>
<polyline class="StaffLines" fill="none" stroke="#000000" stroke-width="2.73" stroke-linejoin="bevel" points="212.598,634.199 2764.6,634.199" />
<polyline class="StaffLines" fill="none" stroke="#000000" stroke-width="2.73" stroke-linejoin="bevel" points="212.598,658.999 2764.6,658.999" />
<polyline class="StaffLines" fill="none" stroke="#000000" stroke-width="2.73" stroke-linejoin="bevel" points="212.598,683.799 2764.6,683.799" />
<polyline class="StaffLines" fill="none" stroke="#000000" stroke-width="2.73" stroke-linejoin="bevel" points="212.598,708.599 2764.6,708.599" />
<polyline class="StaffLines" fill="none" stroke="#000000" stroke-width="2.73" stroke-linejoin="bevel" points="212.598,733.399 2764.6,733.399" />
<polyline class="StaffLines" fill="none" stroke="#000000" stroke-width="2.73" stroke-linejoin="bevel" points="212.598,1105.4 2764.6,1105.4" />
<polyline class="StaffLines" fill="none" stroke="#000000" stroke-width="2.73" stroke-linejoin="bevel" points="212.598,1130.2 2764.6,1130.2" />
<polyline class="StaffLines" fill="none" stroke="#000000" stroke-width="2.73" stroke-linejoin="bevel" points="212.598,1155 2764.6,1155" />
<polyline class="StaffLines" fill="none" stroke="#000000" stroke-width="2.73" stroke-linejoin="bevel" points="212.598,1179.8 2764.6,1179.8" />
<polyline class="StaffLines" fill="none" stroke="#000000" stroke-width="2.73" stroke-linejoin="bevel" points="212.598,1204.6 2764.6,1204.6" />
<polyline class="StaffLines" fill="none" stroke="#000000" stroke-width="2.73" stroke-linejoin="bevel" points="212.598,1576.6 2764.6,1576.6" />
<polyline class="StaffLines" fill="none" stroke="#000000" stroke-width="2.73" stroke-linejoin="bevel" points="212.598,1601.4 2764.6,1601.4" />
<polyline class="StaffLines" fill="none" stroke="#000000" stroke-width="2.73" stroke-linejoin="bevel" points="212.598,1626.2 2764.6,1626.2" />
<polyline class="StaffLines" fill="none" stroke="#000000" stroke-width="2.73" stroke-linejoin="bevel" points="212.598,1651 2764.6,1651" />
<polyline class="StaffLines" fill="none" stroke="#000000" stroke-width="2.73" stroke-linejoin="bevel" points="212.598,1675.8 2764.6,1675.8" />
<path class="Text" d="M1300.28,301.922 C1300.28,307.862 1300.17,310.612 1299.62,313.472 L1306.99,313.472 L1306.99,308.522 L1349.23,308.522 L1349.23,313.142 L1356.71,313.142 C1356.16,310.392 1356.05,307.642 1356.05,301.372 L1356.05,274.862 C1362.43,280.582 1367.16,284.102 1375.96,289.492 C1377.72,286.412 1377.83,286.192 1380.47,283.332 C1367.27,276.732 1357.92,269.692 1349.56,259.792 L1365.18,259.792 C1369.91,259.792 1373.43,260.012 1377.17,260.452 L1377.17,253.192 C1374.31,253.632 1370.9,253.852 1365.18,253.852 L1345.05,253.852 C1342.63,250.332 1341.86,248.902 1339.22,243.512 L1355.06,243.512 C1361.55,243.512 1363.75,243.622 1366.5,243.952 L1366.5,237.242 C1363.86,237.572 1361.66,237.682 1355.06,237.682 L1324.92,237.682 C1326.13,234.272 1326.79,231.852 1327.56,228.992 L1359.02,228.992 C1364.3,228.992 1367.6,229.102 1370.9,229.542 L1370.9,222.392 C1367.93,222.832 1364.52,223.052 1358.8,223.052 L1328.99,223.052 C1329.43,220.742 1329.43,220.632 1329.76,219.092 C1330.42,215.572 1330.64,214.692 1330.97,213.372 L1323.27,212.602 C1323.27,213.152 1323.27,213.592 1323.27,213.922 C1323.27,216.122 1322.94,218.762 1322.17,223.052 L1298.52,223.052 C1293.02,223.052 1289.39,222.832 1286.53,222.392 L1286.53,229.542 C1289.83,229.102 1293.13,228.992 1298.3,228.992 L1320.85,228.992 C1319.86,232.622 1319.42,234.272 1318.1,237.682 L1302.04,237.682 C1295.88,237.682 1293.57,237.572 1291.04,237.242 L1291.04,243.952 C1293.68,243.622 1295.99,243.512 1302.04,243.512 L1315.68,243.512 C1313.92,247.472 1312.49,250.112 1310.29,253.852 L1292.47,253.852 C1286.42,253.852 1283.01,253.632 1280.15,253.192 L1280.15,260.452 C1283.89,260.012 1287.41,259.792 1292.47,259.792 L1306.33,259.792 C1303.36,263.642 1300.28,266.942 1295.77,271.012 C1289.5,276.622 1285.21,279.592 1277.07,283.992 C1279.27,285.862 1280.15,286.852 1281.91,289.602 C1289.72,284.542 1294.23,280.912 1300.28,275.192 L1300.28,301.922 M1305.89,269.472 C1309.08,265.952 1310.95,263.642 1313.7,259.792 L1342.08,259.792 C1344.83,263.532 1346.81,265.842 1350.44,269.472 L1305.89,269.472 M1317.44,253.852 C1319.64,250.002 1320.85,247.582 1322.61,243.512 L1332.62,243.512 C1335.15,248.792 1336.03,250.552 1338.01,253.852 L1317.44,253.852 M1306.99,275.192 L1349.23,275.192 L1349.23,285.422 L1306.99,285.422 L1306.99,275.192 M1306.99,291.032 L1349.23,291.032 L1349.23,302.692 L1306.99,302.692 L1306.99,291.032 "/>
<path class="Text" d="M1444.6,232.512 C1450.1,232.732 1453.29,233.502 1457.36,235.262 C1468.47,240.212 1474.85,250.332 1474.85,262.872 C1474.85,276.402 1467.48,288.172 1455.38,293.672 C1450.21,296.092 1445.04,297.522 1437.01,298.842 C1439.1,301.482 1439.76,302.582 1440.86,306.212 C1448.45,304.562 1452.63,303.242 1457.58,301.152 C1473.53,294.332 1482.77,280.252 1482.77,263.202 C1482.77,252.642 1479.03,243.072 1472.1,236.362 C1464.95,229.322 1454.17,225.472 1441.85,225.472 C1427.11,225.472 1415.12,230.422 1406.32,240.102 C1398.95,248.352 1394.77,259.242 1394.77,270.462 C1394.77,285.862 1402.58,297.302 1413.03,297.302 C1420.95,297.302 1427.44,290.702 1433.82,276.182 C1438.77,264.632 1442.95,247.802 1444.6,232.512 M1436.68,232.622 C1435.25,246.702 1431.18,262.982 1426.67,273.322 C1421.94,284.102 1417.54,289.272 1412.92,289.272 C1406.98,289.272 1402.36,281.132 1402.36,270.572 C1402.36,256.932 1409.18,244.502 1420.29,237.792 C1425.35,234.712 1430.08,233.172 1436.68,232.622"/>
<path class="Text" d="M1544.26,215.462 C1544.7,218.652 1544.92,221.842 1544.92,226.572 L1544.92,301.592 C1544.92,303.792 1543.93,304.342 1539.97,304.342 C1535.57,304.342 1530.73,303.792 1523.69,302.472 C1524.9,305.662 1525.34,307.202 1525.67,310.612 C1531.94,311.162 1536.34,311.382 1540.85,311.382 C1549.98,311.382 1552.51,309.402 1552.51,302.362 L1552.51,226.682 C1552.51,221.732 1552.73,218.432 1553.17,215.462 L1544.26,215.462 M1570,241.642 C1570.33,242.522 1570.33,242.522 1570.77,243.842 C1574.29,254.952 1575.94,260.562 1576.05,260.672 C1581.22,275.082 1585.4,283.112 1594.75,295.652 C1596.62,293.452 1598.16,292.132 1601.02,290.152 C1593.54,280.912 1588.92,272.992 1584.63,262.212 C1580.45,251.872 1578.69,245.822 1577.81,239.442 L1570,241.642 M1517.64,240.102 C1517.31,244.502 1516.21,250.002 1514.34,256.602 C1510.27,270.792 1505.76,279.812 1497.29,290.812 C1500.04,292.132 1501.8,293.342 1504,295.322 C1513.24,282.232 1518.3,270.902 1522.59,254.182 C1524.9,245.162 1525.23,243.842 1525.78,242.082 L1517.64,240.102 M1629.62,225.582 C1629.62,220.412 1629.73,218.322 1630.28,215.572 L1621.48,215.572 C1621.92,218.762 1622.14,221.072 1622.14,225.362 L1622.14,247.032 C1622.14,278.712 1618.4,293.452 1606.96,306.102 C1609.82,308.082 1611.14,309.292 1613.23,311.932 C1625.55,295.982 1629.62,280.032 1629.62,247.362 L1629.62,225.582 M1656.02,220.082 C1656.46,222.722 1656.68,225.472 1656.68,230.422 L1656.68,288.612 C1656.68,294.442 1656.46,297.852 1656.02,301.042 L1664.82,301.042 C1664.38,297.962 1664.16,294.442 1664.16,288.612 L1664.16,230.422 C1664.16,226.132 1664.38,223.272 1664.82,220.082 L1656.02,220.082 M1691.55,215.902 C1692.1,218.982 1692.21,221.402 1692.21,226.572 L1692.21,298.182 C1692.21,304.892 1691.99,308.632 1691.55,311.932 L1700.35,311.932 C1699.8,308.412 1699.69,305.112 1699.69,298.182 L1699.69,226.572 C1699.69,221.292 1699.8,218.982 1700.35,215.902 L1691.55,215.902 "/>
<path class="MeasureNumber" d="M228.958,1498.68 L227.798,1498.68 C225.598,1500.32 221.358,1501.72 218.478,1501.72 L217.998,1503.48 L220.758,1503.48 C223.198,1503.48 223.478,1503.56 223.478,1504.28 C223.478,1504.64 223.478,1504.64 223.078,1506.08 L218.798,1522.08 C218.278,1524.08 218.238,1524.2 217.878,1524.56 C217.478,1524.96 216.638,1525.08 214.518,1525.12 L212.798,1525.12 L212.598,1527 L227.398,1527 L227.638,1525.12 L225.478,1525.12 C222.878,1525.12 222.318,1524.92 222.318,1524.04 C222.318,1523.76 222.478,1522.84 222.678,1522.08 L228.958,1498.68 M250.233,1518.72 L249.193,1520.56 C247.593,1523.32 247.273,1523.56 245.233,1523.6 L235.953,1523.6 C236.913,1522.32 238.673,1520.84 241.873,1518.6 C247.153,1514.96 247.513,1514.72 248.633,1513.84 C251.833,1511.36 253.153,1509 253.153,1505.84 C253.153,1501.64 250.033,1498.84 245.433,1498.84 C240.313,1498.84 235.873,1502.6 235.873,1506.96 C235.873,1509.2 237.073,1510.64 238.993,1510.64 C240.433,1510.64 241.553,1509.56 241.553,1508.08 C241.553,1507.04 241.033,1506.36 239.713,1505.64 C238.753,1505.16 238.593,1504.96 238.593,1504.48 C238.593,1502.76 241.553,1500.84 244.273,1500.84 C247.073,1500.84 248.953,1502.72 248.953,1505.52 C248.953,1508.52 247.633,1510.72 244.033,1513.84 C233.393,1523.08 231.793,1524.76 231.433,1527 L248.593,1527 L251.673,1519.28 L250.233,1518.72 "/>
<path class="MeasureNumber" d="M232.288,1027.64 C230.168,1027.88 227.568,1028.04 225.328,1028.04 C224.208,1028.04 222.928,1028 221.488,1027.92 C220.168,1027.84 218.848,1027.76 217.488,1027.68 L216.488,1027.64 L212.608,1036.08 L214.088,1036.56 L215.048,1034.96 C216.928,1031.84 217.808,1031.4 221.888,1031.44 L228.648,1031.44 L224.288,1037.68 C219.168,1044.88 219.168,1044.88 217.208,1048.08 C215.448,1050.92 214.728,1052.68 214.728,1054.12 C214.728,1055.52 215.608,1056.4 217.008,1056.4 C218.488,1056.4 219.248,1055.68 219.768,1053.8 C221.768,1046.28 222.968,1043.68 228.528,1034.68 L232.288,1028.84 L232.288,1027.64 "/>
<polyline class="BarLine" fill="none" stroke="#000000" stroke-width="4.46" stroke-linejoin="bevel" points="2740.42,1575.24 2740.42,1677.16" />
<polyline class="BarLine" fill="none" stroke="#000000" stroke-width="13.64" stroke-linejoin="bevel" points="2757.78,1575.24 2757.78,1677.16" />
<polyline class="BarLine" fill="none" stroke="#000000" stroke-width="4.46" stroke-linejoin="bevel" points="1570.33,632.835 1570.33,734.763" />
<polyline class="BarLine" fill="none" stroke="#000000" stroke-width="4.46" stroke-linejoin="bevel" points="811.225,1104.04 811.225,1205.96" />
<polyline class="BarLine" fill="none" stroke="#000000" stroke-width="4.46" stroke-linejoin="bevel" points="1172.99,632.835 1172.99,734.763" />
<polyline class="BarLine" fill="none" stroke="#000000" stroke-width="4.46" stroke-linejoin="bevel" points="1786.8,1104.04 1786.8,1205.96" />
<polyline class="BarLine" fill="none" stroke="#000000" stroke-width="4.46" stroke-linejoin="bevel" points="2762.37,1104.04 2762.37,1205.96" />
<polyline class="BarLine" fill="none" stroke="#000000" stroke-width="4.46" stroke-linejoin="bevel" points="1967.68,632.835 1967.68,734.763" />
<polyline class="BarLine" fill="none" stroke="#000000" stroke-width="4.46" stroke-linejoin="bevel" points="2762.37,632.835 2762.37,734.763" />
<polyline class="BarLine" fill="none" stroke="#000000" stroke-width="4.46" stroke-linejoin="bevel" points="1299.01,1104.04 1299.01,1205.96" />
<polyline class="BarLine" fill="none" stroke="#000000" stroke-width="4.46" stroke-linejoin="bevel" points="1290.23,1575.24 1290.23,1677.16" />
<polyline class="BarLine" fill="none" stroke="#000000" stroke-width="4.46" stroke-linejoin="bevel" points="806.836,1575.24 806.836,1677.16" />
<polyline class="BarLine" fill="none" stroke="#000000" stroke-width="4.46" stroke-linejoin="bevel" points="2274.58,1104.04 2274.58,1205.96" />
<polyline class="BarLine" fill="none" stroke="#000000" stroke-width="4.46" stroke-linejoin="bevel" points="2365.02,632.835 2365.02,734.763" />
<polyline class="BarLine" fill="none" stroke="#000000" stroke-width="4.46" stroke-linejoin="bevel" points="1773.63,1575.24 1773.63,1677.16" />
<polyline class="BarLine" fill="none" stroke="#000000" stroke-width="4.46" stroke-linejoin="bevel" points="775.64,632.835 775.64,734.763" />
<polyline class="BarLine" fill="none" stroke="#000000" stroke-width="4.46" stroke-linejoin="bevel" points="2257.03,1575.24 2257.03,1677.16" />
<polyline class="LedgerLine" fill="none" stroke="#000000" stroke-width="3.97" stroke-linejoin="bevel" points="1062.56,1229.4 1112.14,1229.4" />
<polyline class="LedgerLine" fill="none" stroke="#000000" stroke-width="3.97" stroke-linejoin="bevel" points="2506.16,1700.6 2555.75,1700.6" />
<polyline class="LedgerLine" fill="none" stroke="#000000" stroke-width="3.97" stroke-linejoin="bevel" points="1596.12,758.199 1645.71,758.199" />
<polyline class="Stem" fill="none" stroke="#000000" stroke-width="2.73" stroke-linejoin="bevel" points="1467.24,1647.03 1467.24,1564.2" />
<polyline class="Stem" fill="none" stroke="#000000" stroke-width="2.73" stroke-linejoin="bevel" points="614.313,1175.83 614.313,1093" />
<polyline class="Stem" fill="none" stroke="#000000" stroke-width="2.73" stroke-linejoin="bevel" points="983.841,1647.03 983.841,1564.2" />
<polyline class="Stem" fill="none" stroke="#000000" stroke-width="2.73" stroke-linejoin="bevel" points="1852.13,1163.43 1852.13,1086.8" />
<polyline class="Stem" fill="none" stroke="#000000" stroke-width="2.73" stroke-linejoin="bevel" points="1508.8,729.431 1508.8,646.599" />
<polyline class="Stem" fill="none" stroke="#000000" stroke-width="2.73" stroke-linejoin="bevel" points="1964.9,1163.43 1964.9,1086.8" />
<polyline class="Stem" fill="none" stroke="#000000" stroke-width="2.73" stroke-linejoin="bevel" points="2173.98,1671.83 2173.98,1589" />
<polyline class="Stem" fill="none" stroke="#000000" stroke-width="2.73" stroke-linejoin="bevel" points="1328.48,692.231 1328.48,615.599" />
<polyline class="Stem" fill="none" stroke="#000000" stroke-width="2.73" stroke-linejoin="bevel" points="2077.67,1175.83 2077.67,1093" />
<polyline class="Stem" fill="none" stroke="#000000" stroke-width="2.73" stroke-linejoin="bevel" points="1635.66,754.231 1635.66,671.399" />
<polyline class="Stem" fill="none" stroke="#000000" stroke-width="2.73" stroke-linejoin="bevel" points="1238.32,692.231 1238.32,615.599" />
<polyline class="Stem" fill="none" stroke="#000000" stroke-width="2.73" stroke-linejoin="bevel" points="2322.36,1684.23 2322.36,1601.4" />
<polyline class="Stem" fill="none" stroke="#000000" stroke-width="2.73" stroke-linejoin="bevel" points="1702.66,1175.83 1702.66,1093" />
<polyline class="Stem" fill="none" stroke="#000000" stroke-width="2.73" stroke-linejoin="bevel" points="1725.83,741.831 1725.83,658.999" />
<polyline class="Stem" fill="none" stroke="#000000" stroke-width="2.73" stroke-linejoin="bevel" points="1095.51,1634.63 1095.51,1558" />
<polyline class="Stem" fill="none" stroke="#000000" stroke-width="2.73" stroke-linejoin="bevel" points="2062.31,1647.03 2062.31,1564.2" />
<polyline class="Stem" fill="none" stroke="#000000" stroke-width="2.73" stroke-linejoin="bevel" points="1815.99,729.431 1815.99,646.599" />
<polyline class="Stem" fill="none" stroke="#000000" stroke-width="2.73" stroke-linejoin="bevel" points="1589.89,1213.03 1589.89,1130.2" />
<polyline class="Stem" fill="none" stroke="#000000" stroke-width="2.73" stroke-linejoin="bevel" points="1477.11,1200.63 1477.11,1117.8" />
<polyline class="Stem" fill="none" stroke="#000000" stroke-width="2.73" stroke-linejoin="bevel" points="1207.19,1647.03 1207.19,1564.2" />
<polyline class="Stem" fill="none" stroke="#000000" stroke-width="2.73" stroke-linejoin="bevel" points="1950.63,1634.63 1950.63,1558" />
<polyline class="Stem" fill="none" stroke="#000000" stroke-width="2.73" stroke-linejoin="bevel" points="872.168,1671.83 872.168,1589" />
<polyline class="Stem" fill="none" stroke="#000000" stroke-width="2.73" stroke-linejoin="bevel" points="1081.96,675.565 1081.96,751.999" />
<polyline class="Stem" fill="none" stroke="#000000" stroke-width="2.73" stroke-linejoin="bevel" points="2033.01,729.431 2033.01,646.599" />
<polyline class="Stem" fill="none" stroke="#000000" stroke-width="2.73" stroke-linejoin="bevel" points="1364.34,1213.03 1364.34,1130.2" />
<polyline class="Stem" fill="none" stroke="#000000" stroke-width="2.73" stroke-linejoin="bevel" points="2190.44,1163.43 2190.44,1086.8" />
<polyline class="Stem" fill="none" stroke="#000000" stroke-width="2.73" stroke-linejoin="bevel" points="2123.17,704.631 2123.17,621.799" />
<polyline class="Stem" fill="none" stroke="#000000" stroke-width="2.73" stroke-linejoin="bevel" points="991.797,675.565 991.797,751.999" />
<polyline class="Stem" fill="none" stroke="#000000" stroke-width="2.73" stroke-linejoin="bevel" points="1838.96,1634.63 1838.96,1558" />
<polyline class="Stem" fill="none" stroke="#000000" stroke-width="2.73" stroke-linejoin="bevel" points="2213.33,692.231 2213.33,615.599" />
<polyline class="Stem" fill="none" stroke="#000000" stroke-width="2.73" stroke-linejoin="bevel" points="2434.03,1671.83 2434.03,1589" />
<polyline class="Stem" fill="none" stroke="#000000" stroke-width="2.73" stroke-linejoin="bevel" points="931.133,704.631 931.133,621.799" />
<polyline class="Stem" fill="none" stroke="#000000" stroke-width="2.73" stroke-linejoin="bevel" points="2303.49,704.631 2303.49,621.799" />
<polyline class="Stem" fill="none" stroke="#000000" stroke-width="2.73" stroke-linejoin="bevel" points="840.972,729.431 840.972,646.599" />
<polyline class="Stem" fill="none" stroke="#000000" stroke-width="2.73" stroke-linejoin="bevel" points="2545.7,1696.63 2545.7,1613.8" />
<polyline class="Stem" fill="none" stroke="#000000" stroke-width="2.73" stroke-linejoin="bevel" points="2310.42,1146.77 2310.42,1223.2" />
<polyline class="Stem" fill="none" stroke="#000000" stroke-width="2.73" stroke-linejoin="bevel" points="714.108,704.631 714.108,621.799" />
<polyline class="Stem" fill="none" stroke="#000000" stroke-width="2.73" stroke-linejoin="bevel" points="623.947,692.231 623.947,615.599" />
<polyline class="Stem" fill="none" stroke="#000000" stroke-width="2.73" stroke-linejoin="bevel" points="2430.36,729.431 2430.36,646.599" />
<polyline class="Stem" fill="none" stroke="#000000" stroke-width="2.73" stroke-linejoin="bevel" points="1102.1,1225.43 1102.1,1142.6" />
<polyline class="Stem" fill="none" stroke="#000000" stroke-width="2.73" stroke-linejoin="bevel" points="2423.19,1146.77 2423.19,1223.2" />
<polyline class="Stem" fill="none" stroke="#000000" stroke-width="2.73" stroke-linejoin="bevel" points="2520.52,704.631 2520.52,621.799" />
<polyline class="Stem" fill="none" stroke="#000000" stroke-width="2.73" stroke-linejoin="bevel" points="989.328,1200.63 989.328,1117.8" />
<polyline class="Stem" fill="none" stroke="#000000" stroke-width="2.73" stroke-linejoin="bevel" points="1661.09,1617.97 1661.09,1694.4" />
<polyline class="Stem" fill="none" stroke="#000000" stroke-width="2.73" stroke-linejoin="bevel" points="2581.18,675.565 2581.18,751.999" />
<polyline class="Stem" fill="none" stroke="#000000" stroke-width="2.73" stroke-linejoin="bevel" points="2671.34,675.565 2671.34,751.999" />
<polyline class="Stem" fill="none" stroke="#000000" stroke-width="2.73" stroke-linejoin="bevel" points="500.445,1647.03 500.445,1564.2" />
<polyline class="Stem" fill="none" stroke="#000000" stroke-width="2.73" stroke-linejoin="bevel" points="2535.96,1159.17 2535.96,1229.4" />
<polyline class="Stem" fill="none" stroke="#000000" stroke-width="2.73" stroke-linejoin="bevel" points="876.558,1213.03 876.558,1130.2" />
<polyline class="Stem" fill="none" stroke="#000000" stroke-width="2.73" stroke-linejoin="bevel" points="1549.41,1617.97 1549.41,1694.4" />
<polyline class="Stem" fill="none" stroke="#000000" stroke-width="2.73" stroke-linejoin="bevel" points="533.787,704.631 533.787,621.799" />
<polyline class="Stem" fill="none" stroke="#000000" stroke-width="2.73" stroke-linejoin="bevel" points="2678.23,1163.43 2678.23,1086.8" />
<polyline class="Stem" fill="none" stroke="#000000" stroke-width="2.73" stroke-linejoin="bevel" points="612.118,1671.83 612.118,1589" />
<polyline class="Stem" fill="none" stroke="#000000" stroke-width="2.73" stroke-linejoin="bevel" points="443.626,729.431 443.626,646.599" />
<polyline class="Stem" fill="none" stroke="#000000" stroke-width="2.73" stroke-linejoin="bevel" points="388.772,1647.03 388.772,1564.2" />
<polyline class="Stem" fill="none" stroke="#000000" stroke-width="2.73" stroke-linejoin="bevel" points="388.772,1163.43 388.772,1086.8" />
<polyline class="Stem" fill="none" stroke="#000000" stroke-width="2.73" stroke-linejoin="bevel" points="1355.56,1671.83 1355.56,1589" />
<polyline class="Stem" fill="none" stroke="#000000" stroke-width="2.73" stroke-linejoin="bevel" points="727.083,1200.63 727.083,1117.8" />
<polyline class="Stem" fill="none" stroke="#000000" stroke-width="2.73" stroke-linejoin="bevel" points="501.542,1163.43 501.542,1086.8" />
<polyline class="Stem" fill="none" stroke="#000000" stroke-width="2.73" stroke-linejoin="bevel" points="1418.64,704.631 1418.64,621.799" />
<path class="Note" transform="matrix(0.992001,0,0,0.992001,2579.82,671.399)" d="M0,4.2 C0,8.5 3.1,13.3 11.2,13.3 C21.6,13.3 32.5,4.8 32.5,-4 C32.5,-9.9 27.5,-13.2 21.3,-13.2 C11.6,-13.2 0,-5 0,4.2"/>
<path class="Note" transform="matrix(0.992001,0,0,0.992001,2534.6,1155)" d="M0,4.2 C0,8.5 3.1,13.3 11.2,13.3 C21.6,13.3 32.5,4.8 32.5,-4 C32.5,-9.9 27.5,-13.2 21.3,-13.2 C11.6,-13.2 0,-5 0,4.2"/>
<path class="Note" transform="matrix(0.992001,0,0,0.992001,583.452,1179.8)" d="M0,4.2 C0,8.5 3.1,13.3 11.2,13.3 C21.6,13.3 32.5,4.8 32.5,-4 C32.5,-9.9 27.5,-13.2 21.3,-13.2 C11.6,-13.2 0,-5 0,4.2"/>
<path class="Note" transform="matrix(0.992001,0,0,0.992001,1324.7,1675.8)" d="M0,4.2 C0,8.5 3.1,13.3 11.2,13.3 C21.6,13.3 32.5,4.8 32.5,-4 C32.5,-9.9 27.5,-13.2 21.3,-13.2 C11.6,-13.2 0,-5 0,4.2"/>
<path class="Note" transform="matrix(0.992001,0,0,0.992001,1436.38,1651)" d="M0,4.2 C0,8.5 3.1,13.3 11.2,13.3 C21.6,13.3 32.5,4.8 32.5,-4 C32.5,-9.9 27.5,-13.2 21.3,-13.2 C11.6,-13.2 0,-5 0,4.2"/>
<path class="Note" transform="matrix(0.992001,0,0,0.992001,696.223,1204.6)" d="M0,4.2 C0,8.5 3.1,13.3 11.2,13.3 C21.6,13.3 32.5,4.8 32.5,-4 C32.5,-9.9 27.5,-13.2 21.3,-13.2 C11.6,-13.2 0,-5 0,4.2"/>
<path class="Note" transform="matrix(0.992001,0,0,0.992001,357.911,1167.4)" d="M0,4.2 C0,8.5 3.1,13.3 11.2,13.3 C21.6,13.3 32.5,4.8 32.5,-4 C32.5,-9.9 27.5,-13.2 21.3,-13.2 C11.6,-13.2 0,-5 0,4.2"/>
<path class="Note" transform="matrix(0.992001,0,0,0.992001,469.584,1651)" d="M0,4.2 C0,8.5 3.1,13.3 11.2,13.3 C21.6,13.3 32.5,4.8 32.5,-4 C32.5,-9.9 27.5,-13.2 21.3,-13.2 C11.6,-13.2 0,-5 0,4.2"/>
<path class="Note" transform="matrix(0.992001,0,0,0.992001,357.911,1651)" d="M0,4.2 C0,8.5 3.1,13.3 11.2,13.3 C21.6,13.3 32.5,4.8 32.5,-4 C32.5,-9.9 27.5,-13.2 21.3,-13.2 C11.6,-13.2 0,-5 0,4.2"/>
<path class="Note" transform="matrix(0.992001,0,0,0.992001,2669.98,671.399)" d="M0,4.2 C0,8.5 3.1,13.3 11.2,13.3 C21.6,13.3 32.5,4.8 32.5,-4 C32.5,-9.9 27.5,-13.2 21.3,-13.2 C11.6,-13.2 0,-5 0,4.2"/>
<path class="Note" transform="matrix(0.992001,0,0,0.992001,845.697,1217)" d="M0,4.2 C0,8.5 3.1,13.3 11.2,13.3 C21.6,13.3 32.5,4.8 32.5,-4 C32.5,-9.9 27.5,-13.2 21.3,-13.2 C11.6,-13.2 0,-5 0,4.2"/>
<path class="Note" transform="matrix(0.992001,0,0,0.992001,1548.05,1613.8)" d="M0,4.2 C0,8.5 3.1,13.3 11.2,13.3 C21.6,13.3 32.5,4.8 32.5,-4 C32.5,-9.9 27.5,-13.2 21.3,-13.2 C11.6,-13.2 0,-5 0,4.2"/>
<path class="Note" transform="matrix(0.992001,0,0,0.992001,2489.66,708.599)" d="M0,4.2 C0,8.5 3.1,13.3 11.2,13.3 C21.6,13.3 32.5,4.8 32.5,-4 C32.5,-9.9 27.5,-13.2 21.3,-13.2 C11.6,-13.2 0,-5 0,4.2"/>
<path class="Note" transform="matrix(0.992001,0,0,0.992001,958.468,1204.6)" d="M0,4.2 C0,8.5 3.1,13.3 11.2,13.3 C21.6,13.3 32.5,4.8 32.5,-4 C32.5,-9.9 27.5,-13.2 21.3,-13.2 C11.6,-13.2 0,-5 0,4.2"/>
<path class="Note" transform="matrix(0.992001,0,0,0.992001,1659.72,1613.8)" d="M0,4.2 C0,8.5 3.1,13.3 11.2,13.3 C21.6,13.3 32.5,4.8 32.5,-4 C32.5,-9.9 27.5,-13.2 21.3,-13.2 C11.6,-13.2 0,-5 0,4.2"/>
<path class="Note" transform="matrix(0.992001,0,0,0.992001,2399.5,733.399)" d="M0,4.2 C0,8.5 3.1,13.3 11.2,13.3 C21.6,13.3 32.5,4.8 32.5,-4 C32.5,-9.9 27.5,-13.2 21.3,-13.2 C11.6,-13.2 0,-5 0,4.2"/>
<path class="Note" transform="matrix(0.992001,0,0,0.992001,2272.63,708.599)" d="M0,4.2 C0,8.5 3.1,13.3 11.2,13.3 C21.6,13.3 32.5,4.8 32.5,-4 C32.5,-9.9 27.5,-13.2 21.3,-13.2 C11.6,-13.2 0,-5 0,4.2"/>
<path class="Note" transform="matrix(0.992001,0,0,0.992001,1071.24,1229.4)" d="M0,4.2 C0,8.5 3.1,13.3 11.2,13.3 C21.6,13.3 32.5,4.8 32.5,-4 C32.5,-9.9 27.5,-13.2 21.3,-13.2 C11.6,-13.2 0,-5 0,4.2"/>
<path class="Note" transform="matrix(0.992001,0,0,0.992001,412.766,733.399)" d="M0,4.2 C0,8.5 3.1,13.3 11.2,13.3 C21.6,13.3 32.5,4.8 32.5,-4 C32.5,-9.9 27.5,-13.2 21.3,-13.2 C11.6,-13.2 0,-5 0,4.2"/>
<path class="Note" transform="matrix(0.992001,0,0,0.992001,2182.47,696.199)" d="M0,4.2 C0,8.5 3.1,13.3 11.2,13.3 C21.6,13.3 32.5,4.8 32.5,-4 C32.5,-9.9 27.5,-13.2 21.3,-13.2 C11.6,-13.2 0,-5 0,4.2"/>
<path class="Note" transform="matrix(0.992001,0,0,0.992001,1176.33,1651)" d="M0,4.2 C0,8.5 3.1,13.3 11.2,13.3 C21.6,13.3 32.5,4.8 32.5,-4 C32.5,-9.9 27.5,-13.2 21.3,-13.2 C11.6,-13.2 0,-5 0,4.2"/>
<path class="Note" transform="matrix(0.992001,0,0,0.992001,2092.31,708.599)" d="M0,4.2 C0,8.5 3.1,13.3 11.2,13.3 C21.6,13.3 32.5,4.8 32.5,-4 C32.5,-9.9 27.5,-13.2 21.3,-13.2 C11.6,-13.2 0,-5 0,4.2"/>
<path class="Note" transform="matrix(0.992001,0,0,0.992001,1808.1,1638.6)" d="M0,4.2 C0,8.5 3.1,13.3 11.2,13.3 C21.6,13.3 32.5,4.8 32.5,-4 C32.5,-9.9 27.5,-13.2 21.3,-13.2 C11.6,-13.2 0,-5 0,4.2"/>
<path class="Note" transform="matrix(0.992001,0,0,0.992001,2002.15,733.399)" d="M0,4.2 C0,8.5 3.1,13.3 11.2,13.3 C21.6,13.3 32.5,4.8 32.5,-4 C32.5,-9.9 27.5,-13.2 21.3,-13.2 C11.6,-13.2 0,-5 0,4.2"/>
<path class="Note" transform="matrix(0.992001,0,0,0.992001,1333.48,1217)" d="M0,4.2 C0,8.5 3.1,13.3 11.2,13.3 C21.6,13.3 32.5,4.8 32.5,-4 C32.5,-9.9 27.5,-13.2 21.3,-13.2 C11.6,-13.2 0,-5 0,4.2"/>
<path class="Note" transform="matrix(0.992001,0,0,0.992001,2647.37,1167.4)" d="M0,4.2 C0,8.5 3.1,13.3 11.2,13.3 C21.6,13.3 32.5,4.8 32.5,-4 C32.5,-9.9 27.5,-13.2 21.3,-13.2 C11.6,-13.2 0,-5 0,4.2"/>
<path class="Note" transform="matrix(0.992001,0,0,0.992001,1919.77,1638.6)" d="M0,4.2 C0,8.5 3.1,13.3 11.2,13.3 C21.6,13.3 32.5,4.8 32.5,-4 C32.5,-9.9 27.5,-13.2 21.3,-13.2 C11.6,-13.2 0,-5 0,4.2"/>
<path class="Note" transform="matrix(0.992001,0,0,0.992001,1446.25,1204.6)" d="M0,4.2 C0,8.5 3.1,13.3 11.2,13.3 C21.6,13.3 32.5,4.8 32.5,-4 C32.5,-9.9 27.5,-13.2 21.3,-13.2 C11.6,-13.2 0,-5 0,4.2"/>
<path class="Note" transform="matrix(0.992001,0,0,0.992001,1064.65,1638.6)" d="M0,4.2 C0,8.5 3.1,13.3 11.2,13.3 C21.6,13.3 32.5,4.8 32.5,-4 C32.5,-9.9 27.5,-13.2 21.3,-13.2 C11.6,-13.2 0,-5 0,4.2"/>
<path class="Note" transform="matrix(0.992001,0,0,0.992001,1785.13,733.399)" d="M0,4.2 C0,8.5 3.1,13.3 11.2,13.3 C21.6,13.3 32.5,4.8 32.5,-4 C32.5,-9.9 27.5,-13.2 21.3,-13.2 C11.6,-13.2 0,-5 0,4.2"/>
<path class="Note" transform="matrix(0.992001,0,0,0.992001,1559.02,1217)" d="M0,4.2 C0,8.5 3.1,13.3 11.2,13.3 C21.6,13.3 32.5,4.8 32.5,-4 C32.5,-9.9 27.5,-13.2 21.3,-13.2 C11.6,-13.2 0,-5 0,4.2"/>
<path class="Note" transform="matrix(0.992001,0,0,0.992001,1694.96,745.799)" d="M0,4.2 C0,8.5 3.1,13.3 11.2,13.3 C21.6,13.3 32.5,4.8 32.5,-4 C32.5,-9.9 27.5,-13.2 21.3,-13.2 C11.6,-13.2 0,-5 0,4.2"/>
<path class="Note" transform="matrix(0.992001,0,0,0.992001,2031.45,1651)" d="M0,4.2 C0,8.5 3.1,13.3 11.2,13.3 C21.6,13.3 32.5,4.8 32.5,-4 C32.5,-9.9 27.5,-13.2 21.3,-13.2 C11.6,-13.2 0,-5 0,4.2"/>
<path class="Note" transform="matrix(0.992001,0,0,0.992001,1671.8,1179.8)" d="M0,4.2 C0,8.5 3.1,13.3 11.2,13.3 C21.6,13.3 32.5,4.8 32.5,-4 C32.5,-9.9 27.5,-13.2 21.3,-13.2 C11.6,-13.2 0,-5 0,4.2"/>
<path class="Note" transform="matrix(0.992001,0,0,0.992001,952.981,1651)" d="M0,4.2 C0,8.5 3.1,13.3 11.2,13.3 C21.6,13.3 32.5,4.8 32.5,-4 C32.5,-9.9 27.5,-13.2 21.3,-13.2 C11.6,-13.2 0,-5 0,4.2"/>
<path class="Note" transform="matrix(0.992001,0,0,0.992001,1604.8,758.199)" d="M0,4.2 C0,8.5 3.1,13.3 11.2,13.3 C21.6,13.3 32.5,4.8 32.5,-4 C32.5,-9.9 27.5,-13.2 21.3,-13.2 C11.6,-13.2 0,-5 0,4.2"/>
<path class="Note" transform="matrix(0.992001,0,0,0.992001,1477.94,733.399)" d="M0,4.2 C0,8.5 3.1,13.3 11.2,13.3 C21.6,13.3 32.5,4.8 32.5,-4 C32.5,-9.9 27.5,-13.2 21.3,-13.2 C11.6,-13.2 0,-5 0,4.2"/>
<path class="Note" transform="matrix(0.992001,0,0,0.992001,2143.12,1675.8)" d="M0,4.2 C0,8.5 3.1,13.3 11.2,13.3 C21.6,13.3 32.5,4.8 32.5,-4 C32.5,-9.9 27.5,-13.2 21.3,-13.2 C11.6,-13.2 0,-5 0,4.2"/>
<path class="Note" transform="matrix(0.992001,0,0,0.992001,1821.27,1167.4)" d="M0,4.2 C0,8.5 3.1,13.3 11.2,13.3 C21.6,13.3 32.5,4.8 32.5,-4 C32.5,-9.9 27.5,-13.2 21.3,-13.2 C11.6,-13.2 0,-5 0,4.2"/>
<path class="Note" transform="matrix(0.992001,0,0,0.992001,1387.78,708.599)" d="M0,4.2 C0,8.5 3.1,13.3 11.2,13.3 C21.6,13.3 32.5,4.8 32.5,-4 C32.5,-9.9 27.5,-13.2 21.3,-13.2 C11.6,-13.2 0,-5 0,4.2"/>
<path class="Note" transform="matrix(0.992001,0,0,0.992001,1297.62,696.199)" d="M0,4.2 C0,8.5 3.1,13.3 11.2,13.3 C21.6,13.3 32.5,4.8 32.5,-4 C32.5,-9.9 27.5,-13.2 21.3,-13.2 C11.6,-13.2 0,-5 0,4.2"/>
<path class="Note" transform="matrix(0.992001,0,0,0.992001,1934.04,1167.4)" d="M0,4.2 C0,8.5 3.1,13.3 11.2,13.3 C21.6,13.3 32.5,4.8 32.5,-4 C32.5,-9.9 27.5,-13.2 21.3,-13.2 C11.6,-13.2 0,-5 0,4.2"/>
<path class="Note" transform="matrix(0.992001,0,0,0.992001,841.308,1675.8)" d="M0,4.2 C0,8.5 3.1,13.3 11.2,13.3 C21.6,13.3 32.5,4.8 32.5,-4 C32.5,-9.9 27.5,-13.2 21.3,-13.2 C11.6,-13.2 0,-5 0,4.2"/>
<path class="Note" transform="matrix(0.992001,0,0,0.992001,1207.46,696.199)" d="M0,4.2 C0,8.5 3.1,13.3 11.2,13.3 C21.6,13.3 32.5,4.8 32.5,-4 C32.5,-9.9 27.5,-13.2 21.3,-13.2 C11.6,-13.2 0,-5 0,4.2"/>
<path class="Note" transform="matrix(0.992001,0,0,0.992001,2046.81,1179.8)" d="M0,4.2 C0,8.5 3.1,13.3 11.2,13.3 C21.6,13.3 32.5,4.8 32.5,-4 C32.5,-9.9 27.5,-13.2 21.3,-13.2 C11.6,-13.2 0,-5 0,4.2"/>
<path class="Note" transform="matrix(0.992001,0,0,0.992001,1080.59,671.399)" d="M0,4.2 C0,8.5 3.1,13.3 11.2,13.3 C21.6,13.3 32.5,4.8 32.5,-4 C32.5,-9.9 27.5,-13.2 21.3,-13.2 C11.6,-13.2 0,-5 0,4.2"/>
<path class="Note" transform="matrix(0.992001,0,0,0.992001,2291.5,1688.2)" d="M0,4.2 C0,8.5 3.1,13.3 11.2,13.3 C21.6,13.3 32.5,4.8 32.5,-4 C32.5,-9.9 27.5,-13.2 21.3,-13.2 C11.6,-13.2 0,-5 0,4.2"/>
<path class="Note" transform="matrix(0.992001,0,0,0.992001,2159.58,1167.4)" d="M0,4.2 C0,8.5 3.1,13.3 11.2,13.3 C21.6,13.3 32.5,4.8 32.5,-4 C32.5,-9.9 27.5,-13.2 21.3,-13.2 C11.6,-13.2 0,-5 0,4.2"/>
<path class="Note" transform="matrix(0.992001,0,0,0.992001,990.433,671.399)" d="M0,4.2 C0,8.5 3.1,13.3 11.2,13.3 C21.6,13.3 32.5,4.8 32.5,-4 C32.5,-9.9 27.5,-13.2 21.3,-13.2 C11.6,-13.2 0,-5 0,4.2"/>
<path class="Note" transform="matrix(0.992001,0,0,0.992001,900.272,708.599)" d="M0,4.2 C0,8.5 3.1,13.3 11.2,13.3 C21.6,13.3 32.5,4.8 32.5,-4 C32.5,-9.9 27.5,-13.2 21.3,-13.2 C11.6,-13.2 0,-5 0,4.2"/>
<path class="Note" transform="matrix(0.992001,0,0,0.992001,2403.17,1675.8)" d="M0,4.2 C0,8.5 3.1,13.3 11.2,13.3 C21.6,13.3 32.5,4.8 32.5,-4 C32.5,-9.9 27.5,-13.2 21.3,-13.2 C11.6,-13.2 0,-5 0,4.2"/>
<path class="Note" transform="matrix(0.992001,0,0,0.992001,810.112,733.399)" d="M0,4.2 C0,8.5 3.1,13.3 11.2,13.3 C21.6,13.3 32.5,4.8 32.5,-4 C32.5,-9.9 27.5,-13.2 21.3,-13.2 C11.6,-13.2 0,-5 0,4.2"/>
<path class="Note" transform="matrix(0.992001,0,0,0.992001,683.247,708.599)" d="M0,4.2 C0,8.5 3.1,13.3 11.2,13.3 C21.6,13.3 32.5,4.8 32.5,-4 C32.5,-9.9 27.5,-13.2 21.3,-13.2 C11.6,-13.2 0,-5 0,4.2"/>
<path class="Note" transform="matrix(0.992001,0,0,0.992001,2309.06,1142.6)" d="M0,4.2 C0,8.5 3.1,13.3 11.2,13.3 C21.6,13.3 32.5,4.8 32.5,-4 C32.5,-9.9 27.5,-13.2 21.3,-13.2 C11.6,-13.2 0,-5 0,4.2"/>
<path class="Note" transform="matrix(0.992001,0,0,0.992001,593.087,696.199)" d="M0,4.2 C0,8.5 3.1,13.3 11.2,13.3 C21.6,13.3 32.5,4.8 32.5,-4 C32.5,-9.9 27.5,-13.2 21.3,-13.2 C11.6,-13.2 0,-5 0,4.2"/>
<path class="Note" transform="matrix(0.992001,0,0,0.992001,2514.84,1700.6)" d="M0,4.2 C0,8.5 3.1,13.3 11.2,13.3 C21.6,13.3 32.5,4.8 32.5,-4 C32.5,-9.9 27.5,-13.2 21.3,-13.2 C11.6,-13.2 0,-5 0,4.2"/>
<path class="Note" transform="matrix(0.992001,0,0,0.992001,2421.83,1142.6)" d="M0,4.2 C0,8.5 3.1,13.3 11.2,13.3 C21.6,13.3 32.5,4.8 32.5,-4 C32.5,-9.9 27.5,-13.2 21.3,-13.2 C11.6,-13.2 0,-5 0,4.2"/>
<path class="Note" transform="matrix(0.992001,0,0,0.992001,581.257,1675.8)" d="M0,4.2 C0,8.5 3.1,13.3 11.2,13.3 C21.6,13.3 32.5,4.8 32.5,-4 C32.5,-9.9 27.5,-13.2 21.3,-13.2 C11.6,-13.2 0,-5 0,4.2"/>
<path class="Note" transform="matrix(0.992001,0,0,0.992001,502.926,708.599)" d="M0,4.2 C0,8.5 3.1,13.3 11.2,13.3 C21.6,13.3 32.5,4.8 32.5,-4 C32.5,-9.9 27.5,-13.2 21.3,-13.2 C11.6,-13.2 0,-5 0,4.2"/>
<path class="Note" transform="matrix(0.992001,0,0,0.992001,470.682,1167.4)" d="M0,4.2 C0,8.5 3.1,13.3 11.2,13.3 C21.6,13.3 32.5,4.8 32.5,-4 C32.5,-9.9 27.5,-13.2 21.3,-13.2 C11.6,-13.2 0,-5 0,4.2"/>
<path class="Clef" transform="matrix(0.992001,0,0,0.992001,232.438,1651)" d="M56.2,2.1 C56.2,9.2 53.3,16.5 46.2,19.4 C44.1,7.4 41.4,-8.5 40.7,-12.9 C49.7,-12.9 56.2,-6.8 56.2,2.1 M42,20.6 C40,21 38.1,21.2 36.2,21.2 C21.9,21.2 9.7,11.2 9.7,-3.9 C9.7,-16.1 18.3,-27 27.1,-34.6 C28.8,-36.1 30.4,-37.5 31.9,-39 C32.8,-33.6 33.5,-28.9 34.2,-24.8 C25.1,-22.1 18.9,-12.5 18.9,-3.1 C18.9,3.9 24.4,13.5 32.4,13.5 C33.2,13.5 34.1,13.1 34.1,12.2 C34.1,11.3 33.1,10.8 31.9,10 C28,7.6 25.8,5 25.8,0.1 C25.8,-6 30.3,-10.9 36.2,-12.3 L42,20.6 M33.2,-82.2 C34.1,-86.2 38.7,-96.7 43.9,-96.7 C45.4,-96.7 47.8,-91.8 47.8,-84.9 C47.8,-74.5 40.1,-66.7 33.2,-59.9 C32.6,-63.9 32.1,-67.8 32.1,-72 C32.1,-75.7 32.4,-79.1 33.2,-82.2 M12.2,51.3 C12.2,57.9 17.3,66.6 30.8,66.6 C35.5,66.6 39.6,65.4 43.2,63.2 C48.6,59.4 50,52.8 50,46.5 C50,42.6 49.4,38.1 48.4,32.4 C48.1,30.4 47.5,27.4 46.9,23.5 C56.7,20.3 64,10.1 64,-0.2 C64,-15.3 53.3,-25.5 38.7,-25.5 C37.7,-31.5 36.7,-37.4 35.8,-43 C46.4,-54.1 53.7,-66.6 53.7,-82.5 C53.7,-91.6 50.9,-99 49.3,-102.6 C46.9,-107.7 44,-111.2 42.2,-111.2 C41.5,-111.2 38.4,-110 35.1,-106.1 C28.7,-98.5 26.9,-85.7 26.9,-77.3 C26.9,-71.9 27.4,-67 29.1,-55.8 C29,-55.7 23.8,-50.4 21.7,-48.7 C12.6,-40.2 0,-28.1 0,-8.1 C0,10.6 16.3,25.3 34.9,25.3 C37.8,25.3 40.5,25 42.8,24.6 C44.7,34.2 45.8,41.2 45.8,46.5 C45.8,56.9 40.5,62.4 30.4,62.4 C28,62.4 25.9,61.9 25.7,61.9 C25.6,61.8 25.4,61.7 25.4,61.6 C25.4,61.4 25.6,61.3 25.9,61.2 C30.6,60.5 35.3,56.5 35.3,50.1 C35.3,44.7 31.2,39 23.7,39 C16.7,39 12.2,44.7 12.2,51.3"/>
<path class="Clef" transform="matrix(0.992001,0,0,0.992001,232.438,708.599)" d="M56.2,2.1 C56.2,9.2 53.3,16.5 46.2,19.4 C44.1,7.4 41.4,-8.5 40.7,-12.9 C49.7,-12.9 56.2,-6.8 56.2,2.1 M42,20.6 C40,21 38.1,21.2 36.2,21.2 C21.9,21.2 9.7,11.2 9.7,-3.9 C9.7,-16.1 18.3,-27 27.1,-34.6 C28.8,-36.1 30.4,-37.5 31.9,-39 C32.8,-33.6 33.5,-28.9 34.2,-24.8 C25.1,-22.1 18.9,-12.5 18.9,-3.1 C18.9,3.9 24.4,13.5 32.4,13.5 C33.2,13.5 34.1,13.1 34.1,12.2 C34.1,11.3 33.1,10.8 31.9,10 C28,7.6 25.8,5 25.8,0.1 C25.8,-6 30.3,-10.9 36.2,-12.3 L42,20.6 M33.2,-82.2 C34.1,-86.2 38.7,-96.7 43.9,-96.7 C45.4,-96.7 47.8,-91.8 47.8,-84.9 C47.8,-74.5 40.1,-66.7 33.2,-59.9 C32.6,-63.9 32.1,-67.8 32.1,-72 C32.1,-75.7 32.4,-79.1 33.2,-82.2 M12.2,51.3 C12.2,57.9 17.3,66.6 30.8,66.6 C35.5,66.6 39.6,65.4 43.2,63.2 C48.6,59.4 50,52.8 50,46.5 C50,42.6 49.4,38.1 48.4,32.4 C48.1,30.4 47.5,27.4 46.9,23.5 C56.7,20.3 64,10.1 64,-0.2 C64,-15.3 53.3,-25.5 38.7,-25.5 C37.7,-31.5 36.7,-37.4 35.8,-43 C46.4,-54.1 53.7,-66.6 53.7,-82.5 C53.7,-91.6 50.9,-99 49.3,-102.6 C46.9,-107.7 44,-111.2 42.2,-111.2 C41.5,-111.2 38.4,-110 35.1,-106.1 C28.7,-98.5 26.9,-85.7 26.9,-77.3 C26.9,-71.9 27.4,-67 29.1,-55.8 C29,-55.7 23.8,-50.4 21.7,-48.7 C12.6,-40.2 0,-28.1 0,-8.1 C0,10.6 16.3,25.3 34.9,25.3 C37.8,25.3 40.5,25 42.8,24.6 C44.7,34.2 45.8,41.2 45.8,46.5 C45.8,56.9 40.5,62.4 30.4,62.4 C28,62.4 25.9,61.9 25.7,61.9 C25.6,61.8 25.4,61.7 25.4,61.6 C25.4,61.4 25.6,61.3 25.9,61.2 C30.6,60.5 35.3,56.5 35.3,50.1 C35.3,44.7 31.2,39 23.7,39 C16.7,39 12.2,44.7 12.2,51.3"/>
<path class="Clef" transform="matrix(0.992001,0,0,0.992001,232.438,1179.8)" d="M56.2,2.1 C56.2,9.2 53.3,16.5 46.2,19.4 C44.1,7.4 41.4,-8.5 40.7,-12.9 C49.7,-12.9 56.2,-6.8 56.2,2.1 M42,20.6 C40,21 38.1,21.2 36.2,21.2 C21.9,21.2 9.7,11.2 9.7,-3.9 C9.7,-16.1 18.3,-27 27.1,-34.6 C28.8,-36.1 30.4,-37.5 31.9,-39 C32.8,-33.6 33.5,-28.9 34.2,-24.8 C25.1,-22.1 18.9,-12.5 18.9,-3.1 C18.9,3.9 24.4,13.5 32.4,13.5 C33.2,13.5 34.1,13.1 34.1,12.2 C34.1,11.3 33.1,10.8 31.9,10 C28,7.6 25.8,5 25.8,0.1 C25.8,-6 30.3,-10.9 36.2,-12.3 L42,20.6 M33.2,-82.2 C34.1,-86.2 38.7,-96.7 43.9,-96.7 C45.4,-96.7 47.8,-91.8 47.8,-84.9 C47.8,-74.5 40.1,-66.7 33.2,-59.9 C32.6,-63.9 32.1,-67.8 32.1,-72 C32.1,-75.7 32.4,-79.1 33.2,-82.2 M12.2,51.3 C12.2,57.9 17.3,66.6 30.8,66.6 C35.5,66.6 39.6,65.4 43.2,63.2 C48.6,59.4 50,52.8 50,46.5 C50,42.6 49.4,38.1 48.4,32.4 C48.1,30.4 47.5,27.4 46.9,23.5 C56.7,20.3 64,10.1 64,-0.2 C64,-15.3 53.3,-25.5 38.7,-25.5 C37.7,-31.5 36.7,-37.4 35.8,-43 C46.4,-54.1 53.7,-66.6 53.7,-82.5 C53.7,-91.6 50.9,-99 49.3,-102.6 C46.9,-107.7 44,-111.2 42.2,-111.2 C41.5,-111.2 38.4,-110 35.1,-106.1 C28.7,-98.5 26.9,-85.7 26.9,-77.3 C26.9,-71.9 27.4,-67 29.1,-55.8 C29,-55.7 23.8,-50.4 21.7,-48.7 C12.6,-40.2 0,-28.1 0,-8.1 C0,10.6 16.3,25.3 34.9,25.3 C37.8,25.3 40.5,25 42.8,24.6 C44.7,34.2 45.8,41.2 45.8,46.5 C45.8,56.9 40.5,62.4 30.4,62.4 C28,62.4 25.9,61.9 25.7,61.9 C25.6,61.8 25.4,61.7 25.4,61.6 C25.4,61.4 25.6,61.3 25.9,61.2 C30.6,60.5 35.3,56.5 35.3,50.1 C35.3,44.7 31.2,39 23.7,39 C16.7,39 12.2,44.7 12.2,51.3"/>
<path class="TimeSig" transform="matrix(0.992001,0,0,0.992001,319.331,658.999)" d="M20.8,12.7 L20.8,20.1 L12.5,20.1 C11.8,20.1 11.1,20.7 11.1,21.5 L11.1,23.4 C11.1,24.2 11.8,24.8 12.5,24.8 L42.8,24.8 C43.6,24.8 44.2,24.2 44.2,23.4 L44.2,21.5 C44.2,20.7 43.6,20.1 42.8,20.1 L33.8,20.1 L33.8,12.7 L42.8,12.7 C43.6,12.7 44.2,12 44.2,11.2 L44.2,9.3 C44.2,8.6 43.6,7.9 42.8,7.9 L33.8,7.9 L33.8,-8 C33.8,-8.6 33.5,-9.1 33.1,-9.3 L31.9,-9.9 C31.7,-10 31.6,-10 31.4,-10 C31.3,-10 31.3,-10 31.2,-10 C30.9,-10 30.5,-9.9 30.3,-9.7 L21.2,-1.4 C20.9,-1.1 20.8,-0.7 20.8,-0.3 L20.8,7.9 L9.2,7.9 C9.2,7.9 20.4,-4.1 32.2,-19.9 C32.6,-20.4 32.7,-20.9 32.7,-21.3 C32.7,-21.8 32.5,-22.2 32.4,-22.3 L30.2,-24.5 C29.9,-24.7 29.6,-24.9 29.2,-24.9 C28.6,-24.9 15.1,-24.9 14.3,-24.9 C13.6,-24.9 13.1,-24.3 13,-23.7 C13,-23.7 12.5,-16.3 9.9,-8.2 C7.3,-0.1 4.3,4.9 1.7,8.6 C1.7,8.6 1.4,9.1 1.4,9.7 C1.4,9.9 1.4,10.1 1.5,10.3 C1.8,11 2.5,12.1 2.5,12.1 C2.5,12.1 2.7,12.7 3.6,12.7 L20.8,12.7 "/>
<path class="TimeSig" transform="matrix(0.992001,0,0,0.992001,319.331,708.599)" d="M20.8,12.7 L20.8,20.1 L12.5,20.1 C11.8,20.1 11.1,20.7 11.1,21.5 L11.1,23.4 C11.1,24.2 11.8,24.8 12.5,24.8 L42.8,24.8 C43.6,24.8 44.2,24.2 44.2,23.4 L44.2,21.5 C44.2,20.7 43.6,20.1 42.8,20.1 L33.8,20.1 L33.8,12.7 L42.8,12.7 C43.6,12.7 44.2,12 44.2,11.2 L44.2,9.3 C44.2,8.6 43.6,7.9 42.8,7.9 L33.8,7.9 L33.8,-8 C33.8,-8.6 33.5,-9.1 33.1,-9.3 L31.9,-9.9 C31.7,-10 31.6,-10 31.4,-10 C31.3,-10 31.3,-10 31.2,-10 C30.9,-10 30.5,-9.9 30.3,-9.7 L21.2,-1.4 C20.9,-1.1 20.8,-0.7 20.8,-0.3 L20.8,7.9 L9.2,7.9 C9.2,7.9 20.4,-4.1 32.2,-19.9 C32.6,-20.4 32.7,-20.9 32.7,-21.3 C32.7,-21.8 32.5,-22.2 32.4,-22.3 L30.2,-24.5 C29.9,-24.7 29.6,-24.9 29.2,-24.9 C28.6,-24.9 15.1,-24.9 14.3,-24.9 C13.6,-24.9 13.1,-24.3 13,-23.7 C13,-23.7 12.5,-16.3 9.9,-8.2 C7.3,-0.1 4.3,4.9 1.7,8.6 C1.7,8.6 1.4,9.1 1.4,9.7 C1.4,9.9 1.4,10.1 1.5,10.3 C1.8,11 2.5,12.1 2.5,12.1 C2.5,12.1 2.7,12.7 3.6,12.7 L20.8,12.7 "/>
<path class="Rest" transform="matrix(0.992001,0,0,0.992001,692.931,1626.2)" d="M23,16.6 C22.9,16.5 22.7,16.3 22.4,15.9 L10.9,1.7 C10.8,1.6 10.7,1.3 10.7,1.1 C10.7,0.8 10.8,0.4 10.9,0.2 L21.1,-15.2 C21.2,-15.4 21.3,-15.7 21.3,-15.9 L21.3,-16.8 C21.3,-17.1 21.2,-17.4 21,-17.6 L4.8,-39.5 C4.8,-39.5 4.4,-40.1 3.8,-40.1 C3.5,-40.1 3.3,-40 3,-39.8 C2.6,-39.5 2.5,-39.1 2.5,-38.8 C2.5,-38.2 2.8,-37.7 2.8,-37.7 L10.4,-27.3 C10.6,-27 10.7,-26.6 10.7,-26.1 C10.7,-25.7 10.6,-25.2 10.4,-24.9 L0.3,-9.5 C0.2,-9.3 0.1,-8.9 0.1,-8.7 L0.1,-7.8 C0.1,-7.5 0.2,-7.2 0.4,-7 L11.6,6.9 C11.2,6.8 10.3,6.6 9.1,6.6 C7.4,6.6 5.2,7 3.4,8.6 C1.2,10.6 0,13.4 0,15.9 C0,17.3 0.3,18.7 1.1,19.8 C3.2,23 10.7,32.5 10.7,32.5 C10.7,32.5 11.2,33.1 11.9,33.1 C12.1,33.1 12.3,33.1 12.5,32.9 C13,32.5 13.2,32.1 13.2,31.7 C13.2,31.3 13,31 12.9,30.8 C12.6,30.3 9.4,24.5 9.4,24.5 C9.4,24.5 8.7,23.1 8.7,21.3 C8.7,20 9.1,18.4 10.4,17.1 C11.6,15.9 13,15.5 14.3,15.5 C15.6,15.5 16.7,15.9 17.5,16.4 L21.4,18.9 C21.4,18.9 21.8,19.1 22.2,19.1 C22.6,19.1 22.9,19 23.2,18.6 C23.4,18.2 23.5,18 23.5,17.7 C23.5,17.4 23.4,17.2 23.2,16.9 L23,16.6 "/>
<path class="Rest" transform="matrix(0.992001,0,0,0.992001,2626.52,1626.2)" d="M23,16.6 C22.9,16.5 22.7,16.3 22.4,15.9 L10.9,1.7 C10.8,1.6 10.7,1.3 10.7,1.1 C10.7,0.8 10.8,0.4 10.9,0.2 L21.1,-15.2 C21.2,-15.4 21.3,-15.7 21.3,-15.9 L21.3,-16.8 C21.3,-17.1 21.2,-17.4 21,-17.6 L4.8,-39.5 C4.8,-39.5 4.4,-40.1 3.8,-40.1 C3.5,-40.1 3.3,-40 3,-39.8 C2.6,-39.5 2.5,-39.1 2.5,-38.8 C2.5,-38.2 2.8,-37.7 2.8,-37.7 L10.4,-27.3 C10.6,-27 10.7,-26.6 10.7,-26.1 C10.7,-25.7 10.6,-25.2 10.4,-24.9 L0.3,-9.5 C0.2,-9.3 0.1,-8.9 0.1,-8.7 L0.1,-7.8 C0.1,-7.5 0.2,-7.2 0.4,-7 L11.6,6.9 C11.2,6.8 10.3,6.6 9.1,6.6 C7.4,6.6 5.2,7 3.4,8.6 C1.2,10.6 0,13.4 0,15.9 C0,17.3 0.3,18.7 1.1,19.8 C3.2,23 10.7,32.5 10.7,32.5 C10.7,32.5 11.2,33.1 11.9,33.1 C12.1,33.1 12.3,33.1 12.5,32.9 C13,32.5 13.2,32.1 13.2,31.7 C13.2,31.3 13,31 12.9,30.8 C12.6,30.3 9.4,24.5 9.4,24.5 C9.4,24.5 8.7,23.1 8.7,21.3 C8.7,20 9.1,18.4 10.4,17.1 C11.6,15.9 13,15.5 14.3,15.5 C15.6,15.5 16.7,15.9 17.5,16.4 L21.4,18.9 C21.4,18.9 21.8,19.1 22.2,19.1 C22.6,19.1 22.9,19 23.2,18.6 C23.4,18.2 23.5,18 23.5,17.7 C23.5,17.4 23.4,17.2 23.2,16.9 L23,16.6 "/>
<path class="Rest" transform="matrix(0.992001,0,0,0.992001,1875.29,683.799)" d="M23,16.6 C22.9,16.5 22.7,16.3 22.4,15.9 L10.9,1.7 C10.8,1.6 10.7,1.3 10.7,1.1 C10.7,0.8 10.8,0.4 10.9,0.2 L21.1,-15.2 C21.2,-15.4 21.3,-15.7 21.3,-15.9 L21.3,-16.8 C21.3,-17.1 21.2,-17.4 21,-17.6 L4.8,-39.5 C4.8,-39.5 4.4,-40.1 3.8,-40.1 C3.5,-40.1 3.3,-40 3,-39.8 C2.6,-39.5 2.5,-39.1 2.5,-38.8 C2.5,-38.2 2.8,-37.7 2.8,-37.7 L10.4,-27.3 C10.6,-27 10.7,-26.6 10.7,-26.1 C10.7,-25.7 10.6,-25.2 10.4,-24.9 L0.3,-9.5 C0.2,-9.3 0.1,-8.9 0.1,-8.7 L0.1,-7.8 C0.1,-7.5 0.2,-7.2 0.4,-7 L11.6,6.9 C11.2,6.8 10.3,6.6 9.1,6.6 C7.4,6.6 5.2,7 3.4,8.6 C1.2,10.6 0,13.4 0,15.9 C0,17.3 0.3,18.7 1.1,19.8 C3.2,23 10.7,32.5 10.7,32.5 C10.7,32.5 11.2,33.1 11.9,33.1 C12.1,33.1 12.3,33.1 12.5,32.9 C13,32.5 13.2,32.1 13.2,31.7 C13.2,31.3 13,31 12.9,30.8 C12.6,30.3 9.4,24.5 9.4,24.5 C9.4,24.5 8.7,23.1 8.7,21.3 C8.7,20 9.1,18.4 10.4,17.1 C11.6,15.9 13,15.5 14.3,15.5 C15.6,15.5 16.7,15.9 17.5,16.4 L21.4,18.9 C21.4,18.9 21.8,19.1 22.2,19.1 C22.6,19.1 22.9,19 23.2,18.6 C23.4,18.2 23.5,18 23.5,17.7 C23.5,17.4 23.4,17.2 23.2,16.9 L23,16.6 "/>
<path class="Rest" transform="matrix(0.992001,0,0,0.992001,1184.01,1155)" d="M23,16.6 C22.9,16.5 22.7,16.3 22.4,15.9 L10.9,1.7 C10.8,1.6 10.7,1.3 10.7,1.1 C10.7,0.8 10.8,0.4 10.9,0.2 L21.1,-15.2 C21.2,-15.4 21.3,-15.7 21.3,-15.9 L21.3,-16.8 C21.3,-17.1 21.2,-17.4 21,-17.6 L4.8,-39.5 C4.8,-39.5 4.4,-40.1 3.8,-40.1 C3.5,-40.1 3.3,-40 3,-39.8 C2.6,-39.5 2.5,-39.1 2.5,-38.8 C2.5,-38.2 2.8,-37.7 2.8,-37.7 L10.4,-27.3 C10.6,-27 10.7,-26.6 10.7,-26.1 C10.7,-25.7 10.6,-25.2 10.4,-24.9 L0.3,-9.5 C0.2,-9.3 0.1,-8.9 0.1,-8.7 L0.1,-7.8 C0.1,-7.5 0.2,-7.2 0.4,-7 L11.6,6.9 C11.2,6.8 10.3,6.6 9.1,6.6 C7.4,6.6 5.2,7 3.4,8.6 C1.2,10.6 0,13.4 0,15.9 C0,17.3 0.3,18.7 1.1,19.8 C3.2,23 10.7,32.5 10.7,32.5 C10.7,32.5 11.2,33.1 11.9,33.1 C12.1,33.1 12.3,33.1 12.5,32.9 C13,32.5 13.2,32.1 13.2,31.7 C13.2,31.3 13,31 12.9,30.8 C12.6,30.3 9.4,24.5 9.4,24.5 C9.4,24.5 8.7,23.1 8.7,21.3 C8.7,20 9.1,18.4 10.4,17.1 C11.6,15.9 13,15.5 14.3,15.5 C15.6,15.5 16.7,15.9 17.5,16.4 L21.4,18.9 C21.4,18.9 21.8,19.1 22.2,19.1 C22.6,19.1 22.9,19 23.2,18.6 C23.4,18.2 23.5,18 23.5,17.7 C23.5,17.4 23.4,17.2 23.2,16.9 L23,16.6 "/>
<path class="Harmony" d="M1103.91,1003.3 L1101.82,1003.3 L1099.62,1006.55 C1095.61,1003.63 1093.57,1002.86 1089.78,1002.86 C1084.55,1002.86 1080.1,1005.06 1076.41,1009.46 C1072.89,1013.64 1071.24,1018.26 1071.24,1023.93 C1071.24,1035.81 1079,1044.22 1089.83,1044.22 C1098.63,1044.22 1104.24,1039.05 1105.51,1029.81 L1102.92,1029.37 C1101.44,1037.57 1097.26,1041.64 1090.49,1041.64 C1082.35,1041.64 1078.5,1036.03 1078.5,1024.15 C1078.5,1017.88 1079.33,1013.75 1081.2,1010.45 C1082.9,1007.37 1086.26,1005.45 1089.83,1005.45 C1093.68,1005.45 1097.09,1007.48 1099.18,1011 C1100.23,1012.82 1101,1014.85 1102.32,1019.2 L1104.74,1019.2 L1103.91,1003.3 "/>
<path class="Harmony" d="M2659.19,1474.51 L2657.1,1474.51 L2654.9,1477.75 C2650.89,1474.84 2648.85,1474.07 2645.06,1474.07 C2639.83,1474.07 2635.38,1476.27 2631.69,1480.67 C2628.17,1484.85 2626.52,1489.47 2626.52,1495.13 C2626.52,1507.01 2634.28,1515.43 2645.11,1515.43 C2653.91,1515.43 2659.52,1510.26 2660.79,1501.02 L2658.2,1500.58 C2656.72,1508.77 2652.54,1512.84 2645.77,1512.84 C2637.63,1512.84 2633.78,1507.23 2633.78,1495.35 C2633.78,1489.08 2634.61,1484.96 2636.48,1481.66 C2638.18,1478.58 2641.54,1476.65 2645.11,1476.65 C2648.96,1476.65 2652.37,1478.69 2654.46,1482.21 C2655.51,1484.02 2656.28,1486.06 2657.6,1490.4 L2660.02,1490.4 L2659.19,1474.51 "/>
<path class="Harmony" d="M502.26,1474.51 L500.17,1474.51 L497.97,1477.75 C493.955,1474.84 491.92,1474.07 488.125,1474.07 C482.9,1474.07 478.445,1476.27 474.76,1480.67 C471.24,1484.85 469.59,1489.47 469.59,1495.13 C469.59,1507.01 477.345,1515.43 488.18,1515.43 C496.98,1515.43 502.59,1510.26 503.855,1501.02 L501.27,1500.58 C499.785,1508.77 495.605,1512.84 488.84,1512.84 C480.7,1512.84 476.85,1507.23 476.85,1495.35 C476.85,1489.08 477.675,1484.96 479.545,1481.66 C481.25,1478.58 484.605,1476.65 488.18,1476.65 C492.03,1476.65 495.44,1478.69 497.53,1482.21 C498.575,1484.02 499.345,1486.06 500.665,1490.4 L503.085,1490.4 L502.26,1474.51 "/>
<path class="Harmony" d="M2680.09,1003.69 L2647.37,1003.69 L2647.37,1006.27 L2648.36,1006.27 C2651.49,1006.33 2652.54,1006.49 2652.98,1007.04 C2653.31,1007.54 2653.31,1007.65 2653.31,1010.45 L2653.31,1036.63 C2653.31,1039.44 2653.31,1039.55 2652.98,1040.04 C2652.54,1040.59 2651.49,1040.81 2648.36,1040.81 L2647.37,1040.81 L2647.37,1043.4 L2666.23,1043.4 L2666.23,1040.81 L2664.42,1040.81 C2661.28,1040.81 2660.24,1040.59 2659.8,1040.04 C2659.47,1039.55 2659.47,1039.38 2659.47,1036.63 L2659.47,1024.15 L2660.57,1024.15 C2666.23,1023.93 2668.27,1025.96 2668.49,1032.07 L2671.07,1032.07 L2671.07,1014.03 L2668.49,1014.03 C2668.16,1019.42 2666.01,1021.51 2660.79,1021.56 L2659.47,1021.56 L2659.47,1009.02 C2659.41,1006.71 2659.96,1006.33 2662.93,1006.27 L2665.46,1006.27 C2674.48,1006.22 2676.74,1008.25 2678.44,1017.71 L2680.86,1017.71 L2680.09,1003.69 "/>
<path class="Harmony" d="M2567.32,1003.69 L2534.6,1003.69 L2534.6,1006.27 L2535.59,1006.27 C2538.72,1006.33 2539.77,1006.49 2540.21,1007.04 C2540.54,1007.54 2540.54,1007.65 2540.54,1010.45 L2540.54,1036.63 C2540.54,1039.44 2540.54,1039.55 2540.21,1040.04 C2539.77,1040.59 2538.72,1040.81 2535.59,1040.81 L2534.6,1040.81 L2534.6,1043.4 L2553.46,1043.4 L2553.46,1040.81 L2551.65,1040.81 C2548.51,1040.81 2547.47,1040.59 2547.03,1040.04 C2546.7,1039.55 2546.7,1039.38 2546.7,1036.63 L2546.7,1024.15 L2547.8,1024.15 C2553.46,1023.93 2555.5,1025.96 2555.72,1032.07 L2558.3,1032.07 L2558.3,1014.03 L2555.72,1014.03 C2555.39,1019.42 2553.24,1021.51 2548.02,1021.56 L2546.7,1021.56 L2546.7,1009.02 C2546.64,1006.71 2547.19,1006.33 2550.16,1006.27 L2552.69,1006.27 C2561.71,1006.22 2563.97,1008.25 2565.67,1017.71 L2568.09,1017.71 L2567.32,1003.69 "/>
<path class="Harmony" d="M613.934,1474.51 L611.844,1474.51 L609.644,1477.75 C605.629,1474.84 603.594,1474.07 599.799,1474.07 C594.574,1474.07 590.119,1476.27 586.434,1480.67 C582.914,1484.85 581.264,1489.47 581.264,1495.13 C581.264,1507.01 589.019,1515.43 599.854,1515.43 C608.654,1515.43 614.264,1510.26 615.529,1501.02 L612.944,1500.58 C611.459,1508.77 607.279,1512.84 600.514,1512.84 C592.374,1512.84 588.524,1507.23 588.524,1495.35 C588.524,1489.08 589.349,1484.96 591.219,1481.66 C592.924,1478.58 596.279,1476.65 599.854,1476.65 C603.704,1476.65 607.114,1478.69 609.204,1482.21 C610.249,1484.02 611.019,1486.06 612.339,1490.4 L614.759,1490.4 L613.934,1474.51 "/>
<path class="Harmony" d="M2454.55,1003.69 L2421.83,1003.69 L2421.83,1006.27 L2422.82,1006.27 C2425.95,1006.33 2427,1006.49 2427.44,1007.04 C2427.77,1007.54 2427.77,1007.65 2427.77,1010.45 L2427.77,1036.63 C2427.77,1039.44 2427.77,1039.55 2427.44,1040.04 C2427,1040.59 2425.95,1040.81 2422.82,1040.81 L2421.83,1040.81 L2421.83,1043.4 L2440.69,1043.4 L2440.69,1040.81 L2438.88,1040.81 C2435.74,1040.81 2434.7,1040.59 2434.26,1040.04 C2433.93,1039.55 2433.93,1039.38 2433.93,1036.63 L2433.93,1024.15 L2435.03,1024.15 C2440.69,1023.93 2442.73,1025.96 2442.95,1032.07 L2445.53,1032.07 L2445.53,1014.03 L2442.95,1014.03 C2442.62,1019.42 2440.47,1021.51 2435.25,1021.56 L2433.93,1021.56 L2433.93,1009.02 C2433.87,1006.71 2434.42,1006.33 2437.39,1006.27 L2439.92,1006.27 C2448.94,1006.22 2451.2,1008.25 2452.9,1017.71 L2455.32,1017.71 L2454.55,1003.69 "/>
<path class="Harmony" d="M725.607,1474.51 L723.517,1474.51 L721.317,1477.75 C717.302,1474.84 715.267,1474.07 711.472,1474.07 C706.247,1474.07 701.792,1476.27 698.107,1480.67 C694.587,1484.85 692.937,1489.47 692.937,1495.13 C692.937,1507.01 700.692,1515.43 711.527,1515.43 C720.327,1515.43 725.937,1510.26 727.202,1501.02 L724.617,1500.58 C723.132,1508.77 718.952,1512.84 712.187,1512.84 C704.047,1512.84 700.197,1507.23 700.197,1495.35 C700.197,1489.08 701.022,1484.96 702.892,1481.66 C704.597,1478.58 707.952,1476.65 711.527,1476.65 C715.377,1476.65 718.787,1478.69 720.877,1482.21 C721.922,1484.02 722.692,1486.06 724.012,1490.4 L726.432,1490.4 L725.607,1474.51 "/>
<path class="Harmony" d="M2341.78,1003.69 L2309.06,1003.69 L2309.06,1006.27 L2310.05,1006.27 C2313.18,1006.33 2314.23,1006.49 2314.67,1007.04 C2315,1007.54 2315,1007.65 2315,1010.45 L2315,1036.63 C2315,1039.44 2315,1039.55 2314.67,1040.04 C2314.23,1040.59 2313.18,1040.81 2310.05,1040.81 L2309.06,1040.81 L2309.06,1043.4 L2327.92,1043.4 L2327.92,1040.81 L2326.11,1040.81 C2322.97,1040.81 2321.93,1040.59 2321.49,1040.04 C2321.16,1039.55 2321.16,1039.38 2321.16,1036.63 L2321.16,1024.15 L2322.26,1024.15 C2327.92,1023.93 2329.96,1025.96 2330.18,1032.07 L2332.76,1032.07 L2332.76,1014.03 L2330.18,1014.03 C2329.85,1019.42 2327.7,1021.51 2322.48,1021.56 L2321.16,1021.56 L2321.16,1009.02 C2321.1,1006.71 2321.65,1006.33 2324.62,1006.27 L2327.15,1006.27 C2336.17,1006.22 2338.43,1008.25 2340.13,1017.71 L2342.55,1017.71 L2341.78,1003.69 "/>
<path class="Harmony" d="M2192.31,1003.69 L2159.58,1003.69 L2159.58,1006.27 L2160.57,1006.27 C2163.71,1006.33 2164.75,1006.49 2165.19,1007.04 C2165.52,1007.54 2165.52,1007.65 2165.52,1010.45 L2165.52,1036.63 C2165.52,1039.44 2165.52,1039.55 2165.19,1040.04 C2164.75,1040.59 2163.71,1040.81 2160.57,1040.81 L2159.58,1040.81 L2159.58,1043.4 L2178.45,1043.4 L2178.45,1040.81 L2176.63,1040.81 C2173.5,1040.81 2172.45,1040.59 2172.01,1040.04 C2171.68,1039.55 2171.68,1039.38 2171.68,1036.63 L2171.68,1024.15 L2172.78,1024.15 C2178.45,1023.93 2180.48,1025.96 2180.7,1032.07 L2183.29,1032.07 L2183.29,1014.03 L2180.7,1014.03 C2180.37,1019.42 2178.23,1021.51 2173,1021.56 L2171.68,1021.56 L2171.68,1009.02 C2171.63,1006.71 2172.18,1006.33 2175.15,1006.27 L2177.68,1006.27 C2186.7,1006.22 2188.95,1008.25 2190.66,1017.71 L2193.08,1017.71 L2192.31,1003.69 "/>
<path class="Harmony" d="M2079.54,1003.69 L2046.81,1003.69 L2046.81,1006.27 L2047.8,1006.27 C2050.94,1006.33 2051.98,1006.49 2052.42,1007.04 C2052.75,1007.54 2052.75,1007.65 2052.75,1010.45 L2052.75,1036.63 C2052.75,1039.44 2052.75,1039.55 2052.42,1040.04 C2051.98,1040.59 2050.94,1040.81 2047.8,1040.81 L2046.81,1040.81 L2046.81,1043.4 L2065.68,1043.4 L2065.68,1040.81 L2063.86,1040.81 C2060.73,1040.81 2059.68,1040.59 2059.24,1040.04 C2058.91,1039.55 2058.91,1039.38 2058.91,1036.63 L2058.91,1024.15 L2060.01,1024.15 C2065.68,1023.93 2067.71,1025.96 2067.93,1032.07 L2070.52,1032.07 L2070.52,1014.03 L2067.93,1014.03 C2067.6,1019.42 2065.46,1021.51 2060.23,1021.56 L2058.91,1021.56 L2058.91,1009.02 C2058.86,1006.71 2059.41,1006.33 2062.38,1006.27 L2064.91,1006.27 C2073.93,1006.22 2076.18,1008.25 2077.89,1017.71 L2080.31,1017.71 L2079.54,1003.69 "/>
<path class="Harmony" d="M1966.77,1003.69 L1934.04,1003.69 L1934.04,1006.27 L1935.03,1006.27 C1938.17,1006.33 1939.21,1006.49 1939.65,1007.04 C1939.98,1007.54 1939.98,1007.65 1939.98,1010.45 L1939.98,1036.63 C1939.98,1039.44 1939.98,1039.55 1939.65,1040.04 C1939.21,1040.59 1938.17,1040.81 1935.03,1040.81 L1934.04,1040.81 L1934.04,1043.4 L1952.91,1043.4 L1952.91,1040.81 L1951.09,1040.81 C1947.96,1040.81 1946.91,1040.59 1946.47,1040.04 C1946.14,1039.55 1946.14,1039.38 1946.14,1036.63 L1946.14,1024.15 L1947.24,1024.15 C1952.91,1023.93 1954.94,1025.96 1955.16,1032.07 L1957.75,1032.07 L1957.75,1014.03 L1955.16,1014.03 C1954.83,1019.42 1952.69,1021.51 1947.46,1021.56 L1946.14,1021.56 L1946.14,1009.02 C1946.09,1006.71 1946.64,1006.33 1949.61,1006.27 L1952.14,1006.27 C1961.16,1006.22 1963.41,1008.25 1965.12,1017.71 L1967.54,1017.71 L1966.77,1003.69 "/>
<path class="Harmony" d="M873.984,1474.51 L871.894,1474.51 L869.694,1477.75 C865.679,1474.84 863.644,1474.07 859.849,1474.07 C854.624,1474.07 850.169,1476.27 846.484,1480.67 C842.964,1484.85 841.314,1489.47 841.314,1495.13 C841.314,1507.01 849.069,1515.43 859.904,1515.43 C868.704,1515.43 874.314,1510.26 875.579,1501.02 L872.994,1500.58 C871.509,1508.77 867.329,1512.84 860.564,1512.84 C852.424,1512.84 848.574,1507.23 848.574,1495.35 C848.574,1489.08 849.399,1484.96 851.269,1481.66 C852.974,1478.58 856.329,1476.65 859.904,1476.65 C863.754,1476.65 867.164,1478.69 869.254,1482.21 C870.299,1484.02 871.069,1486.06 872.389,1490.4 L874.809,1490.4 L873.984,1474.51 "/>
<path class="Harmony" d="M1854,1003.69 L1821.27,1003.69 L1821.27,1006.27 L1822.26,1006.27 C1825.4,1006.33 1826.44,1006.49 1826.88,1007.04 C1827.21,1007.54 1827.21,1007.65 1827.21,1010.45 L1827.21,1036.63 C1827.21,1039.44 1827.21,1039.55 1826.88,1040.04 C1826.44,1040.59 1825.4,1040.81 1822.26,1040.81 L1821.27,1040.81 L1821.27,1043.4 L1840.14,1043.4 L1840.14,1040.81 L1838.32,1040.81 C1835.19,1040.81 1834.14,1040.59 1833.7,1040.04 C1833.37,1039.55 1833.37,1039.38 1833.37,1036.63 L1833.37,1024.15 L1834.47,1024.15 C1840.14,1023.93 1842.17,1025.96 1842.39,1032.07 L1844.98,1032.07 L1844.98,1014.03 L1842.39,1014.03 C1842.06,1019.42 1839.92,1021.51 1834.69,1021.56 L1833.37,1021.56 L1833.37,1009.02 C1833.32,1006.71 1833.87,1006.33 1836.84,1006.27 L1839.37,1006.27 C1848.39,1006.22 1850.64,1008.25 1852.35,1017.71 L1854.77,1017.71 L1854,1003.69 "/>
<path class="Harmony" d="M1705.25,1003.3 L1703.16,1003.3 L1701.01,1006.6 C1697.44,1003.8 1695.02,1002.86 1691,1002.86 C1686.66,1002.86 1683.25,1004.07 1679.78,1006.88 C1674.34,1011.28 1671.81,1016.83 1671.81,1024.26 C1671.81,1029.87 1673.4,1034.54 1676.65,1038.12 C1680.06,1041.97 1685.12,1044.22 1690.4,1044.22 C1695.02,1044.22 1698.26,1042.79 1701.84,1039.22 L1703.87,1044.17 L1706.18,1044.17 L1706.18,1032.07 C1706.18,1029.26 1706.18,1029.15 1706.51,1028.66 C1707.01,1028.05 1708,1027.89 1711.13,1027.89 L1711.96,1027.89 L1711.96,1025.3 L1694.47,1025.3 L1694.47,1027.89 L1695.51,1027.89 C1700.13,1027.89 1700.52,1028.16 1700.52,1031.24 C1700.52,1033.61 1700.13,1035.75 1699.42,1037.07 C1698.04,1039.77 1694.52,1041.64 1690.95,1041.64 C1687.37,1041.64 1683.85,1039.82 1681.98,1037.07 C1679.95,1033.99 1679.07,1030.14 1679.07,1024.26 C1679.07,1011.99 1683.14,1005.45 1690.78,1005.45 C1697.05,1005.45 1701.4,1009.96 1703.65,1018.76 L1706.02,1018.76 L1705.25,1003.3 "/>
<path class="Harmony" d="M1717.98,1017.99 L1720.4,1018.37 L1721.39,1014.03 C1722.21,1010.4 1722.6,1009.85 1724.19,1009.85 C1724.47,1009.85 1724.91,1009.85 1725.4,1009.9 C1732.17,1010.23 1732.17,1010.23 1734.7,1010.23 C1735.41,1010.23 1736.68,1010.23 1738.22,1010.18 L1734.48,1017.71 C1730.41,1025.8 1729.91,1026.79 1728.54,1030.2 C1726.83,1034.32 1725.95,1037.79 1725.95,1040.1 C1725.95,1042.63 1727.27,1044.17 1729.42,1044.17 C1732.06,1044.17 1733.1,1042.41 1733.05,1037.62 C1732.77,1029.7 1733.76,1025.85 1739.65,1012.98 C1740.64,1010.84 1741.68,1008.64 1742.67,1006.49 L1742.67,1004.9 C1739.37,1005.17 1737.61,1005.28 1734.2,1005.28 C1729.42,1005.28 1725.62,1005.12 1719.68,1004.68 L1717.98,1017.99 "/>
<path class="Harmony" d="M985.657,1474.51 L983.567,1474.51 L981.367,1477.75 C977.352,1474.84 975.317,1474.07 971.522,1474.07 C966.297,1474.07 961.842,1476.27 958.157,1480.67 C954.637,1484.85 952.987,1489.47 952.987,1495.13 C952.987,1507.01 960.742,1515.43 971.577,1515.43 C980.377,1515.43 985.987,1510.26 987.252,1501.02 L984.667,1500.58 C983.182,1508.77 979.002,1512.84 972.237,1512.84 C964.097,1512.84 960.247,1507.23 960.247,1495.35 C960.247,1489.08 961.072,1484.96 962.942,1481.66 C964.647,1478.58 968.002,1476.65 971.577,1476.65 C975.427,1476.65 978.837,1478.69 980.927,1482.21 C981.972,1484.02 982.742,1486.06 984.062,1490.4 L986.482,1490.4 L985.657,1474.51 "/>
<path class="Harmony" d="M1592.48,1003.3 L1590.39,1003.3 L1588.24,1006.6 C1584.67,1003.8 1582.25,1002.86 1578.23,1002.86 C1573.89,1002.86 1570.48,1004.07 1567.01,1006.88 C1561.57,1011.28 1559.04,1016.83 1559.04,1024.26 C1559.04,1029.87 1560.63,1034.54 1563.88,1038.12 C1567.29,1041.97 1572.35,1044.22 1577.63,1044.22 C1582.25,1044.22 1585.49,1042.79 1589.07,1039.22 L1591.1,1044.17 L1593.41,1044.17 L1593.41,1032.07 C1593.41,1029.26 1593.41,1029.15 1593.74,1028.66 C1594.24,1028.05 1595.23,1027.89 1598.36,1027.89 L1599.19,1027.89 L1599.19,1025.3 L1581.7,1025.3 L1581.7,1027.89 L1582.74,1027.89 C1587.36,1027.89 1587.75,1028.16 1587.75,1031.24 C1587.75,1033.61 1587.36,1035.75 1586.65,1037.07 C1585.27,1039.77 1581.75,1041.64 1578.18,1041.64 C1574.6,1041.64 1571.08,1039.82 1569.21,1037.07 C1567.18,1033.99 1566.3,1030.14 1566.3,1024.26 C1566.3,1011.99 1570.37,1005.45 1578.01,1005.45 C1584.28,1005.45 1588.63,1009.96 1590.88,1018.76 L1593.25,1018.76 L1592.48,1003.3 "/>
<path class="Harmony" d="M1605.21,1017.99 L1607.63,1018.37 L1608.62,1014.03 C1609.44,1010.4 1609.83,1009.85 1611.42,1009.85 C1611.7,1009.85 1612.14,1009.85 1612.63,1009.9 C1619.4,1010.23 1619.4,1010.23 1621.93,1010.23 C1622.64,1010.23 1623.91,1010.23 1625.45,1010.18 L1621.71,1017.71 C1617.64,1025.8 1617.14,1026.79 1615.77,1030.2 C1614.06,1034.32 1613.18,1037.79 1613.18,1040.1 C1613.18,1042.63 1614.5,1044.17 1616.65,1044.17 C1619.29,1044.17 1620.33,1042.41 1620.28,1037.62 C1620,1029.7 1620.99,1025.85 1626.88,1012.98 C1627.87,1010.84 1628.91,1008.64 1629.9,1006.49 L1629.9,1004.9 C1626.6,1005.17 1624.84,1005.28 1621.43,1005.28 C1616.65,1005.28 1612.85,1005.12 1606.91,1004.68 L1605.21,1017.99 "/>
<path class="Harmony" d="M1479.71,1003.3 L1477.62,1003.3 L1475.47,1006.6 C1471.9,1003.8 1469.48,1002.86 1465.46,1002.86 C1461.12,1002.86 1457.71,1004.07 1454.24,1006.88 C1448.8,1011.28 1446.27,1016.83 1446.27,1024.26 C1446.27,1029.87 1447.86,1034.54 1451.11,1038.12 C1454.52,1041.97 1459.58,1044.22 1464.86,1044.22 C1469.48,1044.22 1472.72,1042.79 1476.3,1039.22 L1478.33,1044.17 L1480.64,1044.17 L1480.64,1032.07 C1480.64,1029.26 1480.64,1029.15 1480.97,1028.66 C1481.47,1028.05 1482.46,1027.89 1485.59,1027.89 L1486.42,1027.89 L1486.42,1025.3 L1468.93,1025.3 L1468.93,1027.89 L1469.97,1027.89 C1474.59,1027.89 1474.98,1028.16 1474.98,1031.24 C1474.98,1033.61 1474.59,1035.75 1473.88,1037.07 C1472.5,1039.77 1468.98,1041.64 1465.41,1041.64 C1461.83,1041.64 1458.31,1039.82 1456.44,1037.07 C1454.41,1033.99 1453.53,1030.14 1453.53,1024.26 C1453.53,1011.99 1457.6,1005.45 1465.24,1005.45 C1471.51,1005.45 1475.86,1009.96 1478.11,1018.76 L1480.48,1018.76 L1479.71,1003.3 "/>
<path class="Harmony" d="M1492.44,1017.99 L1494.86,1018.37 L1495.85,1014.03 C1496.67,1010.4 1497.06,1009.85 1498.65,1009.85 C1498.93,1009.85 1499.37,1009.85 1499.86,1009.9 C1506.63,1010.23 1506.63,1010.23 1509.16,1010.23 C1509.87,1010.23 1511.14,1010.23 1512.68,1010.18 L1508.94,1017.71 C1504.87,1025.8 1504.37,1026.79 1503,1030.2 C1501.29,1034.32 1500.41,1037.79 1500.41,1040.1 C1500.41,1042.63 1501.73,1044.17 1503.88,1044.17 C1506.52,1044.17 1507.56,1042.41 1507.51,1037.62 C1507.23,1029.7 1508.22,1025.85 1514.11,1012.98 C1515.1,1010.84 1516.14,1008.64 1517.13,1006.49 L1517.13,1004.9 C1513.83,1005.17 1512.07,1005.28 1508.66,1005.28 C1503.88,1005.28 1500.08,1005.12 1494.14,1004.68 L1492.44,1017.99 "/>
<path class="Harmony" d="M1097.33,1474.51 L1095.24,1474.51 L1093.04,1477.75 C1089.03,1474.84 1086.99,1474.07 1083.2,1474.07 C1077.97,1474.07 1073.52,1476.27 1069.83,1480.67 C1066.31,1484.85 1064.66,1489.47 1064.66,1495.13 C1064.66,1507.01 1072.42,1515.43 1083.25,1515.43 C1092.05,1515.43 1097.66,1510.26 1098.93,1501.02 L1096.34,1500.58 C1094.86,1508.77 1090.68,1512.84 1083.91,1512.84 C1075.77,1512.84 1071.92,1507.23 1071.92,1495.35 C1071.92,1489.08 1072.75,1484.96 1074.62,1481.66 C1076.32,1478.58 1079.68,1476.65 1083.25,1476.65 C1087.1,1476.65 1090.51,1478.69 1092.6,1482.21 C1093.65,1484.02 1094.42,1486.06 1095.74,1490.4 L1098.16,1490.4 L1097.33,1474.51 "/>
<path class="Harmony" d="M1366.94,1003.3 L1364.85,1003.3 L1362.7,1006.6 C1359.13,1003.8 1356.71,1002.86 1352.69,1002.86 C1348.35,1002.86 1344.94,1004.07 1341.47,1006.88 C1336.03,1011.28 1333.5,1016.83 1333.5,1024.26 C1333.5,1029.87 1335.09,1034.54 1338.34,1038.12 C1341.75,1041.97 1346.81,1044.22 1352.09,1044.22 C1356.71,1044.22 1359.95,1042.79 1363.53,1039.22 L1365.56,1044.17 L1367.87,1044.17 L1367.87,1032.07 C1367.87,1029.26 1367.87,1029.15 1368.2,1028.66 C1368.7,1028.05 1369.69,1027.89 1372.82,1027.89 L1373.65,1027.89 L1373.65,1025.3 L1356.16,1025.3 L1356.16,1027.89 L1357.2,1027.89 C1361.82,1027.89 1362.21,1028.16 1362.21,1031.24 C1362.21,1033.61 1361.82,1035.75 1361.11,1037.07 C1359.73,1039.77 1356.21,1041.64 1352.64,1041.64 C1349.06,1041.64 1345.54,1039.82 1343.67,1037.07 C1341.64,1033.99 1340.76,1030.14 1340.76,1024.26 C1340.76,1011.99 1344.83,1005.45 1352.47,1005.45 C1358.74,1005.45 1363.09,1009.96 1365.34,1018.76 L1367.71,1018.76 L1366.94,1003.3 "/>
<path class="Harmony" d="M1379.67,1017.99 L1382.09,1018.37 L1383.08,1014.03 C1383.9,1010.4 1384.29,1009.85 1385.88,1009.85 C1386.16,1009.85 1386.6,1009.85 1387.09,1009.9 C1393.86,1010.23 1393.86,1010.23 1396.39,1010.23 C1397.1,1010.23 1398.37,1010.23 1399.91,1010.18 L1396.17,1017.71 C1392.1,1025.8 1391.6,1026.79 1390.23,1030.2 C1388.52,1034.32 1387.64,1037.79 1387.64,1040.1 C1387.64,1042.63 1388.96,1044.17 1391.11,1044.17 C1393.75,1044.17 1394.79,1042.41 1394.74,1037.62 C1394.46,1029.7 1395.45,1025.85 1401.34,1012.98 C1402.33,1010.84 1403.37,1008.64 1404.36,1006.49 L1404.36,1004.9 C1401.06,1005.17 1399.3,1005.28 1395.89,1005.28 C1391.11,1005.28 1387.31,1005.12 1381.37,1004.68 L1379.67,1017.99 "/>
<path class="Harmony" d="M1216.69,1003.3 L1214.6,1003.3 L1212.4,1006.55 C1208.38,1003.63 1206.35,1002.86 1202.55,1002.86 C1197.33,1002.86 1192.87,1005.06 1189.19,1009.46 C1185.67,1013.64 1184.02,1018.26 1184.02,1023.93 C1184.02,1035.81 1191.77,1044.22 1202.61,1044.22 C1211.41,1044.22 1217.02,1039.05 1218.28,1029.81 L1215.7,1029.37 C1214.21,1037.57 1210.03,1041.64 1203.27,1041.64 C1195.13,1041.64 1191.28,1036.03 1191.28,1024.15 C1191.28,1017.88 1192.1,1013.75 1193.97,1010.45 C1195.68,1007.37 1199.03,1005.45 1202.61,1005.45 C1206.46,1005.45 1209.87,1007.48 1211.96,1011 C1213,1012.82 1213.77,1014.85 1215.09,1019.2 L1217.51,1019.2 L1216.69,1003.3 "/>
<path class="Harmony" d="M1209,1474.51 L1206.91,1474.51 L1204.71,1477.75 C1200.7,1474.84 1198.66,1474.07 1194.87,1474.07 C1189.64,1474.07 1185.19,1476.27 1181.5,1480.67 C1177.98,1484.85 1176.33,1489.47 1176.33,1495.13 C1176.33,1507.01 1184.09,1515.43 1194.92,1515.43 C1203.72,1515.43 1209.33,1510.26 1210.6,1501.02 L1208.01,1500.58 C1206.53,1508.77 1202.35,1512.84 1195.58,1512.84 C1187.44,1512.84 1183.59,1507.23 1183.59,1495.35 C1183.59,1489.08 1184.42,1484.96 1186.29,1481.66 C1187.99,1478.58 1191.35,1476.65 1194.92,1476.65 C1198.77,1476.65 1202.18,1478.69 1204.27,1482.21 C1205.32,1484.02 1206.09,1486.06 1207.41,1490.4 L1209.83,1490.4 L1209,1474.51 "/>
<path class="Harmony" d="M991.921,1003.3 L989.831,1003.3 L987.686,1006.6 C984.111,1003.8 981.691,1002.86 977.676,1002.86 C973.331,1002.86 969.921,1004.07 966.456,1006.88 C961.011,1011.28 958.481,1016.83 958.481,1024.26 C958.481,1029.87 960.076,1034.54 963.321,1038.12 C966.731,1041.97 971.791,1044.22 977.071,1044.22 C981.691,1044.22 984.936,1042.79 988.511,1039.22 L990.546,1044.17 L992.856,1044.17 L992.856,1032.07 C992.856,1029.26 992.856,1029.15 993.186,1028.66 C993.681,1028.05 994.671,1027.89 997.806,1027.89 L998.631,1027.89 L998.631,1025.3 L981.141,1025.3 L981.141,1027.89 L982.186,1027.89 C986.806,1027.89 987.191,1028.16 987.191,1031.24 C987.191,1033.61 986.806,1035.75 986.091,1037.07 C984.716,1039.77 981.196,1041.64 977.621,1041.64 C974.046,1041.64 970.526,1039.82 968.656,1037.07 C966.621,1033.99 965.741,1030.14 965.741,1024.26 C965.741,1011.99 969.811,1005.45 977.456,1005.45 C983.726,1005.45 988.071,1009.96 990.326,1018.76 L992.691,1018.76 L991.921,1003.3 "/>
<path class="Harmony" d="M1004.65,1017.99 L1007.07,1018.37 L1008.06,1014.03 C1008.89,1010.4 1009.27,1009.85 1010.87,1009.85 C1011.14,1009.85 1011.58,1009.85 1012.08,1009.9 C1018.84,1010.23 1018.84,1010.23 1021.37,1010.23 C1022.09,1010.23 1023.35,1010.23 1024.89,1010.18 L1021.15,1017.71 C1017.08,1025.8 1016.59,1026.79 1015.21,1030.2 C1013.51,1034.32 1012.63,1037.79 1012.63,1040.1 C1012.63,1042.63 1013.95,1044.17 1016.09,1044.17 C1018.73,1044.17 1019.78,1042.41 1019.72,1037.62 C1019.45,1029.7 1020.44,1025.85 1026.32,1012.98 C1027.31,1010.84 1028.36,1008.64 1029.35,1006.49 L1029.35,1004.9 C1026.05,1005.17 1024.29,1005.28 1020.88,1005.28 C1016.09,1005.28 1012.3,1005.12 1006.36,1004.68 L1004.65,1017.99 "/>
<path class="Harmony" d="M879.15,1003.3 L877.06,1003.3 L874.915,1006.6 C871.34,1003.8 868.92,1002.86 864.905,1002.86 C860.56,1002.86 857.15,1004.07 853.685,1006.88 C848.24,1011.28 845.71,1016.83 845.71,1024.26 C845.71,1029.87 847.305,1034.54 850.55,1038.12 C853.96,1041.97 859.02,1044.22 864.3,1044.22 C868.92,1044.22 872.165,1042.79 875.74,1039.22 L877.775,1044.17 L880.085,1044.17 L880.085,1032.07 C880.085,1029.26 880.085,1029.15 880.415,1028.66 C880.91,1028.05 881.9,1027.89 885.035,1027.89 L885.86,1027.89 L885.86,1025.3 L868.37,1025.3 L868.37,1027.89 L869.415,1027.89 C874.035,1027.89 874.42,1028.16 874.42,1031.24 C874.42,1033.61 874.035,1035.75 873.32,1037.07 C871.945,1039.77 868.425,1041.64 864.85,1041.64 C861.275,1041.64 857.755,1039.82 855.885,1037.07 C853.85,1033.99 852.97,1030.14 852.97,1024.26 C852.97,1011.99 857.04,1005.45 864.685,1005.45 C870.955,1005.45 875.3,1009.96 877.555,1018.76 L879.92,1018.76 L879.15,1003.3 "/>
<path class="Harmony" d="M891.88,1017.99 L894.3,1018.37 L895.29,1014.03 C896.115,1010.4 896.5,1009.85 898.095,1009.85 C898.37,1009.85 898.81,1009.85 899.305,1009.9 C906.07,1010.23 906.07,1010.23 908.6,1010.23 C909.315,1010.23 910.58,1010.23 912.12,1010.18 L908.38,1017.71 C904.31,1025.8 903.815,1026.79 902.44,1030.2 C900.735,1034.32 899.855,1037.79 899.855,1040.1 C899.855,1042.63 901.175,1044.17 903.32,1044.17 C905.96,1044.17 907.005,1042.41 906.95,1037.62 C906.675,1029.7 907.665,1025.85 913.55,1012.98 C914.54,1010.84 915.585,1008.64 916.575,1006.49 L916.575,1004.9 C913.275,1005.17 911.515,1005.28 908.105,1005.28 C903.32,1005.28 899.525,1005.12 893.585,1004.68 L891.88,1017.99 "/>
<path class="Harmony" d="M728.899,1003.3 L726.809,1003.3 L724.609,1006.55 C720.594,1003.63 718.559,1002.86 714.764,1002.86 C709.539,1002.86 705.084,1005.06 701.399,1009.46 C697.879,1013.64 696.229,1018.26 696.229,1023.93 C696.229,1035.81 703.984,1044.22 714.819,1044.22 C723.619,1044.22 729.229,1039.05 730.494,1029.81 L727.909,1029.37 C726.424,1037.57 722.244,1041.64 715.479,1041.64 C707.339,1041.64 703.489,1036.03 703.489,1024.15 C703.489,1017.88 704.314,1013.75 706.184,1010.45 C707.889,1007.37 711.244,1005.45 714.819,1005.45 C718.669,1005.45 722.079,1007.48 724.169,1011 C725.214,1012.82 725.984,1014.85 727.304,1019.2 L729.724,1019.2 L728.899,1003.3 "/>
<path class="Harmony" d="M616.128,1003.3 L614.038,1003.3 L611.838,1006.55 C607.823,1003.63 605.788,1002.86 601.993,1002.86 C596.768,1002.86 592.313,1005.06 588.628,1009.46 C585.108,1013.64 583.458,1018.26 583.458,1023.93 C583.458,1035.81 591.213,1044.22 602.048,1044.22 C610.848,1044.22 616.458,1039.05 617.723,1029.81 L615.138,1029.37 C613.653,1037.57 609.473,1041.64 602.708,1041.64 C594.568,1041.64 590.718,1036.03 590.718,1024.15 C590.718,1017.88 591.543,1013.75 593.413,1010.45 C595.118,1007.37 598.473,1005.45 602.048,1005.45 C605.898,1005.45 609.308,1007.48 611.398,1011 C612.443,1012.82 613.213,1014.85 614.533,1019.2 L616.953,1019.2 L616.128,1003.3 "/>
<path class="Harmony" d="M1357.38,1474.51 L1355.29,1474.51 L1353.09,1477.75 C1349.08,1474.84 1347.04,1474.07 1343.25,1474.07 C1338.02,1474.07 1333.57,1476.27 1329.88,1480.67 C1326.36,1484.85 1324.71,1489.47 1324.71,1495.13 C1324.71,1507.01 1332.47,1515.43 1343.3,1515.43 C1352.1,1515.43 1357.71,1510.26 1358.98,1501.02 L1356.39,1500.58 C1354.91,1508.77 1350.73,1512.84 1343.96,1512.84 C1335.82,1512.84 1331.97,1507.23 1331.97,1495.35 C1331.97,1489.08 1332.8,1484.96 1334.67,1481.66 C1336.37,1478.58 1339.73,1476.65 1343.3,1476.65 C1347.15,1476.65 1350.56,1478.69 1352.65,1482.21 C1353.7,1484.02 1354.47,1486.06 1355.79,1490.4 L1358.21,1490.4 L1357.38,1474.51 "/>
<path class="Harmony" d="M503.408,1003.69 L470.683,1003.69 L470.683,1006.27 L471.673,1006.27 C474.808,1006.33 475.853,1006.49 476.293,1007.04 C476.623,1007.54 476.623,1007.65 476.623,1010.45 L476.623,1036.63 C476.623,1039.44 476.623,1039.55 476.293,1040.04 C475.853,1040.59 474.808,1040.81 471.673,1040.81 L470.683,1040.81 L470.683,1043.4 L489.548,1043.4 L489.548,1040.81 L487.733,1040.81 C484.598,1040.81 483.553,1040.59 483.113,1040.04 C482.783,1039.55 482.783,1039.38 482.783,1036.63 L482.783,1024.15 L483.883,1024.15 C489.548,1023.93 491.583,1025.96 491.803,1032.07 L494.388,1032.07 L494.388,1014.03 L491.803,1014.03 C491.473,1019.42 489.328,1021.51 484.103,1021.56 L482.783,1021.56 L482.783,1009.02 C482.728,1006.71 483.278,1006.33 486.248,1006.27 L488.778,1006.27 C497.798,1006.22 500.053,1008.25 501.758,1017.71 L504.178,1017.71 L503.408,1003.69 "/>
<path class="Harmony" d="M390.637,1003.69 L357.912,1003.69 L357.912,1006.27 L358.902,1006.27 C362.037,1006.33 363.082,1006.49 363.522,1007.04 C363.852,1007.54 363.852,1007.65 363.852,1010.45 L363.852,1036.63 C363.852,1039.44 363.852,1039.55 363.522,1040.04 C363.082,1040.59 362.037,1040.81 358.902,1040.81 L357.912,1040.81 L357.912,1043.4 L376.777,1043.4 L376.777,1040.81 L374.962,1040.81 C371.827,1040.81 370.782,1040.59 370.342,1040.04 C370.012,1039.55 370.012,1039.38 370.012,1036.63 L370.012,1024.15 L371.112,1024.15 C376.777,1023.93 378.812,1025.96 379.032,1032.07 L381.617,1032.07 L381.617,1014.03 L379.032,1014.03 C378.702,1019.42 376.557,1021.51 371.332,1021.56 L370.012,1021.56 L370.012,1009.02 C369.957,1006.71 370.507,1006.33 373.477,1006.27 L376.007,1006.27 C385.027,1006.22 387.282,1008.25 388.987,1017.71 L391.407,1017.71 L390.637,1003.69 "/>
<path class="Harmony" d="M1469.05,1474.51 L1466.96,1474.51 L1464.76,1477.75 C1460.75,1474.84 1458.71,1474.07 1454.92,1474.07 C1449.69,1474.07 1445.24,1476.27 1441.55,1480.67 C1438.03,1484.85 1436.38,1489.47 1436.38,1495.13 C1436.38,1507.01 1444.14,1515.43 1454.97,1515.43 C1463.77,1515.43 1469.38,1510.26 1470.65,1501.02 L1468.06,1500.58 C1466.58,1508.77 1462.4,1512.84 1455.63,1512.84 C1447.49,1512.84 1443.64,1507.23 1443.64,1495.35 C1443.64,1489.08 1444.47,1484.96 1446.34,1481.66 C1448.04,1478.58 1451.4,1476.65 1454.97,1476.65 C1458.82,1476.65 1462.23,1478.69 1464.32,1482.21 C1465.37,1484.02 1466.14,1486.06 1467.46,1490.4 L1469.88,1490.4 L1469.05,1474.51 "/>
<path class="Harmony" d="M2702.65,532.104 L2700.56,532.104 L2698.36,535.349 C2694.35,532.434 2692.31,531.664 2688.52,531.664 C2683.29,531.664 2678.84,533.864 2675.15,538.264 C2671.63,542.444 2669.98,547.064 2669.98,552.729 C2669.98,564.609 2677.74,573.024 2688.57,573.024 C2697.37,573.024 2702.98,567.854 2704.25,558.614 L2701.66,558.174 C2700.18,566.369 2696,570.439 2689.23,570.439 C2681.09,570.439 2677.24,564.829 2677.24,552.949 C2677.24,546.679 2678.07,542.554 2679.94,539.254 C2681.64,536.174 2685,534.249 2688.57,534.249 C2692.42,534.249 2695.83,536.284 2697.92,539.804 C2698.97,541.619 2699.74,543.654 2701.06,547.999 L2703.48,547.999 L2702.65,532.104 "/>
<path class="Harmony" d="M2612.49,532.104 L2610.4,532.104 L2608.2,535.349 C2604.19,532.434 2602.15,531.664 2598.36,531.664 C2593.13,531.664 2588.68,533.864 2584.99,538.264 C2581.47,542.444 2579.82,547.064 2579.82,552.729 C2579.82,564.609 2587.58,573.024 2598.41,573.024 C2607.21,573.024 2612.82,567.854 2614.09,558.614 L2611.5,558.174 C2610.02,566.369 2605.84,570.439 2599.07,570.439 C2590.93,570.439 2587.08,564.829 2587.08,552.949 C2587.08,546.679 2587.91,542.554 2589.78,539.254 C2591.48,536.174 2594.84,534.249 2598.41,534.249 C2602.26,534.249 2605.67,536.284 2607.76,539.804 C2608.81,541.619 2609.58,543.654 2610.9,547.999 L2613.32,547.999 L2612.49,532.104 "/>
<path class="Harmony" d="M1580.73,1474.51 L1578.64,1474.51 L1576.44,1477.75 C1572.42,1474.84 1570.39,1474.07 1566.59,1474.07 C1561.37,1474.07 1556.91,1476.27 1553.23,1480.67 C1549.71,1484.85 1548.06,1489.47 1548.06,1495.13 C1548.06,1507.01 1555.81,1515.43 1566.65,1515.43 C1575.45,1515.43 1581.06,1510.26 1582.32,1501.02 L1579.74,1500.58 C1578.25,1508.77 1574.07,1512.84 1567.31,1512.84 C1559.17,1512.84 1555.32,1507.23 1555.32,1495.35 C1555.32,1489.08 1556.14,1484.96 1558.01,1481.66 C1559.72,1478.58 1563.07,1476.65 1566.65,1476.65 C1570.5,1476.65 1573.91,1478.69 1576,1482.21 C1577.04,1484.02 1577.81,1486.06 1579.13,1490.4 L1581.55,1490.4 L1580.73,1474.51 "/>
<path class="Harmony" d="M2522.33,532.104 L2520.24,532.104 L2518.04,535.349 C2514.03,532.434 2511.99,531.664 2508.2,531.664 C2502.97,531.664 2498.52,533.864 2494.83,538.264 C2491.31,542.444 2489.66,547.064 2489.66,552.729 C2489.66,564.609 2497.42,573.024 2508.25,573.024 C2517.05,573.024 2522.66,567.854 2523.93,558.614 L2521.34,558.174 C2519.86,566.369 2515.68,570.439 2508.91,570.439 C2500.77,570.439 2496.92,564.829 2496.92,552.949 C2496.92,546.679 2497.75,542.554 2499.62,539.254 C2501.32,536.174 2504.68,534.249 2508.25,534.249 C2512.1,534.249 2515.51,536.284 2517.6,539.804 C2518.65,541.619 2519.42,543.654 2520.74,547.999 L2523.16,547.999 L2522.33,532.104 "/>
<path class="Harmony" d="M2432.17,532.104 L2430.08,532.104 L2427.88,535.349 C2423.87,532.434 2421.83,531.664 2418.04,531.664 C2412.81,531.664 2408.36,533.864 2404.67,538.264 C2401.15,542.444 2399.5,547.064 2399.5,552.729 C2399.5,564.609 2407.26,573.024 2418.09,573.024 C2426.89,573.024 2432.5,567.854 2433.77,558.614 L2431.18,558.174 C2429.7,566.369 2425.52,570.439 2418.75,570.439 C2410.61,570.439 2406.76,564.829 2406.76,552.949 C2406.76,546.679 2407.59,542.554 2409.46,539.254 C2411.16,536.174 2414.52,534.249 2418.09,534.249 C2421.94,534.249 2425.35,536.284 2427.44,539.804 C2428.49,541.619 2429.26,543.654 2430.58,547.999 L2433,547.999 L2432.17,532.104 "/>
<path class="Harmony" d="M1692.4,1474.51 L1690.31,1474.51 L1688.11,1477.75 C1684.1,1474.84 1682.06,1474.07 1678.27,1474.07 C1673.04,1474.07 1668.59,1476.27 1664.9,1480.67 C1661.38,1484.85 1659.73,1489.47 1659.73,1495.13 C1659.73,1507.01 1667.49,1515.43 1678.32,1515.43 C1687.12,1515.43 1692.73,1510.26 1694,1501.02 L1691.41,1500.58 C1689.93,1508.77 1685.75,1512.84 1678.98,1512.84 C1670.84,1512.84 1666.99,1507.23 1666.99,1495.35 C1666.99,1489.08 1667.82,1484.96 1669.69,1481.66 C1671.39,1478.58 1674.75,1476.65 1678.32,1476.65 C1682.17,1476.65 1685.58,1478.69 1687.67,1482.21 C1688.72,1484.02 1689.49,1486.06 1690.81,1490.4 L1693.23,1490.4 L1692.4,1474.51 "/>
<path class="Harmony" d="M2305.31,532.104 L2303.22,532.104 L2301.02,535.349 C2297,532.434 2294.97,531.664 2291.17,531.664 C2285.95,531.664 2281.49,533.864 2277.81,538.264 C2274.29,542.444 2272.64,547.064 2272.64,552.729 C2272.64,564.609 2280.39,573.024 2291.23,573.024 C2300.03,573.024 2305.64,567.854 2306.9,558.614 L2304.32,558.174 C2302.83,566.369 2298.65,570.439 2291.89,570.439 C2283.75,570.439 2279.9,564.829 2279.9,552.949 C2279.9,546.679 2280.72,542.554 2282.59,539.254 C2284.3,536.174 2287.65,534.249 2291.23,534.249 C2295.08,534.249 2298.49,536.284 2300.58,539.804 C2301.62,541.619 2302.39,543.654 2303.71,547.999 L2306.13,547.999 L2305.31,532.104 "/>
<path class="Harmony" d="M2215.15,532.104 L2213.06,532.104 L2210.86,535.349 C2206.84,532.434 2204.81,531.664 2201.01,531.664 C2195.79,531.664 2191.33,533.864 2187.65,538.264 C2184.13,542.444 2182.48,547.064 2182.48,552.729 C2182.48,564.609 2190.23,573.024 2201.07,573.024 C2209.87,573.024 2215.48,567.854 2216.74,558.614 L2214.16,558.174 C2212.67,566.369 2208.49,570.439 2201.73,570.439 C2193.59,570.439 2189.74,564.829 2189.74,552.949 C2189.74,546.679 2190.56,542.554 2192.43,539.254 C2194.14,536.174 2197.49,534.249 2201.07,534.249 C2204.92,534.249 2208.33,536.284 2210.42,539.804 C2211.46,541.619 2212.23,543.654 2213.55,547.999 L2215.97,547.999 L2215.15,532.104 "/>
<path class="Harmony" d="M2124.99,532.104 L2122.9,532.104 L2120.7,535.349 C2116.68,532.434 2114.65,531.664 2110.85,531.664 C2105.63,531.664 2101.17,533.864 2097.49,538.264 C2093.97,542.444 2092.32,547.064 2092.32,552.729 C2092.32,564.609 2100.07,573.024 2110.91,573.024 C2119.71,573.024 2125.32,567.854 2126.58,558.614 L2124,558.174 C2122.51,566.369 2118.33,570.439 2111.57,570.439 C2103.43,570.439 2099.58,564.829 2099.58,552.949 C2099.58,546.679 2100.4,542.554 2102.27,539.254 C2103.98,536.174 2107.33,534.249 2110.91,534.249 C2114.76,534.249 2118.17,536.284 2120.26,539.804 C2121.3,541.619 2122.07,543.654 2123.39,547.999 L2125.81,547.999 L2124.99,532.104 "/>
<path class="Harmony" d="M2034.83,532.104 L2032.74,532.104 L2030.54,535.349 C2026.52,532.434 2024.49,531.664 2020.69,531.664 C2015.47,531.664 2011.01,533.864 2007.33,538.264 C2003.81,542.444 2002.16,547.064 2002.16,552.729 C2002.16,564.609 2009.91,573.024 2020.75,573.024 C2029.55,573.024 2035.16,567.854 2036.42,558.614 L2033.84,558.174 C2032.35,566.369 2028.17,570.439 2021.41,570.439 C2013.27,570.439 2009.42,564.829 2009.42,552.949 C2009.42,546.679 2010.24,542.554 2012.11,539.254 C2013.82,536.174 2017.17,534.249 2020.75,534.249 C2024.6,534.249 2028.01,536.284 2030.1,539.804 C2031.14,541.619 2031.91,543.654 2033.23,547.999 L2035.65,547.999 L2034.83,532.104 "/>
<path class="Harmony" d="M1840.83,1474.89 L1808.1,1474.89 L1808.1,1477.48 L1809.09,1477.48 C1812.23,1477.53 1813.27,1477.7 1813.71,1478.25 C1814.04,1478.74 1814.04,1478.85 1814.04,1481.66 L1814.04,1507.84 C1814.04,1510.64 1814.04,1510.75 1813.71,1511.25 C1813.27,1511.8 1812.23,1512.02 1809.09,1512.02 L1808.1,1512.02 L1808.1,1514.6 L1826.97,1514.6 L1826.97,1512.02 L1825.15,1512.02 C1822.02,1512.02 1820.97,1511.8 1820.53,1511.25 C1820.2,1510.75 1820.2,1510.59 1820.2,1507.84 L1820.2,1495.35 L1821.3,1495.35 C1826.97,1495.13 1829,1497.17 1829.22,1503.27 L1831.81,1503.27 L1831.81,1485.23 L1829.22,1485.23 C1828.89,1490.62 1826.75,1492.71 1821.52,1492.77 L1820.2,1492.77 L1820.2,1480.23 C1820.15,1477.92 1820.7,1477.53 1823.67,1477.48 L1826.2,1477.48 C1835.22,1477.42 1837.47,1479.46 1839.18,1488.92 L1841.6,1488.92 L1840.83,1474.89 "/>
<path class="Harmony" d="M1907.96,532.104 L1905.87,532.104 L1903.67,535.349 C1899.66,532.434 1897.62,531.664 1893.83,531.664 C1888.6,531.664 1884.15,533.864 1880.46,538.264 C1876.94,542.444 1875.29,547.064 1875.29,552.729 C1875.29,564.609 1883.05,573.024 1893.88,573.024 C1902.68,573.024 1908.29,567.854 1909.56,558.614 L1906.97,558.174 C1905.49,566.369 1901.31,570.439 1894.54,570.439 C1886.4,570.439 1882.55,564.829 1882.55,552.949 C1882.55,546.679 1883.38,542.554 1885.25,539.254 C1886.95,536.174 1890.31,534.249 1893.88,534.249 C1897.73,534.249 1901.14,536.284 1903.23,539.804 C1904.28,541.619 1905.05,543.654 1906.37,547.999 L1908.79,547.999 L1907.96,532.104 "/>
<path class="Harmony" d="M1817.8,532.104 L1815.71,532.104 L1813.51,535.349 C1809.5,532.434 1807.46,531.664 1803.67,531.664 C1798.44,531.664 1793.99,533.864 1790.3,538.264 C1786.78,542.444 1785.13,547.064 1785.13,552.729 C1785.13,564.609 1792.89,573.024 1803.72,573.024 C1812.52,573.024 1818.13,567.854 1819.4,558.614 L1816.81,558.174 C1815.33,566.369 1811.15,570.439 1804.38,570.439 C1796.24,570.439 1792.39,564.829 1792.39,552.949 C1792.39,546.679 1793.22,542.554 1795.09,539.254 C1796.79,536.174 1800.15,534.249 1803.72,534.249 C1807.57,534.249 1810.98,536.284 1813.07,539.804 C1814.12,541.619 1814.89,543.654 1816.21,547.999 L1818.63,547.999 L1817.8,532.104 "/>
<path class="Harmony" d="M1952.5,1474.89 L1919.78,1474.89 L1919.78,1477.48 L1920.77,1477.48 C1923.9,1477.53 1924.95,1477.7 1925.39,1478.25 C1925.72,1478.74 1925.72,1478.85 1925.72,1481.66 L1925.72,1507.84 C1925.72,1510.64 1925.72,1510.75 1925.39,1511.25 C1924.95,1511.8 1923.9,1512.02 1920.77,1512.02 L1919.78,1512.02 L1919.78,1514.6 L1938.64,1514.6 L1938.64,1512.02 L1936.83,1512.02 C1933.69,1512.02 1932.65,1511.8 1932.21,1511.25 C1931.88,1510.75 1931.88,1510.59 1931.88,1507.84 L1931.88,1495.35 L1932.98,1495.35 C1938.64,1495.13 1940.68,1497.17 1940.9,1503.27 L1943.48,1503.27 L1943.48,1485.23 L1940.9,1485.23 C1940.57,1490.62 1938.42,1492.71 1933.2,1492.77 L1931.88,1492.77 L1931.88,1480.23 C1931.82,1477.92 1932.37,1477.53 1935.34,1477.48 L1937.87,1477.48 C1946.89,1477.42 1949.15,1479.46 1950.85,1488.92 L1953.27,1488.92 L1952.5,1474.89 "/>
<path class="Harmony" d="M1727.64,532.104 L1725.55,532.104 L1723.35,535.349 C1719.34,532.434 1717.3,531.664 1713.51,531.664 C1708.28,531.664 1703.83,533.864 1700.14,538.264 C1696.62,542.444 1694.97,547.064 1694.97,552.729 C1694.97,564.609 1702.73,573.024 1713.56,573.024 C1722.36,573.024 1727.97,567.854 1729.24,558.614 L1726.65,558.174 C1725.17,566.369 1720.99,570.439 1714.22,570.439 C1706.08,570.439 1702.23,564.829 1702.23,552.949 C1702.23,546.679 1703.06,542.554 1704.93,539.254 C1706.63,536.174 1709.99,534.249 1713.56,534.249 C1717.41,534.249 1720.82,536.284 1722.91,539.804 C1723.96,541.619 1724.73,543.654 1726.05,547.999 L1728.47,547.999 L1727.64,532.104 "/>
<path class="Harmony" d="M1637.48,532.104 L1635.39,532.104 L1633.19,535.349 C1629.18,532.434 1627.14,531.664 1623.35,531.664 C1618.12,531.664 1613.67,533.864 1609.98,538.264 C1606.46,542.444 1604.81,547.064 1604.81,552.729 C1604.81,564.609 1612.57,573.024 1623.4,573.024 C1632.2,573.024 1637.81,567.854 1639.08,558.614 L1636.49,558.174 C1635.01,566.369 1630.83,570.439 1624.06,570.439 C1615.92,570.439 1612.07,564.829 1612.07,552.949 C1612.07,546.679 1612.9,542.554 1614.77,539.254 C1616.47,536.174 1619.83,534.249 1623.4,534.249 C1627.25,534.249 1630.66,536.284 1632.75,539.804 C1633.8,541.619 1634.57,543.654 1635.89,547.999 L1638.31,547.999 L1637.48,532.104 "/>
<path class="Harmony" d="M2064.12,1474.51 L2062.03,1474.51 L2059.83,1477.75 C2055.82,1474.84 2053.78,1474.07 2049.99,1474.07 C2044.76,1474.07 2040.31,1476.27 2036.62,1480.67 C2033.1,1484.85 2031.45,1489.47 2031.45,1495.13 C2031.45,1507.01 2039.21,1515.43 2050.04,1515.43 C2058.84,1515.43 2064.45,1510.26 2065.72,1501.02 L2063.13,1500.58 C2061.65,1508.77 2057.47,1512.84 2050.7,1512.84 C2042.56,1512.84 2038.71,1507.23 2038.71,1495.35 C2038.71,1489.08 2039.54,1484.96 2041.41,1481.66 C2043.11,1478.58 2046.47,1476.65 2050.04,1476.65 C2053.89,1476.65 2057.3,1478.69 2059.39,1482.21 C2060.44,1484.02 2061.21,1486.06 2062.53,1490.4 L2064.95,1490.4 L2064.12,1474.51 "/>
<path class="Harmony" d="M1510.62,532.104 L1508.53,532.104 L1506.33,535.349 C1502.31,532.434 1500.28,531.664 1496.48,531.664 C1491.26,531.664 1486.8,533.864 1483.12,538.264 C1479.6,542.444 1477.95,547.064 1477.95,552.729 C1477.95,564.609 1485.7,573.024 1496.54,573.024 C1505.34,573.024 1510.95,567.854 1512.21,558.614 L1509.63,558.174 C1508.14,566.369 1503.96,570.439 1497.2,570.439 C1489.06,570.439 1485.21,564.829 1485.21,552.949 C1485.21,546.679 1486.03,542.554 1487.9,539.254 C1489.61,536.174 1492.96,534.249 1496.54,534.249 C1500.39,534.249 1503.8,536.284 1505.89,539.804 C1506.93,541.619 1507.7,543.654 1509.02,547.999 L1511.44,547.999 L1510.62,532.104 "/>
<path class="Harmony" d="M1420.46,532.104 L1418.37,532.104 L1416.17,535.349 C1412.15,532.434 1410.12,531.664 1406.32,531.664 C1401.1,531.664 1396.64,533.864 1392.96,538.264 C1389.44,542.444 1387.79,547.064 1387.79,552.729 C1387.79,564.609 1395.54,573.024 1406.38,573.024 C1415.18,573.024 1420.79,567.854 1422.05,558.614 L1419.47,558.174 C1417.98,566.369 1413.8,570.439 1407.04,570.439 C1398.9,570.439 1395.05,564.829 1395.05,552.949 C1395.05,546.679 1395.87,542.554 1397.74,539.254 C1399.45,536.174 1402.8,534.249 1406.38,534.249 C1410.23,534.249 1413.64,536.284 1415.73,539.804 C1416.77,541.619 1417.54,543.654 1418.86,547.999 L1421.28,547.999 L1420.46,532.104 "/>
<path class="Harmony" d="M2175.8,1474.51 L2173.71,1474.51 L2171.51,1477.75 C2167.49,1474.84 2165.46,1474.07 2161.66,1474.07 C2156.44,1474.07 2151.98,1476.27 2148.3,1480.67 C2144.78,1484.85 2143.13,1489.47 2143.13,1495.13 C2143.13,1507.01 2150.88,1515.43 2161.72,1515.43 C2170.52,1515.43 2176.13,1510.26 2177.39,1501.02 L2174.81,1500.58 C2173.32,1508.77 2169.14,1512.84 2162.38,1512.84 C2154.24,1512.84 2150.39,1507.23 2150.39,1495.35 C2150.39,1489.08 2151.21,1484.96 2153.08,1481.66 C2154.79,1478.58 2158.14,1476.65 2161.72,1476.65 C2165.57,1476.65 2168.98,1478.69 2171.07,1482.21 C2172.11,1484.02 2172.88,1486.06 2174.2,1490.4 L2176.62,1490.4 L2175.8,1474.51 "/>
<path class="Harmony" d="M1330.34,532.489 L1297.62,532.489 L1297.62,535.074 L1298.61,535.074 C1301.74,535.129 1302.79,535.294 1303.23,535.844 C1303.56,536.339 1303.56,536.449 1303.56,539.254 L1303.56,565.434 C1303.56,568.239 1303.56,568.349 1303.23,568.844 C1302.79,569.394 1301.74,569.614 1298.61,569.614 L1297.62,569.614 L1297.62,572.199 L1316.48,572.199 L1316.48,569.614 L1314.67,569.614 C1311.53,569.614 1310.49,569.394 1310.05,568.844 C1309.72,568.349 1309.72,568.184 1309.72,565.434 L1309.72,552.949 L1310.82,552.949 C1316.48,552.729 1318.52,554.764 1318.74,560.869 L1321.32,560.869 L1321.32,542.829 L1318.74,542.829 C1318.41,548.219 1316.26,550.309 1311.04,550.364 L1309.72,550.364 L1309.72,537.824 C1309.66,535.514 1310.21,535.129 1313.18,535.074 L1315.71,535.074 C1324.73,535.019 1326.99,537.054 1328.69,546.514 L1331.11,546.514 L1330.34,532.489 "/>
<path class="Harmony" d="M1240.18,532.489 L1207.46,532.489 L1207.46,535.074 L1208.45,535.074 C1211.58,535.129 1212.63,535.294 1213.07,535.844 C1213.4,536.339 1213.4,536.449 1213.4,539.254 L1213.4,565.434 C1213.4,568.239 1213.4,568.349 1213.07,568.844 C1212.63,569.394 1211.58,569.614 1208.45,569.614 L1207.46,569.614 L1207.46,572.199 L1226.32,572.199 L1226.32,569.614 L1224.51,569.614 C1221.37,569.614 1220.33,569.394 1219.89,568.844 C1219.56,568.349 1219.56,568.184 1219.56,565.434 L1219.56,552.949 L1220.66,552.949 C1226.32,552.729 1228.36,554.764 1228.58,560.869 L1231.16,560.869 L1231.16,542.829 L1228.58,542.829 C1228.25,548.219 1226.1,550.309 1220.88,550.364 L1219.56,550.364 L1219.56,537.824 C1219.5,535.514 1220.05,535.129 1223.02,535.074 L1225.55,535.074 C1234.57,535.019 1236.83,537.054 1238.53,546.514 L1240.95,546.514 L1240.18,532.489 "/>
<path class="Harmony" d="M1113.27,532.104 L1111.18,532.104 L1108.98,535.349 C1104.96,532.434 1102.93,531.664 1099.13,531.664 C1093.91,531.664 1089.45,533.864 1085.77,538.264 C1082.25,542.444 1080.6,547.064 1080.6,552.729 C1080.6,564.609 1088.35,573.024 1099.19,573.024 C1107.99,573.024 1113.6,567.854 1114.86,558.614 L1112.28,558.174 C1110.79,566.369 1106.61,570.439 1099.85,570.439 C1091.71,570.439 1087.86,564.829 1087.86,552.949 C1087.86,546.679 1088.68,542.554 1090.55,539.254 C1092.26,536.174 1095.61,534.249 1099.19,534.249 C1103.04,534.249 1106.45,536.284 1108.54,539.804 C1109.58,541.619 1110.35,543.654 1111.67,547.999 L1114.09,547.999 L1113.27,532.104 "/>
<path class="Harmony" d="M1023.11,532.104 L1021.02,532.104 L1018.82,535.349 C1014.8,532.434 1012.77,531.664 1008.97,531.664 C1003.75,531.664 999.294,533.864 995.609,538.264 C992.089,542.444 990.439,547.064 990.439,552.729 C990.439,564.609 998.194,573.024 1009.03,573.024 C1017.83,573.024 1023.44,567.854 1024.7,558.614 L1022.12,558.174 C1020.63,566.369 1016.45,570.439 1009.69,570.439 C1001.55,570.439 997.699,564.829 997.699,552.949 C997.699,546.679 998.524,542.554 1000.39,539.254 C1002.1,536.174 1005.45,534.249 1009.03,534.249 C1012.88,534.249 1016.29,536.284 1018.38,539.804 C1019.42,541.619 1020.19,543.654 1021.51,547.999 L1023.93,547.999 L1023.11,532.104 "/>
<path class="Harmony" d="M2324.95,1474.51 L2322.86,1474.51 L2320.72,1477.81 C2317.14,1475 2314.72,1474.07 2310.71,1474.07 C2306.36,1474.07 2302.95,1475.28 2299.49,1478.08 C2294.04,1482.48 2291.51,1488.04 2291.51,1495.46 C2291.51,1501.07 2293.11,1505.75 2296.35,1509.32 C2299.76,1513.17 2304.82,1515.43 2310.1,1515.43 C2314.72,1515.43 2317.97,1514 2321.54,1510.42 L2323.58,1515.37 L2325.89,1515.37 L2325.89,1503.27 C2325.89,1500.47 2325.89,1500.36 2326.22,1499.86 C2326.71,1499.26 2327.7,1499.09 2330.84,1499.09 L2331.66,1499.09 L2331.66,1496.51 L2314.17,1496.51 L2314.17,1499.09 L2315.22,1499.09 C2319.84,1499.09 2320.22,1499.37 2320.22,1502.45 C2320.22,1504.81 2319.84,1506.96 2319.12,1508.28 C2317.75,1510.97 2314.23,1512.84 2310.65,1512.84 C2307.08,1512.84 2303.56,1511.03 2301.69,1508.28 C2299.65,1505.2 2298.77,1501.35 2298.77,1495.46 C2298.77,1483.2 2302.84,1476.65 2310.49,1476.65 C2316.76,1476.65 2321.1,1481.16 2323.36,1489.96 L2325.72,1489.96 L2324.95,1474.51 "/>
<path class="Harmony" d="M2337.68,1489.19 L2340.1,1489.58 L2341.09,1485.23 C2341.92,1481.6 2342.3,1481.05 2343.9,1481.05 C2344.17,1481.05 2344.61,1481.05 2345.11,1481.11 C2351.87,1481.44 2351.87,1481.44 2354.4,1481.44 C2355.12,1481.44 2356.38,1481.44 2357.92,1481.38 L2354.18,1488.92 C2350.11,1497 2349.62,1497.99 2348.24,1501.4 C2346.54,1505.53 2345.66,1508.99 2345.66,1511.3 C2345.66,1513.83 2346.98,1515.37 2349.12,1515.37 C2351.76,1515.37 2352.81,1513.61 2352.75,1508.83 C2352.48,1500.91 2353.47,1497.06 2359.35,1484.19 C2360.34,1482.04 2361.39,1479.84 2362.38,1477.7 L2362.38,1476.1 C2359.08,1476.38 2357.32,1476.49 2353.91,1476.49 C2349.12,1476.49 2345.33,1476.32 2339.39,1475.88 L2337.68,1489.19 "/>
<path class="Harmony" d="M932.949,532.104 L930.859,532.104 L928.659,535.349 C924.644,532.434 922.609,531.664 918.814,531.664 C913.589,531.664 909.134,533.864 905.449,538.264 C901.929,542.444 900.279,547.064 900.279,552.729 C900.279,564.609 908.034,573.024 918.869,573.024 C927.669,573.024 933.279,567.854 934.544,558.614 L931.959,558.174 C930.474,566.369 926.294,570.439 919.529,570.439 C911.389,570.439 907.539,564.829 907.539,552.949 C907.539,546.679 908.364,542.554 910.234,539.254 C911.939,536.174 915.294,534.249 918.869,534.249 C922.719,534.249 926.129,536.284 928.219,539.804 C929.264,541.619 930.034,543.654 931.354,547.999 L933.774,547.999 L932.949,532.104 "/>
<path class="Harmony" d="M842.788,532.104 L840.698,532.104 L838.498,535.349 C834.483,532.434 832.448,531.664 828.653,531.664 C823.428,531.664 818.973,533.864 815.288,538.264 C811.768,542.444 810.118,547.064 810.118,552.729 C810.118,564.609 817.873,573.024 828.708,573.024 C837.508,573.024 843.118,567.854 844.383,558.614 L841.798,558.174 C840.313,566.369 836.133,570.439 829.368,570.439 C821.228,570.439 817.378,564.829 817.378,552.949 C817.378,546.679 818.203,542.554 820.073,539.254 C821.778,536.174 825.133,534.249 828.708,534.249 C832.558,534.249 835.968,536.284 838.058,539.804 C839.103,541.619 839.873,543.654 841.193,547.999 L843.613,547.999 L842.788,532.104 "/>
<path class="Harmony" d="M2436.62,1474.51 L2434.53,1474.51 L2432.39,1477.81 C2428.81,1475 2426.39,1474.07 2422.38,1474.07 C2418.03,1474.07 2414.62,1475.28 2411.16,1478.08 C2405.71,1482.48 2403.18,1488.04 2403.18,1495.46 C2403.18,1501.07 2404.78,1505.75 2408.02,1509.32 C2411.43,1513.17 2416.49,1515.43 2421.77,1515.43 C2426.39,1515.43 2429.64,1514 2433.21,1510.42 L2435.25,1515.37 L2437.56,1515.37 L2437.56,1503.27 C2437.56,1500.47 2437.56,1500.36 2437.89,1499.86 C2438.38,1499.26 2439.37,1499.09 2442.51,1499.09 L2443.33,1499.09 L2443.33,1496.51 L2425.84,1496.51 L2425.84,1499.09 L2426.89,1499.09 C2431.51,1499.09 2431.89,1499.37 2431.89,1502.45 C2431.89,1504.81 2431.51,1506.96 2430.79,1508.28 C2429.42,1510.97 2425.9,1512.84 2422.32,1512.84 C2418.75,1512.84 2415.23,1511.03 2413.36,1508.28 C2411.32,1505.2 2410.44,1501.35 2410.44,1495.46 C2410.44,1483.2 2414.51,1476.65 2422.16,1476.65 C2428.43,1476.65 2432.77,1481.16 2435.03,1489.96 L2437.39,1489.96 L2436.62,1474.51 "/>
<path class="Harmony" d="M2449.35,1489.19 L2451.77,1489.58 L2452.76,1485.23 C2453.59,1481.6 2453.97,1481.05 2455.57,1481.05 C2455.84,1481.05 2456.28,1481.05 2456.78,1481.11 C2463.54,1481.44 2463.54,1481.44 2466.07,1481.44 C2466.79,1481.44 2468.05,1481.44 2469.59,1481.38 L2465.85,1488.92 C2461.78,1497 2461.29,1497.99 2459.91,1501.4 C2458.21,1505.53 2457.33,1508.99 2457.33,1511.3 C2457.33,1513.83 2458.65,1515.37 2460.79,1515.37 C2463.43,1515.37 2464.48,1513.61 2464.42,1508.83 C2464.15,1500.91 2465.14,1497.06 2471.02,1484.19 C2472.01,1482.04 2473.06,1479.84 2474.05,1477.7 L2474.05,1476.1 C2470.75,1476.38 2468.99,1476.49 2465.58,1476.49 C2460.79,1476.49 2457,1476.32 2451.06,1475.88 L2449.35,1489.19 "/>
<path class="Harmony" d="M715.923,532.104 L713.833,532.104 L711.633,535.349 C707.618,532.434 705.583,531.664 701.788,531.664 C696.563,531.664 692.108,533.864 688.423,538.264 C684.903,542.444 683.253,547.064 683.253,552.729 C683.253,564.609 691.008,573.024 701.843,573.024 C710.643,573.024 716.253,567.854 717.518,558.614 L714.933,558.174 C713.448,566.369 709.268,570.439 702.503,570.439 C694.363,570.439 690.513,564.829 690.513,552.949 C690.513,546.679 691.338,542.554 693.208,539.254 C694.913,536.174 698.268,534.249 701.843,534.249 C705.693,534.249 709.103,536.284 711.193,539.804 C712.238,541.619 713.008,543.654 714.328,547.999 L716.748,547.999 L715.923,532.104 "/>
<path class="Harmony" d="M625.763,532.104 L623.673,532.104 L621.473,535.349 C617.458,532.434 615.423,531.664 611.628,531.664 C606.403,531.664 601.948,533.864 598.263,538.264 C594.743,542.444 593.093,547.064 593.093,552.729 C593.093,564.609 600.848,573.024 611.683,573.024 C620.483,573.024 626.093,567.854 627.358,558.614 L624.773,558.174 C623.288,566.369 619.108,570.439 612.343,570.439 C604.203,570.439 600.353,564.829 600.353,552.949 C600.353,546.679 601.178,542.554 603.048,539.254 C604.753,536.174 608.108,534.249 611.683,534.249 C615.533,534.249 618.943,536.284 621.033,539.804 C622.078,541.619 622.848,543.654 624.168,547.999 L626.588,547.999 L625.763,532.104 "/>
<path class="Harmony" d="M535.602,532.104 L533.512,532.104 L531.312,535.349 C527.297,532.434 525.262,531.664 521.467,531.664 C516.242,531.664 511.787,533.864 508.102,538.264 C504.582,542.444 502.932,547.064 502.932,552.729 C502.932,564.609 510.687,573.024 521.522,573.024 C530.322,573.024 535.932,567.854 537.197,558.614 L534.612,558.174 C533.127,566.369 528.947,570.439 522.182,570.439 C514.042,570.439 510.192,564.829 510.192,552.949 C510.192,546.679 511.017,542.554 512.887,539.254 C514.592,536.174 517.947,534.249 521.522,534.249 C525.372,534.249 528.782,536.284 530.872,539.804 C531.917,541.619 532.687,543.654 534.007,547.999 L536.427,547.999 L535.602,532.104 "/>
<path class="Harmony" d="M2547.52,1474.51 L2545.43,1474.51 L2543.23,1477.75 C2539.22,1474.84 2537.18,1474.07 2533.39,1474.07 C2528.16,1474.07 2523.71,1476.27 2520.02,1480.67 C2516.5,1484.85 2514.85,1489.47 2514.85,1495.13 C2514.85,1507.01 2522.61,1515.43 2533.44,1515.43 C2542.24,1515.43 2547.85,1510.26 2549.12,1501.02 L2546.53,1500.58 C2545.05,1508.77 2540.87,1512.84 2534.1,1512.84 C2525.96,1512.84 2522.11,1507.23 2522.11,1495.35 C2522.11,1489.08 2522.94,1484.96 2524.81,1481.66 C2526.51,1478.58 2529.87,1476.65 2533.44,1476.65 C2537.29,1476.65 2540.7,1478.69 2542.79,1482.21 C2543.84,1484.02 2544.61,1486.06 2545.93,1490.4 L2548.35,1490.4 L2547.52,1474.51 "/>
<path class="Harmony" d="M445.442,532.104 L443.352,532.104 L441.152,535.349 C437.137,532.434 435.102,531.664 431.307,531.664 C426.082,531.664 421.627,533.864 417.942,538.264 C414.422,542.444 412.772,547.064 412.772,552.729 C412.772,564.609 420.527,573.024 431.362,573.024 C440.162,573.024 445.772,567.854 447.037,558.614 L444.452,558.174 C442.967,566.369 438.787,570.439 432.022,570.439 C423.882,570.439 420.032,564.829 420.032,552.949 C420.032,546.679 420.857,542.554 422.727,539.254 C424.432,536.174 427.787,534.249 431.362,534.249 C435.212,534.249 438.622,536.284 440.712,539.804 C441.757,541.619 442.527,543.654 443.847,547.999 L446.267,547.999 L445.442,532.104 "/>
<path class="Harmony" d="M390.587,1474.51 L388.497,1474.51 L386.297,1477.75 C382.282,1474.84 380.247,1474.07 376.452,1474.07 C371.227,1474.07 366.772,1476.27 363.087,1480.67 C359.567,1484.85 357.917,1489.47 357.917,1495.13 C357.917,1507.01 365.672,1515.43 376.507,1515.43 C385.307,1515.43 390.917,1510.26 392.182,1501.02 L389.597,1500.58 C388.112,1508.77 383.932,1512.84 377.167,1512.84 C369.027,1512.84 365.177,1507.23 365.177,1495.35 C365.177,1489.08 366.002,1484.96 367.872,1481.66 C369.577,1478.58 372.932,1476.65 376.507,1476.65 C380.357,1476.65 383.767,1478.69 385.857,1482.21 C386.902,1484.02 387.672,1486.06 388.992,1490.4 L391.412,1490.4 L390.587,1474.51 "/>
</svg>
