<?xml version="1.0" encoding="UTF-8" standalone="no"?>
<svg width="209.982mm" height="296.926mm" viewBox="0 0 2976.12 4208.4"
 xmlns="http://www.w3.org/2000/svg" xmlns:xlink="http://www.w3.org/1999/xlink" version="1.2" baseProfile="full">
<title>浪漫飛行</title>
<desc>Generated by MuseScore Studio 4.5.2</desc>
<path class="" fill="#ffffff" fill-rule="evenodd" d="M0,0 L2976.12,0 L2976.12,4208.4 L0,4208.4 L0,0 "/>
<polyline class="StaffLines" fill="none" stroke="#000000" stroke-width="2.77" stroke-linejoin="bevel" points="201.6,630 2774.52,630" />
<polyline class="StaffLines" fill="none" stroke="#000000" stroke-width="2.77" stroke-linejoin="bevel" points="201.6,655.2 2774.52,655.2" />
<polyline class="StaffLines" fill="none" stroke="#000000" stroke-width="2.77" stroke-linejoin="bevel" points="201.6,680.4 2774.52,680.4" />
<polyline class="StaffLines" fill="none" stroke="#000000" stroke-width="2.77" stroke-linejoin="bevel" points="201.6,705.6 2774.52,705.6" />
<polyline class="StaffLines" fill="none" stroke="#000000" stroke-width="2.77" stroke-linejoin="bevel" points="201.6,730.8 2774.52,730.8" />
<polyline class="StaffLines" fill="none" stroke="#000000" stroke-width="2.77" stroke-linejoin="bevel" points="201.6,1108.8 2774.52,1108.8" />
<polyline class="StaffLines" fill="none" stroke="#000000" stroke-width="2.77" stroke-linejoin="bevel" points="201.6,1134 2774.52,1134" />
<polyline class="StaffLines" fill="none" stroke="#000000" stroke-width="2.77" stroke-linejoin="bevel" points="201.6,1159.2 2774.52,1159.2" />
<polyline class="StaffLines" fill="none" stroke="#000000" stroke-width="2.77" stroke-linejoin="bevel" points="201.6,1184.4 2774.52,1184.4" />
<polyline class="StaffLines" fill="none" stroke="#000000" stroke-width="2.77" stroke-linejoin="bevel" points="201.6,1209.6 2774.52,1209.6" />
<polyline class="StaffLines" fill="none" stroke="#000000" stroke-width="2.77" stroke-linejoin="bevel" points="201.6,1587.6 2774.52,1587.6" />
<polyline class="StaffLines" fill="none" stroke="#000000" stroke-width="2.77" stroke-linejoin="bevel" points="201.6,1612.8 2774.52,1612.8" />
<polyline class="StaffLines" fill="none" stroke="#000000" stroke-width="2.77" stroke-linejoin="bevel" points="201.6,1638 2774.52,1638" />
<polyline class="StaffLines" fill="none" stroke="#000000" stroke-width="2.77" stroke-linejoin="bevel" points="201.6,1663.2 2774.52,1663.2" />
<polyline class="StaffLines" fill="none" stroke="#000000" stroke-width="2.77" stroke-linejoin="bevel" points="201.6,1688.4 2774.52,1688.4" />
<path class="Text" d="M1330.09,255.951 C1333.28,266.951 1336.69,273.441 1342.96,280.811 C1349.89,288.841 1358.36,295.111 1370.35,300.831 C1371.67,297.861 1372.44,296.541 1374.75,293.901 C1363.64,289.831 1355.94,284.991 1348.9,277.621 C1357.92,272.011 1362.54,268.601 1370.57,261.231 L1365.07,256.281 C1359.24,263.431 1354.18,267.611 1344.94,272.781 C1340.87,267.061 1339.22,263.761 1336.8,255.951 L1355.17,255.951 C1359.24,255.951 1361.66,256.061 1364.41,256.281 C1364.19,253.531 1364.08,251.001 1364.08,246.491 L1364.08,223.721 C1364.08,219.541 1364.19,216.241 1364.52,213.601 C1361.99,213.931 1359.35,214.041 1354.95,214.041 L1339.33,214.041 L1339.33,210.631 C1339.33,207.441 1339.55,204.691 1340.1,201.831 L1331.63,201.831 C1332.18,204.471 1332.4,207.441 1332.4,210.631 L1332.4,214.041 L1317.55,214.041 C1313.37,214.041 1310.51,213.931 1308.09,213.601 C1308.42,216.241 1308.53,219.651 1308.53,223.501 L1308.53,290.931 C1302.59,292.251 1299.73,292.801 1295.99,292.911 L1298.08,300.721 C1300.5,300.061 1300.83,299.951 1304.35,299.071 C1316.67,296.101 1327.01,292.911 1338.23,288.621 L1338.12,281.801 C1329.32,285.321 1324.92,286.751 1315.46,289.281 L1315.46,255.951 L1330.09,255.951 M1315.46,231.861 L1315.46,220.091 L1357.37,220.091 L1357.37,231.861 L1315.46,231.861 M1315.46,237.801 L1357.37,237.801 L1357.37,250.121 L1315.46,250.121 L1315.46,237.801 M1279.38,207.661 C1286.75,212.501 1290.82,216.021 1297.97,223.611 L1302.48,218.001 C1295.66,211.071 1291.26,207.551 1283.89,202.821 L1279.38,207.661 M1273.99,234.171 C1281.47,238.791 1285.87,242.311 1293.02,249.461 L1297.31,243.411 C1290.38,237.141 1285.54,233.511 1278.17,229.111 L1273.99,234.171 M1292.03,261.231 C1286.64,276.191 1280.59,287.191 1274.54,293.791 L1280.92,299.511 C1282.02,297.421 1282.9,295.991 1283.34,295.221 C1289.17,285.541 1293.02,277.511 1297.86,265.521 L1292.03,261.231 M1468.14,266.951 C1466.27,267.281 1463.41,267.391 1459.56,267.391 L1420.62,267.391 C1416.22,267.391 1414.02,267.281 1411.82,266.951 L1411.82,273.441 C1414.13,273.111 1416.77,273.001 1420.4,273.001 L1423.04,273.001 C1428.54,279.601 1431.95,282.571 1439.21,287.081 C1428.76,291.151 1418.86,293.241 1406.21,294.121 C1407.75,296.321 1408.63,298.081 1409.73,300.941 C1424.47,298.961 1434.81,296.101 1446.03,290.821 C1456.04,295.661 1465.94,298.521 1480.35,300.941 C1481.56,298.191 1482.99,295.661 1484.2,294.011 C1470.78,292.581 1462.53,290.821 1452.96,287.191 C1458.57,283.781 1464.07,279.601 1468.36,275.201 C1471.77,271.681 1471.77,271.681 1472.32,271.131 L1468.14,266.951 M1461.76,273.001 C1456.48,277.951 1452.85,280.481 1445.81,284.001 C1438.66,280.371 1435.03,277.731 1430.74,273.001 L1461.76,273.001 M1388.17,207.881 C1395.54,212.721 1400.05,216.681 1405.66,222.951 L1410.28,217.341 C1403.68,210.851 1400.27,207.991 1392.57,202.821 L1388.17,207.881 M1383.11,234.611 C1390.48,239.231 1394.88,242.751 1401.37,249.461 L1405.77,243.301 C1399.39,237.581 1394.22,233.731 1387.07,229.331 L1383.11,234.611 M1400.6,261.891 C1394.77,277.731 1389.16,288.401 1383.44,294.451 L1389.82,300.061 C1390.37,298.961 1390.59,298.521 1391.91,296.211 C1397.52,286.861 1401.48,278.611 1406.32,266.181 L1400.6,261.891 M1460.77,234.831 C1466.38,234.831 1468.58,234.831 1471.33,235.051 C1471,232.851 1471,231.531 1471,226.801 L1471,212.611 C1471,208.871 1471.11,206.781 1471.44,203.921 C1468.14,204.361 1465.5,204.471 1459.56,204.471 L1430.08,204.471 C1425.68,204.471 1421.72,204.251 1418.64,203.921 C1418.97,206.781 1419.08,209.201 1419.08,212.501 L1419.08,226.801 C1419.08,229.881 1418.97,232.631 1418.75,235.161 C1421.83,234.941 1424.91,234.831 1429.2,234.831 L1460.77,234.831 M1425.35,209.861 L1464.73,209.861 L1464.73,217.121 L1425.35,217.121 L1425.35,209.861 M1425.35,222.181 L1464.73,222.181 L1464.73,229.661 L1425.35,229.661 L1425.35,222.181 M1419.19,240.881 C1415.34,240.881 1412.92,240.771 1410.17,240.551 C1410.39,242.971 1410.5,244.511 1410.5,248.141 L1410.5,254.741 C1410.5,258.041 1410.39,259.691 1410.17,261.891 C1412.92,261.671 1415.45,261.561 1419.52,261.561 L1471,261.561 C1475.73,261.561 1478.04,261.671 1481.23,262.001 C1480.9,260.021 1480.79,258.371 1480.79,254.631 L1480.79,248.251 C1480.79,244.511 1480.9,243.191 1481.23,240.441 C1478.7,240.771 1476.06,240.881 1471,240.881 L1419.19,240.881 M1431.51,256.501 L1416.66,256.501 L1416.66,245.941 L1431.51,245.941 L1431.51,256.501 M1452.41,256.501 L1437.45,256.501 L1437.45,245.941 L1452.41,245.941 L1452.41,256.501 M1458.35,256.501 L1458.35,245.941 L1474.52,245.941 L1474.52,256.501 L1458.35,256.501 M1504.77,245.391 C1499.05,245.391 1495.86,245.171 1493.22,244.731 L1493.22,252.321 C1496.3,251.881 1500.15,251.661 1504.77,251.661 L1512.69,251.661 C1511.81,265.191 1510.27,272.011 1506.53,279.821 C1503.12,286.641 1500.59,289.941 1493.44,296.101 C1496.19,297.971 1496.96,298.631 1499.27,301.381 C1507.85,292.471 1511.92,286.641 1514.89,278.501 C1517.31,271.461 1518.74,263.541 1519.4,251.661 L1537.22,251.661 L1537.22,290.051 C1537.22,295.111 1537,298.191 1536.56,301.051 L1544.7,301.051 C1544.26,297.751 1544.04,294.561 1544.04,289.941 L1544.04,251.661 L1559.44,251.661 C1559.88,262.881 1560.76,268.601 1562.74,274.761 C1564.72,280.811 1567.91,286.641 1571.76,290.931 C1576.82,296.761 1582.65,300.391 1586.72,300.391 C1591.56,300.391 1593.76,297.091 1595.96,286.641 C1593.54,285.871 1592.22,285.211 1590.02,283.561 C1589.25,289.831 1588.04,292.801 1586.39,292.801 C1584.85,292.801 1581.99,291.151 1579.02,288.511 C1574.73,284.661 1571.32,279.161 1569.01,272.341 C1567.36,267.171 1566.04,258.261 1566.04,251.111 C1566.04,248.251 1566.04,246.381 1566.15,244.951 C1562.41,245.281 1560.65,245.391 1557.35,245.391 L1544.04,245.391 L1544.04,225.261 C1544.04,220.641 1544.15,218.221 1544.48,215.581 L1536.78,215.581 C1537.11,217.781 1537.22,219.981 1537.22,225.261 L1537.22,245.391 L1519.73,245.391 C1519.95,239.671 1519.95,238.021 1519.95,226.251 C1524.46,223.941 1526.88,222.511 1532.6,218.551 L1526.66,214.481 C1521.82,218.551 1518.96,220.311 1512.36,223.061 C1506.31,225.701 1501.69,227.131 1495.2,228.451 C1497.18,230.541 1497.73,231.531 1499.05,234.281 C1505.21,232.521 1508.4,231.421 1513.24,229.441 C1513.24,237.031 1513.24,242.421 1513.13,245.391 L1504.77,245.391 M1561.31,212.061 C1561.75,224.051 1563.51,231.751 1567.47,239.011 C1571.87,247.261 1579.68,254.081 1584.63,254.081 C1588.81,254.081 1591.34,250.781 1593.87,242.531 C1591.67,241.761 1590.13,240.881 1588.15,239.451 C1586.94,244.951 1585.84,247.041 1584.3,247.041 C1582.43,247.041 1578.8,244.181 1575.83,240.331 C1570.44,233.401 1567.69,223.611 1567.69,210.961 C1567.69,208.761 1567.8,206.891 1568.24,205.021 C1563.84,205.461 1560.98,205.571 1557.35,205.571 L1510.82,205.571 C1505.21,205.571 1502.13,205.351 1498.72,204.911 L1498.72,212.721 C1502.24,212.171 1504.88,212.061 1510.49,212.061 L1561.31,212.061 M1582.98,205.571 C1579.24,210.851 1576.49,213.821 1571.43,217.781 L1575.61,222.071 C1580.45,218.221 1584.52,214.151 1588.26,209.421 L1582.98,205.571 M1573.96,273.111 C1580.78,276.631 1583.75,278.721 1588.26,283.011 L1592,277.401 C1586.61,273.331 1583.86,271.571 1577.59,268.271 L1573.96,273.111 M1573.3,227.351 C1579.9,230.981 1582.65,232.851 1587.6,237.251 L1591.23,231.861 C1585.18,227.241 1582.87,225.811 1576.82,222.731 L1573.3,227.351 M1580.78,253.751 C1577.92,258.041 1575.61,260.571 1570.66,264.751 L1574.73,269.041 C1579.68,264.751 1582.21,262.221 1585.95,257.491 L1580.78,253.751 M1676.48,242.311 L1676.48,289.941 C1676.48,292.141 1675.6,292.581 1671.86,292.581 C1667.35,292.581 1662.62,292.141 1656.35,291.261 C1657.34,293.791 1657.78,295.771 1658.11,298.851 C1662.84,299.181 1668.01,299.401 1671.53,299.401 C1681.21,299.401 1683.85,297.531 1683.85,290.491 L1683.85,242.311 L1690.12,242.311 C1695.18,242.311 1699.25,242.531 1702.11,242.971 L1702.11,235.271 C1699.58,235.711 1695.62,235.931 1690.01,235.931 L1651.4,235.931 C1646.12,235.931 1641.83,235.711 1639.19,235.271 L1639.19,242.971 C1641.83,242.531 1646.23,242.311 1651.4,242.311 L1676.48,242.311 M1628.63,201.611 C1626.87,205.681 1624.12,209.531 1618.62,215.031 C1614.22,219.541 1610.26,222.731 1604.1,226.691 C1606.19,228.341 1607.4,229.661 1609.05,232.081 C1618.95,224.931 1626.87,217.231 1633.47,208.211 C1634.46,206.891 1634.68,206.561 1635.45,205.791 L1628.63,201.611 M1643.7,215.361 C1647,214.921 1650.74,214.701 1655.14,214.701 L1685.94,214.701 C1690.34,214.701 1693.97,214.921 1697.27,215.361 L1697.27,207.661 C1694.19,208.101 1690.89,208.321 1685.94,208.321 L1655.14,208.321 C1650.19,208.321 1646.67,208.101 1643.7,207.661 L1643.7,215.361 M1620.27,287.741 C1620.27,293.571 1620.05,298.081 1619.5,301.161 L1628.19,301.161 C1627.64,298.081 1627.42,293.681 1627.42,287.741 L1627.42,243.301 C1630.5,239.671 1632.48,237.141 1634.79,233.401 C1636.44,230.871 1636.77,230.321 1638.09,228.671 L1631.27,224.821 C1630.17,227.791 1628.52,230.871 1625.99,234.281 C1619.39,243.191 1612.35,250.121 1603.77,255.951 C1605.53,257.711 1606.74,259.471 1608.06,262.221 C1613.45,258.041 1616.64,254.961 1620.6,249.901 C1620.38,255.181 1620.27,258.371 1620.27,263.101 L1620.27,287.741 "/>
<path class="MeasureNumber" d="M217.96,1508.88 L216.8,1508.88 C214.6,1510.52 210.36,1511.92 207.48,1511.92 L207,1513.68 L209.76,1513.68 C212.2,1513.68 212.48,1513.76 212.48,1514.48 C212.48,1514.84 212.48,1514.84 212.08,1516.28 L207.8,1532.28 C207.28,1534.28 207.24,1534.4 206.88,1534.76 C206.48,1535.16 205.64,1535.28 203.52,1535.32 L201.8,1535.32 L201.6,1537.2 L216.4,1537.2 L216.64,1535.32 L214.48,1535.32 C211.88,1535.32 211.32,1535.12 211.32,1534.24 C211.32,1533.96 211.48,1533.04 211.68,1532.28 L217.96,1508.88 M235.874,1509.04 C227.274,1509.04 222.994,1520.88 222.994,1527.92 C222.994,1533.72 225.874,1537.8 229.954,1537.8 C236.794,1537.8 242.914,1528.92 242.914,1519 C242.914,1513.04 240.074,1509.04 235.874,1509.04 M235.834,1510.64 C237.914,1510.64 239.034,1512.48 239.034,1515.92 C239.034,1519.84 238.034,1524.92 236.394,1529.04 C234.474,1534.04 232.554,1536.2 230.154,1536.2 C227.994,1536.2 226.794,1534.28 226.794,1530.88 C226.794,1525.68 228.634,1518.72 231.194,1514.08 C232.434,1511.84 234.034,1510.64 235.834,1510.64"/>
<path class="MeasureNumber" d="M206.483,1045 C207.163,1041.48 207.963,1039.28 209.483,1036.6 C211.283,1033.44 213.443,1031.84 215.843,1031.84 C217.083,1031.84 217.843,1032.32 217.843,1033.08 C217.843,1033.36 217.763,1033.52 217.483,1034.04 C217.123,1034.72 216.963,1035.2 216.963,1035.8 C216.963,1037.08 217.923,1037.96 219.283,1037.96 C220.923,1037.96 222.043,1036.76 222.043,1034.96 C222.043,1032.24 219.483,1030.24 215.923,1030.24 C207.003,1030.24 201.603,1041.88 201.603,1049.56 C201.603,1055.44 204.523,1059 209.403,1059 C215.403,1059 219.843,1054.04 219.843,1048.16 C219.843,1044.08 217.083,1041.24 213.083,1041.24 C210.283,1041.24 208.123,1042.44 206.483,1045 M211.803,1043.56 C214.283,1043.56 215.643,1045.28 215.643,1048.4 C215.643,1053.48 212.963,1057.36 209.403,1057.36 C206.843,1057.36 205.323,1055.48 205.323,1052.28 C205.323,1047.28 208.083,1043.56 211.803,1043.56"/>
<path class="TieSegment" stroke="#000000" stroke-width="1.76" stroke-linecap="round" stroke-linejoin="round" fill-rule="evenodd" d="M2376.98,1619.51 C2397.54,1595.16 2459.22,1595.16 2479.78,1619.51 C2459.22,1602.21 2397.54,1602.21 2376.98,1619.51"/>
<path class="TieSegment" stroke="#000000" stroke-width="1.76" stroke-linecap="round" stroke-linejoin="round" fill-rule="evenodd" d="M2160.59,1668.99 C2171.78,1682.27 2205.36,1682.27 2216.55,1668.99 C2205.36,1687.53 2171.78,1687.53 2160.59,1668.99"/>
<path class="TieSegment" stroke="#000000" stroke-width="1.76" stroke-linecap="round" stroke-linejoin="round" fill-rule="evenodd" d="M1900.23,1668.99 C1920.79,1681.58 1982.47,1681.58 2003.03,1668.99 C1982.47,1688.63 1920.79,1688.63 1900.23,1668.99"/>
<path class="TieSegment" stroke="#000000" stroke-width="1.76" stroke-linecap="round" stroke-linejoin="round" fill-rule="evenodd" d="M1375.19,1706.79 C1398.5,1725.21 1468.43,1725.21 1491.74,1706.79 C1468.43,1732.27 1398.5,1732.27 1375.19,1706.79"/>
<path class="TieSegment" stroke="#000000" stroke-width="1.76" stroke-linecap="round" stroke-linejoin="round" fill-rule="evenodd" d="M2703.68,749.188 C2715.68,762.92 2751.68,762.92 2763.68,749.188 C2751.68,768.344 2715.68,768.344 2703.68,749.188"/>
<path class="TieSegment" stroke="#000000" stroke-width="1.76" stroke-linecap="round" stroke-linejoin="round" fill-rule="evenodd" d="M471.681,1227.99 C481.832,1240.63 512.283,1240.63 522.434,1227.99 C512.283,1245.69 481.832,1245.69 471.681,1227.99"/>
<path class="TieSegment" stroke="#000000" stroke-width="1.76" stroke-linecap="round" stroke-linejoin="round" fill-rule="evenodd" d="M1321.28,1190.19 C1335.41,1204.44 1377.77,1204.44 1391.9,1190.19 C1377.77,1210.28 1335.41,1210.28 1321.28,1190.19"/>
<path class="TieSegment" stroke="#000000" stroke-width="1.76" stroke-linecap="round" stroke-linejoin="round" fill-rule="evenodd" d="M1272.24,649.412 C1289.41,630.166 1340.94,630.166 1358.12,649.412 C1340.94,636.625 1289.41,636.625 1272.24,649.412"/>
<path class="TieSegment" stroke="#000000" stroke-width="1.76" stroke-linecap="round" stroke-linejoin="round" fill-rule="evenodd" d="M2193.62,1128.21 C2215.2,1108.3 2279.94,1108.3 2301.53,1128.21 C2279.94,1115.36 2215.2,1115.36 2193.62,1128.21"/>
<path class="TieSegment" stroke="#000000" stroke-width="1.76" stroke-linecap="round" stroke-linejoin="round" fill-rule="evenodd" d="M2216.04,711.388 C2236.6,723.976 2298.28,723.976 2318.84,711.388 C2298.28,731.032 2236.6,731.032 2216.04,711.388"/>
<path class="TieSegment" stroke="#000000" stroke-width="1.76" stroke-linecap="round" stroke-linejoin="round" fill-rule="evenodd" d="M1717.01,662.012 C1734.18,638.575 1785.71,638.575 1802.89,662.012 C1785.71,645.034 1734.18,645.034 1717.01,662.012"/>
<polyline class="BarLine" fill="none" stroke="#000000" stroke-width="4.54" stroke-linejoin="bevel" points="1079.13,1107.41 1079.13,1210.99" />
<polyline class="BarLine" fill="none" stroke="#000000" stroke-width="4.54" stroke-linejoin="bevel" points="825.163,628.614 825.163,732.186" />
<polyline class="BarLine" fill="none" stroke="#000000" stroke-width="4.54" stroke-linejoin="bevel" points="985.741,1586.21 985.741,1689.79" />
<polyline class="BarLine" fill="none" stroke="#000000" stroke-width="4.54" stroke-linejoin="bevel" points="1443.76,1586.21 1443.76,1689.79" />
<polyline class="BarLine" fill="none" stroke="#000000" stroke-width="4.54" stroke-linejoin="bevel" points="2772.25,628.614 2772.25,732.186" />
<polyline class="BarLine" fill="none" stroke="#000000" stroke-width="4.54" stroke-linejoin="bevel" points="2772.25,1107.41 2772.25,1210.99" />
<polyline class="BarLine" fill="none" stroke="#000000" stroke-width="4.54" stroke-linejoin="bevel" points="1752.04,628.614 1752.04,732.186" />
<polyline class="BarLine" fill="none" stroke="#000000" stroke-width="4.54" stroke-linejoin="bevel" points="1955.05,1586.21 1955.05,1689.79" />
<polyline class="BarLine" fill="none" stroke="#000000" stroke-width="4.54" stroke-linejoin="bevel" points="2250.67,1107.41 2250.67,1210.99" />
<polyline class="BarLine" fill="none" stroke="#000000" stroke-width="4.54" stroke-linejoin="bevel" points="2428.93,1586.21 2428.93,1689.79" />
<polyline class="BarLine" fill="none" stroke="#000000" stroke-width="4.54" stroke-linejoin="bevel" points="1645.99,1107.41 1645.99,1210.99" />
<polyline class="BarLine" fill="none" stroke="#000000" stroke-width="4.54" stroke-linejoin="bevel" points="2270.86,628.614 2270.86,732.186" />
<polyline class="BarLine" fill="none" stroke="#000000" stroke-width="4.54" stroke-linejoin="bevel" points="2740.75,1586.21 2740.75,1689.79" />
<polyline class="BarLine" fill="none" stroke="#000000" stroke-width="13.86" stroke-linejoin="bevel" points="2767.59,1586.21 2767.59,1689.79" />
<polyline class="BarLine" fill="none" stroke="#000000" stroke-width="4.54" stroke-linejoin="bevel" points="1307.27,628.614 1307.27,732.186" />
<polyline class="Stem" fill="none" stroke="#000000" stroke-width="2.77" stroke-linejoin="bevel" points="1569.46,1163.43 1569.46,1241" />
<polyline class="Stem" fill="none" stroke="#000000" stroke-width="2.77" stroke-linejoin="bevel" points="1485.95,1192.97 1485.95,1108.8" />
<polyline class="Stem" fill="none" stroke="#000000" stroke-width="2.77" stroke-linejoin="bevel" points="2287.09,1150.83 2287.09,1228.4" />
<polyline class="Stem" fill="none" stroke="#000000" stroke-width="2.77" stroke-linejoin="bevel" points="1788.45,684.634 1788.45,762.199" />
<polyline class="Stem" fill="none" stroke="#000000" stroke-width="2.77" stroke-linejoin="bevel" points="2465.34,1642.23 2465.34,1713.6" />
<polyline class="Stem" fill="none" stroke="#000000" stroke-width="2.77" stroke-linejoin="bevel" points="1850.83,684.634 1850.83,756" />
<polyline class="Stem" fill="none" stroke="#000000" stroke-width="2.77" stroke-linejoin="bevel" points="628.983,684.634 628.983,749.7" />
<polyline class="Stem" fill="none" stroke="#000000" stroke-width="2.77" stroke-linejoin="bevel" points="2098.49,1138.23 2098.49,1224.31" />
<polyline class="Stem" fill="none" stroke="#000000" stroke-width="2.77" stroke-linejoin="bevel" points="1974.36,701.568 1974.36,617.602" />
<polyline class="Stem" fill="none" stroke="#000000" stroke-width="2.77" stroke-linejoin="bevel" points="2357.5,1642.23 2357.5,1719.8" />
<polyline class="Stem" fill="none" stroke="#000000" stroke-width="2.77" stroke-linejoin="bevel" points="2042.28,701.568 2042.28,611.1" />
<polyline class="Stem" fill="none" stroke="#000000" stroke-width="2.77" stroke-linejoin="bevel" points="2022.84,1150.83 2022.84,1226.39" />
<polyline class="Stem" fill="none" stroke="#000000" stroke-width="2.77" stroke-linejoin="bevel" points="2295.97,1671.77 2295.97,1587.6" />
<polyline class="Stem" fill="none" stroke="#000000" stroke-width="2.77" stroke-linejoin="bevel" points="2104.66,688.968 2104.66,611.1" />
<polyline class="Stem" fill="none" stroke="#000000" stroke-width="2.77" stroke-linejoin="bevel" points="2234.96,1646.57 2234.96,1568.9" />
<polyline class="Stem" fill="none" stroke="#000000" stroke-width="2.77" stroke-linejoin="bevel" points="2167.03,676.368 2167.03,611.1" />
<polyline class="Stem" fill="none" stroke="#000000" stroke-width="2.77" stroke-linejoin="bevel" points="2362.74,1113.03 2362.74,1197" />
<polyline class="Stem" fill="none" stroke="#000000" stroke-width="2.77" stroke-linejoin="bevel" points="2229.41,688.968 2229.41,611.1" />
<polyline class="Stem" fill="none" stroke="#000000" stroke-width="2.77" stroke-linejoin="bevel" points="2173.95,1646.57 2173.95,1574.86" />
<polyline class="Stem" fill="none" stroke="#000000" stroke-width="2.77" stroke-linejoin="bevel" points="1710.58,676.368 1710.58,604.666" />
<polyline class="Stem" fill="none" stroke="#000000" stroke-width="2.77" stroke-linejoin="bevel" points="2112.95,1633.97 2112.95,1568.84" />
<polyline class="Stem" fill="none" stroke="#000000" stroke-width="2.77" stroke-linejoin="bevel" points="2021.44,1646.57 2021.44,1568.7" />
<polyline class="Stem" fill="none" stroke="#000000" stroke-width="2.77" stroke-linejoin="bevel" points="2506.59,1138.23 2506.59,1222.2" />
<polyline class="Stem" fill="none" stroke="#000000" stroke-width="2.77" stroke-linejoin="bevel" points="2337.25,688.968 2337.25,611.302" />
<polyline class="Stem" fill="none" stroke="#000000" stroke-width="2.77" stroke-linejoin="bevel" points="1913.6,1646.57 1913.6,1581.39" />
<polyline class="Stem" fill="none" stroke="#000000" stroke-width="2.77" stroke-linejoin="bevel" points="2375.19,659.434 2375.19,743.4" />
<polyline class="Stem" fill="none" stroke="#000000" stroke-width="2.77" stroke-linejoin="bevel" points="1852.59,1659.17 1852.59,1585.53" />
<polyline class="Stem" fill="none" stroke="#000000" stroke-width="2.77" stroke-linejoin="bevel" points="1947.18,1163.43 1947.18,1228.46" />
<polyline class="Stem" fill="none" stroke="#000000" stroke-width="2.77" stroke-linejoin="bevel" points="2468.76,659.434 2468.76,743.299" />
<polyline class="Stem" fill="none" stroke="#000000" stroke-width="2.77" stroke-linejoin="bevel" points="1791.59,1671.77 1791.59,1589.67" />
<polyline class="Stem" fill="none" stroke="#000000" stroke-width="2.77" stroke-linejoin="bevel" points="2620.07,1150.83 2620.07,1215.9" />
<polyline class="Stem" fill="none" stroke="#000000" stroke-width="2.77" stroke-linejoin="bevel" points="2561.11,688.968 2561.11,611.302" />
<polyline class="Stem" fill="none" stroke="#000000" stroke-width="2.77" stroke-linejoin="bevel" points="1730.58,1684.37 1730.58,1593.81" />
<polyline class="Stem" fill="none" stroke="#000000" stroke-width="2.77" stroke-linejoin="bevel" points="2623.48,714.168 2623.48,630" />
<polyline class="Stem" fill="none" stroke="#000000" stroke-width="2.77" stroke-linejoin="bevel" points="1662.67,1684.37 1662.67,1600.4" />
<polyline class="Stem" fill="none" stroke="#000000" stroke-width="2.77" stroke-linejoin="bevel" points="1871.53,1138.23 1871.53,1222.1" />
<polyline class="Stem" fill="none" stroke="#000000" stroke-width="2.77" stroke-linejoin="bevel" points="2717.05,726.768 2717.05,642.802" />
<polyline class="Stem" fill="none" stroke="#000000" stroke-width="2.77" stroke-linejoin="bevel" points="2695.72,1150.83 2695.72,1215.9" />
<polyline class="Stem" fill="none" stroke="#000000" stroke-width="2.77" stroke-linejoin="bevel" points="1648.2,663.768 1648.2,598.634" />
<polyline class="Stem" fill="none" stroke="#000000" stroke-width="2.77" stroke-linejoin="bevel" points="1510.15,1684.37 1510.15,1600.2" />
<polyline class="Stem" fill="none" stroke="#000000" stroke-width="2.77" stroke-linejoin="bevel" points="1524.67,659.434 1524.67,743.4" />
<polyline class="Stem" fill="none" stroke="#000000" stroke-width="2.77" stroke-linejoin="bevel" points="691.36,672.034 691.36,749.7" />
<polyline class="Stem" fill="none" stroke="#000000" stroke-width="2.77" stroke-linejoin="bevel" points="1388.56,1684.37 1388.56,1600.4" />
<polyline class="Stem" fill="none" stroke="#000000" stroke-width="2.77" stroke-linejoin="bevel" points="1406.06,634.234 1406.06,718.2" />
<polyline class="Stem" fill="none" stroke="#000000" stroke-width="2.77" stroke-linejoin="bevel" points="1078.68,676.368 1078.68,592.2" />
<polyline class="Stem" fill="none" stroke="#000000" stroke-width="2.77" stroke-linejoin="bevel" points="1297.05,1671.77 1297.05,1587.6" />
<polyline class="Stem" fill="none" stroke="#000000" stroke-width="2.77" stroke-linejoin="bevel" points="1236.04,1646.57 1236.04,1568.9" />
<polyline class="Stem" fill="none" stroke="#000000" stroke-width="2.77" stroke-linejoin="bevel" points="540.839,1205.57 540.839,1121.4" />
<polyline class="Stem" fill="none" stroke="#000000" stroke-width="2.77" stroke-linejoin="bevel" points="1141.06,663.768 1141.06,592.2" />
<polyline class="Stem" fill="none" stroke="#000000" stroke-width="2.77" stroke-linejoin="bevel" points="1090.07,1617.03 1090.07,1701" />
<polyline class="Stem" fill="none" stroke="#000000" stroke-width="2.77" stroke-linejoin="bevel" points="1682.4,1163.43 1682.4,1234.8" />
<polyline class="Stem" fill="none" stroke="#000000" stroke-width="2.77" stroke-linejoin="bevel" points="729.968,1205.57 729.968,1121.6" />
<polyline class="Stem" fill="none" stroke="#000000" stroke-width="2.77" stroke-linejoin="bevel" points="1052.13,1646.57 1052.13,1568.9" />
<polyline class="Stem" fill="none" stroke="#000000" stroke-width="2.77" stroke-linejoin="bevel" points="805.619,1205.57 805.619,1115.02" />
<polyline class="Stem" fill="none" stroke="#000000" stroke-width="2.77" stroke-linejoin="bevel" points="1203.43,651.168 1203.43,592.2" />
<polyline class="Stem" fill="none" stroke="#000000" stroke-width="2.77" stroke-linejoin="bevel" points="753.737,684.634 753.737,749.7" />
<polyline class="Stem" fill="none" stroke="#000000" stroke-width="2.77" stroke-linejoin="bevel" points="881.271,1192.97 881.271,1110.87" />
<polyline class="Stem" fill="none" stroke="#000000" stroke-width="2.77" stroke-linejoin="bevel" points="944.287,1646.57 944.287,1568.7" />
<polyline class="Stem" fill="none" stroke="#000000" stroke-width="2.77" stroke-linejoin="bevel" points="956.922,1180.37 956.922,1106.73" />
<polyline class="Stem" fill="none" stroke="#000000" stroke-width="2.77" stroke-linejoin="bevel" points="883.281,1633.97 883.281,1568.7" />
<polyline class="Stem" fill="none" stroke="#000000" stroke-width="2.77" stroke-linejoin="bevel" points="1032.57,1167.77 1032.57,1102.58" />
<polyline class="Stem" fill="none" stroke="#000000" stroke-width="2.77" stroke-linejoin="bevel" points="822.275,1646.57 822.275,1568.7" />
<polyline class="Stem" fill="none" stroke="#000000" stroke-width="2.77" stroke-linejoin="bevel" points="1343.68,672.034 1343.68,749.599" />
<polyline class="Stem" fill="none" stroke="#000000" stroke-width="2.77" stroke-linejoin="bevel" points="985.115,651.168 985.115,592.2" />
<polyline class="Stem" fill="none" stroke="#000000" stroke-width="2.77" stroke-linejoin="bevel" points="1145.52,1167.77 1145.52,1089.9" />
<polyline class="Stem" fill="none" stroke="#000000" stroke-width="2.77" stroke-linejoin="bevel" points="761.269,1659.17 761.269,1568.7" />
<polyline class="Stem" fill="none" stroke="#000000" stroke-width="2.77" stroke-linejoin="bevel" points="1259,1155.17 1259,1090.01" />
<polyline class="Stem" fill="none" stroke="#000000" stroke-width="2.77" stroke-linejoin="bevel" points="693.355,1659.17 693.355,1575.2" />
<polyline class="Stem" fill="none" stroke="#000000" stroke-width="2.77" stroke-linejoin="bevel" points="1265.81,663.768 1265.81,592.2" />
<polyline class="Stem" fill="none" stroke="#000000" stroke-width="2.77" stroke-linejoin="bevel" points="1334.65,1167.77 1334.65,1096.09" />
<polyline class="Stem" fill="none" stroke="#000000" stroke-width="2.77" stroke-linejoin="bevel" points="571.873,1642.23 571.873,1713.6" />
<polyline class="Stem" fill="none" stroke="#000000" stroke-width="2.77" stroke-linejoin="bevel" points="891.55,651.168 891.55,592.2" />
<polyline class="Stem" fill="none" stroke="#000000" stroke-width="2.77" stroke-linejoin="bevel" points="1410.3,1167.77 1410.3,1090.1" />
<polyline class="Stem" fill="none" stroke="#000000" stroke-width="2.77" stroke-linejoin="bevel" points="510.867,1642.23 510.867,1719.8" />
<polyline class="Stem" fill="none" stroke="#000000" stroke-width="2.77" stroke-linejoin="bevel" points="2174.14,1150.83 2174.14,1222.24" />
<path class="Hook" transform="matrix(1.008,0,0,1.008,509.481,1719.9)" d="M0,-0.1 C0,0.6 0.6,1.2 1.3,1.2 C1.8,1.2 2.4,0.8 2.5,0.4 C2.5,0.3 3.4,-3.2 3.5,-3.5 C3.6,-3.9 4.5,-7.7 8.1,-13.6 C12,-20.1 18,-24.8 23,-31.8 C27.9,-38.8 30.9,-45.4 30.9,-54.2 C30.9,-63.3 28.8,-70.9 23.5,-80.6 C23.2,-81.3 22.6,-81.7 22,-81.7 C21.8,-81.7 21.6,-81.7 21.5,-81.6 C21,-81.4 20.8,-81 20.8,-80.4 C20.8,-80.1 20.9,-79.6 21.1,-79.2 C25.1,-69.9 26.7,-64.6 26.7,-57.4 C26.7,-49.1 23.8,-44.8 22,-41.7 C15.5,-30.6 5,-25.2 0.8,-23.8 C0.1,-23.5 0,-23 0,-22.7 L0,-0.1 "/>
<path class="Hook" transform="matrix(1.008,0,0,1.008,1408.92,1089.9)" d="M0,22.7 C0,23 0.1,23.5 0.8,23.8 C5.1,25.2 13.7,30.6 20.2,41.7 C22,44.8 24.9,49.1 24.9,57.4 C24.9,64.6 23,72 20.4,79.2 C20.2,79.8 20,80.3 20.1,80.7 C20.1,81.1 20.2,81.4 20.6,81.6 C20.8,81.7 21,81.7 21.1,81.7 C21.8,81.7 22.3,81.3 22.7,80.6 C27.4,72.3 29,61.7 28.9,55.4 C28.9,54.9 28.9,54.6 28.9,54.2 C28.4,41.3 21,31.8 21,31.8 C21.3,31.8 11.8,19.5 9.1,15.3 C5.4,9.6 3.7,3.9 3.5,3.5 C3.4,3.2 2.5,-0.4 2.5,-0.4 C2.4,-0.8 1.9,-1.2 1.3,-1.2 C0.6,-1.2 0,-0.6 0,0.1 L0,22.7 "/>
<path class="Hook" transform="matrix(1.008,0,0,1.008,691.969,1575)" d="M0,22.7 C0,23 0.1,23.5 0.8,23.8 C5.1,25.2 13.7,30.6 20.2,41.7 C22,44.8 24.9,49.1 24.9,57.4 C24.9,64.6 23,72 20.4,79.2 C20.2,79.8 20,80.3 20.1,80.7 C20.1,81.1 20.2,81.4 20.6,81.6 C20.8,81.7 21,81.7 21.1,81.7 C21.8,81.7 22.3,81.3 22.7,80.6 C27.4,72.3 29,61.7 28.9,55.4 C28.9,54.9 28.9,54.6 28.9,54.2 C28.4,41.3 21,31.8 21,31.8 C21.3,31.8 11.8,19.5 9.1,15.3 C5.4,9.6 3.7,3.9 3.5,3.5 C3.4,3.2 2.5,-0.4 2.5,-0.4 C2.4,-0.8 1.9,-1.2 1.3,-1.2 C0.6,-1.2 0,-0.6 0,0.1 L0,22.7 "/>
<path class="Hook" transform="matrix(1.008,0,0,1.008,1568.07,1241.1)" d="M0,-0.1 C0,0.6 0.6,1.2 1.3,1.2 C1.8,1.2 2.4,0.8 2.5,0.4 C2.5,0.3 3.4,-3.2 3.5,-3.5 C3.6,-3.9 4.5,-7.7 8.1,-13.6 C12,-20.1 18,-24.8 23,-31.8 C27.9,-38.8 30.9,-45.4 30.9,-54.2 C30.9,-63.3 28.8,-70.9 23.5,-80.6 C23.2,-81.3 22.6,-81.7 22,-81.7 C21.8,-81.7 21.6,-81.7 21.5,-81.6 C21,-81.4 20.8,-81 20.8,-80.4 C20.8,-80.1 20.9,-79.6 21.1,-79.2 C25.1,-69.9 26.7,-64.6 26.7,-57.4 C26.7,-49.1 23.8,-44.8 22,-41.7 C15.5,-30.6 5,-25.2 0.8,-23.8 C0.1,-23.5 0,-23 0,-22.7 L0,-0.1 "/>
<path class="Hook" transform="matrix(1.008,0,0,1.008,1342.29,749.7)" d="M0,-0.1 C0,0.6 0.6,1.2 1.3,1.2 C1.8,1.2 2.4,0.8 2.5,0.4 C2.5,0.3 3.4,-3.2 3.5,-3.5 C3.6,-3.9 4.5,-7.7 8.1,-13.6 C12,-20.1 18,-24.8 23,-31.8 C27.9,-38.8 30.9,-45.4 30.9,-54.2 C30.9,-63.3 28.8,-70.9 23.5,-80.6 C23.2,-81.3 22.6,-81.7 22,-81.7 C21.8,-81.7 21.6,-81.7 21.5,-81.6 C21,-81.4 20.8,-81 20.8,-80.4 C20.8,-80.1 20.9,-79.6 21.1,-79.2 C25.1,-69.9 26.7,-64.6 26.7,-57.4 C26.7,-49.1 23.8,-44.8 22,-41.7 C15.5,-30.6 5,-25.2 0.8,-23.8 C0.1,-23.5 0,-23 0,-22.7 L0,-0.1 "/>
<path class="Hook" transform="matrix(1.008,0,0,1.008,1050.74,1568.7)" d="M0,22.7 C0,23 0.1,23.5 0.8,23.8 C5.1,25.2 13.7,30.6 20.2,41.7 C22,44.8 24.9,49.1 24.9,57.4 C24.9,64.6 23,72 20.4,79.2 C20.2,79.8 20,80.3 20.1,80.7 C20.1,81.1 20.2,81.4 20.6,81.6 C20.8,81.7 21,81.7 21.1,81.7 C21.8,81.7 22.3,81.3 22.7,80.6 C27.4,72.3 29,61.7 28.9,55.4 C28.9,54.9 28.9,54.6 28.9,54.2 C28.4,41.3 21,31.8 21,31.8 C21.3,31.8 11.8,19.5 9.1,15.3 C5.4,9.6 3.7,3.9 3.5,3.5 C3.4,3.2 2.5,-0.4 2.5,-0.4 C2.4,-0.8 1.9,-1.2 1.3,-1.2 C0.6,-1.2 0,-0.6 0,0.1 L0,22.7 "/>
<path class="Hook" transform="matrix(1.008,0,0,1.008,728.582,1121.4)" d="M0,22.7 C0,23 0.1,23.5 0.8,23.8 C5.1,25.2 13.7,30.6 20.2,41.7 C22,44.8 24.9,49.1 24.9,57.4 C24.9,64.6 23,72 20.4,79.2 C20.2,79.8 20,80.3 20.1,80.7 C20.1,81.1 20.2,81.4 20.6,81.6 C20.8,81.7 21,81.7 21.1,81.7 C21.8,81.7 22.3,81.3 22.7,80.6 C27.4,72.3 29,61.7 28.9,55.4 C28.9,54.9 28.9,54.6 28.9,54.2 C28.4,41.3 21,31.8 21,31.8 C21.3,31.8 11.8,19.5 9.1,15.3 C5.4,9.6 3.7,3.9 3.5,3.5 C3.4,3.2 2.5,-0.4 2.5,-0.4 C2.4,-0.8 1.9,-1.2 1.3,-1.2 C0.6,-1.2 0,-0.6 0,0.1 L0,22.7 "/>
<path class="Hook" transform="matrix(1.008,0,0,1.008,1387.17,1600.2)" d="M0,22.7 C0,23 0.1,23.5 0.8,23.8 C5.1,25.2 13.7,30.6 20.2,41.7 C22,44.8 24.9,49.1 24.9,57.4 C24.9,64.6 23,72 20.4,79.2 C20.2,79.8 20,80.3 20.1,80.7 C20.1,81.1 20.2,81.4 20.6,81.6 C20.8,81.7 21,81.7 21.1,81.7 C21.8,81.7 22.3,81.3 22.7,80.6 C27.4,72.3 29,61.7 28.9,55.4 C28.9,54.9 28.9,54.6 28.9,54.2 C28.4,41.3 21,31.8 21,31.8 C21.3,31.8 11.8,19.5 9.1,15.3 C5.4,9.6 3.7,3.9 3.5,3.5 C3.4,3.2 2.5,-0.4 2.5,-0.4 C2.4,-0.8 1.9,-1.2 1.3,-1.2 C0.6,-1.2 0,-0.6 0,0.1 L0,22.7 "/>
<path class="Hook" transform="matrix(1.008,0,0,1.008,1661.28,1600.2)" d="M0,22.7 C0,23 0.1,23.5 0.8,23.8 C5.1,25.2 13.7,30.6 20.2,41.7 C22,44.8 24.9,49.1 24.9,57.4 C24.9,64.6 23,72 20.4,79.2 C20.2,79.8 20,80.3 20.1,80.7 C20.1,81.1 20.2,81.4 20.6,81.6 C20.8,81.7 21,81.7 21.1,81.7 C21.8,81.7 22.3,81.3 22.7,80.6 C27.4,72.3 29,61.7 28.9,55.4 C28.9,54.9 28.9,54.6 28.9,54.2 C28.4,41.3 21,31.8 21,31.8 C21.3,31.8 11.8,19.5 9.1,15.3 C5.4,9.6 3.7,3.9 3.5,3.5 C3.4,3.2 2.5,-0.4 2.5,-0.4 C2.4,-0.8 1.9,-1.2 1.3,-1.2 C0.6,-1.2 0,-0.6 0,0.1 L0,22.7 "/>
<path class="Hook" transform="matrix(1.008,0,0,1.008,1870.15,1222.2)" d="M0,-0.1 C0,0.6 0.6,1.2 1.3,1.2 C1.8,1.2 2.4,0.8 2.5,0.4 C2.5,0.3 3.4,-3.2 3.5,-3.5 C3.6,-3.9 4.5,-7.7 8.1,-13.6 C12,-20.1 18,-24.8 23,-31.8 C27.9,-38.8 30.9,-45.4 30.9,-54.2 C30.9,-63.3 28.8,-70.9 23.5,-80.6 C23.2,-81.3 22.6,-81.7 22,-81.7 C21.8,-81.7 21.6,-81.7 21.5,-81.6 C21,-81.4 20.8,-81 20.8,-80.4 C20.8,-80.1 20.9,-79.6 21.1,-79.2 C25.1,-69.9 26.7,-64.6 26.7,-57.4 C26.7,-49.1 23.8,-44.8 22,-41.7 C15.5,-30.6 5,-25.2 0.8,-23.8 C0.1,-23.5 0,-23 0,-22.7 L0,-0.1 "/>
<path class="Hook" transform="matrix(1.008,0,0,1.008,2715.66,642.6)" d="M0,22.7 C0,23 0.1,23.5 0.8,23.8 C5.1,25.2 13.7,30.6 20.2,41.7 C22,44.8 24.9,49.1 24.9,57.4 C24.9,64.6 23,72 20.4,79.2 C20.2,79.8 20,80.3 20.1,80.7 C20.1,81.1 20.2,81.4 20.6,81.6 C20.8,81.7 21,81.7 21.1,81.7 C21.8,81.7 22.3,81.3 22.7,80.6 C27.4,72.3 29,61.7 28.9,55.4 C28.9,54.9 28.9,54.6 28.9,54.2 C28.4,41.3 21,31.8 21,31.8 C21.3,31.8 11.8,19.5 9.1,15.3 C5.4,9.6 3.7,3.9 3.5,3.5 C3.4,3.2 2.5,-0.4 2.5,-0.4 C2.4,-0.8 1.9,-1.2 1.3,-1.2 C0.6,-1.2 0,-0.6 0,0.1 L0,22.7 "/>
<path class="Hook" transform="matrix(1.008,0,0,1.008,2559.72,611.1)" d="M0,22.7 C0,23 0.1,23.5 0.8,23.8 C5.1,25.2 13.7,30.6 20.2,41.7 C22,44.8 24.9,49.1 24.9,57.4 C24.9,64.6 23,72 20.4,79.2 C20.2,79.8 20,80.3 20.1,80.7 C20.1,81.1 20.2,81.4 20.6,81.6 C20.8,81.7 21,81.7 21.1,81.7 C21.8,81.7 22.3,81.3 22.7,80.6 C27.4,72.3 29,61.7 28.9,55.4 C28.9,54.9 28.9,54.6 28.9,54.2 C28.4,41.3 21,31.8 21,31.8 C21.3,31.8 11.8,19.5 9.1,15.3 C5.4,9.6 3.7,3.9 3.5,3.5 C3.4,3.2 2.5,-0.4 2.5,-0.4 C2.4,-0.8 1.9,-1.2 1.3,-1.2 C0.6,-1.2 0,-0.6 0,0.1 L0,22.7 "/>
<path class="Hook" transform="matrix(1.008,0,0,1.008,2467.37,743.4)" d="M0,-0.1 C0,0.6 0.6,1.2 1.3,1.2 C1.8,1.2 2.4,0.8 2.5,0.4 C2.5,0.3 3.4,-3.2 3.5,-3.5 C3.6,-3.9 4.5,-7.7 8.1,-13.6 C12,-20.1 18,-24.8 23,-31.8 C27.9,-38.8 30.9,-45.4 30.9,-54.2 C30.9,-63.3 28.8,-70.9 23.5,-80.6 C23.2,-81.3 22.6,-81.7 22,-81.7 C21.8,-81.7 21.6,-81.7 21.5,-81.6 C21,-81.4 20.8,-81 20.8,-80.4 C20.8,-80.1 20.9,-79.6 21.1,-79.2 C25.1,-69.9 26.7,-64.6 26.7,-57.4 C26.7,-49.1 23.8,-44.8 22,-41.7 C15.5,-30.6 5,-25.2 0.8,-23.8 C0.1,-23.5 0,-23 0,-22.7 L0,-0.1 "/>
<path class="Hook" transform="matrix(1.008,0,0,1.008,2335.86,611.1)" d="M0,22.7 C0,23 0.1,23.5 0.8,23.8 C5.1,25.2 13.7,30.6 20.2,41.7 C22,44.8 24.9,49.1 24.9,57.4 C24.9,64.6 23,72 20.4,79.2 C20.2,79.8 20,80.3 20.1,80.7 C20.1,81.1 20.2,81.4 20.6,81.6 C20.8,81.7 21,81.7 21.1,81.7 C21.8,81.7 22.3,81.3 22.7,80.6 C27.4,72.3 29,61.7 28.9,55.4 C28.9,54.9 28.9,54.6 28.9,54.2 C28.4,41.3 21,31.8 21,31.8 C21.3,31.8 11.8,19.5 9.1,15.3 C5.4,9.6 3.7,3.9 3.5,3.5 C3.4,3.2 2.5,-0.4 2.5,-0.4 C2.4,-0.8 1.9,-1.2 1.3,-1.2 C0.6,-1.2 0,-0.6 0,0.1 L0,22.7 "/>
<path class="Hook" transform="matrix(1.008,0,0,1.008,2233.57,1568.7)" d="M0,22.7 C0,23 0.1,23.5 0.8,23.8 C5.1,25.2 13.7,30.6 20.2,41.7 C22,44.8 24.9,49.1 24.9,57.4 C24.9,64.6 23,72 20.4,79.2 C20.2,79.8 20,80.3 20.1,80.7 C20.1,81.1 20.2,81.4 20.6,81.6 C20.8,81.7 21,81.7 21.1,81.7 C21.8,81.7 22.3,81.3 22.7,80.6 C27.4,72.3 29,61.7 28.9,55.4 C28.9,54.9 28.9,54.6 28.9,54.2 C28.4,41.3 21,31.8 21,31.8 C21.3,31.8 11.8,19.5 9.1,15.3 C5.4,9.6 3.7,3.9 3.5,3.5 C3.4,3.2 2.5,-0.4 2.5,-0.4 C2.4,-0.8 1.9,-1.2 1.3,-1.2 C0.6,-1.2 0,-0.6 0,0.1 L0,22.7 "/>
<path class="Hook" transform="matrix(1.008,0,0,1.008,2356.12,1719.9)" d="M0,-0.1 C0,0.6 0.6,1.2 1.3,1.2 C1.8,1.2 2.4,0.8 2.5,0.4 C2.5,0.3 3.4,-3.2 3.5,-3.5 C3.6,-3.9 4.5,-7.7 8.1,-13.6 C12,-20.1 18,-24.8 23,-31.8 C27.9,-38.8 30.9,-45.4 30.9,-54.2 C30.9,-63.3 28.8,-70.9 23.5,-80.6 C23.2,-81.3 22.6,-81.7 22,-81.7 C21.8,-81.7 21.6,-81.7 21.5,-81.6 C21,-81.4 20.8,-81 20.8,-80.4 C20.8,-80.1 20.9,-79.6 21.1,-79.2 C25.1,-69.9 26.7,-64.6 26.7,-57.4 C26.7,-49.1 23.8,-44.8 22,-41.7 C15.5,-30.6 5,-25.2 0.8,-23.8 C0.1,-23.5 0,-23 0,-22.7 L0,-0.1 "/>
<path class="Hook" transform="matrix(1.008,0,0,1.008,2285.7,1228.5)" d="M0,-0.1 C0,0.6 0.6,1.2 1.3,1.2 C1.8,1.2 2.4,0.8 2.5,0.4 C2.5,0.3 3.4,-3.2 3.5,-3.5 C3.6,-3.9 4.5,-7.7 8.1,-13.6 C12,-20.1 18,-24.8 23,-31.8 C27.9,-38.8 30.9,-45.4 30.9,-54.2 C30.9,-63.3 28.8,-70.9 23.5,-80.6 C23.2,-81.3 22.6,-81.7 22,-81.7 C21.8,-81.7 21.6,-81.7 21.5,-81.6 C21,-81.4 20.8,-81 20.8,-80.4 C20.8,-80.1 20.9,-79.6 21.1,-79.2 C25.1,-69.9 26.7,-64.6 26.7,-57.4 C26.7,-49.1 23.8,-44.8 22,-41.7 C15.5,-30.6 5,-25.2 0.8,-23.8 C0.1,-23.5 0,-23 0,-22.7 L0,-0.1 "/>
<path class="Hook" transform="matrix(1.008,0,0,1.008,1972.98,617.4)" d="M0,22.7 C0,23 0.1,23.5 0.8,23.8 C5.1,25.2 13.7,30.6 20.2,41.7 C22,44.8 24.9,49.1 24.9,57.4 C24.9,64.6 23,72 20.4,79.2 C20.2,79.8 20,80.3 20.1,80.7 C20.1,81.1 20.2,81.4 20.6,81.6 C20.8,81.7 21,81.7 21.1,81.7 C21.8,81.7 22.3,81.3 22.7,80.6 C27.4,72.3 29,61.7 28.9,55.4 C28.9,54.9 28.9,54.6 28.9,54.2 C28.4,41.3 21,31.8 21,31.8 C21.3,31.8 11.8,19.5 9.1,15.3 C5.4,9.6 3.7,3.9 3.5,3.5 C3.4,3.2 2.5,-0.4 2.5,-0.4 C2.4,-0.8 1.9,-1.2 1.3,-1.2 C0.6,-1.2 0,-0.6 0,0.1 L0,22.7 "/>
<path class="Hook" transform="matrix(1.008,0,0,1.008,1787.06,762.3)" d="M0,-0.1 C0,0.6 0.6,1.2 1.3,1.2 C1.8,1.2 2.4,0.8 2.5,0.4 C2.5,0.3 3.4,-3.2 3.5,-3.5 C3.6,-3.9 4.5,-7.7 8.1,-13.6 C12,-20.1 18,-24.8 23,-31.8 C27.9,-38.8 30.9,-45.4 30.9,-54.2 C30.9,-63.3 28.8,-70.9 23.5,-80.6 C23.2,-81.3 22.6,-81.7 22,-81.7 C21.8,-81.7 21.6,-81.7 21.5,-81.6 C21,-81.4 20.8,-81 20.8,-80.4 C20.8,-80.1 20.9,-79.6 21.1,-79.2 C25.1,-69.9 26.7,-64.6 26.7,-57.4 C26.7,-49.1 23.8,-44.8 22,-41.7 C15.5,-30.6 5,-25.2 0.8,-23.8 C0.1,-23.5 0,-23 0,-22.7 L0,-0.1 "/>
<path class="Hook" transform="matrix(1.008,0,0,1.008,1234.66,1568.7)" d="M0,22.7 C0,23 0.1,23.5 0.8,23.8 C5.1,25.2 13.7,30.6 20.2,41.7 C22,44.8 24.9,49.1 24.9,57.4 C24.9,64.6 23,72 20.4,79.2 C20.2,79.8 20,80.3 20.1,80.7 C20.1,81.1 20.2,81.4 20.6,81.6 C20.8,81.7 21,81.7 21.1,81.7 C21.8,81.7 22.3,81.3 22.7,80.6 C27.4,72.3 29,61.7 28.9,55.4 C28.9,54.9 28.9,54.6 28.9,54.2 C28.4,41.3 21,31.8 21,31.8 C21.3,31.8 11.8,19.5 9.1,15.3 C5.4,9.6 3.7,3.9 3.5,3.5 C3.4,3.2 2.5,-0.4 2.5,-0.4 C2.4,-0.8 1.9,-1.2 1.3,-1.2 C0.6,-1.2 0,-0.6 0,0.1 L0,22.7 "/>
<path class="Note" transform="matrix(1.008,0,0,1.008,1679.22,680.4)" d="M0,4.2 C0,8.5 3.1,13.3 11.2,13.3 C21.6,13.3 32.5,4.8 32.5,-4 C32.5,-9.9 27.5,-13.2 21.3,-13.2 C11.6,-13.2 0,-5 0,4.2"/>
<path class="Note" transform="matrix(1.008,0,0,1.008,1882.24,1650.6)" d="M0,4.2 C0,8.5 3.1,13.3 11.2,13.3 C21.6,13.3 32.5,4.8 32.5,-4 C32.5,-9.9 27.5,-13.2 21.3,-13.2 C11.6,-13.2 0,-5 0,4.2"/>
<path class="Note" transform="matrix(1.008,0,0,1.008,2172.75,1146.6)" d="M0,4.2 C0,8.5 3.1,13.3 11.2,13.3 C21.6,13.3 32.5,4.8 32.5,-4 C32.5,-9.9 27.5,-13.2 21.3,-13.2 C11.6,-13.2 0,-5 0,4.2"/>
<path class="Note" transform="matrix(1.008,0,0,1.008,2097.1,1134)" d="M0,4.2 C0,8.5 3.1,13.3 11.2,13.3 C21.6,13.3 32.5,4.8 32.5,-4 C32.5,-9.9 27.5,-13.2 21.3,-13.2 C11.6,-13.2 0,-5 0,4.2"/>
<path class="Note" transform="matrix(1.008,0,0,1.008,2021.45,1146.6)" d="M0,4.2 C0,8.5 3.1,13.3 11.2,13.3 C21.6,13.3 32.5,4.8 32.5,-4 C32.5,-9.9 27.5,-13.2 21.3,-13.2 C11.6,-13.2 0,-5 0,4.2"/>
<path class="Note" transform="matrix(1.008,0,0,1.008,1568.07,1159.2)" d="M0,4.2 C0,8.5 3.1,13.3 11.2,13.3 C21.6,13.3 32.5,4.8 32.5,-4 C32.5,-9.9 27.5,-13.2 21.3,-13.2 C11.6,-13.2 0,-5 0,4.2"/>
<path class="Note" transform="matrix(1.008,0,0,1.008,2285.7,1146.6)" d="M0,4.2 C0,8.5 3.1,13.3 11.2,13.3 C21.6,13.3 32.5,4.8 32.5,-4 C32.5,-9.9 27.5,-13.2 21.3,-13.2 C11.6,-13.2 0,-5 0,4.2"/>
<path class="Note" transform="matrix(1.008,0,0,1.008,2463.96,1638)" d="M21.3,-13.2 C11.6,-13.2 0,-5.1 0,4.2 C0,8.5 3.1,13.3 11.2,13.3 C21.6,13.3 32.5,4.8 32.5,-4 C32.5,-9.9 27.5,-13.2 21.3,-13.2 M18.6,4.4 C18.3,4.6 11,8.6 7.5,8.6 C4.2,8.6 3.5,5.9 3.5,5 C3.5,0.8 13.5,-4.1 13.9,-4.3 C14.3,-4.5 21.4,-8.5 25,-8.5 C27.4,-8.5 29,-7.1 29,-4.9 C29,-0.6 18.9,4.2 18.6,4.4"/>
<path class="Note" transform="matrix(1.008,0,0,1.008,2361.35,1108.8)" d="M0,4.2 C0,8.5 3.1,13.3 11.2,13.3 C21.6,13.3 32.5,4.8 32.5,-4 C32.5,-9.9 27.5,-13.2 21.3,-13.2 C11.6,-13.2 0,-5 0,4.2"/>
<path class="Note" transform="matrix(1.008,0,0,1.008,1787.06,680.4)" d="M0,4.2 C0,8.5 3.1,13.3 11.2,13.3 C21.6,13.3 32.5,4.8 32.5,-4 C32.5,-9.9 27.5,-13.2 21.3,-13.2 C11.6,-13.2 0,-5 0,4.2"/>
<path class="Note" transform="matrix(1.008,0,0,1.008,1945.8,1159.2)" d="M0,4.2 C0,8.5 3.1,13.3 11.2,13.3 C21.6,13.3 32.5,4.8 32.5,-4 C32.5,-9.9 27.5,-13.2 21.3,-13.2 C11.6,-13.2 0,-5 0,4.2"/>
<path class="Note" transform="matrix(1.008,0,0,1.008,2505.2,1134)" d="M0,4.2 C0,8.5 3.1,13.3 11.2,13.3 C21.6,13.3 32.5,4.8 32.5,-4 C32.5,-9.9 27.5,-13.2 21.3,-13.2 C11.6,-13.2 0,-5 0,4.2"/>
<path class="Note" transform="matrix(1.008,0,0,1.008,1870.15,1134)" d="M0,4.2 C0,8.5 3.1,13.3 11.2,13.3 C21.6,13.3 32.5,4.8 32.5,-4 C32.5,-9.9 27.5,-13.2 21.3,-13.2 C11.6,-13.2 0,-5 0,4.2"/>
<path class="Note" transform="matrix(1.008,0,0,1.008,2618.68,1146.6)" d="M0,4.2 C0,8.5 3.1,13.3 11.2,13.3 C21.6,13.3 32.5,4.8 32.5,-4 C32.5,-9.9 27.5,-13.2 21.3,-13.2 C11.6,-13.2 0,-5 0,4.2"/>
<path class="Note" transform="matrix(1.008,0,0,1.008,1849.44,680.4)" d="M0,4.2 C0,8.5 3.1,13.3 11.2,13.3 C21.6,13.3 32.5,4.8 32.5,-4 C32.5,-9.9 27.5,-13.2 21.3,-13.2 C11.6,-13.2 0,-5 0,4.2"/>
<path class="Note" transform="matrix(1.008,0,0,1.008,2356.12,1638)" d="M0,4.2 C0,8.5 3.1,13.3 11.2,13.3 C21.6,13.3 32.5,4.8 32.5,-4 C32.5,-9.9 27.5,-13.2 21.3,-13.2 C11.6,-13.2 0,-5 0,4.2"/>
<path class="Note" transform="matrix(1.008,0,0,1.008,2694.33,1146.6)" d="M0,4.2 C0,8.5 3.1,13.3 11.2,13.3 C21.6,13.3 32.5,4.8 32.5,-4 C32.5,-9.9 27.5,-13.2 21.3,-13.2 C11.6,-13.2 0,-5 0,4.2"/>
<path class="Note" transform="matrix(1.008,0,0,1.008,1047.32,680.4)" d="M0,4.2 C0,8.5 3.1,13.3 11.2,13.3 C21.6,13.3 32.5,4.8 32.5,-4 C32.5,-9.9 27.5,-13.2 21.3,-13.2 C11.6,-13.2 0,-5 0,4.2"/>
<path class="Note" transform="matrix(1.008,0,0,1.008,1681.02,1159.2)" d="M0,4.2 C0,8.5 3.1,13.3 11.2,13.3 C21.6,13.3 32.5,4.8 32.5,-4 C32.5,-9.9 27.5,-13.2 21.3,-13.2 C11.6,-13.2 0,-5 0,4.2"/>
<path class="Note" transform="matrix(1.008,0,0,1.008,953.757,655.2)" d="M0,4.2 C0,8.5 3.1,13.3 11.2,13.3 C21.6,13.3 32.5,4.8 32.5,-4 C32.5,-9.9 27.5,-13.2 21.3,-13.2 C11.6,-13.2 0,-5 0,4.2"/>
<path class="Note" transform="matrix(1.008,0,0,1.008,1172.08,655.2)" d="M0,4.2 C0,8.5 3.1,13.3 11.2,13.3 C21.6,13.3 32.5,4.8 32.5,-4 C32.5,-9.9 27.5,-13.2 21.3,-13.2 C11.6,-13.2 0,-5 0,4.2"/>
<path class="Note" transform="matrix(1.008,0,0,1.008,860.191,655.2)" d="M0,4.2 C0,8.5 3.1,13.3 11.2,13.3 C21.6,13.3 32.5,4.8 32.5,-4 C32.5,-9.9 27.5,-13.2 21.3,-13.2 C11.6,-13.2 0,-5 0,4.2"/>
<path class="Note" transform="matrix(1.008,0,0,1.008,1234.45,667.8)" d="M0,4.2 C0,8.5 3.1,13.3 11.2,13.3 C21.6,13.3 32.5,4.8 32.5,-4 C32.5,-9.9 27.5,-13.2 21.3,-13.2 C11.6,-13.2 0,-5 0,4.2"/>
<path class="Note" transform="matrix(1.008,0,0,1.008,1943.01,705.6)" d="M0,4.2 C0,8.5 3.1,13.3 11.2,13.3 C21.6,13.3 32.5,4.8 32.5,-4 C32.5,-9.9 27.5,-13.2 21.3,-13.2 C11.6,-13.2 0,-5 0,4.2"/>
<path class="Note" transform="matrix(1.008,0,0,1.008,2010.92,705.6)" d="M0,4.2 C0,8.5 3.1,13.3 11.2,13.3 C21.6,13.3 32.5,4.8 32.5,-4 C32.5,-9.9 27.5,-13.2 21.3,-13.2 C11.6,-13.2 0,-5 0,4.2"/>
<path class="Note" transform="matrix(1.008,0,0,1.008,1454.59,1197)" d="M0,4.2 C0,8.5 3.1,13.3 11.2,13.3 C21.6,13.3 32.5,4.8 32.5,-4 C32.5,-9.9 27.5,-13.2 21.3,-13.2 C11.6,-13.2 0,-5 0,4.2"/>
<path class="Note" transform="matrix(1.008,0,0,1.008,1378.94,1171.8)" d="M0,4.2 C0,8.5 3.1,13.3 11.2,13.3 C21.6,13.3 32.5,4.8 32.5,-4 C32.5,-9.9 27.5,-13.2 21.3,-13.2 C11.6,-13.2 0,-5 0,4.2"/>
<path class="Note" transform="matrix(1.008,0,0,1.008,509.481,1638)" d="M0,4.2 C0,8.5 3.1,13.3 11.2,13.3 C21.6,13.3 32.5,4.8 32.5,-4 C32.5,-9.9 27.5,-13.2 21.3,-13.2 C11.6,-13.2 0,-5 0,4.2"/>
<path class="Note" transform="matrix(1.008,0,0,1.008,1303.29,1171.8)" d="M0,4.2 C0,8.5 3.1,13.3 11.2,13.3 C21.6,13.3 32.5,4.8 32.5,-4 C32.5,-9.9 27.5,-13.2 21.3,-13.2 C11.6,-13.2 0,-5 0,4.2"/>
<path class="Note" transform="matrix(1.008,0,0,1.008,570.487,1638)" d="M0,4.2 C0,8.5 3.1,13.3 11.2,13.3 C21.6,13.3 32.5,4.8 32.5,-4 C32.5,-9.9 27.5,-13.2 21.3,-13.2 C11.6,-13.2 0,-5 0,4.2"/>
<path class="Note" transform="matrix(1.008,0,0,1.008,2264.61,1675.8)" d="M0,4.2 C0,8.5 3.1,13.3 11.2,13.3 C21.6,13.3 32.5,4.8 32.5,-4 C32.5,-9.9 27.5,-13.2 21.3,-13.2 C11.6,-13.2 0,-5 0,4.2"/>
<path class="Note" transform="matrix(1.008,0,0,1.008,1227.64,1159.2)" d="M0,4.2 C0,8.5 3.1,13.3 11.2,13.3 C21.6,13.3 32.5,4.8 32.5,-4 C32.5,-9.9 27.5,-13.2 21.3,-13.2 C11.6,-13.2 0,-5 0,4.2"/>
<path class="Note" transform="matrix(1.008,0,0,1.008,661.996,1663.2)" d="M0,4.2 C0,8.5 3.1,13.3 11.2,13.3 C21.6,13.3 32.5,4.8 32.5,-4 C32.5,-9.9 27.5,-13.2 21.3,-13.2 C11.6,-13.2 0,-5 0,4.2"/>
<path class="Note" transform="matrix(1.008,0,0,1.008,1114.16,1171.8)" d="M0,4.2 C0,8.5 3.1,13.3 11.2,13.3 C21.6,13.3 32.5,4.8 32.5,-4 C32.5,-9.9 27.5,-13.2 21.3,-13.2 C11.6,-13.2 0,-5 0,4.2"/>
<path class="Note" transform="matrix(1.008,0,0,1.008,729.91,1663.2)" d="M0,4.2 C0,8.5 3.1,13.3 11.2,13.3 C21.6,13.3 32.5,4.8 32.5,-4 C32.5,-9.9 27.5,-13.2 21.3,-13.2 C11.6,-13.2 0,-5 0,4.2"/>
<path class="Note" transform="matrix(1.008,0,0,1.008,2203.6,1650.6)" d="M0,4.2 C0,8.5 3.1,13.3 11.2,13.3 C21.6,13.3 32.5,4.8 32.5,-4 C32.5,-9.9 27.5,-13.2 21.3,-13.2 C11.6,-13.2 0,-5 0,4.2"/>
<path class="Note" transform="matrix(1.008,0,0,1.008,1001.22,1171.8)" d="M0,4.2 C0,8.5 3.1,13.3 11.2,13.3 C21.6,13.3 32.5,4.8 32.5,-4 C32.5,-9.9 27.5,-13.2 21.3,-13.2 C11.6,-13.2 0,-5 0,4.2"/>
<path class="Note" transform="matrix(1.008,0,0,1.008,790.916,1650.6)" d="M0,4.2 C0,8.5 3.1,13.3 11.2,13.3 C21.6,13.3 32.5,4.8 32.5,-4 C32.5,-9.9 27.5,-13.2 21.3,-13.2 C11.6,-13.2 0,-5 0,4.2"/>
<path class="Note" transform="matrix(1.008,0,0,1.008,925.564,1184.4)" d="M0,4.2 C0,8.5 3.1,13.3 11.2,13.3 C21.6,13.3 32.5,4.8 32.5,-4 C32.5,-9.9 27.5,-13.2 21.3,-13.2 C11.6,-13.2 0,-5 0,4.2"/>
<path class="Note" transform="matrix(1.008,0,0,1.008,851.923,1638)" d="M0,4.2 C0,8.5 3.1,13.3 11.2,13.3 C21.6,13.3 32.5,4.8 32.5,-4 C32.5,-9.9 27.5,-13.2 21.3,-13.2 C11.6,-13.2 0,-5 0,4.2"/>
<path class="Note" transform="matrix(1.008,0,0,1.008,849.912,1197)" d="M0,4.2 C0,8.5 3.1,13.3 11.2,13.3 C21.6,13.3 32.5,4.8 32.5,-4 C32.5,-9.9 27.5,-13.2 21.3,-13.2 C11.6,-13.2 0,-5 0,4.2"/>
<path class="Note" transform="matrix(1.008,0,0,1.008,912.929,1650.6)" d="M0,4.2 C0,8.5 3.1,13.3 11.2,13.3 C21.6,13.3 32.5,4.8 32.5,-4 C32.5,-9.9 27.5,-13.2 21.3,-13.2 C11.6,-13.2 0,-5 0,4.2"/>
<path class="Note" transform="matrix(1.008,0,0,1.008,752.351,680.4)" d="M0,4.2 C0,8.5 3.1,13.3 11.2,13.3 C21.6,13.3 32.5,4.8 32.5,-4 C32.5,-9.9 27.5,-13.2 21.3,-13.2 C11.6,-13.2 0,-5 0,4.2"/>
<path class="Note" transform="matrix(1.008,0,0,1.008,2073.3,693)" d="M0,4.2 C0,8.5 3.1,13.3 11.2,13.3 C21.6,13.3 32.5,4.8 32.5,-4 C32.5,-9.9 27.5,-13.2 21.3,-13.2 C11.6,-13.2 0,-5 0,4.2"/>
<path class="Note" transform="matrix(1.008,0,0,1.008,774.261,1209.6)" d="M0,4.2 C0,8.5 3.1,13.3 11.2,13.3 C21.6,13.3 32.5,4.8 32.5,-4 C32.5,-9.9 27.5,-13.2 21.3,-13.2 C11.6,-13.2 0,-5 0,4.2"/>
<path class="Note" transform="matrix(1.008,0,0,1.008,698.61,1209.6)" d="M0,4.2 C0,8.5 3.1,13.3 11.2,13.3 C21.6,13.3 32.5,4.8 32.5,-4 C32.5,-9.9 27.5,-13.2 21.3,-13.2 C11.6,-13.2 0,-5 0,4.2"/>
<path class="Note" transform="matrix(1.008,0,0,1.008,1020.77,1650.6)" d="M0,4.2 C0,8.5 3.1,13.3 11.2,13.3 C21.6,13.3 32.5,4.8 32.5,-4 C32.5,-9.9 27.5,-13.2 21.3,-13.2 C11.6,-13.2 0,-5 0,4.2"/>
<path class="Note" transform="matrix(1.008,0,0,1.008,2135.67,680.4)" d="M0,4.2 C0,8.5 3.1,13.3 11.2,13.3 C21.6,13.3 32.5,4.8 32.5,-4 C32.5,-9.9 27.5,-13.2 21.3,-13.2 C11.6,-13.2 0,-5 0,4.2"/>
<path class="Note" transform="matrix(1.008,0,0,1.008,1088.68,1612.8)" d="M0,4.2 C0,8.5 3.1,13.3 11.2,13.3 C21.6,13.3 32.5,4.8 32.5,-4 C32.5,-9.9 27.5,-13.2 21.3,-13.2 C11.6,-13.2 0,-5 0,4.2"/>
<path class="Note" transform="matrix(1.008,0,0,1.008,2142.59,1650.6)" d="M0,4.2 C0,8.5 3.1,13.3 11.2,13.3 C21.6,13.3 32.5,4.8 32.5,-4 C32.5,-9.9 27.5,-13.2 21.3,-13.2 C11.6,-13.2 0,-5 0,4.2"/>
<path class="Note" transform="matrix(1.008,0,0,1.008,509.481,1209.6)" d="M0,4.2 C0,8.5 3.1,13.3 11.2,13.3 C21.6,13.3 32.5,4.8 32.5,-4 C32.5,-9.9 27.5,-13.2 21.3,-13.2 C11.6,-13.2 0,-5 0,4.2"/>
<path class="Note" transform="matrix(1.008,0,0,1.008,2198.05,693)" d="M0,4.2 C0,8.5 3.1,13.3 11.2,13.3 C21.6,13.3 32.5,4.8 32.5,-4 C32.5,-9.9 27.5,-13.2 21.3,-13.2 C11.6,-13.2 0,-5 0,4.2"/>
<path class="Note" transform="matrix(1.008,0,0,1.008,1204.69,1650.6)" d="M0,4.2 C0,8.5 3.1,13.3 11.2,13.3 C21.6,13.3 32.5,4.8 32.5,-4 C32.5,-9.9 27.5,-13.2 21.3,-13.2 C11.6,-13.2 0,-5 0,4.2"/>
<path class="Note" transform="matrix(1.008,0,0,1.008,2081.59,1638)" d="M0,4.2 C0,8.5 3.1,13.3 11.2,13.3 C21.6,13.3 32.5,4.8 32.5,-4 C32.5,-9.9 27.5,-13.2 21.3,-13.2 C11.6,-13.2 0,-5 0,4.2"/>
<path class="Note" transform="matrix(1.008,0,0,1.008,1265.69,1675.8)" d="M0,4.2 C0,8.5 3.1,13.3 11.2,13.3 C21.6,13.3 32.5,4.8 32.5,-4 C32.5,-9.9 27.5,-13.2 21.3,-13.2 C11.6,-13.2 0,-5 0,4.2"/>
<path class="Note" transform="matrix(1.008,0,0,1.008,1342.29,667.8)" d="M0,4.2 C0,8.5 3.1,13.3 11.2,13.3 C21.6,13.3 32.5,4.8 32.5,-4 C32.5,-9.9 27.5,-13.2 21.3,-13.2 C11.6,-13.2 0,-5 0,4.2"/>
<path class="Note" transform="matrix(1.008,0,0,1.008,1404.67,630)" d="M0,4.2 C0,8.5 3.1,13.3 11.2,13.3 C21.6,13.3 32.5,4.8 32.5,-4 C32.5,-9.9 27.5,-13.2 21.3,-13.2 C11.6,-13.2 0,-5 0,4.2"/>
<path class="Note" transform="matrix(1.008,0,0,1.008,1357.2,1688.4)" d="M0,4.2 C0,8.5 3.1,13.3 11.2,13.3 C21.6,13.3 32.5,4.8 32.5,-4 C32.5,-9.9 27.5,-13.2 21.3,-13.2 C11.6,-13.2 0,-5 0,4.2"/>
<path class="Note" transform="matrix(1.008,0,0,1.008,689.974,667.8)" d="M0,4.2 C0,8.5 3.1,13.3 11.2,13.3 C21.6,13.3 32.5,4.8 32.5,-4 C32.5,-9.9 27.5,-13.2 21.3,-13.2 C11.6,-13.2 0,-5 0,4.2"/>
<path class="Note" transform="matrix(1.008,0,0,1.008,1990.08,1650.6)" d="M0,4.2 C0,8.5 3.1,13.3 11.2,13.3 C21.6,13.3 32.5,4.8 32.5,-4 C32.5,-9.9 27.5,-13.2 21.3,-13.2 C11.6,-13.2 0,-5 0,4.2"/>
<path class="Note" transform="matrix(1.008,0,0,1.008,1523.28,655.2)" d="M0,4.2 C0,8.5 3.1,13.3 11.2,13.3 C21.6,13.3 32.5,4.8 32.5,-4 C32.5,-9.9 27.5,-13.2 21.3,-13.2 C11.6,-13.2 0,-5 0,4.2"/>
<path class="Note" transform="matrix(1.008,0,0,1.008,1478.79,1688.4)" d="M0,4.2 C0,8.5 3.1,13.3 11.2,13.3 C21.6,13.3 32.5,4.8 32.5,-4 C32.5,-9.9 27.5,-13.2 21.3,-13.2 C11.6,-13.2 0,-5 0,4.2"/>
<path class="Note" transform="matrix(1.008,0,0,1.008,1616.85,667.8)" d="M0,4.2 C0,8.5 3.1,13.3 11.2,13.3 C21.6,13.3 32.5,4.8 32.5,-4 C32.5,-9.9 27.5,-13.2 21.3,-13.2 C11.6,-13.2 0,-5 0,4.2"/>
<path class="Note" transform="matrix(1.008,0,0,1.008,2685.69,730.8)" d="M0,4.2 C0,8.5 3.1,13.3 11.2,13.3 C21.6,13.3 32.5,4.8 32.5,-4 C32.5,-9.9 27.5,-13.2 21.3,-13.2 C11.6,-13.2 0,-5 0,4.2"/>
<path class="Note" transform="matrix(1.008,0,0,1.008,2592.12,718.2)" d="M0,4.2 C0,8.5 3.1,13.3 11.2,13.3 C21.6,13.3 32.5,4.8 32.5,-4 C32.5,-9.9 27.5,-13.2 21.3,-13.2 C11.6,-13.2 0,-5 0,4.2"/>
<path class="Note" transform="matrix(1.008,0,0,1.008,1631.31,1688.4)" d="M0,4.2 C0,8.5 3.1,13.3 11.2,13.3 C21.6,13.3 32.5,4.8 32.5,-4 C32.5,-9.9 27.5,-13.2 21.3,-13.2 C11.6,-13.2 0,-5 0,4.2"/>
<path class="Note" transform="matrix(1.008,0,0,1.008,2529.75,693)" d="M0,4.2 C0,8.5 3.1,13.3 11.2,13.3 C21.6,13.3 32.5,4.8 32.5,-4 C32.5,-9.9 27.5,-13.2 21.3,-13.2 C11.6,-13.2 0,-5 0,4.2"/>
<path class="Note" transform="matrix(1.008,0,0,1.008,1699.22,1688.4)" d="M0,4.2 C0,8.5 3.1,13.3 11.2,13.3 C21.6,13.3 32.5,4.8 32.5,-4 C32.5,-9.9 27.5,-13.2 21.3,-13.2 C11.6,-13.2 0,-5 0,4.2"/>
<path class="Note" transform="matrix(1.008,0,0,1.008,627.597,680.4)" d="M0,4.2 C0,8.5 3.1,13.3 11.2,13.3 C21.6,13.3 32.5,4.8 32.5,-4 C32.5,-9.9 27.5,-13.2 21.3,-13.2 C11.6,-13.2 0,-5 0,4.2"/>
<path class="Note" transform="matrix(1.008,0,0,1.008,2467.37,655.2)" d="M0,4.2 C0,8.5 3.1,13.3 11.2,13.3 C21.6,13.3 32.5,4.8 32.5,-4 C32.5,-9.9 27.5,-13.2 21.3,-13.2 C11.6,-13.2 0,-5 0,4.2"/>
<path class="Note" transform="matrix(1.008,0,0,1.008,1760.23,1675.8)" d="M0,4.2 C0,8.5 3.1,13.3 11.2,13.3 C21.6,13.3 32.5,4.8 32.5,-4 C32.5,-9.9 27.5,-13.2 21.3,-13.2 C11.6,-13.2 0,-5 0,4.2"/>
<path class="Note" transform="matrix(1.008,0,0,1.008,2373.81,655.2)" d="M0,4.2 C0,8.5 3.1,13.3 11.2,13.3 C21.6,13.3 32.5,4.8 32.5,-4 C32.5,-9.9 27.5,-13.2 21.3,-13.2 C11.6,-13.2 0,-5 0,4.2"/>
<path class="Note" transform="matrix(1.008,0,0,1.008,1821.23,1663.2)" d="M0,4.2 C0,8.5 3.1,13.3 11.2,13.3 C21.6,13.3 32.5,4.8 32.5,-4 C32.5,-9.9 27.5,-13.2 21.3,-13.2 C11.6,-13.2 0,-5 0,4.2"/>
<path class="Note" transform="matrix(1.008,0,0,1.008,2305.89,693)" d="M0,4.2 C0,8.5 3.1,13.3 11.2,13.3 C21.6,13.3 32.5,4.8 32.5,-4 C32.5,-9.9 27.5,-13.2 21.3,-13.2 C11.6,-13.2 0,-5 0,4.2"/>
<path class="Note" transform="matrix(1.008,0,0,1.008,1109.7,667.8)" d="M0,4.2 C0,8.5 3.1,13.3 11.2,13.3 C21.6,13.3 32.5,4.8 32.5,-4 C32.5,-9.9 27.5,-13.2 21.3,-13.2 C11.6,-13.2 0,-5 0,4.2"/>
<path class="Clef" transform="matrix(1.008,0,0,1.008,221.76,705.6)" d="M56.2,2.1 C56.2,9.2 53.3,16.5 46.2,19.4 C44.1,7.4 41.4,-8.5 40.7,-12.9 C49.7,-12.9 56.2,-6.8 56.2,2.1 M42,20.6 C40,21 38.1,21.2 36.2,21.2 C21.9,21.2 9.7,11.2 9.7,-3.9 C9.7,-16.1 18.3,-27 27.1,-34.6 C28.8,-36.1 30.4,-37.5 31.9,-39 C32.8,-33.6 33.5,-28.9 34.2,-24.8 C25.1,-22.1 18.9,-12.5 18.9,-3.1 C18.9,3.9 24.4,13.5 32.4,13.5 C33.2,13.5 34.1,13.1 34.1,12.2 C34.1,11.3 33.1,10.8 31.9,10 C28,7.6 25.8,5 25.8,0.1 C25.8,-6 30.3,-10.9 36.2,-12.3 L42,20.6 M33.2,-82.2 C34.1,-86.2 38.7,-96.7 43.9,-96.7 C45.4,-96.7 47.8,-91.8 47.8,-84.9 C47.8,-74.5 40.1,-66.7 33.2,-59.9 C32.6,-63.9 32.1,-67.8 32.1,-72 C32.1,-75.7 32.4,-79.1 33.2,-82.2 M12.2,51.3 C12.2,57.9 17.3,66.6 30.8,66.6 C35.5,66.6 39.6,65.4 43.2,63.2 C48.6,59.4 50,52.8 50,46.5 C50,42.6 49.4,38.1 48.4,32.4 C48.1,30.4 47.5,27.4 46.9,23.5 C56.7,20.3 64,10.1 64,-0.2 C64,-15.3 53.3,-25.5 38.7,-25.5 C37.7,-31.5 36.7,-37.4 35.8,-43 C46.4,-54.1 53.7,-66.6 53.7,-82.5 C53.7,-91.6 50.9,-99 49.3,-102.6 C46.9,-107.7 44,-111.2 42.2,-111.2 C41.5,-111.2 38.4,-110 35.1,-106.1 C28.7,-98.5 26.9,-85.7 26.9,-77.3 C26.9,-71.9 27.4,-67 29.1,-55.8 C29,-55.7 23.8,-50.4 21.7,-48.7 C12.6,-40.2 0,-28.1 0,-8.1 C0,10.6 16.3,25.3 34.9,25.3 C37.8,25.3 40.5,25 42.8,24.6 C44.7,34.2 45.8,41.2 45.8,46.5 C45.8,56.9 40.5,62.4 30.4,62.4 C28,62.4 25.9,61.9 25.7,61.9 C25.6,61.8 25.4,61.7 25.4,61.6 C25.4,61.4 25.6,61.3 25.9,61.2 C30.6,60.5 35.3,56.5 35.3,50.1 C35.3,44.7 31.2,39 23.7,39 C16.7,39 12.2,44.7 12.2,51.3"/>
<path class="Clef" transform="matrix(1.008,0,0,1.008,221.76,1184.4)" d="M56.2,2.1 C56.2,9.2 53.3,16.5 46.2,19.4 C44.1,7.4 41.4,-8.5 40.7,-12.9 C49.7,-12.9 56.2,-6.8 56.2,2.1 M42,20.6 C40,21 38.1,21.2 36.2,21.2 C21.9,21.2 9.7,11.2 9.7,-3.9 C9.7,-16.1 18.3,-27 27.1,-34.6 C28.8,-36.1 30.4,-37.5 31.9,-39 C32.8,-33.6 33.5,-28.9 34.2,-24.8 C25.1,-22.1 18.9,-12.5 18.9,-3.1 C18.9,3.9 24.4,13.5 32.4,13.5 C33.2,13.5 34.1,13.1 34.1,12.2 C34.1,11.3 33.1,10.8 31.9,10 C28,7.6 25.8,5 25.8,0.1 C25.8,-6 30.3,-10.9 36.2,-12.3 L42,20.6 M33.2,-82.2 C34.1,-86.2 38.7,-96.7 43.9,-96.7 C45.4,-96.7 47.8,-91.8 47.8,-84.9 C47.8,-74.5 40.1,-66.7 33.2,-59.9 C32.6,-63.9 32.1,-67.8 32.1,-72 C32.1,-75.7 32.4,-79.1 33.2,-82.2 M12.2,51.3 C12.2,57.9 17.3,66.6 30.8,66.6 C35.5,66.6 39.6,65.4 43.2,63.2 C48.6,59.4 50,52.8 50,46.5 C50,42.6 49.4,38.1 48.4,32.4 C48.1,30.4 47.5,27.4 46.9,23.5 C56.7,20.3 64,10.1 64,-0.2 C64,-15.3 53.3,-25.5 38.7,-25.5 C37.7,-31.5 36.7,-37.4 35.8,-43 C46.4,-54.1 53.7,-66.6 53.7,-82.5 C53.7,-91.6 50.9,-99 49.3,-102.6 C46.9,-107.7 44,-111.2 42.2,-111.2 C41.5,-111.2 38.4,-110 35.1,-106.1 C28.7,-98.5 26.9,-85.7 26.9,-77.3 C26.9,-71.9 27.4,-67 29.1,-55.8 C29,-55.7 23.8,-50.4 21.7,-48.7 C12.6,-40.2 0,-28.1 0,-8.1 C0,10.6 16.3,25.3 34.9,25.3 C37.8,25.3 40.5,25 42.8,24.6 C44.7,34.2 45.8,41.2 45.8,46.5 C45.8,56.9 40.5,62.4 30.4,62.4 C28,62.4 25.9,61.9 25.7,61.9 C25.6,61.8 25.4,61.7 25.4,61.6 C25.4,61.4 25.6,61.3 25.9,61.2 C30.6,60.5 35.3,56.5 35.3,50.1 C35.3,44.7 31.2,39 23.7,39 C16.7,39 12.2,44.7 12.2,51.3"/>
<path class="Clef" transform="matrix(1.008,0,0,1.008,221.76,1663.2)" d="M56.2,2.1 C56.2,9.2 53.3,16.5 46.2,19.4 C44.1,7.4 41.4,-8.5 40.7,-12.9 C49.7,-12.9 56.2,-6.8 56.2,2.1 M42,20.6 C40,21 38.1,21.2 36.2,21.2 C21.9,21.2 9.7,11.2 9.7,-3.9 C9.7,-16.1 18.3,-27 27.1,-34.6 C28.8,-36.1 30.4,-37.5 31.9,-39 C32.8,-33.6 33.5,-28.9 34.2,-24.8 C25.1,-22.1 18.9,-12.5 18.9,-3.1 C18.9,3.9 24.4,13.5 32.4,13.5 C33.2,13.5 34.1,13.1 34.1,12.2 C34.1,11.3 33.1,10.8 31.9,10 C28,7.6 25.8,5 25.8,0.1 C25.8,-6 30.3,-10.9 36.2,-12.3 L42,20.6 M33.2,-82.2 C34.1,-86.2 38.7,-96.7 43.9,-96.7 C45.4,-96.7 47.8,-91.8 47.8,-84.9 C47.8,-74.5 40.1,-66.7 33.2,-59.9 C32.6,-63.9 32.1,-67.8 32.1,-72 C32.1,-75.7 32.4,-79.1 33.2,-82.2 M12.2,51.3 C12.2,57.9 17.3,66.6 30.8,66.6 C35.5,66.6 39.6,65.4 43.2,63.2 C48.6,59.4 50,52.8 50,46.5 C50,42.6 49.4,38.1 48.4,32.4 C48.1,30.4 47.5,27.4 46.9,23.5 C56.7,20.3 64,10.1 64,-0.2 C64,-15.3 53.3,-25.5 38.7,-25.5 C37.7,-31.5 36.7,-37.4 35.8,-43 C46.4,-54.1 53.7,-66.6 53.7,-82.5 C53.7,-91.6 50.9,-99 49.3,-102.6 C46.9,-107.7 44,-111.2 42.2,-111.2 C41.5,-111.2 38.4,-110 35.1,-106.1 C28.7,-98.5 26.9,-85.7 26.9,-77.3 C26.9,-71.9 27.4,-67 29.1,-55.8 C29,-55.7 23.8,-50.4 21.7,-48.7 C12.6,-40.2 0,-28.1 0,-8.1 C0,10.6 16.3,25.3 34.9,25.3 C37.8,25.3 40.5,25 42.8,24.6 C44.7,34.2 45.8,41.2 45.8,46.5 C45.8,56.9 40.5,62.4 30.4,62.4 C28,62.4 25.9,61.9 25.7,61.9 C25.6,61.8 25.4,61.7 25.4,61.6 C25.4,61.4 25.6,61.3 25.9,61.2 C30.6,60.5 35.3,56.5 35.3,50.1 C35.3,44.7 31.2,39 23.7,39 C16.7,39 12.2,44.7 12.2,51.3"/>
<path class="KeySig" transform="matrix(1.008,0,0,1.008,311.456,1587.6)" d="M23.3,-10.5 C23.9,-10.6 24.4,-11.3 24.4,-11.9 L24.4,-17.8 C24.4,-18.6 23.8,-19.2 23,-19.2 C22.9,-19.2 22.9,-19.2 22.8,-19.2 L19.5,-18.5 L19.5,-33.4 L16.7,-33.4 L16.7,-17.9 L7.8,-16.1 L7.8,-30.2 L5,-30.2 L5,-15.5 L1.1,-14.7 C0.5,-14.6 0,-13.9 0,-13.3 L0,-13.1 L0,-7.3 L0,-7.5 C0,-6.7 0.6,-6.1 1.4,-6.1 C1.5,-6.1 1.6,-6.1 1.7,-6.1 L5,-6.8 L5,9.7 L1.1,10.5 C0.5,10.6 0,11.3 0,11.9 L0,17.7 C0,18.5 0.6,19.1 1.4,19.1 C1.5,19.1 1.6,19.1 1.7,19.1 L5,18.4 L5,33.3 L7.8,33.3 L7.8,17.8 L16.7,16 L16.7,30.1 L19.5,30.1 L19.5,15.4 L23.3,14.7 C23.9,14.6 24.4,13.9 24.4,13.3 L24.4,7.4 C24.4,6.6 23.8,6 23,6 C22.9,6 22.9,6 22.8,6 L19.5,6.7 L19.5,-9.8 L23.3,-10.5 M7.8,-7.4 L16.7,-9.2 L16.7,7.3 L7.8,9.2 L7.8,-7.4 "/>
<path class="KeySig" transform="matrix(1.008,0,0,1.008,339.066,1625.4)" d="M23.3,-10.5 C23.9,-10.6 24.4,-11.3 24.4,-11.9 L24.4,-17.8 C24.4,-18.6 23.8,-19.2 23,-19.2 C22.9,-19.2 22.9,-19.2 22.8,-19.2 L19.5,-18.5 L19.5,-33.4 L16.7,-33.4 L16.7,-17.9 L7.8,-16.1 L7.8,-30.2 L5,-30.2 L5,-15.5 L1.1,-14.7 C0.5,-14.6 0,-13.9 0,-13.3 L0,-13.1 L0,-7.3 L0,-7.5 C0,-6.7 0.6,-6.1 1.4,-6.1 C1.5,-6.1 1.6,-6.1 1.7,-6.1 L5,-6.8 L5,9.7 L1.1,10.5 C0.5,10.6 0,11.3 0,11.9 L0,17.7 C0,18.5 0.6,19.1 1.4,19.1 C1.5,19.1 1.6,19.1 1.7,19.1 L5,18.4 L5,33.3 L7.8,33.3 L7.8,17.8 L16.7,16 L16.7,30.1 L19.5,30.1 L19.5,15.4 L23.3,14.7 C23.9,14.6 24.4,13.9 24.4,13.3 L24.4,7.4 C24.4,6.6 23.8,6 23,6 C22.9,6 22.9,6 22.8,6 L19.5,6.7 L19.5,-9.8 L23.3,-10.5 M7.8,-7.4 L16.7,-9.2 L16.7,7.3 L7.8,9.2 L7.8,-7.4 "/>
<path class="KeySig" transform="matrix(1.008,0,0,1.008,366.66,1575)" d="M23.3,-10.5 C23.9,-10.6 24.4,-11.3 24.4,-11.9 L24.4,-17.8 C24.4,-18.6 23.8,-19.2 23,-19.2 C22.9,-19.2 22.9,-19.2 22.8,-19.2 L19.5,-18.5 L19.5,-33.4 L16.7,-33.4 L16.7,-17.9 L7.8,-16.1 L7.8,-30.2 L5,-30.2 L5,-15.5 L1.1,-14.7 C0.5,-14.6 0,-13.9 0,-13.3 L0,-13.1 L0,-7.3 L0,-7.5 C0,-6.7 0.6,-6.1 1.4,-6.1 C1.5,-6.1 1.6,-6.1 1.7,-6.1 L5,-6.8 L5,9.7 L1.1,10.5 C0.5,10.6 0,11.3 0,11.9 L0,17.7 C0,18.5 0.6,19.1 1.4,19.1 C1.5,19.1 1.6,19.1 1.7,19.1 L5,18.4 L5,33.3 L7.8,33.3 L7.8,17.8 L16.7,16 L16.7,30.1 L19.5,30.1 L19.5,15.4 L23.3,14.7 C23.9,14.6 24.4,13.9 24.4,13.3 L24.4,7.4 C24.4,6.6 23.8,6 23,6 C22.9,6 22.9,6 22.8,6 L19.5,6.7 L19.5,-9.8 L23.3,-10.5 M7.8,-7.4 L16.7,-9.2 L16.7,7.3 L7.8,9.2 L7.8,-7.4 "/>
<path class="KeySig" transform="matrix(1.008,0,0,1.008,394.27,1612.8)" d="M23.3,-10.5 C23.9,-10.6 24.4,-11.3 24.4,-11.9 L24.4,-17.8 C24.4,-18.6 23.8,-19.2 23,-19.2 C22.9,-19.2 22.9,-19.2 22.8,-19.2 L19.5,-18.5 L19.5,-33.4 L16.7,-33.4 L16.7,-17.9 L7.8,-16.1 L7.8,-30.2 L5,-30.2 L5,-15.5 L1.1,-14.7 C0.5,-14.6 0,-13.9 0,-13.3 L0,-13.1 L0,-7.3 L0,-7.5 C0,-6.7 0.6,-6.1 1.4,-6.1 C1.5,-6.1 1.6,-6.1 1.7,-6.1 L5,-6.8 L5,9.7 L1.1,10.5 C0.5,10.6 0,11.3 0,11.9 L0,17.7 C0,18.5 0.6,19.1 1.4,19.1 C1.5,19.1 1.6,19.1 1.7,19.1 L5,18.4 L5,33.3 L7.8,33.3 L7.8,17.8 L16.7,16 L16.7,30.1 L19.5,30.1 L19.5,15.4 L23.3,14.7 C23.9,14.6 24.4,13.9 24.4,13.3 L24.4,7.4 C24.4,6.6 23.8,6 23,6 C22.9,6 22.9,6 22.8,6 L19.5,6.7 L19.5,-9.8 L23.3,-10.5 M7.8,-7.4 L16.7,-9.2 L16.7,7.3 L7.8,9.2 L7.8,-7.4 "/>
<path class="KeySig" transform="matrix(1.008,0,0,1.008,421.88,1650.6)" d="M23.3,-10.5 C23.9,-10.6 24.4,-11.3 24.4,-11.9 L24.4,-17.8 C24.4,-18.6 23.8,-19.2 23,-19.2 C22.9,-19.2 22.9,-19.2 22.8,-19.2 L19.5,-18.5 L19.5,-33.4 L16.7,-33.4 L16.7,-17.9 L7.8,-16.1 L7.8,-30.2 L5,-30.2 L5,-15.5 L1.1,-14.7 C0.5,-14.6 0,-13.9 0,-13.3 L0,-13.1 L0,-7.3 L0,-7.5 C0,-6.7 0.6,-6.1 1.4,-6.1 C1.5,-6.1 1.6,-6.1 1.7,-6.1 L5,-6.8 L5,9.7 L1.1,10.5 C0.5,10.6 0,11.3 0,11.9 L0,17.7 C0,18.5 0.6,19.1 1.4,19.1 C1.5,19.1 1.6,19.1 1.7,19.1 L5,18.4 L5,33.3 L7.8,33.3 L7.8,17.8 L16.7,16 L16.7,30.1 L19.5,30.1 L19.5,15.4 L23.3,14.7 C23.9,14.6 24.4,13.9 24.4,13.3 L24.4,7.4 C24.4,6.6 23.8,6 23,6 C22.9,6 22.9,6 22.8,6 L19.5,6.7 L19.5,-9.8 L23.3,-10.5 M7.8,-7.4 L16.7,-9.2 L16.7,7.3 L7.8,9.2 L7.8,-7.4 "/>
<path class="KeySig" transform="matrix(1.008,0,0,1.008,311.456,630)" d="M23.3,-10.5 C23.9,-10.6 24.4,-11.3 24.4,-11.9 L24.4,-17.8 C24.4,-18.6 23.8,-19.2 23,-19.2 C22.9,-19.2 22.9,-19.2 22.8,-19.2 L19.5,-18.5 L19.5,-33.4 L16.7,-33.4 L16.7,-17.9 L7.8,-16.1 L7.8,-30.2 L5,-30.2 L5,-15.5 L1.1,-14.7 C0.5,-14.6 0,-13.9 0,-13.3 L0,-13.1 L0,-7.3 L0,-7.5 C0,-6.7 0.6,-6.1 1.4,-6.1 C1.5,-6.1 1.6,-6.1 1.7,-6.1 L5,-6.8 L5,9.7 L1.1,10.5 C0.5,10.6 0,11.3 0,11.9 L0,17.7 C0,18.5 0.6,19.1 1.4,19.1 C1.5,19.1 1.6,19.1 1.7,19.1 L5,18.4 L5,33.3 L7.8,33.3 L7.8,17.8 L16.7,16 L16.7,30.1 L19.5,30.1 L19.5,15.4 L23.3,14.7 C23.9,14.6 24.4,13.9 24.4,13.3 L24.4,7.4 C24.4,6.6 23.8,6 23,6 C22.9,6 22.9,6 22.8,6 L19.5,6.7 L19.5,-9.8 L23.3,-10.5 M7.8,-7.4 L16.7,-9.2 L16.7,7.3 L7.8,9.2 L7.8,-7.4 "/>
<path class="KeySig" transform="matrix(1.008,0,0,1.008,339.066,667.8)" d="M23.3,-10.5 C23.9,-10.6 24.4,-11.3 24.4,-11.9 L24.4,-17.8 C24.4,-18.6 23.8,-19.2 23,-19.2 C22.9,-19.2 22.9,-19.2 22.8,-19.2 L19.5,-18.5 L19.5,-33.4 L16.7,-33.4 L16.7,-17.9 L7.8,-16.1 L7.8,-30.2 L5,-30.2 L5,-15.5 L1.1,-14.7 C0.5,-14.6 0,-13.9 0,-13.3 L0,-13.1 L0,-7.3 L0,-7.5 C0,-6.7 0.6,-6.1 1.4,-6.1 C1.5,-6.1 1.6,-6.1 1.7,-6.1 L5,-6.8 L5,9.7 L1.1,10.5 C0.5,10.6 0,11.3 0,11.9 L0,17.7 C0,18.5 0.6,19.1 1.4,19.1 C1.5,19.1 1.6,19.1 1.7,19.1 L5,18.4 L5,33.3 L7.8,33.3 L7.8,17.8 L16.7,16 L16.7,30.1 L19.5,30.1 L19.5,15.4 L23.3,14.7 C23.9,14.6 24.4,13.9 24.4,13.3 L24.4,7.4 C24.4,6.6 23.8,6 23,6 C22.9,6 22.9,6 22.8,6 L19.5,6.7 L19.5,-9.8 L23.3,-10.5 M7.8,-7.4 L16.7,-9.2 L16.7,7.3 L7.8,9.2 L7.8,-7.4 "/>
<path class="KeySig" transform="matrix(1.008,0,0,1.008,366.66,617.4)" d="M23.3,-10.5 C23.9,-10.6 24.4,-11.3 24.4,-11.9 L24.4,-17.8 C24.4,-18.6 23.8,-19.2 23,-19.2 C22.9,-19.2 22.9,-19.2 22.8,-19.2 L19.5,-18.5 L19.5,-33.4 L16.7,-33.4 L16.7,-17.9 L7.8,-16.1 L7.8,-30.2 L5,-30.2 L5,-15.5 L1.1,-14.7 C0.5,-14.6 0,-13.9 0,-13.3 L0,-13.1 L0,-7.3 L0,-7.5 C0,-6.7 0.6,-6.1 1.4,-6.1 C1.5,-6.1 1.6,-6.1 1.7,-6.1 L5,-6.8 L5,9.7 L1.1,10.5 C0.5,10.6 0,11.3 0,11.9 L0,17.7 C0,18.5 0.6,19.1 1.4,19.1 C1.5,19.1 1.6,19.1 1.7,19.1 L5,18.4 L5,33.3 L7.8,33.3 L7.8,17.8 L16.7,16 L16.7,30.1 L19.5,30.1 L19.5,15.4 L23.3,14.7 C23.9,14.6 24.4,13.9 24.4,13.3 L24.4,7.4 C24.4,6.6 23.8,6 23,6 C22.9,6 22.9,6 22.8,6 L19.5,6.7 L19.5,-9.8 L23.3,-10.5 M7.8,-7.4 L16.7,-9.2 L16.7,7.3 L7.8,9.2 L7.8,-7.4 "/>
<path class="KeySig" transform="matrix(1.008,0,0,1.008,394.27,655.2)" d="M23.3,-10.5 C23.9,-10.6 24.4,-11.3 24.4,-11.9 L24.4,-17.8 C24.4,-18.6 23.8,-19.2 23,-19.2 C22.9,-19.2 22.9,-19.2 22.8,-19.2 L19.5,-18.5 L19.5,-33.4 L16.7,-33.4 L16.7,-17.9 L7.8,-16.1 L7.8,-30.2 L5,-30.2 L5,-15.5 L1.1,-14.7 C0.5,-14.6 0,-13.9 0,-13.3 L0,-13.1 L0,-7.3 L0,-7.5 C0,-6.7 0.6,-6.1 1.4,-6.1 C1.5,-6.1 1.6,-6.1 1.7,-6.1 L5,-6.8 L5,9.7 L1.1,10.5 C0.5,10.6 0,11.3 0,11.9 L0,17.7 C0,18.5 0.6,19.1 1.4,19.1 C1.5,19.1 1.6,19.1 1.7,19.1 L5,18.4 L5,33.3 L7.8,33.3 L7.8,17.8 L16.7,16 L16.7,30.1 L19.5,30.1 L19.5,15.4 L23.3,14.7 C23.9,14.6 24.4,13.9 24.4,13.3 L24.4,7.4 C24.4,6.6 23.8,6 23,6 C22.9,6 22.9,6 22.8,6 L19.5,6.7 L19.5,-9.8 L23.3,-10.5 M7.8,-7.4 L16.7,-9.2 L16.7,7.3 L7.8,9.2 L7.8,-7.4 "/>
<path class="KeySig" transform="matrix(1.008,0,0,1.008,421.88,693)" d="M23.3,-10.5 C23.9,-10.6 24.4,-11.3 24.4,-11.9 L24.4,-17.8 C24.4,-18.6 23.8,-19.2 23,-19.2 C22.9,-19.2 22.9,-19.2 22.8,-19.2 L19.5,-18.5 L19.5,-33.4 L16.7,-33.4 L16.7,-17.9 L7.8,-16.1 L7.8,-30.2 L5,-30.2 L5,-15.5 L1.1,-14.7 C0.5,-14.6 0,-13.9 0,-13.3 L0,-13.1 L0,-7.3 L0,-7.5 C0,-6.7 0.6,-6.1 1.4,-6.1 C1.5,-6.1 1.6,-6.1 1.7,-6.1 L5,-6.8 L5,9.7 L1.1,10.5 C0.5,10.6 0,11.3 0,11.9 L0,17.7 C0,18.5 0.6,19.1 1.4,19.1 C1.5,19.1 1.6,19.1 1.7,19.1 L5,18.4 L5,33.3 L7.8,33.3 L7.8,17.8 L16.7,16 L16.7,30.1 L19.5,30.1 L19.5,15.4 L23.3,14.7 C23.9,14.6 24.4,13.9 24.4,13.3 L24.4,7.4 C24.4,6.6 23.8,6 23,6 C22.9,6 22.9,6 22.8,6 L19.5,6.7 L19.5,-9.8 L23.3,-10.5 M7.8,-7.4 L16.7,-9.2 L16.7,7.3 L7.8,9.2 L7.8,-7.4 "/>
<path class="KeySig" transform="matrix(1.008,0,0,1.008,311.456,1108.8)" d="M23.3,-10.5 C23.9,-10.6 24.4,-11.3 24.4,-11.9 L24.4,-17.8 C24.4,-18.6 23.8,-19.2 23,-19.2 C22.9,-19.2 22.9,-19.2 22.8,-19.2 L19.5,-18.5 L19.5,-33.4 L16.7,-33.4 L16.7,-17.9 L7.8,-16.1 L7.8,-30.2 L5,-30.2 L5,-15.5 L1.1,-14.7 C0.5,-14.6 0,-13.9 0,-13.3 L0,-13.1 L0,-7.3 L0,-7.5 C0,-6.7 0.6,-6.1 1.4,-6.1 C1.5,-6.1 1.6,-6.1 1.7,-6.1 L5,-6.8 L5,9.7 L1.1,10.5 C0.5,10.6 0,11.3 0,11.9 L0,17.7 C0,18.5 0.6,19.1 1.4,19.1 C1.5,19.1 1.6,19.1 1.7,19.1 L5,18.4 L5,33.3 L7.8,33.3 L7.8,17.8 L16.7,16 L16.7,30.1 L19.5,30.1 L19.5,15.4 L23.3,14.7 C23.9,14.6 24.4,13.9 24.4,13.3 L24.4,7.4 C24.4,6.6 23.8,6 23,6 C22.9,6 22.9,6 22.8,6 L19.5,6.7 L19.5,-9.8 L23.3,-10.5 M7.8,-7.4 L16.7,-9.2 L16.7,7.3 L7.8,9.2 L7.8,-7.4 "/>
<path class="KeySig" transform="matrix(1.008,0,0,1.008,339.066,1146.6)" d="M23.3,-10.5 C23.9,-10.6 24.4,-11.3 24.4,-11.9 L24.4,-17.8 C24.4,-18.6 23.8,-19.2 23,-19.2 C22.9,-19.2 22.9,-19.2 22.8,-19.2 L19.5,-18.5 L19.5,-33.4 L16.7,-33.4 L16.7,-17.9 L7.8,-16.1 L7.8,-30.2 L5,-30.2 L5,-15.5 L1.1,-14.7 C0.5,-14.6 0,-13.9 0,-13.3 L0,-13.1 L0,-7.3 L0,-7.5 C0,-6.7 0.6,-6.1 1.4,-6.1 C1.5,-6.1 1.6,-6.1 1.7,-6.1 L5,-6.8 L5,9.7 L1.1,10.5 C0.5,10.6 0,11.3 0,11.9 L0,17.7 C0,18.5 0.6,19.1 1.4,19.1 C1.5,19.1 1.6,19.1 1.7,19.1 L5,18.4 L5,33.3 L7.8,33.3 L7.8,17.8 L16.7,16 L16.7,30.1 L19.5,30.1 L19.5,15.4 L23.3,14.7 C23.9,14.6 24.4,13.9 24.4,13.3 L24.4,7.4 C24.4,6.6 23.8,6 23,6 C22.9,6 22.9,6 22.8,6 L19.5,6.7 L19.5,-9.8 L23.3,-10.5 M7.8,-7.4 L16.7,-9.2 L16.7,7.3 L7.8,9.2 L7.8,-7.4 "/>
<path class="KeySig" transform="matrix(1.008,0,0,1.008,366.66,1096.2)" d="M23.3,-10.5 C23.9,-10.6 24.4,-11.3 24.4,-11.9 L24.4,-17.8 C24.4,-18.6 23.8,-19.2 23,-19.2 C22.9,-19.2 22.9,-19.2 22.8,-19.2 L19.5,-18.5 L19.5,-33.4 L16.7,-33.4 L16.7,-17.9 L7.8,-16.1 L7.8,-30.2 L5,-30.2 L5,-15.5 L1.1,-14.7 C0.5,-14.6 0,-13.9 0,-13.3 L0,-13.1 L0,-7.3 L0,-7.5 C0,-6.7 0.6,-6.1 1.4,-6.1 C1.5,-6.1 1.6,-6.1 1.7,-6.1 L5,-6.8 L5,9.7 L1.1,10.5 C0.5,10.6 0,11.3 0,11.9 L0,17.7 C0,18.5 0.6,19.1 1.4,19.1 C1.5,19.1 1.6,19.1 1.7,19.1 L5,18.4 L5,33.3 L7.8,33.3 L7.8,17.8 L16.7,16 L16.7,30.1 L19.5,30.1 L19.5,15.4 L23.3,14.7 C23.9,14.6 24.4,13.9 24.4,13.3 L24.4,7.4 C24.4,6.6 23.8,6 23,6 C22.9,6 22.9,6 22.8,6 L19.5,6.7 L19.5,-9.8 L23.3,-10.5 M7.8,-7.4 L16.7,-9.2 L16.7,7.3 L7.8,9.2 L7.8,-7.4 "/>
<path class="KeySig" transform="matrix(1.008,0,0,1.008,394.27,1134)" d="M23.3,-10.5 C23.9,-10.6 24.4,-11.3 24.4,-11.9 L24.4,-17.8 C24.4,-18.6 23.8,-19.2 23,-19.2 C22.9,-19.2 22.9,-19.2 22.8,-19.2 L19.5,-18.5 L19.5,-33.4 L16.7,-33.4 L16.7,-17.9 L7.8,-16.1 L7.8,-30.2 L5,-30.2 L5,-15.5 L1.1,-14.7 C0.5,-14.6 0,-13.9 0,-13.3 L0,-13.1 L0,-7.3 L0,-7.5 C0,-6.7 0.6,-6.1 1.4,-6.1 C1.5,-6.1 1.6,-6.1 1.7,-6.1 L5,-6.8 L5,9.7 L1.1,10.5 C0.5,10.6 0,11.3 0,11.9 L0,17.7 C0,18.5 0.6,19.1 1.4,19.1 C1.5,19.1 1.6,19.1 1.7,19.1 L5,18.4 L5,33.3 L7.8,33.3 L7.8,17.8 L16.7,16 L16.7,30.1 L19.5,30.1 L19.5,15.4 L23.3,14.7 C23.9,14.6 24.4,13.9 24.4,13.3 L24.4,7.4 C24.4,6.6 23.8,6 23,6 C22.9,6 22.9,6 22.8,6 L19.5,6.7 L19.5,-9.8 L23.3,-10.5 M7.8,-7.4 L16.7,-9.2 L16.7,7.3 L7.8,9.2 L7.8,-7.4 "/>
<path class="KeySig" transform="matrix(1.008,0,0,1.008,421.88,1171.8)" d="M23.3,-10.5 C23.9,-10.6 24.4,-11.3 24.4,-11.9 L24.4,-17.8 C24.4,-18.6 23.8,-19.2 23,-19.2 C22.9,-19.2 22.9,-19.2 22.8,-19.2 L19.5,-18.5 L19.5,-33.4 L16.7,-33.4 L16.7,-17.9 L7.8,-16.1 L7.8,-30.2 L5,-30.2 L5,-15.5 L1.1,-14.7 C0.5,-14.6 0,-13.9 0,-13.3 L0,-13.1 L0,-7.3 L0,-7.5 C0,-6.7 0.6,-6.1 1.4,-6.1 C1.5,-6.1 1.6,-6.1 1.7,-6.1 L5,-6.8 L5,9.7 L1.1,10.5 C0.5,10.6 0,11.3 0,11.9 L0,17.7 C0,18.5 0.6,19.1 1.4,19.1 C1.5,19.1 1.6,19.1 1.7,19.1 L5,18.4 L5,33.3 L7.8,33.3 L7.8,17.8 L16.7,16 L16.7,30.1 L19.5,30.1 L19.5,15.4 L23.3,14.7 C23.9,14.6 24.4,13.9 24.4,13.3 L24.4,7.4 C24.4,6.6 23.8,6 23,6 C22.9,6 22.9,6 22.8,6 L19.5,6.7 L19.5,-9.8 L23.3,-10.5 M7.8,-7.4 L16.7,-9.2 L16.7,7.3 L7.8,9.2 L7.8,-7.4 "/>
<path class="TimeSig" transform="matrix(1.008,0,0,1.008,470.279,655.2)" d="M20.8,12.7 L20.8,20.1 L12.5,20.1 C11.8,20.1 11.1,20.7 11.1,21.5 L11.1,23.4 C11.1,24.2 11.8,24.8 12.5,24.8 L42.8,24.8 C43.6,24.8 44.2,24.2 44.2,23.4 L44.2,21.5 C44.2,20.7 43.6,20.1 42.8,20.1 L33.8,20.1 L33.8,12.7 L42.8,12.7 C43.6,12.7 44.2,12 44.2,11.2 L44.2,9.3 C44.2,8.6 43.6,7.9 42.8,7.9 L33.8,7.9 L33.8,-8 C33.8,-8.6 33.5,-9.1 33.1,-9.3 L31.9,-9.9 C31.7,-10 31.6,-10 31.4,-10 C31.3,-10 31.3,-10 31.2,-10 C30.9,-10 30.5,-9.9 30.3,-9.7 L21.2,-1.4 C20.9,-1.1 20.8,-0.7 20.8,-0.3 L20.8,7.9 L9.2,7.9 C9.2,7.9 20.4,-4.1 32.2,-19.9 C32.6,-20.4 32.7,-20.9 32.7,-21.3 C32.7,-21.8 32.5,-22.2 32.4,-22.3 L30.2,-24.5 C29.9,-24.7 29.6,-24.9 29.2,-24.9 C28.6,-24.9 15.1,-24.9 14.3,-24.9 C13.6,-24.9 13.1,-24.3 13,-23.7 C13,-23.7 12.5,-16.3 9.9,-8.2 C7.3,-0.1 4.3,4.9 1.7,8.6 C1.7,8.6 1.4,9.1 1.4,9.7 C1.4,9.9 1.4,10.1 1.5,10.3 C1.8,11 2.5,12.1 2.5,12.1 C2.5,12.1 2.7,12.7 3.6,12.7 L20.8,12.7 "/>
<path class="TimeSig" transform="matrix(1.008,0,0,1.008,470.279,705.6)" d="M20.8,12.7 L20.8,20.1 L12.5,20.1 C11.8,20.1 11.1,20.7 11.1,21.5 L11.1,23.4 C11.1,24.2 11.8,24.8 12.5,24.8 L42.8,24.8 C43.6,24.8 44.2,24.2 44.2,23.4 L44.2,21.5 C44.2,20.7 43.6,20.1 42.8,20.1 L33.8,20.1 L33.8,12.7 L42.8,12.7 C43.6,12.7 44.2,12 44.2,11.2 L44.2,9.3 C44.2,8.6 43.6,7.9 42.8,7.9 L33.8,7.9 L33.8,-8 C33.8,-8.6 33.5,-9.1 33.1,-9.3 L31.9,-9.9 C31.7,-10 31.6,-10 31.4,-10 C31.3,-10 31.3,-10 31.2,-10 C30.9,-10 30.5,-9.9 30.3,-9.7 L21.2,-1.4 C20.9,-1.1 20.8,-0.7 20.8,-0.3 L20.8,7.9 L9.2,7.9 C9.2,7.9 20.4,-4.1 32.2,-19.9 C32.6,-20.4 32.7,-20.9 32.7,-21.3 C32.7,-21.8 32.5,-22.2 32.4,-22.3 L30.2,-24.5 C29.9,-24.7 29.6,-24.9 29.2,-24.9 C28.6,-24.9 15.1,-24.9 14.3,-24.9 C13.6,-24.9 13.1,-24.3 13,-23.7 C13,-23.7 12.5,-16.3 9.9,-8.2 C7.3,-0.1 4.3,4.9 1.7,8.6 C1.7,8.6 1.4,9.1 1.4,9.7 C1.4,9.9 1.4,10.1 1.5,10.3 C1.8,11 2.5,12.1 2.5,12.1 C2.5,12.1 2.7,12.7 3.6,12.7 L20.8,12.7 "/>
<path class="Rest" transform="matrix(1.008,0,0,1.008,1570.3,1638)" d="M26.7,-20.3 C26.6,-20.3 26.4,-20.4 26.3,-20.4 C25.7,-20.4 25.2,-20.1 25,-19.6 C24.6,-19 21.5,-13.1 17,-9.8 C15.7,-8.8 14.1,-8.1 12.5,-7.8 C13.6,-9.1 14.3,-10.7 14.3,-12.6 C14.3,-16.5 11.1,-19.7 7.2,-19.7 C3.2,-19.7 0,-16.5 0,-12.6 C0,-9.5 1.9,-7 4.5,-5.9 C6,-5.2 8,-4.7 10,-4.7 C12.9,-4.7 16,-5.6 18.7,-7.6 C19.9,-8.5 21.1,-9.7 22.2,-10.9 L10.8,24.7 L13.5,25.5 L27.5,-18.6 C27.6,-18.7 27.6,-18.9 27.6,-19.1 C27.6,-19.6 27.3,-20 26.7,-20.3"/>
<path class="Rest" transform="matrix(1.008,0,0,1.008,2601.22,1638)" d="M0,-1 C0,0.4 0,0.4 1.4,0.4 L31.1,0.4 C32.5,0.4 32.5,0.4 32.5,-1 L32.5,-11.8 C32.5,-13.2 32.5,-13.2 31.1,-13.2 L1.4,-13.2 C0,-13.2 0,-13.2 0,-11.8 L0,-1 "/>
<path class="Rest" transform="matrix(1.008,0,0,1.008,565.22,680.4)" d="M26.7,-20.3 C26.6,-20.3 26.4,-20.4 26.3,-20.4 C25.7,-20.4 25.2,-20.1 25,-19.6 C24.6,-19 21.5,-13.1 17,-9.8 C15.7,-8.8 14.1,-8.1 12.5,-7.8 C13.6,-9.1 14.3,-10.7 14.3,-12.6 C14.3,-16.5 11.1,-19.7 7.2,-19.7 C3.2,-19.7 0,-16.5 0,-12.6 C0,-9.5 1.9,-7 4.5,-5.9 C6,-5.2 8,-4.7 10,-4.7 C12.9,-4.7 16,-5.6 18.7,-7.6 C19.9,-8.5 21.1,-9.7 22.2,-10.9 L10.8,24.7 L13.5,25.5 L27.5,-18.6 C27.6,-18.7 27.6,-18.9 27.6,-19.1 C27.6,-19.6 27.3,-20 26.7,-20.3"/>
<path class="Rest" transform="matrix(1.008,0,0,1.008,622.958,1159.2)" d="M26.7,-20.3 C26.6,-20.3 26.4,-20.4 26.3,-20.4 C25.7,-20.4 25.2,-20.1 25,-19.6 C24.6,-19 21.5,-13.1 17,-9.8 C15.7,-8.8 14.1,-8.1 12.5,-7.8 C13.6,-9.1 14.3,-10.7 14.3,-12.6 C14.3,-16.5 11.1,-19.7 7.2,-19.7 C3.2,-19.7 0,-16.5 0,-12.6 C0,-9.5 1.9,-7 4.5,-5.9 C6,-5.2 8,-4.7 10,-4.7 C12.9,-4.7 16,-5.6 18.7,-7.6 C19.9,-8.5 21.1,-9.7 22.2,-10.9 L10.8,24.7 L13.5,25.5 L27.5,-18.6 C27.6,-18.7 27.6,-18.9 27.6,-19.1 C27.6,-19.6 27.3,-20 26.7,-20.3"/>
<path class="Rest" transform="matrix(1.008,0,0,1.008,1794.5,1159.2)" d="M26.7,-20.3 C26.6,-20.3 26.4,-20.4 26.3,-20.4 C25.7,-20.4 25.2,-20.1 25,-19.6 C24.6,-19 21.5,-13.1 17,-9.8 C15.7,-8.8 14.1,-8.1 12.5,-7.8 C13.6,-9.1 14.3,-10.7 14.3,-12.6 C14.3,-16.5 11.1,-19.7 7.2,-19.7 C3.2,-19.7 0,-16.5 0,-12.6 C0,-9.5 1.9,-7 4.5,-5.9 C6,-5.2 8,-4.7 10,-4.7 C12.9,-4.7 16,-5.6 18.7,-7.6 C19.9,-8.5 21.1,-9.7 22.2,-10.9 L10.8,24.7 L13.5,25.5 L27.5,-18.6 C27.6,-18.7 27.6,-18.9 27.6,-19.1 C27.6,-19.6 27.3,-20 26.7,-20.3"/>
<path class="Beam" fill-rule="evenodd" d="M627.597,743.4 L755.123,743.4 L755.123,756 L627.597,756 L627.597,743.4 "/>
<path class="Beam" fill-rule="evenodd" d="M1257.61,1083.58 L1336.04,1089.88 L1336.04,1102.52 L1257.61,1096.22 L1257.61,1083.58 "/>
<path class="Beam" fill-rule="evenodd" d="M2040.89,604.8 L2230.8,604.8 L2230.8,617.4 L2040.89,617.4 L2040.89,604.8 "/>
<path class="Beam" fill-rule="evenodd" d="M759.883,1562.4 L945.673,1562.4 L945.673,1575 L759.883,1575 L759.883,1562.4 "/>
<path class="Beam" fill-rule="evenodd" d="M804.233,1108.79 L1033.96,1096.19 L1033.96,1108.81 L804.233,1121.41 L804.233,1108.79 "/>
<path class="Beam" fill-rule="evenodd" d="M2618.68,1209.6 L2697.1,1209.6 L2697.1,1222.2 L2618.68,1222.2 L2618.68,1209.6 "/>
<path class="Beam" fill-rule="evenodd" d="M1945.8,1222.2 L2175.53,1215.9 L2175.53,1228.5 L1945.8,1234.8 L1945.8,1222.2 "/>
<path class="Beam" fill-rule="evenodd" d="M2111.56,1562.37 L2175.34,1568.67 L2175.34,1581.33 L2111.56,1575.03 L2111.56,1562.37 "/>
<path class="Beam" fill-rule="evenodd" d="M1646.82,592.171 L1711.97,598.471 L1711.97,611.129 L1646.82,604.829 L1646.82,592.171 "/>
<path class="Beam" fill-rule="evenodd" d="M1729.19,1587.59 L1914.98,1574.99 L1914.98,1587.61 L1729.19,1600.21 L1729.19,1587.59 "/>
<path class="Beam" fill-rule="evenodd" d="M1077.29,585.9 L1267.2,585.9 L1267.2,598.5 L1077.29,598.5 L1077.29,585.9 "/>
<path class="NoteDot" transform="matrix(1.008,0,0,1.008,1134.03,1600.2)" d="M0,0 C0,2.8 2.2,5 5,5 C7.8,5 10,2.8 10,0 C10,-2.8 7.8,-5 5,-5 C2.2,-5 0,-2.8 0,0"/>
<path class="NoteDot" transform="matrix(1.008,0,0,1.008,2406.7,1096.2)" d="M0,0 C0,2.8 2.2,5 5,5 C7.8,5 10,2.8 10,0 C10,-2.8 7.8,-5 5,-5 C2.2,-5 0,-2.8 0,0"/>
<path class="NoteDot" transform="matrix(1.008,0,0,1.008,1450.01,617.4)" d="M0,0 C0,2.8 2.2,5 5,5 C7.8,5 10,2.8 10,0 C10,-2.8 7.8,-5 5,-5 C2.2,-5 0,-2.8 0,0"/>
</svg>
